<?xml version="1.0" encoding="iso-8859-1"?>
<!-- Generator: Adobe Illustrator 14.0.0, SVG Export Plug-In . SVG Version: 6.00 Build 43363)  -->
<!DOCTYPE svg PUBLIC "-//W3C//DTD SVG 1.1//EN" "http://www.w3.org/Graphics/SVG/1.1/DTD/svg11.dtd">
<svg version="1.1" id="Layer_1" xmlns="http://www.w3.org/2000/svg" xmlns:xlink="http://www.w3.org/1999/xlink" x="0px" y="0px"
	 width="42px" height="42px" viewBox="0 0 42 42" style="enable-background:new 0 0 42 42;" xml:space="preserve">
<g>
	<polygon style="opacity:0.15;fill:#A3A1A2;" points="25.347,27.224 17.128,27.233 13.008,20.12 17.11,12.997 25.33,12.988 
		29.448,20.102 	"/>
	<g style="opacity:0.6;">
		
			<circle style="fill:none;stroke:#010101;stroke-width:2.0332;stroke-linecap:square;stroke-linejoin:round;" cx="21" cy="21.36" r="19.084"/>
		<g>
			<polygon style="fill:none;stroke:#010101;stroke-width:2.0332;stroke-linecap:square;stroke-linejoin:round;" points="
				25.097,28.474 16.878,28.483 12.758,21.37 16.86,14.247 25.08,14.238 29.198,21.352 			"/>
			<polygon style="fill:none;stroke:#010101;stroke-width:2.0332;stroke-linecap:square;stroke-linejoin:round;" points="
				24.596,14.045 18.041,14.052 14.756,8.379 18.027,2.699 24.582,2.692 27.866,8.364 			"/>
			<polygon style="fill:#010101;" points="24.764,40.716 17.336,40.724 13.613,34.296 17.32,27.858 24.748,27.851 28.47,34.278 			
				"/>
			<polygon style="fill:none;stroke:#010101;stroke-width:2.0332;stroke-linecap:square;stroke-linejoin:round;" points="
				13.175,33.298 6.62,33.306 3.337,27.632 6.606,21.952 13.161,21.944 16.447,27.617 			"/>
			<polygon style="fill:#010101;" points="13.664,21.223 6.049,21.231 2.233,14.641 6.032,8.039 13.648,8.031 17.467,14.623 			"/>
			<polygon style="fill:#010101;" points="36.163,21.462 28.741,21.472 25.02,15.047 28.726,8.614 36.148,8.606 39.866,15.029 			
				"/>
			<polygon style="fill:none;stroke:#010101;stroke-width:2.0332;stroke-linecap:square;stroke-linejoin:round;" points="
				35.478,33.372 28.923,33.378 25.637,27.706 28.909,22.026 35.464,22.019 38.747,27.69 			"/>
		</g>
	</g>
	<g>
		
			<circle style="fill:none;stroke:#BFBEBE;stroke-width:2.0332;stroke-linecap:square;stroke-linejoin:round;" cx="21" cy="20.36" r="19.084"/>
		<g>
			<polygon style="fill:none;stroke:#BFBEBE;stroke-width:2.0332;stroke-linecap:square;stroke-linejoin:round;" points="
				25.097,27.474 16.878,27.483 12.758,20.37 16.86,13.247 25.08,13.238 29.198,20.352 			"/>
			<polygon style="fill:none;stroke:#BFBEBE;stroke-width:2.0332;stroke-linecap:square;stroke-linejoin:round;" points="
				24.596,13.045 18.041,13.052 14.756,7.379 18.027,1.699 24.582,1.692 27.866,7.364 			"/>
			<polygon style="fill:#BFBEBE;" points="24.764,39.716 17.336,39.724 13.613,33.296 17.32,26.858 24.748,26.851 28.47,33.278 			
				"/>
			<polygon style="fill:none;stroke:#BFBEBE;stroke-width:2.0332;stroke-linecap:square;stroke-linejoin:round;" points="
				13.175,32.298 6.62,32.306 3.337,26.632 6.606,20.952 13.161,20.944 16.447,26.617 			"/>
			<polygon style="fill:#BFBEBE;" points="13.664,20.223 6.049,20.231 2.233,13.641 6.032,7.039 13.648,7.031 17.467,13.623 			"/>
			<polygon style="fill:#BFBEBE;" points="36.163,20.462 28.741,20.471 25.02,14.047 28.726,7.614 36.148,7.606 39.866,14.029 			
				"/>
			<polygon style="fill:none;stroke:#BFBEBE;stroke-width:2.0332;stroke-linecap:square;stroke-linejoin:round;" points="
				35.478,32.372 28.923,32.378 25.637,26.706 28.909,21.026 35.464,21.019 38.747,26.69 			"/>
		</g>
	</g>
</g>
</svg>
