<?xml version="1.0" encoding="iso-8859-1"?>
<!-- Generator: Adobe Illustrator 14.0.0, SVG Export Plug-In . SVG Version: 6.00 Build 43363)  -->
<!DOCTYPE svg PUBLIC "-//W3C//DTD SVG 1.1//EN" "http://www.w3.org/Graphics/SVG/1.1/DTD/svg11.dtd">
<svg version="1.1" id="Layer_1" xmlns="http://www.w3.org/2000/svg" xmlns:xlink="http://www.w3.org/1999/xlink" x="0px" y="0px"
	 width="42px" height="42px" viewBox="0 0 42 42" style="enable-background:new 0 0 42 42;" xml:space="preserve">
<g>
	<rect x="3.039" y="13.919" style="opacity:0.15;fill:#A3A2A2;" width="26.24" height="21.374"/>
	<g style="opacity:0.6;">
		<path d="M28.918,37.598H5.267c-2.077,0-3.767-1.689-3.767-3.768V16.221c0-2.075,1.69-3.766,3.767-3.766h23.651
			c2.076,0,3.767,1.69,3.767,3.766V33.83C32.685,35.908,30.994,37.598,28.918,37.598L28.918,37.598z M28.918,16.221L5.267,16.222
			V33.83H28.92L28.918,16.221L28.918,16.221z"/>
	</g>
	<g style="opacity:0.6;">
		<path d="M37.675,29.23h-7.108v-1.883h7.108c0.52,0,0.942-0.424,0.942-0.943V7.228c0-0.519-0.423-0.941-0.942-0.941H10.682
			c-0.52,0-0.942,0.423-0.942,0.941v8.289H7.856V7.228c0-1.558,1.267-2.825,2.825-2.825h26.993c1.558,0,2.825,1.268,2.825,2.825
			v19.176C40.5,27.963,39.232,29.23,37.675,29.23L37.675,29.23z"/>
	</g>
	<path style="fill:none;stroke:#BEBEBE;stroke-width:4.0663;" d="M30.064,33.094c0,1.043-0.844,1.885-1.883,1.885H4.53
		c-1.04,0-1.884-0.842-1.884-1.885V15.488c0-1.039,0.844-1.883,1.884-1.883h23.651c1.039,0,1.883,0.844,1.883,1.883V33.094z"/>
	<path style="fill:none;stroke:#BEBEBE;stroke-width:2.0332;" d="M8.061,14.781V6.494c0-1.041,0.843-1.884,1.884-1.884h26.994
		c1.04,0,1.883,0.843,1.883,1.884V25.67c0,1.041-0.843,1.883-1.883,1.883h-7.109"/>
	<rect x="8.027" y="19.1" style="fill:#BEBEBE;" width="1.853" height="1.853"/>
	<rect x="13.141" y="19.1" style="fill:#BEBEBE;" width="1.853" height="1.853"/>
	<rect x="18.255" y="19.1" style="fill:#BEBEBE;" width="1.853" height="1.853"/>
	<rect x="23.369" y="19.1" style="fill:#BEBEBE;" width="1.852" height="1.853"/>
	<rect x="11.964" y="8.621" style="fill:#BEBEBE;" width="18.294" height="1.853"/>
	<rect x="32.632" y="8.621" style="fill:#BEBEBE;" width="1.853" height="1.853"/>
</g>
</svg>
