<?xml version="1.0" encoding="iso-8859-1"?>
<!-- Generator: Adobe Illustrator 14.0.0, SVG Export Plug-In . SVG Version: 6.00 Build 43363)  -->
<!DOCTYPE svg PUBLIC "-//W3C//DTD SVG 1.1//EN" "http://www.w3.org/Graphics/SVG/1.1/DTD/svg11.dtd">
<svg version="1.1" id="Layer_1" xmlns="http://www.w3.org/2000/svg" xmlns:xlink="http://www.w3.org/1999/xlink" x="0px" y="0px"
	 width="42px" height="42px" viewBox="0 0 42 42" style="enable-background:new 0 0 42 42;" xml:space="preserve">
<g>
	<path style="opacity:0.15;fill:#ACACAC;enable-background:new    ;" d="M19.809,6.377c0,0-9.925-0.923-10.156,1.154
		s-3.231,4.848-3.231,4.848s-0.739,0.867-1.666,2.026c-0.133,0.167,7.539,3.674,7.514,3.897c-0.154,1.386,0.704,3.83-0.539,3.848
		c-5.386,0.077-10.249-3.161-10.341-2.979c-0.175,0.348-0.277,0.632-0.277,0.823c0,1.386-1.385,12.234,6.001,12.234
		s23.774-0.231,24.928-0.231s8.311,1.847,8.771-4.154c0.189-2.461,0.361-5.321-0.461-7.616c-0.107-0.3-10.428,2.135-10.541,1.847
		c-0.648-1.643,0.076-3.155,0.385-4.155c0.051-0.169,6.904-2.809,6.826-2.95c-0.356-0.637-0.649-1.129-0.825-1.437
		C35.274,11.917,33.196,5.223,19.809,6.377z"/>
	<g style="opacity:0.6;">
		<path style="fill:none;stroke:#000000;stroke-width:2;stroke-linecap:round;stroke-linejoin:round;" d="M7.725,34.202v2.846
			c0,0.482-0.392,0.875-0.875,0.875H3.713c-0.483,0-0.875-0.393-0.875-0.875l-0.364-4.961"/>
		<path style="fill:none;stroke:#000000;stroke-width:2;stroke-linecap:round;stroke-linejoin:round;" d="M2.064,20.572
			c1.431,1.54,9.171,2.704,9.941,2.044c0.77-0.66,0-3.961-0.99-4.07c-0.991-0.11-5.611-1.98-5.611-1.98"/>
		<path style="fill:none;stroke:#000000;stroke-width:2;stroke-linecap:round;stroke-linejoin:round;" d="M7.142,13
			c-1.094,1.751,9.191,1.605,14.59,1.531"/>
		<path d="M6.497,35.016c-2.58,0-6.326-1.983-6.326-5.092c0-0.521-0.03-1.395-0.065-2.4c-0.164-4.803-0.161-6.671,0.183-7.587
			c0.407-1.086,2.911-4.322,4.488-6.302c1.004-2.524,3.457-7.776,6.629-8.226C13.131,5.164,16.444,5,21.021,5h1.039
			c4.576,0,6.81,0.164,8.535,0.409c3.172,0.449,5.625,5.701,6.629,8.226c1.577,1.979,4.08,5.216,4.488,6.302
			c0.344,0.916,0.346,2.784,0.183,7.587c-0.034,1.006-0.065,1.879-0.065,2.4c0,3.108-3.746,5.092-6.326,5.092 M35.503,31.323
			c1.131,0,4.461-0.537,4.461-1.633c0-0.55,0.085-8.84,0.049-9.061c0,0-2.125-3.05-3.588-4.904
			c-0.577-0.731-1.405-1.392-1.596-1.847c-2.136-5.078-3.938-4.564-4.752-4.813c-1.24-0.176-2.743-0.372-8.018-0.372h-1.039
			c-5.274,0-7.857,0.196-9.097,0.372c-0.814,0.249-2.617-0.265-4.752,4.813c-0.191,0.455-1.019,1.115-1.596,1.847
			C4.113,17.58,1.987,20.63,1.987,20.63c-0.036,0.221,0.048,8.511,0.048,9.061c0,1.096,3.331,1.633,4.461,1.633H35.503z"/>
		<path style="fill:none;stroke:#000000;stroke-width:2;stroke-linecap:round;stroke-linejoin:round;" d="M34.274,34.202v2.846
			c0,0.482,0.393,0.875,0.875,0.875h3.137c0.484,0,0.876-0.393,0.876-0.875l0.364-4.961"/>
		<path style="fill:none;stroke:#000000;stroke-width:2;stroke-linecap:round;stroke-linejoin:round;" d="M39.936,20.572
			c-1.431,1.54-9.171,2.704-9.941,2.044c-0.77-0.66,0-3.961,0.989-4.07c0.991-0.11,5.611-1.98,5.611-1.98"/>
		<path style="fill:none;stroke:#000000;stroke-width:2;stroke-linecap:round;stroke-linejoin:round;" d="M34.858,13
			c1.094,1.751-9.191,1.605-14.59,1.531"/>
	</g>
	<g>
		<path style="fill:none;stroke:#BEBEBE;stroke-width:2;stroke-linecap:round;stroke-linejoin:round;" d="M7.725,33.278v2.846
			C7.725,36.607,7.333,37,6.85,37H3.713c-0.483,0-0.875-0.393-0.875-0.876l-0.364-4.961"/>
		<path style="fill:none;stroke:#BEBEBE;stroke-width:2;stroke-linecap:round;stroke-linejoin:round;" d="M2.064,19.649
			c1.431,1.54,9.171,2.704,9.941,2.044c0.77-0.661,0-3.961-0.99-4.071c-0.991-0.109-5.611-1.979-5.611-1.979"/>
		<path style="fill:none;stroke:#BEBEBE;stroke-width:2;stroke-linecap:round;stroke-linejoin:round;" d="M7.142,12.076
			c-1.094,1.751,9.191,1.606,14.59,1.532"/>
		<path style="fill:#BEBEBE;" d="M6.497,34.093c-2.58,0-6.326-1.983-6.326-5.093c0-0.521-0.03-1.394-0.065-2.4
			c-0.164-4.803-0.161-6.671,0.183-7.586c0.407-1.087,2.911-4.322,4.488-6.303c1.004-2.523,3.457-7.775,6.629-8.226
			c1.725-0.244,5.039-0.408,9.615-0.408h1.039c4.576,0,6.81,0.164,8.535,0.408c3.172,0.45,5.625,5.702,6.629,8.226
			c1.577,1.98,4.08,5.216,4.488,6.303c0.344,0.915,0.346,2.783,0.183,7.586c-0.034,1.007-0.065,1.88-0.065,2.4
			c0,3.109-3.746,5.093-6.326,5.093 M35.503,30.399c1.131,0,4.461-0.536,4.461-1.633c0-0.549,0.085-8.84,0.049-9.061
			c0,0-2.125-3.049-3.588-4.904c-0.577-0.73-1.405-1.391-1.596-1.847c-2.136-5.077-3.938-4.563-4.752-4.813
			c-1.24-0.176-2.743-0.372-8.018-0.372h-1.039c-5.274,0-7.857,0.196-9.097,0.372c-0.814,0.249-2.617-0.265-4.752,4.813
			c-0.191,0.456-1.019,1.116-1.596,1.847c-1.462,1.855-3.588,4.904-3.588,4.904c-0.036,0.221,0.048,8.512,0.048,9.061
			c0,1.097,3.331,1.633,4.461,1.633H35.503z"/>
		<path style="fill:none;stroke:#BEBEBE;stroke-width:2;stroke-linecap:round;stroke-linejoin:round;" d="M39.526,31.163
			l-0.364,4.961c0,0.483-0.392,0.876-0.876,0.876h-3.137c-0.482,0-0.875-0.393-0.875-0.876v-2.846"/>
		<path style="fill:none;stroke:#BEBEBE;stroke-width:2;stroke-linecap:round;stroke-linejoin:round;" d="M39.936,19.649
			c-1.431,1.54-9.171,2.704-9.941,2.044c-0.77-0.661,0-3.961,0.989-4.071c0.991-0.109,5.611-1.979,5.611-1.979"/>
		<path style="fill:none;stroke:#BEBEBE;stroke-width:2;stroke-linecap:round;stroke-linejoin:round;" d="M34.858,12.076
			c1.094,1.751-9.191,1.606-14.59,1.532"/>
	</g>
</g>
</svg>
