<?xml version="1.0" encoding="iso-8859-1"?>
<!-- Generator: Adobe Illustrator 14.0.0, SVG Export Plug-In . SVG Version: 6.00 Build 43363)  -->
<!DOCTYPE svg PUBLIC "-//W3C//DTD SVG 1.1//EN" "http://www.w3.org/Graphics/SVG/1.1/DTD/svg11.dtd">
<svg version="1.1" id="Layer_1" xmlns="http://www.w3.org/2000/svg" xmlns:xlink="http://www.w3.org/1999/xlink" x="0px" y="0px"
	 width="42px" height="42px" viewBox="0 0 42 42" style="enable-background:new 0 0 42 42;" xml:space="preserve">
<g>
	<g style="opacity:0.6;">
		<g>
			<polyline style="fill:none;stroke:#010101;stroke-width:2.0332;stroke-linecap:round;stroke-linejoin:round;" points="
				12.809,40.81 20.952,13.625 29.487,41 			"/>
			
				<line style="fill:none;stroke:#010101;stroke-width:2.0332;stroke-linecap:round;stroke-linejoin:round;" x1="14.853" y1="34.723" x2="27.051" y2="34.723"/>
			
				<line style="fill:none;stroke:#010101;stroke-width:2.0332;stroke-linecap:round;stroke-linejoin:round;" x1="16.79" y1="28.14" x2="25.111" y2="28.14"/>
			
				<line style="fill:none;stroke:#010101;stroke-width:2.0332;stroke-linecap:round;stroke-linejoin:round;" x1="20.991" y1="15.078" x2="20.991" y2="34.393"/>
		</g>
		<g>
			<circle style="fill:#030303;" cx="20.957" cy="10.271" r="1.17"/>
			<g>
				<path style="fill:#030303;" d="M23.488,14.174l-0.766-1.871l0.103-0.117c0.499-0.498,0.772-1.162,0.772-1.869
					c0-1.456-1.185-2.643-2.642-2.643c-1.456,0-2.642,1.187-2.642,2.643c0,0.674,0.252,1.315,0.714,1.808l0.007,0.141l-0.736,1.824
					l-0.64-0.685c-0.787-0.84-1.219-1.937-1.219-3.088c0-2.49,2.025-4.517,4.516-4.517c2.491,0,4.517,2.026,4.517,4.517
					c0,1.208-0.47,2.342-1.321,3.195L23.488,14.174L23.488,14.174z"/>
			</g>
			<g>
				<path style="fill:#030303;" d="M25.031,17.825l-0.726-1.932l0.391-0.243c1.714-1.215,2.735-3.189,2.735-5.285
					c0-3.569-2.905-6.475-6.476-6.475c-3.569,0-6.476,2.905-6.476,6.475c0,2.094,1.022,4.069,2.731,5.282l0.355,0.246l-0.692,1.931
					l-0.803-0.57c-2.228-1.583-3.56-4.158-3.56-6.889c0-4.655,3.788-8.443,8.443-8.443c4.656,0,8.444,3.788,8.444,8.443
					c0,2.732-1.334,5.309-3.564,6.891L25.031,17.825L25.031,17.825z"/>
			</g>
		</g>
	</g>
	<g>
		<g>
			<polyline style="fill:none;stroke:#BFBEBE;stroke-width:2.0332;stroke-linecap:round;stroke-linejoin:round;" points="
				12.809,39.888 20.952,12.703 29.487,40.078 			"/>
			
				<line style="fill:none;stroke:#BFBEBE;stroke-width:2.0332;stroke-linecap:round;stroke-linejoin:round;" x1="14.853" y1="33.801" x2="27.051" y2="33.801"/>
			
				<line style="fill:none;stroke:#BFBEBE;stroke-width:2.0332;stroke-linecap:round;stroke-linejoin:round;" x1="16.79" y1="27.217" x2="25.111" y2="27.217"/>
			
				<line style="fill:none;stroke:#BFBEBE;stroke-width:2.0332;stroke-linecap:round;stroke-linejoin:round;" x1="20.991" y1="14.156" x2="20.991" y2="33.471"/>
		</g>
		<g>
			<circle style="fill:#BFBEBE;" cx="20.957" cy="9.35" r="1.17"/>
			<g>
				<path style="fill:#BFBEBE;" d="M23.488,13.252l-0.766-1.871l0.103-0.117c0.499-0.498,0.772-1.162,0.772-1.869
					c0-1.456-1.185-2.643-2.642-2.643c-1.456,0-2.642,1.187-2.642,2.643c0,0.674,0.252,1.315,0.714,1.808l0.007,0.141l-0.736,1.823
					l-0.64-0.684c-0.787-0.84-1.219-1.937-1.219-3.088c0-2.49,2.025-4.517,4.516-4.517c2.491,0,4.517,2.026,4.517,4.517
					c0,1.208-0.47,2.342-1.321,3.195L23.488,13.252L23.488,13.252z"/>
			</g>
			<g>
				<path style="fill:#BFBEBE;" d="M25.031,16.903l-0.726-1.932l0.391-0.243c1.714-1.215,2.735-3.189,2.735-5.285
					c0-3.57-2.905-6.475-6.476-6.475c-3.569,0-6.476,2.904-6.476,6.475c0,2.094,1.022,4.069,2.731,5.282l0.355,0.246l-0.692,1.931
					l-0.803-0.57c-2.228-1.584-3.56-4.158-3.56-6.889C12.513,4.788,16.301,1,20.956,1C25.612,1,29.4,4.788,29.4,9.443
					c0,2.732-1.334,5.309-3.564,6.891L25.031,16.903L25.031,16.903z"/>
			</g>
		</g>
	</g>
</g>
</svg>
