<?xml version="1.0" encoding="iso-8859-1"?>
<!-- Generator: Adobe Illustrator 14.0.0, SVG Export Plug-In . SVG Version: 6.00 Build 43363)  -->
<!DOCTYPE svg PUBLIC "-//W3C//DTD SVG 1.1//EN" "http://www.w3.org/Graphics/SVG/1.1/DTD/svg11.dtd">
<svg version="1.1" id="Layer_1" xmlns="http://www.w3.org/2000/svg" xmlns:xlink="http://www.w3.org/1999/xlink" x="0px" y="0px"
	 width="42px" height="42px" viewBox="0 0 42 42" style="enable-background:new 0 0 42 42;" xml:space="preserve">
<g>
	<g>
		<g style="opacity:0.6;">
			<path d="M39.422,23.387c-1.036-1.122-2.297-1.936-3.642-2.375c0.604-1.79,0.897-4.017,0.897-6.741
				c-0.003-4.679-3.572-8.502-7.959-8.504c-4.381,0-7.951,3.814-7.959,8.505c0,1.723,0.164,3.294,0.485,4.715
				c-0.853-0.775-1.818-1.365-2.842-1.702c0.552-1.629,0.819-3.667,0.819-6.138c-0.003-4.268-3.255-7.743-7.25-7.745
				c-3.989,0-7.24,3.482-7.248,7.747c0,2.378,0.333,4.474,0.974,6.182c-3.141,1.093-5.555,4.407-5.552,8.052v3.61l0.049,0.374
				c0.2,0.741,1.697,4.439,11.907,4.439c1.361,0,2.558-0.069,3.621-0.188v0.259l0.054,0.415c0.218,0.819,1.872,4.87,13.084,4.87
				s12.868-4.062,13.091-4.87L42,29.91C42.014,27.486,41.103,25.172,39.422,23.387z M26.889,23.528l-1.38-2.153
				c-1.026-1.611-1.56-4.067-1.56-7.109c0.006-2.937,2.149-5.328,4.779-5.328c2.632,0.002,4.775,2.391,4.778,5.325
				c0,3.228-0.461,5.627-1.361,7.13l-1.416,2.35c-0.744,0.299-1.425,0.299-1.849,0.299C28.14,24.051,27.486,23.854,26.889,23.528z
				 M10.233,19.455L9.05,17.609c-0.936-1.46-1.424-3.697-1.424-6.466C7.63,8.468,9.581,6.29,11.967,6.29
				c2.396,0.001,4.349,2.178,4.353,4.85c0,2.939-0.426,5.123-1.247,6.493l-1.22,2.028c-0.699,0.299-1.358,0.303-1.754,0.303
				C11.425,19.963,10.793,19.784,10.233,19.455z M15.735,29.893v0.802c-1.015,0.124-2.206,0.199-3.621,0.199
				c-7.059,0-8.779-1.846-9.069-2.22v-3.309c-0.004-3.123,2.546-5.495,4.81-5.535l0.318-0.006c1.027,1.115,2.354,1.731,3.941,1.731
				c1.746,0,3.101-0.602,4.14-1.734h0.084c1.14,0,2.333,0.578,3.281,1.587c0.165,0.176,0.298,0.37,0.43,0.564
				C17.523,23.63,15.735,26.629,15.735,29.893z M38.829,33.478c-0.404,0.546-2.366,2.484-9.958,2.484
				c-7.749,0-9.639-2.026-9.957-2.441v-3.633c-0.004-3.43,2.785-6.034,5.279-6.066l0.43-0.011c1.113,1.185,2.546,1.825,4.243,1.825
				c1.854,0,3.321-0.633,4.435-1.826h0.198c1.248,0,2.56,0.636,3.596,1.752c1.115,1.194,1.73,2.737,1.73,4.338L38.829,33.478
				L38.829,33.478z"/>
		</g>
		<path style="fill:#BEBEBE;" d="M39.277,22.823c-1.038-1.121-2.298-1.935-3.644-2.374c0.604-1.789,0.898-4.018,0.898-6.741
			c-0.002-4.68-3.573-8.504-7.959-8.505c-4.381,0-7.952,3.816-7.959,8.507c0,1.723,0.165,3.293,0.485,4.714
			c-0.851-0.775-1.817-1.365-2.843-1.703c0.554-1.629,0.821-3.667,0.821-6.137c-0.004-4.27-3.257-7.744-7.25-7.747
			c-3.989,0-7.241,3.482-7.248,7.748c0,2.378,0.333,4.475,0.973,6.182C2.411,17.86-0.003,21.174,0,24.819v3.611l0.049,0.374
			c0.199,0.741,1.696,4.438,11.907,4.438c1.362,0,2.558-0.069,3.622-0.187v0.257l0.055,0.413c0.217,0.82,1.872,4.872,13.084,4.872
			c11.214,0,12.866-4.06,13.09-4.872l0.048-4.382C41.868,26.923,40.959,24.61,39.277,22.823z M26.743,22.967l-1.379-2.155
			c-1.028-1.611-1.56-4.066-1.56-7.108c0.004-2.937,2.148-5.328,4.779-5.328c2.631,0.001,4.774,2.391,4.776,5.324
			c0,3.229-0.46,5.628-1.359,7.13l-1.417,2.349c-0.745,0.301-1.425,0.301-1.85,0.301C27.994,23.487,27.34,23.29,26.743,22.967z
			 M10.088,18.892l-1.184-1.846c-0.936-1.46-1.424-3.697-1.424-6.466c0.004-2.675,1.954-4.853,4.342-4.853
			c2.396,0.002,4.35,2.178,4.352,4.851c0,2.939-0.425,5.123-1.247,6.491l-1.219,2.028c-0.699,0.298-1.358,0.304-1.756,0.304
			C11.279,19.4,10.647,19.222,10.088,18.892z M15.589,29.327v0.803c-1.014,0.125-2.206,0.2-3.622,0.2
			c-7.059,0-8.778-1.846-9.069-2.22v-3.309c-0.002-3.124,2.546-5.495,4.811-5.536l0.319-0.004c1.027,1.114,2.352,1.73,3.939,1.73
			c1.747,0,3.102-0.601,4.142-1.733h0.084c1.139,0,2.333,0.578,3.28,1.587c0.165,0.175,0.298,0.37,0.431,0.563
			C17.378,23.068,15.589,26.066,15.589,29.327z M38.684,32.913c-0.404,0.547-2.366,2.487-9.957,2.487
			c-7.75,0-9.64-2.028-9.957-2.442v-3.634c-0.005-3.432,2.785-6.034,5.278-6.066l0.431-0.009c1.112,1.181,2.545,1.821,4.243,1.821
			c1.853,0,3.32-0.629,4.433-1.823h0.198c1.251,0,2.561,0.636,3.597,1.753c1.116,1.194,1.731,2.735,1.729,4.336L38.684,32.913
			L38.684,32.913z"/>
	</g>
</g>
</svg>
