<?xml version="1.0" encoding="iso-8859-1"?>
<!-- Generator: Adobe Illustrator 14.0.0, SVG Export Plug-In . SVG Version: 6.00 Build 43363)  -->
<!DOCTYPE svg PUBLIC "-//W3C//DTD SVG 1.1//EN" "http://www.w3.org/Graphics/SVG/1.1/DTD/svg11.dtd">
<svg version="1.1" id="Layer_1" xmlns="http://www.w3.org/2000/svg" xmlns:xlink="http://www.w3.org/1999/xlink" x="0px" y="0px"
	 width="42.898px" height="37.628px" viewBox="0 0 42.898 37.628" style="enable-background:new 0 0 42.898 37.628;"
	 xml:space="preserve">
<g>
	<rect x="2.458" y="9.066" style="opacity:0.15;fill:#A3A2A2;" width="30.328" height="25.074"/>
	<g style="opacity:0.4;">
		<path style="fill:none;stroke:#020202;stroke-width:4.0663;" d="M34.428,33.562c0,1.124-0.91,2.033-2.032,2.033H4.862
			c-1.123,0-2.033-0.909-2.033-2.033v-21.01c0-1.121,0.911-2.032,2.033-2.032h27.533c1.122,0,2.032,0.911,2.032,2.032V33.562z"/>
		<path style="fill:none;stroke:#020202;stroke-width:2.0332;" d="M8.674,11.791V4.843c0-1.124,0.911-2.033,2.033-2.033h29.141
			c1.124,0,2.034,0.909,2.034,2.033v22.702c0,1.124-0.91,2.034-2.034,2.034h-5.675"/>
	</g>
	<g>
		<path style="fill:none;stroke:#BEBEBE;stroke-width:4.0663;" d="M33.633,31.768c0,1.125-0.911,2.034-2.033,2.034H4.067
			c-1.123,0-2.034-0.909-2.034-2.034V10.76c0-1.122,0.911-2.033,2.034-2.033H31.6c1.122,0,2.033,0.911,2.033,2.033V31.768z"/>
		<path style="fill:none;stroke:#BEBEBE;stroke-width:2.0332;" d="M7.879,9.996V3.05c0-1.124,0.91-2.033,2.033-2.033h29.142
			c1.124,0,2.032,0.909,2.032,2.033v22.702c0,1.124-0.908,2.033-2.032,2.033h-5.675"/>
	</g>
</g>
</svg>
