<?xml version="1.0" encoding="iso-8859-1"?>
<!-- Generator: Adobe Illustrator 14.0.0, SVG Export Plug-In . SVG Version: 6.00 Build 43363)  -->
<!DOCTYPE svg PUBLIC "-//W3C//DTD SVG 1.1//EN" "http://www.w3.org/Graphics/SVG/1.1/DTD/svg11.dtd">
<svg version="1.1" id="Layer_1" xmlns="http://www.w3.org/2000/svg" xmlns:xlink="http://www.w3.org/1999/xlink" x="0px" y="0px"
	 width="42px" height="42px" viewBox="0 0 42 42" style="enable-background:new 0 0 42 42;" xml:space="preserve">
<g>
	<path style="opacity:0.15;fill:#ACACAC;enable-background:new    ;" d="M13.508,7.655L10.56,24.543c0,0-7.406-0.151-7.406,4.373
		c0,4.523,3.157,9.501,6,8.37c2.843-1.133,5.564-2.716,5.564-2.716l1.964-2.487l9.07,0.979l3.931-23.222L13.508,7.655z"/>
	<polygon style="opacity:0.15;fill:#ACACAC;enable-background:new    ;" points="33.16,14.29 40.037,18.06 31.421,34.646 
		29.909,34.043 	"/>
	<g style="opacity:0.6;">
		<polyline style="fill:none;stroke:#000000;stroke-width:2;stroke-linecap:round;stroke-linejoin:round;" points="7.101,24.96 
			10.191,4.492 33.51,7.995 28.917,38.413 14.374,36.228 		"/>
		<polyline style="fill:none;stroke:#000000;stroke-width:2;stroke-linecap:round;stroke-linejoin:round;" points="10.757,24.3 
			13.153,8.434 29.515,10.893 25.955,34.471 15.75,32.936 		"/>
		<polyline style="fill:none;stroke:#000000;stroke-width:2;stroke-linejoin:round;" points="32.574,14.625 40.474,18.711 
			31.634,35.718 29.604,34.668 		"/>
		<ellipse style="fill:none;stroke:#000000;stroke-width:4;stroke-linejoin:round;" cx="9.154" cy="31.525" rx="6.68" ry="6.665"/>
		<polygon points="18.895,25.018 16.479,20.495 20.218,16.982 22.634,21.505 		"/>
	</g>
	<g>
		<polyline style="fill:none;stroke:#C6C6C6;stroke-width:2;stroke-linecap:round;stroke-linejoin:round;" points="29.604,33.763 
			31.634,34.813 40.474,17.806 32.574,13.72 		"/>
		<polyline style="fill:none;stroke:#C6C6C6;stroke-width:2;stroke-linecap:round;stroke-linejoin:round;" points="7.101,24.056 
			10.191,3.587 33.51,7.09 28.917,37.509 14.374,35.322 		"/>
		<polyline style="fill:none;stroke:#C6C6C6;stroke-width:2;stroke-linecap:round;stroke-linejoin:round;" points="10.757,23.396 
			13.153,7.529 29.515,9.988 25.955,33.566 15.75,32.031 		"/>
		<ellipse style="fill:none;stroke:#C6C6C6;stroke-width:4;stroke-linejoin:round;" cx="9.154" cy="30.621" rx="6.68" ry="6.665"/>
		<polygon style="fill:#C6C6C6;" points="18.895,24.113 16.479,19.591 20.218,16.078 22.634,20.6 		"/>
	</g>
</g>
</svg>
