<?xml version="1.0" encoding="iso-8859-1"?>
<!-- Generator: Adobe Illustrator 14.0.0, SVG Export Plug-In . SVG Version: 6.00 Build 43363)  -->
<!DOCTYPE svg PUBLIC "-//W3C//DTD SVG 1.1//EN" "http://www.w3.org/Graphics/SVG/1.1/DTD/svg11.dtd">
<svg version="1.1" id="Layer_1" xmlns="http://www.w3.org/2000/svg" xmlns:xlink="http://www.w3.org/1999/xlink" x="0px" y="0px"
	 width="42px" height="42px" viewBox="0 0 42 42" style="enable-background:new 0 0 42 42;" xml:space="preserve">
<g>
	<ellipse style="opacity:0.15;fill:#A3A1A2;" cx="11.829" cy="35.195" rx="3.825" ry="3.227"/>
	<ellipse style="opacity:0.15;fill:#A3A1A2;" cx="28.087" cy="35.195" rx="3.826" ry="3.227"/>
	<g>
		<path style="opacity:0.15;fill:#A3A1A2;" d="M13.725,3.177l0.058,1.906l5.256,2.718l1.416-2.239l4.613,2.058l-2.313,5.581
			l-8.32,1.188l-0.066,15.12l-1.255-0.064L6.82,27.518L5.546,29.29l-3.96-1.09L9.812,2.042L13.725,3.177z M14.5,14.39l2.555-0.469
			l1.016-3.025l-4.64-1.556l-1.884,5.611l2.766,0.927l0.188-0.762 M14.369,20.531l-3.991-2.083l-1.882,5.611l4.64,1.556
			L14.369,20.531z"/>
		<g style="opacity:0.6;">
			<path style="fill:#030303;" d="M34.013,35.969c0,2.279-2.296,5.031-5.672,5.031l0,0c-3.36,0-6.096-2.257-6.096-5.031
				c0-2.777,2.735-5.033,6.096-5.033c1.187,0,2.309,0.283,3.263,0.854v-9.033L17.53,24.877v11.092c0,2.279-2.327,5.031-5.704,5.031
				l0,0c-3.359,0-6.094-2.257-6.094-5.031c0-2.777,2.382-5.033,6.094-5.033c1.305,0,2.311,0.362,3.263,0.933v-14.84
				c0-0.577,0.328-0.799,0.95-0.909c0,0,17.01-2.447,17.334-2.493c0.416-0.06,0.674,0.236,0.643,1.094L34.013,35.969z
				 M11.826,33.555c-1.941,0-3.582,1.104-3.582,2.414c0,1.308,1.641,2.412,3.582,2.412c2.138,0,3.584-1.811,3.584-2.412
				c-0.025-0.582-1.207-2.423-3.584-2.423V33.555z M28.341,33.572c-1.929,0-3.557,1.098-3.557,2.396
				c0,1.297,1.628,2.394,3.557,2.394c2.118,0,3.556-1.798,3.556-2.394c-0.025-0.576-1.104-2.423-3.556-2.423V33.572z M31.51,16.673
				l-13.783,1.954l0.109,4.572l13.673-2.042V16.673z"/>
			<g>
				<path style="fill:#030303;" d="M13.214,30.254c0.123-0.371,0.297-0.644,0.297-0.644c-1.762-0.567-6.394-2.077-6.632-2.153
					c-0.432-0.141-0.85,0.045-0.96,0.389c-0.112,0.345-0.39,1.208-0.39,1.208l-2.429-0.821l4.106-12.734l3.818-11.836l2.256,0.763
					c0,0-0.509,1.573-0.619,1.919c-0.11,0.346-0.019,0.574,0.307,0.678c0.323,0.105,7.052,2.274,7.289,2.352
					c0.234,0.074,0.521-0.054,0.605-0.313c0.083-0.258,0.641-1.98,0.641-1.98l2.464,0.797l-2.064,6.208l2.935-0.441l1.642-5.09
					c0.247-0.762-0.173-1.579-0.936-1.825l0,0l-5.494-1.777l-0.728,2.256l-4.411-1.422L15.64,3.53l-5.186-1.667
					C9.692,1.616,8.875,2.033,8.63,2.798l-3.97,12.303L0.591,27.72c-0.244,0.761,0.173,1.578,0.934,1.823l0,0l5.312,1.71L7.081,30.5
					c0,0,0.183-0.504,0.364-1.025c0.099-0.285,0.656-0.037,0.656-0.037s1.989,0.688,2.386,0.82
					C10.677,30.32,12,29.932,13.214,30.254z"/>
				<g>
					<path style="fill:#030303;" d="M13.599,27.451c-0.083,0-0.166-0.014-0.247-0.039L8.695,25.91c-0.202-0.066-0.372-0.21-0.47-0.4
						c-0.097-0.189-0.114-0.41-0.049-0.614l1.818-5.632c0.066-0.204,0.212-0.375,0.403-0.471c0.191-0.098,0.414-0.113,0.619-0.045
						l3.262,1.107l0.05,1.808l-3.052-1.129l-1.319,4.091l3.104,1.001l1.267-4.087l0.049,5.323l-0.006,0.014
						c-0.062,0.208-0.205,0.383-0.396,0.482C13.858,27.42,13.729,27.451,13.599,27.451L13.599,27.451z"/>
				</g>
				<g>
					<path style="fill:#030303;" d="M14,17.544l-2.361-0.777c-0.421-0.138-0.65-0.591-0.515-1.013l1.817-5.636
						c0.065-0.203,0.21-0.372,0.4-0.47c0.19-0.097,0.412-0.113,0.614-0.049l4.657,1.504c0.205,0.066,0.375,0.213,0.473,0.405
						c0.097,0.193,0.111,0.417,0.042,0.622l-0.88,2.58l-1.79,0.241l0.881-2.566l-3.111-1.004l-1.325,4.106l1.602,0.527L14,17.544
						L14,17.544z"/>
				</g>
			</g>
			<g>
				<circle style="fill:#030303;" cx="34.02" cy="13.555" r="0.756"/>
				<path style="fill:#030303;" d="M35.364,7.44c0,0.752-0.61,4.333-1.362,4.333c-0.753,0-1.362-3.581-1.362-4.333
					s0.609-1.362,1.362-1.362C34.754,6.079,35.364,6.688,35.364,7.44z"/>
				<path style="fill:#030303;" d="M40.116,14.917c-0.752,0-4.333-0.609-4.333-1.362c0-0.752,3.581-1.362,4.333-1.362
					s1.362,0.609,1.362,1.362C41.479,14.308,40.868,14.917,40.116,14.917z"/>
				<path style="fill:#030303;" d="M39.288,10.194c-0.531,0.532-3.495,2.633-4.026,2.103c-0.533-0.533,1.568-3.497,2.101-4.028
					c0.531-0.533,1.395-0.533,1.926,0C39.82,8.8,39.82,9.663,39.288,10.194z"/>
				<path style="fill:#030303;" d="M37.362,18.841c-0.532-0.531-2.634-3.496-2.101-4.027c0.531-0.532,3.495,1.569,4.026,2.101
					c0.532,0.532,0.532,1.395,0,1.926C38.757,19.373,37.894,19.373,37.362,18.841z"/>
				<path style="fill:#030303;" d="M30.642,8.269c0.531,0.531,2.634,3.496,2.101,4.028c-0.531,0.531-3.496-1.57-4.027-2.103
					c-0.53-0.532-0.532-1.395,0-1.926C29.246,7.736,30.109,7.736,30.642,8.269z"/>
			</g>
		</g>
		<g>
			<path style="fill:#BFBEBE;" d="M34.013,35.176c0,2.279-2.296,5.031-5.672,5.031l0,0c-3.36,0-6.096-2.256-6.096-5.031
				s2.735-5.032,6.096-5.032c1.187,0,2.309,0.283,3.263,0.853v-9.033L17.53,24.084v11.092c0,2.279-2.327,5.031-5.704,5.031l0,0
				c-3.359,0-6.094-2.256-6.094-5.031s2.382-5.032,6.094-5.032c1.305,0,2.311,0.362,3.263,0.933v-14.84
				c0-0.578,0.328-0.799,0.95-0.909c0,0,17.01-2.447,17.334-2.493c0.416-0.06,0.674,0.236,0.643,1.094L34.013,35.176z
				 M11.826,32.762c-1.941,0-3.582,1.105-3.582,2.414s1.641,2.413,3.582,2.413c2.138,0,3.584-1.812,3.584-2.413
				c-0.025-0.58-1.207-2.422-3.584-2.422V32.762z M28.341,32.78c-1.929,0-3.557,1.097-3.557,2.396c0,1.298,1.628,2.395,3.557,2.395
				c2.118,0,3.556-1.798,3.556-2.395c-0.025-0.576-1.104-2.422-3.556-2.422V32.78z M31.51,15.881l-13.783,1.954l0.109,4.572
				l13.673-2.042V15.881z"/>
			<g>
				<path style="fill:#BFBEBE;" d="M13.214,29.462c0.123-0.372,0.297-0.644,0.297-0.644c-1.762-0.568-6.394-2.077-6.632-2.154
					c-0.432-0.14-0.85,0.046-0.96,0.39c-0.112,0.345-0.39,1.208-0.39,1.208l-2.429-0.822l4.106-12.733L11.026,2.87l2.256,0.763
					c0,0-0.509,1.573-0.619,1.919c-0.11,0.346-0.019,0.573,0.307,0.678c0.323,0.105,7.052,2.274,7.289,2.352
					c0.234,0.074,0.521-0.053,0.605-0.313c0.083-0.258,0.641-1.98,0.641-1.98l2.464,0.798l-2.064,6.208l2.935-0.441l1.642-5.09
					C26.729,7,26.309,6.183,25.546,5.937l0,0L20.052,4.16l-0.728,2.256l-4.411-1.422l0.727-2.255l-5.186-1.667
					C9.692,0.824,8.875,1.241,8.63,2.005l-3.97,12.303L0.591,26.928c-0.244,0.76,0.173,1.578,0.934,1.822l0,0l5.312,1.711
					l0.244-0.754c0,0,0.183-0.504,0.364-1.025c0.099-0.285,0.656-0.037,0.656-0.037s1.989,0.688,2.386,0.82
					C10.677,29.528,12,29.14,13.214,29.462z"/>
				<g>
					<path style="fill:#BFBEBE;" d="M13.599,26.658c-0.083,0-0.166-0.014-0.247-0.039l-4.657-1.502
						c-0.202-0.065-0.372-0.209-0.47-0.399c-0.097-0.19-0.114-0.411-0.049-0.614l1.818-5.633c0.066-0.204,0.212-0.375,0.403-0.471
						c0.191-0.098,0.414-0.113,0.619-0.045l3.262,1.107l0.05,1.808l-3.052-1.129l-1.319,4.091l3.104,1.001l1.267-4.087l0.049,5.324
						l-0.006,0.013c-0.062,0.209-0.205,0.383-0.396,0.483C13.858,26.627,13.729,26.658,13.599,26.658L13.599,26.658z"/>
				</g>
				<g>
					<path style="fill:#BFBEBE;" d="M14,16.752l-2.361-0.777c-0.421-0.139-0.65-0.591-0.515-1.013l1.817-5.635
						c0.065-0.203,0.21-0.373,0.4-0.47c0.19-0.097,0.412-0.114,0.614-0.05l4.657,1.504c0.205,0.066,0.375,0.213,0.473,0.405
						c0.097,0.194,0.111,0.417,0.042,0.622l-0.88,2.58l-1.79,0.241l0.881-2.566l-3.111-1.004l-1.325,4.106l1.602,0.527L14,16.752
						L14,16.752z"/>
				</g>
			</g>
			<g>
				<circle style="fill:#BFBEBE;" cx="34.02" cy="12.763" r="0.756"/>
				<path style="fill:#BFBEBE;" d="M35.364,6.648c0,0.752-0.61,4.333-1.362,4.333c-0.753,0-1.362-3.581-1.362-4.333
					c0-0.752,0.609-1.362,1.362-1.362C34.754,5.286,35.364,5.896,35.364,6.648z"/>
				<path style="fill:#BFBEBE;" d="M40.116,14.125c-0.752,0-4.333-0.609-4.333-1.362s3.581-1.362,4.333-1.362
					s1.362,0.609,1.362,1.362S40.868,14.125,40.116,14.125z"/>
				<path style="fill:#BFBEBE;" d="M39.288,9.402c-0.531,0.533-3.495,2.633-4.026,2.103c-0.533-0.532,1.568-3.497,2.101-4.028
					c0.531-0.532,1.395-0.532,1.926,0C39.82,8.008,39.82,8.871,39.288,9.402z"/>
				<path style="fill:#BFBEBE;" d="M37.362,18.049c-0.532-0.532-2.634-3.496-2.101-4.027c0.531-0.533,3.495,1.568,4.026,2.101
					c0.532,0.532,0.532,1.395,0,1.926C38.757,18.581,37.894,18.581,37.362,18.049z"/>
				<path style="fill:#BFBEBE;" d="M30.642,7.476c0.531,0.532,2.634,3.496,2.101,4.028c-0.531,0.531-3.496-1.57-4.027-2.103
					c-0.53-0.531-0.532-1.394,0-1.926C29.246,6.944,30.109,6.944,30.642,7.476z"/>
			</g>
		</g>
	</g>
</g>
</svg>
