<?xml version="1.0" encoding="iso-8859-1"?>
<!-- Generator: Adobe Illustrator 14.0.0, SVG Export Plug-In . SVG Version: 6.00 Build 43363)  -->
<!DOCTYPE svg PUBLIC "-//W3C//DTD SVG 1.1//EN" "http://www.w3.org/Graphics/SVG/1.1/DTD/svg11.dtd">
<svg version="1.1" id="Layer_1" xmlns="http://www.w3.org/2000/svg" xmlns:xlink="http://www.w3.org/1999/xlink" x="0px" y="0px"
	 width="42px" height="42px" viewBox="0 0 42 42" style="enable-background:new 0 0 42 42;" xml:space="preserve">
<g>
	<ellipse style="opacity:0.15;fill:#A3A2A2;" cx="10.6" cy="31.496" rx="4.828" ry="4.073"/>
	<ellipse style="opacity:0.15;fill:#A3A2A2;" cx="31.118" cy="31.496" rx="4.828" ry="4.073"/>
	<path style="opacity:0.15;fill:#A3A2A2;" d="M16.484,8.264c-0.151,0.453,0.41,8.6,0.41,8.6l19.16-3.923l0.495-7.242L16.484,8.264z"
		/>
	<g style="opacity:0.6;">
		<path d="M38.993,32.333c0,2.876-2.896,6.35-7.158,6.35l0,0c-4.242,0-7.691-2.848-7.691-6.35c0-3.504,3.449-6.353,7.691-6.353
			c1.498,0,2.914,0.358,4.118,1.077v-11.4l-17.762,2.677v13.999c0,2.876-2.936,6.35-7.197,6.35l0,0c-4.241,0-7.691-2.848-7.691-6.35
			c0-3.504,3.007-6.353,7.691-6.353c1.646,0,2.915,0.457,4.117,1.177V8.43c0-0.729,0.415-1.008,1.199-1.148
			c0,0,21.468-3.088,21.876-3.146c0.524-0.075,0.85,0.298,0.812,1.382L38.993,32.333z M10.994,29.566
			c-2.226,0-4.106,1.267-4.106,2.767c0,1.498,1.881,2.764,4.106,2.764c2.449,0,4.106-2.074,4.106-2.764
			C15.072,31.666,13.816,29.566,10.994,29.566L10.994,29.566z M31.835,29.566c-2.227,0-4.106,1.267-4.106,2.767
			c0,1.498,1.88,2.764,4.106,2.764c2.447,0,4.107-2.074,4.107-2.764C35.911,31.666,34.69,29.566,31.835,29.566L31.835,29.566z
			 M35.834,7.982L18.066,10.32l0.018,5.897l17.75-2.578V7.982z"/>
	</g>
	<path style="fill:#BEBEBE;" d="M38.69,31.524c0,2.875-2.896,6.35-7.158,6.35l0,0c-4.24,0-7.692-2.85-7.692-6.35
		c0-3.504,3.452-6.354,7.692-6.354c1.498,0,2.914,0.357,4.118,1.078V14.848l-17.761,2.677v13.999c0,2.875-2.937,6.35-7.198,6.35l0,0
		C6.45,37.874,3,35.024,3,31.524c0-3.504,3.006-6.354,7.691-6.354c1.646,0,2.915,0.459,4.116,1.178V7.621
		c0-0.729,0.415-1.008,1.2-1.148c0,0,21.467-3.088,21.876-3.146c0.525-0.075,0.85,0.298,0.811,1.381L38.69,31.524z M10.691,28.478
		c-2.451,0-4.521,1.394-4.521,3.047c0,1.649,2.071,3.044,4.521,3.044c2.697,0,4.522-2.286,4.522-3.044
		c-0.031-0.734-1.522-3.059-4.522-3.059V28.478z M31.532,28.5c-2.434,0-4.488,1.384-4.488,3.024c0,1.637,2.055,3.021,4.488,3.021
		c2.674,0,4.488-2.27,4.488-3.021c-0.032-0.729-1.393-3.059-4.488-3.059V28.5z M35.532,7.173L18.138,9.638l0.138,5.771l17.256-2.577
		V7.173z"/>
</g>
</svg>
