<?xml version="1.0" encoding="iso-8859-1"?>
<!-- Generator: Adobe Illustrator 14.0.0, SVG Export Plug-In . SVG Version: 6.00 Build 43363)  -->
<!DOCTYPE svg PUBLIC "-//W3C//DTD SVG 1.1//EN" "http://www.w3.org/Graphics/SVG/1.1/DTD/svg11.dtd">
<svg version="1.1" id="Layer_1" xmlns="http://www.w3.org/2000/svg" xmlns:xlink="http://www.w3.org/1999/xlink" x="0px" y="0px"
	 width="42px" height="42px" viewBox="0 0 42 42" style="enable-background:new 0 0 42 42;" xml:space="preserve">
<g>
	<path style="opacity:0.15;fill:#A3A2A2;" d="M22.279,7.044c7.858,0.892,13.963,7.562,13.963,15.657
		c0,8.702-7.056,15.757-15.76,15.757c-8.702,0-15.757-7.055-15.757-15.757c0-8.095,6.104-14.766,13.96-15.657
		c0.59-0.066-4.811-5.65,1.67-5.65C27.473,1.394,21.69,6.978,22.279,7.044z M24.031,21.463L17.438,11.9l-0.42,11.848l6.593,9.563
		L24.031,21.463z"/>
	<g style="opacity:0.6;">
		<path d="M21.001,41.096c-9.737,0-17.659-7.921-17.659-17.657c0-9.737,7.922-17.658,17.659-17.658
			c9.736,0,17.657,7.921,17.657,17.658C38.658,33.175,30.737,41.096,21.001,41.096L21.001,41.096z M21.001,9.58
			c-7.643,0-13.859,6.217-13.859,13.858s6.217,13.858,13.859,13.858c7.642,0,13.858-6.217,13.858-13.858S28.643,9.58,21.001,9.58
			L21.001,9.58z"/>
	</g>
	<g style="opacity:0.6;">
		<path d="M25.798,6.703h-2V3.592c0-0.379-0.309-0.688-0.688-0.688h-4.22c-0.38,0-0.689,0.309-0.689,0.688v3.111h-2V3.592
			c0-1.482,1.207-2.688,2.689-2.688h4.22c1.482,0,2.688,1.206,2.688,2.688V6.703L25.798,6.703z"/>
	</g>
	<polygon style="opacity:0.6;fill:none;stroke:#020202;stroke-width:2.0332;stroke-linecap:square;stroke-linejoin:round;" points="
		24.366,34.344 17.525,24.957 17.634,13.102 24.475,22.488 	"/>
	<circle style="fill:none;stroke:#BEBEBE;stroke-width:3.8;" cx="20.525" cy="22.32" r="15.758"/>
	<path style="fill:none;stroke:#BEBEBE;stroke-width:2;stroke-linecap:square;" d="M16.727,5.085v-2.11
		c0-0.933,0.755-1.688,1.688-1.688h4.22c0.934,0,1.688,0.755,1.688,1.688v2.11"/>
	<polygon style="fill:none;stroke:#BEBEBE;stroke-width:2.0332;stroke-linecap:square;stroke-linejoin:round;" points="
		23.758,33.267 17.034,23.796 17.292,11.943 24.016,21.414 	"/>
</g>
</svg>
