<?xml version="1.0" encoding="iso-8859-1"?>
<!-- Generator: Adobe Illustrator 14.0.0, SVG Export Plug-In . SVG Version: 6.00 Build 43363)  -->
<!DOCTYPE svg PUBLIC "-//W3C//DTD SVG 1.1//EN" "http://www.w3.org/Graphics/SVG/1.1/DTD/svg11.dtd">
<svg version="1.1" id="Layer_1" xmlns="http://www.w3.org/2000/svg" xmlns:xlink="http://www.w3.org/1999/xlink" x="0px" y="0px"
	 width="42px" height="42px" viewBox="0 0 42 42" style="enable-background:new 0 0 42 42;" xml:space="preserve">
<g>
	<path style="opacity:0.15;fill:#ACACAC;enable-background:new    ;" d="M30.791,36.125c0,0.869-0.666,1.574-1.486,1.574H2.726
		c-0.821,0-1.487-0.705-1.487-1.574V5.052c0-0.867,0.666-1.572,1.487-1.572h26.579c0.82,0,1.486,0.705,1.486,1.572V36.125z"/>
	<g>
		<path style="opacity:0.6;" d="M40.496,9.056c0,0-4.437-1.403-9.499-2.363c-0.073,1.133-0.128,0.578-0.137,1.827
			c3.68,0.725,7.726,1.896,9.374,2.379c-0.272,2.209-0.896,6.95-1.696,11.306c-0.825,4.498-2.141,10.211-2.732,12.73
			c-0.934-0.082-2.525-0.275-4.353-0.531c0,0.594,0,1.186,0,1.779c2.335,0.258,3.991,0.371,3.991,0.371
			c0.111,0.021,0.223,0.031,0.332,0.031c0.869,0,1.641-0.619,1.804-1.504c0,0,1.734-7.182,2.723-12.563
			c0.988-5.382,1.667-11.329,1.667-11.329C42.152,10.197,41.493,9.241,40.496,9.056z"/>
		<g style="opacity:0.6;">
			<path d="M16.206,5.696c5.945,0,11.533,0.591,13.005,0.76c0.124,1.616,0.503,7.043,0.503,13.091
				c0,6.224-0.401,14.414-0.519,16.658c-1.633,0.172-7.675,0.763-13.425,0.763c-5.684,0-10.878-0.578-12.311-0.751
				C3.429,33.598,3.33,24.413,3.33,17.561c0-6.098,0.079-9.728,0.116-11.111C4.908,6.278,10.287,5.696,16.206,5.696 M16.206,2.366
				c-7.208,0-13.58,0.83-13.58,0.83c-1.375,0-2.489,1.113-2.489,2.487c0,0-0.138,3.735-0.138,11.878
				c0,8.144,0.138,19.417,0.138,19.417c0,1.373,1.114,2.488,2.489,2.488c0,0,6.165,0.83,13.144,0.83
				c6.975,0,14.231-0.83,14.231-0.83c1.374,0,2.488-1.115,2.488-2.488c0,0,0.555-10.008,0.555-17.432
				c0-7.423-0.555-13.863-0.555-13.863c0-1.374-1.114-2.487-2.488-2.487C30.001,3.196,23.413,2.366,16.206,2.366L16.206,2.366z"/>
		</g>
		<circle style="opacity:0.6;" cx="14.784" cy="18.265" r="0.955"/>
		<path style="opacity:0.6;" d="M16.48,10.355c0,0.949-0.77,5.471-1.719,5.471s-1.719-4.521-1.719-5.471
			c0-0.948,0.77-1.719,1.719-1.719S16.48,9.407,16.48,10.355z"/>
		<path style="opacity:0.6;" d="M13.042,25.789c0-0.949,0.77-5.47,1.719-5.47s1.719,4.521,1.719,5.47s-0.77,1.721-1.719,1.721
			S13.042,26.738,13.042,25.789z"/>
		<path style="opacity:0.6;" d="M22.478,19.792c-0.949,0-5.469-0.771-5.469-1.719c0-0.95,4.52-1.72,5.469-1.72
			c0.949,0,1.719,0.77,1.719,1.72C24.196,19.021,23.427,19.792,22.478,19.792z"/>
		<path style="opacity:0.6;" d="M7.044,16.353c0.949,0,5.469,0.77,5.469,1.72c0,0.948-4.52,1.719-5.469,1.719
			s-1.719-0.771-1.719-1.719C5.325,17.123,6.095,16.353,7.044,16.353z"/>
		<path style="opacity:0.6;" d="M21.433,13.832c-0.67,0.67-4.412,3.323-5.082,2.651c-0.672-0.671,1.98-4.412,2.651-5.083
			c0.671-0.67,1.761-0.672,2.431,0C22.104,12.071,22.104,13.161,21.433,13.832z"/>
		<path style="opacity:0.6;" d="M8.089,22.313c0.67-0.669,4.412-3.323,5.082-2.651c0.672,0.671-1.98,4.413-2.651,5.083
			c-0.671,0.67-1.76,0.672-2.431,0C7.417,24.074,7.418,22.984,8.089,22.313z"/>
		<path style="opacity:0.6;" d="M19.002,24.744c-0.671-0.67-3.323-4.412-2.651-5.083c0.67-0.672,4.412,1.981,5.082,2.651
			c0.67,0.672,0.671,1.762,0,2.432C20.763,25.416,19.673,25.414,19.002,24.744z"/>
		<path style="opacity:0.6;" d="M10.52,11.4c0.671,0.671,3.324,4.412,2.651,5.083c-0.67,0.672-4.412-1.981-5.082-2.651
			c-0.671-0.671-0.672-1.761,0-2.432C8.76,10.728,9.849,10.73,10.52,11.4z"/>
		<path style="opacity:0.6;fill:none;stroke:#000000;stroke-width:1.665;stroke-linecap:round;" d="M21.407,26.707
			c3.318,3.111,2.178,7.83,0.415,10.49c0,0-4.51-0.225-6.014-4.01c-1.244-3.131,4.978-1.141,5.911,3.266"/>
	</g>
	<path style="fill:#BEBEBE;" d="M40.496,8.394c0,0-4.437-1.404-9.499-2.364c-0.073,1.134-0.128,0.578-0.137,1.827
		c3.68,0.727,7.726,1.897,9.374,2.381c-0.272,2.207-0.896,6.949-1.696,11.306c-0.825,4.498-2.141,10.208-2.732,12.728
		c-0.934-0.08-2.525-0.275-4.353-0.531c0,0.594,0,1.188,0,1.781c2.335,0.258,3.991,0.371,3.991,0.371
		c0.111,0.02,0.223,0.029,0.332,0.029c0.869,0,1.641-0.617,1.804-1.502c0,0,1.734-7.182,2.723-12.565
		c0.988-5.38,1.667-11.325,1.667-11.325C42.152,9.533,41.493,8.578,40.496,8.394z"/>
	<g>
		<path style="fill:#BEBEBE;" d="M16.206,5.034c5.944,0,11.531,0.59,13.004,0.759c0.124,1.616,0.504,7.053,0.504,13.092
			c0,6.224-0.401,14.414-0.519,16.658c-1.633,0.172-7.675,0.763-13.425,0.763c-5.684,0-10.878-0.578-12.311-0.751
			C3.429,32.936,3.33,23.751,3.33,16.9c0-6.103,0.079-9.731,0.116-11.113C4.909,5.615,10.288,5.034,16.206,5.034 M16.206,1.704
			c-7.208,0-13.58,0.829-13.58,0.829c-1.375,0-2.489,1.114-2.489,2.489C0.138,5.022,0,8.754,0,16.9
			c0,8.143,0.138,19.417,0.138,19.417c0,1.373,1.114,2.488,2.489,2.488c0,0,6.165,0.83,13.144,0.83c6.975,0,14.231-0.83,14.231-0.83
			c1.374,0,2.488-1.115,2.488-2.488c0,0,0.555-10.008,0.555-17.432c0-7.424-0.555-13.862-0.555-13.862
			c0-1.375-1.114-2.489-2.488-2.489C30.001,2.533,23.413,1.704,16.206,1.704L16.206,1.704z"/>
	</g>
	<circle style="fill:#BEBEBE;" cx="14.784" cy="17.41" r="0.955"/>
	<path style="fill:#BEBEBE;" d="M16.48,9.693c0,0.949-0.77,5.469-1.719,5.469s-1.719-4.52-1.719-5.469s0.77-1.719,1.719-1.719
		S16.48,8.744,16.48,9.693z"/>
	<path style="fill:#BEBEBE;" d="M13.042,25.127c0-0.949,0.77-5.469,1.719-5.469s1.719,4.52,1.719,5.469s-0.77,1.719-1.719,1.719
		S13.042,26.076,13.042,25.127z"/>
	<path style="fill:#BEBEBE;" d="M22.478,19.128c-0.949,0-5.469-0.769-5.469-1.719s4.52-1.719,5.469-1.719
		c0.949,0,1.719,0.769,1.719,1.719S23.427,19.128,22.478,19.128z"/>
	<path style="fill:#BEBEBE;" d="M7.044,15.691c0.949,0,5.469,0.769,5.469,1.719s-4.52,1.719-5.469,1.719S5.325,18.36,5.325,17.41
		S6.095,15.691,7.044,15.691z"/>
	<path style="fill:#BEBEBE;" d="M21.433,13.168c-0.67,0.672-4.412,3.323-5.082,2.653c-0.672-0.672,1.98-4.413,2.651-5.084
		c0.671-0.672,1.761-0.672,2.431,0C22.104,11.409,22.104,12.498,21.433,13.168z"/>
	<path style="fill:#BEBEBE;" d="M8.089,21.651c0.67-0.672,4.412-3.323,5.082-2.651c0.672,0.67-1.98,4.411-2.651,5.083
		c-0.671,0.67-1.76,0.67-2.431,0C7.417,23.41,7.418,22.322,8.089,21.651z"/>
	<path style="fill:#BEBEBE;" d="M19.002,24.082c-0.671-0.672-3.323-4.413-2.651-5.083c0.67-0.672,4.412,1.979,5.082,2.651
		c0.67,0.671,0.671,1.759,0,2.431C20.763,24.752,19.673,24.752,19.002,24.082z"/>
	<path style="fill:#BEBEBE;" d="M10.52,10.738c0.671,0.671,3.324,4.412,2.651,5.084c-0.67,0.67-4.412-1.981-5.082-2.653
		c-0.671-0.671-0.672-1.76,0-2.431C8.76,10.066,9.849,10.066,10.52,10.738z"/>
	<path style="fill:none;stroke:#BEBEBE;stroke-width:1.665;stroke-linecap:round;" d="M21.875,26.033
		c3.318,3.111,2.177,7.828,0.414,10.49c0,0-4.51-0.225-6.014-4.008c-1.244-3.133,4.978-1.141,5.91,3.266"/>
</g>
</svg>
