<?xml version="1.0" encoding="iso-8859-1"?>
<!-- Generator: Adobe Illustrator 14.0.0, SVG Export Plug-In . SVG Version: 6.00 Build 43363)  -->
<!DOCTYPE svg PUBLIC "-//W3C//DTD SVG 1.1//EN" "http://www.w3.org/Graphics/SVG/1.1/DTD/svg11.dtd">
<svg version="1.1" id="Layer_1" xmlns="http://www.w3.org/2000/svg" xmlns:xlink="http://www.w3.org/1999/xlink" x="0px" y="0px"
	 width="42px" height="42px" viewBox="0 0 42 42" style="enable-background:new 0 0 42 42;" xml:space="preserve">
<g>
	<path style="opacity:0.15;fill:#A3A2A2;" d="M16.633,7.554l7.328,1.645l5.832-4.935l0.897,6.429l2.243,6.132l6.729,3.589
		l-6.43,3.588l-3.289,5.834l0.448,7.324l-6.28-4.486l-7.178-0.148l-5.981,4.785v-7.475L8.41,24.451l-7.327-4.038l7.476-2.392
		l2.543-6.131l-0.299-7.179L16.633,7.554z M20.736,18.901c-1.037,0-1.878,0.767-1.878,1.709c0,0.944,0.841,1.71,1.878,1.71
		c1.038,0,1.879-0.766,1.879-1.71C22.615,19.667,21.774,18.901,20.736,18.901z"/>
	<path style="opacity:0.6;" d="M21.199,18.398c-1.568,0-2.843,1.272-2.843,2.838c0,1.573,1.275,2.848,2.843,2.848
		c1.568,0,2.844-1.275,2.844-2.848C24.043,19.67,22.768,18.398,21.199,18.398z M21.199,22.289c-0.576,0-1.049-0.471-1.049-1.053
		c0-0.576,0.482-1.043,1.049-1.043c0.579,0,1.051,0.467,1.051,1.043C22.25,21.828,21.781,22.289,21.199,22.289z"/>
	<g style="opacity:0.6;">
		<path d="M41.742,18.269l-0.216-1.424l-6.38-0.42c-0.651-1.8-1.668-3.468-2.965-4.895l2.797-5.577l-1.199-0.896
			c-1.607-1.22-3.287-2.155-4.981-2.817L27.48,1.732l-3.576,5.146c-1.943-0.378-3.688-0.359-5.638,0.063l-3.57-5.142l-1.328,0.535
			c-1.721,0.7-3.402,1.679-4.986,2.905l-1.16,0.899l2.796,5.679c-1.191,1.366-2.122,2.929-2.73,4.607l-6.38,0.423l-0.215,1.423
			c-0.145,0.938-0.276,1.964-0.276,3.023c0,0.758,0.109,1.473,0.195,2.11l0.261,1.986l6.214,0.426
			c0.596,1.744,1.559,3.391,2.849,4.859l-2.797,5.67l1.143,0.9c1.533,1.209,3.231,2.211,4.899,2.908l1.339,0.559l3.551-5.137
			c2.296,0.547,4.399,0.41,6.021,0.063l3.557,5.127l1.318-0.525c1.671-0.656,3.322-1.607,4.906-2.809l1.158-0.891l-2.707-5.586
			c1.366-1.518,2.39-3.252,3.018-5.135l6.207-0.426l0.264-1.99C41.905,22.773,42,22.055,42,21.296
			C42.009,20.235,41.887,19.218,41.742,18.269z M38.379,22.006l-5.868,0.412l-0.298,1.295c-0.486,2.096-1.613,4.025-3.274,5.578
			l-0.968,0.902l2.532,5.225c-0.524,0.336-1.052,0.637-1.581,0.914L25.58,31.51l-1.236,0.348c-2.569,0.736-3.986,0.713-6.497-0.07
			l-1.246-0.389l-3.344,4.822c-0.537-0.279-1.072-0.607-1.598-0.951l2.604-5.299l-0.932-0.908c-1.607-1.568-2.692-3.422-3.137-5.355
			l-0.298-1.295L4.029,22c-0.033-0.247-0.041-0.485-0.041-0.711c0-0.347,0.02-0.703,0.053-1.054l5.983-0.411l0.328-1.244
			c0.509-1.941,1.563-3.713,3.05-5.138l0.947-0.915L11.744,7.22c0.545-0.354,1.092-0.689,1.664-0.974l3.344,4.823l1.234-0.367
			c2.248-0.664,3.969-0.679,6.204-0.075l1.231,0.338l3.333-4.82c0.557,0.27,1.092,0.578,1.634,0.935l-2.62,5.23l1.01,0.918
			c1.606,1.455,2.728,3.307,3.268,5.359l0.335,1.245l5.983,0.405c0.036,0.357,0.051,0.711,0.051,1.057
			C38.42,21.528,38.4,21.761,38.379,22.006z"/>
	</g>
	<path style="fill:#BEBEBE;" d="M20.781,17.899c-1.569,0-2.844,1.274-2.844,2.84c0,1.57,1.275,2.849,2.844,2.849
		c1.568,0,2.844-1.279,2.844-2.849C23.625,19.173,22.349,17.899,20.781,17.899z M20.781,21.793c-0.577,0-1.05-0.474-1.05-1.055
		c0-0.577,0.481-1.044,1.05-1.044c0.578,0,1.049,0.467,1.049,1.044C21.83,21.331,21.362,21.793,20.781,21.793z"/>
	<path style="fill:#BEBEBE;" d="M41.324,17.772l-0.216-1.424l-6.38-0.42c-0.653-1.802-1.669-3.468-2.965-4.895l2.796-5.577
		l-1.198-0.897c-1.609-1.218-3.288-2.154-4.982-2.815l-1.317-0.51l-3.577,5.147c-1.941-0.379-3.687-0.36-5.638,0.062l-3.569-5.141
		l-1.328,0.534c-1.721,0.699-3.401,1.68-4.984,2.906L6.804,5.641l2.797,5.679c-1.192,1.366-2.123,2.929-2.73,4.608L0.49,16.35
		l-0.214,1.422C0.131,18.71,0,19.737,0,20.795c0,0.759,0.108,1.474,0.194,2.111l0.261,1.986l6.213,0.426
		c0.596,1.744,1.56,3.391,2.85,4.861l-2.797,5.67l1.143,0.896c1.533,1.211,3.231,2.213,4.899,2.91l1.338,0.559l3.553-5.137
		c2.295,0.547,4.398,0.41,6.019,0.063l3.558,5.129l1.319-0.527c1.67-0.654,3.32-1.605,4.904-2.809l1.158-0.889l-2.707-5.588
		c1.366-1.518,2.391-3.25,3.018-5.135l6.207-0.426l0.264-1.988c0.092-0.635,0.187-1.352,0.187-2.111
		C41.59,19.737,41.467,18.722,41.324,17.772z M37.961,21.507l-5.869,0.413l-0.297,1.296c-0.488,2.096-1.615,4.023-3.275,5.578
		l-0.969,0.9l2.533,5.225c-0.524,0.336-1.052,0.637-1.58,0.914l-3.342-4.822l-1.238,0.35c-2.569,0.734-3.986,0.711-6.495-0.072
		L16.183,30.9l-3.343,4.822c-0.538-0.279-1.073-0.607-1.599-0.951l2.604-5.299l-0.932-0.908c-1.607-1.57-2.692-3.422-3.137-5.355
		l-0.299-1.294l-5.869-0.412c-0.033-0.248-0.04-0.487-0.04-0.712c0-0.347,0.019-0.703,0.052-1.054l5.984-0.41l0.327-1.245
		c0.509-1.942,1.564-3.712,3.052-5.139l0.946-0.914l-2.605-5.305c0.545-0.355,1.092-0.691,1.663-0.976l3.346,4.824l1.233-0.367
		c2.249-0.665,3.969-0.681,6.204-0.076l1.232,0.339l3.333-4.82c0.557,0.27,1.092,0.578,1.633,0.933l-2.619,5.233l1.008,0.917
		c1.607,1.456,2.729,3.306,3.269,5.358l0.335,1.244l5.984,0.407c0.034,0.355,0.051,0.709,0.051,1.055
		C38.001,21.031,37.982,21.264,37.961,21.507z"/>
</g>
</svg>
