<?xml version="1.0" encoding="iso-8859-1"?>
<!-- Generator: Adobe Illustrator 14.0.0, SVG Export Plug-In . SVG Version: 6.00 Build 43363)  -->
<!DOCTYPE svg PUBLIC "-//W3C//DTD SVG 1.1//EN" "http://www.w3.org/Graphics/SVG/1.1/DTD/svg11.dtd">
<svg version="1.1" id="Layer_1" xmlns="http://www.w3.org/2000/svg" xmlns:xlink="http://www.w3.org/1999/xlink" x="0px" y="0px"
	 width="42px" height="42px" viewBox="0 0 42 42" style="enable-background:new 0 0 42 42;" xml:space="preserve">
<g>
	<path style="opacity:0.15;fill:#A3A1A2;" d="M15.2,32.051c2.439,1.857,5.484,2.961,8.788,2.961c8.015,0,14.512-6.496,14.512-14.511
		c0-8.017-6.497-14.513-14.512-14.513c-7.011,0-12.967,5.288-14.324,11.896c0,0,7.259,0.092,8.384,5.717S15.2,32.051,15.2,32.051z"
		/>
	<g style="opacity:0.6;">
		
			<circle style="fill:none;stroke:#010101;stroke-width:2.0332;stroke-linecap:square;stroke-linejoin:round;" cx="11.041" cy="26.48" r="7.541"/>
		<polygon style="fill:#030303;" points="10.188,31.738 9.685,30.652 13.844,23.279 11.403,31.173 		"/>
		<path style="fill:none;stroke:#010101;stroke-width:3.8;" d="M9.664,18.885c1.357-6.608,7.313-11.896,14.324-11.896
			c8.015,0,14.512,6.496,14.512,14.513c0,8.015-6.497,14.511-14.512,14.511c-3.304,0-6.349-1.104-8.788-2.961"/>
		<polygon style="fill:#030303;" points="24.983,23.438 22.685,22.822 19.808,9.834 25.935,21.447 		"/>
		
			<line style="fill:none;stroke:#010101;stroke-width:2.0332;stroke-linecap:square;stroke-linejoin:round;" x1="29.32" y1="18.414" x2="33.376" y2="18.414"/>
		
			<line style="fill:none;stroke:#010101;stroke-width:2.0332;stroke-linecap:square;stroke-linejoin:round;" x1="29.32" y1="20.727" x2="33.376" y2="20.727"/>
		
			<line style="fill:none;stroke:#010101;stroke-width:2.0332;stroke-linecap:square;stroke-linejoin:round;" x1="29.32" y1="23.037" x2="33.376" y2="23.037"/>
		
			<line style="fill:none;stroke:#010101;stroke-width:2.0332;stroke-linecap:square;stroke-linejoin:round;" x1="29.32" y1="25.35" x2="33.376" y2="25.35"/>
		<circle style="fill:#030303;" cx="10.935" cy="21.518" r="0.854"/>
		<circle style="fill:#030303;" cx="16.06" cy="26.393" r="0.854"/>
		<circle style="fill:#030303;" cx="5.935" cy="26.268" r="0.854"/>
	</g>
	<g>
		
			<circle style="fill:none;stroke:#BFBEBE;stroke-width:2.0332;stroke-linecap:square;stroke-linejoin:round;" cx="11.041" cy="25.48" r="7.541"/>
		<polygon style="fill:#BFBEBE;" points="10.188,30.738 9.685,29.652 13.844,22.279 11.403,30.173 		"/>
		<path style="fill:none;stroke:#BFBEBE;stroke-width:3.8;" d="M9.664,17.885c1.357-6.608,7.313-11.896,14.324-11.896
			c8.015,0,14.512,6.496,14.512,14.513c0,8.015-6.497,14.511-14.512,14.511c-3.304,0-6.349-1.104-8.788-2.961"/>
		<polygon style="fill:#BFBEBE;" points="24.983,22.438 22.685,21.822 19.808,8.834 25.935,20.447 		"/>
		
			<line style="fill:none;stroke:#BFBEBE;stroke-width:2.0332;stroke-linecap:square;stroke-linejoin:round;" x1="29.32" y1="17.414" x2="33.376" y2="17.414"/>
		
			<line style="fill:none;stroke:#BFBEBE;stroke-width:2.0332;stroke-linecap:square;stroke-linejoin:round;" x1="29.32" y1="19.727" x2="33.376" y2="19.727"/>
		
			<line style="fill:none;stroke:#BFBEBE;stroke-width:2.0332;stroke-linecap:square;stroke-linejoin:round;" x1="29.32" y1="22.037" x2="33.376" y2="22.037"/>
		
			<line style="fill:none;stroke:#BFBEBE;stroke-width:2.0332;stroke-linecap:square;stroke-linejoin:round;" x1="29.32" y1="24.35" x2="33.376" y2="24.35"/>
		<circle style="fill:#BFBEBE;" cx="10.935" cy="20.518" r="0.854"/>
		<circle style="fill:#BFBEBE;" cx="16.06" cy="25.393" r="0.854"/>
		<circle style="fill:#BFBEBE;" cx="5.935" cy="25.268" r="0.854"/>
	</g>
</g>
</svg>
