<?xml version="1.0" encoding="iso-8859-1"?>
<!-- Generator: Adobe Illustrator 14.0.0, SVG Export Plug-In . SVG Version: 6.00 Build 43363)  -->
<!DOCTYPE svg PUBLIC "-//W3C//DTD SVG 1.1//EN" "http://www.w3.org/Graphics/SVG/1.1/DTD/svg11.dtd">
<svg version="1.1" id="Layer_1" xmlns="http://www.w3.org/2000/svg" xmlns:xlink="http://www.w3.org/1999/xlink" x="0px" y="0px"
	 width="42px" height="42px" viewBox="0 0 42 42" style="enable-background:new 0 0 42 42;" xml:space="preserve">
<g>
	<path style="opacity:0.15;fill:#A3A2A2;" d="M30.337,4.437l-1.053,2.165l4.279,6.12l2.896-1.672l3.948,5.004L15.259,38.915
		l-3.38-3.59l1.521-2.434l-5.051-5.3l-2.463,1.234l-3.787-3.541L25.827,2.124L30.337,4.437z M25.272,20.777l5.396-5.166l-4.273-4.46
		L21,16.319L25.272,20.777 M21.917,23.999l-4.274-4.459l-5.395,5.168l4.273,4.459L21.917,23.999z"/>
	<g style="opacity:0.6;">
		<path d="M41.027,18.624c0.73-0.699,0.755-1.857,0.056-2.585l0,0l-4.874-5.082l-1.604,1.535l-4.046-4.221l1.604-1.536l-4.926-5.147
			c-0.7-0.73-1.858-0.755-2.587-0.055L13.117,12.584L0.789,24.399c-0.731,0.698-0.755,1.856-0.057,2.587l0,0l5.04,5.267l2.159-2.07
			l4.047,4.223l-2.159,2.07l4.76,4.959c0.7,0.731,1.857,0.757,2.588,0.057l11.779-11.289L41.027,18.624z M3.174,26.655L15.058,15.27
			L26.698,4.113l2.049,2.145c0,0-0.6,0.571-1.032,0.988c-0.435,0.416-0.495,0.946-0.118,1.338s5.895,6.151,6.291,6.564
			c0.396,0.413,0.971,0.458,1.299,0.142c0.33-0.315,1.154-1.107,1.154-1.107l2.208,2.367L26.357,28.235L15.024,39.095l-2.047-2.201
			c0,0,1.506-1.443,1.835-1.76c0.33-0.316,0.363-0.625,0.066-0.938c-0.297-0.309-6.471-6.75-6.689-6.979
			c-0.215-0.222-0.611-0.252-0.859-0.016c-0.249,0.237-1.898,1.817-1.898,1.817L3.174,26.655"/>
	</g>
	
		<rect x="22.288" y="13.1" transform="matrix(0.6919 0.722 -0.722 0.6919 19.9725 -13.1333)" style="opacity:0.6;fill:none;stroke:#020202;stroke-width:2.0332;stroke-linejoin:round;" width="6.175" height="7.472"/>
	
		<rect x="13.536" y="21.489" transform="matrix(0.692 0.7219 -0.7219 0.692 23.3298 -4.232)" style="opacity:0.6;fill:none;stroke:#020202;stroke-width:2.0332;stroke-linejoin:round;" width="6.177" height="7.472"/>
	<path style="fill:#BEBEBE;" d="M41.212,17.6c0.729-0.698,0.754-1.857,0.056-2.585l0,0l-4.874-5.081l-1.605,1.535l-4.046-4.221
		l1.604-1.536l-4.928-5.147c-0.699-0.73-1.857-0.755-2.586-0.055L13.301,11.56L0.972,23.376c-0.73,0.698-0.755,1.855-0.055,2.587
		l0,0l5.039,5.267l2.159-2.07l4.047,4.223l-2.159,2.07l4.76,4.959c0.7,0.731,1.857,0.758,2.587,0.056l11.78-11.288L41.212,17.6z
		 M3.358,25.632l11.882-11.386L26.882,3.089l2.05,2.146c0,0-0.6,0.571-1.032,0.987c-0.435,0.416-0.495,0.946-0.118,1.338
		c0.376,0.393,5.895,6.151,6.289,6.564c0.396,0.414,0.972,0.458,1.3,0.143c0.33-0.315,1.155-1.108,1.155-1.108l2.207,2.368
		L26.541,27.211L15.208,38.069L13.16,35.87c0,0,1.507-1.443,1.836-1.76c0.33-0.316,0.363-0.625,0.066-0.938
		c-0.297-0.31-6.47-6.75-6.688-6.979c-0.215-0.223-0.611-0.253-0.859-0.016c-0.249,0.236-1.898,1.817-1.898,1.817L3.358,25.632"/>
	
		<rect x="22.472" y="12.077" transform="matrix(0.6919 0.722 -0.722 0.6919 19.2916 -13.5816)" style="fill:none;stroke:#BEBEBE;stroke-width:2.0332;stroke-linecap:square;stroke-linejoin:round;" width="6.174" height="7.471"/>
	
		<rect x="13.719" y="20.466" transform="matrix(0.6918 0.7221 -0.7221 0.6918 22.6556 -4.6775)" style="fill:none;stroke:#BEBEBE;stroke-width:2.0332;stroke-linecap:square;stroke-linejoin:round;" width="6.177" height="7.471"/>
</g>
</svg>
