<?xml version="1.0" encoding="iso-8859-1"?>
<!-- Generator: Adobe Illustrator 14.0.0, SVG Export Plug-In . SVG Version: 6.00 Build 43363)  -->
<!DOCTYPE svg PUBLIC "-//W3C//DTD SVG 1.1//EN" "http://www.w3.org/Graphics/SVG/1.1/DTD/svg11.dtd">
<svg version="1.1" id="Layer_1" xmlns="http://www.w3.org/2000/svg" xmlns:xlink="http://www.w3.org/1999/xlink" x="0px" y="0px"
	 width="42px" height="42px" viewBox="0 0 42 42" style="enable-background:new 0 0 42 42;" xml:space="preserve">
<g>
	<path style="opacity:0.15;fill:#A3A1A2;" d="M8.226,8.428c0,0,6.875,5.75,7.25,12.125s-1.5,4.875-1.5,4.875l-0.625,0.125
		l-4.125-0.625c0,0,4.75,12.625,9.875,13S6.528,39.986,3.476,22.178C1.976,13.428,6.976,9.428,8.226,8.428z"/>
	<g style="opacity:0.6;">
		<path style="fill:none;stroke:#030303;stroke-width:2.0332;stroke-linecap:square;stroke-linejoin:round;" d="M3.803,21.344
			c0-9.664,7.835-17.5,17.5-17.5s17.5,7.836,17.5,17.5"/>
		<path style="fill:none;stroke:#030303;stroke-width:2.0332;stroke-linecap:square;stroke-linejoin:round;" d="M38.768,20.804
			c0,3.7-7.8,6.603-17.465,6.603S3.897,24.44,3.897,20.74"/>
		<path style="fill:none;stroke:#030303;stroke-width:2.0332;stroke-linecap:square;stroke-linejoin:round;" d="M9.453,23.989
			c0-9.664,5.82-20.146,11.85-20.146s12.484,10.231,12.484,19.896"/>
		<path style="fill:none;stroke:#030303;stroke-width:2.0332;stroke-linecap:square;stroke-linejoin:round;" d="M36.846,13.906
			c0,3.219-6.958,5.828-15.542,5.828c-8.583,0-15.542-2.609-15.542-5.828"/>
		<path style="fill:none;stroke:#030303;stroke-width:2.0332;stroke-linecap:square;stroke-linejoin:round;" d="M38.803,21.656
			c0,9.664-7.835,17.5-17.5,17.5s-17.5-7.836-17.5-17.5"/>
		<path style="fill:none;stroke:#030303;stroke-width:2.0332;stroke-linecap:square;stroke-linejoin:round;" d="M33.777,24.386
			c0,7.085-5.82,14.771-11.851,14.771c-6.028,0-12.483-7.502-12.483-14.588"/>
		<path style="fill:none;stroke:#030303;stroke-width:2.0332;stroke-linecap:round;stroke-linejoin:round;" d="M32.245,18.906
			c-4.625,5.583-7.291,8.5-7.291,8.5s-3.521,3.875-3.521,11.375"/>
		<path style="fill:none;stroke:#030303;stroke-width:2.0332;stroke-linecap:square;stroke-linejoin:round;" d="M14.87,26.406
			c0,0,3.292-9.417-5.958-16.667"/>
	</g>
	<path style="opacity:0.15;fill:#A3A1A2;" d="M37.226,12.803c-3.353,3.502-6.873,6.814-9.712,10.758
		c-2.239,3.11-4.916,6.11-5.745,9.957c-0.311,1.439-0.641,3.829,1.112,4.472c1.68,0.616,4.087-0.662,5.56-1.354
		c4.038-1.897,6.702-4.866,8.405-8.974c2.012-4.854,2.657-9.599,0.88-14.609"/>
	<g>
		<path style="fill:none;stroke:#BFBEBE;stroke-width:2.0332;stroke-linecap:square;stroke-linejoin:round;" d="M3.803,20.344
			c0-9.664,7.835-17.5,17.5-17.5s17.5,7.836,17.5,17.5"/>
		<path style="fill:none;stroke:#BFBEBE;stroke-width:2.0332;stroke-linecap:square;stroke-linejoin:round;" d="M38.768,19.804
			c0,3.7-7.8,6.603-17.465,6.603S3.897,23.44,3.897,19.74"/>
		<path style="fill:none;stroke:#BFBEBE;stroke-width:2.0332;stroke-linecap:square;stroke-linejoin:round;" d="M9.453,22.989
			c0-9.664,5.82-20.146,11.85-20.146s12.484,10.231,12.484,19.896"/>
		<path style="fill:none;stroke:#BFBEBE;stroke-width:2.0332;stroke-linecap:square;stroke-linejoin:round;" d="M36.846,12.906
			c0,3.219-6.958,5.828-15.542,5.828c-8.583,0-15.542-2.609-15.542-5.828"/>
		<path style="fill:none;stroke:#BFBEBE;stroke-width:2.0332;stroke-linecap:square;stroke-linejoin:round;" d="M38.803,20.656
			c0,9.664-7.835,17.5-17.5,17.5s-17.5-7.836-17.5-17.5"/>
		<path style="fill:none;stroke:#BFBEBE;stroke-width:2.0332;stroke-linecap:square;stroke-linejoin:round;" d="M33.777,23.386
			c0,7.085-5.82,14.771-11.851,14.771c-6.028,0-12.483-7.502-12.483-14.588"/>
		<path style="fill:none;stroke:#BFBEBE;stroke-width:2.0332;stroke-linecap:round;stroke-linejoin:round;" d="M32.245,17.906
			c-4.625,5.583-7.291,8.5-7.291,8.5s-3.521,3.875-3.521,11.375"/>
		<path style="fill:none;stroke:#BFBEBE;stroke-width:2.0332;stroke-linecap:square;stroke-linejoin:round;" d="M14.87,25.406
			c0,0,3.292-9.417-5.958-16.667"/>
	</g>
</g>
</svg>
