<?xml version="1.0" encoding="utf-8"?>
<!-- Generator: Adobe Illustrator 15.1.0, SVG Export Plug-In . SVG Version: 6.00 Build 0)  -->
<!DOCTYPE svg PUBLIC "-//W3C//DTD SVG 1.1//EN" "http://www.w3.org/Graphics/SVG/1.1/DTD/svg11.dtd">
<svg version="1.1" id="Layer_1" xmlns="http://www.w3.org/2000/svg" xmlns:xlink="http://www.w3.org/1999/xlink" x="0px" y="0px"
	 width="18px" height="197.976px" viewBox="0 0 18 197.976" enable-background="new 0 0 18 197.976" xml:space="preserve">
<g opacity="0.1">
	<path fill="#231F20" d="M14.785,59.178h-2c-0.001,1.052-0.421,1.985-1.107,2.677c-0.691,0.688-1.625,1.107-2.677,1.108
		c-1.052-0.001-1.985-0.42-2.677-1.108c-0.688-0.691-1.107-1.625-1.108-2.677h-2l1.994,0.156l4.32-55.122V4.134H9v0.529
		c0.292-0.001,0.528-0.237,0.529-0.529H9v0.529V4.134H8.471C8.472,4.426,8.708,4.662,9,4.663V4.134H8.471v0.078l4.319,55.122
		L14.785,59.178h-2H14.785l1.994-0.156L12.465,3.978l-1.994,0.156h2C12.47,2.216,10.917,0.664,9,0.663
		C7.083,0.664,5.53,2.216,5.529,4.134h2L5.536,3.978L1.215,59.1v0.078C1.216,63.478,4.7,66.962,9,66.963
		c4.301-0.001,7.784-3.485,7.785-7.785V59.1l-0.006-0.078L14.785,59.178z"/>
</g>
<g opacity="0.15">
	<path fill="#231F20" d="M14.785,59.178h-1.5c-0.001,1.188-0.478,2.25-1.255,3.03c-0.779,0.778-1.842,1.254-3.03,1.255
		c-1.188-0.001-2.25-0.477-3.03-1.255c-0.778-0.78-1.254-1.842-1.255-3.03h-1.5l1.496,0.117L9.029,4.192V4.134H9v0.029l0.029-0.029
		H9v0.029V4.134H8.971L9,4.163V4.134H8.971v0.059l4.318,55.103L14.785,59.178h-1.5H14.785l1.495-0.117L11.966,4.017l-1.495,0.117
		h1.5C11.97,2.493,10.641,1.164,9,1.163c-1.641,0-2.97,1.33-2.971,2.971h1.5L6.034,4.017L1.715,59.119v0.059
		C1.716,63.202,4.976,66.462,9,66.463c4.024-0.001,7.284-3.261,7.285-7.285v-0.059L16.28,59.06L14.785,59.178z"/>
</g>
<g opacity="0.35">
	<path fill="#231F20" d="M14.785,59.178h-1c-0.001,1.325-0.533,2.515-1.4,3.384c-0.869,0.867-2.06,1.401-3.384,1.401
		c-1.325,0-2.515-0.534-3.384-1.401c-0.867-0.869-1.401-2.059-1.401-3.384h-1l0.997,0.078L8.529,4.173V4.134
		c0-0.26,0.21-0.47,0.471-0.471c0.26,0,0.47,0.21,0.471,0.471v0.039l4.316,55.083L14.785,59.178h-1H14.785l0.997-0.078L11.468,4.056
		l-0.997,0.078h1c0-1.365-1.105-2.47-2.471-2.471c-1.365,0-2.47,1.106-2.471,2.471h1L6.532,4.056L2.215,59.139v0.039
		c0,3.748,3.037,6.785,6.785,6.785c3.748,0,6.784-3.037,6.785-6.785v-0.039L15.782,59.1L14.785,59.178z"/>
</g>
<g opacity="0.4">
	<path fill="#231F20" d="M14.785,59.178h-0.5c0,1.461-0.591,2.779-1.548,3.737c-0.958,0.957-2.275,1.547-3.737,1.548
		c-1.461,0-2.779-0.591-3.737-1.548c-0.957-0.958-1.547-2.276-1.548-3.737h-0.5l0.499,0.039L8.029,4.153v-0.02
		C8.03,3.598,8.464,3.164,9,3.163c0.536,0.001,0.97,0.435,0.971,0.971v0.02l4.315,55.063L14.785,59.178h-0.5H14.785l0.498-0.039
		L10.969,4.095l-0.498,0.039h0.5c0-1.089-0.882-1.971-1.971-1.971c-1.089,0-1.971,0.882-1.971,1.971h0.5L7.031,4.095L2.715,59.158
		v0.02c0,3.472,2.813,6.285,6.285,6.285s6.285-2.813,6.285-6.285v-0.02l-0.002-0.02L14.785,59.178z"/>
</g>
<g>
	
		<linearGradient id="SVGID_1_" gradientUnits="userSpaceOnUse" x1="3.2148" y1="-33.813" x2="14.7847" y2="-33.813" gradientTransform="matrix(1 0 0 -1 0 0)">
		<stop  offset="0" style="stop-color:#F27D7B"/>
		<stop  offset="0.3455" style="stop-color:#EC1C24"/>
		<stop  offset="1" style="stop-color:#EC1C24"/>
	</linearGradient>
	<path fill="url(#SVGID_1_)" d="M14.785,59.178c0,3.195-2.59,5.785-5.785,5.785s-5.785-2.59-5.785-5.785L7.529,4.134
		c0-0.813,0.658-1.471,1.471-1.471s1.471,0.658,1.471,1.471L14.785,59.178z"/>
	<path opacity="0.29" fill="#FFFFFF" enable-background="new    " d="M4.09,59.178L8.404,4.134c0-0.659,0.436-1.21,1.033-1.397
		C9.298,2.693,9.153,2.663,9,2.663c-0.813,0-1.471,0.658-1.471,1.471L3.215,59.178c0,3.195,2.59,5.785,5.785,5.785
		c0.147,0,0.292-0.011,0.438-0.022C6.447,64.716,4.09,62.226,4.09,59.178z"/>
	<path opacity="0.1" fill="#020202" enable-background="new    " d="M10.471,4.134c0-0.813-0.658-1.471-1.471-1.471
		c-0.153,0-0.298,0.03-0.438,0.074C9.16,2.924,9.596,3.475,9.596,4.134l4.313,55.044c0,3.048-2.356,5.539-5.348,5.763
		c0.145,0.011,0.29,0.022,0.438,0.022c3.195,0,5.785-2.59,5.785-5.785L10.471,4.134z"/>
</g>
</svg>
