<?xml version="1.0" encoding="utf-8"?>
<!-- Generator: Adobe Illustrator 14.0.0, SVG Export Plug-In . SVG Version: 6.00 Build 43363)  -->
<!DOCTYPE svg PUBLIC "-//W3C//DTD SVG 1.1//EN" "http://www.w3.org/Graphics/SVG/1.1/DTD/svg11.dtd">
<svg version="1.1" id="lockscreen-layer" xmlns="http://www.w3.org/2000/svg" xmlns:xlink="http://www.w3.org/1999/xlink" x="0px"
	 y="0px" width="810px" height="550px" viewBox="0 0 810 550" enable-background="new 0 0 810 550" xml:space="preserve">
<g id="lockscreen">
	<g id="magnifierThemeTemplateHelper">
		<g id="magnifierhelperBackground">
			<g>
				<path fill="#B3B3B3" d="M16,549c-8.271,0-15-6.729-15-15V16C1,7.729,7.729,1,16,1h778c8.271,0,15,6.729,15,15v518
					c0,8.271-6.729,15-15,15H16z"/>
				<g>
					<path d="M794,2c7.72,0,14,6.28,14,14v518c0,7.72-6.28,14-14,14H16c-7.72,0-14-6.28-14-14V16C2,8.28,8.28,2,16,2H794 M794,0H16
						C7.2,0,0,7.2,0,16v518c0,8.8,7.2,16,16,16h778c8.8,0,16-7.2,16-16V16C810,7.2,802.8,0,794,0L794,0z"/>
				</g>
			</g>
		</g>
		<g>
			<path fill="#010101" d="M293.446,56.022c-2.051,0-4.095-0.28-6.132-0.841v-3.179c2.242,0.643,4.245,0.964,6.009,0.964
				c1.887,0,3.38-0.424,4.481-1.271c1.101-0.847,1.651-2.064,1.651-3.65c0-1.012-0.215-1.869-0.646-2.574
				c-0.431-0.703-0.988-1.302-1.671-1.794c-0.684-0.492-1.675-1.114-2.974-1.866c-1.545-0.889-2.765-1.678-3.661-2.369
				c-0.896-0.689-1.644-1.572-2.246-2.645c-0.602-1.074-0.902-2.376-0.902-3.907c0-2.598,0.865-4.597,2.594-5.999
				c1.729-1.4,4.084-2.102,7.065-2.102c1.955,0,3.787,0.205,5.496,0.615v3.076c-1.915-0.424-3.65-0.636-5.209-0.636
				c-1.627,0-2.95,0.394-3.968,1.179c-1.019,0.787-1.528,1.877-1.528,3.271c0,0.902,0.27,1.764,0.81,2.584
				c0.54,0.82,2.006,1.928,4.399,3.322c1.559,0.902,2.786,1.695,3.681,2.379s1.654,1.559,2.276,2.625
				c0.622,1.066,0.933,2.345,0.933,3.835C303.905,53.028,300.418,56.022,293.446,56.022z"/>
			<path fill="#010101" d="M316.948,56.022c-3.24,0-5.688-1.063-7.342-3.188c-1.654-2.127-2.481-5.247-2.481-9.362
				c0-3.828,0.892-6.781,2.676-8.859c1.784-2.078,4.378-3.117,7.783-3.117c1.326,0,2.673,0.171,4.04,0.513v2.974
				c-1.039-0.328-2.331-0.492-3.876-0.492c-1.997,0-3.51,0.796-4.542,2.39c-1.032,1.592-1.548,3.817-1.548,6.675
				c0,3.076,0.516,5.428,1.548,7.055s2.546,2.44,4.542,2.44c1.723,0,3.069-0.157,4.04-0.472v2.83
				C320.324,55.817,318.711,56.022,316.948,56.022z"/>
			<path fill="#010101" d="M328.125,31.844l1.005,3.979c1.326-2.803,3.637-4.204,6.933-4.204c0.438,0,0.759,0.021,0.964,0.062v3.979
				c-0.343-0.027-0.854-0.041-1.538-0.041c-1.874,0-3.248,0.447-4.122,1.344c-0.875,0.895-1.313,2.293-1.313,4.193v14.54h-4.368
				V31.844H328.125z"/>
			<path fill="#010101" d="M355.708,52.044v2.974c-2.146,0.67-4.368,1.005-6.665,1.005c-3.336,0-5.832-1.005-7.485-3.015
				c-1.653-2.01-2.48-5.106-2.48-9.29c0-3.678,0.8-6.634,2.398-8.87c1.601-2.234,3.884-3.353,6.851-3.353
				c2.406,0,4.214,0.64,5.424,1.917c1.21,1.279,1.986,2.844,2.328,4.697c0.341,1.852,0.513,4.057,0.513,6.613H343.71
				c0,2.775,0.492,4.857,1.477,6.244c0.984,1.389,2.462,2.082,4.431,2.082C351.285,53.049,353.315,52.714,355.708,52.044z
				 M343.71,42.036h8.593c0-2.885-0.342-4.922-1.024-6.111c-0.685-1.189-1.668-1.784-2.953-1.784c-1.437,0-2.533,0.615-3.292,1.846
				S343.833,39.233,343.71,42.036z"/>
			<path fill="#010101" d="M377.077,52.044v2.974c-2.146,0.67-4.368,1.005-6.665,1.005c-3.336,0-5.832-1.005-7.485-3.015
				c-1.653-2.01-2.48-5.106-2.48-9.29c0-3.678,0.8-6.634,2.398-8.87c1.601-2.234,3.883-3.353,6.851-3.353
				c2.405,0,4.214,0.64,5.424,1.917c1.21,1.279,1.986,2.844,2.328,4.697c0.341,1.852,0.513,4.057,0.513,6.613h-12.88
				c0,2.775,0.492,4.857,1.477,6.244c0.984,1.389,2.461,2.082,4.431,2.082C372.654,53.049,374.684,52.714,377.077,52.044z
				 M365.08,42.036h8.593c0-2.885-0.342-4.922-1.024-6.111c-0.685-1.189-1.668-1.784-2.953-1.784c-1.437,0-2.533,0.615-3.292,1.846
				C365.644,37.218,365.203,39.233,365.08,42.036z"/>
			<path fill="#010101" d="M400.333,55.694h-4.368V39.862c0-1.791-0.314-3.134-0.942-4.03c-0.63-0.895-1.572-1.343-2.83-1.343
				c-1.586,0-2.817,0.602-3.691,1.805c-0.875,1.203-1.312,2.769-1.312,4.696v14.704h-4.368v-23.85h2.439l0.882,3.527
				c1.519-2.584,3.828-3.876,6.933-3.876c2.42,0,4.232,0.636,5.442,1.907c1.213,1.271,1.815,3.172,1.815,5.701V55.694
				L400.333,55.694z"/>
			<path fill="#010101" d="M416.432,55.694V25.117h4.408v27.501h10.336v3.076H416.432z"/>
			<path fill="#010101" d="M443.42,56.022c-3.213,0-5.619-1.053-7.219-3.158c-1.603-2.105-2.4-5.264-2.4-9.475
				c0-3.664,0.831-6.562,2.492-8.695c1.661-2.133,4.037-3.199,7.127-3.199c3.117,0,5.499,1.053,7.146,3.158
				c1.646,2.105,2.471,5.045,2.471,8.818c0,3.883-0.771,6.945-2.307,9.188C449.192,54.902,446.755,56.022,443.42,56.022z
				 M443.42,53.213c1.682,0,2.949-0.762,3.804-2.287c0.854-1.523,1.282-4.077,1.282-7.659c0-2.529-0.438-4.651-1.312-6.368
				c-0.875-1.715-2.136-2.573-3.773-2.573c-1.669,0-2.934,0.772-3.795,2.317s-1.291,3.753-1.291,6.624
				c0,3.227,0.43,5.69,1.291,7.394C440.486,52.361,441.751,53.213,443.42,53.213z"/>
			<path fill="#010101" d="M466.799,56.022c-3.24,0-5.688-1.063-7.342-3.188c-1.654-2.127-2.482-5.247-2.482-9.362
				c0-3.828,0.896-6.781,2.68-8.859c1.781-2.078,4.378-3.117,7.779-3.117c1.326,0,2.677,0.171,4.041,0.513v2.974
				c-1.039-0.328-2.332-0.492-3.877-0.492c-1.996,0-3.51,0.796-4.542,2.39c-1.029,1.592-1.548,3.817-1.548,6.675
				c0,3.076,0.519,5.428,1.548,7.055c1.032,1.627,2.546,2.44,4.542,2.44c1.726,0,3.069-0.157,4.041-0.472v2.83
				C470.175,55.817,468.563,56.022,466.799,56.022z"/>
			<path fill="#010101" d="M484.578,42.221l8.695,13.474h-5.168l-8.203-12.981v12.981h-4.367V23.23h4.367v19.4l8.08-10.787h4.776
				L484.578,42.221z"/>
		</g>
	</g>
	<g id="lockscreen-lock">
		
			<radialGradient id="SVGID_1_" cx="180.2207" cy="423.2207" r="49.8381" gradientTransform="matrix(1 0 0 1 -62 -284)" gradientUnits="userSpaceOnUse">
			<stop  offset="0" style="stop-color:#BDBDBD"/>
			<stop  offset="0.1383" style="stop-color:#C3C3C3"/>
			<stop  offset="0.6048" style="stop-color:#D1D1D1"/>
			<stop  offset="1" style="stop-color:#D6D6D6"/>
		</radialGradient>
		<path fill="url(#SVGID_1_)" d="M118.22,189.059c-27.523,0-49.838-22.313-49.838-49.838c0-27.529,22.315-49.838,49.838-49.838
			c27.531,0,49.839,22.309,49.839,49.838C168.059,166.745,145.751,189.059,118.22,189.059z"/>
		
			<linearGradient id="SVGID_2_" gradientUnits="userSpaceOnUse" x1="176.2202" y1="454" x2="176.2202" y2="315.5576" gradientTransform="matrix(1 0 0 -1 -58 524)">
			<stop  offset="0.0028" style="stop-color:#575757"/>
			<stop  offset="1" style="stop-color:#565656"/>
		</linearGradient>
		<path fill="url(#SVGID_2_)" d="M118.22,70C79.992,70,49,100.984,49,139.221c0,38.227,30.992,69.222,69.22,69.222
			c38.236,0,69.22-30.995,69.22-69.222C187.44,100.984,156.457,70,118.22,70z M118.22,189.059
			c-27.523,0-49.838-22.313-49.838-49.838c0-27.529,22.315-49.838,49.838-49.838c27.531,0,49.839,22.309,49.839,49.838
			C168.059,166.745,145.751,189.059,118.22,189.059z"/>
	</g>
	<g id="lockscreen-lock-active">
		
			<radialGradient id="SVGID_3_" cx="181.2207" cy="583.2207" r="49.8381" gradientTransform="matrix(1 0 0 1 -62 -284)" gradientUnits="userSpaceOnUse">
			<stop  offset="0.8935" style="stop-color:#F2F2F2"/>
			<stop  offset="0.9207" style="stop-color:#EDEDED"/>
			<stop  offset="0.9529" style="stop-color:#DFDFDF"/>
			<stop  offset="0.9874" style="stop-color:#C7C7C7"/>
			<stop  offset="1" style="stop-color:#BDBDBD"/>
		</radialGradient>
		<path fill="url(#SVGID_3_)" d="M119.22,349.059c-27.523,0-49.838-22.313-49.838-49.838c0-27.529,22.315-49.838,49.838-49.838
			c27.531,0,49.839,22.309,49.839,49.838C169.059,326.745,146.751,349.059,119.22,349.059z"/>
		<path fill="#FFFFFF" d="M119.22,349.059c-27.523,0-49.838-22.313-49.838-49.838c0,22.529,22.315,47.162,49.838,47.162
			c27.531,0,49.839-23.633,49.839-47.162C169.059,326.745,146.751,349.059,119.22,349.059z"/>
		<g>
			
				<linearGradient id="SVGID_4_" gradientUnits="userSpaceOnUse" x1="177.2202" y1="294" x2="177.2202" y2="155.5571" gradientTransform="matrix(1 0 0 -1 -58 524)">
				<stop  offset="0" style="stop-color:#A7D1DB"/>
				<stop  offset="1" style="stop-color:#5D8891"/>
			</linearGradient>
			<path fill="url(#SVGID_4_)" d="M119.22,230C80.992,230,50,260.984,50,299.221c0,38.229,30.992,69.223,69.22,69.223
				c38.236,0,69.22-30.994,69.22-69.223C188.44,260.984,157.457,230,119.22,230z M119.22,349.059
				c-27.523,0-49.838-22.313-49.838-49.838c0-27.529,22.315-49.838,49.838-49.838c27.531,0,49.839,22.309,49.839,49.838
				C169.059,326.745,146.751,349.059,119.22,349.059z"/>
		</g>
	</g>
	<g id="lockscreen-lock-lift-area-background">
		<g>
			
				<linearGradient id="SVGID_5_" gradientUnits="userSpaceOnUse" x1="552" y1="384" x2="552" y2="524" gradientTransform="matrix(1 0 0 1 -62 -284)">
				<stop  offset="0.0028" style="stop-color:#333333"/>
				<stop  offset="1" style="stop-color:#303030"/>
			</linearGradient>
			<rect x="250" y="100" fill="url(#SVGID_5_)" width="480" height="140"/>
		</g>
		<rect x="250" y="239" opacity="0.25" fill="#0C0C0C" enable-background="new    " width="480" height="1"/>
		<rect x="250" y="238" opacity="0.25" fill="#606060" enable-background="new    " width="480" height="1"/>
		
			<linearGradient id="SVGID_6_" gradientUnits="userSpaceOnUse" x1="722" y1="404" x2="722" y2="504" gradientTransform="matrix(1 0 0 1 -62 -284)">
			<stop  offset="0.0028" style="stop-color:#454545"/>
			<stop  offset="1" style="stop-color:#424242"/>
		</linearGradient>
		<path fill="url(#SVGID_6_)" d="M660,120c-27.613,0-50,22.381-50,50c0,27.611,22.387,50,50,50c27.619,0,50-22.389,50-50
			C710,142.381,687.619,120,660,120z M660,206c-19.881,0-36-16.119-36-36c0-19.885,16.119-36,36-36c19.887,0,36,16.115,36,36
			C696,189.881,679.887,206,660,206z"/>
	</g>
	<g id="lockscreen-other-events-area-background">
		<rect x="250" y="359" fill="#E2E2E2" stroke="#848484" width="100" height="49"/>
		<g>
			<g>
				<rect x="250" y="359" opacity="0.15" fill="#010101" enable-background="new    " width="100" height="1"/>
				<rect x="250" y="360" opacity="0.25" fill="#FFFFFF" enable-background="new    " width="100" height="1"/>
			</g>
		</g>
	</g>
	<g id="lockscreen-recent-event-area-background">
		<rect x="250" y="260" fill="#E2E2E2" stroke="#848484" width="100" height="79"/>
	</g>
	<g id="lockscreen-notification-area-background" opacity="0.9">
		<rect x="250" y="428" fill="#E2E2E2" stroke="#848484" width="100" height="70"/>
	</g>
	<g id="lockscreen-lock-land-area-background-dragged">
		<g opacity="0.5">
			
				<linearGradient id="SVGID_7_" gradientUnits="userSpaceOnUse" x1="523.8398" y1="594" x2="523.8398" y2="777.6797" gradientTransform="matrix(1 0 0 1 -62 -284)">
				<stop  offset="0.0028" style="stop-color:#454545"/>
				<stop  offset="1" style="stop-color:#424242"/>
			</linearGradient>
			<path fill="url(#SVGID_7_)" d="M533.679,330v143.68H390V330H533.679 M553.679,310H370v183.68h183.679V310L553.679,310z"/>
		</g>
	</g>
	<g id="lockscreen-lock-land-area-background-active">
		
			<linearGradient id="SVGID_8_" gradientUnits="userSpaceOnUse" x1="723.5195" y1="214" x2="723.5195" y2="30.3203" gradientTransform="matrix(1 0 0 -1 -58 524)">
			<stop  offset="0" style="stop-color:#A7D1DB"/>
			<stop  offset="1" style="stop-color:#5D8891"/>
		</linearGradient>
		<path fill="url(#SVGID_8_)" stroke="#585858" d="M737.358,330v143.68H593.678V330H737.358 M757.358,310H573.678v183.68H757.36
			L757.358,310L757.358,310z"/>
	</g>
	<g id="lockscreen-lock-land-area-center-background">
		<path opacity="0.35" fill="#010101" enable-background="new    " d="M119.22,492.121c-28.628,0-51.839-23.211-51.839-51.84
			c0-28.635,23.211-51.84,51.839-51.84c28.637,0,51.84,23.205,51.84,51.84C171.06,468.91,147.856,492.121,119.22,492.121z"/>
	</g>
</g>
</svg>
