<?xml version="1.0" encoding="utf-8"?>
<!-- Generator: Adobe Illustrator 14.0.0, SVG Export Plug-In . SVG Version: 6.00 Build 43363)  -->
<!DOCTYPE svg PUBLIC "-//W3C//DTD SVG 1.1//EN" "http://www.w3.org/Graphics/SVG/1.1/DTD/svg11.dtd">
<svg version="1.1" id="Layer_1" xmlns="http://www.w3.org/2000/svg" xmlns:xlink="http://www.w3.org/1999/xlink" x="0px" y="0px"
	 width="370px" height="300px" viewBox="0 0 370 300" enable-background="new 0 0 370 300" xml:space="preserve">
<g id="meegotouch-notifications-layer">
</g>
<g id="meegotouch-notifications">
	<g id="duinotificationThemeTemplateHelper">
		<g>
			<path fill="#B3B3B3" d="M16,299c-8.271,0-15-6.729-15-15V16C1,7.729,7.729,1,16,1h338c8.271,0,15,6.729,15,15v268
				c0,8.271-6.729,15-15,15H16z"/>
			<g>
				<path d="M354,2c7.721,0,14,6.28,14,14v268c0,7.721-6.279,14-14,14H16c-7.72,0-14-6.279-14-14V16C2,8.28,8.28,2,16,2H354 M354,0
					H16C7.2,0,0,7.2,0,16v268c0,8.8,7.2,16,16,16h338c8.8,0,16-7.2,16-16V16C370,7.2,362.8,0,354,0L354,0z"/>
			</g>
		</g>
		<path d="M135.986,33.833l-6.297-11.382v11.382h-2.123V18.545h1.805l6.133,11.063V18.545h2.123v15.288H135.986z"/>
		<path d="M145.029,33.997c-1.607,0-2.809-0.526-3.609-1.579c-0.799-1.053-1.199-2.632-1.199-4.737c0-1.832,0.414-3.281,1.246-4.348
			c0.83-1.066,2.018-1.6,3.562-1.6c1.559,0,2.75,0.526,3.574,1.579c0.822,1.053,1.234,2.522,1.234,4.409
			c0,1.941-0.385,3.473-1.152,4.594C147.916,33.437,146.697,33.997,145.029,33.997z M145.029,32.592
			c0.842,0,1.475-0.381,1.902-1.143c0.427-0.762,0.641-2.039,0.641-3.83c0-1.265-0.219-2.326-0.656-3.184s-1.066-1.287-1.887-1.287
			c-0.834,0-1.467,0.387-1.896,1.158c-0.432,0.773-0.646,1.877-0.646,3.312c0,1.613,0.215,2.846,0.646,3.696
			C143.562,32.167,144.195,32.592,145.029,32.592z"/>
		<path d="M155.355,33.997c-0.93,0-1.611-0.217-2.041-0.651c-0.432-0.434-0.646-1.126-0.646-2.076v-7.937H151.1v-0.82l3.189-3.251
			h0.562v2.646h2.902v1.425h-2.902v7.577c0,0.65,0.107,1.079,0.318,1.287c0.213,0.209,0.533,0.312,0.965,0.312
			c0.443,0,1.045-0.099,1.805-0.297v1.415C157.023,33.874,156.162,33.997,155.355,33.997z"/>
		<path d="M162.102,33.833h-2.184v-10.5h-1.363v-1.425h3.547V33.833L162.102,33.833z M161.016,17.725
			c0.334,0,0.623,0.123,0.867,0.369c0.242,0.246,0.363,0.536,0.363,0.871c0,0.342-0.119,0.635-0.359,0.877
			c-0.238,0.242-0.529,0.363-0.871,0.363c-0.35,0-0.643-0.121-0.883-0.363c-0.238-0.242-0.357-0.535-0.357-0.877
			c0-0.349,0.119-0.643,0.357-0.882C160.373,17.844,160.666,17.725,161.016,17.725z"/>
		<path d="M170.881,17.684v1.486c-0.643-0.205-1.18-0.308-1.611-0.308c-0.684,0-1.113,0.218-1.291,0.651
			c-0.178,0.433-0.268,1.232-0.268,2.395h2.186v1.425h-2.186v10.5h-2.184v-10.5h-1.445v-1.425h1.445c0-1.812,0.277-3.01,0.83-3.595
			c0.555-0.584,1.393-0.876,2.514-0.876C169.561,17.438,170.23,17.52,170.881,17.684z"/>
		<path d="M174.141,33.833h-2.184v-10.5h-1.363v-1.425h3.547V33.833L174.141,33.833z M173.055,17.725
			c0.334,0,0.623,0.123,0.867,0.369c0.242,0.246,0.363,0.536,0.363,0.871c0,0.342-0.119,0.635-0.359,0.877
			c-0.238,0.242-0.529,0.363-0.871,0.363c-0.35,0-0.643-0.121-0.883-0.363c-0.238-0.242-0.357-0.535-0.357-0.877
			c0-0.349,0.119-0.643,0.357-0.882C172.412,17.844,172.705,17.725,173.055,17.725z"/>
		<path d="M181.658,33.997c-1.621,0-2.844-0.531-3.672-1.595c-0.826-1.062-1.24-2.623-1.24-4.681c0-1.914,0.447-3.391,1.338-4.43
			c0.893-1.039,2.189-1.559,3.893-1.559c0.662,0,1.336,0.085,2.02,0.257v1.486c-0.52-0.164-1.166-0.246-1.938-0.246
			c-0.998,0-1.756,0.398-2.271,1.194c-0.516,0.797-0.775,1.909-0.775,3.338c0,1.538,0.26,2.714,0.775,3.527s1.273,1.22,2.271,1.22
			c0.861,0,1.533-0.078,2.02-0.235v1.415C183.346,33.895,182.539,33.997,181.658,33.997z"/>
		<path d="M192.086,32.11c-0.738,1.258-1.887,1.887-3.445,1.887c-1.086,0-1.932-0.306-2.537-0.918
			c-0.604-0.611-0.908-1.468-0.908-2.568c0-1.135,0.311-1.979,0.934-2.538c0.621-0.557,1.367-0.905,2.233-1.046
			c0.869-0.14,1.927-0.21,3.171-0.21v-1.404c0-1.389-0.742-2.082-2.228-2.082c-0.854,0-1.896,0.182-3.127,0.543v-1.527
			c1.237-0.342,2.413-0.513,3.526-0.513c1.313,0,2.31,0.316,2.989,0.948c0.681,0.633,1.021,1.564,1.021,2.795v8.356h-1.188
			L192.086,32.11z M191.533,28.02h-1.221c-0.979,0-1.711,0.207-2.199,0.62c-0.488,0.413-0.734,1.03-0.734,1.851
			c0,0.67,0.15,1.171,0.447,1.502c0.297,0.332,0.742,0.498,1.338,0.498c0.752,0,1.334-0.24,1.748-0.719s0.621-1.127,0.621-1.947
			V28.02L191.533,28.02z"/>
		<path d="M199.705,33.997c-0.93,0-1.611-0.217-2.041-0.651c-0.432-0.434-0.646-1.126-0.646-2.076v-7.937h-1.566v-0.82l3.188-3.251
			h0.563v2.646h2.901v1.425h-2.901v7.577c0,0.65,0.106,1.079,0.317,1.287c0.213,0.209,0.532,0.312,0.965,0.312
			c0.442,0,1.045-0.099,1.806-0.297v1.415C201.373,33.874,200.512,33.997,199.705,33.997z"/>
		<path d="M206.451,33.833h-2.184v-10.5h-1.363v-1.425h3.547V33.833L206.451,33.833z M205.365,17.725
			c0.334,0,0.623,0.123,0.867,0.369c0.242,0.246,0.363,0.536,0.363,0.871c0,0.342-0.119,0.635-0.359,0.877
			c-0.238,0.242-0.529,0.363-0.871,0.363c-0.35,0-0.643-0.121-0.883-0.363c-0.238-0.242-0.357-0.535-0.357-0.877
			c0-0.349,0.119-0.643,0.357-0.882C204.723,17.844,205.016,17.725,205.365,17.725z"/>
		<path d="M213.865,33.997c-1.605,0-2.809-0.526-3.609-1.579c-0.799-1.053-1.199-2.632-1.199-4.737c0-1.832,0.416-3.281,1.246-4.348
			s2.018-1.6,3.563-1.6c1.559,0,2.75,0.526,3.573,1.579c0.824,1.053,1.235,2.522,1.235,4.409c0,1.941-0.385,3.473-1.153,4.594
			C216.752,33.436,215.533,33.997,213.865,33.997z M213.865,32.592c0.842,0,1.477-0.381,1.902-1.143
			c0.428-0.762,0.641-2.039,0.641-3.83c0-1.265-0.219-2.326-0.656-3.184s-1.066-1.287-1.887-1.287c-0.834,0-1.465,0.387-1.896,1.158
			c-0.43,0.773-0.646,1.877-0.646,3.312c0,1.613,0.217,2.846,0.646,3.696C212.4,32.167,213.031,32.592,213.865,32.592z"/>
		<path d="M229.904,33.833h-2.188v-7.916c0-0.896-0.154-1.567-0.471-2.015c-0.314-0.448-0.787-0.672-1.416-0.672
			c-0.793,0-1.408,0.301-1.848,0.902c-0.438,0.601-0.654,1.385-0.654,2.348v7.353h-2.186V21.908h1.223l0.439,1.764
			c0.758-1.293,1.912-1.938,3.465-1.938c1.211,0,2.117,0.317,2.725,0.954c0.604,0.635,0.906,1.586,0.906,2.85v8.295H229.904z"/>
		<path d="M235.143,33.997c-0.895,0-1.916-0.134-3.063-0.399v-1.569c1.229,0.335,2.199,0.503,2.912,0.503
			c0.729,0,1.279-0.152,1.648-0.457c0.369-0.304,0.553-0.76,0.553-1.369c0-0.355-0.113-0.688-0.348-0.999
			c-0.232-0.311-0.813-0.692-1.744-1.144c-0.594-0.287-1.076-0.559-1.443-0.815c-0.369-0.256-0.686-0.601-0.943-1.035
			s-0.389-0.973-0.389-1.615c0-1.032,0.365-1.851,1.102-2.456c0.734-0.604,1.678-0.907,2.824-0.907c1.006,0,1.914,0.126,2.729,0.38
			v1.496c-0.854-0.293-1.687-0.44-2.492-0.44c-0.67,0-1.17,0.144-1.502,0.431s-0.498,0.718-0.498,1.292
			c0,0.301,0.107,0.583,0.318,0.846c0.213,0.264,0.741,0.597,1.59,1c0.614,0.287,1.125,0.565,1.526,0.836
			c0.404,0.271,0.744,0.636,1.021,1.097c0.275,0.462,0.414,1.041,0.414,1.738c0,1.176-0.361,2.068-1.092,2.676
			C237.537,33.693,236.496,33.997,235.143,33.997z"/>
	</g>
	<g id="meegotouch-notification-system-background-pressed">
		<g>
			<rect x="93.917" y="191.875" fill="#DADCD9" stroke="#A0A0A0" width="64" height="64"/>
		</g>
		<g id="meegotouch-notification-event-background_6_">
			<g>
				<rect x="94.917" y="192.875" fill="none" stroke="#EDEDED" width="62" height="62"/>
			</g>
		</g>
	</g>
	<g id="meegotouch-notification-system-background">
		<g>
			
				<linearGradient id="SVGID_1_" gradientUnits="userSpaceOnUse" x1="43.333" y1="567.833" x2="43.333" y2="503.833" gradientTransform="matrix(1 0 0 1 8 -312)">
				<stop  offset="0" style="stop-color:#F7F7F7"/>
				<stop  offset="1" style="stop-color:#F2F2F2"/>
			</linearGradient>
			<rect x="19.333" y="191.833" fill="url(#SVGID_1_)" stroke="#A0A0A0" width="64" height="64"/>
		</g>
		<g id="meegotouch-notification-event-background_4_">
			<g>
				<rect x="20.333" y="192.833" fill="none" stroke="#FFFFFF" width="62" height="62"/>
			</g>
		</g>
	</g>
	<g id="meegotouch-notification-information-background-pressed">
		<rect x="93.792" y="118.125" fill="#DADCD9" stroke="#A0A0A0" width="64" height="64"/>
		<g id="meegotouch-notification-event-background_5_">
			<g>
				<rect x="94.792" y="119.125" fill="none" stroke="#EDEDED" width="62" height="62"/>
			</g>
		</g>
	</g>
	<g id="meegotouch-notification-information-background">
		
			<linearGradient id="SVGID_2_" gradientUnits="userSpaceOnUse" x1="43.667" y1="493.25" x2="43.667" y2="429.25" gradientTransform="matrix(1 0 0 1 8 -312)">
			<stop  offset="0" style="stop-color:#F7F7F7"/>
			<stop  offset="1" style="stop-color:#F2F2F2"/>
		</linearGradient>
		<rect x="19.667" y="117.25" fill="url(#SVGID_2_)" stroke="#A0A0A0" width="64" height="64"/>
		<g id="meegotouch-notification-event-background_3_">
			<g>
				<rect x="20.667" y="118.25" fill="none" stroke="#FFFFFF" width="62" height="62"/>
			</g>
		</g>
	</g>
	<g id="meegotouch-notification-event-background-pressed">
		<g>
			<rect x="93.583" y="44.5" fill="#DADCD9" stroke="#A0A0A0" width="64" height="64"/>
		</g>
		<g id="meegotouch-notification-event-background_2_">
			<g>
				<rect x="94.583" y="45.5" fill="none" stroke="#EDEDED" width="62" height="62"/>
			</g>
		</g>
	</g>
	<g id="meegotouch-notification-event-background">
		<g>
			
				<linearGradient id="SVGID_3_" gradientUnits="userSpaceOnUse" x1="44" y1="356" x2="44" y2="420" gradientTransform="matrix(1 0 0 1 8 -312)">
				<stop  offset="0" style="stop-color:#F7F7F7"/>
				<stop  offset="1" style="stop-color:#F2F2F2"/>
			</linearGradient>
			<rect x="20" y="44" fill="url(#SVGID_3_)" stroke="#A0A0A0" width="64" height="64"/>
		</g>
	</g>
	<g id="meegotouch-notification-event-background_1_">
		<g>
			<rect x="21" y="45" fill="none" stroke="#FFFFFF" width="62" height="62"/>
		</g>
	</g>
</g>
</svg>
