<?xml version="1.0" encoding="utf-8"?>
<!-- Generator: Adobe Illustrator 14.0.0, SVG Export Plug-In . SVG Version: 6.00 Build 43363)  -->
<!DOCTYPE svg PUBLIC "-//W3C//DTD SVG 1.1//EN" "http://www.w3.org/Graphics/SVG/1.1/DTD/svg11.dtd">
<svg version="1.1" id="Layer_1" xmlns="http://www.w3.org/2000/svg" xmlns:xlink="http://www.w3.org/1999/xlink" x="0px" y="0px"
	 width="350px" height="240px" viewBox="0 0 350 240" enable-background="new 0 0 350 240" xml:space="preserve">
<g id="meegotouch-textedit-layer">
</g>
<g id="theme">
	<g id="meegotouch-textedit">
		<g id="MeegotouchTexteditThemeTemplateHelper">
			<g>
				<path fill="#B3B3B3" d="M16,239c-8.271,0-15-6.729-15-15V16C1,7.729,7.729,1,16,1h318c8.271,0,15,6.729,15,15v208
					c0,8.271-6.729,15-15,15H16z"/>
				<g>
					<path d="M334,2c7.721,0,14,6.28,14,14v208c0,7.721-6.279,14-14,14H16c-7.72,0-14-6.279-14-14V16C2,8.28,8.28,2,16,2H334 M334,0
						H16C7.2,0,0,7.2,0,16v208c0,8.8,7.2,16,16,16h318c8.8,0,16-7.2,16-16V16C350,7.2,342.8,0,334,0L334,0z"/>
				</g>
			</g>
			<path fill="#010101" d="M112.662,34.333V20.645h-3.846v-1.6h9.885v1.6h-3.834v13.688H112.662z"/>
			<path fill="#010101" d="M126.578,32.508v1.486c-1.074,0.336-2.186,0.503-3.334,0.503c-1.668,0-2.916-0.503-3.742-1.507
				c-0.828-1.006-1.24-2.554-1.24-4.646c0-1.839,0.4-3.317,1.199-4.435c0.801-1.118,1.941-1.677,3.426-1.677
				c1.201,0,2.105,0.319,2.711,0.959s0.992,1.422,1.164,2.348c0.17,0.927,0.256,2.028,0.256,3.308h-6.439
				c0,1.387,0.246,2.428,0.738,3.122c0.492,0.694,1.23,1.04,2.215,1.04C124.365,33.01,125.381,32.843,126.578,32.508z
				 M120.578,27.504h4.297c0-1.442-0.172-2.461-0.512-3.056c-0.344-0.595-0.836-0.892-1.477-0.892c-0.719,0-1.268,0.307-1.646,0.922
				C120.862,25.093,120.641,26.103,120.578,27.504z"/>
			<path fill="#010101" d="M137.662,34.333h-2.4l-2.666-4.624l-2.768,4.624h-2.062l3.846-6.091l-3.527-5.834h2.389l2.359,4.111
				l2.451-4.111h2.061l-3.508,5.557L137.662,34.333z"/>
			<path fill="#010101" d="M142.256,34.497c-0.93,0-1.609-0.217-2.039-0.651c-0.432-0.434-0.646-1.126-0.646-2.076v-7.937h-1.568
				v-0.82l3.188-3.251h0.564v2.646h2.902v1.425h-2.902v7.577c0,0.65,0.105,1.079,0.318,1.287c0.211,0.209,0.533,0.312,0.963,0.312
				c0.445,0,1.047-0.099,1.805-0.297v1.415C143.924,34.374,143.062,34.497,142.256,34.497z"/>
			<path fill="#010101" d="M153.977,34.333h-2.184v-10.5h-1.363v-1.425h3.547V34.333L153.977,34.333z M152.891,18.225
				c0.334,0,0.623,0.123,0.865,0.369c0.242,0.246,0.365,0.536,0.365,0.871c0,0.342-0.121,0.635-0.359,0.877
				c-0.24,0.242-0.531,0.363-0.871,0.363c-0.35,0-0.645-0.121-0.883-0.363c-0.24-0.242-0.359-0.535-0.359-0.877
				c0-0.349,0.119-0.643,0.359-0.882C152.246,18.344,152.541,18.225,152.891,18.225z"/>
			<path fill="#010101" d="M165.842,34.333h-2.186v-7.916c0-0.896-0.156-1.567-0.471-2.015c-0.315-0.448-0.787-0.672-1.416-0.672
				c-0.793,0-1.408,0.301-1.846,0.902c-0.438,0.601-0.656,1.385-0.656,2.348v7.353h-2.184V22.408h1.221l0.441,1.764
				c0.758-1.293,1.912-1.938,3.465-1.938c1.211,0,2.117,0.317,2.723,0.954c0.605,0.635,0.908,1.586,0.908,2.85L165.842,34.333
				L165.842,34.333z"/>
			<path fill="#010101" d="M170.004,22.408l0.441,1.701c0.43-0.635,0.908-1.107,1.436-1.414c0.525-0.309,1.195-0.462,2.01-0.462
				c1.318,0,2.309,0.497,2.972,1.492c0.662,0.994,0.994,2.486,0.994,4.476c0,1.969-0.453,3.504-1.356,4.604
				c-0.905,1.102-2.211,1.651-3.912,1.651c-0.451,0-0.992-0.075-1.621-0.226v3.527h-2.184v-15.35L170.004,22.408L170.004,22.408z
				 M170.967,27.74v4.932c0.527,0.198,1.08,0.297,1.662,0.297c0.984,0,1.725-0.342,2.219-1.025c0.496-0.684,0.744-1.965,0.744-3.845
				c0-1.456-0.184-2.548-0.553-3.276c-0.369-0.729-0.92-1.092-1.652-1.092c-0.793,0-1.395,0.307-1.805,0.918
				S170.967,26.291,170.967,27.74z"/>
			<path fill="#010101" d="M183.928,34.497c-1.217,0-2.129-0.315-2.732-0.948c-0.604-0.633-0.903-1.581-0.903-2.846v-8.295h2.188
				v7.916c0,0.895,0.153,1.566,0.473,2.015c0.314,0.449,0.789,0.671,1.426,0.671c0.791,0,1.406-0.301,1.84-0.902
				s0.65-1.384,0.65-2.348v-7.352h2.186v11.925h-1.211l-0.441-1.764C186.635,33.854,185.479,34.497,183.928,34.497z"/>
			<path fill="#010101" d="M195.074,34.497c-0.93,0-1.609-0.217-2.039-0.651c-0.432-0.434-0.646-1.126-0.646-2.076v-7.937h-1.568
				v-0.82l3.188-3.251h0.564v2.646h2.901v1.425h-2.901v7.577c0,0.65,0.104,1.079,0.317,1.287c0.211,0.209,0.529,0.312,0.963,0.312
				c0.441,0,1.047-0.099,1.806-0.297v1.415C196.742,34.374,195.881,34.497,195.074,34.497z"/>
			<path fill="#010101" d="M209.963,18.184v1.486c-0.643-0.205-1.178-0.308-1.609-0.308c-0.684,0-1.115,0.218-1.291,0.651
				c-0.18,0.434-0.268,1.232-0.268,2.395h2.184v1.425h-2.184v10.5h-2.184v-10.5h-1.445v-1.425h1.445c0-1.812,0.277-3.01,0.83-3.595
				c0.555-0.584,1.391-0.876,2.512-0.876C208.645,17.938,209.314,18.02,209.963,18.184z"/>
			<path fill="#010101" d="M213.225,34.333h-2.184v-10.5h-1.363v-1.425h3.547V34.333L213.225,34.333z M212.139,18.225
				c0.334,0,0.623,0.123,0.865,0.369c0.242,0.246,0.365,0.536,0.365,0.871c0,0.342-0.121,0.635-0.359,0.877
				c-0.24,0.242-0.531,0.363-0.871,0.363c-0.35,0-0.645-0.121-0.883-0.363c-0.24-0.242-0.359-0.535-0.359-0.877
				c0-0.349,0.119-0.643,0.359-0.882C211.494,18.344,211.789,18.225,212.139,18.225z"/>
			<path fill="#010101" d="M224.146,32.508v1.486c-1.074,0.336-2.188,0.503-3.334,0.503c-1.668,0-2.916-0.503-3.742-1.507
				c-0.828-1.006-1.24-2.554-1.24-4.646c0-1.839,0.4-3.317,1.199-4.435c0.801-1.118,1.941-1.677,3.426-1.677
				c1.201,0,2.105,0.319,2.711,0.959s0.992,1.422,1.164,2.348c0.17,0.927,0.256,2.028,0.256,3.308h-6.439
				c0,1.387,0.246,2.428,0.738,3.122c0.492,0.694,1.23,1.04,2.215,1.04C221.934,33.01,222.949,32.843,224.146,32.508z
				 M218.146,27.504h4.297c0-1.442-0.172-2.461-0.512-3.056c-0.349-0.595-0.836-0.892-1.479-0.892c-0.722,0-1.271,0.307-1.646,0.922
				C218.43,25.093,218.209,26.103,218.146,27.504z"/>
			<path fill="#010101" d="M227.016,34.333V18.102h2.188v16.231H227.016z"/>
			<path fill="#010101" d="M239.639,34.333l-0.461-1.466c-0.631,1.086-1.707,1.63-3.229,1.63c-1.416,0-2.48-0.501-3.195-1.502
				c-0.713-1.001-1.068-2.565-1.068-4.691c0-1.784,0.381-3.241,1.146-4.373c0.762-1.132,1.844-1.697,3.246-1.697
				c1.146,0,2.01,0.345,2.584,1.036v-5.168h2.185v16.231H239.639z M238.727,28.898l-0.012-0.677c0-1.777-0.199-2.978-0.6-3.599
				c-0.4-0.623-0.969-0.934-1.707-0.934c-0.82,0-1.436,0.379-1.846,1.139c-0.41,0.758-0.615,1.896-0.615,3.414
				c0,1.593,0.197,2.785,0.596,3.578c0.395,0.793,0.99,1.189,1.783,1.189c0.771,0,1.365-0.287,1.779-0.861
				C238.52,31.573,238.727,30.491,238.727,28.898z"/>
		</g>
		<g id="meegotouch-textedit-background-selected">
			
				<linearGradient id="SVGID_1_" gradientUnits="userSpaceOnUse" x1="185.2441" y1="683.8467" x2="185.2441" y2="745.8477" gradientTransform="matrix(1 0 0 1 -62 -594)">
				<stop  offset="0" style="stop-color:#000000;stop-opacity:0.04"/>
				<stop  offset="1" style="stop-color:#000000;stop-opacity:0.1"/>
			</linearGradient>
			<rect x="92.244" y="89.847" fill="url(#SVGID_1_)" width="62" height="62"/>
			
				<linearGradient id="SVGID_2_" gradientUnits="userSpaceOnUse" x1="185.2441" y1="684.8477" x2="185.2441" y2="744.8477" gradientTransform="matrix(1 0 0 1 -62 -594)">
				<stop  offset="0" style="stop-color:#93BEC7"/>
				<stop  offset="1" style="stop-color:#5D8891"/>
			</linearGradient>
			<rect x="93.244" y="90.848" fill="url(#SVGID_2_)" width="60" height="60"/>
			<g>
				<rect x="94.244" y="91.848" fill="#F9F9F9" width="58" height="58"/>
				
					<linearGradient id="SVGID_3_" gradientUnits="userSpaceOnUse" x1="152.7437" y1="-245.8477" x2="152.7437" y2="-187.8477" gradientTransform="matrix(1 0 0 -1 -58 -96)">
					<stop  offset="0" style="stop-color:#B2B2B2"/>
					<stop  offset="1" style="stop-color:#ABABAB"/>
				</linearGradient>
				<rect x="94.244" y="91.848" opacity="0.5" fill="url(#SVGID_3_)" enable-background="new    " width="1" height="58"/>
				
					<linearGradient id="SVGID_4_" gradientUnits="userSpaceOnUse" x1="209.7432" y1="-187.8477" x2="209.7432" y2="-245.8477" gradientTransform="matrix(1 0 0 -1 -58 -96)">
					<stop  offset="0" style="stop-color:#ABABAB"/>
					<stop  offset="1" style="stop-color:#BDBDBD"/>
				</linearGradient>
				<rect x="151.244" y="91.848" opacity="0.5" fill="url(#SVGID_4_)" enable-background="new    " width="1" height="58"/>
				<rect x="94.244" y="91.848" opacity="0.5" fill="#B2B2B2" enable-background="new    " width="58" height="1"/>
				<rect x="94.244" y="148.848" opacity="0.5" fill="#BCBCBC" enable-background="new    " width="58" height="1"/>
			</g>
		</g>
		<g id="meegotouch-textedit-background">
			<rect x="25.75" y="90.75" opacity="0.57" enable-background="new    " width="60" height="60"/>
			<g>
				
					<linearGradient id="SVGID_5_" gradientUnits="userSpaceOnUse" x1="113.75" y1="-245.749" x2="113.75" y2="-187.75" gradientTransform="matrix(1 0 0 -1 -58 -96)">
					<stop  offset="0" style="stop-color:#FFFFFF"/>
					<stop  offset="1" style="stop-color:#DFDFDF"/>
				</linearGradient>
				<rect x="26.75" y="91.75" fill="url(#SVGID_5_)" width="58" height="57.999"/>
				<rect x="26.75" y="91.75" fill="#EDEDED" width="1" height="58"/>
				
					<linearGradient id="SVGID_6_" gradientUnits="userSpaceOnUse" x1="142.25" y1="-187.75" x2="142.25" y2="-245.75" gradientTransform="matrix(1 0 0 -1 -58 -96)">
					<stop  offset="0" style="stop-color:#E8E8E8"/>
					<stop  offset="1" style="stop-color:#FFFFFF"/>
				</linearGradient>
				<rect x="83.75" y="91.75" fill="url(#SVGID_6_)" width="1" height="58"/>
				<rect x="26.75" y="91.75" fill="#EAEAEA" width="58" height="1"/>
				<rect x="26.75" y="148.749" fill="#E0E0E0" width="58" height="1"/>
			</g>
		</g>
		<g id="meegotouch-textedit-completer-background-pressed">
			
				<linearGradient id="SVGID_7_" gradientUnits="userSpaceOnUse" x1="428.083" y1="-877.875" x2="428.083" y2="-907.875" gradientTransform="matrix(1 0 0 -1 -328 -826)">
				<stop  offset="0" style="stop-color:#A7D1DB"/>
				<stop  offset="1" style="stop-color:#82ADB6"/>
			</linearGradient>
			<path fill="url(#SVGID_7_)" stroke="#999999" d="M115.083,79.875c0,1.104-0.896,2-2,2h-26c-1.104,0-2-0.896-2-2v-26
				c0-1.104,0.896-2,2-2h26c1.104,0,2,0.896,2,2V79.875z"/>
		</g>
		<g id="meegotouch-textedit-completer-background">
			<path fill="#E5E5E5" stroke="#999999" d="M63.083,79.875c0,1.104-0.896,2-2,2h-26c-1.104,0-2-0.896-2-2v-26c0-1.104,0.896-2,2-2
				h26c1.104,0,2,0.896,2,2V79.875z"/>
		</g>
	</g>
</g>
</svg>
