<?xml version="1.0" encoding="utf-8"?>
<!-- Generator: Adobe Illustrator 14.0.0, SVG Export Plug-In . SVG Version: 6.00 Build 43363)  -->
<!DOCTYPE svg PUBLIC "-//W3C//DTD SVG 1.1//EN" "http://www.w3.org/Graphics/SVG/1.1/DTD/svg11.dtd">
<svg version="1.1" id="Layer_1" xmlns="http://www.w3.org/2000/svg" xmlns:xlink="http://www.w3.org/1999/xlink" x="0px" y="0px"
	 width="260px" height="1105px" viewBox="0 0 260 1105" enable-background="new 0 0 260 1105" xml:space="preserve">
<g id="meegotouch-media-navigationbar-layer">
</g>
<g id="meegotouch-media-navigationbar">
	<g id="NavigationbarformediathemehelperBackground">
		<g>
			<path fill="#B3B3B3" d="M16,1104c-8.271,0-15-6.729-15-15V16C1,7.729,7.729,1,16,1h228c8.271,0,15,6.729,15,15v1073
				c0,8.271-6.729,15-15,15H16z"/>
			<g>
				<path d="M244,2c7.721,0,14,6.28,14,14v1073c0,7.72-6.279,14-14,14H16c-7.72,0-14-6.28-14-14V16C2,8.28,8.28,2,16,2H244 M244,0
					H16C7.2,0,0,7.2,0,16v1073c0,8.8,7.2,16,16,16h228c8.8,0,16-7.2,16-16V16C260,7.2,252.8,0,244,0L244,0z"/>
			</g>
		</g>
		<g>
			<path d="M33.912,32.494v-8.083h1.151l2.579,4.09c0.588,0.947,1.067,1.799,1.439,2.626l0.035-0.012
				c-0.096-1.079-0.119-2.063-0.119-3.322v-3.382h0.983v8.083h-1.056l-2.566-4.102c-0.563-0.899-1.104-1.822-1.499-2.698
				l-0.036,0.013c0.06,1.019,0.071,1.99,0.071,3.334v3.453H33.912z"/>
			<path d="M45.85,31.104c0,0.504,0.024,0.995,0.084,1.391h-0.947l-0.084-0.73h-0.036c-0.323,0.455-0.947,0.863-1.775,0.863
				c-1.175,0-1.774-0.828-1.774-1.668c0-1.402,1.247-2.17,3.49-2.158v-0.12c0-0.468-0.132-1.343-1.319-1.331
				c-0.552,0-1.115,0.156-1.523,0.432l-0.24-0.707c0.48-0.301,1.188-0.504,1.919-0.504c1.775,0,2.207,1.211,2.207,2.362v2.17H45.85z
				 M44.83,29.532c-1.151-0.024-2.458,0.18-2.458,1.308c0,0.695,0.455,1.008,0.983,1.008c0.768,0,1.259-0.48,1.427-0.973
				c0.036-0.119,0.048-0.239,0.048-0.336V29.532z"/>
			<path d="M47.868,26.689l1.14,3.25c0.191,0.54,0.348,1.02,0.468,1.5h0.036c0.132-0.48,0.3-0.96,0.491-1.5l1.128-3.25h1.103
				l-2.278,5.805h-1.008l-2.206-5.805H47.868z"/>
			<path d="M54.407,25.059c0,0.359-0.252,0.648-0.672,0.648c-0.384,0-0.636-0.289-0.636-0.648s0.265-0.66,0.66-0.66
				C54.144,24.398,54.407,24.688,54.407,25.059z M53.232,32.494v-5.805h1.055v5.805H53.232z"/>
			<path d="M61.006,31.643c0,1.344-0.275,2.147-0.827,2.663c-0.576,0.516-1.392,0.696-2.123,0.696c-0.696,0-1.464-0.168-1.931-0.48
				l0.264-0.815c0.384,0.252,0.983,0.468,1.703,0.468c1.079,0,1.871-0.564,1.871-2.039V31.5h-0.024
				c-0.312,0.54-0.947,0.972-1.847,0.972c-1.439,0-2.471-1.224-2.471-2.83c0-1.967,1.283-3.07,2.626-3.07
				c1.008,0,1.548,0.516,1.812,0.995h0.023l0.036-0.876h0.936c-0.036,0.408-0.048,0.888-0.048,1.584V31.643z M59.95,28.98
				c0-0.18-0.012-0.336-0.06-0.468c-0.192-0.624-0.695-1.128-1.476-1.128c-1.007,0-1.727,0.852-1.727,2.195
				c0,1.14,0.587,2.087,1.715,2.087c0.659,0,1.247-0.407,1.463-1.079c0.061-0.18,0.084-0.384,0.084-0.564L59.95,28.98L59.95,28.98z"
				/>
			<path d="M66.825,31.104c0,0.504,0.024,0.995,0.084,1.391h-0.947l-0.084-0.73h-0.036c-0.324,0.455-0.947,0.863-1.775,0.863
				c-1.175,0-1.774-0.828-1.774-1.668c0-1.402,1.247-2.17,3.49-2.158v-0.12c0-0.468-0.132-1.343-1.319-1.331
				c-0.552,0-1.115,0.156-1.523,0.432l-0.24-0.707c0.48-0.301,1.188-0.504,1.919-0.504c1.775,0,2.207,1.211,2.207,2.362v2.17H66.825
				z M65.806,29.532c-1.151-0.024-2.458,0.18-2.458,1.308c0,0.695,0.455,1.008,0.983,1.008c0.768,0,1.259-0.48,1.427-0.973
				c0.036-0.119,0.048-0.239,0.048-0.336V29.532z"/>
			<path d="M69.755,25.299v1.391h1.512v0.804h-1.512v3.13c0,0.721,0.204,1.128,0.792,1.128c0.288,0,0.456-0.024,0.611-0.071
				l0.048,0.803c-0.203,0.072-0.527,0.145-0.936,0.145c-0.491,0-0.887-0.168-1.139-0.444c-0.288-0.323-0.408-0.839-0.408-1.522
				v-3.167h-0.899v-0.804h0.899V25.61L69.755,25.299z"/>
			<path d="M73.631,25.059c0,0.359-0.252,0.648-0.672,0.648c-0.384,0-0.636-0.289-0.636-0.648s0.265-0.66,0.66-0.66
				C73.367,24.398,73.631,24.688,73.631,25.059z M72.456,32.494v-5.805h1.055v5.805H72.456z"/>
			<path d="M80.518,29.545c0,2.146-1.499,3.082-2.891,3.082c-1.56,0-2.782-1.152-2.782-2.986c0-1.932,1.283-3.07,2.878-3.07
				C79.39,26.57,80.518,27.781,80.518,29.545z M75.924,29.604c0,1.271,0.72,2.231,1.751,2.231c1.008,0,1.763-0.947,1.763-2.255
				c0-0.983-0.491-2.219-1.738-2.219C76.464,27.361,75.924,28.513,75.924,29.604z"/>
			<path d="M81.853,28.261c0-0.611-0.013-1.091-0.049-1.571h0.936l0.061,0.96h0.023c0.288-0.54,0.96-1.079,1.919-1.079
				c0.804,0,2.051,0.479,2.051,2.471v3.453h-1.055v-3.346c0-0.936-0.348-1.715-1.344-1.715c-0.684,0-1.224,0.492-1.415,1.079
				c-0.048,0.132-0.072,0.312-0.072,0.491v3.49h-1.055V28.261z"/>
			<path d="M91.056,23.979h1.043v3.646h0.024c0.371-0.647,1.043-1.055,1.979-1.055c1.451,0,2.459,1.199,2.459,2.95
				c0,2.075-1.319,3.106-2.615,3.106c-0.839,0-1.511-0.324-1.955-1.08h-0.023l-0.061,0.947h-0.899
				c0.024-0.396,0.049-0.982,0.049-1.498L91.056,23.979L91.056,23.979z M92.099,30.168c0,0.132,0.012,0.264,0.048,0.384
				c0.192,0.731,0.815,1.235,1.583,1.235c1.115,0,1.764-0.899,1.764-2.23c0-1.164-0.6-2.159-1.739-2.159
				c-0.708,0-1.38,0.504-1.596,1.296c-0.035,0.131-0.06,0.275-0.06,0.443V30.168z"/>
			<path d="M101.961,31.104c0,0.504,0.024,0.995,0.084,1.391h-0.947l-0.084-0.73h-0.036c-0.323,0.455-0.947,0.863-1.775,0.863
				c-1.175,0-1.774-0.828-1.774-1.668c0-1.402,1.247-2.17,3.49-2.158v-0.12c0-0.468-0.132-1.343-1.319-1.331
				c-0.552,0-1.115,0.156-1.523,0.432l-0.24-0.707c0.48-0.301,1.188-0.504,1.919-0.504c1.775,0,2.207,1.211,2.207,2.362v2.17
				H101.961z M100.941,29.532c-1.151-0.024-2.458,0.18-2.458,1.308c0,0.695,0.455,1.008,0.983,1.008c0.768,0,1.259-0.48,1.427-0.973
				c0.036-0.119,0.048-0.239,0.048-0.336V29.532z"/>
			<path d="M103.668,28.501c0-0.684-0.013-1.271-0.049-1.812h0.924l0.048,1.152h0.036c0.264-0.78,0.911-1.271,1.619-1.271
				c0.108,0,0.191,0.012,0.288,0.023v0.996c-0.108-0.024-0.216-0.024-0.36-0.024c-0.743,0-1.271,0.552-1.415,1.343
				c-0.023,0.145-0.036,0.324-0.036,0.492v3.094h-1.055V28.501z"/>
			<path d="M110.243,32.494v-5.001h-0.804v-0.804h0.804v-0.275c0-0.815,0.192-1.559,0.672-2.027
				c0.396-0.383,0.923-0.539,1.415-0.539c0.384,0,0.695,0.084,0.899,0.168l-0.144,0.815c-0.156-0.072-0.36-0.132-0.672-0.132
				c-0.899,0-1.127,0.779-1.127,1.679v0.312h1.402v0.804h-1.402v5.001L110.243,32.494L110.243,32.494z"/>
			<path d="M118.736,29.545c0,2.146-1.499,3.082-2.891,3.082c-1.56,0-2.782-1.152-2.782-2.986c0-1.932,1.283-3.07,2.878-3.07
				C117.608,26.57,118.736,27.781,118.736,29.545z M114.143,29.604c0,1.271,0.72,2.231,1.751,2.231c1.008,0,1.763-0.947,1.763-2.255
				c0-0.983-0.491-2.219-1.738-2.219C114.683,27.361,114.143,28.513,114.143,29.604z"/>
			<path d="M120.071,28.501c0-0.684-0.013-1.271-0.049-1.812h0.924l0.048,1.152h0.036c0.264-0.78,0.911-1.271,1.619-1.271
				c0.108,0,0.192,0.012,0.288,0.023v0.996c-0.108-0.024-0.216-0.024-0.36-0.024c-0.743,0-1.271,0.552-1.415,1.343
				c-0.023,0.145-0.036,0.324-0.036,0.492v3.094h-1.055V28.501z"/>
			<path d="M126.539,28.261c0-0.611-0.024-1.091-0.049-1.571h0.924l0.048,0.947h0.036c0.324-0.551,0.863-1.066,1.835-1.066
				c0.779,0,1.379,0.479,1.631,1.163h0.024c0.18-0.336,0.42-0.575,0.658-0.756c0.35-0.264,0.721-0.407,1.271-0.407
				c0.778,0,1.919,0.504,1.919,2.518v3.406h-1.029v-3.273c0-1.127-0.42-1.787-1.262-1.787c-0.609,0-1.066,0.443-1.259,0.947
				c-0.05,0.156-0.084,0.336-0.084,0.527v3.586h-1.031v-3.478c0-0.923-0.408-1.583-1.212-1.583c-0.647,0-1.139,0.527-1.307,1.055
				c-0.061,0.145-0.084,0.336-0.084,0.516v3.49h-1.031L126.539,28.261L126.539,28.261z"/>
			<path d="M137.135,29.784c0.024,1.427,0.924,2.015,1.991,2.015c0.756,0,1.224-0.132,1.606-0.3l0.189,0.756
				c-0.372,0.168-1.021,0.372-1.939,0.372c-1.787,0-2.854-1.188-2.854-2.939c0-1.75,1.031-3.117,2.724-3.117
				c1.905,0,2.397,1.654,2.397,2.723c0,0.215-0.013,0.371-0.036,0.491L137.135,29.784L137.135,29.784z M140.229,29.028
				c0.015-0.659-0.273-1.702-1.463-1.702c-1.08,0-1.535,0.971-1.619,1.702H140.229z"/>
			<path d="M147.561,23.979v7.017c0,0.516,0.023,1.103,0.049,1.498h-0.937l-0.048-1.007h-0.036c-0.312,0.647-1.008,1.14-1.955,1.14
				c-1.403,0-2.493-1.188-2.493-2.951c-0.014-1.931,1.198-3.105,2.604-3.105c0.897,0,1.485,0.42,1.751,0.875h0.021V23.98
				L147.561,23.979L147.561,23.979z M146.518,29.053c0-0.133-0.013-0.312-0.049-0.443c-0.154-0.66-0.729-1.212-1.523-1.212
				c-1.09,0-1.735,0.96-1.735,2.231c0,1.175,0.588,2.146,1.715,2.146c0.708,0,1.354-0.48,1.55-1.26
				c0.033-0.145,0.047-0.287,0.047-0.455v-1.007H146.518z"/>
			<path d="M150.502,25.059c0,0.359-0.252,0.648-0.672,0.648c-0.385,0-0.637-0.289-0.637-0.648s0.266-0.66,0.66-0.66
				C150.238,24.398,150.502,24.688,150.502,25.059z M149.327,32.494v-5.805h1.055v5.805H149.327z"/>
			<path d="M156.213,31.104c0,0.504,0.023,0.995,0.084,1.391h-0.947l-0.084-0.73h-0.035c-0.321,0.455-0.945,0.863-1.773,0.863
				c-1.178,0-1.771-0.828-1.771-1.668c0-1.402,1.246-2.17,3.487-2.158v-0.12c0-0.468-0.132-1.343-1.317-1.331
				c-0.554,0-1.115,0.156-1.522,0.432l-0.24-0.707c0.479-0.301,1.188-0.504,1.919-0.504c1.775,0,2.207,1.211,2.207,2.362v2.17
				H156.213z M155.193,29.532c-1.151-0.024-2.459,0.18-2.459,1.308c0,0.695,0.455,1.008,0.981,1.008c0.771,0,1.261-0.48,1.429-0.973
				c0.037-0.119,0.049-0.239,0.049-0.336V29.532L155.193,29.532z"/>
			<path d="M164.54,31.104c0,0.504,0.024,0.995,0.084,1.391h-0.947l-0.084-0.73h-0.036c-0.324,0.455-0.947,0.863-1.772,0.863
				c-1.177,0-1.774-0.828-1.774-1.668c0-1.402,1.247-2.17,3.49-2.158v-0.12c0-0.468-0.132-1.343-1.316-1.331
				c-0.555,0-1.115,0.156-1.523,0.432l-0.24-0.707c0.48-0.301,1.188-0.504,1.919-0.504c1.774,0,2.207,1.211,2.207,2.362v2.17H164.54
				z M163.521,29.532c-1.151-0.024-2.459,0.18-2.459,1.308c0,0.695,0.455,1.008,0.981,1.008c0.771,0,1.261-0.48,1.429-0.973
				c0.034-0.119,0.049-0.239,0.049-0.336V29.532L163.521,29.532z"/>
			<path d="M166.247,28.585c0-0.743-0.024-1.343-0.049-1.896h0.936l0.062,0.996h0.022c0.421-0.708,1.115-1.115,2.063-1.115
				c1.414,0,2.471,1.188,2.471,2.938c0,2.088-1.283,3.119-2.65,3.119c-0.769,0-1.438-0.336-1.787-0.912h-0.021v3.154h-1.043
				L166.247,28.585L166.247,28.585z M167.29,30.132c0,0.156,0.012,0.3,0.048,0.432c0.191,0.731,0.828,1.235,1.583,1.235
				c1.115,0,1.765-0.911,1.765-2.242c0-1.152-0.61-2.147-1.729-2.147c-0.721,0-1.402,0.504-1.596,1.296
				c-0.035,0.131-0.071,0.287-0.071,0.42V30.132z"/>
			<path d="M173.075,28.585c0-0.743-0.024-1.343-0.05-1.896h0.937l0.062,0.996h0.022c0.42-0.708,1.115-1.115,2.063-1.115
				c1.414,0,2.471,1.188,2.471,2.938c0,2.088-1.283,3.119-2.65,3.119c-0.769,0-1.438-0.336-1.787-0.912h-0.021v3.154h-1.043
				L173.075,28.585L173.075,28.585z M174.118,30.132c0,0.156,0.012,0.3,0.048,0.432c0.191,0.731,0.828,1.235,1.583,1.235
				c1.114,0,1.765-0.911,1.765-2.242c0-1.152-0.613-2.147-1.729-2.147c-0.721,0-1.403,0.504-1.596,1.296
				c-0.035,0.131-0.071,0.287-0.071,0.42V30.132z"/>
			<path d="M179.902,23.979h1.055v8.515h-1.055V23.979z"/>
			<path d="M183.909,25.059c0,0.359-0.252,0.648-0.673,0.648c-0.383,0-0.635-0.289-0.635-0.648s0.265-0.66,0.66-0.66
				C183.646,24.398,183.909,24.688,183.909,25.059z M182.734,32.494v-5.805h1.055v5.805H182.734z"/>
			<path d="M189.68,32.291c-0.275,0.132-0.888,0.336-1.668,0.336c-1.751,0-2.89-1.188-2.89-2.963c0-1.787,1.224-3.094,3.118-3.094
				c0.623,0,1.175,0.155,1.463,0.312l-0.24,0.804c-0.251-0.133-0.646-0.276-1.223-0.276c-1.331,0-2.051,0.995-2.051,2.194
				c0,1.344,0.86,2.172,2.015,2.172c0.601,0,0.995-0.145,1.295-0.276L189.68,32.291z"/>
			<path d="M194.996,31.104c0,0.504,0.023,0.995,0.084,1.391h-0.947l-0.084-0.73h-0.035c-0.324,0.455-0.947,0.863-1.775,0.863
				c-1.176,0-1.772-0.828-1.772-1.668c0-1.402,1.247-2.17,3.49-2.158v-0.12c0-0.468-0.132-1.343-1.317-1.331
				c-0.554,0-1.115,0.156-1.523,0.432l-0.239-0.707c0.479-0.301,1.188-0.504,1.919-0.504c1.775,0,2.207,1.211,2.207,2.362v2.17
				H194.996z M193.977,29.532c-1.148-0.024-2.457,0.18-2.457,1.308c0,0.695,0.455,1.008,0.982,1.008c0.768,0,1.26-0.48,1.428-0.973
				c0.035-0.119,0.047-0.239,0.047-0.336V29.532L193.977,29.532z"/>
			<path d="M197.925,25.299v1.391h1.513v0.804h-1.513v3.13c0,0.721,0.204,1.128,0.792,1.128c0.288,0,0.456-0.024,0.611-0.071
				l0.048,0.803c-0.203,0.072-0.526,0.145-0.937,0.145c-0.49,0-0.887-0.168-1.141-0.444c-0.285-0.323-0.406-0.839-0.406-1.522
				v-3.167h-0.898v-0.804h0.898V25.61L197.925,25.299z"/>
			<path d="M201.801,25.059c0,0.359-0.252,0.648-0.672,0.648c-0.384,0-0.636-0.289-0.636-0.648s0.265-0.66,0.659-0.66
				C201.537,24.398,201.801,24.688,201.801,25.059z M200.626,32.494v-5.805h1.056v5.805H200.626z"/>
			<path d="M208.688,29.545c0,2.146-1.498,3.082-2.891,3.082c-1.561,0-2.781-1.152-2.781-2.986c0-1.932,1.282-3.07,2.877-3.07
				C207.561,26.57,208.688,27.781,208.688,29.545z M204.094,29.604c0,1.271,0.721,2.231,1.752,2.231
				c1.008,0,1.762-0.947,1.762-2.255c0-0.983-0.488-2.219-1.735-2.219C204.634,27.361,204.094,28.513,204.094,29.604z"/>
			<path d="M210.021,28.261c0-0.611-0.015-1.091-0.049-1.571h0.937l0.062,0.96h0.022c0.288-0.54,0.96-1.079,1.919-1.079
				c0.804,0,2.051,0.479,2.051,2.471v3.453h-1.055v-3.346c0-0.936-0.348-1.715-1.344-1.715c-0.687,0-1.227,0.492-1.416,1.079
				c-0.047,0.132-0.071,0.312-0.071,0.491v3.49h-1.056V28.261L210.021,28.261z"/>
			<path d="M216.538,31.428c0.323,0.191,0.876,0.407,1.403,0.407c0.756,0,1.115-0.372,1.115-0.863c0-0.504-0.303-0.768-1.068-1.056
				c-1.055-0.384-1.547-0.947-1.547-1.643c0-0.936,0.769-1.703,2.004-1.703c0.588,0,1.104,0.155,1.414,0.359l-0.252,0.768
				c-0.229-0.146-0.646-0.348-1.188-0.348c-0.623,0-0.959,0.359-0.959,0.791c0,0.48,0.336,0.695,1.091,0.996
				c0.996,0.371,1.523,0.875,1.523,1.738c0,1.031-0.805,1.752-2.158,1.752c-0.637,0-1.225-0.168-1.632-0.408L216.538,31.428z"/>
		</g>
	</g>
	<g id="meegotouch-button-navigationbar-media-portrait-tab-background-selected-horizontal-right">
		<g>
			
				<linearGradient id="SVGID_1_" gradientUnits="userSpaceOnUse" x1="699.9561" y1="466.9863" x2="699.9561" y2="521.9863" gradientTransform="matrix(1 0 0 -1 -508 1412)">
				<stop  offset="0" style="stop-color:#9D9D9D"/>
				<stop  offset="1" style="stop-color:#8C8C8C"/>
			</linearGradient>
			<rect x="164.456" y="890.014" fill="url(#SVGID_1_)" width="55" height="55"/>
			<rect x="164.495" y="890.068" opacity="0.5" enable-background="new    " width="55" height="1"/>
			<rect x="164.495" y="944.068" fill="#AAAAAA" width="55" height="1"/>
			<g>
				<linearGradient id="SVGID_2_" gradientUnits="userSpaceOnUse" x1="164.4561" y1="917.5137" x2="179.7061" y2="917.5137">
					<stop  offset="0" style="stop-color:#858585"/>
					<stop  offset="1" style="stop-color:#959595;stop-opacity:0"/>
				</linearGradient>
				<rect x="164.456" y="891.014" fill="url(#SVGID_2_)" width="15.25" height="53"/>
				<linearGradient id="SVGID_3_" gradientUnits="userSpaceOnUse" x1="204.2061" y1="917.5137" x2="219.4561" y2="917.5137">
					<stop  offset="0" style="stop-color:#959595;stop-opacity:0"/>
					<stop  offset="1" style="stop-color:#858585"/>
				</linearGradient>
				<rect x="204.206" y="891.014" fill="url(#SVGID_3_)" width="15.25" height="53"/>
				
					<linearGradient id="SVGID_4_" gradientUnits="userSpaceOnUse" x1="80.8887" y1="708.6689" x2="96.1387" y2="708.6689" gradientTransform="matrix(-4.371139e-008 1 -1 -4.371139e-008 900.6246 810.1251)">
					<stop  offset="0" style="stop-color:#666666"/>
					<stop  offset="1" style="stop-color:#959595;stop-opacity:0"/>
				</linearGradient>
				<rect x="164.456" y="891.014" fill="url(#SVGID_4_)" width="55" height="15.25"/>
				
					<linearGradient id="SVGID_5_" gradientUnits="userSpaceOnUse" x1="118.6387" y1="708.6689" x2="133.8887" y2="708.6689" gradientTransform="matrix(-4.371139e-008 1 -1 -4.371139e-008 900.6246 810.1251)">
					<stop  offset="0" style="stop-color:#959595;stop-opacity:0"/>
					<stop  offset="1" style="stop-color:#858585"/>
				</linearGradient>
				<rect x="164.456" y="928.764" fill="url(#SVGID_5_)" width="55" height="15.25"/>
			</g>
		</g>
	</g>
	<g id="meegotouch-button-navigationbar-media-portrait-tab-background-pressed-horizontal-right">
		<g>
			
				<linearGradient id="SVGID_6_" gradientUnits="userSpaceOnUse" x1="700.3066" y1="535.8604" x2="700.3066" y2="590.8608" gradientTransform="matrix(1 0 0 -1 -508 1412)">
				<stop  offset="0" style="stop-color:#9D9D9D"/>
				<stop  offset="1" style="stop-color:#8C8C8C"/>
			</linearGradient>
			<rect x="164.807" y="821.14" fill="url(#SVGID_6_)" width="55" height="55"/>
			<rect x="164.807" y="821.14" opacity="0.5" enable-background="new    " width="55" height="1"/>
			<rect x="164.807" y="875.14" fill="#AAAAAA" width="55" height="1"/>
		</g>
	</g>
	<g id="meegotouch-button-navigationbar-media-portrait-tab-background-horizontal-right">
		<g>
			
				<linearGradient id="SVGID_7_" gradientUnits="userSpaceOnUse" x1="700.3066" y1="661.6719" x2="700.3066" y2="606.6719" gradientTransform="matrix(1 0 0 -1 -508 1412)">
				<stop  offset="0" style="stop-color:#BEBEBE"/>
				<stop  offset="1" style="stop-color:#9F9F9F"/>
			</linearGradient>
			<rect x="164.807" y="750.328" fill="url(#SVGID_7_)" width="55" height="55"/>
			<rect x="164.807" y="750.328" opacity="0.5" enable-background="new    " width="55" height="1"/>
			<rect x="164.807" y="804.328" fill="#8B8B8B" width="55" height="1"/>
			<rect x="164.807" y="750.328" opacity="0.15" width="1" height="55"/>
		</g>
	</g>
	<g id="meegotouch-button-navigationbar-media-portrait-tab-background-selected-horizontal-center">
		<g>
			
				<linearGradient id="SVGID_8_" gradientUnits="userSpaceOnUse" x1="626.6221" y1="466.6533" x2="626.6221" y2="521.6533" gradientTransform="matrix(1 0 0 -1 -508 1412)">
				<stop  offset="0" style="stop-color:#9D9D9D"/>
				<stop  offset="1" style="stop-color:#8C8C8C"/>
			</linearGradient>
			<rect x="91.122" y="890.347" fill="url(#SVGID_8_)" width="55" height="55"/>
			<rect x="91.161" y="890.401" opacity="0.5" enable-background="new    " width="55" height="1"/>
			<rect x="91.161" y="944.401" fill="#AAAAAA" width="55" height="1"/>
			<g>
				<linearGradient id="SVGID_9_" gradientUnits="userSpaceOnUse" x1="91.1221" y1="917.8467" x2="106.3721" y2="917.8467">
					<stop  offset="0" style="stop-color:#858585"/>
					<stop  offset="1" style="stop-color:#959595;stop-opacity:0"/>
				</linearGradient>
				<rect x="91.122" y="891.347" fill="url(#SVGID_9_)" width="15.25" height="53"/>
				<linearGradient id="SVGID_10_" gradientUnits="userSpaceOnUse" x1="130.8721" y1="917.8467" x2="146.1221" y2="917.8467">
					<stop  offset="0" style="stop-color:#959595;stop-opacity:0"/>
					<stop  offset="1" style="stop-color:#858585"/>
				</linearGradient>
				<rect x="130.872" y="891.347" fill="url(#SVGID_10_)" width="15.25" height="53"/>
				
					<linearGradient id="SVGID_11_" gradientUnits="userSpaceOnUse" x1="81.2217" y1="782.0029" x2="96.4717" y2="782.0029" gradientTransform="matrix(-4.371139e-008 1 -1 -4.371139e-008 900.6246 810.1251)">
					<stop  offset="0" style="stop-color:#666666"/>
					<stop  offset="1" style="stop-color:#959595;stop-opacity:0"/>
				</linearGradient>
				<rect x="91.122" y="891.347" fill="url(#SVGID_11_)" width="55" height="15.25"/>
				
					<linearGradient id="SVGID_12_" gradientUnits="userSpaceOnUse" x1="118.9717" y1="782.0029" x2="134.2217" y2="782.0029" gradientTransform="matrix(-4.371139e-008 1 -1 -4.371139e-008 900.6246 810.1251)">
					<stop  offset="0" style="stop-color:#959595;stop-opacity:0"/>
					<stop  offset="1" style="stop-color:#858585"/>
				</linearGradient>
				<rect x="91.122" y="929.097" fill="url(#SVGID_12_)" width="55" height="15.25"/>
			</g>
		</g>
	</g>
	<g id="meegotouch-button-navigationbar-media-portrait-tab-background-pressed-horizontal-center">
		<g>
			
				<linearGradient id="SVGID_13_" gradientUnits="userSpaceOnUse" x1="626.8281" y1="535.8604" x2="626.8281" y2="590.8608" gradientTransform="matrix(1 0 0 -1 -508 1412)">
				<stop  offset="0" style="stop-color:#9D9D9D"/>
				<stop  offset="1" style="stop-color:#8C8C8C"/>
			</linearGradient>
			<rect x="91.328" y="821.14" fill="url(#SVGID_13_)" width="55" height="55"/>
			<rect x="91.328" y="821.14" opacity="0.5" enable-background="new    " width="55" height="1"/>
			<rect x="91.328" y="875.14" fill="#AAAAAA" width="55" height="1"/>
		</g>
	</g>
	<g id="meegotouch-button-navigationbar-media-portrait-tab-background-horizontal-center">
		<g>
			
				<linearGradient id="SVGID_14_" gradientUnits="userSpaceOnUse" x1="626.8281" y1="661.6719" x2="626.8281" y2="606.6719" gradientTransform="matrix(1 0 0 -1 -508 1412)">
				<stop  offset="0" style="stop-color:#BEBEBE"/>
				<stop  offset="1" style="stop-color:#9F9F9F"/>
			</linearGradient>
			<rect x="91.328" y="750.328" fill="url(#SVGID_14_)" width="55" height="55"/>
			<rect x="91.328" y="750.306" opacity="0.5" enable-background="new    " width="55" height="1"/>
			<rect x="91.328" y="804.328" fill="#8B8B8B" width="55" height="1"/>
			<rect x="145.328" y="750.306" opacity="0.35" fill="#FFFFFF" width="1" height="55"/>
			<rect x="91.328" y="750.306" opacity="0.15" width="1" height="55"/>
		</g>
	</g>
	<g id="meegotouch-button-navigationbar-media-portrait-tab-background-selected-horizontal-left">
		<g>
			
				<linearGradient id="SVGID_15_" gradientUnits="userSpaceOnUse" x1="553.2891" y1="466.6533" x2="553.2891" y2="521.6533" gradientTransform="matrix(1 0 0 -1 -508 1412)">
				<stop  offset="0" style="stop-color:#9D9D9D"/>
				<stop  offset="1" style="stop-color:#8C8C8C"/>
			</linearGradient>
			<rect x="17.789" y="890.347" fill="url(#SVGID_15_)" width="55" height="55"/>
			<rect x="17.828" y="890.401" opacity="0.5" enable-background="new    " width="55" height="1"/>
			<rect x="17.828" y="944.401" fill="#AAAAAA" width="55" height="1"/>
			<g>
				<linearGradient id="SVGID_16_" gradientUnits="userSpaceOnUse" x1="17.7891" y1="917.8467" x2="33.0391" y2="917.8467">
					<stop  offset="0" style="stop-color:#858585"/>
					<stop  offset="1" style="stop-color:#959595;stop-opacity:0"/>
				</linearGradient>
				<rect x="17.789" y="891.347" fill="url(#SVGID_16_)" width="15.25" height="53"/>
				<linearGradient id="SVGID_17_" gradientUnits="userSpaceOnUse" x1="57.5391" y1="917.8467" x2="72.7891" y2="917.8467">
					<stop  offset="0" style="stop-color:#959595;stop-opacity:0"/>
					<stop  offset="1" style="stop-color:#858585"/>
				</linearGradient>
				<rect x="57.539" y="891.347" fill="url(#SVGID_17_)" width="15.25" height="53"/>
				
					<linearGradient id="SVGID_18_" gradientUnits="userSpaceOnUse" x1="81.2217" y1="855.3359" x2="96.4717" y2="855.3359" gradientTransform="matrix(-4.371139e-008 1 -1 -4.371139e-008 900.6246 810.1251)">
					<stop  offset="0" style="stop-color:#666666"/>
					<stop  offset="1" style="stop-color:#959595;stop-opacity:0"/>
				</linearGradient>
				<rect x="17.789" y="891.347" fill="url(#SVGID_18_)" width="55" height="15.25"/>
				
					<linearGradient id="SVGID_19_" gradientUnits="userSpaceOnUse" x1="118.9717" y1="855.3359" x2="134.2217" y2="855.3359" gradientTransform="matrix(-4.371139e-008 1 -1 -4.371139e-008 900.6246 810.1251)">
					<stop  offset="0" style="stop-color:#959595;stop-opacity:0"/>
					<stop  offset="1" style="stop-color:#858585"/>
				</linearGradient>
				<rect x="17.789" y="929.097" fill="url(#SVGID_19_)" width="55" height="15.25"/>
			</g>
		</g>
	</g>
	<g id="meegotouch-button-navigationbar-media-portrait-tab-background-pressed-horizontal-left">
		<g>
			
				<linearGradient id="SVGID_20_" gradientUnits="userSpaceOnUse" x1="553.3281" y1="535.8604" x2="553.3281" y2="590.8608" gradientTransform="matrix(1 0 0 -1 -508 1412)">
				<stop  offset="0" style="stop-color:#9D9D9D"/>
				<stop  offset="1" style="stop-color:#8C8C8C"/>
			</linearGradient>
			<rect x="17.828" y="821.14" fill="url(#SVGID_20_)" width="55" height="55"/>
			<rect x="17.828" y="821.14" opacity="0.5" enable-background="new    " width="55" height="1"/>
			<rect x="17.828" y="875.14" fill="#AAAAAA" width="55" height="1"/>
		</g>
	</g>
	<g id="meegotouch-button-navigationbar-media-portrait-tab-background-horizontal-left">
		<g>
			
				<linearGradient id="SVGID_21_" gradientUnits="userSpaceOnUse" x1="553.3281" y1="661.6719" x2="553.3281" y2="606.6719" gradientTransform="matrix(1 0 0 -1 -508 1412)">
				<stop  offset="0" style="stop-color:#BDBDBD"/>
				<stop  offset="1" style="stop-color:#A0A0A0"/>
			</linearGradient>
			<rect x="17.828" y="750.328" fill="url(#SVGID_21_)" width="55" height="55"/>
			<rect x="17.828" y="750.328" opacity="0.5" enable-background="new    " width="55" height="1"/>
			<rect x="17.828" y="804.328" fill="#8B8B8B" width="55" height="1"/>
			<rect x="71.828" y="750.328" opacity="0.35" fill="#FFFFFF" width="1" height="55"/>
		</g>
	</g>
	<g id="meegotouch-button-navigationbar-media-portrait-toolbarbutton-background-pressed-horizontal-right">
		<g>
			<path fill="#323232" d="M164.995,629.984h65v65h-65V629.984L164.995,629.984z"/>
			
				<linearGradient id="SVGID_22_" gradientUnits="userSpaceOnUse" x1="25.6611" y1="-154.1953" x2="25.6611" y2="-91.1953" gradientTransform="matrix(-1 0 0 1 222.6563 785.1797)">
				<stop  offset="0" style="stop-color:#5D8891"/>
				<stop  offset="1" style="stop-color:#A7D1DB"/>
			</linearGradient>
			<rect x="164.995" y="630.984" fill="url(#SVGID_22_)" width="64" height="63"/>
			<g id="btnbg-rim_9_" opacity="0.08" enable-background="new    ">
				<path fill="#FFFFFF" d="M228.025,631.953v61.063h-62.063v-61.063H228.025 M228.995,630.984h-64v63h64V630.984L228.995,630.984z"
					/>
			</g>
			
				<linearGradient id="SVGID_23_" gradientUnits="userSpaceOnUse" x1="700.6602" y1="400.1523" x2="670.6602" y2="400.1523" gradientTransform="matrix(1 0 0 1 -471.666 262.3301)">
				<stop  offset="0.0028" style="stop-color:#000000"/>
				<stop  offset="1" style="stop-color:#4A4A4A;stop-opacity:0"/>
			</linearGradient>
			<rect x="198.994" y="630.982" opacity="0.08" fill="url(#SVGID_23_)" enable-background="new    " width="30" height="63"/>
		</g>
	</g>
	<g id="meegotouch-button-navigationbar-media-portrait-toolbarbutton-background-pressed-horizontal-center">
		<g>
			
				<linearGradient id="btnbg-bg_1_" gradientUnits="userSpaceOnUse" x1="615.9121" y1="897.5156" x2="615.9121" y2="833.5156" gradientTransform="matrix(1 0 0 -1 -492 1528)">
				<stop  offset="0" style="stop-color:#5D8891"/>
				<stop  offset="1" style="stop-color:#A7D1DB"/>
			</linearGradient>
			<rect id="btnbg-bg_18_" x="91.912" y="630.484" fill="url(#btnbg-bg_1_)" stroke="#323232" width="64" height="64"/>
			
				<linearGradient id="SVGID_24_" gradientUnits="userSpaceOnUse" x1="666.916" y1="349.4072" x2="637.583" y2="349.4072" gradientTransform="matrix(1 0 0 1 -512 313)">
				<stop  offset="0.0028" style="stop-color:#000000"/>
				<stop  offset="1" style="stop-color:#4A4A4A;stop-opacity:0"/>
			</linearGradient>
			<rect x="125.583" y="630.907" opacity="0.08" fill="url(#SVGID_24_)" enable-background="new    " width="29.333" height="63"/>
			
				<rect id="btnbg-rim_15_" x="92.912" y="631.484" opacity="0.08" fill="none" stroke="#FFFFFF" stroke-width="0.9687" enable-background="new    " width="62" height="62"/>
		</g>
	</g>
	<g id="meegotouch-button-navigationbar-media-portrait-toolbarbutton-background-pressed-horizontal-left">
		<g>
			<path fill="#323232" d="M82.828,694.984h-65v-65h65V694.984L82.828,694.984z"/>
			
				<linearGradient id="SVGID_25_" gradientUnits="userSpaceOnUse" x1="306.8281" y1="128.0156" x2="306.8281" y2="65.0156" gradientTransform="matrix(1 0 0 -1 -256 759)">
				<stop  offset="0" style="stop-color:#5D8891"/>
				<stop  offset="1" style="stop-color:#A7D1DB"/>
			</linearGradient>
			<rect x="18.828" y="630.984" fill="url(#SVGID_25_)" width="64" height="63"/>
			<g id="btnbg-rim_4_" opacity="0.08" enable-background="new    ">
				<path fill="#FFFFFF" d="M81.859,631.953v61.063H19.797v-61.063H81.859 M82.828,630.984h-64v63h64V630.984L82.828,630.984z"/>
			</g>
			
				<linearGradient id="SVGID_26_" gradientUnits="userSpaceOnUse" x1="594.8281" y1="349.4844" x2="564.8281" y2="349.4844" gradientTransform="matrix(1 0 0 1 -512 313)">
				<stop  offset="0.0028" style="stop-color:#000000"/>
				<stop  offset="1" style="stop-color:#4A4A4A;stop-opacity:0"/>
			</linearGradient>
			<rect x="52.828" y="630.984" opacity="0.08" fill="url(#SVGID_26_)" enable-background="new    " width="30" height="63"/>
		</g>
	</g>
	<g id="meegotouch-button-navigationbar-media-portrait-toolbarbutton-background-horizontal-right">
		<g>
			<path fill="#323232" d="M164.995,557.985h65v65h-65V557.985L164.995,557.985z"/>
			
				<linearGradient id="SVGID_27_" gradientUnits="userSpaceOnUse" x1="25.6611" y1="-226.1943" x2="25.6611" y2="-163.1943" gradientTransform="matrix(-1 0 0 1 222.6563 785.1797)">
				<stop  offset="0" style="stop-color:#4A4A4A"/>
				<stop  offset="0.9972" style="stop-color:#474747"/>
			</linearGradient>
			<rect x="164.995" y="558.985" fill="url(#SVGID_27_)" width="64" height="63"/>
			<g id="btnbg-rim_1_" opacity="0.08" enable-background="new    ">
				<path fill="#FFFFFF" d="M228.025,559.954v61.063h-62.063v-61.063H228.025 M228.995,558.985h-64v63h64V558.985L228.995,558.985z"
					/>
			</g>
			
				<linearGradient id="SVGID_28_" gradientUnits="userSpaceOnUse" x1="700.6602" y1="328.1533" x2="670.6602" y2="328.1533" gradientTransform="matrix(1 0 0 1 -471.666 262.3301)">
				<stop  offset="0.0028" style="stop-color:#000000"/>
				<stop  offset="1" style="stop-color:#4A4A4A;stop-opacity:0"/>
			</linearGradient>
			<rect x="198.994" y="558.983" opacity="0.08" fill="url(#SVGID_28_)" enable-background="new    " width="30" height="63"/>
		</g>
	</g>
	<g id="meegotouch-button-navigationbar-media-portrait-toolbarbutton-background-horizontal-center">
		<g>
			
				<linearGradient id="btnbg-bg_4_" gradientUnits="userSpaceOnUse" x1="615.9121" y1="969.5146" x2="615.9121" y2="905.5146" gradientTransform="matrix(1 0 0 -1 -492 1528)">
				<stop  offset="0" style="stop-color:#4A4A4A"/>
				<stop  offset="0.9972" style="stop-color:#474747"/>
			</linearGradient>
			<rect id="btnbg-bg_15_" x="91.912" y="558.485" fill="url(#btnbg-bg_4_)" stroke="#323232" width="64" height="64"/>
			
				<rect id="btnbg-rim_12_" x="92.912" y="559.485" opacity="0.08" fill="none" stroke="#FFFFFF" stroke-width="0.9687" enable-background="new    " width="62" height="62"/>
			
				<linearGradient id="SVGID_29_" gradientUnits="userSpaceOnUse" x1="666.917" y1="277.4082" x2="636.917" y2="277.4082" gradientTransform="matrix(1 0 0 1 -512 313)">
				<stop  offset="0.0028" style="stop-color:#000000"/>
				<stop  offset="1" style="stop-color:#4A4A4A;stop-opacity:0"/>
			</linearGradient>
			<rect x="124.917" y="558.908" opacity="0.08" fill="url(#SVGID_29_)" enable-background="new    " width="30" height="63"/>
		</g>
	</g>
	<g id="meegotouch-button-navigationbar-media-portrait-toolbarbutton-background-horizontal-left">
		<g>
			<path fill="#323232" d="M82.828,622.985h-65v-65h65V622.985L82.828,622.985z"/>
			
				<linearGradient id="SVGID_30_" gradientUnits="userSpaceOnUse" x1="306.8281" y1="200.0146" x2="306.8281" y2="137.0146" gradientTransform="matrix(1 0 0 -1 -256 759)">
				<stop  offset="0" style="stop-color:#4A4A4A"/>
				<stop  offset="0.9972" style="stop-color:#474747"/>
			</linearGradient>
			<rect x="18.828" y="558.985" fill="url(#SVGID_30_)" width="64" height="63"/>
			<g id="btnbg-rim_11_" opacity="0.08" enable-background="new    ">
				<path fill="#FFFFFF" d="M81.859,559.954v61.063H19.797v-61.063H81.859 M82.828,558.985h-64v63h64V558.985L82.828,558.985z"/>
			</g>
			
				<linearGradient id="SVGID_31_" gradientUnits="userSpaceOnUse" x1="594.8281" y1="277.4854" x2="564.8281" y2="277.4854" gradientTransform="matrix(1 0 0 1 -512 313)">
				<stop  offset="0.0028" style="stop-color:#000000"/>
				<stop  offset="1" style="stop-color:#4A4A4A;stop-opacity:0"/>
			</linearGradient>
			<rect x="52.828" y="558.985" opacity="0.08" fill="url(#SVGID_31_)" enable-background="new    " width="30" height="63"/>
		</g>
	</g>
	<g id="meegotouch-button-navigationbar-media-tab-background-selected">
		<g>
			
				<linearGradient id="SVGID_32_" gradientUnits="userSpaceOnUse" x1="700.3066" y1="900.5" x2="700.3066" y2="955.5" gradientTransform="matrix(1 0 0 -1 -508 1412)">
				<stop  offset="0" style="stop-color:#9D9D9D"/>
				<stop  offset="1" style="stop-color:#8C8C8C"/>
			</linearGradient>
			<rect x="164.807" y="456.5" fill="url(#SVGID_32_)" width="55" height="55"/>
			<rect x="164.807" y="456.5" opacity="0.5" enable-background="new    " width="55" height="1"/>
			<rect x="164.807" y="510.5" fill="#AAAAAA" width="54.998" height="1"/>
		</g>
	</g>
	<g id="meegotouch-button-navigationbar-media-tab-background-pressed">
		<g>
			
				<linearGradient id="SVGID_33_" gradientUnits="userSpaceOnUse" x1="626.8281" y1="900" x2="626.8281" y2="955" gradientTransform="matrix(1 0 0 -1 -508 1412)">
				<stop  offset="0" style="stop-color:#9D9D9D"/>
				<stop  offset="1" style="stop-color:#8C8C8C"/>
			</linearGradient>
			<rect x="91.328" y="457" fill="url(#SVGID_33_)" width="55" height="55"/>
			<rect x="91.328" y="457" opacity="0.5" enable-background="new    " width="55" height="1"/>
			<rect x="91.328" y="511" fill="#AAAAAA" width="54.999" height="1"/>
		</g>
	</g>
	<g id="meegotouch-button-navigationbar-media-tab-background">
		<g>
			
				<linearGradient id="SVGID_34_" gradientUnits="userSpaceOnUse" x1="553.3281" y1="956.167" x2="553.3281" y2="901.167" gradientTransform="matrix(1 0 0 -1 -508 1412)">
				<stop  offset="0" style="stop-color:#BEBEBE"/>
				<stop  offset="1" style="stop-color:#9F9F9F"/>
			</linearGradient>
			<rect x="17.828" y="455.833" fill="url(#SVGID_34_)" width="55" height="55"/>
			<rect x="17.828" y="455.833" opacity="0.5" enable-background="new    " width="55" height="1"/>
			<rect x="17.828" y="509.833" fill="#8B8B8B" width="55" height="1"/>
		</g>
	</g>
	<g id="meegotouch-button-navigationbar-media-toolbarbutton-background-pressed">
		<g>
			
				<linearGradient id="btnbg-bg_5_" gradientUnits="userSpaceOnUse" x1="615.3281" y1="1147.1729" x2="615.3281" y2="1083.1729" gradientTransform="matrix(1 0 0 -1 -492 1528)">
				<stop  offset="0" style="stop-color:#5D8891"/>
				<stop  offset="1" style="stop-color:#A7D1DB"/>
			</linearGradient>
			<rect id="btnbg-bg_11_" x="91.328" y="380.827" fill="url(#btnbg-bg_5_)" stroke="#323232" width="64" height="64"/>
			
				<linearGradient id="SVGID_35_" gradientUnits="userSpaceOnUse" x1="666.334" y1="99.75" x2="638.334" y2="99.75" gradientTransform="matrix(1 0 0 1 -512 313)">
				<stop  offset="0.0028" style="stop-color:#000000"/>
				<stop  offset="1" style="stop-color:#4A4A4A;stop-opacity:0"/>
			</linearGradient>
			<rect x="126.334" y="381.25" opacity="0.08" fill="url(#SVGID_35_)" enable-background="new    " width="28" height="63"/>
			
				<rect id="btnbg-rim_8_" x="92.328" y="381.827" opacity="0.08" fill="none" stroke="#FFFFFF" stroke-width="0.9687" enable-background="new    " width="62" height="62"/>
		</g>
	</g>
	<g id="meegotouch-button-navigationbar-media-toolbarbutton-background">
		<g>
			
				<linearGradient id="btnbg-bg_12_" gradientUnits="userSpaceOnUse" x1="541.8281" y1="1147.5059" x2="541.8281" y2="1083.5059" gradientTransform="matrix(1 0 0 -1 -492 1528)">
				<stop  offset="0" style="stop-color:#4A4A4A"/>
				<stop  offset="0.9972" style="stop-color:#474747"/>
			</linearGradient>
			<rect id="btnbg-bg_10_" x="17.828" y="380.494" fill="url(#btnbg-bg_12_)" stroke="#323232" width="64" height="64"/>
			
				<linearGradient id="SVGID_36_" gradientUnits="userSpaceOnUse" x1="592.834" y1="99.417" x2="562.167" y2="99.417" gradientTransform="matrix(1 0 0 1 -512 313)">
				<stop  offset="0.0028" style="stop-color:#000000"/>
				<stop  offset="1" style="stop-color:#4A4A4A;stop-opacity:0"/>
			</linearGradient>
			<rect x="50.167" y="380.917" opacity="0.08" fill="url(#SVGID_36_)" enable-background="new    " width="30.667" height="63"/>
			
				<rect id="btnbg-rim_7_" x="18.828" y="381.494" opacity="0.08" fill="none" stroke="#FFFFFF" stroke-width="0.9687" enable-background="new    " width="62" height="62"/>
		</g>
	</g>
	<g id="meegotouch-navigationbar-media-toolbar-portrait-background">
		<g>
			
				<linearGradient id="btnbg-bg_13_" gradientUnits="userSpaceOnUse" x1="615.3281" y1="1219.8398" x2="615.3281" y2="1155.8398" gradientTransform="matrix(1 0 0 -1 -492 1528)">
				<stop  offset="0" style="stop-color:#4A4A4A"/>
				<stop  offset="0.9972" style="stop-color:#474747"/>
			</linearGradient>
			<rect id="btnbg-bg_9_" x="91.328" y="308.16" fill="url(#btnbg-bg_13_)" stroke="#323232" width="64" height="64"/>
			
				<rect id="btnbg-rim_6_" x="92.328" y="309.16" opacity="0.08" fill="none" stroke="#FFFFFF" stroke-width="0.9687" enable-background="new    " width="62" height="62"/>
		</g>
	</g>
	<g id="meegotouch-navigationbar-media-toolbar-background">
		<g>
			
				<linearGradient id="btnbg-bg_14_" gradientUnits="userSpaceOnUse" x1="541.8281" y1="1220.5059" x2="541.8281" y2="1156.5059" gradientTransform="matrix(1 0 0 -1 -492 1528)">
				<stop  offset="0" style="stop-color:#4A4A4A"/>
				<stop  offset="0.9972" style="stop-color:#474747"/>
			</linearGradient>
			<rect id="btnbg-bg_8_" x="17.828" y="307.494" fill="url(#btnbg-bg_14_)" stroke="#323232" width="64" height="64"/>
			
				<rect id="btnbg-rim_5_" x="18.828" y="308.494" opacity="0.08" fill="none" stroke="#FFFFFF" stroke-width="0.9687" enable-background="new    " width="62" height="62"/>
		</g>
	</g>
	<g id="meegotouch-button-navigationbar-media-close-background-pressed">
		<g>
			
				<linearGradient id="btnbg-bg_16_" gradientUnits="userSpaceOnUse" x1="615.3281" y1="1295.1729" x2="615.3281" y2="1231.1729" gradientTransform="matrix(1 0 0 -1 -492 1528)">
				<stop  offset="0.0028" style="stop-color:#454545"/>
				<stop  offset="1" style="stop-color:#424242"/>
			</linearGradient>
			<rect id="btnbg-bg_6_" x="91.328" y="232.827" fill="url(#btnbg-bg_16_)" stroke="#0D0E0F" width="64" height="64"/>
			
				<linearGradient id="SVGID_37_" gradientUnits="userSpaceOnUse" x1="603.4609" y1="1181.5869" x2="659.1968" y2="1112.7589" gradientTransform="matrix(1 0 0 -1 -508 1412)">
				<stop  offset="0.4783" style="stop-color:#4F4F4F"/>
				<stop  offset="0.537" style="stop-color:#474747"/>
			</linearGradient>
			<path fill="url(#SVGID_37_)" d="M154.813,296.312h-62.97v-62.97h62.97V296.312L154.813,296.312z M92.813,295.342h61.031v-61.03
				H92.813V295.342L92.813,295.342z"/>
		</g>
	</g>
	<g id="meegotouch-button-navigationbar-media-close-background">
		<g>
			
				<linearGradient id="btnbg-bg_17_" gradientUnits="userSpaceOnUse" x1="541.8281" y1="1295.8389" x2="541.8281" y2="1231.8389" gradientTransform="matrix(1 0 0 -1 -492 1528)">
				<stop  offset="0.0028" style="stop-color:#333333"/>
				<stop  offset="1" style="stop-color:#303030"/>
			</linearGradient>
			<rect id="btnbg-bg_7_" x="17.828" y="232.161" fill="url(#btnbg-bg_17_)" stroke="#0D0E0F" width="64" height="64"/>
			
				<rect id="btnbg-rim_3_" x="18.828" y="233.161" opacity="0.1" fill="none" stroke="#FFFFFF" stroke-width="0.9687" enable-background="new    " width="62" height="62"/>
		</g>
	</g>
	<g id="meegotouch-button-navigationbar-media-viewmenu-background-pressed">
		<g>
			<rect x="91.328" y="156.409" fill="#DBDBDB" width="64" height="63"/>
			
				<linearGradient id="SVGID_38_" gradientUnits="userSpaceOnUse" x1="631.3281" y1="1195.6113" x2="631.3281" y2="1191.6113" gradientTransform="matrix(1 0 0 -1 -508 1412)">
				<stop  offset="0.0028" style="stop-color:#646464"/>
				<stop  offset="0.0432" style="stop-color:#555555"/>
				<stop  offset="0.1088" style="stop-color:#444444"/>
				<stop  offset="0.1905" style="stop-color:#393939"/>
				<stop  offset="0.3052" style="stop-color:#323232"/>
				<stop  offset="0.6235" style="stop-color:#303030"/>
			</linearGradient>
			<rect x="91.328" y="216.389" fill="url(#SVGID_38_)" width="64" height="4"/>
			<rect x="91.328" y="219.389" opacity="0.66" fill="#F7F7F7" enable-background="new    " width="64" height="1"/>
			
				<line opacity="0.6" fill="none" stroke="#FFFFFF" enable-background="new    " x1="155.327" y1="215.836" x2="91.328" y2="215.836"/>
		</g>
		
			<linearGradient id="SVGID_39_" gradientUnits="userSpaceOnUse" x1="627.3281" y1="-124.5908" x2="627.3281" y2="-101.3628" gradientTransform="matrix(1 0 0 1 -504 281)">
			<stop  offset="0" style="stop-color:#141414"/>
			<stop  offset="1" style="stop-color:#F8F8F8;stop-opacity:0"/>
		</linearGradient>
		<rect x="91.328" y="156.409" opacity="0.3" fill="url(#SVGID_39_)" enable-background="new    " width="64" height="23.228"/>
	</g>
	<g id="meegotouch-button-navigationbar-media-viewmenu-background">
		<g>
			
				<linearGradient id="SVGID_40_" gradientUnits="userSpaceOnUse" x1="553.8281" y1="-124.5908" x2="553.8281" y2="-61.5908" gradientTransform="matrix(1 0 0 1 -504 281)">
				<stop  offset="0" style="stop-color:#F8F8F8"/>
				<stop  offset="1" style="stop-color:#F1F1F1"/>
			</linearGradient>
			<rect x="17.828" y="156.409" fill="url(#SVGID_40_)" width="64" height="63"/>
			
				<linearGradient id="SVGID_41_" gradientUnits="userSpaceOnUse" x1="557.8281" y1="1195.6113" x2="557.8281" y2="1191.6113" gradientTransform="matrix(1 0 0 -1 -508 1412)">
				<stop  offset="0.0028" style="stop-color:#646464"/>
				<stop  offset="0.0432" style="stop-color:#555555"/>
				<stop  offset="0.1088" style="stop-color:#444444"/>
				<stop  offset="0.1905" style="stop-color:#393939"/>
				<stop  offset="0.3052" style="stop-color:#323232"/>
				<stop  offset="0.6235" style="stop-color:#303030"/>
			</linearGradient>
			<rect x="17.828" y="216.389" fill="url(#SVGID_41_)" width="64" height="4"/>
			<rect x="17.828" y="219.389" opacity="0.66" fill="#F7F7F7" enable-background="new    " width="64" height="1"/>
			<line fill="none" stroke="#FFFFFF" x1="81.828" y1="215.836" x2="17.828" y2="215.836"/>
		</g>
		
			<linearGradient id="SVGID_42_" gradientUnits="userSpaceOnUse" x1="553.8281" y1="-124.5908" x2="553.8281" y2="-101.3628" gradientTransform="matrix(1 0 0 1 -504 281)">
			<stop  offset="0" style="stop-color:#141414"/>
			<stop  offset="1" style="stop-color:#F8F8F8;stop-opacity:0"/>
		</linearGradient>
		<rect x="17.828" y="156.409" opacity="0.3" fill="url(#SVGID_42_)" enable-background="new    " width="64" height="23.228"/>
	</g>
	<g id="meegotouch-button-navigationbar-media-home-background-pressed">
		<g>
			
				<linearGradient id="btnbg-bg_19_" gradientUnits="userSpaceOnUse" x1="615.3281" y1="1445.8398" x2="615.3281" y2="1381.8398" gradientTransform="matrix(1 0 0 -1 -492 1528)">
				<stop  offset="0.0028" style="stop-color:#454545"/>
				<stop  offset="1" style="stop-color:#424242"/>
			</linearGradient>
			<rect id="btnbg-bg_3_" x="91.328" y="82.16" fill="url(#btnbg-bg_19_)" stroke="#0D0E0F" width="64" height="64"/>
			
				<linearGradient id="SVGID_43_" gradientUnits="userSpaceOnUse" x1="603.4609" y1="1332.2539" x2="659.1968" y2="1263.4259" gradientTransform="matrix(1 0 0 -1 -508 1412)">
				<stop  offset="0.4783" style="stop-color:#4F4F4F"/>
				<stop  offset="0.537" style="stop-color:#474747"/>
			</linearGradient>
			<path fill="url(#SVGID_43_)" d="M154.813,145.646h-62.97v-62.97h62.97V145.646L154.813,145.646z M92.813,144.676h61.031v-61.03
				H92.813V144.676L92.813,144.676z"/>
		</g>
	</g>
	<g id="meegotouch-button-navigationbar-media-home-background">
		<g>
			
				<linearGradient id="btnbg-bg_20_" gradientUnits="userSpaceOnUse" x1="541.8281" y1="1445.8398" x2="541.8281" y2="1381.8398" gradientTransform="matrix(1 0 0 -1 -492 1528)">
				<stop  offset="0.0028" style="stop-color:#333333"/>
				<stop  offset="1" style="stop-color:#303030"/>
			</linearGradient>
			<rect id="btnbg-bg_2_" x="17.828" y="82.16" fill="url(#btnbg-bg_20_)" stroke="#0D0E0F" width="64" height="64"/>
			
				<rect id="btnbg-rim_2_" x="18.828" y="83.16" opacity="0.1" fill="none" stroke="#FFFFFF" stroke-width="0.9687" enable-background="new    " width="62" height="62"/>
		</g>
	</g>
</g>
</svg>
