<?xml version="1.0" encoding="utf-8"?>
<!-- Generator: Adobe Illustrator 14.0.0, SVG Export Plug-In . SVG Version: 6.00 Build 43363)  -->
<!DOCTYPE svg PUBLIC "-//W3C//DTD SVG 1.1//EN" "http://www.w3.org/Graphics/SVG/1.1/DTD/svg11.dtd">
<svg version="1.1"
	 id="svg2" xmlns:sodipodi="http://sodipodi.sourceforge.net/DTD/sodipodi-0.dtd" xmlns:svg="http://www.w3.org/2000/svg" xmlns:rdf="http://www.w3.org/1999/02/22-rdf-syntax-ns#" xmlns:inkscape="http://www.inkscape.org/namespaces/inkscape" xmlns:dc="http://purl.org/dc/elements/1.1/" xmlns:cc="http://creativecommons.org/ns#" inkscape:version="0.47pre4 r22446" sodipodi:docname="meegotouch-positionindicator.svg"
	 xmlns="http://www.w3.org/2000/svg" xmlns:xlink="http://www.w3.org/1999/xlink" x="0px" y="0px" width="200px" height="80px"
	 viewBox="0 0 200 80" enable-background="new 0 0 200 80" xml:space="preserve">
<g id="theme">
	<g id="meegotouch-positionindicator">
		<g id="MeegoTouchPositionindicatorThemeTemplateHelper">
			<g id="g8">
				<path id="path10" fill="#B3B3B3" d="M16,79C7.729,79,1,72.271,1,64V16C1,7.729,7.729,1,16,1h168c8.271,0,15,6.729,15,15v48
					c0,8.271-6.729,15-15,15H16z"/>
				<g id="g12">
					<path id="path14" d="M184,2c7.721,0,14,6.28,14,14v48c0,7.721-6.279,14-14,14H16C8.28,78,2,71.721,2,64V16C2,8.28,8.28,2,16,2
						H184 M184,0H16C7.2,0,0,7.2,0,16v48c0,8.8,7.2,16,16,16h168c8.8,0,16-7.2,16-16V16C200,7.2,192.8,0,184,0L184,0z"/>
				</g>
			</g>
			<path id="path16" fill="#010101" d="M26.465,10.711h4.051c1.6,0,2.766,0.375,3.496,1.123c0.732,0.749,1.098,1.95,1.098,3.604
				c0,1.62-0.439,2.864-1.318,3.732c-0.877,0.868-2.131,1.302-3.758,1.302H28.67V26h-2.205V10.711z M28.67,12.178v6.809h1.24
				c0.998,0,1.734-0.265,2.205-0.795c0.473-0.529,0.707-1.427,0.707-2.691s-0.217-2.135-0.65-2.609s-1.113-0.713-2.035-0.713
				L28.67,12.178L28.67,12.178z"/>
			<path id="path18" fill="#010101" d="M41.723,26.164c-1.607,0-2.809-0.526-3.609-1.579c-0.799-1.053-1.199-2.632-1.199-4.737
				c0-1.832,0.414-3.281,1.246-4.348c0.83-1.066,2.018-1.6,3.562-1.6c1.559,0,2.75,0.526,3.574,1.579
				c0.822,1.053,1.234,2.522,1.234,4.409c0,1.941-0.385,3.473-1.152,4.594C44.609,25.604,43.391,26.164,41.723,26.164z
				 M41.723,24.76c0.842,0,1.475-0.381,1.902-1.144c0.427-0.763,0.641-2.039,0.641-3.83c0-1.265-0.219-2.325-0.656-3.184
				s-1.066-1.287-1.887-1.287c-0.834,0-1.467,0.386-1.896,1.159c-0.432,0.771-0.646,1.876-0.646,3.312
				c0,1.613,0.215,2.846,0.646,3.696C40.256,24.334,40.889,24.76,41.723,24.76z"/>
			<path id="path20" fill="#010101" d="M51.299,26.164c-0.895,0-1.916-0.133-3.064-0.4v-1.568c1.23,0.335,2.201,0.502,2.912,0.502
				c0.73,0,1.281-0.151,1.65-0.456c0.369-0.304,0.553-0.761,0.553-1.368c0-0.355-0.115-0.689-0.348-1s-0.814-0.692-1.744-1.144
				c-0.594-0.287-1.076-0.559-1.445-0.815s-0.684-0.602-0.943-1.035c-0.259-0.433-0.389-0.973-0.389-1.615
				c0-1.032,0.367-1.851,1.102-2.456c0.734-0.604,1.676-0.907,2.824-0.907c1.006,0,1.914,0.127,2.729,0.379v1.498
				c-0.855-0.295-1.686-0.441-2.492-0.441c-0.67,0-1.17,0.144-1.502,0.431s-0.498,0.718-0.498,1.292
				c0,0.301,0.107,0.583,0.318,0.846c0.213,0.264,0.742,0.597,1.59,1c0.615,0.287,1.125,0.566,1.527,0.836
				c0.404,0.27,0.744,0.636,1.021,1.097c0.275,0.462,0.414,1.041,0.414,1.738c0,1.176-0.363,2.067-1.092,2.677
				C53.693,25.859,52.652,26.164,51.299,26.164z"/>
			<path id="path22" fill="#010101" d="M60.199,26h-2.184V15.5h-1.363v-1.426h3.547V26z M59.113,9.891
				c0.334,0,0.623,0.123,0.867,0.369c0.242,0.246,0.363,0.537,0.363,0.872c0,0.342-0.119,0.634-0.359,0.877
				c-0.238,0.243-0.529,0.364-0.871,0.364c-0.35,0-0.643-0.121-0.883-0.364c-0.238-0.243-0.357-0.535-0.357-0.877
				c0-0.349,0.119-0.643,0.357-0.882C58.471,10.011,58.764,9.891,59.113,9.891z"/>
			<path id="path24" fill="#010101" d="M66.352,26.164c-0.93,0-1.609-0.217-2.039-0.651c-0.432-0.434-0.646-1.126-0.646-2.076V15.5
				h-1.568v-0.82l3.188-3.25h0.564v2.645h2.902V15.5H65.85v7.578c0,0.648,0.105,1.078,0.318,1.286
				c0.211,0.209,0.533,0.313,0.963,0.313c0.445,0,1.047-0.1,1.805-0.298v1.415C68.02,26.041,67.158,26.164,66.352,26.164z"/>
			<path id="path26" fill="#010101" d="M73.1,26h-2.184V15.5h-1.363v-1.426H73.1V26z M72.014,9.891c0.334,0,0.623,0.123,0.865,0.369
				c0.242,0.246,0.365,0.537,0.365,0.872c0,0.342-0.121,0.634-0.359,0.877c-0.24,0.243-0.531,0.364-0.871,0.364
				c-0.35,0-0.645-0.121-0.883-0.364c-0.24-0.243-0.359-0.535-0.359-0.877c0-0.349,0.119-0.643,0.359-0.882
				C71.369,10.011,71.664,9.891,72.014,9.891z"/>
			<path id="path28" fill="#010101" d="M80.514,26.164c-1.607,0-2.809-0.526-3.609-1.579c-0.799-1.053-1.199-2.632-1.199-4.737
				c0-1.832,0.414-3.281,1.246-4.348c0.83-1.066,2.018-1.6,3.562-1.6c1.559,0,2.75,0.526,3.574,1.579
				c0.822,1.053,1.234,2.522,1.234,4.409c0,1.941-0.385,3.473-1.152,4.594C83.4,25.604,82.182,26.164,80.514,26.164z M80.514,24.76
				c0.842,0,1.475-0.381,1.902-1.144c0.427-0.763,0.641-2.039,0.641-3.83c0-1.265-0.219-2.325-0.656-3.184s-1.066-1.287-1.887-1.287
				c-0.834,0-1.467,0.386-1.896,1.159c-0.432,0.771-0.646,1.876-0.646,3.312c0,1.613,0.215,2.846,0.646,3.696
				C79.047,24.334,79.68,24.76,80.514,24.76z"/>
			<path id="path30" fill="#010101" d="M96.551,26h-2.184v-7.916c0-0.896-0.158-1.566-0.473-2.015
				c-0.315-0.449-0.785-0.672-1.414-0.672c-0.793,0-1.408,0.301-1.846,0.902c-0.438,0.601-0.656,1.384-0.656,2.349V26h-2.186V14.074
				h1.221l0.441,1.764c0.758-1.291,1.914-1.938,3.465-1.938c1.211,0,2.119,0.318,2.723,0.953c0.605,0.637,0.908,1.586,0.908,2.852
				L96.551,26L96.551,26z"/>
			<path id="path32" fill="#010101" d="M106.969,26h-2.184V15.5h-1.363v-1.426h3.547V26z M105.883,9.891
				c0.334,0,0.623,0.123,0.865,0.369c0.242,0.246,0.365,0.537,0.365,0.872c0,0.342-0.121,0.634-0.359,0.877
				c-0.24,0.243-0.531,0.364-0.871,0.364c-0.35,0-0.645-0.121-0.883-0.364c-0.24-0.243-0.359-0.535-0.359-0.877
				c0-0.349,0.119-0.643,0.359-0.882C105.238,10.011,105.533,9.891,105.883,9.891z"/>
			<path id="path34" fill="#010101" d="M118.834,26h-2.186v-7.916c0-0.896-0.156-1.566-0.473-2.015
				c-0.314-0.449-0.785-0.672-1.414-0.672c-0.795,0-1.408,0.301-1.848,0.902c-0.438,0.601-0.656,1.384-0.656,2.349V26h-2.184V14.074
				h1.221l0.439,1.764c0.76-1.291,1.912-1.938,3.467-1.938c1.211,0,2.115,0.318,2.723,0.953c0.604,0.637,0.908,1.586,0.908,2.852
				L118.834,26L118.834,26z"/>
			<path id="path36" fill="#010101" d="M129.23,26l-0.461-1.467c-0.631,1.088-1.707,1.631-3.23,1.631c-1.416,0-2.48-0.5-3.195-1.502
				c-0.713-1.002-1.07-2.565-1.07-4.691c0-1.784,0.381-3.242,1.145-4.373c0.764-1.131,1.844-1.697,3.246-1.697
				c1.146,0,2.01,0.346,2.584,1.035V9.768h2.186V26H129.23z M128.318,20.565l-0.012-0.677c0-1.777-0.199-2.977-0.602-3.6
				c-0.398-0.621-0.971-0.933-1.707-0.933c-0.818,0-1.438,0.38-1.848,1.138c-0.408,0.76-0.613,1.897-0.613,3.415
				c0,1.593,0.195,2.786,0.596,3.579c0.396,0.793,0.99,1.189,1.783,1.189c0.771,0,1.365-0.287,1.777-0.861
				C128.109,23.241,128.318,22.158,128.318,20.565z"/>
			<path id="path38" fill="#010101" d="M135.916,26h-2.184V15.5h-1.363v-1.426h3.547V26L135.916,26z M134.83,9.891
				c0.334,0,0.623,0.123,0.865,0.369c0.242,0.246,0.365,0.537,0.365,0.872c0,0.342-0.121,0.634-0.359,0.877
				c-0.24,0.243-0.531,0.364-0.871,0.364c-0.35,0-0.645-0.121-0.883-0.364c-0.24-0.243-0.359-0.535-0.359-0.877
				c0-0.349,0.119-0.643,0.359-0.882C134.186,10.011,134.48,9.891,134.83,9.891z"/>
			<path id="path40" fill="#010101" d="M143.434,26.164c-1.621,0-2.846-0.531-3.672-1.595c-0.828-1.062-1.24-2.623-1.24-4.681
				c0-1.914,0.445-3.391,1.338-4.43c0.895-1.039,2.189-1.559,3.893-1.559c0.664,0,1.336,0.086,2.021,0.256v1.487
				c-0.521-0.164-1.166-0.246-1.938-0.246c-0.998,0-1.754,0.398-2.271,1.194c-0.518,0.797-0.773,1.909-0.773,3.338
				c0,1.538,0.258,2.714,0.773,3.527c0.518,0.813,1.271,1.221,2.271,1.221c0.86,0,1.535-0.079,2.021-0.236v1.415
				C145.121,26.062,144.314,26.164,143.434,26.164z"/>
			<path id="path42" fill="#010101" d="M153.861,24.277c-0.738,1.258-1.887,1.887-3.445,1.887c-1.088,0-1.934-0.306-2.539-0.918
				c-0.604-0.611-0.906-1.468-0.906-2.568c0-1.135,0.313-1.979,0.934-2.538c0.621-0.557,1.365-0.905,2.234-1.046
				c0.867-0.14,1.924-0.21,3.168-0.21v-1.405c0-1.387-0.742-2.081-2.225-2.081c-0.855,0-1.896,0.181-3.127,0.544v-1.528
				c1.236-0.342,2.412-0.513,3.527-0.513c1.312,0,2.309,0.316,2.986,0.948c0.682,0.633,1.021,1.563,1.021,2.794V26h-1.189
				L153.861,24.277z M153.307,20.186h-1.219c-0.979,0-1.711,0.207-2.201,0.621c-0.488,0.414-0.732,1.03-0.732,1.851
				c0,0.67,0.148,1.171,0.445,1.502c0.299,0.332,0.744,0.497,1.34,0.497c0.75,0,1.334-0.238,1.748-0.717
				c0.412-0.479,0.619-1.129,0.619-1.949V20.186L153.307,20.186z"/>
			<path id="path44" fill="#010101" d="M161.479,26.164c-0.93,0-1.607-0.217-2.039-0.651s-0.646-1.126-0.646-2.076V15.5h-1.567
				v-0.82l3.188-3.25h0.563v2.645h2.901V15.5h-2.901v7.578c0,0.648,0.104,1.078,0.317,1.286c0.211,0.209,0.533,0.313,0.963,0.313
				c0.445,0,1.048-0.1,1.806-0.298v1.415C163.146,26.041,162.285,26.164,161.479,26.164z"/>
			<path id="path46" fill="#010101" d="M169.867,26.164c-1.607,0-2.809-0.526-3.609-1.579c-0.799-1.053-1.199-2.632-1.199-4.737
				c0-1.832,0.414-3.281,1.246-4.348c0.83-1.066,2.02-1.6,3.563-1.6c1.56,0,2.75,0.526,3.573,1.579
				c0.822,1.053,1.233,2.522,1.233,4.409c0,1.941-0.385,3.473-1.151,4.594C172.754,25.604,171.535,26.164,169.867,26.164z
				 M169.867,24.76c0.842,0,1.475-0.381,1.902-1.144c0.426-0.763,0.641-2.039,0.641-3.83c0-1.265-0.219-2.325-0.656-3.184
				s-1.066-1.287-1.887-1.287c-0.834,0-1.467,0.386-1.896,1.159c-0.432,0.771-0.646,1.876-0.646,3.312
				c0,1.613,0.215,2.846,0.646,3.696C168.4,24.334,169.033,24.76,169.867,24.76z"/>
			<path id="path48" fill="#010101" d="M178.367,14.074l0.502,1.99c0.664-1.402,1.818-2.103,3.467-2.103
				c0.219,0,0.379,0.011,0.482,0.03v1.99c-0.172-0.014-0.428-0.021-0.771-0.021c-0.938,0-1.623,0.225-2.063,0.672
				c-0.438,0.448-0.654,1.146-0.654,2.098V26h-2.188V14.074H178.367z"/>
		</g>
		<g id="meegotouch-positionindicator-background">
			<rect x="29" y="54.167" opacity="0.2" enable-background="new    " width="10" height="10"/>
		</g>
		<g id="meegotouch-positionindicator-indicator" opacity="0.6" enable-background="new    ">
			<rect x="29" y="37.832" fill="#FFFFFF" width="10" height="10.001"/>
		</g>
	</g>
</g>
</svg>
