<?xml version="1.0" encoding="utf-8"?>
<!-- Generator: Adobe Illustrator 14.0.0, SVG Export Plug-In . SVG Version: 6.00 Build 43363)  -->
<!DOCTYPE svg PUBLIC "-//W3C//DTD SVG 1.1//EN" "http://www.w3.org/Graphics/SVG/1.1/DTD/svg11.dtd">
<svg version="1.1" id="Layer_1" xmlns="http://www.w3.org/2000/svg" xmlns:xlink="http://www.w3.org/1999/xlink" x="0px" y="0px"
	 width="370px" height="360px" viewBox="0 0 370 360" enable-background="new 0 0 370 360" xml:space="preserve">
<g id="meegotouch-speechbubble-layer">
</g>
<g id="theme">
	<g id="meegotouch-speechbubble">
		<g id="MeegotouchSpeechBubbleThemeTemplateHelper">
			<g>
				<path fill="#B3B3B3" d="M16,359c-8.271,0-15-6.729-15-15V16C1,7.729,7.729,1,16,1h338c8.271,0,15,6.729,15,15v328
					c0,8.271-6.729,15-15,15H16z"/>
				<g>
					<path d="M354,2c7.72,0,14,6.28,14,14v328c0,7.721-6.28,14-14,14H16c-7.72,0-14-6.279-14-14V16C2,8.28,8.28,2,16,2H354 M354,0
						H16C7.2,0,0,7.2,0,16v328c0,8.8,7.2,16,16,16h338c8.8,0,16-7.2,16-16V16C370,7.2,362.8,0,354,0L354,0z"/>
				</g>
			</g>
			<path d="M97.975,33.396c-1.172,0-2.34-0.16-3.504-0.48V31.1c1.281,0.367,2.426,0.551,3.434,0.551
				c1.078,0,1.932-0.242,2.561-0.727c0.629-0.485,0.943-1.18,0.943-2.086c0-0.578-0.123-1.068-0.369-1.471
				c-0.246-0.403-0.564-0.744-0.955-1.025c-0.391-0.281-0.957-0.637-1.699-1.066c-0.883-0.508-1.58-0.959-2.092-1.354
				c-0.512-0.395-0.939-0.898-1.283-1.512c-0.344-0.614-0.516-1.357-0.516-2.232c0-1.484,0.494-2.627,1.482-3.428
				c0.988-0.801,2.334-1.201,4.037-1.201c1.117,0,2.164,0.117,3.141,0.352v1.758c-1.094-0.242-2.086-0.363-2.977-0.363
				c-0.93,0-1.686,0.225-2.268,0.674c-0.582,0.449-0.873,1.072-0.873,1.869c0,0.516,0.154,1.008,0.463,1.477
				c0.309,0.469,1.146,1.102,2.514,1.898c0.891,0.516,1.592,0.969,2.104,1.359c0.512,0.39,0.945,0.891,1.301,1.5
				c0.356,0.609,0.533,1.34,0.533,2.191C103.951,31.685,101.959,33.396,97.975,33.396z"/>
			<path d="M107.76,19.579l0.504,1.945c0.492-0.727,1.039-1.266,1.641-1.617c0.602-0.351,1.367-0.527,2.297-0.527
				c1.508,0,2.641,0.568,3.398,1.705c0.757,1.137,1.137,2.842,1.137,5.115c0,2.25-0.518,4.004-1.553,5.262s-2.525,1.887-4.471,1.887
				c-0.516,0-1.133-0.086-1.852-0.258v4.031h-2.496V19.579H107.76z M108.861,25.673v5.637c0.602,0.227,1.234,0.34,1.898,0.34
				c1.125,0,1.971-0.391,2.537-1.172s0.85-2.246,0.85-4.395c0-1.664-0.211-2.912-0.633-3.744c-0.422-0.832-1.051-1.248-1.887-1.248
				c-0.906,0-1.594,0.35-2.062,1.049C109.096,22.839,108.861,24.017,108.861,25.673z"/>
			<path d="M128.49,31.122v1.699c-1.227,0.383-2.496,0.574-3.809,0.574c-1.906,0-3.332-0.574-4.277-1.723
				c-0.945-1.149-1.418-2.918-1.418-5.309c0-2.102,0.457-3.791,1.371-5.068c0.914-1.277,2.219-1.916,3.914-1.916
				c1.375,0,2.408,0.365,3.1,1.096s1.135,1.625,1.33,2.684c0.195,1.059,0.293,2.318,0.293,3.779h-7.359
				c0,1.586,0.281,2.775,0.844,3.568s1.406,1.189,2.531,1.189C125.963,31.696,127.123,31.505,128.49,31.122z M121.635,25.403h4.91
				c0-1.648-0.195-2.812-0.586-3.492c-0.391-0.68-0.953-1.02-1.688-1.02c-0.82,0-1.447,0.352-1.881,1.055
				C121.956,22.649,121.705,23.802,121.635,25.403z"/>
			<path d="M140.701,31.122v1.699c-1.227,0.383-2.496,0.574-3.809,0.574c-1.906,0-3.332-0.574-4.277-1.723
				c-0.945-1.149-1.418-2.918-1.418-5.309c0-2.102,0.457-3.791,1.371-5.068c0.914-1.277,2.219-1.916,3.914-1.916
				c1.375,0,2.408,0.365,3.1,1.096s1.135,1.625,1.33,2.684c0.195,1.059,0.293,2.318,0.293,3.779h-7.359
				c0,1.586,0.281,2.775,0.844,3.568s1.406,1.189,2.531,1.189C138.174,31.696,139.334,31.505,140.701,31.122z M133.846,25.403h4.91
				c0-1.648-0.195-2.812-0.586-3.492c-0.391-0.68-0.953-1.02-1.688-1.02c-0.82,0-1.447,0.352-1.881,1.055
				C134.167,22.649,133.916,23.802,133.846,25.403z"/>
			<path d="M149.021,33.396c-1.852,0-3.25-0.607-4.195-1.822c-0.945-1.215-1.418-2.998-1.418-5.35c0-2.188,0.51-3.875,1.529-5.062
				s2.502-1.781,4.447-1.781c0.758,0,1.527,0.098,2.309,0.293v1.699c-0.594-0.188-1.332-0.281-2.215-0.281
				c-1.141,0-2.006,0.455-2.596,1.365c-0.59,0.91-0.885,2.182-0.885,3.814c0,1.758,0.295,3.102,0.885,4.031
				c0.59,0.929,1.455,1.396,2.596,1.396c0.984,0,1.754-0.09,2.309-0.271v1.617C150.951,33.278,150.029,33.396,149.021,33.396z"/>
			<path d="M164.021,33.208h-2.496v-9.27c0-0.945-0.18-1.656-0.539-2.133c-0.359-0.477-0.898-0.715-1.617-0.715
				c-0.906,0-1.609,0.344-2.109,1.031s-0.75,1.582-0.75,2.684v8.402h-2.496v-18.55h2.496v6.234c0.867-1.008,1.988-1.512,3.363-1.512
				c1.383,0,2.42,0.369,3.111,1.107c0.691,0.738,1.037,1.842,1.037,3.311V33.208L164.021,33.208z"/>
			<path d="M175.564,14.657v6.188c0.891-0.977,1.996-1.465,3.316-1.465c1.523,0,2.668,0.562,3.434,1.688s1.148,2.812,1.148,5.062
				s-0.516,4.012-1.547,5.285c-1.031,1.273-2.449,1.91-4.254,1.91c-1.773,0-3.305-0.078-4.594-0.234V14.657H175.564z
				 M175.564,26.341v5.168c0.727,0.094,1.375,0.141,1.945,0.141c1.148,0,1.996-0.42,2.543-1.26c0.547-0.84,0.82-2.283,0.82-4.33
				c0-1.656-0.215-2.898-0.645-3.727s-1.07-1.242-1.922-1.242c-0.828,0-1.441,0.25-1.84,0.75c-0.399,0.5-0.648,1.107-0.75,1.822
				S175.564,25.271,175.564,26.341z"/>
			<path d="M190.4,33.396c-1.392,0-2.433-0.361-3.123-1.084c-0.691-0.723-1.037-1.807-1.037-3.252v-9.48h2.496v9.047
				c0,1.023,0.18,1.791,0.539,2.303c0.358,0.512,0.901,0.768,1.629,0.768c0.906,0,1.606-0.344,2.104-1.031s0.744-1.582,0.744-2.684
				v-8.402h2.496V33.21h-1.383l-0.504-2.016C193.494,32.661,192.174,33.396,190.4,33.396z"/>
			<path d="M202.154,14.657v6.188c0.891-0.977,1.996-1.465,3.316-1.465c1.522,0,2.668,0.562,3.434,1.688s1.147,2.812,1.147,5.062
				s-0.516,4.012-1.547,5.285c-1.03,1.273-2.448,1.91-4.254,1.91c-1.772,0-3.306-0.078-4.594-0.234V14.657H202.154z M202.154,26.341
				v5.168c0.727,0.094,1.375,0.141,1.945,0.141c1.147,0,1.996-0.42,2.543-1.26c0.547-0.84,0.819-2.283,0.819-4.33
				c0-1.656-0.215-2.898-0.646-3.727c-0.43-0.829-1.069-1.242-1.922-1.242c-0.828,0-1.44,0.25-1.84,0.75
				c-0.398,0.5-0.647,1.107-0.75,1.822C202.203,24.378,202.154,25.271,202.154,26.341z"/>
			<path d="M215.373,14.657v6.188c0.891-0.977,1.996-1.465,3.316-1.465c1.522,0,2.668,0.562,3.434,1.688s1.148,2.812,1.148,5.062
				s-0.517,4.012-1.547,5.285c-1.031,1.273-2.449,1.91-4.254,1.91c-1.773,0-3.306-0.078-4.595-0.234V14.657H215.373z
				 M215.373,26.341v5.168c0.727,0.094,1.375,0.141,1.945,0.141c1.147,0,1.996-0.42,2.543-1.26c0.547-0.84,0.82-2.283,0.82-4.33
				c0-1.656-0.216-2.898-0.646-3.727c-0.431-0.829-1.07-1.242-1.922-1.242c-0.828,0-1.441,0.25-1.841,0.75
				c-0.398,0.5-0.647,1.107-0.75,1.822C215.422,24.378,215.373,25.271,215.373,26.341z"/>
			<path d="M226.096,33.208V14.657h2.496v18.551H226.096z"/>
			<path d="M240.932,31.122v1.699c-1.227,0.383-2.496,0.574-3.809,0.574c-1.906,0-3.332-0.574-4.277-1.723s-1.418-2.918-1.418-5.309
				c0-2.102,0.457-3.791,1.371-5.068c0.914-1.277,2.219-1.916,3.914-1.916c1.375,0,2.408,0.365,3.1,1.096
				c0.692,0.731,1.136,1.625,1.33,2.684c0.195,1.059,0.293,2.318,0.293,3.779h-7.358c0,1.586,0.28,2.775,0.844,3.568
				s1.406,1.189,2.531,1.189C238.404,31.696,239.564,31.505,240.932,31.122z M234.076,25.403h4.91c0-1.648-0.195-2.812-0.586-3.492
				c-0.392-0.68-0.953-1.02-1.688-1.02c-0.819,0-1.446,0.352-1.881,1.055C234.396,22.649,234.146,23.802,234.076,25.403z"/>
		</g>
		<g id="meegotouch-speechbubble-outgoing-chat-mirrored-background-pressed">
			<g>
				
					<linearGradient id="SVGID_1_" gradientUnits="userSpaceOnUse" x1="336" y1="492.333" x2="336" y2="556.333" gradientTransform="matrix(1 0 0 1 -62 -213)">
					<stop  offset="0" style="stop-color:#A3D0DA"/>
					<stop  offset="1" style="stop-color:#99C6CF"/>
				</linearGradient>
				<rect x="242" y="279.333" fill="url(#SVGID_1_)" width="64" height="64"/>
				<rect x="242" y="342.333" fill="#74959C" width="64" height="1"/>
				<rect x="242" y="279.333" opacity="0.2" fill="#FFFFFF" enable-background="new    " width="64" height="1"/>
			</g>
		</g>
		<g id="meegotouch-speechbubble-outgoing-chat-mirrored-background">
			<g>
				<rect x="169.667" y="281.333" fill="#A0A0A0" width="64" height="62"/>
				<rect x="169.667" y="279.333" fill="#FFFFFF" width="64" height="62"/>
				
					<linearGradient id="SVGID_2_" gradientUnits="userSpaceOnUse" x1="267.667" y1="115.667" x2="267.667" y2="53.667" gradientTransform="matrix(1 0 0 -1 -66 396)">
					<stop  offset="0" style="stop-color:#F8F8F8"/>
					<stop  offset="1" style="stop-color:#F1F1F1"/>
				</linearGradient>
				<rect x="169.667" y="280.333" fill="url(#SVGID_2_)" width="64" height="62"/>
			</g>
		</g>
		<g id="meegotouch-speechbubble-outgoing-chat-background-pressed">
			<g>
				
					<linearGradient id="SVGID_3_" gradientUnits="userSpaceOnUse" x1="336" y1="417.5693" x2="336" y2="481.5693" gradientTransform="matrix(1 0 0 1 -62 -213)">
					<stop  offset="0" style="stop-color:#A3D0DA"/>
					<stop  offset="1" style="stop-color:#99C6CF"/>
				</linearGradient>
				<rect x="242" y="204.569" fill="url(#SVGID_3_)" width="64" height="64"/>
				<rect x="242" y="267.569" fill="#74959C" width="64" height="1"/>
				<rect x="242" y="204.569" opacity="0.2" fill="#FFFFFF" enable-background="new    " width="64" height="1"/>
			</g>
		</g>
		<g id="meegotouch-speechbubble-outgoing-chat-background">
			<g>
				<rect x="169.667" y="206.569" fill="#A0A0A0" width="64" height="62"/>
				<rect x="169.667" y="204.569" fill="#FFFFFF" width="64" height="62"/>
				
					<linearGradient id="SVGID_4_" gradientUnits="userSpaceOnUse" x1="267.667" y1="190.4307" x2="267.667" y2="128.4312" gradientTransform="matrix(1 0 0 -1 -66 396)">
					<stop  offset="0" style="stop-color:#F8F8F8"/>
					<stop  offset="1" style="stop-color:#F1F1F1"/>
				</linearGradient>
				<rect x="169.667" y="205.569" fill="url(#SVGID_4_)" width="64" height="62"/>
			</g>
		</g>
		<g id="meegotouch-speechbubble-outgoing-mirrored-background-pressed">
			<g>
				
					<linearGradient id="SVGID_5_" gradientUnits="userSpaceOnUse" x1="336" y1="342.7354" x2="336" y2="406.7354" gradientTransform="matrix(1 0 0 1 -62 -213)">
					<stop  offset="0" style="stop-color:#A3D0DA"/>
					<stop  offset="1" style="stop-color:#99C6CF"/>
				</linearGradient>
				<rect x="242" y="129.736" fill="url(#SVGID_5_)" width="64" height="64"/>
				<rect x="242" y="192.735" fill="#74959C" width="64" height="1"/>
				<rect x="242" y="129.736" opacity="0.2" fill="#FFFFFF" enable-background="new    " width="64" height="1"/>
			</g>
		</g>
		<g id="meegotouch-speechbubble-outgoing-mirrored-background">
			<g>
				<rect x="169.667" y="131.736" fill="#A0A0A0" width="63.999" height="62"/>
				<rect x="169.667" y="129.736" fill="#EDEDED" width="63.999" height="62"/>
				<linearGradient id="SVGID_6_" gradientUnits="userSpaceOnUse" x1="201.667" y1="130.7358" x2="201.667" y2="192.7358">
					<stop  offset="0" style="stop-color:#DBDBDB"/>
					<stop  offset="1" style="stop-color:#D9D9D9"/>
				</linearGradient>
				<rect x="169.667" y="130.736" fill="url(#SVGID_6_)" width="63.999" height="62"/>
			</g>
		</g>
		<g id="meegotouch-speechbubble-outgoing-background-pressed">
			<g>
				
					<linearGradient id="SVGID_7_" gradientUnits="userSpaceOnUse" x1="336" y1="268.041" x2="336" y2="332.041" gradientTransform="matrix(1 0 0 1 -62 -213)">
					<stop  offset="0" style="stop-color:#A3D0DA"/>
					<stop  offset="1" style="stop-color:#99C6CF"/>
				</linearGradient>
				<rect x="242" y="55.041" fill="url(#SVGID_7_)" width="64" height="64"/>
				<rect x="242" y="118.041" fill="#74959C" width="64" height="1"/>
				<rect x="242" y="55.041" opacity="0.2" fill="#FFFFFF" enable-background="new    " width="64" height="1"/>
			</g>
		</g>
		<g id="meegotouch-speechbubble-outgoing-background">
			<g>
				<rect x="169.667" y="57.041" fill="#A0A0A0" width="64" height="62"/>
				<rect x="169.667" y="55.041" fill="#EDEDED" width="64" height="62"/>
				<linearGradient id="SVGID_8_" gradientUnits="userSpaceOnUse" x1="201.667" y1="56.041" x2="201.667" y2="118.041">
					<stop  offset="0" style="stop-color:#DBDBDB"/>
					<stop  offset="1" style="stop-color:#D9D9D9"/>
				</linearGradient>
				<rect x="169.667" y="56.041" fill="url(#SVGID_8_)" width="64" height="62"/>
			</g>
		</g>
		<g id="meegotouch-speechbubble-incoming-mirrored-background-pressed">
			<g>
				
					<linearGradient id="SVGID_9_" gradientUnits="userSpaceOnUse" x1="190" y1="342.7354" x2="190" y2="406.7354" gradientTransform="matrix(1 0 0 1 -62 -213)">
					<stop  offset="0" style="stop-color:#A3D0DA"/>
					<stop  offset="1" style="stop-color:#99C6CF"/>
				</linearGradient>
				<rect x="96" y="129.736" fill="url(#SVGID_9_)" width="64" height="64"/>
				<rect x="96" y="192.735" fill="#74959C" width="64" height="1"/>
				<rect x="96" y="129.736" opacity="0.2" fill="#FFFFFF" enable-background="new    " width="64" height="1"/>
			</g>
		</g>
		<g id="meegotouch-speechbubble-incoming-mirrored-background">
			<g>
				<rect x="19.5" y="131.736" fill="#A0A0A0" width="64" height="62"/>
				<rect x="19.5" y="129.736" fill="#FFFFFF" width="64" height="62"/>
				
					<linearGradient id="SVGID_10_" gradientUnits="userSpaceOnUse" x1="117.5" y1="265.2646" x2="117.5" y2="203.2646" gradientTransform="matrix(1 0 0 -1 -66 396)">
					<stop  offset="0" style="stop-color:#F8F8F8"/>
					<stop  offset="1" style="stop-color:#F1F1F1"/>
				</linearGradient>
				<rect x="19.5" y="130.736" fill="url(#SVGID_10_)" width="64" height="62"/>
			</g>
		</g>
		<g id="meegotouch-speechbubble-incoming-background-pressed">
			<g>
				
					<linearGradient id="SVGID_11_" gradientUnits="userSpaceOnUse" x1="190" y1="268.041" x2="190" y2="332.041" gradientTransform="matrix(1 0 0 1 -62 -213)">
					<stop  offset="0" style="stop-color:#A3D0DA"/>
					<stop  offset="1" style="stop-color:#99C6CF"/>
				</linearGradient>
				<rect x="96" y="55.041" fill="url(#SVGID_11_)" width="64" height="64"/>
				<rect x="96" y="118.041" fill="#74959C" width="64" height="1"/>
				<rect x="96" y="55.041" opacity="0.2" fill="#FFFFFF" enable-background="new    " width="64" height="1"/>
			</g>
		</g>
		<g id="meegotouch-speechbubble-incoming-background">
			<g>
				<rect x="19.5" y="57.041" fill="#A0A0A0" width="64" height="62"/>
				<rect x="19.5" y="55.041" fill="#FFFFFF" width="64" height="62"/>
				
					<linearGradient id="SVGID_12_" gradientUnits="userSpaceOnUse" x1="117.5" y1="339.959" x2="117.5" y2="277.959" gradientTransform="matrix(1 0 0 -1 -66 396)">
					<stop  offset="0" style="stop-color:#F8F8F8"/>
					<stop  offset="1" style="stop-color:#F1F1F1"/>
				</linearGradient>
				<rect x="19.5" y="56.041" fill="url(#SVGID_12_)" width="64" height="62"/>
			</g>
		</g>
	</g>
</g>
</svg>
