<?xml version="1.0" encoding="utf-8"?>
<!-- Generator: Adobe Illustrator 14.0.0, SVG Export Plug-In . SVG Version: 6.00 Build 43363)  -->
<!DOCTYPE svg PUBLIC "-//W3C//DTD SVG 1.1//EN" "http://www.w3.org/Graphics/SVG/1.1/DTD/svg11.dtd">
<svg version="1.1" id="Layer_1" xmlns="http://www.w3.org/2000/svg" xmlns:xlink="http://www.w3.org/1999/xlink" x="0px" y="0px"
	 width="200px" height="300px" viewBox="0 0 200 300" enable-background="new 0 0 200 300" xml:space="preserve">
<g id="meegotouch-progressindicator-layer">
</g>
<g id="theme">
	<g id="meegotouch-progressindicator">
		<g id="MeegoTouchProgressindicatorThemeTemplateHelper">
			<g>
				<path fill="#B3B3B3" d="M16,300c-8.271,0-15-6.729-15-15V17C1,8.729,7.729,2,16,2h168c8.271,0,15,6.729,15,15v268
					c0,8.271-6.729,15-15,15H16z"/>
				<g>
					<path d="M184,3c7.721,0,14,6.28,14,14v268c0,7.721-6.279,14-14,14H16c-7.72,0-14-6.279-14-14V17C2,9.28,8.28,3,16,3H184 M184,1
						H16C7.2,1,0,8.2,0,17v268c0,8.8,7.2,16,16,16h168c8.8,0,16-7.2,16-16V17C200,8.2,192.8,1,184,1L184,1z"/>
				</g>
			</g>
			<path fill="#010101" d="M68.143,23.408l0.441,1.701c0.43-0.635,0.908-1.107,1.436-1.414c0.525-0.309,1.195-0.462,2.01-0.462
				c1.318,0,2.31,0.497,2.974,1.492c0.662,0.994,0.994,2.486,0.994,4.476c0,1.969-0.453,3.504-1.356,4.604
				c-0.906,1.102-2.211,1.651-3.912,1.651c-0.451,0-0.992-0.075-1.621-0.226v3.527h-2.185v-15.35L68.143,23.408L68.143,23.408z
				 M69.105,28.74v4.932c0.526,0.198,1.08,0.297,1.662,0.297c0.983,0,1.725-0.342,2.219-1.025c0.496-0.684,0.744-1.965,0.744-3.845
				c0-1.456-0.185-2.548-0.553-3.276c-0.369-0.729-0.921-1.092-1.652-1.092c-0.793,0-1.396,0.307-1.805,0.918
				C69.311,26.26,69.105,27.291,69.105,28.74z"/>
			<path fill="#010101" d="M79.688,23.408l0.502,1.988c0.664-1.4,1.818-2.102,3.468-2.102c0.219,0,0.379,0.01,0.481,0.031v1.988
				c-0.172-0.014-0.428-0.02-0.77-0.02c-0.938,0-1.623,0.224-2.061,0.671c-0.438,0.448-0.656,1.147-0.656,2.097v7.271h-2.187V23.408
				H79.688z"/>
			<path fill="#010101" d="M89.973,35.497c-1.606,0-2.809-0.526-3.609-1.579c-0.799-1.053-1.198-2.632-1.198-4.737
				c0-1.832,0.414-3.281,1.246-4.348c0.83-1.066,2.019-1.6,3.562-1.6c1.56,0,2.751,0.526,3.574,1.579
				c0.822,1.053,1.233,2.522,1.233,4.409c0,1.941-0.385,3.473-1.151,4.594C92.858,34.937,91.642,35.497,89.973,35.497z
				 M89.973,34.092c0.843,0,1.476-0.381,1.902-1.143c0.427-0.762,0.642-2.039,0.642-3.83c0-1.265-0.22-2.326-0.656-3.184
				c-0.438-0.858-1.066-1.287-1.888-1.287c-0.834,0-1.467,0.387-1.896,1.158c-0.433,0.773-0.646,1.877-0.646,3.312
				c0,1.613,0.215,2.846,0.646,3.696C88.506,33.667,89.139,34.092,89.973,34.092z"/>
			<path fill="#010101" d="M104.123,24.854l0.461-1.445h1.221V34.77c0,1.285-0.396,2.281-1.195,2.988
				c-0.797,0.708-1.889,1.062-3.271,1.062c-1.137,0-2.424-0.181-3.866-0.544v-1.537c1.504,0.361,2.706,0.543,3.608,0.543
				c0.787,0,1.358-0.146,1.729-0.436c0.359-0.291,0.592-0.67,0.683-1.139c0.089-0.468,0.134-1.133,0.134-1.994v-0.308
				c-0.58,0.834-1.512,1.251-2.789,1.251c-1.358,0-2.381-0.47-3.062-1.41c-0.68-0.939-1.02-2.35-1.02-4.229
				c0-1.798,0.375-3.211,1.127-4.24c0.752-1.028,1.84-1.543,3.264-1.543C102.506,23.233,103.5,23.773,104.123,24.854z
				 M101.334,33.17c0.758,0,1.336-0.272,1.732-0.815c0.396-0.544,0.594-1.714,0.594-3.513c0-1.381-0.186-2.418-0.559-3.111
				s-0.936-1.041-1.666-1.041c-0.787,0-1.395,0.297-1.799,0.893c-0.414,0.594-0.621,1.682-0.621,3.26
				c0,1.443,0.192,2.525,0.58,3.246C99.98,32.809,100.561,33.17,101.334,33.17z"/>
			<path fill="#010101" d="M109.998,23.408l0.502,1.988c0.662-1.4,1.818-2.102,3.467-2.102c0.217,0,0.379,0.01,0.48,0.031v1.988
				c-0.17-0.014-0.428-0.02-0.768-0.02c-0.938,0-1.625,0.224-2.063,0.671c-0.438,0.448-0.656,1.147-0.656,2.097v7.271h-2.185V23.408
				H109.998z"/>
			<path fill="#010101" d="M123.789,33.508v1.486c-1.074,0.336-2.184,0.503-3.332,0.503c-1.668,0-2.916-0.503-3.744-1.507
				c-0.826-1.006-1.24-2.554-1.24-4.646c0-1.839,0.4-3.317,1.199-4.435c0.801-1.118,1.941-1.677,3.426-1.677
				c1.203,0,2.107,0.319,2.713,0.959c0.604,0.64,0.992,1.422,1.162,2.348c0.172,0.927,0.258,2.028,0.258,3.308h-6.438
				c0,1.387,0.246,2.428,0.736,3.122c0.492,0.694,1.229,1.04,2.217,1.04C121.578,34.01,122.592,33.843,123.789,33.508z
				 M117.791,28.504h4.295c0-1.442-0.17-2.461-0.512-3.056c-0.342-0.595-0.834-0.892-1.477-0.892c-0.727,0-1.271,0.307-1.646,0.922
				C118.072,26.094,117.852,27.103,117.791,28.504z"/>
			<path fill="#010101" d="M128.957,35.497c-0.896,0-1.918-0.134-3.066-0.399v-1.569c1.23,0.335,2.201,0.503,2.912,0.503
				c0.732,0,1.283-0.152,1.652-0.457c0.369-0.304,0.553-0.76,0.553-1.369c0-0.355-0.117-0.688-0.348-0.999
				c-0.234-0.312-0.814-0.692-1.744-1.144c-0.594-0.287-1.076-0.559-1.445-0.815s-0.684-0.601-0.943-1.035
				c-0.258-0.434-0.391-0.973-0.391-1.615c0-1.032,0.367-1.851,1.104-2.456c0.733-0.604,1.676-0.907,2.823-0.907
				c1.006,0,1.914,0.126,2.729,0.38v1.496c-0.854-0.293-1.688-0.44-2.492-0.44c-0.67,0-1.172,0.144-1.502,0.431
				c-0.332,0.287-0.498,0.718-0.498,1.292c0,0.301,0.104,0.583,0.318,0.846c0.211,0.264,0.738,0.597,1.59,1
				c0.615,0.287,1.123,0.565,1.525,0.836c0.396,0.271,0.742,0.636,1.021,1.097c0.276,0.462,0.416,1.041,0.416,1.738
				c0,1.176-0.362,2.068-1.092,2.676C131.352,35.193,130.311,35.497,128.957,35.497z"/>
			<path fill="#010101" d="M137.652,35.497c-0.896,0-1.918-0.134-3.066-0.399v-1.569c1.23,0.335,2.201,0.503,2.912,0.503
				c0.732,0,1.283-0.152,1.652-0.457c0.369-0.304,0.553-0.76,0.553-1.369c0-0.355-0.117-0.688-0.348-0.999
				c-0.234-0.312-0.814-0.692-1.744-1.144c-0.594-0.287-1.076-0.559-1.445-0.815s-0.684-0.601-0.943-1.035
				c-0.259-0.434-0.391-0.973-0.391-1.615c0-1.032,0.367-1.851,1.104-2.456c0.734-0.604,1.676-0.907,2.824-0.907
				c1.006,0,1.914,0.126,2.729,0.38v1.496c-0.854-0.293-1.686-0.44-2.484-0.44c-0.67,0-1.172,0.144-1.502,0.431
				c-0.334,0.287-0.5,0.718-0.5,1.292c0,0.301,0.104,0.583,0.313,0.846c0.211,0.264,0.74,0.597,1.59,1
				c0.615,0.287,1.123,0.565,1.527,0.836c0.4,0.271,0.74,0.636,1.021,1.097c0.273,0.462,0.416,1.041,0.416,1.738
				c0,1.176-0.365,2.068-1.096,2.676C140.047,35.193,139.006,35.497,137.652,35.497z"/>
			<path fill="#010101" d="M67.9,60.533h-2.185v-10.5h-1.362v-1.426H67.9V60.533z M66.814,44.424c0.334,0,0.623,0.123,0.867,0.369
				c0.241,0.246,0.362,0.537,0.362,0.872c0,0.342-0.119,0.634-0.358,0.877c-0.238,0.243-0.529,0.364-0.871,0.364
				c-0.351,0-0.644-0.121-0.883-0.364c-0.238-0.243-0.357-0.535-0.357-0.877c0-0.349,0.119-0.643,0.357-0.882
				C66.172,44.544,66.465,44.424,66.814,44.424z"/>
			<path fill="#010101" d="M79.766,60.533H77.58v-7.916c0-0.896-0.156-1.566-0.471-2.015c-0.315-0.449-0.787-0.672-1.416-0.672
				c-0.793,0-1.408,0.301-1.846,0.902s-0.656,1.384-0.656,2.349v7.352h-2.185V48.607h1.222l0.44,1.764
				c0.759-1.291,1.912-1.938,3.465-1.938c1.212,0,2.117,0.318,2.724,0.953c0.604,0.637,0.908,1.586,0.908,2.852L79.766,60.533
				L79.766,60.533z"/>
			<path fill="#010101" d="M90.162,60.533l-0.461-1.467c-0.631,1.088-1.707,1.631-3.23,1.631c-1.416,0-2.479-0.5-3.195-1.502
				c-0.713-1.002-1.069-2.565-1.069-4.691c0-1.784,0.381-3.242,1.144-4.373c0.762-1.131,1.844-1.697,3.246-1.697
				c1.147,0,2.01,0.346,2.584,1.035v-5.168h2.183v16.232H90.162L90.162,60.533z M89.25,55.099l-0.012-0.677
				c0-1.777-0.199-2.977-0.6-3.6c-0.4-0.621-0.97-0.933-1.707-0.933c-0.82,0-1.437,0.38-1.847,1.138
				c-0.41,0.76-0.614,1.897-0.614,3.415c0,1.593,0.196,2.786,0.596,3.579c0.395,0.793,0.99,1.189,1.783,1.189
				c0.771,0,1.364-0.287,1.778-0.861C89.042,57.775,89.25,56.691,89.25,55.099z"/>
			<path fill="#010101" d="M96.848,60.533h-2.184v-10.5h-1.363v-1.426h3.547V60.533z M95.762,44.424
				c0.334,0,0.623,0.123,0.865,0.369s0.365,0.537,0.365,0.872c0,0.342-0.121,0.634-0.359,0.877c-0.24,0.243-0.531,0.364-0.871,0.364
				c-0.35,0-0.645-0.121-0.883-0.364c-0.239-0.243-0.358-0.535-0.358-0.877c0-0.349,0.119-0.643,0.358-0.882
				C95.117,44.544,95.412,44.424,95.762,44.424z"/>
			<path fill="#010101" d="M104.365,60.697c-1.621,0-2.846-0.531-3.672-1.595c-0.828-1.062-1.24-2.623-1.24-4.681
				c0-1.914,0.445-3.391,1.338-4.43c0.893-1.039,2.189-1.559,3.891-1.559c0.664,0,1.336,0.086,2.021,0.256v1.487
				c-0.521-0.164-1.166-0.246-1.939-0.246c-0.998,0-1.754,0.398-2.271,1.194c-0.517,0.797-0.772,1.909-0.772,3.338
				c0,1.538,0.258,2.714,0.772,3.527c0.519,0.813,1.272,1.221,2.271,1.221c0.861,0,1.535-0.079,2.021-0.236v1.415
				C106.053,60.595,105.246,60.697,104.365,60.697z"/>
			<path fill="#010101" d="M114.793,58.811c-0.738,1.258-1.887,1.887-3.445,1.887c-1.088,0-1.934-0.306-2.539-0.918
				c-0.604-0.611-0.906-1.468-0.906-2.568c0-1.135,0.313-1.98,0.938-2.538c0.621-0.557,1.365-0.905,2.229-1.046
				c0.867-0.14,1.929-0.21,3.168-0.21v-1.405c0-1.387-0.737-2.081-2.225-2.081c-0.854,0-1.896,0.181-3.127,0.544v-1.528
				c1.233-0.342,2.409-0.513,3.524-0.513c1.313,0,2.312,0.316,2.985,0.948c0.683,0.633,1.021,1.563,1.021,2.794v8.357h-1.188
				L114.793,58.811z M114.238,54.719h-1.219c-0.979,0-1.711,0.207-2.201,0.621c-0.488,0.414-0.732,1.03-0.732,1.851
				c0,0.67,0.148,1.171,0.445,1.502c0.299,0.332,0.744,0.497,1.34,0.497c0.75,0,1.334-0.238,1.748-0.717
				c0.412-0.479,0.619-1.129,0.619-1.949V54.719z"/>
			<path fill="#010101" d="M122.41,60.697c-0.93,0-1.609-0.217-2.039-0.651c-0.432-0.434-0.646-1.126-0.646-2.076v-7.937h-1.563
				v-0.82l3.188-3.25h0.563v2.645h2.897v1.426h-2.897v7.578c0,0.648,0.104,1.078,0.313,1.286c0.211,0.209,0.53,0.313,0.963,0.313
				c0.442,0,1.047-0.1,1.81-0.298v1.415C124.078,60.574,123.217,60.697,122.41,60.697z"/>
			<path fill="#010101" d="M130.799,60.697c-1.607,0-2.809-0.526-3.609-1.579c-0.799-1.053-1.191-2.632-1.191-4.737
				c0-1.832,0.406-3.281,1.238-4.348c0.83-1.066,2.021-1.6,3.563-1.6c1.56,0,2.75,0.526,3.574,1.579
				c0.821,1.053,1.233,2.522,1.233,4.409c0,1.941-0.385,3.473-1.151,4.594C133.686,60.137,132.467,60.697,130.799,60.697z
				 M130.799,59.293c0.842,0,1.475-0.381,1.902-1.144c0.427-0.763,0.641-2.039,0.641-3.83c0-1.265-0.219-2.325-0.656-3.184
				c-0.437-0.859-1.063-1.287-1.887-1.287c-0.834,0-1.467,0.386-1.896,1.159c-0.432,0.771-0.646,1.876-0.646,3.312
				c0,1.613,0.216,2.846,0.646,3.696C129.332,58.867,129.965,59.293,130.799,59.293z"/>
			<path fill="#010101" d="M139.299,48.607l0.502,1.99c0.664-1.402,1.818-2.103,3.467-2.103c0.219,0,0.379,0.011,0.482,0.03v1.99
				c-0.172-0.014-0.428-0.021-0.77-0.021c-0.938,0-1.623,0.225-2.063,0.672c-0.438,0.448-0.653,1.146-0.653,2.098v7.27h-2.188
				V48.607H139.299z"/>
		</g>
		<g id="meegotouch-progressindicator-bar-background">
			<rect x="99.828" y="237.605" fill="none" width="49" height="20"/>
			<g>
				<path fill="#4C4C4C" d="M148.828,253.605c0,2.209-1.791,4-4,4h-41c-2.209,0-4-1.791-4-4v-12c0-2.209,1.791-4,4-4h41
					c2.209,0,4,1.791,4,4V253.605z"/>
				<linearGradient id="SVGID_1_" gradientUnits="userSpaceOnUse" x1="124.3281" y1="256.6055" x2="124.3281" y2="238.6055">
					<stop  offset="0" style="stop-color:#E8E8E8"/>
					<stop  offset="0.0129" style="stop-color:#CFCFCF"/>
					<stop  offset="0.0293" style="stop-color:#B7B7B7"/>
					<stop  offset="0.0466" style="stop-color:#A6A6A6"/>
					<stop  offset="0.0652" style="stop-color:#9B9B9B"/>
					<stop  offset="0.0875" style="stop-color:#989898"/>
					<stop  offset="0.6075" style="stop-color:#969696"/>
					<stop  offset="0.8169" style="stop-color:#949494"/>
					<stop  offset="0.899" style="stop-color:#8D8D8D"/>
					<stop  offset="0.9587" style="stop-color:#818182"/>
					<stop  offset="1" style="stop-color:#737374"/>
				</linearGradient>
				<path fill="url(#SVGID_1_)" d="M147.828,253.105c0,2.113-1.547,3.5-3.5,3.5h-40c-2.078,0-3.5-1.324-3.5-3.5v-11
					c0-1.935,1.566-3.5,3.5-3.5h40c2.109,0,3.5,1.565,3.5,3.5V253.105z"/>
				<path opacity="0.1" d="M145.328,239.746c-2.625,0-39.479,0-42,0s-2.5,2.359-2.5,2.359c0-1.935,1.566-3.5,3.5-3.5h40
					c2.094,0,3.5,1.565,3.5,3.5C147.828,242.105,147.953,239.746,145.328,239.746z"/>
			</g>
		</g>
		<g id="meegotouch-progressindicator-bar-progress">
			<rect x="99.828" y="271.95" fill="none" width="49" height="20"/>
			<g>
				<path fill="#4C4C4C" d="M148.828,287.95c0,2.209-1.791,4-4,4h-41c-2.209,0-4-1.791-4-4v-12c0-2.209,1.791-4,4-4h41
					c2.209,0,4,1.791,4,4V287.95z"/>
				<path fill="#009BCE" d="M147.828,287.45c0,2.05-1.453,3.5-3.5,3.5h-40c-2.078,0-3.5-1.356-3.5-3.5v-11
					c0-1.933,1.566-3.5,3.5-3.5h40c1.934,0,3.5,1.567,3.5,3.5V287.45z"/>
				<path fill="#008BB9" d="M144.328,274.091c-2.625,0-37.479,0-40,0s-3.5,2.359-3.5,2.359c0-1.981,1.453-3.5,3.5-3.5h40
					c2.078,0,3.5,1.456,3.5,3.5C147.828,276.45,146.953,274.091,144.328,274.091z"/>
			</g>
		</g>
		<g id="meegotouch-progressindicator-bar-progress-unknown-mask">
			<rect x="99.828" y="204.262" fill="#010101" fill-opacity="0" width="14" height="18"/>
			<path fill="#969696" d="M113.828,218.746c0,1.93-1.564,3.496-3.496,3.496l-7.008,0.02c-1.932,0-3.496-1.565-3.496-3.496v-10.988
				c0-1.932,1.564-3.495,3.496-3.495l7.008-0.021c1.932,0,3.496,1.564,3.496,3.496V218.746z"/>
		</g>
		<g id="meegotouch-progressindicator-bar-progress-unknown">
			<rect x="99.828" y="170.917" fill="#F2F2F2" width="16" height="16"/>
			<path fill="#CCCCCC" d="M115.828,175.16c0,0-1.279,0.271-3.5,1.507c-6,3.333-8.258,10.25-8.258,10.25h-4.242c0,0,0-3.271,0-4.243
				c0.583-0.443,1.313-0.736,3.438-2.068c3.908-2.447,8.32-9.688,8.32-9.688h4.242V175.16z M115.828,182.675
				c-2.708,1.825-4.243,4.242-4.243,4.242h4.243C115.828,186.917,115.828,184.917,115.828,182.675z M99.828,175.159
				c2.75-0.992,4.242-4.242,4.242-4.242h-4.242C99.828,170.917,99.828,173.375,99.828,175.159z"/>
		</g>
		<g id="meegotouch-progressindicator-spinner-large-on">
			<circle opacity="0.2" fill="#010101" enable-background="new    " cx="114" cy="144" r="8"/>
			
				<linearGradient id="SVGID_2_" gradientUnits="userSpaceOnUse" x1="246" y1="629" x2="246" y2="643" gradientTransform="matrix(1 0 0 1 -132 -492)">
				<stop  offset="0" style="stop-color:#A7D1DB"/>
				<stop  offset="1" style="stop-color:#82ADB6"/>
			</linearGradient>
			<circle fill="url(#SVGID_2_)" cx="114" cy="144" r="7"/>
		</g>
		<g id="meegotouch-progressindicator-spinner-large-off">
			<circle opacity="0.2" fill="none" stroke="#FFFFFF" enable-background="new    " cx="92" cy="144" r="8.166"/>
			<circle opacity="0.2" enable-background="new    " cx="92" cy="144" r="7.625"/>
		</g>
		<g id="meegotouch-progressindicator-spinner-medium-on">
			<circle opacity="0.2" fill="#010101" enable-background="new    " cx="114" cy="118" r="5"/>
			
				<linearGradient id="SVGID_3_" gradientUnits="userSpaceOnUse" x1="246" y1="606" x2="246" y2="614" gradientTransform="matrix(1 0 0 1 -132 -492)">
				<stop  offset="0" style="stop-color:#A7D1DB"/>
				<stop  offset="1" style="stop-color:#82ADB6"/>
			</linearGradient>
			<circle fill="url(#SVGID_3_)" cx="114" cy="118" r="4"/>
		</g>
		<g id="meegotouch-progressindicator-spinner-medium-off">
			<circle opacity="0.2" fill="none" stroke="#FFFFFF" enable-background="new    " cx="92" cy="118" r="5.063"/>
			<circle opacity="0.2" enable-background="new    " cx="92" cy="118" r="4.656"/>
		</g>
		<g id="meegotouch-progressindicator-spinner-small-on">
			<circle opacity="0.2" fill="#010101" enable-background="new    " cx="114" cy="92" r="4"/>
			
				<linearGradient id="SVGID_4_" gradientUnits="userSpaceOnUse" x1="246" y1="581" x2="246" y2="587" gradientTransform="matrix(1 0 0 1 -132 -492)">
				<stop  offset="0" style="stop-color:#A7D1DB"/>
				<stop  offset="1" style="stop-color:#82ADB6"/>
			</linearGradient>
			<circle fill="url(#SVGID_4_)" cx="114" cy="92" r="3"/>
		</g>
		<g id="meegotouch-progressindicator-spinner-small-off">
			<circle opacity="0.2" fill="none" stroke="#FFFFFF" enable-background="new    " cx="92" cy="92" r="4.078"/>
			<circle opacity="0.2" enable-background="new    " cx="92" cy="92" r="3.583"/>
		</g>
	</g>
</g>
</svg>
