<?xml version="1.0" encoding="utf-8"?>
<!-- Generator: Adobe Illustrator 14.0.0, SVG Export Plug-In . SVG Version: 6.00 Build 43363)  -->
<!DOCTYPE svg PUBLIC "-//W3C//DTD SVG 1.1//EN" "http://www.w3.org/Graphics/SVG/1.1/DTD/svg11.dtd">
<svg version="1.1" id="Layer_1" xmlns="http://www.w3.org/2000/svg" xmlns:xlink="http://www.w3.org/1999/xlink" x="0px" y="0px"
	 width="330px" height="1000px" viewBox="0 0 330 1000" enable-background="new 0 0 330 1000" xml:space="preserve">
<g id="meegotouch-dialog-layer">
</g>
<g id="meegotouch-dialog">
	<g id="MeegoTouchDialogThemeTemplateHelper">
		<g>
			<path fill="#B3B3B3" d="M16,999c-8.271,0-15-6.729-15-15V16C1,7.729,7.729,1,16,1h298c8.271,0,15,6.729,15,15v968
				c0,8.271-6.729,15-15,15H16z"/>
			<g>
				<path d="M314,2c7.721,0,14,6.28,14,14v968c0,7.72-6.279,14-14,14H16c-7.72,0-14-6.28-14-14V16C2,8.28,8.28,2,16,2H314 M314,0H16
					C7.2,0,0,7.2,0,16v968c0,8.8,7.2,16,16,16h298c8.8,0,16-7.2,16-16V16C330,7.2,322.8,0,314,0L314,0z"/>
			</g>
		</g>
		<path fill="#010101" d="M140.145,19.045h3.988c1.887,0,3.297,0.584,4.23,1.753c0.932,1.169,1.398,3.042,1.398,5.619
			c0,2.83-0.498,4.856-1.496,6.081c-0.998,1.223-2.496,1.835-4.492,1.835h-3.629L140.145,19.045L140.145,19.045z M142.348,32.846
			h1.508c1.176,0,2.072-0.451,2.688-1.354c0.616-0.903,0.922-2.539,0.922-4.911c0-2.112-0.303-3.648-0.906-4.609
			c-0.605-0.96-1.52-1.44-2.744-1.44h-1.467L142.348,32.846L142.348,32.846z"/>
		<path fill="#010101" d="M154.816,34.333h-2.184v-10.5h-1.363v-1.425h3.547V34.333L154.816,34.333z M153.73,18.225
			c0.334,0,0.623,0.123,0.867,0.369c0.242,0.246,0.363,0.536,0.363,0.871c0,0.342-0.119,0.635-0.359,0.877
			c-0.238,0.242-0.529,0.363-0.871,0.363c-0.35,0-0.643-0.121-0.883-0.363c-0.238-0.242-0.357-0.535-0.357-0.877
			c0-0.349,0.119-0.643,0.357-0.882C153.088,18.344,153.381,18.225,153.73,18.225z"/>
		<path fill="#010101" d="M164.107,32.61c-0.738,1.258-1.887,1.887-3.445,1.887c-1.086,0-1.932-0.306-2.537-0.918
			c-0.605-0.611-0.908-1.468-0.908-2.568c0-1.135,0.311-1.979,0.934-2.538c0.621-0.557,1.367-0.905,2.234-1.046
			c0.869-0.14,1.926-0.21,3.17-0.21v-1.404c0-1.389-0.742-2.082-2.227-2.082c-0.854,0-1.896,0.182-3.127,0.543v-1.527
			c1.238-0.342,2.414-0.513,3.527-0.513c1.312,0,2.309,0.316,2.99,0.948c0.68,0.633,1.021,1.564,1.021,2.795v8.356h-1.188
			L164.107,32.61z M163.555,28.52h-1.221c-0.979,0-1.711,0.207-2.199,0.62c-0.488,0.413-0.734,1.03-0.734,1.851
			c0,0.67,0.15,1.171,0.447,1.502c0.297,0.332,0.742,0.498,1.338,0.498c0.752,0,1.334-0.24,1.748-0.719s0.621-1.127,0.621-1.947
			V28.52L163.555,28.52z"/>
		<path fill="#010101" d="M168.68,34.333V18.102h2.188v16.231H168.68z"/>
		<path fill="#010101" d="M178.154,34.497c-1.605,0-2.809-0.526-3.609-1.579c-0.799-1.053-1.199-2.632-1.199-4.737
			c0-1.832,0.416-3.281,1.246-4.348s2.018-1.6,3.563-1.6c1.563,0,2.75,0.526,3.574,1.579s1.235,2.522,1.235,4.409
			c0,1.941-0.385,3.473-1.153,4.594C181.041,33.936,179.822,34.497,178.154,34.497z M178.154,33.092
			c0.842,0,1.477-0.381,1.902-1.143c0.428-0.762,0.641-2.039,0.641-3.83c0-1.265-0.219-2.326-0.656-3.184s-1.066-1.287-1.887-1.287
			c-0.834,0-1.465,0.387-1.896,1.158c-0.43,0.773-0.646,1.877-0.646,3.312c0,1.613,0.222,2.846,0.646,3.696
			C176.689,32.667,177.32,33.092,178.154,33.092z"/>
		<path fill="#010101" d="M192.307,23.854l0.461-1.445h1.221V33.77c0,1.285-0.396,2.281-1.19,2.988
			c-0.797,0.708-1.894,1.062-3.271,1.062c-1.141,0-2.424-0.181-3.867-0.544v-1.537c1.504,0.361,2.707,0.543,3.607,0.543
			c0.784,0,1.36-0.146,1.729-0.436c0.363-0.291,0.592-0.67,0.682-1.139c0.09-0.468,0.135-1.133,0.135-1.994v-0.308
			c-0.58,0.834-1.512,1.251-2.789,1.251c-1.356,0-2.381-0.47-3.063-1.41c-0.682-0.939-1.021-2.35-1.021-4.229
			c0-1.798,0.375-3.211,1.127-4.24c0.752-1.028,1.841-1.543,3.266-1.543C190.689,22.233,191.684,22.773,192.307,23.854z
			 M189.518,32.17c0.758,0,1.336-0.272,1.732-0.815c0.396-0.544,0.594-1.714,0.594-3.513c0-1.381-0.186-2.418-0.559-3.111
			s-0.928-1.041-1.666-1.041c-0.787,0-1.387,0.297-1.799,0.893c-0.414,0.594-0.621,1.682-0.621,3.26c0,1.443,0.193,2.525,0.58,3.246
			C188.164,31.809,188.744,32.17,189.518,32.17z"/>
		<path fill="#010101" d="M115.17,530.394c-1.285-0.335-2.256-1.124-2.916-2.363c-0.66-1.244-0.99-3.08-0.99-5.512
			c0-2.524,0.438-4.428,1.312-5.691c0.875-1.271,2.188-1.902,3.938-1.902s3.062,0.617,3.938,1.854
			c0.876,1.23,1.312,3.146,1.312,5.746c0,2.443-0.357,4.334-1.07,5.656c-0.715,1.326-1.783,2.096-3.205,2.297
			c0.143,0.656,0.355,1.141,0.635,1.44c0.281,0.305,0.838,0.457,1.672,0.457v1.425h-0.338c-1.225,0-2.156-0.245-2.799-0.729
			C116.016,532.578,115.52,531.686,115.17,530.394z M116.514,529.01c0.943,0,1.666-0.479,2.17-1.451
			c0.502-0.967,0.752-2.646,0.752-5.039c0-2.156-0.248-3.713-0.748-4.651c-0.498-0.943-1.223-1.415-2.174-1.415
			c-0.936,0-1.656,0.46-2.158,1.379c-0.502,0.92-0.754,2.481-0.754,4.69c0,2.166,0.242,3.786,0.729,4.866
			C114.814,528.469,115.543,529.01,116.514,529.01z"/>
		<path fill="#010101" d="M127.926,530.537c-1.217,0-2.127-0.316-2.732-0.948s-0.908-1.581-0.908-2.846v-8.296h2.186v7.916
			c0,0.896,0.156,1.563,0.471,2.016s0.789,0.672,1.426,0.672c0.793,0,1.406-0.301,1.84-0.897c0.436-0.604,0.652-1.39,0.652-2.354
			v-7.353h2.184v11.926h-1.211l-0.439-1.764C130.633,529.895,129.479,530.537,127.926,530.537z"/>
		<path fill="#010101" d="M143.84,528.548v1.487c-1.074,0.334-2.184,0.502-3.332,0.502c-1.668,0-2.916-0.502-3.744-1.508
			c-0.826-1.004-1.24-2.558-1.24-4.646c0-1.839,0.4-3.313,1.199-4.435c0.801-1.118,1.941-1.682,3.426-1.682
			c1.203,0,2.107,0.32,2.713,0.959c0.604,0.644,0.992,1.427,1.162,2.353c0.172,0.927,0.258,2.029,0.258,3.307h-6.439
			c0,1.394,0.246,2.435,0.738,3.123c0.492,0.693,1.23,1.041,2.215,1.041C141.629,529.051,142.643,528.883,143.84,528.548z
			 M137.842,523.544h4.295c0-1.442-0.17-2.461-0.512-3.056c-0.342-0.6-0.834-0.896-1.477-0.896c-0.719,0-1.266,0.313-1.646,0.924
			C138.123,521.135,137.902,522.143,137.842,523.544z"/>
		<path fill="#010101" d="M147.932,518.447l0.502,1.99c0.662-1.402,1.818-2.104,3.467-2.104c0.217,0,0.379,0.011,0.48,0.03v1.985
			c-0.17-0.014-0.428-0.021-0.768-0.021c-0.938,0-1.625,0.225-2.062,0.672c-0.438,0.448-0.656,1.146-0.656,2.099v7.271h-2.184
			v-11.926L147.932,518.447L147.932,518.447z"/>
		<path fill="#010101" d="M156.123,529.932l-3.26-11.479h2.244l2.605,9.885l2.717-9.885h1.969l-3.732,12.644
			c-0.287,0.95-0.689,1.649-1.209,2.102c-0.52,0.443-1.197,0.672-2.031,0.672c-0.574,0-1.209-0.072-1.906-0.216v-1.512
			c0.629,0.123,1.203,0.188,1.723,0.188c0.471,0,0.855-0.159,1.152-0.479c0.299-0.313,0.584-0.956,0.857-1.913L156.123,529.932
			L156.123,529.932z"/>
		<path fill="#010101" d="M176.457,530.373l-0.461-1.467c-0.629,1.088-1.705,1.631-3.23,1.631c-1.414,0-2.479-0.5-3.188-1.502
			s-1.072-2.565-1.072-4.691c0-1.784,0.382-3.242,1.146-4.373s1.846-1.692,3.244-1.692c1.146,0,2.01,0.346,2.584,1.03v-5.168h2.186
			v16.232H176.457L176.457,530.373z M175.545,524.938l-0.01-0.677c0-1.772-0.201-2.977-0.6-3.6c-0.4-0.621-0.976-0.933-1.709-0.933
			c-0.82,0-1.438,0.38-1.851,1.138c-0.405,0.76-0.61,1.896-0.61,3.415c0,1.593,0.194,2.786,0.596,3.579
			c0.396,0.793,0.99,1.188,1.783,1.188c0.771,0,1.364-0.287,1.774-0.861C175.338,527.615,175.545,526.531,175.545,524.938z"/>
		<path fill="#010101" d="M183.143,530.373h-2.184v-10.5h-1.363v-1.426h3.547V530.373L183.143,530.373z M182.057,514.264
			c0.334,0,0.623,0.123,0.867,0.369c0.242,0.246,0.363,0.537,0.363,0.872c0,0.342-0.119,0.634-0.359,0.877
			c-0.238,0.243-0.529,0.364-0.871,0.364c-0.35,0-0.643-0.121-0.883-0.364c-0.238-0.243-0.357-0.535-0.357-0.877
			c0-0.349,0.119-0.643,0.357-0.882C181.414,514.384,181.707,514.264,182.057,514.264z"/>
		<path fill="#010101" d="M192.434,528.65c-0.738,1.258-1.887,1.887-3.445,1.887c-1.086,0-1.932-0.306-2.532-0.918
			c-0.604-0.611-0.908-1.468-0.908-2.568c0-1.135,0.313-1.979,0.938-2.538c0.621-0.557,1.367-0.9,2.229-1.046
			c0.869-0.14,1.931-0.21,3.17-0.21v-1.405c0-1.387-0.737-2.081-2.229-2.081c-0.854,0-1.896,0.186-3.128,0.544v-1.523
			c1.238-0.342,2.414-0.514,3.527-0.514c1.313,0,2.31,0.313,2.989,0.944c0.681,0.634,1.021,1.563,1.021,2.794v8.357h-1.188
			L192.434,528.65z M191.881,524.559h-1.221c-0.979,0-1.711,0.207-2.199,0.621s-0.734,1.03-0.734,1.854
			c0,0.67,0.15,1.171,0.447,1.502c0.297,0.332,0.742,0.497,1.338,0.497c0.752,0,1.334-0.238,1.748-0.717
			c0.414-0.479,0.621-1.134,0.621-1.949V524.559L191.881,524.559z"/>
		<path fill="#010101" d="M197.006,530.373v-16.232h2.186v16.232H197.006z"/>
		<path fill="#010101" d="M206.48,530.537c-1.605,0-2.813-0.526-3.609-1.579s-1.199-2.632-1.199-4.737
			c0-1.832,0.416-3.276,1.246-4.348s2.018-1.6,3.563-1.6c1.563,0,2.75,0.521,3.574,1.574c0.823,1.058,1.235,2.522,1.235,4.409
			c0,1.941-0.386,3.478-1.153,4.599C209.367,529.976,208.148,530.537,206.48,530.537z M206.48,529.133
			c0.842,0,1.477-0.381,1.897-1.144c0.433-0.768,0.646-2.039,0.646-3.83c0-1.27-0.219-2.325-0.656-3.188
			c-0.438-0.854-1.066-1.283-1.887-1.283c-0.834,0-1.465,0.387-1.896,1.155c-0.43,0.771-0.646,1.876-0.646,3.313
			c0,1.609,0.217,2.846,0.646,3.693C205.016,528.707,205.646,529.133,206.48,529.133z"/>
		<path fill="#010101" d="M220.633,519.894l0.461-1.441h1.221v11.356c0,1.285-0.396,2.282-1.19,2.989
			c-0.799,0.708-1.894,1.063-3.271,1.063c-1.142,0-2.429-0.187-3.867-0.543v-1.539c1.504,0.358,2.707,0.544,3.604,0.544
			c0.787,0,1.363-0.146,1.729-0.438c0.365-0.292,0.594-0.671,0.684-1.139c0.088-0.468,0.133-1.133,0.133-1.994v-0.308
			c-0.578,0.834-1.51,1.251-2.787,1.251c-1.358,0-2.383-0.474-3.063-1.41c-0.682-0.939-1.021-2.354-1.021-4.229
			c0-1.798,0.375-3.211,1.127-4.235c0.752-1.028,1.84-1.543,3.262-1.543C219.016,518.273,220.01,518.813,220.633,519.894z
			 M217.844,528.209c0.758,0,1.336-0.271,1.732-0.814c0.396-0.544,0.594-1.715,0.594-3.512c0-1.381-0.186-2.418-0.559-3.112
			c-0.373-0.689-0.928-1.041-1.666-1.041c-0.787,0-1.387,0.303-1.799,0.896c-0.414,0.596-0.621,1.682-0.621,3.262
			c0,1.441,0.188,2.523,0.58,3.245C216.49,527.85,217.07,528.209,217.844,528.209z"/>
	</g>
	<g id="meegotouch-button-dialog-query-background-pressed-vertical-bottom">
		<path fill="#080C0C" d="M93.491,896.045h65v61.001c0,2.209-1.791,4-4,4h-57c-2.209,0-4-1.791-4-4V896.045L93.491,896.045z"/>
		
			<linearGradient id="SVGID_1_" gradientUnits="userSpaceOnUse" x1="-721.7495" y1="-117.5708" x2="-784.7505" y2="-117.5708" gradientTransform="matrix(-4.366649e-008 -1 -1 4.366649e-008 8.4205 175.2952)">
			<stop  offset="0" style="stop-color:#5D8891"/>
			<stop  offset="1" style="stop-color:#A7D1DB"/>
		</linearGradient>
		<path fill="url(#SVGID_1_)" d="M94.491,897.045h63v59.751c0,1.795-1.455,3.25-3.25,3.25h-56.5c-1.795,0-3.25-1.455-3.25-3.25
			V897.045L94.491,897.045z"/>
		<path opacity="0.4" fill="#171717" enable-background="new    " d="M94.484,956.112c0,1.504,1.5,2.412,3.385,2.412h56.224
			c0.998,0,1.873-0.846,1.873-1.912v-59.567h1.524v59.567c0,2.054-1.365,3.434-3.397,3.434H97.869c-2.02,0-3.378-1.382-3.378-3.438
			L94.484,956.112z"/>
		<path opacity="0.4" fill="#F4F4F4" enable-background="new    " d="M94.516,897.035h63v0.927H95.467c0,0,0,60.203,0,61.172
			c-0.828-0.75-0.969-2.031-0.969-2.031L94.516,897.035z"/>
	</g>
	<g id="meegotouch-button-dialog-query-background-pressed-vertical-center">
		<g>
			
				<linearGradient id="SVGID_2_" gradientUnits="userSpaceOnUse" x1="118.9912" y1="497.3779" x2="118.9912" y2="433.3779" gradientTransform="matrix(1 0 0 1 8 388)">
				<stop  offset="0" style="stop-color:#A7D1DB"/>
				<stop  offset="1" style="stop-color:#5D8891"/>
			</linearGradient>
			<rect x="94.991" y="821.378" fill="url(#SVGID_2_)" width="64" height="64"/>
			<path fill="#080C0C" d="M158.491,821.878v63h-63v-63H158.491 M159.491,820.878h-1h-63h-1v1v63v1h1h63h1v-1v-63V820.878
				L159.491,820.878z"/>
		</g>
		<polygon opacity="0.4" fill="#F4F4F4" enable-background="new    " points="96.496,884.885 96.496,822.889 158.48,822.889 
			158.48,821.872 158.48,821.872 95.48,821.872 95.48,884.872 		"/>
		<polygon opacity="0.4" fill="#171717" enable-background="new    " points="157.017,821.872 157.017,883.369 95.48,883.369 
			95.48,884.872 158.48,884.872 158.48,821.872 		"/>
	</g>
	<g id="meegotouch-button-dialog-query-background-pressed-vertical-top">
		<path fill="#080C0C" d="M93.991,812.962v-61c0-2.209,1.791-4,4-4h57c2.209,0,4,1.791,4,4v61H93.991z"/>
		
			<linearGradient id="SVGID_3_" gradientUnits="userSpaceOnUse" x1="110.3325" y1="401.6201" x2="173.332" y2="401.6201" gradientTransform="matrix(4.366649e-008 1 1 -4.366649e-008 -275.129 638.6295)">
			<stop  offset="0" style="stop-color:#5D8891"/>
			<stop  offset="1" style="stop-color:#A7D1DB"/>
		</linearGradient>
		<path fill="url(#SVGID_3_)" d="M94.991,811.962v-59.75c0-1.795,1.455-3.25,3.25-3.25h56.5c1.795,0,3.25,1.455,3.25,3.25v59.75
			H94.991z"/>
		<path opacity="0.4" fill="#F4F4F4" enable-background="new    " d="M157.998,752.895c0-1.502-1.5-2.932-3.385-2.932H98.389
			c-1.479,0-2.397,0.932-2.397,2.432v59.567h-1v-59.567c0-2.054,1.365-3.433,3.397-3.433h56.224c2.02,0,3.378,1.382,3.378,3.438
			L157.998,752.895z"/>
		<path opacity="0.4" fill="#171717" enable-background="new    " d="M157.967,811.972h-63v-1.51h61.524c0,0,0-60.036,0-61.005
			c1.257,0.797,1.476,2.25,1.476,2.25V811.972z"/>
	</g>
	<g id="meegotouch-button-dialog-query-background-vertical-bottom">
		<path fill="#080C0C" d="M19.991,895.545h65v61.001c0,2.209-1.791,4-4,4h-57c-2.209,0-4-1.791-4-4V895.545L19.991,895.545z"/>
		
			<linearGradient id="SVGID_4_" gradientUnits="userSpaceOnUse" x1="-721.2495" y1="-44.0708" x2="-784.2505" y2="-44.0708" gradientTransform="matrix(-4.366649e-008 -1 -1 4.366649e-008 8.4205 175.2952)">
			<stop  offset="0" style="stop-color:#A7D1DB"/>
			<stop  offset="1" style="stop-color:#5D8891"/>
		</linearGradient>
		<path fill="url(#SVGID_4_)" d="M20.991,896.545h63v59.751c0,1.795-1.455,3.25-3.25,3.25h-56.5c-1.795,0-3.25-1.455-3.25-3.25
			V896.545L20.991,896.545z"/>
		<path opacity="0.4" fill="#171717" enable-background="new    " d="M20.984,955.612c0,1.504,1.5,2.412,3.385,2.412h56.224
			c0.998,0,1.873-0.846,1.873-1.912v-59.567h1.524v59.567c0,2.054-1.365,3.434-3.397,3.434H24.369c-2.02,0-3.378-1.382-3.378-3.438
			L20.984,955.612z"/>
		<path opacity="0.4" fill="#F4F4F4" enable-background="new    " d="M21.016,896.535h63v0.927H21.967c0,0,0,60.203,0,61.172
			c-0.828-0.75-0.969-2.031-0.969-2.031L21.016,896.535z"/>
	</g>
	<g id="meegotouch-button-dialog-query-background-vertical-center">
		<g>
			
				<linearGradient id="SVGID_5_" gradientUnits="userSpaceOnUse" x1="44.4912" y1="496.8779" x2="44.4912" y2="432.8779" gradientTransform="matrix(1 0 0 1 8 388)">
				<stop  offset="0" style="stop-color:#5D8891"/>
				<stop  offset="1" style="stop-color:#A7D1DB"/>
			</linearGradient>
			<rect x="20.491" y="820.878" fill="url(#SVGID_5_)" width="64" height="64"/>
			<path fill="#080C0C" d="M83.991,821.378v63h-63v-63H83.991 M84.991,820.378h-1h-63h-1v1v63v1h1h63h1v-1v-63V820.378
				L84.991,820.378z"/>
		</g>
		<polygon opacity="0.4" fill="#F4F4F4" enable-background="new    " points="21.996,884.385 21.996,822.389 83.98,822.389 
			83.98,821.372 83.98,821.372 20.98,821.372 20.98,884.372 		"/>
		<polygon opacity="0.4" fill="#171717" enable-background="new    " points="82.517,821.372 82.517,882.869 20.98,882.869 
			20.98,884.372 83.98,884.372 83.98,821.372 		"/>
	</g>
	<g id="meegotouch-button-dialog-query-background-vertical-top">
		<path fill="#080C0C" d="M19.991,811.962v-61c0-2.209,1.791-4,4-4h57c2.209,0,4,1.791,4,4v61H19.991z"/>
		
			<linearGradient id="SVGID_6_" gradientUnits="userSpaceOnUse" x1="109.3325" y1="327.6201" x2="172.332" y2="327.6201" gradientTransform="matrix(4.366649e-008 1 1 -4.366649e-008 -275.129 638.6295)">
			<stop  offset="0" style="stop-color:#A7D1DB"/>
			<stop  offset="1" style="stop-color:#5D8891"/>
		</linearGradient>
		<path fill="url(#SVGID_6_)" d="M20.991,810.962v-59.75c0-1.795,1.455-3.25,3.25-3.25h56.5c1.795,0,3.25,1.455,3.25,3.25v59.75
			H20.991z"/>
		<path opacity="0.4" fill="#F4F4F4" enable-background="new    " d="M83.998,751.895c0-1.502-1.5-2.932-3.385-2.932H24.389
			c-1.479,0-2.397,0.932-2.397,2.432v59.567h-1v-59.567c0-2.054,1.365-3.433,3.397-3.433h56.224c2.02,0,3.378,1.382,3.378,3.438
			L83.998,751.895z"/>
		<path opacity="0.4" fill="#171717" enable-background="new    " d="M83.967,810.972h-63v-1.51h61.524c0,0,0-60.036,0-61.005
			c1.257,0.797,1.476,2.25,1.476,2.25V810.972z"/>
	</g>
	<g id="meegotouch-button-dialog-query-background-pressed-horizontal-right">
		<path fill="#080C0C" d="M168.087,672.319h61.001c2.209,0,4,1.791,4,4v57c0,2.209-1.791,4-4,4h-61.001V672.319L168.087,672.319z"/>
		
			<linearGradient id="SVGID_7_" gradientUnits="userSpaceOnUse" x1="-803.4204" y1="-53.7705" x2="-803.4204" y2="9.2295" gradientTransform="matrix(-1 0 0 -1 -602.833 682.5488)">
			<stop  offset="0" style="stop-color:#A7D1DB"/>
			<stop  offset="1" style="stop-color:#5D8891"/>
		</linearGradient>
		<path fill="url(#SVGID_7_)" d="M169.087,673.319h59.751c1.795,0,3.25,1.455,3.25,3.25v56.5c0,1.795-1.455,3.25-3.25,3.25h-59.751
			V673.319L169.087,673.319z"/>
		<path opacity="0.4" fill="#171717" enable-background="new    " d="M228.65,673.319c2.056,0,3.438,1.357,3.438,3.379v56.224
			c0,2.032-1.38,3.397-3.434,3.397h-59.567v-1.524h59.567c1.066,0,1.912-0.875,1.912-1.873v-56.224c0-1.886-0.908-3.386-2.412-3.386
			L228.65,673.319z"/>
		<path opacity="0.4" fill="#F4F4F4" enable-background="new    " d="M229.145,673.327c0,0,1.281,0.141,2.031,0.969
			c-0.969,0-61.172,0-61.172,0v62.049h-0.927v-63L229.145,673.327z"/>
	</g>
	<g id="meegotouch-button-dialog-query-background-pressed-horizontal-center">
		<g>
			
				<linearGradient id="SVGID_8_" gradientUnits="userSpaceOnUse" x1="118.8071" y1="348.3203" x2="118.8071" y2="284.3203" gradientTransform="matrix(1 0 0 1 8 388)">
				<stop  offset="0" style="stop-color:#A7D1DB"/>
				<stop  offset="1" style="stop-color:#5D8891"/>
			</linearGradient>
			<rect x="94.807" y="672.32" fill="url(#SVGID_8_)" width="64" height="64"/>
			<path fill="#080C0C" d="M158.307,672.82v63h-63v-63H158.307 M159.307,671.82h-1h-63h-1v1v63v1h1h63h1v-1v-63V671.82
				L159.307,671.82z"/>
		</g>
		<polygon opacity="0.4" fill="#F4F4F4" enable-background="new    " points="96.312,735.827 96.312,673.831 158.296,673.831 
			158.296,672.814 158.296,672.814 95.296,672.814 95.296,735.814 		"/>
		<polygon opacity="0.4" fill="#171717" enable-background="new    " points="156.833,672.814 156.833,734.313 95.296,734.313 
			95.296,735.814 158.296,735.814 158.296,672.814 		"/>
	</g>
	<g id="meegotouch-button-dialog-query-background-pressed-horizontal-left">
		<path fill="#080C0C" d="M84.083,737.82h-61c-2.209,0-4-1.791-4-4v-57c0-2.209,1.791-4,4-4h61V737.82z"/>
		
			<linearGradient id="SVGID_9_" gradientUnits="userSpaceOnUse" x1="43.583" y1="285.8203" x2="43.583" y2="348.8203" gradientTransform="matrix(1 0 0 1 8 388)">
			<stop  offset="0" style="stop-color:#5D8891"/>
			<stop  offset="1" style="stop-color:#A7D1DB"/>
		</linearGradient>
		<path fill="url(#SVGID_9_)" d="M83.083,736.82h-59.75c-1.795,0-3.25-1.455-3.25-3.25v-56.5c0-1.795,1.455-3.25,3.25-3.25h59.75
			V736.82z"/>
		<path opacity="0.4" fill="#F4F4F4" enable-background="new    " d="M23.521,736.82c-2.056,0-3.438-1.358-3.438-3.378v-56.226
			c0-2.031,1.379-3.396,3.432-3.396h59.568v1H23.517c-1.5,0-2.432,0.918-2.432,2.396v56.226c0,1.885,1.429,3.385,2.932,3.385
			L23.521,736.82z"/>
		<path opacity="0.4" fill="#171717" enable-background="new    " d="M22.829,736.796c0,0-1.453-0.219-2.25-1.476
			c0.969,0,61.005,0,61.005,0v-61.524h1.51v63H22.829z"/>
	</g>
	<g id="meegotouch-button-dialog-query-background-horizontal-right">
		<path fill="#080C0C" d="M168.087,597.819h61.001c2.209,0,4,1.791,4,4v57c0,2.209-1.791,4-4,4h-61.001V597.819L168.087,597.819z"/>
		
			<linearGradient id="SVGID_10_" gradientUnits="userSpaceOnUse" x1="-803.4204" y1="20.7295" x2="-803.4204" y2="83.7295" gradientTransform="matrix(-1 0 0 -1 -602.833 682.5488)">
			<stop  offset="0" style="stop-color:#5D8891"/>
			<stop  offset="1" style="stop-color:#A7D1DB"/>
		</linearGradient>
		<path fill="url(#SVGID_10_)" d="M169.087,598.819h59.751c1.795,0,3.25,1.455,3.25,3.25v56.5c0,1.795-1.455,3.25-3.25,3.25h-59.751
			V598.819L169.087,598.819z"/>
		<path opacity="0.4" fill="#171717" enable-background="new    " d="M228.65,598.819c2.056,0,3.438,1.357,3.438,3.379v56.224
			c0,2.032-1.38,3.397-3.434,3.397h-59.567v-1.524h59.567c1.066,0,1.912-0.875,1.912-1.873v-56.224c0-1.886-0.908-3.386-2.412-3.386
			L228.65,598.819z"/>
		<path opacity="0.4" fill="#F4F4F4" enable-background="new    " d="M229.145,598.827c0,0,1.281,0.141,2.031,0.969
			c-0.969,0-61.172,0-61.172,0v62.049h-0.927v-63L229.145,598.827z"/>
	</g>
	<g id="meegotouch-button-dialog-query-background-horizontal-center">
		<g>
			
				<linearGradient id="SVGID_11_" gradientUnits="userSpaceOnUse" x1="118.3071" y1="274.3203" x2="118.3071" y2="210.3203" gradientTransform="matrix(1 0 0 1 8 388)">
				<stop  offset="0" style="stop-color:#5D8891"/>
				<stop  offset="1" style="stop-color:#A7D1DB"/>
			</linearGradient>
			<rect x="94.307" y="598.32" fill="url(#SVGID_11_)" width="64" height="64"/>
			<path fill="#080C0C" d="M157.807,598.82v63h-63v-63H157.807 M158.807,597.82h-1h-63h-1v1v63v1h1h63h1v-1v-63V597.82
				L158.807,597.82z"/>
		</g>
		<polygon opacity="0.4" fill="#F4F4F4" enable-background="new    " points="95.812,661.827 95.812,599.831 157.796,599.831 
			157.796,598.814 157.796,598.814 94.796,598.814 94.796,661.814 		"/>
		<polygon opacity="0.4" fill="#171717" enable-background="new    " points="156.333,598.814 156.333,660.313 94.796,660.313 
			94.796,661.814 157.796,661.814 157.796,598.814 		"/>
	</g>
	<g id="meegotouch-button-dialog-query-background-horizontal-left">
		<path fill="#080C0C" d="M83.583,662.82h-61c-2.209,0-4-1.791-4-4v-57c0-2.209,1.791-4,4-4h61V662.82z"/>
		
			<linearGradient id="SVGID_12_" gradientUnits="userSpaceOnUse" x1="43.083" y1="210.8203" x2="43.083" y2="273.8203" gradientTransform="matrix(1 0 0 1 8 388)">
			<stop  offset="0" style="stop-color:#A7D1DB"/>
			<stop  offset="1" style="stop-color:#5D8891"/>
		</linearGradient>
		<path fill="url(#SVGID_12_)" d="M82.583,661.82h-59.75c-1.795,0-3.25-1.455-3.25-3.25v-56.5c0-1.795,1.455-3.25,3.25-3.25h59.75
			V661.82z"/>
		<path opacity="0.4" fill="#F4F4F4" enable-background="new    " d="M23.021,661.82c-2.056,0-3.438-1.358-3.438-3.378v-56.226
			c0-2.031,1.379-3.396,3.432-3.396h59.568v1H23.017c-1.5,0-2.432,0.918-2.432,2.396v56.226c0,1.885,1.429,3.385,2.932,3.385
			L23.021,661.82z"/>
		<path opacity="0.4" fill="#171717" enable-background="new    " d="M22.329,661.796c0,0-1.453-0.219-2.25-1.476
			c0.969,0,61.005,0,61.005,0v-61.524h1.51v63H22.329z"/>
	</g>
	<g id="meegotouch-dialog-query-background">
		<rect x="21.5" y="547" fill="#F9F9F9" stroke="#303030" width="35" height="30"/>
	</g>
	<g id="meegotouch-button-dialog-background-pressed-vertical-bottom">
		<path fill="#080C0C" d="M92.963,414.045h65v61.001c0,2.209-1.791,4-4,4h-57c-2.209,0-4-1.791-4-4V414.045L92.963,414.045z"/>
		
			<linearGradient id="SVGID_13_" gradientUnits="userSpaceOnUse" x1="-239.7495" y1="-117.0425" x2="-302.7505" y2="-117.0425" gradientTransform="matrix(-4.366649e-008 -1 -1 4.366649e-008 8.4205 175.2952)">
			<stop  offset="0" style="stop-color:#5D8891"/>
			<stop  offset="1" style="stop-color:#A7D1DB"/>
		</linearGradient>
		<path fill="url(#SVGID_13_)" d="M93.963,415.045h63v59.751c0,1.795-1.455,3.25-3.25,3.25h-56.5c-1.795,0-3.25-1.455-3.25-3.25
			V415.045L93.963,415.045z"/>
		<path opacity="0.4" fill="#171717" enable-background="new    " d="M93.957,474.112c0,1.504,1.5,2.412,3.385,2.412h56.224
			c0.998,0,1.873-0.846,1.873-1.912v-59.567h1.524v59.567c0,2.054-1.365,3.434-3.397,3.434H97.341c-2.02,0-3.378-1.382-3.378-3.438
			L93.957,474.112z"/>
		<path opacity="0.4" fill="#F4F4F4" enable-background="new    " d="M93.988,415.035h63v0.927H94.939c0,0,0,60.203,0,61.172
			c-0.828-0.75-0.969-2.031-0.969-2.031L93.988,415.035z"/>
	</g>
	<g id="meegotouch-button-dialog-background-pressed-vertical-center">
		<g>
			
				<linearGradient id="SVGID_14_" gradientUnits="userSpaceOnUse" x1="118.1299" y1="-49.7881" x2="118.1299" y2="14.2119" gradientTransform="matrix(1 0 0 1 8 388)">
				<stop  offset="0" style="stop-color:#5D8891"/>
				<stop  offset="1" style="stop-color:#A7D1DB"/>
			</linearGradient>
			<rect x="94.13" y="338.212" fill="url(#SVGID_14_)" width="64" height="64"/>
			<path fill="#080C0C" d="M157.63,338.712v63h-63v-63H157.63 M158.63,337.712h-1h-63h-1v1v63v1h1h63h1v-1v-63V337.712
				L158.63,337.712z"/>
		</g>
		<polygon opacity="0.4" fill="#F4F4F4" enable-background="new    " points="95.635,401.719 95.635,339.722 157.619,339.722 
			157.619,338.706 157.619,338.706 94.619,338.706 94.619,401.706 		"/>
		<polygon opacity="0.4" fill="#171717" enable-background="new    " points="156.156,338.706 156.156,400.203 94.619,400.203 
			94.619,401.706 157.619,401.706 157.619,338.706 		"/>
	</g>
	<g id="meegotouch-button-dialog-background-pressed-vertical-top">
		<path fill="#080C0C" d="M92.963,330.462v-61c0-2.209,1.791-4,4-4h57c2.209,0,4,1.791,4,4v61H92.963z"/>
		
			<linearGradient id="SVGID_15_" gradientUnits="userSpaceOnUse" x1="-372.1675" y1="400.5918" x2="-309.1675" y2="400.5918" gradientTransform="matrix(4.366649e-008 1 1 -4.366649e-008 -275.129 638.6295)">
			<stop  offset="0" style="stop-color:#5D8891"/>
			<stop  offset="1" style="stop-color:#A7D1DB"/>
		</linearGradient>
		<path fill="url(#SVGID_15_)" d="M93.963,329.462v-59.75c0-1.795,1.455-3.25,3.25-3.25h56.5c1.795,0,3.25,1.455,3.25,3.25v59.75
			H93.963z"/>
		<path opacity="0.4" fill="#F4F4F4" enable-background="new    " d="M156.97,270.395c0-1.503-1.5-2.932-3.385-2.932H97.361
			c-1.479,0-2.397,0.932-2.397,2.432v59.567h-1v-59.568c0-2.053,1.365-3.432,3.397-3.432h56.224c2.02,0,3.378,1.382,3.378,3.438
			L156.97,270.395z"/>
		<path opacity="0.4" fill="#171717" enable-background="new    " d="M156.939,329.472h-63v-1.51h61.524c0,0,0-60.036,0-61.005
			c1.257,0.797,1.476,2.25,1.476,2.25V329.472z"/>
	</g>
	<g id="meegotouch-button-dialog-background-vertical-bottom">
		<path fill="#080C0C" d="M19.963,414.045h65v61.001c0,2.209-1.791,4-4,4h-57c-2.209,0-4-1.791-4-4V414.045L19.963,414.045z"/>
		
			<linearGradient id="SVGID_16_" gradientUnits="userSpaceOnUse" x1="-239.7495" y1="-44.0425" x2="-302.7505" y2="-44.0425" gradientTransform="matrix(-4.366649e-008 -1 -1 4.366649e-008 8.4205 175.2952)">
			<stop  offset="0" style="stop-color:#A7D1DB"/>
			<stop  offset="1" style="stop-color:#5D8891"/>
		</linearGradient>
		<path fill="url(#SVGID_16_)" d="M20.963,415.045h63v59.751c0,1.795-1.455,3.25-3.25,3.25h-56.5c-1.795,0-3.25-1.455-3.25-3.25
			V415.045L20.963,415.045z"/>
		<path opacity="0.4" fill="#171717" enable-background="new    " d="M20.957,474.112c0,1.504,1.5,2.412,3.385,2.412h56.224
			c0.998,0,1.873-0.846,1.873-1.912v-59.567h1.524v59.567c0,2.054-1.365,3.434-3.397,3.434H24.341c-2.02,0-3.378-1.382-3.378-3.438
			L20.957,474.112z"/>
		<path opacity="0.4" fill="#F4F4F4" enable-background="new    " d="M20.988,415.035h63v0.927H21.939c0,0,0,60.203,0,61.172
			c-0.828-0.75-0.969-2.031-0.969-2.031L20.988,415.035z"/>
	</g>
	<g id="meegotouch-button-dialog-background-vertical-center">
		<g>
			
				<linearGradient id="SVGID_17_" gradientUnits="userSpaceOnUse" x1="44.4629" y1="16.2119" x2="44.4629" y2="-47.7881" gradientTransform="matrix(1 0 0 1 8 388)">
				<stop  offset="0" style="stop-color:#5D8891"/>
				<stop  offset="1" style="stop-color:#A7D1DB"/>
			</linearGradient>
			<rect x="20.463" y="340.212" fill="url(#SVGID_17_)" width="64" height="64"/>
			<path fill="#080C0C" d="M83.963,340.712v63h-63v-63H83.963 M84.963,339.712h-1h-63h-1v1v63v1h1h63h1v-1v-63V339.712
				L84.963,339.712z"/>
		</g>
		<polygon opacity="0.4" fill="#F4F4F4" enable-background="new    " points="21.968,403.719 21.968,341.722 83.952,341.722 
			83.952,340.706 83.952,340.706 20.952,340.706 20.952,403.706 		"/>
		<polygon opacity="0.4" fill="#171717" enable-background="new    " points="82.489,340.706 82.489,402.203 20.952,402.203 
			20.952,403.706 83.952,403.706 83.952,340.706 		"/>
	</g>
	<g id="meegotouch-button-dialog-background-vertical-top">
		<path fill="#080C0C" d="M19.963,330.462v-61c0-2.209,1.791-4,4-4h57c2.209,0,4,1.791,4,4v61H19.963z"/>
		
			<linearGradient id="SVGID_18_" gradientUnits="userSpaceOnUse" x1="-372.1675" y1="327.5918" x2="-309.1675" y2="327.5918" gradientTransform="matrix(4.366649e-008 1 1 -4.366649e-008 -275.129 638.6295)">
			<stop  offset="0" style="stop-color:#A7D1DB"/>
			<stop  offset="1" style="stop-color:#5D8891"/>
		</linearGradient>
		<path fill="url(#SVGID_18_)" d="M20.963,329.462v-59.75c0-1.795,1.455-3.25,3.25-3.25h56.5c1.795,0,3.25,1.455,3.25,3.25v59.75
			H20.963z"/>
		<path opacity="0.4" fill="#F4F4F4" enable-background="new    " d="M83.97,270.395c0-1.503-1.5-2.932-3.385-2.932H24.361
			c-1.479,0-2.397,0.932-2.397,2.432v59.567h-1v-59.568c0-2.053,1.365-3.432,3.397-3.432h56.224c2.02,0,3.378,1.382,3.378,3.438
			L83.97,270.395z"/>
		<path opacity="0.4" fill="#171717" enable-background="new    " d="M83.939,329.472h-63v-1.51h61.524c0,0,0-60.036,0-61.005
			c1.257,0.797,1.476,2.25,1.476,2.25V329.472z"/>
	</g>
	<g id="meegotouch-button-dialog-background-pressed">
		
			<linearGradient id="SVGID_19_" gradientUnits="userSpaceOnUse" x1="266.7285" y1="-196.7881" x2="266.7285" y2="-132.7881" gradientTransform="matrix(1 0 0 1 8 388)">
			<stop  offset="0" style="stop-color:#5D8891"/>
			<stop  offset="1" style="stop-color:#A7D1DB"/>
		</linearGradient>
		<path fill="url(#SVGID_19_)" stroke="#080C0C" d="M306.729,251.212c0,2.209-1.791,4-4,4h-56c-2.209,0-4-1.791-4-4v-56
			c0-2.209,1.791-4,4-4h56c2.209,0,4,1.791,4,4V251.212z"/>
		<path opacity="0.4" fill="#171717" enable-background="new    " d="M304.641,194.962v56.5c0,0.669-0.888,1.71-1.662,1.71h-56.5
			c-0.957,0.038-2.123,0.057-3.062-0.88c0.688,1.521,1.042,1.521,1.375,1.854c0.496,0.306,1.062,0.566,1.687,0.566h56.5
			c1.554,0,3.25-1.634,3.25-3.25v-56.5c0-0.937-0.5-1.744-1.135-2.337c-0.349-0.266-0.609-0.5-1.203-0.703
			c-0.091,0.046,0.227,0.598,0.424,1.016C304.511,193.356,304.641,194.176,304.641,194.962z"/>
		<path opacity="0.4" fill="#F4F4F4" enable-background="new    " d="M246.479,191.712c-1.795,0-3.25,1.455-3.25,3.25v56.5
			c0,1.169,0.888,2.236,1.813,2.809c0.104,0.125-0.053-0.279-0.396-0.813c-0.375-0.583-0.418-1.192-0.418-1.997v-56.5
			c0-1.241,1.01-2.25,2.25-2.25h56.5c0.453,0,1.137,0.042,1.475,0.179c0.338,0.137,1.188,0.802,1.391,0.766
			c-0.156-0.359-0.375-0.578-0.609-0.859c-0.577-0.563-1.452-1.063-2.256-1.085H246.479L246.479,191.712z"/>
	</g>
	<g id="meegotouch-button-dialog-background-pressed-horizontal-right">
		<path fill="#080C0C" d="M166.583,190.712h61.001c2.209,0,4,1.791,4,4v57c0,2.209-1.791,4-4,4h-61.001V190.712L166.583,190.712z"/>
		
			<linearGradient id="SVGID_20_" gradientUnits="userSpaceOnUse" x1="-801.9165" y1="427.8369" x2="-801.9165" y2="490.8369" gradientTransform="matrix(-1 0 0 -1 -602.833 682.5488)">
			<stop  offset="0" style="stop-color:#A7D1DB"/>
			<stop  offset="1" style="stop-color:#5D8891"/>
		</linearGradient>
		<path fill="url(#SVGID_20_)" d="M167.583,191.712h59.751c1.795,0,3.25,1.455,3.25,3.25v56.5c0,1.795-1.455,3.25-3.25,3.25h-59.751
			V191.712L167.583,191.712z"/>
		<path opacity="0.4" fill="#171717" enable-background="new    " d="M227.146,191.712c2.056,0,3.438,1.358,3.438,3.378v56.224
			c0,2.032-1.38,3.397-3.434,3.397h-59.567v-1.524h59.567c1.066,0,1.912-0.875,1.912-1.873V195.09c0-1.885-0.908-3.385-2.412-3.385
			L227.146,191.712z"/>
		<path opacity="0.4" fill="#F4F4F4" enable-background="new    " d="M227.641,191.719c0,0,1.281,0.141,2.031,0.969
			c-0.969,0-61.172,0-61.172,0v62.049h-0.927v-63L227.641,191.719z"/>
	</g>
	<g id="meegotouch-button-dialog-background-pressed-horizontal-center">
		<g>
			
				<linearGradient id="SVGID_21_" gradientUnits="userSpaceOnUse" x1="117.9741" y1="-132.7881" x2="117.9741" y2="-196.7881" gradientTransform="matrix(1 0 0 1 8 388)">
				<stop  offset="0" style="stop-color:#A7D1DB"/>
				<stop  offset="1" style="stop-color:#5D8891"/>
			</linearGradient>
			<rect x="93.974" y="191.212" fill="url(#SVGID_21_)" width="64" height="64"/>
			<path fill="#080C0C" d="M157.474,191.712v63h-63v-63H157.474 M158.474,190.712h-1h-63h-1v1v63v1h1h63h1v-1v-63V190.712
				L158.474,190.712z"/>
		</g>
		<polygon opacity="0.4" fill="#F4F4F4" enable-background="new    " points="95.479,254.719 95.479,192.722 157.463,192.722 
			157.463,191.706 157.463,191.706 94.463,191.706 94.463,254.706 		"/>
		<polygon opacity="0.4" fill="#171717" enable-background="new    " points="156,191.706 156,253.203 94.463,253.203 
			94.463,254.706 157.463,254.706 157.463,191.706 		"/>
	</g>
	<g id="meegotouch-button-dialog-background-pressed-horizontal-left">
		<path fill="#080C0C" d="M85.083,255.712h-61c-2.209,0-4-1.791-4-4v-57c0-2.209,1.791-4,4-4h61V255.712z"/>
		
			<linearGradient id="SVGID_22_" gradientUnits="userSpaceOnUse" x1="44.583" y1="-196.2881" x2="44.583" y2="-133.2881" gradientTransform="matrix(1 0 0 1 8 388)">
			<stop  offset="0" style="stop-color:#5D8891"/>
			<stop  offset="1" style="stop-color:#A7D1DB"/>
		</linearGradient>
		<path fill="url(#SVGID_22_)" d="M84.083,254.712h-59.75c-1.795,0-3.25-1.455-3.25-3.25v-56.5c0-1.795,1.455-3.25,3.25-3.25h59.75
			V254.712z"/>
		<path opacity="0.4" fill="#F4F4F4" enable-background="new    " d="M24.521,254.712c-2.056,0-3.438-1.358-3.438-3.378V195.11
			c0-2.032,1.379-3.397,3.432-3.397h59.568v1H24.516c-1.5,0-2.432,0.918-2.432,2.397v56.224c0,1.885,1.429,3.385,2.932,3.385
			L24.521,254.712z"/>
		<path opacity="0.4" fill="#171717" enable-background="new    " d="M23.828,254.688c0,0-1.453-0.219-2.25-1.476
			c0.969,0,61.005,0,61.005,0v-61.524h1.51v63H23.828z"/>
	</g>
	<g id="meegotouch-button-dialog-background">
		
			<linearGradient id="SVGID_23_" gradientUnits="userSpaceOnUse" x1="266.7285" y1="-270.7881" x2="266.7285" y2="-206.7881" gradientTransform="matrix(1 0 0 1 8 388)">
			<stop  offset="0" style="stop-color:#A7D1DB"/>
			<stop  offset="1" style="stop-color:#5D8891"/>
		</linearGradient>
		<path fill="url(#SVGID_23_)" stroke="#080C0C" d="M306.729,177.212c0,2.209-1.791,4-4,4h-56c-2.209,0-4-1.791-4-4v-56
			c0-2.209,1.791-4,4-4h56c2.209,0,4,1.791,4,4V177.212z"/>
		<path opacity="0.4" fill="#171717" enable-background="new    " d="M304.641,120.962v56.5c0,0.669-0.888,1.71-1.662,1.71h-56.5
			c-0.957,0.038-2.123,0.057-3.062-0.88c0.688,1.521,1.042,1.521,1.375,1.854c0.496,0.306,1.062,0.566,1.687,0.566h56.5
			c1.554,0,3.25-1.634,3.25-3.25v-56.5c0-0.937-0.5-1.744-1.135-2.337c-0.349-0.266-0.609-0.5-1.203-0.703
			c-0.091,0.046,0.227,0.598,0.424,1.016C304.511,119.356,304.641,120.176,304.641,120.962z"/>
		<path opacity="0.4" fill="#F4F4F4" enable-background="new    " d="M246.479,117.712c-1.795,0-3.25,1.455-3.25,3.25v56.5
			c0,1.169,0.888,2.236,1.813,2.809c0.104,0.125-0.053-0.279-0.396-0.813c-0.375-0.583-0.418-1.192-0.418-1.997v-56.5
			c0-1.241,1.01-2.25,2.25-2.25h56.5c0.453,0,1.137,0.042,1.475,0.179c0.338,0.137,1.188,0.802,1.391,0.766
			c-0.156-0.359-0.375-0.578-0.609-0.859c-0.577-0.563-1.452-1.063-2.256-1.085H246.479z"/>
	</g>
	<g id="meegotouch-button-dialog-background-horizontal-right">
		<path fill="#080C0C" d="M166.583,116.712h61.001c2.209,0,4,1.791,4,4v57c0,2.209-1.791,4-4,4h-61.001V116.712L166.583,116.712z"/>
		
			<linearGradient id="SVGID_24_" gradientUnits="userSpaceOnUse" x1="-801.9165" y1="501.8359" x2="-801.9165" y2="564.8359" gradientTransform="matrix(-1 0 0 -1 -602.833 682.5488)">
			<stop  offset="0" style="stop-color:#5D8891"/>
			<stop  offset="1" style="stop-color:#A7D1DB"/>
		</linearGradient>
		<path fill="url(#SVGID_24_)" d="M167.583,117.712h59.751c1.795,0,3.25,1.455,3.25,3.25v56.5c0,1.795-1.455,3.25-3.25,3.25h-59.751
			V117.712L167.583,117.712z"/>
		<path opacity="0.4" fill="#171717" enable-background="new    " d="M227.146,117.712c2.056,0,3.438,1.358,3.438,3.378v56.224
			c0,2.032-1.38,3.397-3.434,3.397h-59.567v-1.524h59.567c1.066,0,1.912-0.875,1.912-1.873V121.09c0-1.885-0.908-3.385-2.412-3.385
			L227.146,117.712z"/>
		<path opacity="0.4" fill="#F4F4F4" enable-background="new    " d="M227.641,117.719c0,0,1.281,0.141,2.031,0.969
			c-0.969,0-61.172,0-61.172,0v62.049h-0.927v-63L227.641,117.719z"/>
	</g>
	<g id="meegotouch-button-dialog-background-horizontal-center">
		<g>
			
				<linearGradient id="SVGID_25_" gradientUnits="userSpaceOnUse" x1="117.9741" y1="-206.7881" x2="117.9741" y2="-270.7881" gradientTransform="matrix(1 0 0 1 8 388)">
				<stop  offset="0" style="stop-color:#5D8891"/>
				<stop  offset="1" style="stop-color:#A7D1DB"/>
			</linearGradient>
			<rect x="93.974" y="117.212" fill="url(#SVGID_25_)" width="64" height="64"/>
			<path fill="#080C0C" d="M157.474,117.712v63h-63v-63H157.474 M158.474,116.712h-1h-63h-1v1v63v1h1h63h1v-1v-63V116.712
				L158.474,116.712z"/>
		</g>
		<polygon opacity="0.4" fill="#F4F4F4" enable-background="new    " points="95.479,180.719 95.479,118.722 157.463,118.722 
			157.463,117.706 157.463,117.706 94.463,117.706 94.463,180.706 		"/>
		<polygon opacity="0.4" fill="#171717" enable-background="new    " points="156,117.706 156,179.203 94.463,179.203 
			94.463,180.706 157.463,180.706 157.463,117.706 		"/>
	</g>
	<g id="meegotouch-button-dialog-background-horizontal-left">
		<path fill="#080C0C" d="M85.083,181.712h-61c-2.209,0-4-1.791-4-4v-57c0-2.209,1.791-4,4-4h61V181.712z"/>
		
			<linearGradient id="SVGID_26_" gradientUnits="userSpaceOnUse" x1="44.583" y1="-270.2881" x2="44.583" y2="-207.2881" gradientTransform="matrix(1 0 0 1 8 388)">
			<stop  offset="0" style="stop-color:#A7D1DB"/>
			<stop  offset="1" style="stop-color:#5D8891"/>
		</linearGradient>
		<path fill="url(#SVGID_26_)" d="M84.083,180.712h-59.75c-1.795,0-3.25-1.455-3.25-3.25v-56.5c0-1.795,1.455-3.25,3.25-3.25h59.75
			V180.712z"/>
		<path opacity="0.4" fill="#F4F4F4" enable-background="new    " d="M24.521,180.712c-2.056,0-3.438-1.358-3.438-3.378V121.11
			c0-2.032,1.379-3.397,3.432-3.397h59.568v1H24.516c-1.5,0-2.432,0.918-2.432,2.397v56.224c0,1.885,1.429,3.385,2.932,3.385
			L24.521,180.712z"/>
		<path opacity="0.4" fill="#171717" enable-background="new    " d="M23.828,180.688c0,0-1.453-0.219-2.25-1.476
			c0.969,0,61.005,0,61.005,0v-61.524h1.51v63H23.828z"/>
	</g>
	<g id="meegotouch-dialog-background">
		<rect x="69.5" y="56.041" fill="#F9F9F9" width="38" height="50"/>
	</g>
	<g id="meegotouch-dialog-header-background">
		<linearGradient id="SVGID_27_" gradientUnits="userSpaceOnUse" x1="42.0415" y1="55.5" x2="42.0415" y2="105.5">
			<stop  offset="0" style="stop-color:#BEBEBE"/>
			<stop  offset="1" style="stop-color:#9F9F9F"/>
		</linearGradient>
		<rect x="22.042" y="55.5" fill="url(#SVGID_27_)" width="40" height="50"/>
		<rect x="22.042" y="55.5" opacity="0.5" width="40" height="0.909"/>
		<rect x="22.042" y="104.591" fill="#8B8B8B" width="40" height="0.909"/>
	</g>
</g>
</svg>
