<?xml version="1.0" encoding="utf-8"?>
<!-- Generator: Adobe Illustrator 14.0.0, SVG Export Plug-In . SVG Version: 6.00 Build 43363)  -->
<!DOCTYPE svg PUBLIC "-//W3C//DTD SVG 1.1//EN" "http://www.w3.org/Graphics/SVG/1.1/DTD/svg11.dtd">
<svg version="1.1" id="Layer_1" xmlns="http://www.w3.org/2000/svg" xmlns:xlink="http://www.w3.org/1999/xlink" x="0px" y="0px"
	 width="431.977px" height="1031.311px" viewBox="0 0 431.977 1031.311" enable-background="new 0 0 431.977 1031.311"
	 xml:space="preserve">
<g id="meegotouch-button-layer">
</g>
<g id="theme">
	<g id="meegotouch-button">
		<g id="MeegoTouchButtonThemeTemplateHelper">
			<g>
				<path fill="#B3B3B3" d="M16,1031.811c-8.271,0-15-6.729-15-15V16C1,7.729,7.729,1,16,1h399.978c8.271,0,15,6.729,15,15v1000.811
					c0,8.271-6.729,15-15,15H16z"/>
				<g>
					<path d="M415.977,2c7.725,0,14,6.28,14,14v1000.811c0,7.722-6.275,14-14,14H16c-7.72,0-14-6.278-14-14V16C2,8.28,8.279,2,16,2
						H415.977 M415.977,0H16C7.2,0,0,7.2,0,16v1000.811c0,8.801,7.2,16,16,16h399.978c8.803,0,16-7.199,16-16V16
						C431.977,7.2,424.776,0,415.977,0L415.977,0z"/>
				</g>
			</g>
			<path fill="#010101" d="M58.896,39.072h-4.152V23.784h4.471c2.83,0,4.244,1.233,4.244,3.701c0,1.75-0.799,2.926-2.398,3.527
				c1.906,0.431,2.859,1.682,2.859,3.753C63.918,37.636,62.245,39.072,58.896,39.072z M56.946,30.397h1.59
				c0.916,0,1.59-0.219,2.02-0.656c0.432-0.438,0.646-1.121,0.646-2.051c0-1.613-0.783-2.42-2.348-2.42h-1.908V30.397z
				 M56.946,37.585h1.846c0.998,0,1.721-0.223,2.164-0.671c0.445-0.448,0.666-1.185,0.666-2.21c0-1.887-0.957-2.83-2.871-2.83
				h-1.805V37.585z"/>
			<path fill="#010101" d="M69.774,39.236c-1.217,0-2.127-0.315-2.732-0.948s-0.908-1.581-0.908-2.846v-8.295h2.186v7.916
				c0,0.895,0.156,1.566,0.471,2.015c0.315,0.449,0.789,0.671,1.426,0.671c0.793,0,1.406-0.301,1.84-0.902
				c0.436-0.602,0.652-1.384,0.652-2.348v-7.352h2.184v11.925h-1.211l-0.439-1.764C72.481,38.593,71.328,39.236,69.774,39.236z"/>
			<path fill="#010101" d="M80.92,39.236c-0.93,0-1.609-0.217-2.039-0.651c-0.432-0.434-0.646-1.126-0.646-2.076v-7.937h-1.568
				v-0.82l3.188-3.251h0.564v2.646h2.902v1.425h-2.902v7.577c0,0.65,0.105,1.079,0.318,1.287c0.211,0.209,0.533,0.312,0.963,0.312
				c0.445,0,1.047-0.099,1.805-0.297v1.415C82.588,39.113,81.728,39.236,80.92,39.236z"/>
			<path fill="#010101" d="M88.211,39.236c-0.93,0-1.609-0.217-2.039-0.651c-0.432-0.434-0.646-1.126-0.646-2.076v-7.937h-1.568
				v-0.82l3.188-3.251h0.564v2.646h2.902v1.425H87.71v7.577c0,0.65,0.105,1.079,0.318,1.287c0.211,0.209,0.533,0.312,0.963,0.312
				c0.445,0,1.047-0.099,1.805-0.297v1.415C89.879,39.113,89.019,39.236,88.211,39.236z"/>
			<path fill="#010101" d="M96.601,39.236c-1.607,0-2.809-0.526-3.609-1.579c-0.799-1.053-1.199-2.632-1.199-4.737
				c0-1.832,0.414-3.281,1.246-4.348c0.83-1.066,2.018-1.6,3.562-1.6c1.559,0,2.75,0.526,3.574,1.579
				c0.822,1.053,1.234,2.522,1.234,4.409c0,1.941-0.385,3.473-1.152,4.594C99.487,38.676,98.269,39.236,96.601,39.236z
				 M96.601,37.831c0.842,0,1.475-0.381,1.902-1.143c0.427-0.762,0.641-2.039,0.641-3.83c0-1.265-0.219-2.326-0.656-3.184
				c-0.437-0.858-1.066-1.287-1.887-1.287c-0.834,0-1.467,0.387-1.896,1.158c-0.432,0.773-0.646,1.877-0.646,3.312
				c0,1.613,0.215,2.846,0.646,3.696C95.133,37.406,95.767,37.831,96.601,37.831z"/>
			<path fill="#010101" d="M112.638,39.072h-2.184v-7.916c0-0.896-0.158-1.567-0.473-2.015c-0.315-0.448-0.785-0.672-1.414-0.672
				c-0.793,0-1.408,0.301-1.846,0.902s-0.656,1.385-0.656,2.348v7.354h-2.186V27.147h1.221l0.441,1.764
				c0.758-1.293,1.914-1.938,3.465-1.938c1.211,0,2.119,0.317,2.723,0.954c0.605,0.635,0.908,1.586,0.908,2.85L112.638,39.072
				L112.638,39.072z"/>
			<path fill="#010101" d="M126.737,37.349c-0.738,1.258-1.887,1.887-3.445,1.887c-1.088,0-1.934-0.306-2.539-0.918
				c-0.604-0.611-0.906-1.468-0.906-2.568c0-1.135,0.311-1.979,0.934-2.538c0.621-0.557,1.365-0.905,2.234-1.046
				c0.867-0.14,1.924-0.21,3.168-0.21v-1.404c0-1.389-0.742-2.082-2.225-2.082c-0.855,0-1.896,0.182-3.127,0.543v-1.527
				c1.236-0.342,2.412-0.513,3.527-0.513c1.312,0,2.309,0.316,2.988,0.948c0.68,0.633,1.021,1.564,1.021,2.795v8.356h-1.189
				L126.737,37.349z M126.183,33.259h-1.219c-0.979,0-1.711,0.207-2.201,0.62c-0.488,0.413-0.732,1.03-0.732,1.851
				c0,0.67,0.148,1.171,0.445,1.502c0.299,0.332,0.744,0.498,1.34,0.498c0.75,0,1.334-0.24,1.748-0.719
				c0.412-0.479,0.619-1.127,0.619-1.947V33.259L126.183,33.259z"/>
			<path fill="#010101" d="M140.067,39.072h-2.186v-7.916c0-0.896-0.156-1.567-0.471-2.015c-0.315-0.448-0.787-0.672-1.416-0.672
				c-0.793,0-1.408,0.301-1.846,0.902s-0.656,1.385-0.656,2.348v7.354h-2.184V27.147h1.221l0.441,1.764
				c0.758-1.293,1.912-1.938,3.465-1.938c1.211,0,2.117,0.317,2.723,0.954c0.605,0.635,0.908,1.586,0.908,2.85L140.067,39.072
				L140.067,39.072z"/>
			<path fill="#010101" d="M150.463,39.072l-0.461-1.466c-0.631,1.086-1.707,1.63-3.23,1.63c-1.416,0-2.48-0.501-3.195-1.502
				c-0.713-1.001-1.07-2.565-1.07-4.691c0-1.784,0.381-3.241,1.143-4.373c0.762-1.132,1.844-1.697,3.246-1.697
				c1.148,0,2.01,0.345,2.584,1.036v-5.168h2.184v16.231H150.463z M149.551,33.637l-0.012-0.677c0-1.777-0.199-2.978-0.6-3.599
				c-0.4-0.623-0.969-0.934-1.707-0.934c-0.82,0-1.436,0.379-1.846,1.139c-0.41,0.758-0.615,1.896-0.615,3.414
				c0,1.593,0.197,2.785,0.596,3.578c0.395,0.793,0.99,1.189,1.783,1.189c0.771,0,1.365-0.287,1.779-0.861
				C149.343,36.313,149.551,35.23,149.551,33.637z"/>
			<path fill="#010101" d="M164.03,39.236c-1.621,0-2.846-0.531-3.672-1.595c-0.828-1.062-1.24-2.623-1.24-4.681
				c0-1.914,0.445-3.391,1.338-4.43c0.895-1.039,2.189-1.559,3.893-1.559c0.664,0,1.336,0.085,2.021,0.257v1.486
				c-0.521-0.164-1.166-0.246-1.938-0.246c-0.998,0-1.754,0.398-2.271,1.194c-0.518,0.797-0.773,1.909-0.773,3.338
				c0,1.538,0.258,2.714,0.773,3.527c0.518,0.813,1.271,1.22,2.271,1.22c0.86,0,1.535-0.078,2.021-0.235v1.415
				C165.717,39.134,164.912,39.236,164.03,39.236z"/>
			<path fill="#010101" d="M177.155,39.072h-2.186v-8.11c0-0.828-0.156-1.449-0.471-1.867c-0.314-0.416-0.787-0.625-1.416-0.625
				c-0.793,0-1.408,0.301-1.846,0.902s-0.656,1.385-0.656,2.348v7.354h-2.186V22.841h2.186v5.455c0.76-0.883,1.74-1.323,2.941-1.323
				c1.213,0,2.117,0.323,2.725,0.969c0.604,0.646,0.908,1.612,0.908,2.897L177.155,39.072L177.155,39.072z"/>
			<path fill="#010101" d="M187.912,37.247v1.486c-1.074,0.336-2.187,0.503-3.334,0.503c-1.668,0-2.916-0.503-3.742-1.507
				c-0.827-1.006-1.239-2.554-1.239-4.646c0-1.839,0.399-3.317,1.198-4.435c0.802-1.118,1.941-1.677,3.427-1.677
				c1.201,0,2.104,0.319,2.711,0.959c0.607,0.64,0.992,1.422,1.164,2.348c0.17,0.927,0.256,2.028,0.256,3.308h-6.438
				c0,1.387,0.246,2.428,0.737,3.122c0.492,0.694,1.23,1.04,2.216,1.04C185.698,37.749,186.713,37.582,187.912,37.247z
				 M181.912,32.243h4.297c0-1.442-0.172-2.461-0.512-3.056c-0.345-0.595-0.836-0.892-1.478-0.892c-0.72,0-1.269,0.307-1.646,0.922
				C182.194,29.832,181.974,30.842,181.912,32.243z"/>
			<path fill="#010101" d="M195.19,39.236c-1.621,0-2.844-0.531-3.672-1.595c-0.826-1.062-1.24-2.623-1.24-4.681
				c0-1.914,0.447-3.391,1.338-4.43c0.895-1.039,2.189-1.559,3.895-1.559c0.662,0,1.336,0.085,2.021,0.257v1.486
				c-0.521-0.164-1.166-0.246-1.938-0.246c-0.998,0-1.757,0.398-2.271,1.194c-0.518,0.797-0.775,1.909-0.775,3.338
				c0,1.538,0.26,2.714,0.775,3.527c0.514,0.813,1.271,1.22,2.271,1.22c0.86,0,1.532-0.078,2.021-0.235v1.415
				C196.877,39.134,196.071,39.236,195.19,39.236z"/>
			<path fill="#010101" d="M204.082,32.335l4.348,6.737h-2.584l-4.102-6.491v6.491h-2.188V22.841h2.188v9.699l4.039-5.393h2.389
				L204.082,32.335z"/>
			<path fill="#010101" d="M224.827,39.072h-2.187v-8.214c0-0.793-0.147-1.389-0.445-1.789c-0.297-0.399-0.743-0.6-1.338-0.6
				c-0.77,0-1.354,0.301-1.771,0.902s-0.619,1.385-0.619,2.348v7.354h-2.186v-8.214c0-0.793-0.152-1.389-0.455-1.789
				c-0.308-0.399-0.765-0.6-1.37-0.6c-0.752,0-1.334,0.305-1.744,0.912c-0.41,0.609-0.615,1.389-0.615,2.338v7.354h-2.184V27.147
				h1.221l0.441,1.764c0.729-1.293,1.846-1.938,3.342-1.938c0.794,0,1.452,0.15,1.978,0.451c0.521,0.301,0.904,0.752,1.15,1.354
				c0.68-1.203,1.762-1.805,3.252-1.805c1.176,0,2.059,0.317,2.646,0.954c0.588,0.635,0.884,1.586,0.884,2.85V39.072L224.827,39.072
				z"/>
			<path fill="#010101" d="M233.952,37.349c-0.738,1.258-1.888,1.887-3.443,1.887c-1.09,0-1.936-0.306-2.538-0.918
				c-0.604-0.611-0.906-1.468-0.906-2.568c0-1.135,0.313-1.979,0.938-2.538c0.621-0.557,1.364-0.905,2.229-1.046
				c0.867-0.14,1.928-0.21,3.168-0.21v-1.404c0-1.389-0.737-2.082-2.229-2.082c-0.854,0-1.896,0.182-3.127,0.543v-1.527
				c1.236-0.342,2.412-0.513,3.525-0.513c1.313,0,2.313,0.316,2.988,0.948c0.682,0.633,1.021,1.564,1.021,2.795v8.356h-1.188
				L233.952,37.349z M233.396,33.259h-1.222c-0.979,0-1.712,0.207-2.198,0.62c-0.488,0.413-0.731,1.03-0.731,1.851
				c0,0.67,0.147,1.171,0.444,1.502c0.299,0.332,0.744,0.498,1.34,0.498c0.75,0,1.334-0.24,1.748-0.719
				c0.412-0.479,0.619-1.127,0.619-1.947V33.259L233.396,33.259z"/>
			<path fill="#010101" d="M239.745,27.147l0.502,1.988c0.662-1.4,1.817-2.102,3.469-2.102c0.218,0,0.38,0.01,0.479,0.031v1.988
				c-0.17-0.014-0.428-0.02-0.771-0.02c-0.938,0-1.625,0.224-2.063,0.671c-0.438,0.448-0.654,1.147-0.654,2.097v7.271h-2.188V27.147
				H239.745z"/>
			<path fill="#010101" d="M250.542,32.335l4.349,6.737h-2.584l-4.103-6.491v6.491h-2.187V22.841h2.187v9.699l4.041-5.393h2.389
				L250.542,32.335z"/>
		</g>
		<g id="meegotouch-button-checkbox-background-pressed">
			<rect id="bbox3_1_" x="95.488" y="939.146" fill="none" width="64" height="64"/>
			<g>
				
					<linearGradient id="SVGID_1_" gradientUnits="userSpaceOnUse" x1="445.4873" y1="560.6641" x2="445.4873" y2="520.6641" gradientTransform="matrix(1 0 0 -1 -318 1511.8105)">
					<stop  offset="0" style="stop-color:#A7D1DB"/>
					<stop  offset="1" style="stop-color:#5D8891"/>
				</linearGradient>
				<path opacity="0.8" fill="url(#SVGID_1_)" stroke="#080C0C" enable-background="new    " d="M147.488,987.146
					c0,2.209-1.791,4-4,4h-32c-2.209,0-4-1.791-4-4v-32c0-2.209,1.791-4,4-4h32c2.209,0,4,1.791,4,4V987.146z"/>
				<g>
					<path opacity="0.4" fill="#F4F4F4" enable-background="new    " d="M111.072,990.593c-1.604,0-3.083-1.82-3.083-3.219v-31.973
						c0-2.281,1.495-3.757,3.807-3.757c0,0,30.026,0,31.698,0c1.672,0,2.719,1.291,2.719,1.291s-1.422-0.291-2.719-0.291
						c-1.297,0-31.698,0-31.698,0c-1.758,0-2.807,1.028-2.807,2.757v31.973C108.988,989.52,111.072,990.593,111.072,990.593z"/>
				</g>
			</g>
		</g>
		<g id="meegotouch-button-checkbox-background">
			<rect x="23.785" y="939.424" fill="none" width="64" height="64"/>
			<g>
				
					<linearGradient id="SVGID_2_" gradientUnits="userSpaceOnUse" x1="373.7852" y1="560.3867" x2="373.7852" y2="520.3867" gradientTransform="matrix(1 0 0 -1 -318 1511.8105)">
					<stop  offset="0.0028" style="stop-color:#C5C5C5"/>
					<stop  offset="1" style="stop-color:#C3C3C3"/>
				</linearGradient>
				<path opacity="0.6" fill="url(#SVGID_2_)" stroke="#000000" enable-background="new    " d="M75.785,987.424
					c0,2.209-1.791,4-4,4h-32c-2.209,0-4-1.791-4-4v-32c0-2.209,1.791-4,4-4h32c2.209,0,4,1.791,4,4V987.424z"/>
				<g>
					<path opacity="0.4" fill="#F4F4F4" enable-background="new    " d="M39.368,990.871c-1.604,0-3.083-1.823-3.083-3.219v-31.976
						c0-2.278,1.495-3.756,3.807-3.756c0,0,30.026,0,31.698,0s2.719,1.291,2.719,1.291s-1.422-0.291-2.719-0.291s-31.698,0-31.698,0
						c-1.758,0-2.807,1.03-2.807,2.756v31.976C37.285,989.798,39.368,990.871,39.368,990.871z"/>
				</g>
			</g>
		</g>
		<g id="meegotouch-button-checkbox-checkmark-pressed">
			<rect id="bbox2" x="252.909" y="939.086" fill="none" width="64" height="64"/>
			<g id="check2_1_" opacity="0.26">
				<path fill="none" stroke="#000000" stroke-width="0.5" d="M279.456,983.071c-0.53,0-1.039-0.211-1.414-0.586l-9.063-9.063
					c-0.779-0.78-0.779-2.047,0-2.828c0.781-0.779,2.047-0.779,2.828,0l7.649,7.649l18.555-18.559c0.781-0.78,2.048-0.78,2.828,0
					c0.781,0.779,0.781,2.048,0,2.828l-19.969,19.973C280.495,982.86,279.986,983.071,279.456,983.071L279.456,983.071z"/>
			</g>
			<path id="check2" fill="none" stroke="#E0E0E0" stroke-width="4" stroke-linecap="round" stroke-linejoin="round" d="
				M270.393,972.008l9.063,9.063l19.969-19.973"/>
		</g>
		<g id="meegotouch-button-checkbox-checkmark">
			<rect id="bbox1" x="173.933" y="939.753" fill="none" width="64" height="64"/>
			<g id="check2_2_" opacity="0.26">
				<path fill="none" stroke="#000000" stroke-width="0.5" d="M200.481,983.738c-0.53,0-1.039-0.211-1.414-0.586l-9.063-9.063
					c-0.781-0.78-0.781-2.047,0-2.828c0.781-0.78,2.047-0.78,2.828,0l7.649,7.648l18.554-18.558c0.781-0.78,2.047-0.78,2.828,0
					c0.781,0.778,0.781,2.048,0,2.827l-19.968,19.973C201.52,983.527,201.011,983.738,200.481,983.738L200.481,983.738z"/>
			</g>
			<path id="check" fill="none" stroke="#FFFFFF" stroke-width="4" stroke-linecap="round" stroke-linejoin="round" d="
				M191.419,972.674l9.063,9.064l19.966-19.972"/>
		</g>
		<g id="meegotouch-button-background-selected">
			<g>
				<g>
					
						<linearGradient id="SVGID_3_" gradientUnits="userSpaceOnUse" x1="199.3872" y1="970.4805" x2="199.3872" y2="907.4805" gradientTransform="matrix(1 0 0 -1 4 1025.3105)">
						<stop  offset="0" style="stop-color:#5D8891"/>
						<stop  offset="1" style="stop-color:#A7D1DB"/>
					</linearGradient>
					<path fill="url(#SVGID_3_)" d="M175.387,117.83c-1.93,0-3.5-1.57-3.5-3.5v-56c0-1.93,1.57-3.5,3.5-3.5h56
						c1.93,0,3.5,1.57,3.5,3.5v56c0,1.93-1.57,3.5-3.5,3.5H175.387z"/>
					<path fill="#080C0C" d="M231.387,55.33c1.654,0,3,1.346,3,3v56c0,1.654-1.346,3-3,3h-56c-1.654,0-3-1.346-3-3v-56
						c0-1.654,1.346-3,3-3H231.387 M231.387,54.33h-56c-2.209,0-4,1.791-4,4v56c0,2.209,1.791,4,4,4h56c2.209,0,4-1.791,4-4v-56
						C235.387,56.121,233.596,54.33,231.387,54.33L231.387,54.33z"/>
				</g>
				<path opacity="0.4" fill="#171717" enable-background="new    " d="M232.811,58.56v55.544c0,0.658-0.873,1.681-1.634,1.681
					h-55.544c-0.941,0.037-2.226-0.037-3.149-0.959c0.188,1.229,0.944,1.673,1.271,2c0.583,0.354,1.104,0.521,1.878,0.473h55.914
					c1.527,0,2.825-1.354,2.825-2.941V58.56c0.05-0.983-0.169-1.577-0.981-2.468c-0.343-0.262-0.922-0.641-1.594-0.734
					c-0.089,0.045,0.5,0.802,0.694,1.213C232.684,56.981,232.811,57.787,232.811,58.56z"/>
				<path opacity="0.4" fill="#F4F4F4" enable-background="new    " d="M175.554,55.352c-1.92,0-3.188,1.266-3.188,3.197v55.578
					c0,1.617,1.102,2.784,1.956,2.992c-0.958-0.792-0.976-1.667-0.976-2.993V58.547c0-1.221,0.991-2.213,2.207-2.213h56.007
					c1.58,0,2.282,0.773,2.782,1.429c0-0.563-1.016-2.41-2.78-2.41L175.554,55.352L175.554,55.352z"/>
			</g>
		</g>
		<g id="meegotouch-button-background-pressed">
			<g>
				<g>
					
						<linearGradient id="SVGID_4_" gradientUnits="userSpaceOnUse" x1="125.7202" y1="970.4805" x2="125.7202" y2="907.4805" gradientTransform="matrix(1 0 0 -1 4 1025.3105)">
						<stop  offset="0" style="stop-color:#5D8891"/>
						<stop  offset="1" style="stop-color:#A7D1DB"/>
					</linearGradient>
					<path fill="url(#SVGID_4_)" d="M101.72,117.83c-1.93,0-3.5-1.57-3.5-3.5v-56c0-1.93,1.57-3.5,3.5-3.5h56
						c1.93,0,3.5,1.57,3.5,3.5v56c0,1.93-1.57,3.5-3.5,3.5H101.72z"/>
					<path fill="#080C0C" d="M157.72,55.33c1.654,0,3,1.346,3,3v56c0,1.654-1.346,3-3,3h-56c-1.654,0-3-1.346-3-3v-56
						c0-1.654,1.346-3,3-3H157.72 M157.72,54.33h-56c-2.209,0-4,1.791-4,4v56c0,2.209,1.791,4,4,4h56c2.209,0,4-1.791,4-4v-56
						C161.72,56.121,159.929,54.33,157.72,54.33L157.72,54.33z"/>
				</g>
				<path opacity="0.4" fill="#171717" enable-background="new    " d="M159.143,58.56v55.544c0,0.658-0.873,1.681-1.633,1.681
					h-55.544c-0.941,0.037-2.226-0.037-3.149-0.959c0.188,1.229,0.944,1.673,1.271,2c0.583,0.354,1.104,0.521,1.878,0.473h55.914
					c1.527,0,2.826-1.354,2.826-2.941V58.56c0.049-0.983-0.169-1.577-0.982-2.468c-0.343-0.262-0.922-0.641-1.594-0.734
					c-0.089,0.045,0.5,0.802,0.694,1.213C159.016,56.981,159.143,57.787,159.143,58.56z"/>
				<path opacity="0.4" fill="#F4F4F4" enable-background="new    " d="M101.887,55.352c-1.92,0-3.188,1.266-3.188,3.197v55.578
					c0,1.617,1.102,2.784,1.956,2.992c-0.958-0.792-0.976-1.667-0.976-2.993V58.547c0-1.221,0.991-2.213,2.207-2.213h56.007
					c1.58,0,2.283,0.773,2.783,1.429c0-0.563-1.016-2.41-2.781-2.41L101.887,55.352L101.887,55.352z"/>
			</g>
		</g>
		<g id="meegotouch-button-background">
			<g>
				<g>
					
						<linearGradient id="SVGID_5_" gradientUnits="userSpaceOnUse" x1="52.0532" y1="970.4805" x2="52.0532" y2="907.4805" gradientTransform="matrix(1 0 0 -1 4 1025.3105)">
						<stop  offset="0" style="stop-color:#A7D1DB"/>
						<stop  offset="1" style="stop-color:#5D8891"/>
					</linearGradient>
					<path fill="url(#SVGID_5_)" d="M28.053,117.83c-1.93,0-3.5-1.57-3.5-3.5v-56c0-1.93,1.57-3.5,3.5-3.5h56
						c1.93,0,3.5,1.57,3.5,3.5v56c0,1.93-1.57,3.5-3.5,3.5H28.053z"/>
					<path fill="#080C0C" d="M84.053,55.33c1.654,0,3,1.346,3,3v56c0,1.654-1.346,3-3,3h-56c-1.654,0-3-1.346-3-3v-56
						c0-1.654,1.346-3,3-3H84.053 M84.053,54.33h-56c-2.209,0-4,1.791-4,4v56c0,2.209,1.791,4,4,4h56c2.209,0,4-1.791,4-4v-56
						C88.053,56.121,86.262,54.33,84.053,54.33L84.053,54.33z"/>
				</g>
				<path opacity="0.4" fill="#171717" enable-background="new    " d="M85.476,58.56v55.544c0,0.658-0.873,1.681-1.633,1.681
					H28.298c-0.941,0.037-2.226-0.037-3.149-0.959c0.188,1.229,0.944,1.673,1.271,2c0.583,0.354,1.104,0.521,1.878,0.473h55.914
					c1.527,0,2.826-1.354,2.826-2.941V58.56c0.049-0.983-0.169-1.577-0.982-2.468c-0.343-0.262-0.922-0.641-1.594-0.734
					c-0.089,0.045,0.5,0.802,0.694,1.213C85.349,56.981,85.476,57.787,85.476,58.56z"/>
				<path opacity="0.4" fill="#F4F4F4" enable-background="new    " d="M28.22,55.352c-1.92,0-3.188,1.266-3.188,3.197v55.578
					c0,1.617,1.102,2.784,1.956,2.992c-0.958-0.792-0.976-1.667-0.976-2.993V58.547c0-1.221,0.991-2.213,2.207-2.213h56.007
					c1.58,0,2.283,0.773,2.783,1.429c0-0.563-1.016-2.41-2.781-2.41L28.22,55.352L28.22,55.352z"/>
			</g>
		</g>
		<g id="meegotouch-button-background-selected-vertical-bottom">
			<g>
				<path fill="#080C0C" d="M170.469,415.849h65v61c0,2.209-1.791,4-4,4h-57c-2.209,0-4-1.791-4-4V415.849L170.469,415.849z"/>
				
					<linearGradient id="SVGID_6_" gradientUnits="userSpaceOnUse" x1="29.8042" y1="1753.001" x2="-33.1958" y2="1753.001" gradientTransform="matrix(-4.366649e-008 -1 1 -4.366649e-008 -1550.0316 446.653)">
					<stop  offset="0" style="stop-color:#5D8891"/>
					<stop  offset="1" style="stop-color:#A7D1DB"/>
				</linearGradient>
				<path fill="url(#SVGID_6_)" d="M171.469,416.849h63v59.75c0,1.795-1.455,3.25-3.25,3.25h-56.5c-1.795,0-3.25-1.455-3.25-3.25
					V416.849L171.469,416.849z"/>
				<path opacity="0.4" fill="#171717" enable-background="new    " d="M171.462,475.917c0,1.504,1.5,2.412,3.385,2.412h56.223
					c0.998,0,1.873-0.847,1.873-1.912V416.85h1.522v59.567c0,2.054-1.362,3.435-3.396,3.435h-56.223
					c-2.02,0-3.378-1.383-3.378-3.438L171.462,475.917z"/>
				<path opacity="0.4" fill="#F4F4F4" enable-background="new    " d="M171.494,416.84h63v0.927h-62.049c0,0,0,60.204,0,61.173
					c-0.828-0.75-0.969-2.031-0.969-2.031L171.494,416.84z"/>
			</g>
		</g>
		<g id="meegotouch-button-background-selected-vertical-center">
			<g>
				<g>
					
						<linearGradient id="SVGID_7_" gradientUnits="userSpaceOnUse" x1="512.9688" y1="1494.6289" x2="512.9688" y2="1558.6289" gradientTransform="matrix(1 0 0 -1 -310 1899.8105)">
						<stop  offset="0" style="stop-color:#A7D1DB"/>
						<stop  offset="1" style="stop-color:#5D8891"/>
					</linearGradient>
					<rect x="170.969" y="341.182" fill="url(#SVGID_7_)" width="64" height="64"/>
					<path fill="#080C0C" d="M234.469,341.682v63h-63v-63H234.469 M235.469,340.682h-1h-63h-1v1v63v1h1h63h1v-1v-63V340.682
						L235.469,340.682z"/>
				</g>
				<polygon opacity="0.4" fill="#F4F4F4" enable-background="new    " points="172.474,404.689 172.474,342.693 234.458,342.693 
					234.458,341.677 234.458,341.677 171.458,341.677 171.458,404.677 				"/>
				<polygon opacity="0.4" fill="#171717" enable-background="new    " points="232.995,341.677 232.995,403.174 171.458,403.174 
					171.458,404.677 234.458,404.677 234.458,341.677 				"/>
			</g>
		</g>
		<g id="meegotouch-button-background-selected-vertical-top">
			<g>
				<path fill="#080C0C" d="M170.469,332.266v-61c0-2.209,1.791-4,4-4h57c2.209,0,4,1.791,4,4v61H170.469z"/>
				
					<linearGradient id="SVGID_8_" gradientUnits="userSpaceOnUse" x1="-623.8159" y1="462.2612" x2="-560.8164" y2="462.2612" gradientTransform="matrix(4.366649e-008 1 -1 4.366649e-008 665.2299 892.0819)">
					<stop  offset="0" style="stop-color:#5D8891"/>
					<stop  offset="1" style="stop-color:#A7D1DB"/>
				</linearGradient>
				<path fill="url(#SVGID_8_)" d="M171.469,331.266v-59.75c0-1.795,1.455-3.25,3.25-3.25h56.5c1.795,0,3.25,1.455,3.25,3.25v59.75
					H171.469z"/>
				<path opacity="0.4" fill="#F4F4F4" enable-background="new    " d="M234.477,272.199c0-1.502-1.5-2.932-3.386-2.932h-56.224
					c-1.479,0-2.397,0.932-2.397,2.432v59.566h-1v-59.566c0-2.054,1.365-3.433,3.397-3.433h56.224c2.021,0,3.378,1.382,3.378,3.438
					L234.477,272.199z"/>
				<path opacity="0.4" fill="#171717" enable-background="new    " d="M234.445,331.276h-63v-1.511h61.524c0,0,0-60.036,0-61.005
					c1.258,0.797,1.477,2.25,1.477,2.25V331.276L234.445,331.276z"/>
			</g>
		</g>
		<g id="meegotouch-button-background-pressed-vertical-bottom">
			<g>
				<path fill="#080C0C" d="M98.469,415.849h65v61c0,2.209-1.791,4-4,4h-57c-2.209,0-4-1.791-4-4L98.469,415.849L98.469,415.849z"/>
				
					<linearGradient id="SVGID_9_" gradientUnits="userSpaceOnUse" x1="29.8047" y1="1681" x2="-33.1953" y2="1681.0001" gradientTransform="matrix(-4.366649e-008 -1 1 -4.366649e-008 -1550.0316 446.653)">
					<stop  offset="0" style="stop-color:#5D8891"/>
					<stop  offset="1" style="stop-color:#A7D1DB"/>
				</linearGradient>
				<path fill="url(#SVGID_9_)" d="M99.469,416.849h63v59.75c0,1.795-1.455,3.25-3.25,3.25h-56.5c-1.795,0-3.25-1.455-3.25-3.25
					L99.469,416.849L99.469,416.849z"/>
				<path opacity="0.4" fill="#171717" enable-background="new    " d="M99.462,475.917c0,1.504,1.5,2.412,3.385,2.412h56.224
					c0.998,0,1.873-0.847,1.873-1.912V416.85h1.524v59.567c0,2.054-1.365,3.435-3.397,3.435h-56.224
					c-2.02,0-3.378-1.383-3.378-3.438L99.462,475.917z"/>
				<path opacity="0.4" fill="#F4F4F4" enable-background="new    " d="M99.494,416.84h63v0.927h-62.049c0,0,0,60.204,0,61.173
					c-0.828-0.75-0.969-2.031-0.969-2.031L99.494,416.84z"/>
			</g>
		</g>
		<g id="meegotouch-button-background-pressed-vertical-center">
			<g>
				<g>
					
						<linearGradient id="SVGID_10_" gradientUnits="userSpaceOnUse" x1="440.9688" y1="1494.6289" x2="440.9688" y2="1558.6289" gradientTransform="matrix(1 0 0 -1 -310 1899.8105)">
						<stop  offset="0" style="stop-color:#A7D1DB"/>
						<stop  offset="1" style="stop-color:#5D8891"/>
					</linearGradient>
					<rect x="98.969" y="341.182" fill="url(#SVGID_10_)" width="64" height="64"/>
					<path fill="#080C0C" d="M162.469,341.682v63h-63v-63H162.469 M163.469,340.682h-1h-63h-1v1v63v1h1h63h1v-1v-63V340.682
						L163.469,340.682z"/>
				</g>
				<polygon opacity="0.4" fill="#F4F4F4" enable-background="new    " points="100.474,404.689 100.474,342.693 162.458,342.693 
					162.458,341.677 162.458,341.677 99.458,341.677 99.458,404.677 				"/>
				<polygon opacity="0.4" fill="#171717" enable-background="new    " points="160.995,341.677 160.995,403.174 99.458,403.174 
					99.458,404.677 162.458,404.677 162.458,341.677 				"/>
			</g>
		</g>
		<g id="meegotouch-button-background-pressed-vertical-top">
			<g>
				<path fill="#080C0C" d="M98.469,332.266v-61c0-2.209,1.791-4,4-4h57c2.209,0,4,1.791,4,4v61H98.469z"/>
				
					<linearGradient id="SVGID_11_" gradientUnits="userSpaceOnUse" x1="-623.8159" y1="534.2607" x2="-560.8164" y2="534.2607" gradientTransform="matrix(4.366649e-008 1 -1 4.366649e-008 665.2299 892.0819)">
					<stop  offset="0" style="stop-color:#5D8891"/>
					<stop  offset="1" style="stop-color:#A7D1DB"/>
				</linearGradient>
				<path fill="url(#SVGID_11_)" d="M99.469,331.266v-59.75c0-1.795,1.455-3.25,3.25-3.25h56.5c1.795,0,3.25,1.455,3.25,3.25v59.75
					H99.469z"/>
				<path opacity="0.4" fill="#F4F4F4" enable-background="new    " d="M162.476,272.199c0-1.502-1.5-2.932-3.385-2.932h-56.224
					c-1.479,0-2.397,0.932-2.397,2.432v59.566h-1v-59.566c0-2.054,1.365-3.433,3.397-3.433h56.224c2.02,0,3.378,1.382,3.378,3.438
					L162.476,272.199z"/>
				<path opacity="0.4" fill="#171717" enable-background="new    " d="M162.445,331.276h-63v-1.511h61.524c0,0,0-60.036,0-61.005
					c1.257,0.797,1.476,2.25,1.476,2.25V331.276z"/>
			</g>
		</g>
		<g id="meegotouch-button-background-vertical-bottom">
			<g>
				<path fill="#080C0C" d="M23.469,415.849h65v61c0,2.209-1.791,4-4,4h-57c-2.209,0-4-1.791-4-4V415.849L23.469,415.849z"/>
				
					<linearGradient id="SVGID_12_" gradientUnits="userSpaceOnUse" x1="29.8047" y1="1606.001" x2="-33.1953" y2="1606.0011" gradientTransform="matrix(-4.366649e-008 -1 1 -4.366649e-008 -1550.0316 446.653)">
					<stop  offset="0" style="stop-color:#A7D1DB"/>
					<stop  offset="1" style="stop-color:#5D8891"/>
				</linearGradient>
				<path fill="url(#SVGID_12_)" d="M24.469,416.849h63v59.75c0,1.795-1.455,3.25-3.25,3.25h-56.5c-1.795,0-3.25-1.455-3.25-3.25
					V416.849L24.469,416.849z"/>
				<path opacity="0.4" fill="#171717" enable-background="new    " d="M24.462,475.917c0,1.504,1.5,2.412,3.385,2.412h56.224
					c0.998,0,1.873-0.847,1.873-1.912V416.85h1.524v59.567c0,2.054-1.365,3.435-3.397,3.435H27.847c-2.02,0-3.378-1.383-3.378-3.438
					L24.462,475.917z"/>
				<path opacity="0.4" fill="#F4F4F4" enable-background="new    " d="M24.494,416.84h63v0.927H25.445c0,0,0,60.204,0,61.173
					c-0.828-0.75-0.969-2.031-0.969-2.031L24.494,416.84z"/>
			</g>
		</g>
		<g id="meegotouch-button-background-vertical-center">
			<g>
				<g>
					
						<linearGradient id="SVGID_13_" gradientUnits="userSpaceOnUse" x1="365.9697" y1="1494.6289" x2="365.9697" y2="1558.6289" gradientTransform="matrix(1 0 0 -1 -310 1899.8105)">
						<stop  offset="0" style="stop-color:#5D8891"/>
						<stop  offset="1" style="stop-color:#A7D1DB"/>
					</linearGradient>
					<rect x="23.969" y="341.182" fill="url(#SVGID_13_)" width="64" height="64"/>
					<path fill="#080C0C" d="M87.469,341.682v63h-63v-63H87.469 M88.469,340.682h-1h-63h-1v1v63v1h1h63h1v-1v-63V340.682
						L88.469,340.682z"/>
				</g>
				<polygon opacity="0.4" fill="#F4F4F4" enable-background="new    " points="25.474,404.689 25.474,342.693 87.458,342.693 
					87.458,341.677 87.458,341.677 24.458,341.677 24.458,404.677 				"/>
				<polygon opacity="0.4" fill="#171717" enable-background="new    " points="85.995,341.677 85.995,403.174 24.458,403.174 
					24.458,404.677 87.458,404.677 87.458,341.677 				"/>
			</g>
		</g>
		<g id="meegotouch-button-background-vertical-top">
			<g>
				<path fill="#080C0C" d="M23.469,332.266v-61c0-2.209,1.791-4,4-4h57c2.209,0,4,1.791,4,4v61H23.469z"/>
				
					<linearGradient id="SVGID_14_" gradientUnits="userSpaceOnUse" x1="-623.8159" y1="609.2607" x2="-560.8164" y2="609.2607" gradientTransform="matrix(4.366649e-008 1 -1 4.366649e-008 665.2299 892.0819)">
					<stop  offset="0" style="stop-color:#A7D1DB"/>
					<stop  offset="1" style="stop-color:#5D8891"/>
				</linearGradient>
				<path fill="url(#SVGID_14_)" d="M24.469,331.266v-59.75c0-1.795,1.455-3.25,3.25-3.25h56.5c1.795,0,3.25,1.455,3.25,3.25v59.75
					H24.469z"/>
				<path opacity="0.4" fill="#F4F4F4" enable-background="new    " d="M87.476,272.199c0-1.502-1.5-2.932-3.385-2.932H27.867
					c-1.479,0-2.397,0.932-2.397,2.432v59.566h-1v-59.566c0-2.054,1.365-3.433,3.397-3.433h56.224c2.02,0,3.378,1.382,3.378,3.438
					L87.476,272.199z"/>
				<path opacity="0.4" fill="#171717" enable-background="new    " d="M87.445,331.276h-63v-1.511h61.524c0,0,0-60.036,0-61.005
					c1.257,0.797,1.476,2.25,1.476,2.25V331.276L87.445,331.276z"/>
			</g>
		</g>
		<g id="meegotouch-button-background-selected-horizontal-left">
			<g>
				<path fill="#080C0C" d="M87.049,751.966h-61c-2.209,0-4-1.791-4-4v-57c0-2.209,1.791-4,4-4h61V751.966z"/>
				
					<linearGradient id="SVGID_15_" gradientUnits="userSpaceOnUse" x1="364.5488" y1="1211.8447" x2="364.5488" y2="1148.8447" gradientTransform="matrix(1 0 0 -1 -310 1899.8105)">
					<stop  offset="0" style="stop-color:#5D8891"/>
					<stop  offset="1" style="stop-color:#A7D1DB"/>
				</linearGradient>
				<path fill="url(#SVGID_15_)" d="M86.049,750.966h-59.75c-1.795,0-3.25-1.455-3.25-3.25v-56.5c0-1.795,1.455-3.25,3.25-3.25
					h59.75V750.966z"/>
				<path opacity="0.4" fill="#F4F4F4" enable-background="new    " d="M26.487,750.966c-2.056,0-3.438-1.354-3.438-3.378v-56.225
					c0-2.031,1.379-3.396,3.432-3.396h59.568v1H26.482c-1.5,0-2.432,0.918-2.432,2.396v56.225c0,1.885,1.429,3.385,2.932,3.385
					L26.487,750.966z"/>
				<path opacity="0.4" fill="#171717" enable-background="new    " d="M25.794,750.942c0,0-1.453-0.221-2.25-1.479
					c0.969,0,61.005,0,61.005,0v-61.521h1.51v63.001H25.794L25.794,750.942z"/>
			</g>
		</g>
		<g id="meegotouch-button-background-selected-horizontal-center">
			<g>
				<g>
					
						<linearGradient id="SVGID_16_" gradientUnits="userSpaceOnUse" x1="440.9404" y1="1148.3447" x2="440.9404" y2="1212.3447" gradientTransform="matrix(1 0 0 -1 -310 1899.8105)">
						<stop  offset="0" style="stop-color:#A7D1DB"/>
						<stop  offset="1" style="stop-color:#5D8891"/>
					</linearGradient>
					<rect x="98.94" y="687.466" fill="url(#SVGID_16_)" width="64" height="64"/>
					<path fill="#080C0C" d="M162.44,687.966v63h-63v-63H162.44 M163.44,686.966h-1h-63h-1v1v63v1h1h63h1v-1v-63V686.966
						L163.44,686.966z"/>
				</g>
				<polygon opacity="0.4" fill="#F4F4F4" enable-background="new    " points="100.445,750.973 100.445,688.977 162.429,688.977 
					162.429,687.96 162.429,687.96 99.429,687.96 99.429,750.96 				"/>
				<polygon opacity="0.4" fill="#171717" enable-background="new    " points="160.966,687.96 160.966,749.457 99.429,749.457 
					99.429,750.96 162.429,750.96 162.429,687.96 				"/>
			</g>
		</g>
		<g id="meegotouch-button-background-selected-horizontal-right">
			<g>
				<path fill="#080C0C" d="M172.883,686.966h61.002c2.209,0,4,1.791,4,4v57c0,2.209-1.791,4-4,4h-61.002V686.966L172.883,686.966z"
					/>
				
					<linearGradient id="SVGID_17_" gradientUnits="userSpaceOnUse" x1="-1108.3105" y1="1055.417" x2="-1108.3105" y2="992.417" gradientTransform="matrix(-1 0 0 1 -902.9268 -304.4512)">
					<stop  offset="0" style="stop-color:#A7D1DB"/>
					<stop  offset="1" style="stop-color:#5D8891"/>
				</linearGradient>
				<path fill="url(#SVGID_17_)" d="M173.883,687.966h59.752c1.795,0,3.25,1.455,3.25,3.25v56.5c0,1.795-1.455,3.25-3.25,3.25
					h-59.752V687.966L173.883,687.966z"/>
				<path opacity="0.4" fill="#171717" enable-background="new    " d="M233.447,687.966c2.055,0,3.438,1.358,3.438,3.378v56.227
					c0,2.033-1.381,3.396-3.434,3.396h-59.568v-1.521h59.568c1.066,0,1.912-0.875,1.912-1.873v-56.227
					c0-1.885-0.908-3.385-2.412-3.385L233.447,687.966z"/>
				<path opacity="0.4" fill="#F4F4F4" enable-background="new    " d="M233.941,687.973c0,0,1.281,0.144,2.031,0.972
					c-0.972,0-61.176,0-61.176,0v62.05h-0.927v-63.001L233.941,687.973z"/>
			</g>
		</g>
		<g id="meegotouch-button-background-pressed-horizontal-left">
			<g>
				<path fill="#080C0C" d="M87.049,675.966h-61c-2.209,0-4-1.791-4-4v-57c0-2.209,1.791-4,4-4h61V675.966z"/>
				
					<linearGradient id="SVGID_18_" gradientUnits="userSpaceOnUse" x1="364.5488" y1="1287.8447" x2="364.5488" y2="1224.8447" gradientTransform="matrix(1 0 0 -1 -310 1899.8105)">
					<stop  offset="0" style="stop-color:#5D8891"/>
					<stop  offset="1" style="stop-color:#A7D1DB"/>
				</linearGradient>
				<path fill="url(#SVGID_18_)" d="M86.049,674.966h-59.75c-1.795,0-3.25-1.455-3.25-3.25v-56.5c0-1.795,1.455-3.25,3.25-3.25
					h59.75V674.966z"/>
				<path opacity="0.4" fill="#F4F4F4" enable-background="new    " d="M26.487,674.966c-2.056,0-3.438-1.354-3.438-3.378v-56.225
					c0-2.031,1.379-3.396,3.432-3.396h59.568v1H26.482c-1.5,0-2.432,0.918-2.432,2.396v56.225c0,1.885,1.429,3.385,2.932,3.385
					L26.487,674.966z"/>
				<path opacity="0.4" fill="#171717" enable-background="new    " d="M25.794,674.942c0,0-1.453-0.221-2.25-1.479
					c0.969,0,61.005,0,61.005,0v-61.521h1.51v63.001H25.794L25.794,674.942z"/>
			</g>
		</g>
		<g id="meegotouch-button-background-pressed-horizontal-center">
			<g>
				<g>
					
						<linearGradient id="SVGID_19_" gradientUnits="userSpaceOnUse" x1="440.9404" y1="1224.3447" x2="440.9404" y2="1288.3447" gradientTransform="matrix(1 0 0 -1 -310 1899.8105)">
						<stop  offset="0" style="stop-color:#A7D1DB"/>
						<stop  offset="1" style="stop-color:#5D8891"/>
					</linearGradient>
					<rect x="98.94" y="611.466" fill="url(#SVGID_19_)" width="64" height="64"/>
					<path fill="#080C0C" d="M162.44,611.966v63h-63v-63H162.44 M163.44,610.966h-1h-63h-1v1v63v1h1h63h1v-1v-63V610.966
						L163.44,610.966z"/>
				</g>
				<polygon opacity="0.4" fill="#F4F4F4" enable-background="new    " points="100.445,674.973 100.445,612.977 162.429,612.977 
					162.429,611.96 162.429,611.96 99.429,611.96 99.429,674.96 				"/>
				<polygon opacity="0.4" fill="#171717" enable-background="new    " points="160.966,611.96 160.966,673.457 99.429,673.457 
					99.429,674.96 162.429,674.96 162.429,611.96 				"/>
			</g>
		</g>
		<g id="meegotouch-button-background-pressed-horizontal-right">
			<g>
				<path fill="#080C0C" d="M172.883,610.966h61.002c2.209,0,4,1.791,4,4v57c0,2.209-1.791,4-4,4h-61.002V610.966L172.883,610.966z"
					/>
				
					<linearGradient id="SVGID_20_" gradientUnits="userSpaceOnUse" x1="-1108.3105" y1="979.417" x2="-1108.3105" y2="916.417" gradientTransform="matrix(-1 0 0 1 -902.9268 -304.4512)">
					<stop  offset="0" style="stop-color:#A7D1DB"/>
					<stop  offset="1" style="stop-color:#5D8891"/>
				</linearGradient>
				<path fill="url(#SVGID_20_)" d="M173.883,611.966h59.752c1.795,0,3.25,1.455,3.25,3.25v56.5c0,1.795-1.455,3.25-3.25,3.25
					h-59.752V611.966L173.883,611.966z"/>
				<path opacity="0.4" fill="#171717" enable-background="new    " d="M233.447,611.966c2.055,0,3.438,1.358,3.438,3.378v56.227
					c0,2.033-1.381,3.396-3.434,3.396h-59.568v-1.521h59.568c1.066,0,1.912-0.875,1.912-1.873v-56.227
					c0-1.885-0.908-3.385-2.412-3.385L233.447,611.966z"/>
				<path opacity="0.4" fill="#F4F4F4" enable-background="new    " d="M233.941,611.973c0,0,1.281,0.144,2.031,0.972
					c-0.972,0-61.176,0-61.176,0v62.05h-0.927v-63.001L233.941,611.973z"/>
			</g>
		</g>
		<g id="meegotouch-button-background-horizontal-left">
			<g>
				<path fill="#080C0C" d="M87.049,598.466h-61c-2.209,0-4-1.791-4-4v-57c0-2.209,1.791-4,4-4h61V598.466z"/>
				
					<linearGradient id="SVGID_21_" gradientUnits="userSpaceOnUse" x1="364.5488" y1="1365.3447" x2="364.5488" y2="1302.3447" gradientTransform="matrix(1 0 0 -1 -310 1899.8105)">
					<stop  offset="0" style="stop-color:#A7D1DB"/>
					<stop  offset="1" style="stop-color:#5D8891"/>
				</linearGradient>
				<path fill="url(#SVGID_21_)" d="M86.049,597.466h-59.75c-1.795,0-3.25-1.455-3.25-3.25v-56.5c0-1.795,1.455-3.25,3.25-3.25
					h59.75V597.466z"/>
				<path opacity="0.4" fill="#F4F4F4" enable-background="new    " d="M26.487,597.466c-2.056,0-3.438-1.354-3.438-3.378v-56.224
					c0-2.032,1.379-3.397,3.432-3.397h59.568v1H26.482c-1.5,0-2.432,0.918-2.432,2.397v56.224c0,1.885,1.429,3.385,2.932,3.385
					L26.487,597.466z"/>
				<path opacity="0.4" fill="#171717" enable-background="new    " d="M25.794,597.442c0,0-1.453-0.223-2.25-1.479
					c0.969,0,61.005,0,61.005,0v-61.521h1.51v63L25.794,597.442L25.794,597.442z"/>
			</g>
		</g>
		<g id="meegotouch-button-background-horizontal-center">
			<g>
				<g>
					
						<linearGradient id="SVGID_22_" gradientUnits="userSpaceOnUse" x1="440.9404" y1="1301.8447" x2="440.9404" y2="1365.8447" gradientTransform="matrix(1 0 0 -1 -310 1899.8105)">
						<stop  offset="0" style="stop-color:#5D8891"/>
						<stop  offset="1" style="stop-color:#A7D1DB"/>
					</linearGradient>
					<rect x="98.94" y="533.966" fill="url(#SVGID_22_)" width="64" height="64"/>
					<path fill="#080C0C" d="M162.44,534.466v63h-63v-63H162.44 M163.44,533.466h-1h-63h-1v1v63v1h1h63h1v-1v-63V533.466
						L163.44,533.466z"/>
				</g>
				<polygon opacity="0.4" fill="#F4F4F4" enable-background="new    " points="100.445,597.473 100.445,535.477 162.429,535.477 
					162.429,534.46 162.429,534.46 99.429,534.46 99.429,597.46 				"/>
				<polygon opacity="0.4" fill="#171717" enable-background="new    " points="160.966,534.46 160.966,595.957 99.429,595.957 
					99.429,597.46 162.429,597.46 162.429,534.46 				"/>
			</g>
		</g>
		<g id="meegotouch-button-background-horizontal-right">
			<g>
				<path fill="#080C0C" d="M172.883,533.466h61.002c2.209,0,4,1.791,4,4v57c0,2.209-1.791,4-4,4h-61.002V533.466L172.883,533.466z"
					/>
				
					<linearGradient id="SVGID_23_" gradientUnits="userSpaceOnUse" x1="-1108.3105" y1="901.917" x2="-1108.3105" y2="838.917" gradientTransform="matrix(-1 0 0 1 -902.9268 -304.4512)">
					<stop  offset="0" style="stop-color:#5D8891"/>
					<stop  offset="1" style="stop-color:#A7D1DB"/>
				</linearGradient>
				<path fill="url(#SVGID_23_)" d="M173.883,534.466h59.752c1.795,0,3.25,1.455,3.25,3.25v56.5c0,1.795-1.455,3.25-3.25,3.25
					h-59.752V534.466L173.883,534.466z"/>
				<path opacity="0.4" fill="#171717" enable-background="new    " d="M233.447,534.466c2.055,0,3.438,1.358,3.438,3.378v56.227
					c0,2.033-1.381,3.396-3.434,3.396h-59.568v-1.521h59.568c1.066,0,1.912-0.875,1.912-1.873v-56.227
					c0-1.885-0.908-3.385-2.412-3.385L233.447,534.466z"/>
				<path opacity="0.4" fill="#F4F4F4" enable-background="new    " d="M233.941,534.473c0,0,1.281,0.144,2.031,0.972
					c-0.972,0-61.176,0-61.176,0v62.049h-0.927v-63L233.941,534.473z"/>
			</g>
		</g>
		<g id="meegotouch-button-negative-background-selected">
			<g>
				
					<linearGradient id="SVGID_24_" gradientUnits="userSpaceOnUse" x1="513.7207" y1="1043.375" x2="513.7207" y2="979.375" gradientTransform="matrix(1 0 0 -1 -310 1899.8105)">
					<stop  offset="0" style="stop-color:#992424"/>
					<stop  offset="0.9972" style="stop-color:#F2444A"/>
				</linearGradient>
				<path fill="url(#SVGID_24_)" stroke="#000000" d="M235.721,916.436c0,2.209-1.791,4-4,4h-56c-2.209,0-4-1.791-4-4v-56
					c0-2.209,1.791-4,4-4h56c2.209,0,4,1.791,4,4V916.436z"/>
				<path opacity="0.4" fill="#171717" enable-background="new    " d="M233.632,860.186v56.5c0,0.67-0.888,1.711-1.661,1.711h-56.5
					c-0.957,0.037-2.123,0.058-3.062-0.881c0.688,1.521,1.042,1.521,1.375,1.854c0.496,0.307,1.062,0.565,1.687,0.565h56.5
					c1.553,0,3.25-1.636,3.25-3.25v-56.5c0-0.938-0.5-1.743-1.136-2.339c-0.349-0.267-0.608-0.5-1.203-0.7
					c-0.091,0.046,0.228,0.599,0.425,1.017C233.502,858.58,233.632,859.399,233.632,860.186z"/>
				<path opacity="0.4" fill="#F4F4F4" enable-background="new    " d="M175.47,856.936c-1.795,0-3.25,1.455-3.25,3.25v56.5
					c0,1.17,0.888,2.234,1.813,2.81c0.104,0.125-0.053-0.278-0.396-0.813c-0.375-0.584-0.418-1.19-0.418-1.997v-56.5
					c0-1.24,1.01-2.25,2.25-2.25h56.5c0.453,0,1.137,0.042,1.475,0.18c0.341,0.137,1.188,0.803,1.394,0.767
					c-0.153-0.356-0.375-0.578-0.606-0.856c-0.578-0.563-1.453-1.063-2.256-1.085L175.47,856.936L175.47,856.936z"/>
			</g>
		</g>
		<g id="meegotouch-button-negative-background-pressed">
			<g>
				
					<linearGradient id="SVGID_25_" gradientUnits="userSpaceOnUse" x1="439.7197" y1="1043.375" x2="439.7197" y2="979.375" gradientTransform="matrix(1 0 0 -1 -310 1899.8105)">
					<stop  offset="0" style="stop-color:#992424"/>
					<stop  offset="0.9972" style="stop-color:#F2444A"/>
				</linearGradient>
				<path fill="url(#SVGID_25_)" stroke="#000000" d="M161.72,916.436c0,2.209-1.791,4-4,4h-56c-2.209,0-4-1.791-4-4v-56
					c0-2.209,1.791-4,4-4h56c2.209,0,4,1.791,4,4V916.436z"/>
				<path opacity="0.4" fill="#171717" enable-background="new    " d="M159.632,860.186v56.5c0,0.67-0.888,1.711-1.662,1.711h-56.5
					c-0.957,0.037-2.123,0.058-3.062-0.881c0.688,1.521,1.042,1.521,1.375,1.854c0.496,0.307,1.062,0.565,1.687,0.565h56.5
					c1.554,0,3.25-1.636,3.25-3.25v-56.5c0-0.938-0.5-1.743-1.135-2.339c-0.349-0.267-0.609-0.5-1.203-0.7
					c-0.091,0.046,0.227,0.599,0.424,1.017C159.502,858.58,159.632,859.399,159.632,860.186z"/>
				<path opacity="0.4" fill="#F4F4F4" enable-background="new    " d="M101.47,856.936c-1.795,0-3.25,1.455-3.25,3.25v56.5
					c0,1.17,0.888,2.234,1.813,2.81c0.104,0.125-0.053-0.278-0.396-0.813c-0.375-0.584-0.418-1.19-0.418-1.997v-56.5
					c0-1.24,1.01-2.25,2.25-2.25h56.5c0.453,0,1.137,0.042,1.475,0.18c0.338,0.137,1.188,0.803,1.391,0.767
					c-0.156-0.356-0.375-0.578-0.609-0.856c-0.577-0.563-1.452-1.063-2.256-1.085L101.47,856.936L101.47,856.936z"/>
			</g>
		</g>
		<g id="meegotouch-button-negative-background">
			<g>
				
					<linearGradient id="SVGID_26_" gradientUnits="userSpaceOnUse" x1="365.2197" y1="1043.375" x2="365.2197" y2="979.375" gradientTransform="matrix(1 0 0 -1 -310 1899.8105)">
					<stop  offset="0.0028" style="stop-color:#F2444A"/>
					<stop  offset="1" style="stop-color:#992424"/>
				</linearGradient>
				<path fill="url(#SVGID_26_)" stroke="#000000" d="M87.22,916.436c0,2.209-1.791,4-4,4h-56c-2.209,0-4-1.791-4-4v-56
					c0-2.209,1.791-4,4-4h56c2.209,0,4,1.791,4,4V916.436z"/>
				<path opacity="0.4" fill="#171717" enable-background="new    " d="M85.132,860.186v56.5c0,0.67-0.888,1.711-1.662,1.711h-56.5
					c-0.957,0.037-2.123,0.058-3.062-0.881c0.688,1.521,1.042,1.521,1.375,1.854c0.496,0.307,1.062,0.565,1.687,0.565h56.5
					c1.554,0,3.25-1.636,3.25-3.25v-56.5c0-0.938-0.5-1.743-1.135-2.339c-0.349-0.267-0.609-0.5-1.203-0.7
					c-0.091,0.046,0.227,0.599,0.424,1.017C85.002,858.58,85.132,859.399,85.132,860.186z"/>
				<path opacity="0.4" fill="#F4F4F4" enable-background="new    " d="M26.97,856.936c-1.795,0-3.25,1.455-3.25,3.25v56.5
					c0,1.17,0.888,2.234,1.813,2.81c0.104,0.125-0.053-0.278-0.396-0.813c-0.375-0.584-0.418-1.19-0.418-1.997v-56.5
					c0-1.24,1.01-2.25,2.25-2.25h56.5c0.453,0,1.137,0.042,1.475,0.18c0.338,0.137,1.188,0.803,1.391,0.767
					c-0.156-0.356-0.375-0.578-0.609-0.856c-0.577-0.563-1.452-1.063-2.256-1.085L26.97,856.936L26.97,856.936z"/>
			</g>
		</g>
		<g id="meegotouch-button-positive-background-selected">
			<g>
				
					<linearGradient id="SVGID_27_" gradientUnits="userSpaceOnUse" x1="513.7207" y1="1113.875" x2="513.7207" y2="1049.875" gradientTransform="matrix(1 0 0 -1 -310 1899.8105)">
					<stop  offset="0" style="stop-color:#73942C"/>
					<stop  offset="0.9972" style="stop-color:#C0E06E"/>
				</linearGradient>
				<path fill="url(#SVGID_27_)" stroke="#000000" d="M235.721,845.936c0,2.209-1.791,4-4,4h-56c-2.209,0-4-1.791-4-4v-56
					c0-2.209,1.791-4,4-4h56c2.209,0,4,1.791,4,4V845.936z"/>
				<path opacity="0.4" fill="#171717" enable-background="new    " d="M233.632,789.686v56.5c0,0.67-0.888,1.711-1.661,1.711h-56.5
					c-0.957,0.037-2.123,0.058-3.062-0.881c0.688,1.521,1.042,1.521,1.375,1.854c0.496,0.307,1.062,0.565,1.687,0.565h56.5
					c1.553,0,3.25-1.636,3.25-3.25v-56.5c0-0.938-0.5-1.743-1.136-2.339c-0.349-0.267-0.608-0.5-1.203-0.7
					c-0.091,0.046,0.228,0.599,0.425,1.017C233.502,788.08,233.632,788.899,233.632,789.686z"/>
				<path opacity="0.4" fill="#F4F4F4" enable-background="new    " d="M175.47,786.436c-1.795,0-3.25,1.455-3.25,3.25v56.5
					c0,1.17,0.888,2.234,1.813,2.81c0.104,0.125-0.053-0.278-0.396-0.813c-0.375-0.584-0.418-1.19-0.418-1.997v-56.5
					c0-1.24,1.01-2.25,2.25-2.25h56.5c0.453,0,1.137,0.042,1.475,0.18c0.341,0.137,1.188,0.803,1.394,0.767
					c-0.153-0.356-0.375-0.578-0.606-0.856c-0.578-0.563-1.453-1.063-2.256-1.085L175.47,786.436L175.47,786.436z"/>
			</g>
		</g>
		<g id="meegotouch-button-positive-background-pressed">
			<g>
				
					<linearGradient id="SVGID_28_" gradientUnits="userSpaceOnUse" x1="439.7197" y1="1113.875" x2="439.7197" y2="1049.875" gradientTransform="matrix(1 0 0 -1 -310 1899.8105)">
					<stop  offset="0" style="stop-color:#73942C"/>
					<stop  offset="0.9972" style="stop-color:#C0E06E"/>
				</linearGradient>
				<path fill="url(#SVGID_28_)" stroke="#000000" d="M161.72,845.936c0,2.209-1.791,4-4,4h-56c-2.209,0-4-1.791-4-4v-56
					c0-2.209,1.791-4,4-4h56c2.209,0,4,1.791,4,4V845.936z"/>
				<path opacity="0.4" fill="#171717" enable-background="new    " d="M159.632,789.686v56.5c0,0.67-0.888,1.711-1.662,1.711h-56.5
					c-0.957,0.037-2.123,0.058-3.062-0.881c0.688,1.521,1.042,1.521,1.375,1.854c0.496,0.307,1.062,0.565,1.687,0.565h56.5
					c1.554,0,3.25-1.636,3.25-3.25v-56.5c0-0.938-0.5-1.743-1.135-2.339c-0.349-0.267-0.609-0.5-1.203-0.7
					c-0.091,0.046,0.227,0.599,0.424,1.017C159.502,788.08,159.632,788.899,159.632,789.686z"/>
				<path opacity="0.4" fill="#F4F4F4" enable-background="new    " d="M101.47,786.436c-1.795,0-3.25,1.455-3.25,3.25v56.5
					c0,1.17,0.888,2.234,1.813,2.81c0.104,0.125-0.053-0.278-0.396-0.813c-0.375-0.584-0.418-1.19-0.418-1.997v-56.5
					c0-1.24,1.01-2.25,2.25-2.25h56.5c0.453,0,1.137,0.042,1.475,0.18c0.338,0.137,1.188,0.803,1.391,0.767
					c-0.156-0.356-0.375-0.578-0.609-0.856c-0.577-0.563-1.452-1.063-2.256-1.085L101.47,786.436L101.47,786.436z"/>
			</g>
		</g>
		<g id="meegotouch-button-positive-background">
			<g>
				
					<linearGradient id="SVGID_29_" gradientUnits="userSpaceOnUse" x1="365.2197" y1="1113.875" x2="365.2197" y2="1049.875" gradientTransform="matrix(1 0 0 -1 -310 1899.8105)">
					<stop  offset="0.0028" style="stop-color:#C0E06E"/>
					<stop  offset="1" style="stop-color:#73942C"/>
				</linearGradient>
				<path fill="url(#SVGID_29_)" stroke="#000000" d="M87.22,845.936c0,2.209-1.791,4-4,4h-56c-2.209,0-4-1.791-4-4v-56
					c0-2.209,1.791-4,4-4h56c2.209,0,4,1.791,4,4V845.936z"/>
				<path opacity="0.4" fill="#171717" enable-background="new    " d="M85.132,789.686v56.5c0,0.67-0.888,1.711-1.662,1.711h-56.5
					c-0.957,0.037-2.123,0.058-3.062-0.881c0.688,1.521,1.042,1.521,1.375,1.854c0.496,0.307,1.062,0.565,1.687,0.565h56.5
					c1.554,0,3.25-1.636,3.25-3.25v-56.5c0-0.938-0.5-1.743-1.135-2.339c-0.349-0.267-0.609-0.5-1.203-0.7
					c-0.091,0.046,0.227,0.599,0.424,1.017C85.002,788.08,85.132,788.899,85.132,789.686z"/>
				<path opacity="0.4" fill="#F4F4F4" enable-background="new    " d="M26.97,786.436c-1.795,0-3.25,1.455-3.25,3.25v56.5
					c0,1.17,0.888,2.234,1.813,2.81c0.104,0.125-0.053-0.278-0.396-0.813c-0.375-0.584-0.418-1.19-0.418-1.997v-56.5
					c0-1.24,1.01-2.25,2.25-2.25h56.5c0.453,0,1.137,0.042,1.475,0.18c0.338,0.137,1.188,0.803,1.391,0.767
					c-0.156-0.356-0.375-0.578-0.609-0.856c-0.577-0.563-1.452-1.063-2.256-1.085L26.97,786.436L26.97,786.436z"/>
			</g>
		</g>
		<g id="meegotouch-combobox-indicator-inverted">
			<rect id="_x33_2_1_" x="273.835" y="88.585" fill="none" width="25" height="25"/>
			<g>
				<g id="icon-m-common-combobox-arrow_4_" opacity="0.25">
					<g>
						<path fill="#020202" d="M279.201,105.868c-1.1,0-1.316-0.585-0.48-1.301l6.671-6.22c0.63-0.56,1.302-0.56,1.888,0l6.67,6.22
							c0.836,0.716,0.619,1.301-0.48,1.301H279.201z"/>
					</g>
				</g>
				<g id="icon-m-common-combobox-arrow_5_" opacity="0.25">
					<g>
						<path fill="#020202" d="M279.201,104.493c-1.1,0-1.316-0.585-0.48-1.301l6.671-6.22c0.63-0.56,1.302-0.56,1.888,0l6.67,6.22
							c0.836,0.716,0.619,1.301-0.48,1.301H279.201z"/>
					</g>
				</g>
				<g id="icon-m-common-combobox-arrow_3_">
					<g>
						<path fill="#80B7C3" d="M279.201,104.243c-1.1,0-1.316-0.585-0.48-1.301l6.671-6.22c0.63-0.56,1.302-0.56,1.888,0l6.67,6.22
							c0.836,0.716,0.619,1.301-0.48,1.301H279.201z"/>
					</g>
					<g opacity="0.17">
						<path fill="#FFFFFF" d="M294.357,103.983c-0.234-0.516-6.84-6.333-7.297-6.766c-0.594-0.563-0.938-0.484-1.531,0.078
							c-1.908,1.808-7.239,6.255-7.094,6.781c-0.609-0.391,0.285-1.135,0.285-1.135l6.671-6.22c0.63-0.56,1.302-0.56,1.888,0
							l6.67,6.22C293.949,102.942,294.701,103.577,294.357,103.983z"/>
					</g>
				</g>
			</g>
		</g>
		<g id="meegotouch-combobox-indicator">
			<rect id="_x33_2" x="273.835" y="58.765" fill="none" width="25" height="25"/>
			<g>
				<g id="icon-m-common-combobox-arrow_1_" opacity="0.25">
					<g>
						<path fill="#020202" d="M293.469,69.294c1.1,0,1.316,0.585,0.48,1.301l-6.671,6.22c-0.63,0.56-1.302,0.56-1.888,0l-6.67-6.22
							c-0.836-0.716-0.619-1.301,0.48-1.301H293.469z"/>
					</g>
				</g>
				<g id="icon-m-common-combobox-arrow_2_" opacity="0.25">
					<g>
						<path fill="#020202" d="M293.469,67.669c1.1,0,1.316,0.585,0.48,1.301l-6.671,6.22c-0.63,0.56-1.302,0.56-1.888,0l-6.67-6.22
							c-0.836-0.716-0.619-1.301,0.48-1.301H293.469z"/>
					</g>
				</g>
				<g id="icon-m-common-combobox-arrow">
					<g>
						<path fill="#80B7C3" d="M293.469,67.294c1.1,0,1.316,0.585,0.48,1.301l-6.671,6.22c-0.63,0.56-1.302,0.56-1.888,0l-6.67-6.22
							c-0.836-0.716-0.619-1.301,0.48-1.301H293.469z"/>
					</g>
				</g>
				<g id="icon-m-common-combobox-arrow_6_" opacity="0.17">
					<g>
						<path fill="#FFFFFF" d="M293.479,67.78c-0.531,0-13.25,0-14.277,0s-0.48,0.815-0.48,0.815
							c-0.836-0.716-0.619-1.301,0.48-1.301h14.268c1.1,0,1.316,0.585,0.48,1.301C293.949,68.595,294.447,67.78,293.479,67.78z"/>
					</g>
				</g>
			</g>
		</g>
		<g id="meegotouch-button-combobox-background-selected">
			
				<linearGradient id="btnselect-bg_2_" gradientUnits="userSpaceOnUse" x1="507.7383" y1="499.2461" x2="507.7383" y2="563.2466" gradientTransform="matrix(1 0 0 1 -306 -365)">
				<stop  offset="0.0028" style="stop-color:#B1B1B1"/>
				<stop  offset="1" style="stop-color:#C3C3C3"/>
			</linearGradient>
			<rect id="btnselect-bg_1_" x="169.738" y="134.246" fill="url(#btnselect-bg_2_)" stroke="#000000" width="64" height="64"/>
			
				<rect id="btnselect-rim_1_" x="170.738" y="135.246" opacity="0.3" fill="none" stroke="#000000" stroke-width="0.9687" enable-background="new    " width="62" height="62"/>
		</g>
		<g id="meegotouch-button-combobox-background-pressed">
			
				<linearGradient id="btnbgdown-bg_2_" gradientUnits="userSpaceOnUse" x1="434.4883" y1="499.2461" x2="434.4883" y2="563.2466" gradientTransform="matrix(1 0 0 1 -306 -365)">
				<stop  offset="0.0028" style="stop-color:#B1B1B1"/>
				<stop  offset="1" style="stop-color:#C3C3C3"/>
			</linearGradient>
			<rect id="btnbgdown-bg_1_" x="96.488" y="134.246" fill="url(#btnbgdown-bg_2_)" stroke="#000000" width="64" height="64"/>
			
				<rect id="btnbgdown-rim_1_" x="97.488" y="135.246" opacity="0.3" fill="none" stroke="#000000" stroke-width="0.9687" enable-background="new    " width="62" height="62"/>
		</g>
		<g id="meegotouch-button-combobox-background">
			
				<linearGradient id="btnbg-bg_2_" gradientUnits="userSpaceOnUse" x1="361.2383" y1="499.2461" x2="361.2383" y2="563.2466" gradientTransform="matrix(1 0 0 1 -306 -365)">
				<stop  offset="0.0028" style="stop-color:#C5C5C5"/>
				<stop  offset="1" style="stop-color:#C3C3C3"/>
			</linearGradient>
			<rect id="btnbg-bg_1_" x="23.238" y="134.246" fill="url(#btnbg-bg_2_)" stroke="#000000" width="64" height="64"/>
			
				<rect id="btnbg-rim_1_" x="24.238" y="135.246" opacity="0.3" fill="none" stroke="#000000" stroke-width="0.9687" enable-background="new    " width="62" height="62"/>
		</g>
	</g>
</g>
</svg>
