<?xml version="1.0" encoding="utf-8"?>
<!-- Generator: Adobe Illustrator 14.0.0, SVG Export Plug-In . SVG Version: 6.00 Build 43363)  -->
<!DOCTYPE svg PUBLIC "-//W3C//DTD SVG 1.1//EN" "http://www.w3.org/Graphics/SVG/1.1/DTD/svg11.dtd">
<svg version="1.1" id="Layer_1" xmlns="http://www.w3.org/2000/svg" xmlns:xlink="http://www.w3.org/1999/xlink" x="0px" y="0px"
	 width="178.5px" height="299px" viewBox="0 0 178.5 299" enable-background="new 0 0 178.5 299" xml:space="preserve">
<g id="meegotouch-container-layer">
</g>
<g id="theme">
	<g id="meegotouch-container">
		<g id="meegotouch-containerThemeTemplateHelper">
			<g>
				<path fill="#B3B3B3" d="M16,298c-8.271,0-15-6.729-15-15V16C1,7.729,7.729,1,16,1h145.5c8.271,0,15,6.729,15,15v267
					c0,8.271-6.729,15-15,15H16z"/>
				<g>
					<path d="M161.5,2c7.721,0,14,6.28,14,14v267c0,7.721-6.279,14-14,14H16c-7.72,0-14-6.279-14-14V16C2,8.28,8.28,2,16,2H161.5
						 M161.5,0H16C7.2,0,0,7.2,0,16v267c0,8.8,7.2,16,16,16h145.5c8.8,0,16-7.2,16-16V16C177.5,7.2,170.3,0,161.5,0L161.5,0z"/>
				</g>
			</g>
			<path fill="#010101" d="M27.883,34.497c-1.859,0-3.254-0.636-4.188-1.907s-1.4-3.295-1.4-6.07c0-2.502,0.475-4.4,1.42-5.696
				c0.947-1.295,2.35-1.942,4.209-1.942c0.861,0,1.641,0.102,2.338,0.307v1.559c-0.717-0.225-1.432-0.338-2.143-0.338
				c-1.162,0-2.033,0.502-2.615,1.508c-0.58,1.004-0.871,2.512-0.871,4.521c0,2.181,0.299,3.814,0.898,4.901
				c0.598,1.087,1.494,1.63,2.691,1.63c0.662,0,1.342-0.104,2.039-0.317v1.518C29.463,34.388,28.67,34.497,27.883,34.497z"/>
			<path fill="#010101" d="M36.6,34.497c-1.607,0-2.809-0.526-3.609-1.579c-0.799-1.053-1.199-2.632-1.199-4.737
				c0-1.832,0.414-3.281,1.246-4.348c0.83-1.066,2.018-1.6,3.562-1.6c1.559,0,2.75,0.526,3.574,1.579
				c0.822,1.053,1.234,2.522,1.234,4.409c0,1.941-0.385,3.473-1.152,4.594C39.487,33.937,38.268,34.497,36.6,34.497z M36.6,33.092
				c0.842,0,1.475-0.381,1.902-1.143c0.427-0.762,0.641-2.039,0.641-3.83c0-1.265-0.219-2.326-0.656-3.184s-1.066-1.287-1.887-1.287
				c-0.834,0-1.467,0.387-1.896,1.158c-0.432,0.773-0.646,1.877-0.646,3.312c0,1.613,0.215,2.846,0.646,3.696
				C35.133,32.667,35.766,33.092,36.6,33.092z"/>
			<path fill="#010101" d="M52.637,34.333h-2.184v-7.916c0-0.896-0.158-1.567-0.473-2.015c-0.315-0.448-0.785-0.672-1.414-0.672
				c-0.793,0-1.408,0.301-1.846,0.902c-0.438,0.601-0.656,1.385-0.656,2.348v7.353h-2.186V22.408h1.221l0.441,1.764
				c0.758-1.293,1.914-1.938,3.465-1.938c1.211,0,2.119,0.317,2.723,0.954c0.605,0.635,0.908,1.586,0.908,2.85L52.637,34.333
				L52.637,34.333z"/>
			<path fill="#010101" d="M58.625,34.497c-0.93,0-1.611-0.217-2.041-0.651c-0.432-0.434-0.646-1.126-0.646-2.076v-7.937H54.37
				v-0.82l3.189-3.251h0.562v2.646h2.902v1.425h-2.902v7.577c0,0.65,0.107,1.079,0.318,1.287c0.213,0.209,0.533,0.312,0.965,0.312
				c0.443,0,1.045-0.099,1.805-0.297v1.415C60.292,34.374,59.432,34.497,58.625,34.497z"/>
			<path fill="#010101" d="M69.053,32.61c-0.738,1.258-1.887,1.887-3.445,1.887c-1.086,0-1.932-0.306-2.537-0.918
				c-0.605-0.611-0.908-1.468-0.908-2.568c0-1.135,0.311-1.979,0.934-2.538c0.621-0.557,1.367-0.905,2.234-1.046
				c0.869-0.14,1.926-0.21,3.169-0.21v-1.404c0-1.389-0.741-2.082-2.229-2.082c-0.854,0-1.896,0.182-3.127,0.543v-1.527
				c1.238-0.342,2.414-0.513,3.527-0.513c1.313,0,2.309,0.316,2.987,0.948c0.683,0.633,1.021,1.564,1.021,2.795v8.356h-1.188
				L69.053,32.61z M68.5,28.52h-1.221c-0.979,0-1.711,0.207-2.203,0.62c-0.488,0.413-0.734,1.03-0.734,1.851
				c0,0.67,0.15,1.171,0.447,1.502c0.297,0.332,0.742,0.498,1.338,0.498c0.752,0,1.334-0.24,1.747-0.719
				c0.412-0.479,0.619-1.127,0.619-1.947V28.52H68.5z"/>
			<path fill="#010101" d="M76.127,34.333h-2.184v-10.5H72.58v-1.425h3.547V34.333L76.127,34.333z M75.041,18.225
				c0.334,0,0.623,0.123,0.867,0.369c0.242,0.246,0.359,0.536,0.359,0.871c0,0.342-0.115,0.635-0.355,0.877
				c-0.238,0.242-0.529,0.363-0.871,0.363c-0.353,0-0.646-0.121-0.883-0.363c-0.238-0.242-0.357-0.535-0.357-0.877
				c0-0.349,0.119-0.643,0.357-0.882C74.398,18.344,74.691,18.225,75.041,18.225z"/>
			<path fill="#010101" d="M87.992,34.333h-2.185v-7.916c0-0.896-0.157-1.567-0.474-2.015c-0.314-0.448-0.784-0.672-1.413-0.672
				c-0.794,0-1.408,0.301-1.847,0.902c-0.438,0.601-0.656,1.385-0.656,2.348v7.353h-2.188V22.408h1.224l0.438,1.764
				c0.761-1.293,1.914-1.938,3.468-1.938c1.211,0,2.116,0.317,2.723,0.954c0.604,0.635,0.908,1.586,0.908,2.85v8.295H87.992z"/>
			<path fill="#010101" d="M98.748,32.508v1.486c-1.074,0.336-2.188,0.503-3.332,0.503c-1.668,0-2.916-0.503-3.744-1.507
				c-0.826-1.006-1.24-2.554-1.24-4.646c0-1.839,0.4-3.317,1.199-4.435c0.801-1.118,1.941-1.677,3.426-1.677
				c1.203,0,2.107,0.319,2.713,0.959c0.604,0.64,0.992,1.422,1.162,2.348c0.172,0.927,0.258,2.028,0.258,3.308H92.75
				c0,1.387,0.246,2.428,0.738,3.122c0.492,0.694,1.23,1.04,2.215,1.04C96.537,33.01,97.551,32.843,98.748,32.508z M92.75,27.504
				h4.295c0-1.442-0.17-2.461-0.512-3.056c-0.342-0.595-0.834-0.892-1.479-0.892c-0.72,0-1.269,0.307-1.646,0.922
				C93.031,25.094,92.811,26.103,92.75,27.504z"/>
			<path fill="#010101" d="M102.84,22.408l0.502,1.988c0.662-1.4,1.818-2.102,3.467-2.102c0.217,0,0.379,0.01,0.48,0.031v1.988
				c-0.17-0.014-0.428-0.02-0.771-0.02c-0.938,0-1.625,0.224-2.063,0.671c-0.438,0.448-0.654,1.147-0.654,2.097v7.271h-2.186V22.408
				H102.84z"/>
			<path fill="none" stroke="#ED2224" stroke-width="5" d="M171.207,257.218"/>
			<path fill="none" stroke="#ED2224" stroke-width="5" d="M149.167,43.885"/>
		</g>
		<g id="meegotouch-container-content-background">
			<path fill="#828282" d="M122.666,202.332h-106v-70h106V202.332z"/>
			
				<linearGradient id="SVGID_1_" gradientUnits="userSpaceOnUse" x1="887.666" y1="1296.333" x2="887.666" y2="1365.333" gradientTransform="matrix(1 0 0 1 -818 -1164)">
				<stop  offset="0" style="stop-color:#FFFFFF"/>
				<stop  offset="1" style="stop-color:#FAFAFA"/>
			</linearGradient>
			<path fill="url(#SVGID_1_)" d="M121.666,132.333v69h-104v-69H121.666z"/>
			
				<line opacity="0.2" fill="none" stroke="#FFFFFF" stroke-width="1.1332" enable-background="new    " x1="17.662" y1="132.843" x2="121.646" y2="132.843"/>
		</g>
		<g id="meegotouch-container-header-background">
			
				<linearGradient id="SVGID_2_" gradientUnits="userSpaceOnUse" x1="1058.8096" y1="-580.7529" x2="1058.8096" y2="-625.9731" gradientTransform="matrix(1 0 0 -1 -1020 -505)">
				<stop  offset="0" style="stop-color:#CBCCCB"/>
				<stop  offset="1" style="stop-color:#B0B1B0"/>
			</linearGradient>
			<rect x="15.916" y="75.753" fill="url(#SVGID_2_)" width="45.787" height="45.22"/>
			<rect x="15.919" y="75.763" opacity="0.2" fill="#FFFFFF" enable-background="new    " width="45.787" height="1"/>
			<rect x="15.919" y="119.979" fill="#828282" width="45.787" height="1"/>
			<rect x="15.914" y="75.758" fill="#828282" width="0.5" height="45.234"/>
			<rect x="61.195" y="75.758" fill="#828282" width="0.5" height="45.234"/>
		</g>
	</g>
</g>
</svg>
