<?xml version="1.0" encoding="utf-8"?>
<!-- Generator: Adobe Illustrator 14.0.0, SVG Export Plug-In . SVG Version: 6.00 Build 43363)  -->
<!DOCTYPE svg PUBLIC "-//W3C//DTD SVG 1.1//EN" "http://www.w3.org/Graphics/SVG/1.1/DTD/svg11.dtd">
<svg version="1.1" id="Layer_1" xmlns="http://www.w3.org/2000/svg" xmlns:xlink="http://www.w3.org/1999/xlink" x="0px" y="0px"
	 width="200px" height="100px" viewBox="0 0 200 100" enable-background="new 0 0 200 100" xml:space="preserve">
<g id="meegotouch-separator-layer">
</g>
<g id="theme">
	<g id="meegotouch-separator">
		<g id="MeegoTouchSeparatorThemeTemplateHelper">
			<g>
				<path fill="#B3B3B3" d="M16,99C7.729,99,1,92.271,1,84V16C1,7.729,7.729,1,16,1h168c8.271,0,15,6.729,15,15v68
					c0,8.271-6.729,15-15,15H16z"/>
				<g>
					<path d="M184,2c7.721,0,14,6.28,14,14v68c0,7.721-6.279,14-14,14H16C8.28,98,2,91.721,2,84V16C2,8.28,8.28,2,16,2H184 M184,0
						H16C7.2,0,0,7.2,0,16v68c0,8.8,7.2,16,16,16h168c8.8,0,16-7.2,16-16V16C200,7.2,192.8,0,184,0L184,0z"/>
				</g>
			</g>
			<path fill="#010101" d="M66.173,27.93c-0.977,0-1.95-0.133-2.92-0.4v-1.514c1.067,0.307,2.021,0.459,2.861,0.459
				c0.898,0,1.609-0.201,2.134-0.605c0.525-0.404,0.786-0.982,0.786-1.738c0-0.482-0.103-0.891-0.308-1.226
				c-0.205-0.335-0.471-0.62-0.796-0.854c-0.325-0.234-0.798-0.531-1.417-0.889c-0.734-0.424-1.315-0.799-1.742-1.128
				c-0.427-0.329-0.783-0.749-1.07-1.26c-0.285-0.511-0.429-1.132-0.429-1.86c0-1.236,0.412-2.189,1.235-2.856
				c0.823-0.667,1.945-1.001,3.364-1.001c0.931,0,1.804,0.098,2.617,0.293v1.465c-0.911-0.201-1.738-0.303-2.48-0.303
				c-0.774,0-1.404,0.188-1.89,0.562c-0.486,0.374-0.728,0.894-0.728,1.558c0,0.43,0.129,0.84,0.386,1.23
				c0.257,0.39,0.955,0.918,2.095,1.582c0.742,0.43,1.326,0.807,1.753,1.133c0.427,0.326,0.788,0.742,1.084,1.25
				c0.296,0.508,0.444,1.117,0.444,1.826C71.153,26.504,69.493,27.93,66.173,27.93z"/>
			<path fill="#010101" d="M80.606,26.035v1.416c-1.022,0.318-2.08,0.479-3.174,0.479c-1.589,0-2.776-0.479-3.565-1.436
				c-0.787-0.957-1.181-2.432-1.181-4.424c0-1.752,0.38-3.159,1.143-4.224c0.762-1.064,1.849-1.597,3.262-1.597
				c1.146,0,2.007,0.305,2.583,0.913c0.576,0.608,0.945,1.354,1.108,2.236c0.163,0.882,0.244,1.933,0.244,3.149h-6.133
				c0,1.322,0.234,2.312,0.703,2.974c0.469,0.662,1.172,0.991,2.109,0.991C78.5,26.514,79.467,26.354,80.606,26.035z M74.894,21.27
				h4.092c0-1.373-0.163-2.344-0.488-2.91s-0.794-0.85-1.406-0.85c-0.684,0-1.206,0.293-1.567,0.879
				C75.164,18.975,74.951,19.936,74.894,21.27z"/>
			<path fill="#010101" d="M84.503,16.416l0.42,1.621c0.41-0.605,0.866-1.055,1.367-1.348s1.14-0.439,1.914-0.439
				c1.257,0,2.2,0.474,2.832,1.421c0.632,0.947,0.946,2.368,0.946,4.263c0,1.875-0.431,3.336-1.293,4.385
				c-0.862,1.049-2.104,1.572-3.726,1.572c-0.43,0-0.944-0.072-1.543-0.215v3.359h-2.08V16.416H84.503z M85.421,21.494v4.697
				c0.501,0.189,1.028,0.283,1.582,0.283c0.938,0,1.643-0.326,2.114-0.977c0.471-0.651,0.708-1.871,0.708-3.662
				c0-1.387-0.176-2.427-0.527-3.12c-0.351-0.693-0.876-1.04-1.572-1.04c-0.755,0-1.328,0.291-1.719,0.874
				C85.615,19.133,85.421,20.113,85.421,21.494z"/>
			<path fill="#010101" d="M100.226,26.133c-0.703,1.197-1.797,1.797-3.281,1.797c-1.035,0-1.841-0.291-2.417-0.874
				c-0.576-0.583-0.864-1.397-0.864-2.446c0-1.08,0.296-1.887,0.889-2.417c0.593-0.53,1.302-0.862,2.129-0.996
				c0.827-0.134,1.833-0.2,3.018-0.2v-1.338c0-1.322-0.706-1.982-2.119-1.982c-0.813,0-1.807,0.172-2.979,0.518V16.74
				c1.179-0.326,2.298-0.488,3.359-0.488c1.25,0,2.199,0.301,2.848,0.903c0.647,0.602,0.971,1.489,0.971,2.661v7.959h-1.133
				L100.226,26.133z M99.698,22.236h-1.162c-0.931,0-1.629,0.197-2.095,0.591c-0.466,0.394-0.698,0.981-0.698,1.763
				c0,0.639,0.142,1.115,0.425,1.431s0.708,0.474,1.274,0.474c0.716,0,1.271-0.229,1.665-0.684s0.591-1.074,0.591-1.855V22.236z"/>
			<path fill="#010101" d="M105.743,16.416l0.479,1.895c0.631-1.334,1.729-2.002,3.301-2.002c0.207,0,0.356,0.01,0.459,0.029v1.895
				c-0.164-0.014-0.407-0.02-0.732-0.02c-0.893,0-1.546,0.213-1.963,0.64s-0.625,1.093-0.625,1.997v6.924h-2.08V16.416H105.743z"/>
			<path fill="#010101" d="M117.168,26.133c-0.703,1.197-1.796,1.797-3.279,1.797c-1.037,0-1.842-0.291-2.418-0.874
				s-0.863-1.397-0.863-2.446c0-1.08,0.295-1.887,0.893-2.417c0.593-0.53,1.302-0.862,2.129-0.996c0.827-0.134,1.833-0.2,3.021-0.2
				v-1.338c0-1.322-0.705-1.982-2.119-1.982c-0.813,0-1.809,0.172-2.979,0.518V16.74c1.181-0.326,2.298-0.488,3.358-0.488
				c1.25,0,2.197,0.301,2.848,0.903c0.646,0.603,0.973,1.489,0.973,2.661v7.959h-1.133L117.168,26.133z M116.643,22.236h-1.162
				c-0.932,0-1.631,0.197-2.096,0.591c-0.467,0.394-0.697,0.981-0.697,1.763c0,0.639,0.146,1.115,0.424,1.431
				c0.283,0.316,0.707,0.474,1.273,0.474c0.717,0,1.272-0.229,1.666-0.684c0.395-0.455,0.592-1.074,0.592-1.855V22.236z"/>
			<path fill="#010101" d="M124.425,27.93c-0.886,0-1.532-0.207-1.942-0.62c-0.406-0.413-0.611-1.073-0.611-1.978v-7.559h-1.494
				v-0.781l3.037-3.096h0.537v2.52h2.764v1.357h-2.764v7.217c0,0.619,0.101,1.027,0.303,1.226c0.202,0.199,0.51,0.298,0.918,0.298
				c0.424,0,0.996-0.094,1.723-0.283v1.348C126.014,27.812,125.193,27.93,124.425,27.93z"/>
			<path fill="#010101" d="M132.413,27.93c-1.53,0-2.677-0.502-3.438-1.504c-0.761-1.002-1.143-2.506-1.143-4.512
				c0-1.744,0.396-3.125,1.188-4.141c0.793-1.016,1.922-1.523,3.396-1.523c1.48,0,2.618,0.502,3.4,1.504
				c0.783,1.002,1.18,2.402,1.18,4.199c0,1.85-0.366,3.307-1.102,4.375C135.161,27.396,134.002,27.93,132.413,27.93z
				 M132.413,26.592c0.801,0,1.403-0.363,1.812-1.089c0.409-0.726,0.611-1.942,0.611-3.647c0-1.205-0.209-2.215-0.626-3.032
				c-0.417-0.817-1.017-1.226-1.797-1.226c-0.794,0-1.396,0.367-1.808,1.104c-0.41,0.737-0.614,1.787-0.614,3.154
				c0,1.537,0.204,2.71,0.614,3.521S131.619,26.592,132.413,26.592z"/>
			<path fill="#010101" d="M140.509,16.416l0.479,1.895c0.632-1.334,1.729-2.002,3.301-2.002c0.208,0,0.361,0.01,0.459,0.029v1.895
				c-0.163-0.014-0.407-0.02-0.732-0.02c-0.892,0-1.545,0.213-1.963,0.64c-0.416,0.427-0.625,1.093-0.625,1.997v6.924h-2.08V16.416
				H140.509z"/>
		</g>
		<g id="meegotouch-separator-background-horizontal" opacity="0.6">
			<g id="meegotouch-divider_2_">
				<line fill="none" stroke="#999999" x1="88.52" y1="52.3" x2="118.52" y2="52.3"/>
				<line fill="none" stroke="#FFFFFF" x1="88.52" y1="53.3" x2="118.52" y2="53.3"/>
			</g>
		</g>
		<g id="meegotouch-separator-background-vertical" opacity="0.6">
			<g id="meegotouch-divider_1_">
				<line fill="none" stroke="#999999" x1="76.582" y1="66.8" x2="76.582" y2="36.8"/>
				<line fill="none" stroke="#FFFFFF" x1="77.582" y1="66.8" x2="77.582" y2="36.8"/>
			</g>
		</g>
	</g>
</g>
</svg>
