<?xml version="1.0" encoding="utf-8"?>
<!-- Generator: Adobe Illustrator 14.0.0, SVG Export Plug-In . SVG Version: 6.00 Build 43363)  -->
<!DOCTYPE svg PUBLIC "-//W3C//DTD SVG 1.1//EN" "http://www.w3.org/Graphics/SVG/1.1/DTD/svg11.dtd">
<svg version="1.1" id="Layer_1" xmlns="http://www.w3.org/2000/svg" xmlns:xlink="http://www.w3.org/1999/xlink" x="0px" y="0px"
	 width="350.398px" height="235.5px" viewBox="0 0 350.398 235.5" enable-background="new 0 0 350.398 235.5" xml:space="preserve">
<g id="meegotouch-switch-layer">
</g>
<g id="theme">
	<g id="meegotouch-switch">
		<g id="MeegoTouchSwithThemeTemplateHelper">
			<g>
				<path fill="#B3B3B3" d="M16,234.5c-8.271,0-15-6.729-15-15V16C1,7.729,7.729,1,16,1h317.898c8.271,0,15,6.729,15,15v203.5
					c0,8.271-6.729,15-15,15H16z"/>
				<g>
					<path d="M333.898,2c7.721,0,14,6.28,14,14v203.5c0,7.721-6.279,14-14,14H16c-7.72,0-14-6.279-14-14V16C2,8.28,8.28,2,16,2
						H333.898 M333.898,0H16C7.2,0,0,7.2,0,16v203.5c0,8.8,7.2,16,16,16h317.898c8.801,0,16-7.2,16-16V16
						C349.898,7.2,342.699,0,333.898,0L333.898,0z"/>
				</g>
			</g>
			<path d="M205.939,41.013c-1.024,0-2.047-0.14-3.065-0.421v-1.589c1.121,0.321,2.123,0.481,3.004,0.481
				c0.942,0,1.69-0.211,2.242-0.635c0.549-0.424,0.823-1.033,0.823-1.826c0-0.506-0.106-0.934-0.321-1.286
				c-0.216-0.352-0.494-0.651-0.836-0.897c-0.343-0.246-0.839-0.557-1.486-0.934c-0.772-0.443-1.383-0.838-1.829-1.184
				c-0.449-0.346-0.822-0.786-1.123-1.323c-0.302-0.536-0.451-1.188-0.451-1.953c0-1.299,0.436-2.298,1.297-2.999
				c0.865-0.701,2.041-1.051,3.531-1.051c0.979,0,1.896,0.102,2.748,0.307v1.539c-0.957-0.213-1.824-0.318-2.604-0.318
				c-0.814,0-1.477,0.197-1.984,0.59c-0.507,0.393-0.764,0.938-0.764,1.635c0,0.451,0.135,0.883,0.402,1.293
				c0.271,0.41,1.004,0.963,2.199,1.66c0.776,0.451,1.396,0.848,1.842,1.189c0.447,0.341,0.826,0.779,1.141,1.312
				c0.313,0.533,0.465,1.173,0.465,1.918C211.169,39.516,209.426,41.013,205.939,41.013z"/>
			<path d="M228.191,28.924l-3.211,11.925h-2.563l-2.328-9.618l-2.502,9.618h-2.521l-3.088-11.925h2.205l2.314,10.038l2.521-10.038
				h2.41l2.367,10.059l2.462-10.059H228.191z"/>
			<path d="M232.374,40.849h-2.185v-10.5h-1.362v-1.425h3.547V40.849L232.374,40.849z M231.288,24.74
				c0.334,0,0.623,0.123,0.866,0.369c0.242,0.246,0.363,0.536,0.363,0.871c0,0.342-0.119,0.635-0.358,0.877
				c-0.238,0.242-0.529,0.363-0.871,0.363c-0.351,0-0.644-0.121-0.884-0.363c-0.237-0.242-0.356-0.535-0.356-0.877
				c0-0.349,0.119-0.643,0.356-0.882C230.645,24.859,230.938,24.74,231.288,24.74z"/>
			<path d="M238.525,41.013c-0.93,0-1.609-0.217-2.039-0.651c-0.432-0.434-0.646-1.126-0.646-2.076v-7.937h-1.566v-0.82l3.188-3.251
				h0.563v2.646h2.897v1.425h-2.897v7.577c0,0.65,0.104,1.079,0.313,1.287c0.211,0.209,0.533,0.312,0.968,0.312
				c0.44,0,1.047-0.099,1.805-0.297v1.415C240.193,40.89,239.332,41.013,238.525,41.013z"/>
			<path d="M247.018,41.013c-1.621,0-2.846-0.531-3.672-1.595c-0.828-1.062-1.24-2.623-1.24-4.681c0-1.914,0.445-3.391,1.338-4.43
				c0.896-1.039,2.189-1.559,3.895-1.559c0.664,0,1.336,0.085,2.021,0.257v1.486c-0.521-0.164-1.166-0.246-1.938-0.246
				c-0.998,0-1.754,0.398-2.271,1.194c-0.52,0.797-0.771,1.909-0.771,3.338c0,1.538,0.258,2.714,0.771,3.527
				c0.52,0.813,1.271,1.22,2.271,1.22c0.858,0,1.535-0.078,2.021-0.235v1.415C248.705,40.91,247.898,41.013,247.018,41.013z"/>
			<path d="M260.143,40.849h-2.186v-8.11c0-0.828-0.156-1.449-0.473-1.867c-0.313-0.416-0.787-0.625-1.416-0.625
				c-0.793,0-1.406,0.301-1.846,0.902c-0.44,0.601-0.656,1.385-0.656,2.348v7.353h-2.188V24.617h2.188v5.455
				c0.762-0.883,1.74-1.323,2.938-1.323c1.217,0,2.117,0.323,2.729,0.969c0.604,0.646,0.908,1.612,0.908,2.897L260.143,40.849
				L260.143,40.849z"/>
		</g>
		<g id="meegotouch-button-switch-background">
			<g>
				
					<linearGradient id="SVGID_1_" gradientUnits="userSpaceOnUse" x1="423.9033" y1="-1286.6826" x2="423.9033" y2="-1239.6807" gradientTransform="matrix(1 0 0 -1 -330 -1130.5)">
					<stop  offset="0" style="stop-color:#A7D1DB"/>
					<stop  offset="1" style="stop-color:#6E99A2"/>
				</linearGradient>
				<path fill="url(#SVGID_1_)" d="M34.399,156.183c-1.376,0-2.496-1.105-2.496-2.468v-42.067c0-1.359,1.12-2.467,2.496-2.467
					h119.008c1.377,0,2.496,1.105,2.496,2.467v42.066c0,1.358-1.119,2.467-2.496,2.467H34.399V156.183z"/>
				<g>
					<path fill="#0A0C0C" d="M153.407,109.682c1.101,0,1.996,0.882,1.996,1.967v42.065c0,1.084-0.896,1.968-1.996,1.968H34.399
						c-1.102,0-1.996-0.884-1.996-1.968v-42.066c0-1.085,0.896-1.967,1.996-1.967L153.407,109.682 M153.407,108.682H34.399
						c-1.653,0-2.996,1.328-2.996,2.967v42.065c0,1.64,1.343,2.968,2.996,2.968h119.008c1.654,0,2.996-1.328,2.996-2.968v-42.066
						C156.403,110.011,155.061,108.682,153.407,108.682L153.407,108.682z"/>
				</g>
				<g>
					<g>
						
							<linearGradient id="SVGID_2_" gradientUnits="userSpaceOnUse" x1="393.1387" y1="-997.1826" x2="393.1387" y2="-951.1807" gradientTransform="matrix(1 0 0 -1 -330 -841.5)">
							<stop  offset="0" style="stop-color:#A7D1DB"/>
							<stop  offset="1" style="stop-color:#6E99A2"/>
						</linearGradient>
						<path fill="url(#SVGID_2_)" d="M93.873,155.683H34.4c-1.027,0-1.996-0.785-1.996-1.968v-42.067
							c0-1.109,0.938-1.967,1.996-1.967h59.473"/>
					</g>
					<g>
						
							<linearGradient id="SVGID_3_" gradientUnits="userSpaceOnUse" x1="454.6367" y1="-997.1826" x2="454.6367" y2="-951.1816" gradientTransform="matrix(1 0 0 -1 -330 -841.5)">
							<stop  offset="0" style="stop-color:#D4D4D4"/>
							<stop  offset="1" style="stop-color:#C1C1C1"/>
						</linearGradient>
						<path fill="url(#SVGID_3_)" d="M93.873,109.682h59.532c0.965,0,1.996,0.778,1.996,1.967v42.066
							c0,1.058-0.893,1.968-1.996,1.968H93.873"/>
					</g>
				</g>
				
					<linearGradient id="SVGID_4_" gradientUnits="userSpaceOnUse" x1="423.9023" y1="-1240.1826" x2="423.9023" y2="-1286.1807" gradientTransform="matrix(1 0 0 -1 -330 -1130.5)">
					<stop  offset="0" style="stop-color:#000000"/>
					<stop  offset="1" style="stop-color:#FFFFFF"/>
				</linearGradient>
				<path opacity="0.2" fill="url(#SVGID_4_)" enable-background="new    " d="M153.401,110.683L153.401,110.683
					c0.349,0,0.998,0.332,0.998,0.966v42.053c0,0.485-0.494,0.965-0.998,0.965l-118.794,0.019c-0.448,0-1.201-0.157-1.201-1.229
					v-41.787c0-0.324,0.302-0.966,0.997-0.966L153.401,110.683 M153.401,109.683l-118.998,0.016c-1.267,0-1.997,1.089-1.997,1.966
					v41.786c0,1.64,1.201,2.23,2.201,2.23l118.794-0.02c1.072,0,1.998-0.941,1.998-1.965v-42.053
					C155.399,110.443,154.302,109.683,153.401,109.683L153.401,109.683z"/>
				<linearGradient id="SVGID_5_" gradientUnits="userSpaceOnUse" x1="90.8662" y1="132.6816" x2="96.8662" y2="132.6816">
					<stop  offset="0" style="stop-color:#85C9DB;stop-opacity:0"/>
					<stop  offset="0.0182" style="stop-color:#7EBECF;stop-opacity:0.0365"/>
					<stop  offset="0.117" style="stop-color:#588591;stop-opacity:0.2343"/>
					<stop  offset="0.2116" style="stop-color:#38555D;stop-opacity:0.4239"/>
					<stop  offset="0.2996" style="stop-color:#203035;stop-opacity:0.6002"/>
					<stop  offset="0.3794" style="stop-color:#0E1618;stop-opacity:0.7603"/>
					<stop  offset="0.4486" style="stop-color:#040606;stop-opacity:0.8988"/>
					<stop  offset="0.4991" style="stop-color:#000000"/>
					<stop  offset="0.5538" style="stop-color:#070707;stop-opacity:0.8908"/>
					<stop  offset="0.635" style="stop-color:#1B1B1B;stop-opacity:0.7287"/>
					<stop  offset="0.7327" style="stop-color:#3C3C3C;stop-opacity:0.5336"/>
					<stop  offset="0.8433" style="stop-color:#6A6A6A;stop-opacity:0.3129"/>
					<stop  offset="0.9631" style="stop-color:#A4A4A4;stop-opacity:0.0736"/>
					<stop  offset="1" style="stop-color:#B8B8B8;stop-opacity:0"/>
				</linearGradient>
				<rect x="90.866" y="109.682" opacity="0.33" fill="url(#SVGID_5_)" width="6" height="46"/>
			</g>
			<g>
				<path fill="#3B3B3B" d="M137.492,133.123c0,6.902-5.598,12.5-12.5,12.5c-6.902,0-12.5-5.598-12.5-12.5
					c0-6.904,5.598-12.5,12.5-12.5C131.894,120.623,137.492,126.219,137.492,133.123z M124.992,124.754
					c-4.621,0-8.369,3.748-8.369,8.369c0,4.623,3.748,8.369,8.369,8.369c4.623,0,8.369-3.746,8.369-8.369
					C133.361,128.502,129.615,124.754,124.992,124.754z"/>
				<path fill="#FFFFFF" d="M64.822,143.623c0,1.104-0.896,2-2,2l0,0c-1.105,0-2-0.896-2-2v-21c0-1.104,0.895-2,2-2l0,0
					c1.104,0,2,0.896,2,2V143.623z"/>
			</g>
		</g>
		<g id="meegotouch-button-switch-colorstripe" opacity="0">
			<g>
				<g>
					
						<linearGradient id="SVGID_6_" gradientUnits="userSpaceOnUse" x1="532.3428" y1="-997.4561" x2="532.3428" y2="-951.4561" gradientTransform="matrix(1 0 0 -1 -330 -841.5)">
						<stop  offset="0" style="stop-color:#A7D1DB"/>
						<stop  offset="1" style="stop-color:#6E99A2"/>
					</linearGradient>
					<path fill="url(#SVGID_6_)" d="M233.077,155.956h-59.473c-1.027,0-1.996-0.784-1.996-1.967v-42.066
						c0-1.11,0.938-1.967,1.996-1.967h59.473"/>
				</g>
				<g>
					
						<linearGradient id="SVGID_7_" gradientUnits="userSpaceOnUse" x1="593.8418" y1="-997.4561" x2="593.8418" y2="-951.4561" gradientTransform="matrix(1 0 0 -1 -330 -841.5)">
						<stop  offset="0" style="stop-color:#D4D4D4"/>
						<stop  offset="1" style="stop-color:#C1C1C1"/>
					</linearGradient>
					<path fill="url(#SVGID_7_)" d="M233.077,109.956h59.532c0.965,0,1.996,0.778,1.996,1.967v42.066
						c0,1.058-0.895,1.967-1.996,1.967h-59.532"/>
				</g>
			</g>
			
				<linearGradient id="SVGID_8_" gradientUnits="userSpaceOnUse" x1="563.1084" y1="-951.4531" x2="563.1084" y2="-997.4561" gradientTransform="matrix(1 0 0 -1 -330 -841.5)">
				<stop  offset="0" style="stop-color:#000000"/>
				<stop  offset="1" style="stop-color:#FFFFFF"/>
			</linearGradient>
			<path opacity="0.2" fill="url(#SVGID_8_)" enable-background="new    " d="M292.736,110.956c0.494,0,0.859,0.419,0.859,0.967
				v42.05c0,0.543-0.396,0.967-0.859,0.967l-118.773,0.02c-0.729,0-1.342-0.534-1.342-1.229V111.94c0-0.564,0.378-0.965,1.138-0.965
				L292.736,110.956z M173.65,109.975c-1.183,0-2.029,0.791-2.029,1.965v41.785c0,1.494,0.909,2.231,2.342,2.231l118.773-0.017
				c0.771,0,1.859-0.611,1.859-1.967V111.92c0-1.079-0.963-1.967-1.859-1.967L173.65,109.975z"/>
			<path fill="#3B3B3B" d="M276.715,133.456c0,6.903-5.598,12.5-12.5,12.5s-12.5-5.597-12.5-12.5c0-6.904,5.598-12.5,12.5-12.5
				S276.715,126.552,276.715,133.456z M264.215,125.087c-4.621,0-8.369,3.748-8.369,8.369c0,4.623,3.748,8.369,8.369,8.369
				c4.623,0,8.369-3.746,8.369-8.369C272.584,128.835,268.838,125.087,264.215,125.087z"/>
			<path fill="#FFFFFF" d="M204.044,143.956c0,1.104-0.896,2-2,2l0,0c-1.104,0-2-0.896-2-2v-21c0-1.104,0.896-2,2-2l0,0
				c1.104,0,2,0.896,2,2V143.956z"/>
		</g>
		<g id="meegotouch-button-switch-mask" opacity="0">
			<path fill="#FFFFFF" d="M294.585,206.594c0,1.1-0.899,2-2,2h-119c-1.1,0-2-0.9-2-2v-42c0-1.1,0.9-2,2-2h119c1.101,0,2,0.9,2,2
				V206.594z"/>
		</g>
		<g id="meegotouch-button-switch-thumb">
			<g>
				<g>
					
						<linearGradient id="SVGID_9_" gradientUnits="userSpaceOnUse" x1="393.1152" y1="-944.7188" x2="393.1152" y2="-897.7173" gradientTransform="matrix(1 0 0 -1 -330 -841.5)">
						<stop  offset="0" style="stop-color:#7CB1BC"/>
						<stop  offset="1" style="stop-color:#709DA7"/>
					</linearGradient>
					<path fill="url(#SVGID_9_)" d="M34.112,103.219c-1.377,0-2.497-1.104-2.497-2.465V58.701c0-1.359,1.12-2.465,2.497-2.465
						l58.004-0.018c1.378,0,2.499,1.106,2.499,2.467v42.051c0,1.358-1.121,2.468-2.499,2.468L34.112,103.219z"/>
					<path fill="#0A0C0C" d="M92.117,56.718L92.117,56.718c1.102,0,1.999,0.883,1.999,1.967v42.05c0,1.086-0.897,1.968-2,1.968
						l-58.003,0.016c-1.101,0-1.997-0.881-1.997-1.965V58.701c0-1.084,0.896-1.965,1.998-1.965L92.117,56.718 M92.116,55.718
						l-58.004,0.018c-1.655,0-2.997,1.328-2.997,2.965v42.052c0,1.637,1.342,2.965,2.997,2.965l58.004-0.016
						c1.655,0,2.999-1.328,2.999-2.968v-42.05C95.115,57.046,93.771,55.718,92.116,55.718L92.116,55.718z"/>
				</g>
				<g>
					
						<linearGradient id="SVGID_10_" gradientUnits="userSpaceOnUse" x1="393.1152" y1="-944.2188" x2="393.1152" y2="-898.2173" gradientTransform="matrix(1 0 0 -1 -330 -841.5)">
						<stop  offset="0" style="stop-color:#6B949D"/>
						<stop  offset="1" style="stop-color:#7FB6C2"/>
					</linearGradient>
					<path fill="url(#SVGID_10_)" d="M94.115,100.735c0,1.021-0.926,1.968-1.999,1.968l-57.8,0.016c-1,0-2.201-0.594-2.201-2.232
						V58.701c0-0.876,0.731-1.965,1.997-1.965l58.004-0.018c0.901,0,1.999,0.763,1.999,1.967V100.735z M91.115,61.919
						c0-1.642-0.32-2.201-2.2-2.201H37.314c-1.563,0-2.199,0.664-2.199,2.201v35.6c0,1.551,0.617,2.199,2.199,2.199h51.601
						c1.692,0,2.2-0.607,2.2-2.199V61.919z"/>
				</g>
				
					<linearGradient id="SVGID_11_" gradientUnits="userSpaceOnUse" x1="393.1152" y1="-898.2183" x2="393.1152" y2="-944.2168" gradientTransform="matrix(1 0 0 -1 -330 -841.5)">
					<stop  offset="0" style="stop-color:#FFFFFF"/>
					<stop  offset="1" style="stop-color:#000000"/>
				</linearGradient>
				<path opacity="0.2" fill="url(#SVGID_11_)" enable-background="new    " d="M92.116,57.718L92.116,57.718
					c0.349,0,0.999,0.332,0.999,0.967v42.05c0,0.488-0.495,0.968-0.999,0.968l-57.8,0.016c-0.448,0-1.201-0.158-1.201-1.23V58.701
					c0-0.326,0.301-0.965,0.997-0.965L92.116,57.718 M92.116,56.718l-58.004,0.018c-1.266,0-1.997,1.089-1.997,1.965v41.784
					c0,1.64,1.201,2.231,2.201,2.231l57.8-0.016c1.073,0,1.999-0.945,1.999-1.969V58.685C94.115,57.48,93.02,56.718,92.116,56.718
					L92.116,56.718z"/>
			</g>
		</g>
	</g>
</g>
</svg>
