<?xml version="1.0" encoding="utf-8"?>
<!-- Generator: Adobe Illustrator 14.0.0, SVG Export Plug-In . SVG Version: 6.00 Build 43363)  -->
<!DOCTYPE svg PUBLIC "-//W3C//DTD SVG 1.1//EN" "http://www.w3.org/Graphics/SVG/1.1/DTD/svg11.dtd">
<svg version="1.1" id="Layer_1" xmlns="http://www.w3.org/2000/svg" xmlns:xlink="http://www.w3.org/1999/xlink" x="0px" y="0px"
	 width="350px" height="520px" viewBox="0 0 350 520" enable-background="new 0 0 350 520" xml:space="preserve">
<g id="meegotouch-splitbuttongroup-layer">
</g>
<g id="meegotouch-splitbuttongroup">
	<g id="MeegoTouchButtonGroupThemeTemplateHelper">
		<g>
			<path fill="#B3B3B3" d="M16,519c-8.271,0-15-6.729-15-15V16C1,7.729,7.729,1,16,1h318c8.271,0,15,6.729,15,15v488
				c0,8.271-6.729,15-15,15H16z"/>
			<g>
				<path d="M334,2c7.721,0,14,6.28,14,14v488c0,7.72-6.279,14-14,14H16c-7.72,0-14-6.28-14-14V16C2,8.28,8.28,2,16,2H334 M334,0H16
					C7.2,0,0,7.2,0,16v488c0,8.8,7.2,16,16,16h318c8.8,0,16-7.2,16-16V16C350,7.2,342.8,0,334,0L334,0z"/>
			</g>
		</g>
		<path fill="#010101" d="M58.147,33h-4.153V17.711h4.471c2.83,0,4.245,1.234,4.245,3.702c0,1.75-0.8,2.926-2.399,3.527
			c1.907,0.431,2.86,1.682,2.86,3.753C63.171,31.564,61.496,33,58.147,33z M56.198,24.325h1.59c0.916,0,1.59-0.219,2.02-0.656
			c0.432-0.438,0.646-1.121,0.646-2.051c0-1.613-0.783-2.42-2.348-2.42h-1.908V24.325z M56.198,31.514h1.846
			c0.998,0,1.72-0.225,2.164-0.672c0.444-0.447,0.666-1.185,0.666-2.21c0-1.887-0.957-2.83-2.871-2.83h-1.805V31.514z"/>
		<path fill="#010101" d="M69.026,33.164c-1.217,0-2.128-0.316-2.732-0.948c-0.605-0.632-0.908-1.581-0.908-2.846v-8.296h2.185
			v7.916c0,0.896,0.157,1.568,0.472,2.016c0.315,0.448,0.789,0.672,1.426,0.672c0.792,0,1.406-0.301,1.84-0.902
			c0.435-0.602,0.651-1.385,0.651-2.349v-7.353h2.185V33h-1.211l-0.44-1.764C71.733,32.521,70.578,33.164,69.026,33.164z"/>
		<path fill="#010101" d="M80.173,33.164c-0.93,0-1.61-0.217-2.04-0.651c-0.432-0.434-0.646-1.126-0.646-2.076V22.5h-1.568v-0.82
			l3.188-3.25h0.563v2.645h2.902V22.5H79.67v7.578c0,0.648,0.106,1.078,0.318,1.286c0.212,0.209,0.533,0.313,0.964,0.313
			c0.444,0,1.046-0.1,1.805-0.298v1.415C81.841,33.041,80.979,33.164,80.173,33.164z"/>
		<path fill="#010101" d="M87.463,33.164c-0.93,0-1.61-0.217-2.04-0.651c-0.432-0.434-0.646-1.126-0.646-2.076V22.5h-1.568v-0.82
			l3.188-3.25h0.563v2.645h2.902V22.5H86.96v7.578c0,0.648,0.106,1.078,0.318,1.286c0.212,0.209,0.533,0.313,0.964,0.313
			c0.444,0,1.046-0.1,1.805-0.298v1.415C89.131,33.041,88.27,33.164,87.463,33.164z"/>
		<path fill="#010101" d="M95.85,33.164c-1.606,0-2.809-0.526-3.609-1.579c-0.799-1.053-1.199-2.632-1.199-4.737
			c0-1.832,0.415-3.281,1.246-4.348c0.83-1.066,2.018-1.6,3.562-1.6c1.559,0,2.75,0.526,3.574,1.579
			c0.823,1.053,1.235,2.522,1.235,4.409c0,1.941-0.385,3.473-1.153,4.594C98.736,32.604,97.518,33.164,95.85,33.164z M95.85,31.76
			c0.842,0,1.476-0.381,1.902-1.144c0.428-0.763,0.641-2.039,0.641-3.83c0-1.265-0.219-2.325-0.656-3.184s-1.066-1.287-1.887-1.287
			c-0.834,0-1.466,0.386-1.896,1.159c-0.431,0.771-0.646,1.876-0.646,3.312c0,1.613,0.216,2.846,0.646,3.696
			C94.384,31.334,95.016,31.76,95.85,31.76z"/>
		<path fill="#010101" d="M111.889,33h-2.185v-7.916c0-0.896-0.157-1.566-0.472-2.015c-0.315-0.449-0.786-0.672-1.415-0.672
			c-0.793,0-1.408,0.301-1.846,0.902c-0.438,0.601-0.656,1.384-0.656,2.349V33h-2.185V21.074h1.221l0.441,1.764
			c0.758-1.291,1.913-1.938,3.465-1.938c1.211,0,2.118,0.318,2.723,0.953c0.605,0.637,0.908,1.586,0.908,2.852L111.889,33
			L111.889,33z"/>
		<path fill="#010101" d="M126.674,22.521l0.461-1.446h1.221v11.361c0,1.285-0.398,2.282-1.195,2.989
			c-0.796,0.708-1.889,1.062-3.275,1.062c-1.136,0-2.424-0.182-3.866-0.543v-1.539c1.504,0.363,2.707,0.544,3.609,0.544
			c0.786,0,1.362-0.146,1.728-0.436c0.366-0.291,0.593-0.671,0.682-1.139s0.134-1.133,0.134-1.994v-0.308
			c-0.581,0.834-1.511,1.251-2.789,1.251c-1.36,0-2.381-0.47-3.061-1.41c-0.681-0.939-1.021-2.35-1.021-4.229
			c0-1.798,0.376-3.211,1.128-4.24c0.752-1.028,1.839-1.543,3.261-1.543C125.057,20.9,126.051,21.44,126.674,22.521z
			 M123.885,30.836c0.758,0,1.336-0.271,1.732-0.814c0.396-0.544,0.595-1.715,0.595-3.512c0-1.381-0.187-2.418-0.559-3.112
			c-0.373-0.694-0.929-1.041-1.667-1.041c-0.786,0-1.386,0.298-1.799,0.892c-0.414,0.596-0.621,1.682-0.621,3.262
			c0,1.441,0.193,2.523,0.58,3.245C122.532,30.477,123.111,30.836,123.885,30.836z"/>
		<path fill="#010101" d="M132.549,21.074l0.502,1.99c0.663-1.402,1.818-2.103,3.467-2.103c0.218,0,0.379,0.011,0.481,0.03v1.99
			c-0.171-0.014-0.428-0.021-0.769-0.021c-0.938,0-1.624,0.225-2.062,0.672c-0.438,0.448-0.656,1.146-0.656,2.098V33h-2.185V21.074
			H132.549z"/>
		<path fill="#010101" d="M142.834,33.164c-1.606,0-2.809-0.526-3.609-1.579c-0.799-1.053-1.199-2.632-1.199-4.737
			c0-1.832,0.415-3.281,1.246-4.348c0.83-1.066,2.018-1.6,3.562-1.6c1.559,0,2.75,0.526,3.574,1.579
			c0.823,1.053,1.235,2.522,1.235,4.409c0,1.941-0.385,3.473-1.153,4.594C145.721,32.604,144.502,33.164,142.834,33.164z
			 M142.834,31.76c0.842,0,1.476-0.381,1.902-1.144c0.428-0.763,0.641-2.039,0.641-3.83c0-1.265-0.219-2.325-0.656-3.184
			s-1.066-1.287-1.887-1.287c-0.834,0-1.466,0.386-1.896,1.159c-0.431,0.771-0.646,1.876-0.646,3.312
			c0,1.613,0.216,2.846,0.646,3.696C141.368,31.334,142,31.76,142.834,31.76z"/>
		<path fill="#010101" d="M153.713,33.164c-1.217,0-2.128-0.316-2.732-0.948c-0.605-0.632-0.908-1.581-0.908-2.846v-8.296h2.185
			v7.916c0,0.896,0.157,1.568,0.472,2.016c0.315,0.448,0.789,0.672,1.426,0.672c0.792,0,1.406-0.301,1.84-0.902
			c0.435-0.602,0.651-1.385,0.651-2.349v-7.353h2.185V33h-1.211l-0.44-1.764C156.42,32.521,155.265,33.164,153.713,33.164z"/>
		<path fill="#010101" d="M163.034,21.074l0.441,1.703c0.43-0.637,0.908-1.107,1.436-1.416c0.525-0.307,1.195-0.461,2.01-0.461
			c1.318,0,2.31,0.497,2.973,1.492c0.663,0.994,0.995,2.486,0.995,4.476c0,1.969-0.453,3.503-1.358,4.604
			c-0.906,1.1-2.21,1.65-3.912,1.65c-0.451,0-0.991-0.075-1.62-0.226v3.527h-2.185V21.074H163.034z M163.998,26.406v4.933
			c0.526,0.198,1.08,0.298,1.661,0.298c0.984,0,1.725-0.342,2.22-1.025c0.496-0.684,0.743-1.966,0.743-3.846
			c0-1.456-0.184-2.548-0.553-3.276c-0.369-0.728-0.92-1.092-1.651-1.092c-0.793,0-1.395,0.306-1.805,0.918
			C164.203,23.928,163.998,24.957,163.998,26.406z"/>
		<path fill="#010101" d="M182.516,16.768h1.928l-5.493,19.657h-1.938L182.516,16.768z"/>
		<path fill="#010101" d="M193.52,33.164c-1.022,0-2.047-0.141-3.063-0.42v-1.59c1.121,0.321,2.123,0.482,3.004,0.482
			c0.94,0,1.688-0.213,2.241-0.637c0.55-0.424,0.822-1.031,0.822-1.824c0-0.506-0.104-0.936-0.32-1.287
			c-0.217-0.352-0.494-0.651-0.835-0.897c-0.345-0.246-0.841-0.558-1.487-0.933c-0.771-0.445-1.383-0.84-1.83-1.185
			c-0.445-0.345-0.82-0.786-1.123-1.323c-0.301-0.536-0.449-1.188-0.449-1.953c0-1.299,0.434-2.299,1.297-2.999
			c0.865-0.7,2.043-1.052,3.533-1.052c0.978,0,1.893,0.104,2.746,0.309v1.537c-0.955-0.211-1.822-0.317-2.604-0.317
			c-0.813,0-1.476,0.196-1.983,0.59c-0.51,0.394-0.764,0.938-0.764,1.636c0,0.451,0.135,0.881,0.402,1.291
			c0.271,0.41,1.004,0.965,2.199,1.662c0.778,0.451,1.396,0.848,1.842,1.189c0.446,0.342,0.826,0.779,1.14,1.312
			c0.312,0.533,0.466,1.172,0.466,1.917C198.748,31.667,197.006,33.164,193.52,33.164z"/>
		<path fill="#010101" d="M202.081,21.074l0.44,1.703c0.431-0.637,0.908-1.107,1.437-1.416c0.524-0.307,1.194-0.461,2.01-0.461
			c1.318,0,2.31,0.497,2.974,1.492c0.662,0.994,0.994,2.486,0.994,4.476c0,1.969-0.453,3.503-1.355,4.604
			c-0.906,1.1-2.21,1.65-3.912,1.65c-0.451,0-0.991-0.075-1.62-0.226v3.527h-2.187V21.074H202.081z M203.045,26.406v4.933
			c0.525,0.198,1.08,0.298,1.661,0.298c0.983,0,1.726-0.342,2.22-1.025c0.496-0.684,0.743-1.966,0.743-3.846
			c0-1.456-0.185-2.548-0.553-3.276c-0.369-0.728-0.921-1.092-1.651-1.092c-0.793,0-1.395,0.306-1.805,0.918
			S203.045,24.957,203.045,26.406z"/>
		<path fill="#010101" d="M212.406,33V16.768h2.185V33H212.406z"/>
		<path fill="#010101" d="M220.076,33h-2.184V22.5h-1.363v-1.426h3.547V33L220.076,33z M218.99,16.891
			c0.334,0,0.623,0.123,0.865,0.369c0.242,0.246,0.365,0.537,0.365,0.872c0,0.342-0.121,0.634-0.359,0.877
			c-0.239,0.243-0.53,0.364-0.871,0.364c-0.35,0-0.645-0.121-0.883-0.364c-0.239-0.243-0.358-0.535-0.358-0.877
			c0-0.349,0.119-0.643,0.358-0.882C218.346,17.011,218.641,16.891,218.99,16.891z"/>
		<path fill="#010101" d="M226.229,33.164c-0.93,0-1.607-0.217-2.039-0.651c-0.433-0.434-0.646-1.126-0.646-2.076V22.5h-1.567v-0.82
			l3.188-3.25h0.563v2.645h2.9V22.5h-2.9v7.578c0,0.648,0.104,1.078,0.316,1.286c0.212,0.209,0.533,0.313,0.964,0.313
			c0.444,0,1.048-0.1,1.806-0.298v1.415C227.896,33.041,227.036,33.164,226.229,33.164z"/>
		<path fill="#010101" d="M237.632,16.768v5.414c0.779-0.854,1.746-1.281,2.901-1.281c1.334,0,2.335,0.492,3.005,1.477
			s1.005,2.461,1.005,4.43c0,1.969-0.451,3.51-1.354,4.625c-0.902,1.113-2.146,1.671-3.726,1.671c-1.552,0-2.891-0.068-4.021-0.205
			v-16.13L237.632,16.768L237.632,16.768z M237.632,26.991v4.522c0.636,0.082,1.203,0.123,1.702,0.123
			c1.005,0,1.746-0.367,2.225-1.103c0.479-0.736,0.719-1.998,0.719-3.789c0-1.449-0.188-2.536-0.563-3.261s-0.938-1.087-1.682-1.087
			c-0.727,0-1.264,0.219-1.609,0.656c-0.35,0.438-0.566,0.969-0.654,1.595C237.676,25.273,237.632,26.055,237.632,26.991z"/>
		<path fill="#010101" d="M250.613,33.164c-1.217,0-2.129-0.316-2.732-0.948c-0.605-0.632-0.908-1.581-0.908-2.846v-8.296h2.188
			v7.916c0,0.896,0.154,1.568,0.472,2.016c0.313,0.448,0.789,0.672,1.429,0.672c0.791,0,1.403-0.301,1.84-0.902
			c0.435-0.602,0.648-1.385,0.648-2.349v-7.353h2.188V33h-1.211l-0.44-1.764C253.32,32.521,252.165,33.164,250.613,33.164z"/>
		<path fill="#010101" d="M261.759,33.164c-0.93,0-1.61-0.217-2.04-0.651c-0.432-0.434-0.646-1.126-0.646-2.076V22.5h-1.568v-0.82
			l3.188-3.25h0.563v2.645h2.902V22.5h-2.902v7.578c0,0.648,0.105,1.078,0.318,1.286c0.212,0.209,0.533,0.313,0.964,0.313
			c0.444,0,1.046-0.1,1.805-0.298v1.415C263.427,33.041,262.564,33.164,261.759,33.164z"/>
		<path fill="#010101" d="M269.05,33.164c-0.93,0-1.61-0.217-2.04-0.651c-0.432-0.434-0.646-1.126-0.646-2.076V22.5h-1.565v-0.82
			l3.188-3.25h0.563v2.645h2.902V22.5h-2.902v7.578c0,0.648,0.104,1.078,0.318,1.286c0.212,0.209,0.531,0.313,0.964,0.313
			c0.442,0,1.046-0.1,1.805-0.298v1.415C270.718,33.041,269.855,33.164,269.05,33.164z"/>
		<path fill="#010101" d="M277.438,33.164c-1.604,0-2.81-0.526-3.607-1.579c-0.801-1.053-1.199-2.632-1.199-4.737
			c0-1.832,0.415-3.281,1.246-4.348c0.83-1.066,2.02-1.6,3.563-1.6c1.56,0,2.75,0.526,3.574,1.579
			c0.821,1.053,1.233,2.522,1.233,4.409c0,1.941-0.386,3.473-1.153,4.594C280.323,32.604,279.104,33.164,277.438,33.164z
			 M277.438,31.76c0.842,0,1.478-0.381,1.901-1.144c0.429-0.763,0.642-2.039,0.642-3.83c0-1.265-0.219-2.325-0.654-3.184
			s-1.066-1.287-1.889-1.287c-0.834,0-1.467,0.386-1.896,1.159c-0.433,0.771-0.646,1.876-0.646,3.312
			c0,1.613,0.217,2.846,0.646,3.696C275.971,31.334,276.604,31.76,277.438,31.76z"/>
		<path fill="#010101" d="M293.475,33h-2.185v-7.916c0-0.896-0.157-1.566-0.472-2.015c-0.315-0.449-0.786-0.672-1.416-0.672
			c-0.793,0-1.407,0.301-1.846,0.902c-0.438,0.601-0.656,1.384-0.656,2.349V33h-2.187V21.074h1.224l0.438,1.764
			c0.761-1.291,1.913-1.938,3.465-1.938c1.214,0,2.118,0.318,2.726,0.953c0.604,0.637,0.908,1.586,0.908,2.852V33L293.475,33z"/>
		<path fill="#010101" d="M298.713,33.164c-0.896,0-1.917-0.133-3.064-0.4v-1.568c1.229,0.335,2.201,0.502,2.912,0.502
			c0.73,0,1.281-0.151,1.65-0.456c0.369-0.304,0.553-0.761,0.553-1.368c0-0.355-0.115-0.689-0.348-1s-0.814-0.692-1.744-1.144
			c-0.594-0.287-1.076-0.559-1.445-0.815s-0.684-0.602-0.94-1.035c-0.259-0.433-0.392-0.973-0.392-1.615
			c0-1.032,0.367-1.851,1.104-2.456c0.731-0.604,1.676-0.907,2.821-0.907c1.009,0,1.914,0.127,2.729,0.379v1.498
			c-0.854-0.295-1.686-0.441-2.491-0.441c-0.67,0-1.172,0.144-1.502,0.431c-0.332,0.287-0.498,0.718-0.498,1.292
			c0,0.301,0.105,0.583,0.317,0.846c0.212,0.264,0.741,0.597,1.59,1c0.615,0.287,1.124,0.566,1.527,0.836s0.743,0.636,1.021,1.097
			c0.276,0.462,0.416,1.041,0.416,1.738c0,1.176-0.365,2.067-1.093,2.677C301.107,32.859,300.066,33.164,298.713,33.164z"/>
	</g>
	<g id="meegotouch-buttongroup-background-selected-vertical-bottom">
		<g>
			<path fill="#080C0C" d="M180.5,207.061h65v61.001c0,2.209-1.791,4-4,4h-57c-2.209,0-4-1.791-4-4V207.061L180.5,207.061z"/>
			
				<linearGradient id="SVGID_1_" gradientUnits="userSpaceOnUse" x1="-262.7656" y1="-434.5796" x2="-325.7671" y2="-434.5796" gradientTransform="matrix(-4.366649e-008 -1 -1 4.366649e-008 -221.5795 -54.7047)">
				<stop  offset="0" style="stop-color:#5D8891"/>
				<stop  offset="1" style="stop-color:#A7D1DB"/>
			</linearGradient>
			<path fill="url(#SVGID_1_)" d="M181.5,208.061h63v59.751c0,1.795-1.455,3.25-3.25,3.25h-56.5c-1.795,0-3.25-1.455-3.25-3.25
				V208.061L181.5,208.061z"/>
			<path opacity="0.4" fill="#171717" enable-background="new    " d="M181.494,267.129c0,1.504,1.5,2.412,3.385,2.412h56.225
				c0.998,0,1.873-0.846,1.873-1.912v-59.568h1.523v59.568c0,2.053-1.365,3.434-3.396,3.434h-56.226
				c-2.021,0-3.378-1.383-3.378-3.438L181.494,267.129z"/>
			<path opacity="0.4" fill="#F4F4F4" enable-background="new    " d="M181.525,208.051h63v0.927h-62.049c0,0,0,60.204,0,61.172
				c-0.828-0.75-0.969-2.031-0.969-2.031L181.525,208.051z"/>
		</g>
	</g>
	<g id="meegotouch-buttongroup-background-selected-vertical-center">
		<g>
			<g>
				
					<linearGradient id="SVGID_2_" gradientUnits="userSpaceOnUse" x1="205" y1="-190.772" x2="205" y2="-254.772" gradientTransform="matrix(1 0 0 1 8 388)">
					<stop  offset="0" style="stop-color:#A7D1DB"/>
					<stop  offset="1" style="stop-color:#5D8891"/>
				</linearGradient>
				<rect x="181" y="133.228" fill="url(#SVGID_2_)" width="64" height="64"/>
				<path fill="#080C0C" d="M244.5,133.728v63h-63v-63H244.5 M245.5,132.728h-1h-63h-1v1v63v1h1h63h1v-1v-63V132.728L245.5,132.728z
					"/>
			</g>
			<polygon opacity="0.4" fill="#F4F4F4" enable-background="new    " points="182.505,196.735 182.505,134.738 244.489,134.738 
				244.489,133.722 244.489,133.722 181.489,133.722 181.489,196.722 			"/>
			<polygon opacity="0.4" fill="#171717" enable-background="new    " points="243.025,133.722 243.025,195.219 181.489,195.219 
				181.489,196.722 244.489,196.722 244.489,133.722 			"/>
		</g>
	</g>
	<g id="meegotouch-buttongroup-background-selected-vertical-top">
		<g>
			<path fill="#080C0C" d="M180.5,123.478v-61c0-2.209,1.791-4,4-4h57c2.209,0,4,1.791,4,4v61H180.5z"/>
			
				<linearGradient id="SVGID_3_" gradientUnits="userSpaceOnUse" x1="-329.1514" y1="238.1289" x2="-266.1514" y2="238.1289" gradientTransform="matrix(4.366649e-008 1 1 -4.366649e-008 -25.129 388.6295)">
				<stop  offset="0" style="stop-color:#5D8891"/>
				<stop  offset="1" style="stop-color:#A7D1DB"/>
			</linearGradient>
			<path fill="url(#SVGID_3_)" d="M181.5,122.478v-59.75c0-1.795,1.455-3.25,3.25-3.25h56.5c1.795,0,3.25,1.455,3.25,3.25v59.75
				H181.5z"/>
			<path opacity="0.4" fill="#F4F4F4" enable-background="new    " d="M244.508,63.411c0-1.502-1.5-2.932-3.386-2.932h-56.224
				c-1.479,0-2.397,0.932-2.397,2.432v59.567h-1V62.911c0-2.054,1.365-3.433,3.397-3.433h56.224c2.021,0,3.378,1.382,3.378,3.438
				L244.508,63.411z"/>
			<path opacity="0.4" fill="#171717" enable-background="new    " d="M244.477,122.488h-63v-1.51H243c0,0,0-60.036,0-61.005
				c1.258,0.797,1.477,2.25,1.477,2.25V122.488z"/>
		</g>
	</g>
	<g id="meegotouch-buttongroup-background-pressed-vertical-bottom">
		<g>
			<path fill="#080C0C" d="M107.5,207.061h65v61.001c0,2.209-1.791,4-4,4h-57c-2.209,0-4-1.791-4-4V207.061L107.5,207.061z"/>
			
				<linearGradient id="SVGID_4_" gradientUnits="userSpaceOnUse" x1="-262.7656" y1="-361.5796" x2="-325.7671" y2="-361.5796" gradientTransform="matrix(-4.366649e-008 -1 -1 4.366649e-008 -221.5795 -54.7047)">
				<stop  offset="0" style="stop-color:#5D8891"/>
				<stop  offset="1" style="stop-color:#A7D1DB"/>
			</linearGradient>
			<path fill="url(#SVGID_4_)" d="M108.5,208.061h63v59.751c0,1.795-1.455,3.25-3.25,3.25h-56.5c-1.795,0-3.25-1.455-3.25-3.25
				V208.061L108.5,208.061z"/>
			<path opacity="0.4" fill="#171717" enable-background="new    " d="M108.494,267.129c0,1.504,1.5,2.412,3.385,2.412h56.224
				c0.998,0,1.873-0.846,1.873-1.912v-59.568h1.524v59.568c0,2.053-1.365,3.434-3.397,3.434h-56.225
				c-2.02,0-3.378-1.383-3.378-3.438L108.494,267.129z"/>
			<path opacity="0.4" fill="#F4F4F4" enable-background="new    " d="M108.525,208.051h63v0.927h-62.049c0,0,0,60.204,0,61.172
				c-0.828-0.75-0.969-2.031-0.969-2.031L108.525,208.051z"/>
		</g>
	</g>
	<g id="meegotouch-buttongroup-background-pressed-vertical-center">
		<g>
			<g>
				
					<linearGradient id="SVGID_5_" gradientUnits="userSpaceOnUse" x1="132" y1="-190.772" x2="132" y2="-254.772" gradientTransform="matrix(1 0 0 1 8 388)">
					<stop  offset="0" style="stop-color:#A7D1DB"/>
					<stop  offset="1" style="stop-color:#5D8891"/>
				</linearGradient>
				<rect x="108" y="133.228" fill="url(#SVGID_5_)" width="64" height="64"/>
				<path fill="#080C0C" d="M171.5,133.728v63h-63v-63H171.5 M172.5,132.728h-1h-63h-1v1v63v1h1h63h1v-1v-63V132.728L172.5,132.728z
					"/>
			</g>
			<polygon opacity="0.4" fill="#F4F4F4" enable-background="new    " points="109.505,196.735 109.505,134.738 171.489,134.738 
				171.489,133.722 171.489,133.722 108.489,133.722 108.489,196.722 			"/>
			<polygon opacity="0.4" fill="#171717" enable-background="new    " points="170.026,133.722 170.026,195.219 108.489,195.219 
				108.489,196.722 171.489,196.722 171.489,133.722 			"/>
		</g>
	</g>
	<g id="meegotouch-buttongroup-background-pressed-vertical-top">
		<g>
			<path fill="#080C0C" d="M107.5,123.478v-61c0-2.209,1.791-4,4-4h57c2.209,0,4,1.791,4,4v61H107.5z"/>
			
				<linearGradient id="SVGID_6_" gradientUnits="userSpaceOnUse" x1="-329.1514" y1="165.1289" x2="-266.1514" y2="165.1289" gradientTransform="matrix(4.366649e-008 1 1 -4.366649e-008 -25.129 388.6295)">
				<stop  offset="0" style="stop-color:#5D8891"/>
				<stop  offset="1" style="stop-color:#A7D1DB"/>
			</linearGradient>
			<path fill="url(#SVGID_6_)" d="M108.5,122.478v-59.75c0-1.795,1.455-3.25,3.25-3.25h56.5c1.795,0,3.25,1.455,3.25,3.25v59.75
				H108.5z"/>
			<path opacity="0.4" fill="#F4F4F4" enable-background="new    " d="M171.507,63.411c0-1.502-1.5-2.932-3.385-2.932h-56.224
				c-1.479,0-2.397,0.932-2.397,2.432v59.567h-1V62.911c0-2.054,1.365-3.433,3.397-3.433h56.224c2.02,0,3.378,1.382,3.378,3.438
				L171.507,63.411z"/>
			<path opacity="0.4" fill="#171717" enable-background="new    " d="M171.476,122.488h-63v-1.51H170c0,0,0-60.036,0-61.005
				c1.257,0.797,1.476,2.25,1.476,2.25V122.488z"/>
		</g>
	</g>
	<g id="meegotouch-buttongroup-background-vertical-bottom">
		<g>
			<path fill="#080C0C" d="M34,207.061h65v61.001c0,2.209-1.791,4-4,4H38c-2.209,0-4-1.791-4-4V207.061L34,207.061z"/>
			
				<linearGradient id="SVGID_7_" gradientUnits="userSpaceOnUse" x1="-262.7656" y1="-288.0796" x2="-325.7671" y2="-288.0796" gradientTransform="matrix(-4.366649e-008 -1 -1 4.366649e-008 -221.5795 -54.7047)">
				<stop  offset="0" style="stop-color:#A7D1DB"/>
				<stop  offset="1" style="stop-color:#5D8891"/>
			</linearGradient>
			<path fill="url(#SVGID_7_)" d="M35,208.061h63v59.751c0,1.795-1.455,3.25-3.25,3.25h-56.5c-1.795,0-3.25-1.455-3.25-3.25V208.061
				L35,208.061z"/>
			<path opacity="0.4" fill="#171717" enable-background="new    " d="M34.994,267.129c0,1.504,1.5,2.412,3.385,2.412h56.224
				c0.998,0,1.873-0.846,1.873-1.912v-59.568H98v59.568c0,2.053-1.365,3.434-3.397,3.434H38.378c-2.02,0-3.378-1.383-3.378-3.438
				L34.994,267.129z"/>
			<path opacity="0.4" fill="#F4F4F4" enable-background="new    " d="M35.025,208.051h63v0.927H35.976c0,0,0,60.204,0,61.172
				c-0.828-0.75-0.969-2.031-0.969-2.031L35.025,208.051z"/>
		</g>
	</g>
	<g id="meegotouch-buttongroup-background-vertical-center">
		<g>
			<g>
				
					<linearGradient id="SVGID_8_" gradientUnits="userSpaceOnUse" x1="58.5" y1="-190.772" x2="58.5" y2="-254.772" gradientTransform="matrix(1 0 0 1 8 388)">
					<stop  offset="0" style="stop-color:#5D8891"/>
					<stop  offset="1" style="stop-color:#A7D1DB"/>
				</linearGradient>
				<rect x="34.5" y="133.228" fill="url(#SVGID_8_)" width="64" height="64"/>
				<path fill="#080C0C" d="M98,133.728v63H35v-63H98 M99,132.728h-1H35h-1v1v63v1h1h63h1v-1v-63V132.728L99,132.728z"/>
			</g>
			<polygon opacity="0.4" fill="#F4F4F4" enable-background="new    " points="36.005,196.735 36.005,134.738 97.989,134.738 
				97.989,133.722 97.989,133.722 34.989,133.722 34.989,196.722 			"/>
			<polygon opacity="0.4" fill="#171717" enable-background="new    " points="96.526,133.722 96.526,195.219 34.989,195.219 
				34.989,196.722 97.989,196.722 97.989,133.722 			"/>
		</g>
	</g>
	<g id="meegotouch-buttongroup-background-vertical-top">
		<g>
			<path fill="#080C0C" d="M34,123.478v-61c0-2.209,1.791-4,4-4h57c2.209,0,4,1.791,4,4v61H34z"/>
			
				<linearGradient id="SVGID_9_" gradientUnits="userSpaceOnUse" x1="-329.1514" y1="91.6289" x2="-266.1514" y2="91.6289" gradientTransform="matrix(4.366649e-008 1 1 -4.366649e-008 -25.129 388.6295)">
				<stop  offset="0" style="stop-color:#A7D1DB"/>
				<stop  offset="1" style="stop-color:#5D8891"/>
			</linearGradient>
			<path fill="url(#SVGID_9_)" d="M35,122.478v-59.75c0-1.795,1.455-3.25,3.25-3.25h56.5c1.795,0,3.25,1.455,3.25,3.25v59.75H35z"/>
			<path opacity="0.4" fill="#F4F4F4" enable-background="new    " d="M98.007,63.411c0-1.502-1.5-2.932-3.385-2.932H38.398
				c-1.479,0-2.397,0.932-2.397,2.432v59.567h-1V62.911c0-2.054,1.365-3.433,3.397-3.433h56.224c2.02,0,3.378,1.382,3.378,3.438
				L98.007,63.411z"/>
			<path opacity="0.4" fill="#171717" enable-background="new    " d="M97.976,122.488h-63v-1.51H96.5c0,0,0-60.036,0-61.005
				c1.257,0.797,1.476,2.25,1.476,2.25V122.488z"/>
		</g>
	</g>
	<g id="meegotouch-buttongroup-background-selected-horizontal-left">
		<g>
			<path fill="#080C0C" d="M98.585,508.707h-61c-2.209,0-4-1.791-4-4v-57c0-2.209,1.791-4,4-4h61V508.707z"/>
			
				<linearGradient id="SVGID_10_" gradientUnits="userSpaceOnUse" x1="58.0854" y1="56.707" x2="58.0854" y2="119.707" gradientTransform="matrix(1 0 0 1 8 388)">
				<stop  offset="0" style="stop-color:#5D8891"/>
				<stop  offset="1" style="stop-color:#A7D1DB"/>
			</linearGradient>
			<path fill="url(#SVGID_10_)" d="M97.585,507.707h-59.75c-1.795,0-3.25-1.455-3.25-3.25v-56.5c0-1.795,1.455-3.25,3.25-3.25h59.75
				V507.707z"/>
			<path opacity="0.4" fill="#F4F4F4" enable-background="new    " d="M38.023,507.707c-2.056,0-3.438-1.357-3.438-3.377v-56.225
				c0-2.031,1.379-3.396,3.432-3.396h59.568v1H38.019c-1.5,0-2.432,0.918-2.432,2.396v56.225c0,1.885,1.429,3.385,2.932,3.385
				L38.023,507.707z"/>
			<path opacity="0.4" fill="#171717" enable-background="new    " d="M37.331,507.684c0,0-1.453-0.219-2.25-1.477
				c0.969,0,61.005,0,61.005,0v-61.523h1.51v63H37.331z"/>
		</g>
	</g>
	<g id="meegotouch-buttongroup-background-selected-horizontal-center">
		<g>
			<g>
				
					<linearGradient id="SVGID_11_" gradientUnits="userSpaceOnUse" x1="130.4766" y1="120.207" x2="130.4766" y2="56.207" gradientTransform="matrix(1 0 0 1 8 388)">
					<stop  offset="0" style="stop-color:#A7D1DB"/>
					<stop  offset="1" style="stop-color:#5D8891"/>
				</linearGradient>
				<rect x="106.477" y="444.207" fill="url(#SVGID_11_)" width="64" height="64"/>
				<path fill="#080C0C" d="M169.977,444.707v63h-63v-63H169.977 M170.977,443.707h-1h-63h-1v1v63v1h1h63h1v-1v-63V443.707
					L170.977,443.707z"/>
			</g>
			<polygon opacity="0.4" fill="#F4F4F4" enable-background="new    " points="107.981,507.715 107.981,445.718 169.965,445.718 
				169.965,444.701 169.965,444.701 106.965,444.701 106.965,507.701 			"/>
			<polygon opacity="0.4" fill="#171717" enable-background="new    " points="168.502,444.701 168.502,506.199 106.965,506.199 
				106.965,507.701 169.965,507.701 169.965,444.701 			"/>
		</g>
	</g>
	<g id="meegotouch-buttongroup-background-selected-horizontal-right">
		<g>
			<path fill="#080C0C" d="M178.085,443.707h61.001c2.209,0,4,1.791,4,4v57c0,2.209-1.791,4-4,4h-61.001V443.707L178.085,443.707z"
				/>
			
				<linearGradient id="SVGID_12_" gradientUnits="userSpaceOnUse" x1="-793.4185" y1="-305.1582" x2="-793.4185" y2="-242.1582" gradientTransform="matrix(-1 0 0 -1 -582.833 202.5488)">
				<stop  offset="0" style="stop-color:#A7D1DB"/>
				<stop  offset="1" style="stop-color:#5D8891"/>
			</linearGradient>
			<path fill="url(#SVGID_12_)" d="M179.085,444.707h59.751c1.795,0,3.25,1.455,3.25,3.25v56.5c0,1.795-1.455,3.25-3.25,3.25
				h-59.751V444.707L179.085,444.707z"/>
			<path opacity="0.4" fill="#171717" enable-background="new    " d="M238.648,444.707c2.056,0,3.438,1.358,3.438,3.379v56.224
				c0,2.032-1.38,3.397-3.434,3.397h-59.567v-1.524h59.567c1.066,0,1.912-0.875,1.912-1.873v-56.224
				c0-1.885-0.908-3.385-2.412-3.385L238.648,444.707z"/>
			<path opacity="0.4" fill="#F4F4F4" enable-background="new    " d="M239.143,444.715c0,0,1.281,0.141,2.031,0.969
				c-0.969,0-61.172,0-61.172,0v62.049h-0.927v-63L239.143,444.715z"/>
		</g>
	</g>
	<g id="meegotouch-buttongroup-background-pressed-horizontal-left">
		<g>
			<path fill="#080C0C" d="M98.585,432.707h-61c-2.209,0-4-1.791-4-4v-57c0-2.209,1.791-4,4-4h61V432.707z"/>
			
				<linearGradient id="SVGID_13_" gradientUnits="userSpaceOnUse" x1="58.0854" y1="-19.293" x2="58.0854" y2="43.707" gradientTransform="matrix(1 0 0 1 8 388)">
				<stop  offset="0" style="stop-color:#5D8891"/>
				<stop  offset="1" style="stop-color:#A7D1DB"/>
			</linearGradient>
			<path fill="url(#SVGID_13_)" d="M97.585,431.707h-59.75c-1.795,0-3.25-1.455-3.25-3.25v-56.5c0-1.795,1.455-3.25,3.25-3.25h59.75
				V431.707z"/>
			<path opacity="0.4" fill="#F4F4F4" enable-background="new    " d="M38.023,431.707c-2.056,0-3.438-1.357-3.438-3.377v-56.225
				c0-2.031,1.379-3.396,3.432-3.396h59.568v1H38.019c-1.5,0-2.432,0.918-2.432,2.396v56.225c0,1.885,1.429,3.385,2.932,3.385
				L38.023,431.707z"/>
			<path opacity="0.4" fill="#171717" enable-background="new    " d="M37.331,431.684c0,0-1.453-0.219-2.25-1.477
				c0.969,0,61.005,0,61.005,0v-61.523h1.51v63H37.331z"/>
		</g>
	</g>
	<g id="meegotouch-buttongroup-background-pressed-horizontal-center">
		<g>
			<g>
				
					<linearGradient id="SVGID_14_" gradientUnits="userSpaceOnUse" x1="130.4766" y1="44.207" x2="130.4766" y2="-19.793" gradientTransform="matrix(1 0 0 1 8 388)">
					<stop  offset="0" style="stop-color:#A7D1DB"/>
					<stop  offset="1" style="stop-color:#5D8891"/>
				</linearGradient>
				<rect x="106.477" y="368.207" fill="url(#SVGID_14_)" width="64" height="64"/>
				<path fill="#080C0C" d="M169.977,368.707v63h-63v-63H169.977 M170.977,367.707h-1h-63h-1v1v63v1h1h63h1v-1v-63V367.707
					L170.977,367.707z"/>
			</g>
			<polygon opacity="0.4" fill="#F4F4F4" enable-background="new    " points="107.981,431.715 107.981,369.718 169.965,369.718 
				169.965,368.701 169.965,368.701 106.965,368.701 106.965,431.701 			"/>
			<polygon opacity="0.4" fill="#171717" enable-background="new    " points="168.502,368.701 168.502,430.199 106.965,430.199 
				106.965,431.701 169.965,431.701 169.965,368.701 			"/>
		</g>
	</g>
	<g id="meegotouch-buttongroup-background-pressed-horizontal-right">
		<g>
			<path fill="#080C0C" d="M178.085,367.707h61.001c2.209,0,4,1.791,4,4v57c0,2.209-1.791,4-4,4h-61.001V367.707L178.085,367.707z"
				/>
			
				<linearGradient id="SVGID_15_" gradientUnits="userSpaceOnUse" x1="-793.4185" y1="-229.1582" x2="-793.4185" y2="-166.1582" gradientTransform="matrix(-1 0 0 -1 -582.833 202.5488)">
				<stop  offset="0" style="stop-color:#A7D1DB"/>
				<stop  offset="1" style="stop-color:#5D8891"/>
			</linearGradient>
			<path fill="url(#SVGID_15_)" d="M179.085,368.707h59.751c1.795,0,3.25,1.455,3.25,3.25v56.5c0,1.795-1.455,3.25-3.25,3.25
				h-59.751V368.707L179.085,368.707z"/>
			<path opacity="0.4" fill="#171717" enable-background="new    " d="M238.648,368.707c2.056,0,3.438,1.358,3.438,3.379v56.224
				c0,2.032-1.38,3.397-3.434,3.397h-59.567v-1.524h59.567c1.066,0,1.912-0.875,1.912-1.873v-56.224
				c0-1.885-0.908-3.385-2.412-3.385L238.648,368.707z"/>
			<path opacity="0.4" fill="#F4F4F4" enable-background="new    " d="M239.143,368.715c0,0,1.281,0.141,2.031,0.969
				c-0.969,0-61.172,0-61.172,0v62.049h-0.927v-63L239.143,368.715z"/>
		</g>
	</g>
	<g id="meegotouch-buttongroup-background-horizontal-left">
		<g>
			<path fill="#080C0C" d="M98.585,357.707h-61c-2.209,0-4-1.791-4-4v-57c0-2.209,1.791-4,4-4h61V357.707z"/>
			
				<linearGradient id="SVGID_16_" gradientUnits="userSpaceOnUse" x1="58.0854" y1="-94.293" x2="58.0854" y2="-31.293" gradientTransform="matrix(1 0 0 1 8 388)">
				<stop  offset="0" style="stop-color:#A7D1DB"/>
				<stop  offset="1" style="stop-color:#5D8891"/>
			</linearGradient>
			<path fill="url(#SVGID_16_)" d="M97.585,356.707h-59.75c-1.795,0-3.25-1.455-3.25-3.25v-56.5c0-1.795,1.455-3.25,3.25-3.25h59.75
				V356.707z"/>
			<path opacity="0.4" fill="#F4F4F4" enable-background="new    " d="M38.023,356.707c-2.056,0-3.438-1.357-3.438-3.377v-56.225
				c0-2.031,1.379-3.396,3.432-3.396h59.568v1H38.019c-1.5,0-2.432,0.918-2.432,2.396v56.225c0,1.885,1.429,3.385,2.932,3.385
				L38.023,356.707z"/>
			<path opacity="0.4" fill="#171717" enable-background="new    " d="M37.331,356.684c0,0-1.453-0.219-2.25-1.477
				c0.969,0,61.005,0,61.005,0v-61.523h1.51v63H37.331z"/>
		</g>
	</g>
	<g id="meegotouch-buttongroup-background-horizontal-center">
		<g>
			<g>
				
					<linearGradient id="SVGID_17_" gradientUnits="userSpaceOnUse" x1="130.4766" y1="-30.793" x2="130.4766" y2="-94.793" gradientTransform="matrix(1 0 0 1 8 388)">
					<stop  offset="0" style="stop-color:#5D8891"/>
					<stop  offset="1" style="stop-color:#A7D1DB"/>
				</linearGradient>
				<rect x="106.477" y="293.207" fill="url(#SVGID_17_)" width="64" height="64"/>
				<path fill="#080C0C" d="M169.977,293.707v63h-63v-63H169.977 M170.977,292.707h-1h-63h-1v1v63v1h1h63h1v-1v-63V292.707
					L170.977,292.707z"/>
			</g>
			<polygon opacity="0.4" fill="#F4F4F4" enable-background="new    " points="107.981,356.715 107.981,294.718 169.965,294.718 
				169.965,293.701 169.965,293.701 106.965,293.701 106.965,356.701 			"/>
			<polygon opacity="0.4" fill="#171717" enable-background="new    " points="168.502,293.701 168.502,355.199 106.965,355.199 
				106.965,356.701 169.965,356.701 169.965,293.701 			"/>
		</g>
	</g>
	<g id="meegotouch-buttongroup-background-horizontal-right">
		<g>
			<path fill="#080C0C" d="M178.085,292.707h61.001c2.209,0,4,1.791,4,4v57c0,2.209-1.791,4-4,4h-61.001V292.707L178.085,292.707z"
				/>
			
				<linearGradient id="SVGID_18_" gradientUnits="userSpaceOnUse" x1="-793.4185" y1="-154.1582" x2="-793.4185" y2="-91.1582" gradientTransform="matrix(-1 0 0 -1 -582.833 202.5488)">
				<stop  offset="0" style="stop-color:#5D8891"/>
				<stop  offset="1" style="stop-color:#A7D1DB"/>
			</linearGradient>
			<path fill="url(#SVGID_18_)" d="M179.085,293.707h59.751c1.795,0,3.25,1.455,3.25,3.25v56.5c0,1.795-1.455,3.25-3.25,3.25
				h-59.751V293.707L179.085,293.707z"/>
			<path opacity="0.4" fill="#171717" enable-background="new    " d="M238.648,293.707c2.056,0,3.438,1.358,3.438,3.379v56.224
				c0,2.032-1.38,3.397-3.434,3.397h-59.567v-1.524h59.567c1.066,0,1.912-0.875,1.912-1.873v-56.224
				c0-1.885-0.908-3.385-2.412-3.385L238.648,293.707z"/>
			<path opacity="0.4" fill="#F4F4F4" enable-background="new    " d="M239.143,293.715c0,0,1.281,0.141,2.031,0.969
				c-0.969,0-61.172,0-61.172,0v62.049h-0.927v-63L239.143,293.715z"/>
		</g>
	</g>
</g>
</svg>
