<?xml version="1.0" encoding="utf-8"?>
<!-- Generator: Adobe Illustrator 14.0.0, SVG Export Plug-In . SVG Version: 6.00 Build 43363)  -->
<!DOCTYPE svg PUBLIC "-//W3C//DTD SVG 1.1//EN" "http://www.w3.org/Graphics/SVG/1.1/DTD/svg11.dtd">
<svg version="1.1" id="Layer_1" xmlns="http://www.w3.org/2000/svg" xmlns:xlink="http://www.w3.org/1999/xlink" x="0px" y="0px"
	 width="280px" height="400px" viewBox="0 0 280 400" enable-background="new 0 0 280 400" xml:space="preserve">
<g id="meegotouch-objectmenu-layer">
</g>
<g id="meegotouch-objectmenu">
	<g id="MeegotouchObjectmenuThemeTemplateHelper">
		<g>
			<path fill="#B3B3B3" d="M16,399c-8.271,0-15-6.729-15-15V16C1,7.729,7.729,1,16,1h248c8.271,0,15,6.729,15,15v368
				c0,8.271-6.729,15-15,15H16z"/>
			<g>
				<path d="M264,2c7.721,0,14,6.28,14,14v368c0,7.721-6.279,14-14,14H16c-7.72,0-14-6.279-14-14V16C2,8.28,8.28,2,16,2H264 M264,0
					H16C7.2,0,0,7.2,0,16v368c0,8.8,7.2,16,16,16h248c8.8,0,16-7.2,16-16V16C280,7.2,272.8,0,264,0L264,0z"/>
			</g>
		</g>
		<path fill="#010101" d="M82.373,13.891c2,0,3.5,0.725,4.5,2.174c1,1.449,1.5,3.619,1.5,6.51c0,3.195-0.502,5.521-1.506,6.979
			c-1.004,1.458-2.502,2.186-4.494,2.186c-1.984,0-3.48-0.738-4.488-2.215c-1.008-1.477-1.512-3.793-1.512-6.949
			c0-2.891,0.5-5.061,1.5-6.51C78.873,14.617,80.373,13.891,82.373,13.891z M82.373,29.992c1.078,0,1.904-0.553,2.479-1.658
			c0.575-1.105,0.861-3.025,0.861-5.76c0-2.469-0.285-4.242-0.855-5.32c-0.57-1.078-1.398-1.617-2.484-1.617
			c-1.07,0-1.893,0.516-2.467,1.547c-0.574,1.031-0.861,2.828-0.861,5.391C79.045,27.52,80.154,29.992,82.373,29.992z"/>
		<path fill="#010101" d="M93.799,13v6.188c0.891-0.977,1.996-1.465,3.316-1.465c1.523,0,2.668,0.562,3.434,1.688
			c0.766,1.126,1.148,2.812,1.148,5.062s-0.516,4.012-1.547,5.285c-1.031,1.273-2.449,1.91-4.254,1.91
			c-1.773,0-3.305-0.078-4.594-0.234V13H93.799z M93.799,24.684v5.168c0.727,0.094,1.375,0.141,1.945,0.141
			c1.148,0,1.996-0.42,2.543-1.26c0.547-0.84,0.82-2.283,0.82-4.33c0-1.656-0.215-2.898-0.645-3.727
			c-0.43-0.829-1.07-1.242-1.922-1.242c-0.828,0-1.441,0.25-1.84,0.75c-0.399,0.5-0.648,1.107-0.75,1.822
			C93.848,22.721,93.799,23.613,93.799,24.684z"/>
		<path fill="#010101" d="M107.381,31.867c0,1.219-0.311,2.135-0.932,2.748c-0.621,0.613-1.549,0.92-2.783,0.92
			c-0.703,0-1.48-0.082-2.332-0.246v-1.723c0.742,0.141,1.375,0.211,1.898,0.211c0.547,0,0.959-0.164,1.236-0.492
			c0.277-0.328,0.416-0.816,0.416-1.465V19.55h-1.559v-1.629h4.055L107.381,31.867L107.381,31.867z M106.139,13.141
			c0.383,0,0.713,0.141,0.99,0.422s0.416,0.613,0.416,0.996c0,0.391-0.137,0.725-0.41,1.002c-0.273,0.277-0.605,0.416-0.996,0.416
			c-0.398,0-0.734-0.139-1.008-0.416s-0.41-0.611-0.41-1.002c0-0.398,0.137-0.734,0.41-1.008
			C105.404,13.277,105.74,13.141,106.139,13.141z"/>
		<path fill="#010101" d="M119.861,29.465v1.699c-1.227,0.383-2.496,0.574-3.809,0.574c-1.906,0-3.332-0.574-4.277-1.723
			c-0.945-1.149-1.418-2.918-1.418-5.309c0-2.102,0.457-3.791,1.371-5.068c0.914-1.277,2.219-1.916,3.914-1.916
			c1.375,0,2.408,0.365,3.1,1.096c0.692,0.731,1.135,1.625,1.33,2.684c0.195,1.059,0.293,2.318,0.293,3.779h-7.359
			c0,1.586,0.281,2.775,0.844,3.568s1.406,1.189,2.531,1.189C117.334,30.039,118.494,29.848,119.861,29.465z M113.006,23.746h4.91
			c0-1.648-0.195-2.812-0.586-3.492c-0.391-0.68-0.953-1.02-1.688-1.02c-0.82,0-1.447,0.352-1.881,1.055
			C113.327,20.992,113.076,22.145,113.006,23.746z"/>
		<path fill="#010101" d="M128.182,31.738c-1.852,0-3.25-0.607-4.195-1.822c-0.945-1.215-1.418-2.998-1.418-5.35
			c0-2.188,0.51-3.875,1.529-5.062s2.502-1.781,4.447-1.781c0.758,0,1.527,0.098,2.309,0.293v1.699
			c-0.594-0.188-1.332-0.281-2.215-0.281c-1.141,0-2.006,0.455-2.596,1.365c-0.59,0.91-0.885,2.182-0.885,3.814
			c0,1.758,0.295,3.102,0.885,4.031s1.455,1.395,2.596,1.395c0.984,0,1.754-0.09,2.309-0.27v1.617
			C130.111,31.621,129.189,31.738,128.182,31.738z"/>
		<path fill="#010101" d="M136.654,31.738c-1.062,0-1.84-0.248-2.332-0.744c-0.492-0.496-0.738-1.287-0.738-2.373v-9.07h-1.793
			v-0.938l3.645-3.715h0.645v3.023h3.316v1.629h-3.316v8.66c0,0.742,0.121,1.232,0.363,1.471c0.242,0.239,0.609,0.357,1.102,0.357
			c0.508,0,1.195-0.113,2.062-0.34v1.617C138.561,31.598,137.576,31.738,136.654,31.738z"/>
		<path fill="#010101" d="M164.229,31.551h-2.496v-9.387c0-0.906-0.17-1.588-0.51-2.045s-0.85-0.686-1.529-0.686
			c-0.875,0-1.549,0.344-2.021,1.031s-0.709,1.582-0.709,2.684v8.402h-2.496v-9.387c0-0.906-0.174-1.588-0.521-2.045
			c-0.348-0.457-0.869-0.686-1.564-0.686c-0.859,0-1.523,0.348-1.992,1.043s-0.703,1.586-0.703,2.672v8.402h-2.496V17.922h1.396
			l0.504,2.016c0.836-1.477,2.109-2.215,3.82-2.215c0.904,0,1.656,0.172,2.256,0.516c0.6,0.344,1.037,0.859,1.316,1.547
			c0.771-1.375,2.014-2.062,3.717-2.062c1.344,0,2.352,0.363,3.021,1.09c0.672,0.727,1.008,1.812,1.008,3.258v9.479H164.229z"/>
		<path fill="#010101" d="M176.521,29.465v1.699c-1.229,0.383-2.496,0.574-3.813,0.574c-1.901,0-3.332-0.574-4.272-1.723
			c-0.944-1.149-1.418-2.918-1.418-5.309c0-2.102,0.457-3.791,1.371-5.068c0.909-1.277,2.219-1.916,3.909-1.916
			c1.375,0,2.408,0.365,3.104,1.096c0.688,0.731,1.135,1.625,1.33,2.684c0.19,1.059,0.293,2.318,0.293,3.779h-7.359
			c0,1.586,0.281,2.775,0.844,3.568c0.563,0.793,1.406,1.189,2.531,1.189C173.994,30.039,175.154,29.848,176.521,29.465z
			 M169.666,23.746h4.91c0-1.648-0.195-2.812-0.586-3.492c-0.391-0.68-0.953-1.02-1.688-1.02c-0.819,0-1.446,0.352-1.881,1.055
			S169.736,22.145,169.666,23.746z"/>
		<path fill="#010101" d="M189.811,31.551h-2.496v-9.047c0-1.023-0.18-1.791-0.539-2.303c-0.354-0.512-0.896-0.768-1.611-0.768
			c-0.906,0-1.607,0.344-2.107,1.031s-0.75,1.582-0.75,2.684v8.402h-2.492V17.922h1.395l0.504,2.016
			c0.867-1.477,2.188-2.215,3.961-2.215c1.383,0,2.42,0.363,3.111,1.09c0.688,0.727,1.037,1.812,1.037,3.258v9.48H189.811z"/>
		<path fill="#010101" d="M197.287,31.738c-1.391,0-2.432-0.361-3.123-1.084c-0.691-0.723-1.037-1.807-1.037-3.252v-9.48h2.496
			v9.047c0,1.023,0.18,1.791,0.539,2.303s0.902,0.768,1.629,0.768c0.906,0,1.607-0.344,2.104-1.031
			c0.498-0.687,0.744-1.582,0.744-2.684v-8.402h2.496v13.629h-1.383l-0.504-2.016C200.381,31.004,199.061,31.738,197.287,31.738z"/>
	</g>
	<g id="meegotouch-button-objectmenu-background-pressed" opacity="0.9">
		<g>
			
				<linearGradient id="btnbg-bg_9_" gradientUnits="userSpaceOnUse" x1="128.0122" y1="33.75" x2="128.0122" y2="-30.25" gradientTransform="matrix(1 0 0 -1 20 306.5)">
				<stop  offset="0.0028" style="stop-color:#EBEBEB"/>
				<stop  offset="1" style="stop-color:#E6E6E6"/>
			</linearGradient>
			<rect id="btnbg-bg_5_" x="116.012" y="272.75" fill="url(#btnbg-bg_9_)" stroke="#000000" width="64" height="64"/>
			
				<rect id="btnbg-rim_5_" x="117.012" y="273.75" opacity="0.3" fill="none" stroke="#000000" stroke-width="0.9687" enable-background="new    " width="62" height="62"/>
		</g>
	</g>
	<g id="meegotouch-button-objectmenu-background-pressed-vertical-bottom" opacity="0.9">
		<g>
			<rect x="116.202" y="198.111" width="64" height="64"/>
			
				<linearGradient id="btnbg-bg_10_" gradientUnits="userSpaceOnUse" x1="128.2026" y1="108.3892" x2="128.2026" y2="45.3887" gradientTransform="matrix(1 0 0 -1 20 306.5)">
				<stop  offset="0.0028" style="stop-color:#EBEBEB"/>
				<stop  offset="1" style="stop-color:#E6E6E6"/>
			</linearGradient>
			<rect id="btnbg-bg_2_" x="117.202" y="198.111" fill="url(#btnbg-bg_10_)" width="62" height="63"/>
			<polyline id="btnbg-rim_9_" fill="none" stroke="#909090" points="178.702,198.143 178.702,260.611 117.702,260.611 
				117.702,198.143 			"/>
			
				<line id="btnbg-rim_2_" opacity="0.3" fill="none" stroke="#FFFFFF" enable-background="new    " x1="117.202" y1="198.611" x2="179.202" y2="198.611"/>
		</g>
	</g>
	<g id="meegotouch-button-objectmenu-background-pressed-vertical-center" opacity="0.9">
		<g>
			<rect x="115.952" y="124.278" width="64" height="64"/>
			
				<linearGradient id="btnbg-bg_11_" gradientUnits="userSpaceOnUse" x1="127.9526" y1="182.2222" x2="127.9526" y2="118.2222" gradientTransform="matrix(1 0 0 -1 20 306.5)">
				<stop  offset="0.0028" style="stop-color:#EBEBEB"/>
				<stop  offset="1" style="stop-color:#E6E6E6"/>
			</linearGradient>
			<rect id="btnbg-bg_7_" x="116.952" y="124.278" fill="url(#btnbg-bg_11_)" width="62" height="64"/>
			<polyline id="btnbg-rim_11_" fill="none" stroke="#909090" points="178.452,124.293 178.452,187.793 117.452,187.793 
				117.452,124.293 			"/>
			
				<line id="btnbg-rim_10_" opacity="0.3" fill="none" stroke="#FFFFFF" enable-background="new    " x1="116.952" y1="124.762" x2="178.952" y2="124.762"/>
		</g>
	</g>
	<g id="meegotouch-button-objectmenu-background-pressed-vertical-top" opacity="0.9">
		<g>
			<rect x="115.952" y="50.361" width="64" height="64"/>
			
				<linearGradient id="btnbg-bg_12_" gradientUnits="userSpaceOnUse" x1="-510.0474" y1="337.6377" x2="-510.0473" y2="400.6377" gradientTransform="matrix(-1 0 0 1 -362.0957 -286.2773)">
				<stop  offset="0.0028" style="stop-color:#EBEBEB"/>
				<stop  offset="1" style="stop-color:#E6E6E6"/>
			</linearGradient>
			<rect id="btnbg-bg_8_" x="116.952" y="51.361" fill="url(#btnbg-bg_12_)" width="62" height="63"/>
			<rect id="btnbg-rim_12_" x="117.451" y="51.846" fill="none" stroke="#909090" width="61" height="62"/>
		</g>
	</g>
	<g id="meegotouch-button-objectmenu-background" opacity="0.9">
		<g>
			
				<linearGradient id="btnbg-bg_13_" gradientUnits="userSpaceOnUse" x1="54.1782" y1="33.5" x2="54.1782" y2="-30.5" gradientTransform="matrix(1 0 0 -1 20 306.5)">
				<stop  offset="0.0028" style="stop-color:#C5C5C5"/>
				<stop  offset="1" style="stop-color:#C3C3C3"/>
			</linearGradient>
			<rect id="btnbg-bg_4_" x="42.178" y="273" fill="url(#btnbg-bg_13_)" stroke="#000000" width="64" height="64"/>
			
				<rect id="btnbg-rim_4_" x="43.178" y="274" opacity="0.3" fill="none" stroke="#000000" stroke-width="0.9687" enable-background="new    " width="62" height="62"/>
		</g>
	</g>
	<g id="meegotouch-button-objectmenu-background-vertical-bottom" opacity="0.9">
		<g>
			<rect x="41.952" y="198.111" width="64" height="64"/>
			
				<linearGradient id="btnbg-bg_14_" gradientUnits="userSpaceOnUse" x1="53.9521" y1="108.3892" x2="53.9521" y2="45.3887" gradientTransform="matrix(1 0 0 -1 20 306.5)">
				<stop  offset="0.0028" style="stop-color:#C5C5C5"/>
				<stop  offset="1" style="stop-color:#C3C3C3"/>
			</linearGradient>
			<rect id="btnbg-bg_3_" x="42.952" y="198.111" fill="url(#btnbg-bg_14_)" width="62" height="63"/>
			<polyline id="btnbg-rim_6_" fill="none" stroke="#909090" points="104.452,198.143 104.452,260.611 43.452,260.611 
				43.452,198.143 			"/>
			
				<line id="btnbg-rim_3_" opacity="0.3" fill="none" stroke="#FFFFFF" enable-background="new    " x1="42.952" y1="198.611" x2="104.952" y2="198.611"/>
		</g>
	</g>
	<g id="meegotouch-button-objectmenu-background-vertical-center" opacity="0.9">
		<g>
			<rect x="41.952" y="124.278" width="64" height="64"/>
			
				<linearGradient id="btnbg-bg_15_" gradientUnits="userSpaceOnUse" x1="53.9521" y1="182.2222" x2="53.9521" y2="118.2222" gradientTransform="matrix(1 0 0 -1 20 306.5)">
				<stop  offset="0.0028" style="stop-color:#C5C5C5"/>
				<stop  offset="1" style="stop-color:#C3C3C3"/>
			</linearGradient>
			<rect id="btnbg-bg_1_" x="42.952" y="124.278" fill="url(#btnbg-bg_15_)" width="62" height="64"/>
			<polyline id="btnbg-rim_7_" fill="none" stroke="#909090" points="104.452,124.293 104.452,187.793 43.452,187.793 
				43.452,124.293 			"/>
			
				<line id="btnbg-rim_1_" opacity="0.3" fill="none" stroke="#FFFFFF" enable-background="new    " x1="42.952" y1="124.762" x2="104.952" y2="124.762"/>
		</g>
	</g>
	<g id="meegotouch-button-objectmenu-background-vertical-top" opacity="0.9">
		<g>
			<rect x="42.202" y="50.361" width="64" height="64"/>
			
				<linearGradient id="btnbg-bg_16_" gradientUnits="userSpaceOnUse" x1="-436.2974" y1="337.6377" x2="-436.2973" y2="400.6377" gradientTransform="matrix(-1 0 0 1 -362.0957 -286.2773)">
				<stop  offset="0.0028" style="stop-color:#C5C5C5"/>
				<stop  offset="1" style="stop-color:#C3C3C3"/>
			</linearGradient>
			<rect id="btnbg-bg_6_" x="43.202" y="51.361" fill="url(#btnbg-bg_16_)" width="62" height="63"/>
			<rect id="btnbg-rim_8_" x="43.701" y="51.846" fill="none" stroke="#909090" width="61" height="62"/>
		</g>
	</g>
</g>
</svg>
