<?xml version="1.0" encoding="utf-8"?>
<!-- Generator: Adobe Illustrator 14.0.0, SVG Export Plug-In . SVG Version: 6.00 Build 43363)  -->
<!DOCTYPE svg PUBLIC "-//W3C//DTD SVG 1.1//EN" "http://www.w3.org/Graphics/SVG/1.1/DTD/svg11.dtd">
<svg version="1.1" id="Layer_1" xmlns="http://www.w3.org/2000/svg" xmlns:xlink="http://www.w3.org/1999/xlink" x="0px" y="0px"
	 width="550px" height="390px" viewBox="0 0 550 390" enable-background="new 0 0 550 390" xml:space="preserve">
<g id="numberinputfield-layer">
</g>
<g id="megotouch-theme-rd">
	<g id="numberinputfield">
		<g id="numberinputfieldThemeTemplateHelper">
			<g id="numfieldhelperBackground">
				<g>
					<path fill="#B3B3B3" d="M16,389c-8.271,0-15-6.729-15-15V16C1,7.729,7.729,1,16,1h518c8.271,0,15,6.729,15,15v358
						c0,8.271-6.729,15-15,15H16z"/>
					<g>
						<path d="M534,2c7.72,0,14,6.28,14,14v358c0,7.721-6.28,14-14,14H16c-7.72,0-14-6.279-14-14V16C2,8.28,8.28,2,16,2H534 M534,0
							H16C7.2,0,0,7.2,0,16v358c0,8.8,7.2,16,16,16h518c8.8,0,16-7.2,16-16V16C550,7.2,542.8,0,534,0L534,0z"/>
					</g>
				</g>
			</g>
			<g>
				<path fill="#010101" d="M63.385,49.192L54.99,34.017v15.176h-2.83V28.808h2.406l8.176,14.752V28.808h2.83v20.385L63.385,49.192
					L63.385,49.192z"/>
				<path fill="#010101" d="M74.5,49.411c-1.623,0-2.837-0.422-3.644-1.265s-1.21-2.107-1.21-3.794v-11.06h2.912v10.555
					c0,1.194,0.209,2.09,0.629,2.687c0.419,0.597,1.053,0.896,1.9,0.896c1.057,0,1.875-0.401,2.454-1.203
					c0.579-0.802,0.868-1.846,0.868-3.131v-9.803h2.912v15.9h-1.613l-0.588-2.352C78.109,48.555,76.568,49.411,74.5,49.411z"/>
				<path fill="#010101" d="M105.18,49.192h-2.912V38.241c0-1.058-0.198-1.853-0.595-2.386c-0.397-0.533-0.991-0.8-1.784-0.8
					c-1.021,0-1.807,0.401-2.358,1.203c-0.551,0.802-0.827,1.846-0.827,3.131v9.803h-2.912V38.241c0-1.058-0.203-1.853-0.608-2.386
					c-0.405-0.533-1.015-0.8-1.825-0.8c-1.003,0-1.777,0.405-2.324,1.217c-0.547,0.812-0.82,1.851-0.82,3.117v9.803h-2.912v-15.9
					h1.627l0.588,2.352c0.975-1.723,2.461-2.584,4.457-2.584c1.057,0,1.935,0.2,2.632,0.602c0.697,0.402,1.21,1.003,1.538,1.805
					c0.902-1.604,2.347-2.406,4.334-2.406c1.567,0,2.743,0.424,3.527,1.271c0.783,0.848,1.176,2.114,1.176,3.801v11.059H105.18z"/>
				<path fill="#010101" d="M112.016,27.55v7.219c1.039-1.14,2.328-1.709,3.869-1.709c1.777,0,3.112,0.656,4.006,1.969
					c0.893,1.312,1.34,3.281,1.34,5.906s-0.602,4.681-1.805,6.166c-1.203,1.485-2.857,2.229-4.963,2.229
					c-2.069,0-3.855-0.091-5.359-0.273V27.55H112.016z M112.016,41.181v6.029c0.848,0.109,1.604,0.164,2.27,0.164
					c1.34,0,2.328-0.49,2.967-1.47c0.638-0.979,0.957-2.664,0.957-5.052c0-1.933-0.251-3.382-0.752-4.348
					c-0.502-0.966-1.249-1.449-2.242-1.449c-0.967,0-1.682,0.292-2.146,0.875c-0.464,0.583-0.757,1.292-0.875,2.126
					C112.074,38.891,112.016,39.932,112.016,41.181z"/>
				<path fill="#010101" d="M134.943,46.759v1.982c-1.432,0.446-2.912,0.67-4.443,0.67c-2.225,0-3.888-0.67-4.99-2.01
					c-1.104-1.34-1.654-3.404-1.654-6.193c0-2.452,0.533-4.423,1.6-5.913c1.067-1.49,2.588-2.235,4.566-2.235
					c1.604,0,2.81,0.426,3.616,1.278c0.806,0.852,1.323,1.896,1.552,3.131c0.228,1.235,0.342,2.705,0.342,4.409h-8.586
					c0,1.851,0.328,3.238,0.984,4.163c0.656,0.925,1.641,1.388,2.953,1.388C131.994,47.429,133.348,47.205,134.943,46.759z
					 M126.945,40.087h5.729c0-1.923-0.229-3.281-0.684-4.074c-0.456-0.793-1.112-1.189-1.969-1.189c-0.957,0-1.688,0.41-2.194,1.23
					C127.321,36.874,127.027,38.219,126.945,40.087z"/>
				<path fill="#010101" d="M140.398,33.292l0.67,2.652c0.884-1.868,2.424-2.803,4.621-2.803c0.291,0,0.506,0.014,0.643,0.041v2.652
					c-0.229-0.019-0.57-0.027-1.025-0.027c-1.249,0-2.165,0.299-2.748,0.896c-0.584,0.597-0.875,1.529-0.875,2.796v9.693h-2.912
					v-15.9H140.398z"/>
				<path fill="#010101" d="M154.453,49.192v-2.051h1.682V30.858h-1.682v-2.051h6.33v2.051h-1.709v16.283h1.709v2.051H154.453
					L154.453,49.192z"/>
				<path fill="#010101" d="M175.467,49.192h-2.912V38.638c0-1.194-0.21-2.09-0.629-2.687c-0.42-0.597-1.049-0.896-1.887-0.896
					c-1.058,0-1.878,0.401-2.461,1.203c-0.584,0.802-0.875,1.846-0.875,3.131v9.803h-2.912v-15.9h1.627l0.588,2.352
					c1.012-1.723,2.552-2.584,4.621-2.584c1.613,0,2.823,0.424,3.63,1.271c0.807,0.847,1.21,2.114,1.21,3.801V49.192L175.467,49.192
					z"/>
				<path fill="#010101" d="M181.018,33.292l0.588,2.27c0.574-0.848,1.212-1.477,1.914-1.887c0.701-0.41,1.595-0.615,2.68-0.615
					c1.759,0,3.08,0.663,3.965,1.989c0.884,1.326,1.326,3.315,1.326,5.968c0,2.625-0.604,4.671-1.812,6.139
					c-1.208,1.468-2.946,2.201-5.216,2.201c-0.602,0-1.322-0.101-2.16-0.301v4.703h-2.912V33.292H181.018z M182.303,40.401v6.576
					c0.701,0.265,1.439,0.396,2.215,0.396c1.312,0,2.299-0.456,2.96-1.367s0.991-2.62,0.991-5.127c0-1.941-0.246-3.397-0.738-4.368
					c-0.492-0.971-1.227-1.456-2.201-1.456c-1.058,0-1.859,0.408-2.406,1.224S182.303,38.469,182.303,40.401z"/>
				<path fill="#010101" d="M199.584,49.411c-1.623,0-2.837-0.422-3.644-1.265s-1.21-2.107-1.21-3.794v-11.06h2.912v10.555
					c0,1.194,0.209,2.09,0.629,2.687c0.419,0.597,1.053,0.896,1.9,0.896c1.057,0,1.875-0.401,2.454-1.203
					c0.579-0.802,0.868-1.846,0.868-3.131v-9.803h2.912v15.9h-1.613l-0.588-2.352C203.193,48.555,201.652,49.411,199.584,49.411z"/>
				<path fill="#010101" d="M214.445,49.411c-1.24,0-2.146-0.289-2.721-0.868c-0.575-0.579-0.861-1.502-0.861-2.769V35.192h-2.092
					v-1.094l4.252-4.334h0.752v3.527h3.869v1.9h-3.869v10.104c0,0.866,0.141,1.438,0.424,1.716c0.282,0.278,0.711,0.417,1.285,0.417
					c0.592,0,1.395-0.132,2.406-0.396v1.887C216.669,49.247,215.521,49.411,214.445,49.411z"/>
				<path fill="#010101" d="M236.854,28.808v2.051h-7v6.904h5.455v2.051h-5.455v9.379h-2.939V28.808H236.854z"/>
				<path fill="#010101" d="M242.623,49.192h-2.912v-14h-1.818v-1.9h4.73V49.192z M241.174,27.714c0.446,0,0.832,0.164,1.155,0.492
					c0.323,0.328,0.485,0.716,0.485,1.162c0,0.456-0.16,0.846-0.479,1.169c-0.319,0.323-0.707,0.485-1.162,0.485
					c-0.465,0-0.857-0.162-1.176-0.485c-0.319-0.323-0.479-0.713-0.479-1.169c0-0.465,0.159-0.856,0.479-1.176
					C240.316,27.873,240.709,27.714,241.174,27.714z"/>
				<path fill="#010101" d="M257.184,46.759v1.982c-1.432,0.446-2.912,0.67-4.443,0.67c-2.225,0-3.888-0.67-4.99-2.01
					c-1.104-1.34-1.654-3.404-1.654-6.193c0-2.452,0.533-4.423,1.6-5.913c1.067-1.49,2.588-2.235,4.566-2.235
					c1.604,0,2.81,0.426,3.616,1.278c0.806,0.852,1.323,1.896,1.552,3.131c0.228,1.235,0.342,2.705,0.342,4.409h-8.586
					c0,1.851,0.328,3.238,0.984,4.163c0.656,0.925,1.641,1.388,2.953,1.388C254.234,47.429,255.588,47.205,257.184,46.759z
					 M249.186,40.087h5.729c0-1.923-0.229-3.281-0.684-4.074c-0.456-0.793-1.112-1.189-1.969-1.189c-0.957,0-1.688,0.41-2.194,1.23
					C249.562,36.874,249.268,38.219,249.186,40.087z"/>
				<path fill="#010101" d="M261.012,49.192V27.55h2.912v21.643L261.012,49.192L261.012,49.192z"/>
				<path fill="#010101" d="M277.842,49.192l-0.615-1.955c-0.838,1.449-2.271,2.174-4.307,2.174c-1.887,0-3.307-0.668-4.259-2.003
					c-0.952-1.335-1.429-3.42-1.429-6.255c0-2.379,0.508-4.322,1.524-5.831c1.016-1.509,2.458-2.263,4.327-2.263
					c1.531,0,2.681,0.46,3.444,1.381v-6.89h2.912v21.643L277.842,49.192L277.842,49.192z M276.625,41.946l-0.014-0.902
					c0-2.37-0.27-3.97-0.801-4.799c-0.535-0.829-1.292-1.244-2.275-1.244c-1.094,0-1.914,0.506-2.461,1.518
					c-0.547,1.012-0.82,2.529-0.82,4.553c0,2.124,0.264,3.714,0.793,4.771c0.528,1.058,1.321,1.586,2.379,1.586
					c1.029,0,1.82-0.383,2.372-1.148C276.35,45.516,276.625,44.07,276.625,41.946z"/>
			</g>
		</g>
		<g id="number-input-field-background">
			
				<linearGradient id="SVGID_1_" gradientUnits="userSpaceOnUse" x1="545.25" y1="659.25" x2="545.25" y2="757.25" gradientTransform="matrix(1 0 0 1 -270 -580)">
				<stop  offset="0" style="stop-color:#3D3D3D"/>
				<stop  offset="0.0275" style="stop-color:#424242"/>
				<stop  offset="0.1472" style="stop-color:#515151"/>
				<stop  offset="0.2885" style="stop-color:#595959"/>
				<stop  offset="0.5039" style="stop-color:#5C5C5C"/>
				<stop  offset="0.7272" style="stop-color:#595959"/>
				<stop  offset="0.8953" style="stop-color:#4F4F4F"/>
				<stop  offset="1" style="stop-color:#454545"/>
			</linearGradient>
			<rect x="49.25" y="79.25" fill="url(#SVGID_1_)" width="452" height="98"/>
		</g>
		<g id="input-field-delete-button-background">
			
				<linearGradient id="SVGID_2_" gradientUnits="userSpaceOnUse" x1="509.75" y1="822.25" x2="509.75" y2="920.25" gradientTransform="matrix(1 0 0 1 -270 -580)">
				<stop  offset="0" style="stop-color:#3D3D3D"/>
				<stop  offset="0.0275" style="stop-color:#424242"/>
				<stop  offset="0.1472" style="stop-color:#515151"/>
				<stop  offset="0.2885" style="stop-color:#595959"/>
				<stop  offset="0.5039" style="stop-color:#5C5C5C"/>
				<stop  offset="0.7272" style="stop-color:#595959"/>
				<stop  offset="0.8953" style="stop-color:#4F4F4F"/>
				<stop  offset="1" style="stop-color:#454545"/>
			</linearGradient>
			<rect x="193.25" y="242.25" fill="url(#SVGID_2_)" width="93" height="98"/>
		</g>
		<g id="input-field-delete-button-background-pressed">
			<linearGradient id="SVGID_3_" gradientUnits="userSpaceOnUse" x1="108.75" y1="241.25" x2="108.75" y2="339.25">
				<stop  offset="0" style="stop-color:#312F31"/>
				<stop  offset="0.0469" style="stop-color:#363436"/>
				<stop  offset="0.1689" style="stop-color:#3B3B3B"/>
				<stop  offset="0.5082" style="stop-color:#3D3D3D"/>
				<stop  offset="0.8365" style="stop-color:#3B3B3B"/>
				<stop  offset="0.9546" style="stop-color:#363436"/>
				<stop  offset="1" style="stop-color:#312F31"/>
			</linearGradient>
			<rect x="62.25" y="241.25" opacity="0.87" fill="url(#SVGID_3_)" width="93" height="98"/>
			<rect x="62.25" y="241.25" width="1" height="98"/>
			<rect x="63.234" y="241.417" opacity="0.2" fill="#FFFFFF" enable-background="new    " width="1" height="98"/>
		</g>
	</g>
</g>
</svg>
