<?xml version="1.0" encoding="UTF-8" standalone="no"?>
<!-- Generator: Adobe Illustrator 14.0.0, SVG Export Plug-In . SVG Version: 6.00 Build 43363)  -->

<svg
   xmlns:dc="http://purl.org/dc/elements/1.1/"
   xmlns:cc="http://creativecommons.org/ns#"
   xmlns:rdf="http://www.w3.org/1999/02/22-rdf-syntax-ns#"
   xmlns:svg="http://www.w3.org/2000/svg"
   xmlns="http://www.w3.org/2000/svg"
   xmlns:xlink="http://www.w3.org/1999/xlink"
   xmlns:sodipodi="http://sodipodi.sourceforge.net/DTD/sodipodi-0.dtd"
   xmlns:inkscape="http://www.inkscape.org/namespaces/inkscape"
   version="1.1"
   id="icon-m-back-layer"
   x="0px"
   y="0px"
   width="64px"
   height="64px"
   viewBox="0 0 64 64"
   style="enable-background:new 0 0 64 64;"
   xml:space="preserve"
   inkscape:version="0.47pre4 r22446"
   sodipodi:docname="icon-m-back.svg"><metadata
   id="metadata15"><rdf:RDF><cc:Work
       rdf:about=""><dc:format>image/svg+xml</dc:format><dc:type
         rdf:resource="http://purl.org/dc/dcmitype/StillImage" /></cc:Work></rdf:RDF></metadata><defs
   id="defs13"><inkscape:perspective
     sodipodi:type="inkscape:persp3d"
     inkscape:vp_x="0 : 32 : 1"
     inkscape:vp_y="0 : 1000 : 0"
     inkscape:vp_z="64 : 32 : 1"
     inkscape:persp3d-origin="32 : 21.333333 : 1"
     id="perspective17" /></defs><sodipodi:namedview
   pagecolor="#ffffff"
   bordercolor="#666666"
   borderopacity="1"
   objecttolerance="10"
   gridtolerance="10"
   guidetolerance="10"
   inkscape:pageopacity="0"
   inkscape:pageshadow="2"
   inkscape:window-width="1174"
   inkscape:window-height="783"
   id="namedview11"
   showgrid="false"
   inkscape:zoom="3.6875"
   inkscape:cx="32"
   inkscape:cy="30.915254"
   inkscape:window-x="0"
   inkscape:window-y="25"
   inkscape:window-maximized="0"
   inkscape:current-layer="icon-m-back-layer" />
<symbol
   id="background_x5F_64"
   viewBox="-31.999 -32 63.999 64">
	<polygon
   style="fill:none;"
   points="32,-32 -32,-32 -32,32 32,32  "
   id="polygon4" />
</symbol>
<g
   id="icon-m-back_2_"
   transform="matrix(-1,0,0,1,63.999999,0)">
	
		<use
   xlink:href="#background_x5F_64"
   width="63.999001"
   height="64"
   id="background_x5F_64_39_"
   x="-31.999001"
   y="-32"
   transform="matrix(1,0,0,-1,32,32)"
   style="overflow:visible" />
	<g
   id="g8">
		<path
   id="Icon-back_3_"
   style="fill:#231f20"
   d="M 56.284,16.222 C 51.505,11.139 44.934,8.014 37.661,8.014 H 19.557 V 0 L 9.797,6.02 0,12.015 l 9.797,5.989 9.76,6.008 v -8.006 h 18.104 c 5.185,0 9.886,2.235 13.302,5.849 3.401,3.613 5.514,8.622 5.514,14.13 0,5.531 -2.112,10.535 -5.514,14.154 -3.416,3.631 -8.117,5.857 -13.302,5.857 H 11.312 V 64 H 37.661 C 44.934,64 51.505,60.865 56.284,55.785 61.055,50.727 64,43.723 64,35.984 64,28.302 61.055,21.296 56.284,16.222 z" />
	</g>
</g>
</svg>