<?xml version="1.0" encoding="iso-8859-1"?>
<!-- Generator: Adobe Illustrator 14.0.0, SVG Export Plug-In . SVG Version: 6.00 Build 43363)  -->
<!DOCTYPE svg PUBLIC "-//W3C//DTD SVG 1.1//EN" "http://www.w3.org/Graphics/SVG/1.1/DTD/svg11.dtd">
<svg version="1.1" id="lockscreen-layer" xmlns="http://www.w3.org/2000/svg" xmlns:xlink="http://www.w3.org/1999/xlink" x="0px"
	 y="0px" width="810px" height="550px" viewBox="0 0 810 550" style="enable-background:new 0 0 810 550;" xml:space="preserve">
<g id="lockscreen">
	<g id="magnifierThemeTemplateHelper">
		<g id="magnifierhelperBackground">
			<g>
				<path style="fill:#B3B3B3;" d="M16,549c-8.271,0-15-6.729-15-15V16C1,7.729,7.729,1,16,1h778c8.271,0,15,6.729,15,15v518
					c0,8.271-6.729,15-15,15H16z"/>
				<g>
					<path d="M794,2c7.72,0,14,6.28,14,14v518c0,7.72-6.28,14-14,14H16c-7.72,0-14-6.28-14-14V16C2,8.28,8.28,2,16,2H794 M794,0H16
						C7.2,0,0,7.2,0,16v518c0,8.8,7.2,16,16,16h778c8.8,0,16-7.2,16-16V16C810,7.2,802.8,0,794,0L794,0z"/>
				</g>
			</g>
		</g>
		<g>
			<path style="fill:#010101;" d="M293.446,56.022c-2.051,0-4.095-0.28-6.132-0.841v-3.179c2.242,0.643,4.245,0.964,6.009,0.964
				c1.887,0,3.38-0.424,4.481-1.271s1.651-2.064,1.651-3.65c0-1.012-0.215-1.869-0.646-2.574c-0.431-0.703-0.988-1.302-1.671-1.794
				c-0.684-0.492-1.675-1.114-2.974-1.866c-1.545-0.889-2.765-1.678-3.661-2.369c-0.896-0.689-1.644-1.572-2.246-2.645
				c-0.602-1.074-0.902-2.376-0.902-3.907c0-2.598,0.865-4.597,2.594-5.999c1.729-1.4,4.084-2.102,7.065-2.102
				c1.955,0,3.787,0.205,5.496,0.615v3.076c-1.915-0.424-3.65-0.636-5.209-0.636c-1.627,0-2.95,0.394-3.968,1.179
				c-1.019,0.787-1.528,1.877-1.528,3.271c0,0.902,0.27,1.764,0.81,2.584s2.006,1.928,4.399,3.322
				c1.559,0.902,2.786,1.695,3.681,2.379s1.654,1.559,2.276,2.625s0.933,2.345,0.933,3.835
				C303.905,53.028,300.418,56.022,293.446,56.022z"/>
			<path style="fill:#010101;" d="M316.948,56.022c-3.24,0-5.688-1.063-7.342-3.188c-1.654-2.127-2.481-5.247-2.481-9.362
				c0-3.828,0.892-6.781,2.676-8.859s4.378-3.117,7.783-3.117c1.326,0,2.673,0.171,4.04,0.513v2.974
				c-1.039-0.328-2.331-0.492-3.876-0.492c-1.997,0-3.51,0.796-4.542,2.39c-1.032,1.592-1.548,3.817-1.548,6.675
				c0,3.076,0.516,5.428,1.548,7.055s2.546,2.44,4.542,2.44c1.723,0,3.069-0.157,4.04-0.472v2.83
				C320.324,55.817,318.711,56.022,316.948,56.022z"/>
			<path style="fill:#010101;" d="M328.125,31.844l1.005,3.979c1.326-2.803,3.637-4.204,6.932-4.204
				c0.438,0,0.759,0.021,0.964,0.062v3.979c-0.342-0.027-0.854-0.041-1.538-0.041c-1.874,0-3.248,0.447-4.122,1.344
				c-0.875,0.895-1.312,2.293-1.312,4.193v14.54h-4.368V31.844H328.125z"/>
			<path style="fill:#010101;" d="M355.708,52.044v2.974c-2.146,0.67-4.368,1.005-6.665,1.005c-3.336,0-5.832-1.005-7.485-3.015
				c-1.654-2.01-2.481-5.106-2.481-9.29c0-3.678,0.8-6.634,2.399-8.87c1.6-2.234,3.883-3.353,6.85-3.353
				c2.406,0,4.214,0.64,5.424,1.917c1.21,1.279,1.986,2.844,2.328,4.697c0.341,1.852,0.513,4.057,0.513,6.613H343.71
				c0,2.775,0.492,4.857,1.477,6.244c0.984,1.389,2.461,2.082,4.43,2.082C351.285,53.049,353.315,52.714,355.708,52.044z
				 M343.71,42.036h8.593c0-2.885-0.342-4.922-1.025-6.111c-0.684-1.189-1.668-1.784-2.953-1.784c-1.436,0-2.533,0.615-3.292,1.846
				S343.833,39.233,343.71,42.036z"/>
			<path style="fill:#010101;" d="M377.077,52.044v2.974c-2.146,0.67-4.368,1.005-6.665,1.005c-3.336,0-5.832-1.005-7.485-3.015
				c-1.654-2.01-2.481-5.106-2.481-9.29c0-3.678,0.8-6.634,2.399-8.87c1.6-2.234,3.883-3.353,6.85-3.353
				c2.406,0,4.214,0.64,5.424,1.917c1.21,1.279,1.986,2.844,2.328,4.697c0.341,1.852,0.513,4.057,0.513,6.613H365.08
				c0,2.775,0.492,4.857,1.477,6.244c0.984,1.389,2.461,2.082,4.43,2.082C372.654,53.049,374.684,52.714,377.077,52.044z
				 M365.08,42.036h8.593c0-2.885-0.342-4.922-1.025-6.111c-0.684-1.189-1.668-1.784-2.953-1.784c-1.436,0-2.533,0.615-3.292,1.846
				S365.203,39.233,365.08,42.036z"/>
			<path style="fill:#010101;" d="M400.333,55.694h-4.368V39.862c0-1.791-0.315-3.134-0.943-4.03
				c-0.629-0.895-1.572-1.343-2.83-1.343c-1.586,0-2.817,0.602-3.691,1.805c-0.875,1.203-1.312,2.769-1.312,4.696v14.704h-4.368
				V31.844h2.44l0.882,3.527c1.518-2.584,3.828-3.876,6.932-3.876c2.42,0,4.235,0.636,5.445,1.907s1.815,3.172,1.815,5.701V55.694z"
				/>
			<path style="fill:#010101;" d="M416.432,55.694V25.117h4.408v27.501h10.336v3.076H416.432z"/>
			<path style="fill:#010101;" d="M443.42,56.022c-3.213,0-5.619-1.053-7.219-3.158s-2.4-5.264-2.4-9.475
				c0-3.664,0.831-6.562,2.492-8.695s4.037-3.199,7.127-3.199c3.117,0,5.499,1.053,7.146,3.158s2.471,5.045,2.471,8.818
				c0,3.883-0.769,6.945-2.307,9.188S446.755,56.022,443.42,56.022z M443.42,53.213c1.682,0,2.949-0.762,3.804-2.287
				c0.854-1.523,1.282-4.077,1.282-7.659c0-2.529-0.438-4.651-1.312-6.368c-0.875-1.715-2.133-2.573-3.773-2.573
				c-1.669,0-2.934,0.772-3.795,2.317s-1.291,3.753-1.291,6.624c0,3.227,0.43,5.69,1.291,7.394
				C440.486,52.361,441.751,53.213,443.42,53.213z"/>
			<path style="fill:#010101;" d="M466.799,56.022c-3.24,0-5.688-1.063-7.342-3.188c-1.654-2.127-2.482-5.247-2.482-9.362
				c0-3.828,0.893-6.781,2.677-8.859s4.378-3.117,7.782-3.117c1.326,0,2.674,0.171,4.041,0.513v2.974
				c-1.039-0.328-2.332-0.492-3.877-0.492c-1.996,0-3.51,0.796-4.542,2.39c-1.032,1.592-1.548,3.817-1.548,6.675
				c0,3.076,0.516,5.428,1.548,7.055s2.546,2.44,4.542,2.44c1.723,0,3.069-0.157,4.041-0.472v2.83
				C470.175,55.817,468.562,56.022,466.799,56.022z"/>
			<path style="fill:#010101;" d="M484.578,42.221l8.695,13.474h-5.168l-8.203-12.981v12.981h-4.367V23.23h4.367v19.4l8.08-10.787
				h4.779L484.578,42.221z"/>
		</g>
	</g>
	<g id="lockscreen-lock">
		<g>
			<path style="fill:#FFFFFF;" d="M119.19,189.007c-27.512,0-49.817-22.306-49.817-49.817c0-27.517,22.306-49.816,49.817-49.816
				c27.519,0,49.816,22.3,49.816,49.816C169.007,166.701,146.709,189.007,119.19,189.007z"/>
		</g>
		<g>
			<path style="fill:#BBBDBF;" d="M119.19,70C80.979,70,50,100.97,50,139.189c0,38.209,30.979,69.191,69.19,69.191
				c38.219,0,69.189-30.982,69.189-69.191C188.38,100.97,157.409,70,119.19,70z M119.19,189.007
				c-27.512,0-49.817-22.306-49.817-49.817c0-27.517,22.306-49.816,49.817-49.816c27.519,0,49.816,22.3,49.816,49.816
				C169.007,166.701,146.709,189.007,119.19,189.007z"/>
		</g>
		<g>
			<path style="fill:#808080;" d="M119.19,189.007c-27.512,0-49.817-22.306-49.817-49.817c0-27.517,22.306-48.433,49.817-48.433
				c27.519,0,49.816,20.916,49.816,48.433C169.007,166.701,146.709,189.007,119.19,189.007z"/>
		</g>
		<g>
			<linearGradient id="SVGID_1_" gradientUnits="userSpaceOnUse" x1="119.1899" y1="90.7568" x2="119.1899" y2="187.623">
				<stop  offset="0" style="stop-color:#F2F2F2"/>
				<stop  offset="1" style="stop-color:#D2D3D3"/>
			</linearGradient>
			<path style="fill:url(#SVGID_1_);" d="M119.19,187.623c-27.512,0-49.817-20.922-49.817-48.434
				c0-27.517,22.306-48.433,49.817-48.433c27.519,0,49.816,20.916,49.816,48.433C169.007,166.701,146.709,187.623,119.19,187.623z"
				/>
		</g>
	</g>
	<g id="lockscreen-lock-active">
		<linearGradient id="SVGID_2_" gradientUnits="userSpaceOnUse" x1="119.2202" y1="230" x2="119.2202" y2="368.4419">
			<stop  offset="0" style="stop-color:#8BD7F8"/>
			<stop  offset="0.0805" style="stop-color:#7FCBF0"/>
			<stop  offset="0.277" style="stop-color:#67B9E4"/>
			<stop  offset="0.4863" style="stop-color:#56ADDC"/>
			<stop  offset="0.7151" style="stop-color:#4BA6D8"/>
			<stop  offset="1" style="stop-color:#47A4D7"/>
		</linearGradient>
		<path style="fill:url(#SVGID_2_);" d="M119.22,230C80.992,230,50,260.984,50,299.221c0,38.226,30.992,69.221,69.22,69.221
			c38.236,0,69.22-30.995,69.22-69.221C188.44,260.984,157.457,230,119.22,230z M119.22,349.059
			c-27.523,0-49.838-22.313-49.838-49.838c0-27.529,22.315-49.838,49.838-49.838c27.531,0,49.839,22.309,49.839,49.838
			C169.059,326.745,146.751,349.059,119.22,349.059z"/>
		<g>
			<path style="fill:#FFFFFF;" d="M119.22,349.059c-27.523,0-49.838-22.313-49.838-49.838c0-27.529,22.315-49.838,49.838-49.838
				c27.531,0,49.839,22.309,49.839,49.838C169.059,326.745,146.751,349.059,119.22,349.059z"/>
		</g>
		<g>
			<path style="fill:#808080;" d="M119.22,349.059c-27.523,0-49.838-22.313-49.838-49.838c0-27.529,22.315-48.453,49.838-48.453
				c27.531,0,49.839,20.924,49.839,48.453C169.059,326.745,146.751,349.059,119.22,349.059z"/>
		</g>
		<g>
			<linearGradient id="SVGID_3_" gradientUnits="userSpaceOnUse" x1="119.2202" y1="250.7676" x2="119.2202" y2="347.6763">
				<stop  offset="0" style="stop-color:#F2F2F2"/>
				<stop  offset="1" style="stop-color:#D2D3D3"/>
			</linearGradient>
			<path style="fill:url(#SVGID_3_);" d="M119.22,347.676c-27.523,0-49.838-20.931-49.838-48.455
				c0-27.529,22.315-48.453,49.838-48.453c27.531,0,49.839,20.924,49.839,48.453C169.059,326.745,146.751,347.676,119.22,347.676z"
				/>
		</g>
	</g>
	<g id="lockscreen-lock-lift-area-background">
		<g>
			<linearGradient id="SVGID_4_" gradientUnits="userSpaceOnUse" x1="490" y1="240" x2="490" y2="100">
				<stop  offset="0" style="stop-color:#000000"/>
				<stop  offset="0.49" style="stop-color:#000000"/>
				<stop  offset="0.497" style="stop-color:#0A0A0A"/>
				<stop  offset="0.582" style="stop-color:#111111"/>
				<stop  offset="0.702" style="stop-color:#232323"/>
				<stop  offset="0.842" style="stop-color:#414141"/>
				<stop  offset="0.98" style="stop-color:#666666"/>
				<stop  offset="1" style="stop-color:#666666"/>
			</linearGradient>
			<rect x="250" y="100" style="fill:url(#SVGID_4_);" width="480" height="140"/>
		</g>
		<rect x="250" y="239" style="opacity:0.25;fill:#FFFFFF;" width="480" height="1"/>
		<g>
			<path style="fill:#BBBDBF;" d="M660,120c-27.613,0-50,22.381-50,50c0,27.611,22.387,50,50,50c27.619,0,50-22.389,50-50
				C710,142.381,687.619,120,660,120z M660,206c-19.881,0-36-16.119-36-36c0-19.885,16.119-36,36-36c19.887,0,36,16.115,36,36
				C696,189.881,679.887,206,660,206z"/>
		</g>
	</g>
	<g id="lockscreen-other-events-area-background">
		<linearGradient id="SVGID_5_" gradientUnits="userSpaceOnUse" x1="300" y1="359" x2="300" y2="408">
			<stop  offset="0" style="stop-color:#5FB7E7"/>
			<stop  offset="1" style="stop-color:#47A4D7"/>
		</linearGradient>
		<rect x="250" y="359" style="fill:url(#SVGID_5_);" width="100" height="49"/>
		<g>
			<g>
				<rect x="250" y="359" style="opacity:0.15;fill:#010101;" width="100" height="1"/>
				<rect x="250" y="360" style="opacity:0.25;fill:#FFFFFF;" width="100" height="1"/>
			</g>
		</g>
	</g>
	<g id="lockscreen-recent-event-area-background">
		<linearGradient id="SVGID_6_" gradientUnits="userSpaceOnUse" x1="300" y1="260" x2="300" y2="339.0005">
			<stop  offset="0" style="stop-color:#8BD7F8"/>
			<stop  offset="0.1524" style="stop-color:#7CC9F0"/>
			<stop  offset="0.3954" style="stop-color:#6ABDE9"/>
			<stop  offset="0.6619" style="stop-color:#5FB6E5"/>
			<stop  offset="0.9939" style="stop-color:#5CB4E4"/>
		</linearGradient>
		<rect x="250" y="260" style="fill:url(#SVGID_6_);" width="100" height="79"/>
	</g>
	<g id="lockscreen-notification-area-background">
		<linearGradient id="SVGID_7_" gradientUnits="userSpaceOnUse" x1="300" y1="428" x2="300" y2="498">
			<stop  offset="0" style="stop-color:#8BD7F8"/>
			<stop  offset="0.0805" style="stop-color:#7FCBF0"/>
			<stop  offset="0.277" style="stop-color:#67B9E4"/>
			<stop  offset="0.4863" style="stop-color:#56ADDC"/>
			<stop  offset="0.7151" style="stop-color:#4BA6D8"/>
			<stop  offset="1" style="stop-color:#47A4D7"/>
		</linearGradient>
		<rect x="250" y="428" style="fill:url(#SVGID_7_);" width="100" height="70"/>
	</g>
	<g id="lockscreen-lock-land-area-background-dragged">
		<g style="opacity:0.5;">
			<path style="fill:#FFFFFF;" d="M533.679,330v143.68H390V330H533.679 M553.679,310H370v183.68h183.679V310L553.679,310z"/>
		</g>
	</g>
	<g id="lockscreen-lock-land-area-background-active">
		<linearGradient id="SVGID_8_" gradientUnits="userSpaceOnUse" x1="665.5186" y1="310" x2="665.5186" y2="493.6797">
			<stop  offset="0" style="stop-color:#8BD7F8"/>
			<stop  offset="0.0805" style="stop-color:#7FCBF0"/>
			<stop  offset="0.277" style="stop-color:#67B9E4"/>
			<stop  offset="0.4863" style="stop-color:#56ADDC"/>
			<stop  offset="0.7151" style="stop-color:#4BA6D8"/>
			<stop  offset="1" style="stop-color:#47A4D7"/>
		</linearGradient>
		<path style="fill:url(#SVGID_8_);" d="M737.358,330v143.68h-143.68V330H737.358 M757.358,310h-183.68v183.68h183.68V310
			L757.358,310z"/>
	</g>
	<g id="lockscreen-lock-land-area-center-background">
		<path style="opacity:0.35;fill:#010101;" d="M119.22,492.121c-28.628,0-51.839-23.211-51.839-51.84
			c0-28.635,23.211-51.84,51.839-51.84c28.637,0,51.84,23.205,51.84,51.84C171.06,468.91,147.856,492.121,119.22,492.121z"/>
	</g>
</g>
</svg>
