<?xml version="1.0" encoding="iso-8859-1"?>
<!-- Generator: Adobe Illustrator 14.0.0, SVG Export Plug-In . SVG Version: 6.00 Build 43363)  -->
<!DOCTYPE svg PUBLIC "-//W3C//DTD SVG 1.1//EN" "http://www.w3.org/Graphics/SVG/1.1/DTD/svg11.dtd">
<svg version="1.1" xmlns="http://www.w3.org/2000/svg" xmlns:xlink="http://www.w3.org/1999/xlink" x="0px" y="0px" width="120px"
	 height="200px" viewBox="0 0 120 200" style="enable-background:new 0 0 120 200;" xml:space="preserve">
<g id="meegotouch-container-layer">
</g>
<g id="theme">
	<g id="meegotouch-container">
		<g id="duicontainerThemeTemplateHelper">
			<g>
				<path style="fill:#B3B3B3;" d="M16,199c-8.271,0-15-6.729-15-15V16C1,7.729,7.729,1,16,1h88c8.271,0,15,6.729,15,15v168
					c0,8.271-6.729,15-15,15H16z"/>
				<g>
					<path d="M104,2c7.72,0,14,6.28,14,14v168c0,7.72-6.28,14-14,14H16c-7.72,0-14-6.28-14-14V16C2,8.28,8.28,2,16,2H104 M104,0H16
						C7.2,0,0,7.2,0,16v168c0,8.8,7.2,16,16,16h88c8.8,0,16-7.2,16-16V16C120,7.2,112.8,0,104,0L104,0z"/>
				</g>
			</g>
			<g>
				<path d="M24.545,34.497c-1.859,0-3.254-0.636-4.188-1.907s-1.4-3.295-1.4-6.07c0-2.502,0.475-4.4,1.42-5.696
					c0.947-1.295,2.35-1.942,4.209-1.942c0.861,0,1.641,0.102,2.338,0.307v1.559c-0.717-0.225-1.432-0.338-2.143-0.338
					c-1.162,0-2.033,0.502-2.615,1.508c-0.58,1.004-0.871,2.512-0.871,4.521c0,2.181,0.299,3.814,0.898,4.901
					c0.598,1.087,1.494,1.63,2.691,1.63c0.662,0,1.342-0.105,2.039-0.317v1.518C26.125,34.388,25.332,34.497,24.545,34.497z"/>
				<path d="M33.262,34.497c-1.607,0-2.809-0.526-3.609-1.579c-0.799-1.053-1.199-2.632-1.199-4.737
					c0-1.832,0.414-3.281,1.246-4.348c0.83-1.066,2.018-1.6,3.562-1.6c1.559,0,2.75,0.526,3.574,1.579
					c0.822,1.053,1.234,2.522,1.234,4.409c0,1.941-0.385,3.473-1.152,4.594C36.148,33.937,34.93,34.497,33.262,34.497z
					 M33.262,33.092c0.842,0,1.475-0.381,1.902-1.143s0.641-2.039,0.641-3.83c0-1.265-0.219-2.326-0.656-3.184
					s-1.066-1.287-1.887-1.287c-0.834,0-1.467,0.387-1.896,1.158c-0.432,0.773-0.646,1.877-0.646,3.312
					c0,1.613,0.215,2.846,0.646,3.696C31.795,32.667,32.428,33.092,33.262,33.092z"/>
				<path d="M49.299,34.333h-2.184v-7.916c0-0.896-0.158-1.567-0.473-2.015s-0.785-0.672-1.414-0.672
					c-0.793,0-1.408,0.301-1.846,0.902s-0.656,1.385-0.656,2.348v7.353h-2.186V22.408h1.221l0.441,1.764
					c0.758-1.293,1.914-1.938,3.465-1.938c1.211,0,2.119,0.317,2.723,0.954c0.605,0.635,0.908,1.586,0.908,2.85V34.333z"/>
				<path d="M55.287,34.497c-0.93,0-1.611-0.217-2.041-0.651C52.814,33.412,52.6,32.72,52.6,31.77v-7.937h-1.568v-0.82l3.189-3.251
					h0.562v2.646h2.902v1.425h-2.902v7.577c0,0.65,0.107,1.079,0.318,1.287c0.213,0.209,0.533,0.312,0.965,0.312
					c0.443,0,1.045-0.099,1.805-0.297v1.415C56.955,34.374,56.094,34.497,55.287,34.497z"/>
				<path d="M65.715,32.61c-0.738,1.258-1.887,1.887-3.445,1.887c-1.086,0-1.932-0.306-2.537-0.918
					c-0.605-0.611-0.908-1.468-0.908-2.568c0-1.135,0.311-1.98,0.934-2.538c0.621-0.557,1.367-0.905,2.234-1.046
					c0.869-0.14,1.926-0.21,3.17-0.21v-1.404c0-1.389-0.742-2.082-2.227-2.082c-0.854,0-1.896,0.182-3.127,0.543v-1.527
					c1.238-0.342,2.414-0.513,3.527-0.513c1.312,0,2.309,0.316,2.99,0.948c0.68,0.633,1.02,1.564,1.02,2.795v8.356h-1.189
					L65.715,32.61z M65.162,28.52h-1.221c-0.979,0-1.711,0.207-2.199,0.62s-0.734,1.03-0.734,1.851c0,0.67,0.15,1.171,0.447,1.502
					c0.297,0.332,0.742,0.498,1.338,0.498c0.752,0,1.334-0.24,1.748-0.719s0.621-1.127,0.621-1.947V28.52z"/>
				<path d="M72.789,34.333h-2.184v-10.5h-1.363v-1.425h3.547V34.333z M71.703,18.225c0.334,0,0.623,0.123,0.867,0.369
					c0.242,0.246,0.363,0.536,0.363,0.871c0,0.342-0.119,0.635-0.359,0.877c-0.238,0.242-0.529,0.363-0.871,0.363
					c-0.35,0-0.643-0.121-0.883-0.363c-0.238-0.242-0.357-0.535-0.357-0.877c0-0.349,0.119-0.643,0.357-0.882
					C71.061,18.344,71.354,18.225,71.703,18.225z"/>
				<path d="M84.654,34.333h-2.184v-7.916c0-0.896-0.158-1.567-0.473-2.015s-0.785-0.672-1.414-0.672
					c-0.793,0-1.408,0.301-1.846,0.902s-0.656,1.385-0.656,2.348v7.353h-2.186V22.408h1.221l0.441,1.764
					c0.758-1.293,1.914-1.938,3.465-1.938c1.211,0,2.119,0.317,2.723,0.954c0.605,0.635,0.908,1.586,0.908,2.85V34.333z"/>
				<path d="M95.41,32.508v1.486c-1.074,0.336-2.184,0.503-3.332,0.503c-1.668,0-2.916-0.503-3.744-1.507
					c-0.826-1.006-1.24-2.554-1.24-4.646c0-1.839,0.4-3.317,1.199-4.435c0.801-1.118,1.941-1.677,3.426-1.677
					c1.203,0,2.107,0.319,2.713,0.959c0.604,0.64,0.992,1.422,1.162,2.348c0.172,0.927,0.258,2.028,0.258,3.308h-6.439
					c0,1.387,0.246,2.428,0.738,3.122s1.23,1.04,2.215,1.04C93.199,33.01,94.213,32.843,95.41,32.508z M89.412,27.504h4.295
					c0-1.442-0.17-2.461-0.512-3.056s-0.834-0.892-1.477-0.892c-0.719,0-1.266,0.307-1.646,0.922
					C89.693,25.094,89.473,26.103,89.412,27.504z"/>
				<path d="M99.502,22.408l0.502,1.988c0.662-1.4,1.818-2.102,3.467-2.102c0.217,0,0.379,0.01,0.48,0.031v1.988
					c-0.17-0.014-0.428-0.02-0.768-0.02c-0.938,0-1.625,0.224-2.062,0.671c-0.438,0.448-0.656,1.147-0.656,2.097v7.271h-2.184
					V22.408H99.502z"/>
			</g>
		</g>
		<g id="meegotouch-container-content-background">
			<g>
				<rect x="10" y="109" style="fill:#808080;" width="64" height="64"/>
			</g>
			<g>
				<rect x="10" y="109" style="fill:#FFFFFF;" width="64" height="63"/>
			</g>
		</g>
		<g id="meegotouch-container-header-background">
			<linearGradient id="SVGID_1_" gradientUnits="userSpaceOnUse" x1="26" y1="84" x2="26" y2="52">
				<stop  offset="0" style="stop-color:#000000"/>
				<stop  offset="0.2668" style="stop-color:#030303"/>
				<stop  offset="0.4811" style="stop-color:#0D0D0D"/>
				<stop  offset="0.6772" style="stop-color:#1E1E1E"/>
				<stop  offset="0.8612" style="stop-color:#363636"/>
				<stop  offset="1" style="stop-color:#4D4D4D"/>
			</linearGradient>
			<rect x="10" y="52" style="fill:url(#SVGID_1_);" width="32" height="32"/>
		</g>
	</g>
</g>
</svg>
