<?xml version="1.0" encoding="iso-8859-1"?>
<!-- Generator: Adobe Illustrator 15.0.2, SVG Export Plug-In . SVG Version: 6.00 Build 0)  -->
<!DOCTYPE svg PUBLIC "-//W3C//DTD SVG 1.1//EN" "http://www.w3.org/Graphics/SVG/1.1/DTD/svg11.dtd">
<svg version="1.1" id="meegotouch-viewmenubuttons-layer"
	 xmlns="http://www.w3.org/2000/svg" xmlns:xlink="http://www.w3.org/1999/xlink" x="0px" y="0px" width="810px" height="890px"
	 viewBox="0 0 810 890" style="enable-background:new 0 0 810 890;" xml:space="preserve">
<g id="meegotouch-viewmenubuttons">
	<g id="_x23_ViewMenuThemeHelper">
		<g>
			<path d="M12,889.5c-6.341,0-11.5-5.159-11.5-11.5V12C0.5,5.659,5.659,0.5,12,0.5h786c6.341,0,11.5,5.159,11.5,11.5v866
				c0,6.341-5.159,11.5-11.5,11.5H12z"/>
			<g>
				<path style="fill:#A6A8AB;" d="M798,1c6.065,0,11,4.935,11,11v866c0,6.065-4.935,11-11,11H12c-6.065,0-11-4.935-11-11V12
					C1,5.935,5.935,1,12,1H798 M798,0H12C5.4,0,0,5.4,0,12v866c0,6.6,5.4,12,12,12h786c6.6,0,12-5.4,12-12V12C810,5.4,804.6,0,798,0
					L798,0z"/>
			</g>
		</g>
		<g>
			<path style="fill:#FFFFFF;" d="M266.96,75.557l-7.955-24.261h3.419l3.78,11.95c1.008,3.276,1.908,6.228,2.592,9.071h0.072
				c0.684-2.808,1.656-5.867,2.771-9.035l4.104-11.986h3.348l-8.675,24.261H266.96z"/>
			<path style="fill:#FFFFFF;" d="M284.564,53.239c0,1.08-0.756,1.944-2.016,1.944c-1.152,0-1.908-0.864-1.908-1.944
				c0-1.08,0.792-1.979,1.979-1.979C283.773,51.26,284.564,52.124,284.564,53.239z M281.037,75.557V58.135h3.167v17.422H281.037z"/>
			<path style="fill:#FFFFFF;" d="M291.225,67.422c0.072,4.283,2.771,6.047,5.975,6.047c2.268,0,3.671-0.396,4.823-0.9l0.576,2.268
				c-1.116,0.504-3.06,1.116-5.831,1.116c-5.363,0-8.567-3.563-8.567-8.819s3.096-9.359,8.171-9.359
				c5.723,0,7.199,4.967,7.199,8.171c0,0.648-0.036,1.116-0.108,1.476H291.225z M300.511,65.154
				c0.036-1.979-0.828-5.111-4.392-5.111c-3.239,0-4.607,2.916-4.859,5.111H300.511z"/>
			<path style="fill:#FFFFFF;" d="M308.756,58.135l2.34,8.855c0.468,1.944,0.936,3.744,1.26,5.543h0.108
				c0.396-1.764,0.972-3.636,1.548-5.507l2.844-8.891h2.664l2.7,8.711c0.648,2.088,1.152,3.923,1.547,5.688h0.108
				c0.288-1.764,0.756-3.6,1.332-5.651l2.484-8.747h3.132l-5.616,17.422h-2.879l-2.664-8.315c-0.611-1.944-1.115-3.671-1.547-5.723
				h-0.072c-0.432,2.088-0.972,3.887-1.583,5.759l-2.808,8.279h-2.88l-5.255-17.422H308.756z"/>
			<path style="fill:#FFFFFF;" d="M341.624,62.85c0-1.835-0.072-3.275-0.144-4.715h2.771l0.144,2.844h0.108
				c0.972-1.656,2.592-3.204,5.507-3.204c2.34,0,4.14,1.44,4.896,3.492h0.072c0.54-1.008,1.26-1.728,1.98-2.268
				c1.044-0.792,2.16-1.224,3.815-1.224c2.34,0,5.759,1.512,5.759,7.56v10.222h-3.096V65.73c0-3.384-1.26-5.363-3.779-5.363
				c-1.836,0-3.204,1.332-3.78,2.843c-0.144,0.468-0.252,1.008-0.252,1.584v10.763h-3.095V65.118c0-2.772-1.224-4.751-3.636-4.751
				c-1.944,0-3.42,1.583-3.924,3.167c-0.18,0.432-0.252,1.008-0.252,1.548v10.475h-3.095V62.85z"/>
			<path style="fill:#FFFFFF;" d="M373.412,67.422c0.072,4.283,2.771,6.047,5.975,6.047c2.268,0,3.671-0.396,4.824-0.9l0.576,2.268
				c-1.116,0.504-3.06,1.116-5.832,1.116c-5.363,0-8.566-3.563-8.566-8.819s3.095-9.359,8.171-9.359
				c5.723,0,7.199,4.967,7.199,8.171c0,0.648-0.036,1.116-0.108,1.476H373.412z M382.698,65.154
				c0.036-1.979-0.828-5.111-4.391-5.111c-3.24,0-4.607,2.916-4.859,5.111H382.698z"/>
			<path style="fill:#FFFFFF;" d="M389.684,62.85c0-1.835-0.036-3.275-0.144-4.715h2.808l0.18,2.88h0.072
				c0.864-1.62,2.88-3.24,5.759-3.24c2.412,0,6.155,1.44,6.155,7.415v10.367h-3.167V65.514c0-2.808-1.044-5.147-4.032-5.147
				c-2.052,0-3.671,1.476-4.248,3.24c-0.144,0.396-0.216,0.936-0.216,1.476v10.475h-3.167V62.85z"/>
			<path style="fill:#FFFFFF;" d="M424.242,70.769c0,1.836,0.035,3.42,0.143,4.788h-2.807l-0.18-2.844h-0.072
				c-0.793,1.404-2.664,3.24-5.76,3.24c-2.736,0-6.012-1.548-6.012-7.631V58.135h3.168v9.611c0,3.312,1.045,5.579,3.887,5.579
				c2.125,0,3.6-1.476,4.176-2.916c0.18-0.432,0.289-1.008,0.289-1.62V58.135h3.168V70.769z"/>
			<path style="fill:#FFFFFF;" d="M437.131,50h3.131v10.942h0.072c1.115-1.944,3.133-3.167,5.939-3.167
				c4.355,0,7.379,3.6,7.379,8.855c0,6.227-3.959,9.323-7.848,9.323c-2.52,0-4.535-0.972-5.867-3.24h-0.07l-0.182,2.844h-2.699
				c0.072-1.188,0.145-2.951,0.145-4.5V50z M440.262,68.574c0,0.396,0.037,0.792,0.145,1.152c0.576,2.195,2.447,3.708,4.752,3.708
				c3.348,0,5.291-2.7,5.291-6.695c0-3.492-1.801-6.479-5.219-6.479c-2.125,0-4.141,1.512-4.789,3.888
				c-0.107,0.396-0.18,0.828-0.18,1.332V68.574z"/>
			<path style="fill:#FFFFFF;" d="M472.191,70.769c0,1.836,0.037,3.42,0.145,4.788h-2.807l-0.182-2.844h-0.07
				c-0.793,1.404-2.664,3.24-5.76,3.24c-2.736,0-6.012-1.548-6.012-7.631V58.135h3.168v9.611c0,3.312,1.043,5.579,3.887,5.579
				c2.125,0,3.6-1.476,4.176-2.916c0.18-0.432,0.289-1.008,0.289-1.62V58.135h3.166V70.769z"/>
			<path style="fill:#FFFFFF;" d="M481.266,53.959v4.175h4.535v2.412h-4.535v9.395c0,2.16,0.611,3.383,2.375,3.383
				c0.865,0,1.369-0.072,1.836-0.216l0.145,2.412c-0.611,0.216-1.584,0.432-2.809,0.432c-1.475,0-2.662-0.504-3.418-1.332
				c-0.865-0.972-1.225-2.52-1.225-4.571v-9.503h-2.699v-2.412h2.699v-3.24L481.266,53.959z"/>
			<path style="fill:#FFFFFF;" d="M493.182,53.959v4.175h4.535v2.412h-4.535v9.395c0,2.16,0.611,3.383,2.375,3.383
				c0.863,0,1.367-0.072,1.836-0.216l0.145,2.412c-0.613,0.216-1.584,0.432-2.809,0.432c-1.475,0-2.664-0.504-3.42-1.332
				c-0.863-0.972-1.223-2.52-1.223-4.571v-9.503h-2.699v-2.412h2.699v-3.24L493.182,53.959z"/>
			<path style="fill:#FFFFFF;" d="M516.832,66.702c0,6.443-4.5,9.251-8.676,9.251c-4.68,0-8.35-3.456-8.35-8.963
				c0-5.795,3.852-9.215,8.639-9.215C513.447,57.775,516.832,61.411,516.832,66.702z M503.045,66.882
				c0,3.815,2.16,6.695,5.256,6.695c3.023,0,5.291-2.843,5.291-6.767c0-2.952-1.475-6.659-5.219-6.659
				C504.666,60.15,503.045,63.606,503.045,66.882z"/>
			<path style="fill:#FFFFFF;" d="M520.83,62.85c0-1.835-0.037-3.275-0.145-4.715h2.807l0.182,2.88h0.07
				c0.865-1.62,2.881-3.24,5.76-3.24c2.412,0,6.156,1.44,6.156,7.415v10.367h-3.168V65.514c0-2.808-1.045-5.147-4.031-5.147
				c-2.053,0-3.672,1.476-4.248,3.24c-0.145,0.396-0.217,0.936-0.217,1.476v10.475h-3.166V62.85z"/>
			<path style="fill:#FFFFFF;" d="M540.377,72.353c0.973,0.576,2.629,1.224,4.211,1.224c2.27,0,3.348-1.116,3.348-2.591
				c0-1.512-0.898-2.304-3.203-3.168c-3.168-1.152-4.643-2.843-4.643-4.931c0-2.808,2.303-5.111,6.01-5.111
				c1.766,0,3.312,0.468,4.248,1.08l-0.756,2.304c-0.684-0.432-1.943-1.043-3.562-1.043c-1.873,0-2.881,1.08-2.881,2.375
				c0,1.44,1.008,2.088,3.275,2.988c2.988,1.116,4.572,2.627,4.572,5.219c0,3.096-2.412,5.255-6.479,5.255
				c-1.908,0-3.672-0.504-4.896-1.224L540.377,72.353z"/>
		</g>
	</g>
	<g id="meegotouch-viewmenu-border">
		<rect x="648" y="100" style="fill:#00DB00;" width="64" height="1"/>
	</g>
	<g id="meegotouch-navigationbar-viewmenu-background">
		<rect x="564" y="100" style="fill-opacity:0;" width="64" height="64"/>
		<rect x="564" y="163" style="fill:#00DB00;" width="64" height="1"/>
		<rect x="564" y="100" style="fill:#00DB00;" width="64" height="1"/>
	</g>
	<g id="meegotouch-viewmenu-background-pressed">
		<rect x="406" y="618" style="opacity:0.2;fill:#FFFFFF;enable-background:new    ;" width="64" height="64"/>
		<rect x="406" y="681" style="fill:#00DB00;" width="64" height="1"/>
	</g>
	<g id="meegotouch-viewmenu-background">
		<rect x="174" y="618" style="fill:none;" width="64" height="64"/>
		<rect x="174" y="681" style="fill:#00DB00;" width="64" height="1"/>
	</g>
	<g id="meegotouch-viewmenu-background-pressed-vertical-bottom">
		<rect x="406" y="544" style="opacity:0.2;fill:#FFFFFF;enable-background:new    ;" width="64" height="64"/>
		<rect x="406" y="607" style="fill:#00DB00;" width="64" height="1"/>
	</g>
	<g id="meegotouch-viewmenu-background-pressed-vertical-center">
		<rect x="406" y="470" style="opacity:0.2;fill:#FFFFFF;enable-background:new    ;" width="64" height="64"/>
	</g>
	<g id="meegotouch-viewmenu-background-pressed-vertical-top">
		<rect x="406" y="396" style="opacity:0.2;fill:#FFFFFF;enable-background:new    ;" width="64" height="64"/>
		<rect x="406" y="396" style="fill:#00DB00;" width="64" height="1"/>
	</g>
	<g id="meegotouch-viewmenu-background-vertical-bottom">
		<rect x="174" y="544" style="fill-opacity:0;" width="64" height="64"/>
		<rect x="174" y="607" style="fill:#00DB00;" width="64" height="1"/>
	</g>
	<g id="meegotouch-viewmenu-background-vertical-center" style="opacity:0;">
		<rect x="174" y="470" style="opacity:0.96;enable-background:new    ;" width="64" height="64"/>
	</g>
	<g id="meegotouch-viewmenu-background-vertical-top">
		<rect x="174" y="396" style="fill-opacity:0;" width="64" height="64"/>
		<rect x="174" y="396" style="fill:#00DB00;" width="64" height="1"/>
	</g>
	<g id="meegotouch-viewmenu-background-pressed-horizontal-right">
		<g style="opacity:0.2;enable-background:new    ;">
			<rect x="480" y="322" style="fill:#FFFFFF;" width="64" height="64"/>
		</g>
		<g>
			<rect x="480" y="322" style="fill:#00DB00;" width="64" height="1"/>
		</g>
		<g>
			<rect x="480" y="385" style="fill:#00DB00;" width="64" height="1"/>
		</g>
	</g>
	<g id="meegotouch-viewmenu-background-pressed-horizontal-center">
		<g style="opacity:0.2;enable-background:new    ;">
			<rect x="406" y="322" style="fill:#FFFFFF;" width="64" height="64"/>
		</g>
		<g>
			<rect x="406" y="322" style="fill:#00DB00;" width="64" height="1"/>
		</g>
		<g>
			<rect x="406" y="385" style="fill:#00DB00;" width="64" height="1"/>
		</g>
	</g>
	<g id="meegotouch-viewmenu-background-pressed-horizontal-left">
		<g style="opacity:0.2;enable-background:new    ;">
			<rect x="332" y="322" style="fill:#FFFFFF;" width="64" height="64"/>
		</g>
		<g>
			<rect x="332" y="322" style="fill:#00DB00;" width="64" height="1"/>
		</g>
		<g>
			<rect x="332" y="385" style="fill:#00DB00;" width="64" height="1"/>
		</g>
	</g>
	<g id="meegotouch-viewmenu-background-horizontal-right">
		<g>
			<rect x="248" y="322" style="fill:none;" width="64" height="64"/>
		</g>
		<g>
			<rect x="248" y="322" style="fill:#00DB00;" width="64" height="1"/>
		</g>
		<g>
			<rect x="248" y="385" style="fill:#00DB00;" width="64" height="1"/>
		</g>
	</g>
	<g id="meegotouch-viewmenu-background-horizontal-center">
		<g>
			<rect x="174" y="322" style="fill:none;" width="64" height="64"/>
		</g>
		<g>
			<rect x="174" y="322" style="fill:#00DB00;" width="64" height="1"/>
		</g>
		<g>
			<rect x="174" y="385" style="fill:#00DB00;" width="64" height="1"/>
		</g>
	</g>
	<g id="meegotouch-viewmenu-background-horizontal-left">
		<g>
			<rect x="100" y="322" style="fill:none;" width="64" height="64"/>
		</g>
		<g>
			<rect x="100" y="322" style="fill:#00DB00;" width="64" height="1"/>
		</g>
		<g>
			<rect x="100" y="385" style="fill:#00DB00;" width="64" height="1"/>
		</g>
	</g>
	<g id="meegotouch-viewmenu-background-pressed-bottom-right">
		<rect x="480" y="248" style="opacity:0.2;fill:#FFFFFF;enable-background:new    ;" width="64" height="64"/>
		<rect x="480" y="311" style="fill:#00DB00;" width="64" height="1"/>
	</g>
	<g id="meegotouch-viewmenu-background-pressed-bottom-center">
		<rect x="406" y="248" style="opacity:0.2;fill:#FFFFFF;enable-background:new    ;" width="64" height="64"/>
		<rect x="406" y="311" style="fill:#00DB00;" width="64" height="1"/>
	</g>
	<g id="meegotouch-viewmenu-background-pressed-bottom-left">
		<rect x="332" y="248" style="opacity:0.2;fill:#FFFFFF;enable-background:new    ;" width="64" height="64"/>
		<rect x="332" y="311" style="fill:#00DB00;" width="64" height="1"/>
	</g>
	<g id="meegotouch-viewmenu-background-pressed-center-right">
		<rect x="480" y="174" style="opacity:0.2;fill:#FFFFFF;enable-background:new    ;" width="64" height="64"/>
	</g>
	<g id="meegotouch-viewmenu-background-pressed-center">
		<rect x="406" y="174" style="opacity:0.2;fill:#FFFFFF;enable-background:new    ;" width="64" height="64"/>
	</g>
	<g id="meegotouch-viewmenu-background-pressed-center-left">
		<rect x="332" y="174" style="opacity:0.2;fill:#FFFFFF;enable-background:new    ;" width="64" height="64"/>
	</g>
	<g id="meegotouch-viewmenu-background-pressed-top-right">
		<rect x="480" y="100" style="opacity:0.2;fill:#FFFFFF;enable-background:new    ;" width="64" height="64"/>
		<rect x="480" y="100" style="fill:#00DB00;" width="64" height="1"/>
	</g>
	<g id="meegotouch-viewmenu-background-pressed-top-center">
		<rect x="406" y="100" style="opacity:0.2;fill:#FFFFFF;enable-background:new    ;" width="64" height="64"/>
		<rect x="406" y="100" style="fill:#00DB00;" width="64" height="1"/>
	</g>
	<g id="meegotouch-viewmenu-background-pressed-top-left">
		<rect x="332" y="100" style="opacity:0.2;fill:#FFFFFF;enable-background:new    ;" width="64" height="64"/>
		<rect x="332" y="100" style="fill:#00DB00;" width="64" height="1"/>
	</g>
	<g id="meegotouch-viewmenu-background-bottom-right">
		<rect x="248" y="248" style="fill-opacity:0;" width="64" height="64"/>
		<rect x="248" y="311" style="fill:#00DB00;" width="64" height="1"/>
	</g>
	<g id="meegotouch-viewmenu-background-bottom-center">
		<rect x="174" y="248" style="fill-opacity:0;" width="64" height="64"/>
		<rect x="174" y="311" style="fill:#00DB00;" width="64" height="1"/>
	</g>
	<g id="meegotouch-viewmenu-background-bottom-left">
		<rect x="100" y="248" style="fill-opacity:0;" width="64" height="64"/>
		<rect x="100" y="311" style="fill:#00DB00;" width="64" height="1"/>
	</g>
	<g id="meegotouch-viewmenu-background-center-right" style="opacity:0;">
		<rect x="248" y="174" style="opacity:0.96;enable-background:new    ;" width="64" height="64"/>
	</g>
	<g id="meegotouch-viewmenu-background-center">
		<rect x="174" y="174" style="fill-opacity:0;" width="64" height="64"/>
	</g>
	<g id="meegotouch-viewmenu-background-center-left">
		<rect x="100" y="174" style="fill-opacity:0;" width="64" height="64"/>
	</g>
	<g id="meegotouch-viewmenu-background-top-right">
		<rect x="248" y="100" style="fill-opacity:0;" width="64" height="64"/>
		<rect x="248" y="100" style="fill:#00DB00;" width="64" height="1"/>
	</g>
	<g id="meegotouch-viewmenu-background-top-center">
		<rect x="174" y="100" style="fill-opacity:0;" width="64" height="64"/>
		<rect x="174" y="100" style="fill:#00DB00;" width="64" height="1"/>
	</g>
	<g id="meegotouch-viewmenu-background-top-left">
		<rect x="100" y="100" style="fill-opacity:0;" width="64" height="64"/>
		<rect x="100" y="100" style="fill:#00DB00;" width="64" height="1"/>
	</g>
</g>
</svg>
