<?xml version="1.0" encoding="iso-8859-1"?>
<!-- Generator: Adobe Illustrator 14.0.0, SVG Export Plug-In . SVG Version: 6.00 Build 43363)  -->
<!DOCTYPE svg PUBLIC "-//W3C//DTD SVG 1.1//EN" "http://www.w3.org/Graphics/SVG/1.1/DTD/svg11.dtd">
<svg version="1.1" xmlns="http://www.w3.org/2000/svg" xmlns:xlink="http://www.w3.org/1999/xlink" x="0px" y="0px" width="350px"
	 height="520px" viewBox="0 0 350 520" style="enable-background:new 0 0 350 520;" xml:space="preserve">
<g id="meegotouch-splitbuttongroup-layer">
</g>
<g id="theme">
	<g id="meegotouch-splitbuttongroup">
		<g id="MeegoTouchButtonGroupThemeTemplateHelper">
			<g>
				<path style="fill:#B3B3B3;" d="M16,519c-8.271,0-15-6.729-15-15V16C1,7.729,7.729,1,16,1h318c8.271,0,15,6.729,15,15v488
					c0,8.271-6.729,15-15,15H16z"/>
				<g>
					<path d="M334,2c7.72,0,14,6.28,14,14v488c0,7.72-6.28,14-14,14H16c-7.72,0-14-6.28-14-14V16C2,8.28,8.28,2,16,2H334 M334,0H16
						C7.2,0,0,7.2,0,16v488c0,8.8,7.2,16,16,16h318c8.8,0,16-7.2,16-16V16C350,7.2,342.8,0,334,0L334,0z"/>
				</g>
			</g>
			<path d="M58.147,33h-4.153V17.711h4.471c2.83,0,4.245,1.234,4.245,3.702c0,1.75-0.8,2.926-2.399,3.527
				c1.907,0.431,2.86,1.682,2.86,3.753C63.171,31.564,61.496,33,58.147,33z M56.198,24.325h1.59c0.916,0,1.59-0.219,2.02-0.656
				c0.432-0.438,0.646-1.121,0.646-2.051c0-1.613-0.783-2.42-2.348-2.42h-1.908V24.325z M56.198,31.514h1.846
				c0.998,0,1.72-0.225,2.164-0.672s0.666-1.185,0.666-2.21c0-1.887-0.957-2.83-2.871-2.83h-1.805V31.514z"/>
			<path d="M69.026,33.164c-1.217,0-2.128-0.316-2.732-0.948c-0.605-0.632-0.908-1.581-0.908-2.846v-8.296h2.185v7.916
				c0,0.896,0.157,1.568,0.472,2.016s0.789,0.672,1.426,0.672c0.792,0,1.406-0.301,1.84-0.902c0.435-0.602,0.651-1.385,0.651-2.349
				v-7.353h2.185V33h-1.211l-0.44-1.764C71.733,32.521,70.578,33.164,69.026,33.164z"/>
			<path d="M80.173,33.164c-0.93,0-1.61-0.217-2.04-0.651c-0.432-0.434-0.646-1.126-0.646-2.076V22.5h-1.568v-0.82l3.188-3.25h0.563
				v2.645h2.902V22.5H79.67v7.578c0,0.648,0.106,1.078,0.318,1.286c0.212,0.209,0.533,0.313,0.964,0.313
				c0.444,0,1.046-0.1,1.805-0.298v1.415C81.841,33.041,80.979,33.164,80.173,33.164z"/>
			<path d="M87.463,33.164c-0.93,0-1.61-0.217-2.04-0.651c-0.432-0.434-0.646-1.126-0.646-2.076V22.5h-1.568v-0.82l3.188-3.25h0.563
				v2.645h2.902V22.5H86.96v7.578c0,0.648,0.106,1.078,0.318,1.286c0.212,0.209,0.533,0.313,0.964,0.313
				c0.444,0,1.046-0.1,1.805-0.298v1.415C89.131,33.041,88.27,33.164,87.463,33.164z"/>
			<path d="M95.85,33.164c-1.606,0-2.809-0.526-3.609-1.579c-0.799-1.053-1.199-2.632-1.199-4.737c0-1.832,0.415-3.281,1.246-4.348
				c0.83-1.066,2.018-1.6,3.562-1.6c1.559,0,2.75,0.526,3.574,1.579c0.823,1.053,1.235,2.522,1.235,4.409
				c0,1.941-0.385,3.473-1.153,4.594C98.736,32.604,97.518,33.164,95.85,33.164z M95.85,31.76c0.842,0,1.476-0.381,1.902-1.144
				c0.428-0.763,0.641-2.039,0.641-3.83c0-1.265-0.219-2.325-0.656-3.184s-1.066-1.287-1.887-1.287
				c-0.834,0-1.466,0.386-1.896,1.159c-0.431,0.771-0.646,1.876-0.646,3.312c0,1.613,0.216,2.846,0.646,3.696
				C94.384,31.334,95.016,31.76,95.85,31.76z"/>
			<path d="M111.889,33h-2.185v-7.916c0-0.896-0.157-1.566-0.472-2.015s-0.786-0.672-1.415-0.672c-0.793,0-1.408,0.301-1.846,0.902
				s-0.656,1.384-0.656,2.349V33h-2.185V21.074h1.221l0.441,1.764c0.758-1.291,1.913-1.938,3.465-1.938
				c1.211,0,2.118,0.318,2.723,0.953c0.605,0.637,0.908,1.586,0.908,2.852V33z"/>
			<path d="M126.674,22.521l0.461-1.446h1.221v11.361c0,1.285-0.398,2.282-1.195,2.989c-0.796,0.708-1.889,1.062-3.275,1.062
				c-1.136,0-2.424-0.182-3.866-0.543v-1.539c1.504,0.363,2.707,0.544,3.609,0.544c0.786,0,1.362-0.146,1.728-0.436
				c0.366-0.291,0.593-0.671,0.682-1.139s0.134-1.133,0.134-1.994v-0.308c-0.581,0.834-1.511,1.251-2.789,1.251
				c-1.36,0-2.381-0.47-3.061-1.41c-0.681-0.939-1.021-2.35-1.021-4.229c0-1.798,0.376-3.211,1.128-4.24
				c0.752-1.028,1.839-1.543,3.261-1.543C125.057,20.9,126.051,21.44,126.674,22.521z M123.885,30.836
				c0.758,0,1.336-0.271,1.732-0.814c0.396-0.544,0.595-1.715,0.595-3.512c0-1.381-0.187-2.418-0.559-3.112
				c-0.373-0.694-0.929-1.041-1.667-1.041c-0.786,0-1.386,0.298-1.799,0.892c-0.414,0.596-0.621,1.682-0.621,3.262
				c0,1.441,0.193,2.523,0.58,3.245C122.532,30.477,123.111,30.836,123.885,30.836z"/>
			<path d="M132.549,21.074l0.502,1.99c0.663-1.402,1.818-2.103,3.467-2.103c0.218,0,0.379,0.011,0.481,0.03v1.99
				c-0.171-0.014-0.428-0.021-0.769-0.021c-0.938,0-1.624,0.225-2.062,0.672c-0.438,0.448-0.656,1.146-0.656,2.098V33h-2.185V21.074
				H132.549z"/>
			<path d="M142.834,33.164c-1.606,0-2.809-0.526-3.609-1.579c-0.799-1.053-1.199-2.632-1.199-4.737
				c0-1.832,0.415-3.281,1.246-4.348c0.83-1.066,2.018-1.6,3.562-1.6c1.559,0,2.75,0.526,3.574,1.579
				c0.823,1.053,1.235,2.522,1.235,4.409c0,1.941-0.385,3.473-1.153,4.594C145.721,32.604,144.502,33.164,142.834,33.164z
				 M142.834,31.76c0.842,0,1.476-0.381,1.902-1.144c0.428-0.763,0.641-2.039,0.641-3.83c0-1.265-0.219-2.325-0.656-3.184
				s-1.066-1.287-1.887-1.287c-0.834,0-1.466,0.386-1.896,1.159c-0.431,0.771-0.646,1.876-0.646,3.312
				c0,1.613,0.216,2.846,0.646,3.696C141.368,31.334,142,31.76,142.834,31.76z"/>
			<path d="M153.713,33.164c-1.217,0-2.128-0.316-2.732-0.948c-0.605-0.632-0.908-1.581-0.908-2.846v-8.296h2.185v7.916
				c0,0.896,0.157,1.568,0.472,2.016s0.789,0.672,1.426,0.672c0.792,0,1.406-0.301,1.84-0.902c0.435-0.602,0.651-1.385,0.651-2.349
				v-7.353h2.185V33h-1.211l-0.44-1.764C156.42,32.521,155.265,33.164,153.713,33.164z"/>
			<path d="M163.034,21.074l0.441,1.703c0.43-0.637,0.908-1.107,1.436-1.416c0.525-0.307,1.195-0.461,2.01-0.461
				c1.318,0,2.31,0.497,2.973,1.492c0.663,0.994,0.995,2.486,0.995,4.476c0,1.969-0.453,3.503-1.358,4.604
				c-0.906,1.1-2.21,1.65-3.912,1.65c-0.451,0-0.991-0.075-1.62-0.226v3.527h-2.185V21.074H163.034z M163.998,26.406v4.933
				c0.526,0.198,1.08,0.298,1.661,0.298c0.984,0,1.725-0.342,2.22-1.025c0.496-0.684,0.743-1.966,0.743-3.846
				c0-1.456-0.184-2.548-0.553-3.276c-0.369-0.728-0.92-1.092-1.651-1.092c-0.793,0-1.395,0.306-1.805,0.918
				S163.998,24.957,163.998,26.406z"/>
			<path d="M182.516,16.768h1.928l-5.496,19.657h-1.938L182.516,16.768z"/>
			<path d="M193.52,33.164c-1.025,0-2.048-0.141-3.066-0.42v-1.59c1.121,0.321,2.123,0.482,3.004,0.482
				c0.943,0,1.69-0.213,2.241-0.637c0.55-0.424,0.825-1.031,0.825-1.824c0-0.506-0.107-0.936-0.323-1.287
				c-0.215-0.352-0.494-0.651-0.835-0.897c-0.343-0.246-0.838-0.558-1.487-0.933c-0.772-0.445-1.383-0.84-1.83-1.185
				c-0.448-0.345-0.822-0.786-1.123-1.323c-0.301-0.536-0.451-1.188-0.451-1.953c0-1.299,0.433-2.299,1.297-2.999
				c0.865-0.7,2.042-1.052,3.532-1.052c0.978,0,1.894,0.104,2.748,0.309v1.537c-0.957-0.211-1.824-0.317-2.604-0.317
				c-0.814,0-1.476,0.196-1.984,0.59c-0.51,0.394-0.764,0.938-0.764,1.636c0,0.451,0.135,0.881,0.404,1.291
				c0.271,0.41,1.003,0.965,2.199,1.662c0.779,0.451,1.394,0.848,1.841,1.189c0.448,0.342,0.827,0.779,1.139,1.312
				c0.311,0.533,0.466,1.172,0.466,1.917C198.748,31.667,197.006,33.164,193.52,33.164z"/>
			<path d="M202.081,21.074l0.441,1.703c0.43-0.637,0.908-1.107,1.436-1.416c0.525-0.307,1.195-0.461,2.01-0.461
				c1.318,0,2.31,0.497,2.973,1.492c0.663,0.994,0.995,2.486,0.995,4.476c0,1.969-0.453,3.503-1.358,4.604
				c-0.906,1.1-2.21,1.65-3.912,1.65c-0.451,0-0.991-0.075-1.62-0.226v3.527h-2.185V21.074H202.081z M203.045,26.406v4.933
				c0.526,0.198,1.08,0.298,1.661,0.298c0.984,0,1.725-0.342,2.22-1.025c0.496-0.684,0.743-1.966,0.743-3.846
				c0-1.456-0.184-2.548-0.553-3.276c-0.369-0.728-0.92-1.092-1.651-1.092c-0.793,0-1.395,0.306-1.805,0.918
				S203.045,24.957,203.045,26.406z"/>
			<path d="M212.406,33V16.768h2.185V33H212.406z"/>
			<path d="M220.076,33h-2.184V22.5h-1.363v-1.426h3.547V33z M218.99,16.891c0.334,0,0.623,0.123,0.866,0.369
				c0.242,0.246,0.364,0.537,0.364,0.872c0,0.342-0.12,0.634-0.359,0.877s-0.53,0.364-0.871,0.364c-0.35,0-0.644-0.121-0.883-0.364
				s-0.358-0.535-0.358-0.877c0-0.349,0.119-0.643,0.358-0.882S218.641,16.891,218.99,16.891z"/>
			<path d="M226.229,33.164c-0.93,0-1.61-0.217-2.04-0.651c-0.432-0.434-0.646-1.126-0.646-2.076V22.5h-1.568v-0.82l3.188-3.25
				h0.563v2.645h2.902V22.5h-2.902v7.578c0,0.648,0.106,1.078,0.318,1.286c0.212,0.209,0.533,0.313,0.964,0.313
				c0.444,0,1.046-0.1,1.805-0.298v1.415C227.897,33.041,227.036,33.164,226.229,33.164z"/>
			<path d="M237.632,16.768v5.414c0.779-0.854,1.746-1.281,2.901-1.281c1.334,0,2.335,0.492,3.005,1.477s1.005,2.461,1.005,4.43
				s-0.451,3.51-1.354,4.625c-0.902,1.113-2.143,1.671-3.723,1.671c-1.552,0-2.891-0.068-4.02-0.205v-16.13H237.632z
				 M237.632,26.991v4.522c0.636,0.082,1.203,0.123,1.702,0.123c1.005,0,1.746-0.367,2.225-1.103s0.719-1.998,0.719-3.789
				c0-1.449-0.188-2.536-0.564-3.261s-0.937-1.087-1.682-1.087c-0.725,0-1.262,0.219-1.609,0.656
				c-0.35,0.438-0.568,0.969-0.656,1.595C237.676,25.273,237.632,26.055,237.632,26.991z"/>
			<path d="M250.613,33.164c-1.217,0-2.128-0.316-2.732-0.948c-0.605-0.632-0.908-1.581-0.908-2.846v-8.296h2.185v7.916
				c0,0.896,0.157,1.568,0.472,2.016s0.789,0.672,1.426,0.672c0.792,0,1.406-0.301,1.84-0.902c0.435-0.602,0.651-1.385,0.651-2.349
				v-7.353h2.185V33h-1.211l-0.44-1.764C253.32,32.521,252.165,33.164,250.613,33.164z"/>
			<path d="M261.759,33.164c-0.93,0-1.61-0.217-2.04-0.651c-0.432-0.434-0.646-1.126-0.646-2.076V22.5h-1.568v-0.82l3.188-3.25
				h0.563v2.645h2.902V22.5h-2.902v7.578c0,0.648,0.106,1.078,0.318,1.286c0.212,0.209,0.533,0.313,0.964,0.313
				c0.444,0,1.046-0.1,1.805-0.298v1.415C263.427,33.041,262.565,33.164,261.759,33.164z"/>
			<path d="M269.05,33.164c-0.93,0-1.61-0.217-2.04-0.651c-0.432-0.434-0.646-1.126-0.646-2.076V22.5h-1.568v-0.82l3.188-3.25h0.563
				v2.645h2.902V22.5h-2.902v7.578c0,0.648,0.106,1.078,0.318,1.286c0.212,0.209,0.533,0.313,0.964,0.313
				c0.444,0,1.046-0.1,1.805-0.298v1.415C270.718,33.041,269.856,33.164,269.05,33.164z"/>
			<path d="M277.437,33.164c-1.606,0-2.809-0.526-3.609-1.579c-0.799-1.053-1.199-2.632-1.199-4.737
				c0-1.832,0.415-3.281,1.246-4.348c0.83-1.066,2.018-1.6,3.562-1.6c1.559,0,2.75,0.526,3.574,1.579
				c0.823,1.053,1.235,2.522,1.235,4.409c0,1.941-0.385,3.473-1.153,4.594C280.323,32.604,279.104,33.164,277.437,33.164z
				 M277.437,31.76c0.842,0,1.476-0.381,1.902-1.144c0.428-0.763,0.641-2.039,0.641-3.83c0-1.265-0.219-2.325-0.656-3.184
				s-1.066-1.287-1.887-1.287c-0.834,0-1.466,0.386-1.896,1.159c-0.431,0.771-0.646,1.876-0.646,3.312
				c0,1.613,0.216,2.846,0.646,3.696C275.971,31.334,276.603,31.76,277.437,31.76z"/>
			<path d="M293.475,33h-2.185v-7.916c0-0.896-0.157-1.566-0.472-2.015s-0.786-0.672-1.415-0.672c-0.793,0-1.408,0.301-1.846,0.902
				s-0.656,1.384-0.656,2.349V33h-2.185V21.074h1.221l0.441,1.764c0.758-1.291,1.913-1.938,3.465-1.938
				c1.211,0,2.118,0.318,2.723,0.953c0.605,0.637,0.908,1.586,0.908,2.852V33z"/>
			<path d="M298.713,33.164c-0.896,0-1.917-0.133-3.065-0.4v-1.568c1.23,0.335,2.201,0.502,2.912,0.502
				c0.731,0,1.282-0.151,1.651-0.456c0.369-0.304,0.553-0.761,0.553-1.368c0-0.355-0.116-0.689-0.348-1
				c-0.233-0.311-0.814-0.692-1.744-1.144c-0.594-0.287-1.076-0.559-1.445-0.815c-0.369-0.256-0.684-0.602-0.943-1.035
				s-0.39-0.973-0.39-1.615c0-1.032,0.367-1.851,1.103-2.456c0.734-0.604,1.676-0.907,2.824-0.907c1.006,0,1.914,0.127,2.729,0.379
				v1.498c-0.855-0.295-1.686-0.441-2.492-0.441c-0.67,0-1.171,0.144-1.502,0.431c-0.332,0.287-0.498,0.718-0.498,1.292
				c0,0.301,0.106,0.583,0.318,0.846c0.212,0.264,0.741,0.597,1.59,1c0.615,0.287,1.124,0.566,1.527,0.836s0.743,0.636,1.021,1.097
				c0.276,0.462,0.415,1.041,0.415,1.738c0,1.176-0.364,2.067-1.092,2.677C301.107,32.859,300.066,33.164,298.713,33.164z"/>
		</g>
		<g id="meegotouch-buttongroup-background-selected-horizontal-right">
			<path style="fill:#808080;" d="M178,440h54c5.5,0,10,4.5,10,10v42c0,5.5-4.5,10-10,10h-54V440z"/>
			<path style="fill:#FFFFFF;" d="M178,438h54c5.5,0,10,4.5,10,10v42c0,5.5-4.5,10-10,10h-54V438z"/>
			
				<linearGradient id="SVGID_1_" gradientUnits="userSpaceOnUse" x1="-579.0005" y1="438.999" x2="-579.0005" y2="500.999" gradientTransform="matrix(-1 0 0 1 -369 0)">
				<stop  offset="0" style="stop-color:#29ABE2"/>
				<stop  offset="1" style="stop-color:#7DD8FF"/>
			</linearGradient>
			<path style="fill:url(#SVGID_1_);" d="M178,439h54c5.5,0,10,4.5,10,10v42c0,5.5-4.5,10-10,10h-54V439z"/>
			<rect x="178" y="439" style="fill:#FFFFFF;fill-opacity:0.2;" width="1" height="62"/>
		</g>
		<g id="meegotouch-buttongroup-background-pressed-horizontal-right">
			<path style="fill:#333333;" d="M178,426h54c5.5,0,10-4.5,10-10v-42c0-5.5-4.5-10-10-10h-54V426z"/>
			<path style="fill:#FFFFFF;" d="M178,428h54c5.5,0,10-4.5,10-10v-42c0-5.5-4.5-10-10-10h-54V428z"/>
			
				<linearGradient id="SVGID_2_" gradientUnits="userSpaceOnUse" x1="-579.0005" y1="364.999" x2="-579.0005" y2="426.999" gradientTransform="matrix(-1 0 0 1 -369 0)">
				<stop  offset="0" style="stop-color:#4D4D4D"/>
				<stop  offset="1" style="stop-color:#B3B3B3"/>
			</linearGradient>
			<path style="fill:url(#SVGID_2_);" d="M178,365h54c5.5,0,10,4.5,10,10v42c0,5.5-4.5,10-10,10h-54V365z"/>
		</g>
		<g id="meegotouch-buttongroup-background-horizontal-right">
			<path style="fill:#808080;" d="M178,292h54c5.5,0,10,4.5,10,10v42c0,5.5-4.5,10-10,10h-54V292z"/>
			<path style="fill:#FFFFFF;" d="M178,290h54c5.5,0,10,4.5,10,10v42c0,5.5-4.5,10-10,10h-54V290z"/>
			
				<linearGradient id="SVGID_3_" gradientUnits="userSpaceOnUse" x1="-579.0005" y1="290.999" x2="-579.0005" y2="352.999" gradientTransform="matrix(-1 0 0 1 -369 0)">
				<stop  offset="0" style="stop-color:#F2F2F2"/>
				<stop  offset="1" style="stop-color:#D2D2D2"/>
			</linearGradient>
			<path style="fill:url(#SVGID_3_);" d="M178,291h54c5.5,0,10,4.5,10,10v42c0,5.5-4.5,10-10,10h-54V291z"/>
			<rect x="178" y="291" style="fill:#FFFFFF;" width="1" height="62"/>
		</g>
		<g id="meegotouch-buttongroup-background-selected-horizontal-center">
			<rect x="104" y="440" style="fill:#808080;" width="64" height="62"/>
			<rect x="104" y="438" style="fill:#FFFFFF;" width="64" height="62"/>
			<linearGradient id="SVGID_4_" gradientUnits="userSpaceOnUse" x1="136" y1="439" x2="136" y2="501">
				<stop  offset="0" style="stop-color:#29ABE2"/>
				<stop  offset="1" style="stop-color:#7DD8FF"/>
			</linearGradient>
			<rect x="104" y="439" style="fill:url(#SVGID_4_);" width="64" height="62"/>
			<rect x="166.958" y="439" style="opacity:0.2;" width="1.042" height="62"/>
			<rect x="104" y="439" style="fill:#FFFFFF;fill-opacity:0.2;" width="1.042" height="62"/>
		</g>
		<g id="meegotouch-buttongroup-background-pressed-horizontal-center">
			<rect x="104" y="364" style="fill:#333333;" width="64" height="62"/>
			<rect x="104" y="366" style="fill:#FFFFFF;" width="64" height="62"/>
			<linearGradient id="SVGID_5_" gradientUnits="userSpaceOnUse" x1="136" y1="365" x2="136" y2="427">
				<stop  offset="0" style="stop-color:#4D4D4D"/>
				<stop  offset="1" style="stop-color:#B3B3B3"/>
			</linearGradient>
			<rect x="104" y="365" style="fill:url(#SVGID_5_);" width="64" height="62"/>
		</g>
		<g id="meegotouch-buttongroup-background-horizontal-center">
			<rect x="104" y="292" style="fill:#808080;" width="64" height="62"/>
			<rect x="104" y="290" style="fill:#FFFFFF;" width="64" height="62"/>
			<linearGradient id="SVGID_6_" gradientUnits="userSpaceOnUse" x1="136" y1="291" x2="136" y2="353">
				<stop  offset="0" style="stop-color:#F2F2F2"/>
				<stop  offset="1" style="stop-color:#D2D2D2"/>
			</linearGradient>
			<rect x="104" y="291" style="fill:url(#SVGID_6_);" width="64" height="62"/>
			<rect x="166.958" y="291" style="opacity:0.2;" width="1.042" height="62"/>
			<rect x="104" y="291" style="fill:#FFFFFF;" width="1.042" height="62"/>
		</g>
		<g id="meegotouch-buttongroup-background-selected-horizontal-left">
			<path style="fill:#808080;" d="M94,440H40c-5.5,0-10,4.5-10,10v42c0,5.5,4.5,10,10,10h54V440z"/>
			<path style="fill:#FFFFFF;" d="M94,438H40c-5.5,0-10,4.5-10,10v42c0,5.5,4.5,10,10,10h54V438z"/>
			<linearGradient id="SVGID_7_" gradientUnits="userSpaceOnUse" x1="62" y1="501" x2="62" y2="439">
				<stop  offset="0" style="stop-color:#7DD8FF"/>
				<stop  offset="1" style="stop-color:#29ABE2"/>
			</linearGradient>
			<path style="fill:url(#SVGID_7_);" d="M94,439H40c-5.5,0-10,4.5-10,10v42c0,5.5,4.5,10,10,10h54V439z"/>
			<rect x="93" y="439" style="opacity:0.2;" width="1" height="62"/>
		</g>
		<g id="meegotouch-buttongroup-background-pressed-horizontal-left">
			<path style="fill:#333333;" d="M94,426H40c-5.5,0-10-4.5-10-10v-42c0-5.5,4.5-10,10-10h54V426z"/>
			<path style="fill:#FFFFFF;" d="M94,428H40c-5.5,0-10-4.5-10-10v-42c0-5.5,4.5-10,10-10h54V428z"/>
			<linearGradient id="SVGID_8_" gradientUnits="userSpaceOnUse" x1="62" y1="365" x2="62" y2="427">
				<stop  offset="0" style="stop-color:#4D4D4D"/>
				<stop  offset="1" style="stop-color:#B3B3B3"/>
			</linearGradient>
			<path style="fill:url(#SVGID_8_);" d="M94,365H40c-5.5,0-10,4.5-10,10v42c0,5.5,4.5,10,10,10h54V365z"/>
		</g>
		<g id="meegotouch-buttongroup-background-horizontal-left">
			<path style="fill:#808080;" d="M94,292H40c-5.5,0-10,4.5-10,10v42c0,5.5,4.5,10,10,10h54V292z"/>
			<path style="fill:#FFFFFF;" d="M94,290H40c-5.5,0-10,4.5-10,10v42c0,5.5,4.5,10,10,10h54V290z"/>
			<linearGradient id="SVGID_9_" gradientUnits="userSpaceOnUse" x1="62" y1="291" x2="62" y2="353">
				<stop  offset="0" style="stop-color:#F2F2F2"/>
				<stop  offset="1" style="stop-color:#D2D2D2"/>
			</linearGradient>
			<path style="fill:url(#SVGID_9_);" d="M94,291H40c-5.5,0-10,4.5-10,10v42c0,5.5,4.5,10,10,10h54V291z"/>
			<rect x="93" y="291" style="opacity:0.2;" width="1" height="62"/>
		</g>
		<g id="meegotouch-buttongroup-background-selected-vertical-bottom">
			<path style="fill:#808080;" d="M178,208v54c0,5.5,4.5,10,10,10h44c5.5,0,10-4.5,10-10v-54H178z"/>
			<linearGradient id="SVGID_10_" gradientUnits="userSpaceOnUse" x1="210" y1="271" x2="210" y2="208.0005">
				<stop  offset="0" style="stop-color:#7DD8FF"/>
				<stop  offset="1" style="stop-color:#29ABE2"/>
			</linearGradient>
			<path style="fill:url(#SVGID_10_);" d="M178,208v53c0,5.5,4.5,10,10,10h44c5.5,0,10-4.5,10-10v-53H178z"/>
			<rect x="178" y="208" style="opacity:0.2;fill:#FFFFFF;" width="64" height="1"/>
		</g>
		<g id="meegotouch-buttongroup-background-pressed-vertical-bottom">
			<path style="fill:#808080;" d="M104,208v54c0,5.5,4.5,10,10,10h44c5.5,0,10-4.5,10-10v-54H104z"/>
			<linearGradient id="SVGID_11_" gradientUnits="userSpaceOnUse" x1="136" y1="208" x2="136" y2="271.0005">
				<stop  offset="0" style="stop-color:#4D4D4D"/>
				<stop  offset="1" style="stop-color:#B3B3B3"/>
			</linearGradient>
			<path style="fill:url(#SVGID_11_);" d="M104,208v53c0,5.5,4.5,10,10,10h44c5.5,0,10-4.5,10-10v-53H104z"/>
		</g>
		<g id="meegotouch-buttongroup-background-vertical-bottom">
			<path style="fill:#808080;" d="M30,208v54c0,5.5,4.5,10,10,10h44c5.5,0,10-4.5,10-10v-54H30z"/>
			<linearGradient id="SVGID_12_" gradientUnits="userSpaceOnUse" x1="62" y1="208" x2="62" y2="271.0005">
				<stop  offset="0" style="stop-color:#E1E1E1"/>
				<stop  offset="1" style="stop-color:#D2D2D2"/>
			</linearGradient>
			<path style="fill:url(#SVGID_12_);" d="M30,208v53c0,5.5,4.5,10,10,10h44c5.5,0,10-4.5,10-10v-53H30z"/>
			<rect x="30" y="208" style="fill:#FFFFFF;" width="64" height="1"/>
		</g>
		<g id="meegotouch-buttongroup-background-selected-vertical-center">
			<linearGradient id="SVGID_13_" gradientUnits="userSpaceOnUse" x1="210" y1="198" x2="210" y2="134">
				<stop  offset="0" style="stop-color:#7DD8FF"/>
				<stop  offset="1" style="stop-color:#29ABE2"/>
			</linearGradient>
			<rect x="178" y="134" style="fill:url(#SVGID_13_);" width="64" height="64"/>
			<rect x="178" y="197" style="opacity:0.2;" width="64" height="1"/>
			<rect x="178" y="134" style="opacity:0.2;fill:#FFFFFF;" width="64" height="1"/>
		</g>
		<g id="meegotouch-buttongroup-background-pressed-vertical-center">
			<linearGradient id="SVGID_14_" gradientUnits="userSpaceOnUse" x1="136" y1="134" x2="136" y2="198">
				<stop  offset="0" style="stop-color:#4D4D4D"/>
				<stop  offset="1" style="stop-color:#B3B3B3"/>
			</linearGradient>
			<rect x="104" y="134" style="fill:url(#SVGID_14_);" width="64" height="64"/>
			<rect x="104" y="134" style="opacity:0.2;" width="64" height="1"/>
		</g>
		<g id="meegotouch-buttongroup-background-vertical-center">
			<rect x="30" y="134" style="fill:#E1E1E1;" width="64" height="64"/>
			<rect x="30" y="197" style="opacity:0.2;" width="64" height="1"/>
			<rect x="30" y="134" style="fill:#FFFFFF;" width="64" height="1"/>
		</g>
		<g id="meegotouch-buttongroup-background-selected-vertical-top">
			<path style="fill:#808080;" d="M242,124V70c0-5.5-4.5-10-10-10h-44c-5.5,0-10,4.5-10,10v54H242z"/>
			
				<linearGradient id="SVGID_15_" gradientUnits="userSpaceOnUse" x1="-660.0005" y1="487" x2="-660.0005" y2="424" gradientTransform="matrix(-1 0 0 -1 -450 548)">
				<stop  offset="0" style="stop-color:#29ABE2"/>
				<stop  offset="1" style="stop-color:#7DD8FF"/>
			</linearGradient>
			<path style="fill:url(#SVGID_15_);" d="M242,124V71c0-5.5-4.5-10-10-10h-44c-5.5,0-10,4.5-10,10v53H242z"/>
			<rect x="178" y="123" style="opacity:0.2;" width="64" height="1"/>
		</g>
		<g id="meegotouch-buttongroup-background-pressed-vertical-top">
			<path style="fill:#333333;" d="M168,124V70c0-5.5-4.5-10-10-10h-44c-5.5,0-10,4.5-10,10v54H168z"/>
			
				<linearGradient id="SVGID_16_" gradientUnits="userSpaceOnUse" x1="-586" y1="424" x2="-586" y2="487" gradientTransform="matrix(-1 0 0 -1 -450 548)">
				<stop  offset="0" style="stop-color:#B3B3B3"/>
				<stop  offset="1" style="stop-color:#4D4D4D"/>
			</linearGradient>
			<path style="fill:url(#SVGID_16_);" d="M168,124V71c0-5.5-4.5-10-10-10h-44c-5.5,0-10,4.5-10,10v53H168z"/>
		</g>
		<g id="meegotouch-buttongroup-background-vertical-top">
			<path style="fill:#FFFFFF;" d="M94,124V70c0-5.5-4.5-10-10-10H40c-5.5,0-10,4.5-10,10v54H94z"/>
			
				<linearGradient id="SVGID_17_" gradientUnits="userSpaceOnUse" x1="-512" y1="424" x2="-512" y2="487" gradientTransform="matrix(-1 0 0 -1 -450 548)">
				<stop  offset="0" style="stop-color:#E1E1E1"/>
				<stop  offset="1" style="stop-color:#F2F2F2"/>
			</linearGradient>
			<path style="fill:url(#SVGID_17_);" d="M94,124V71c0-5.5-4.5-10-10-10H40c-5.5,0-10,4.5-10,10v53H94z"/>
			<rect x="30" y="123" style="opacity:0.2;" width="64" height="1"/>
		</g>
	</g>
</g>
</svg>
