<?xml version="1.0" encoding="iso-8859-1"?>
<!-- Generator: Adobe Illustrator 14.0.0, SVG Export Plug-In . SVG Version: 6.00 Build 43363)  -->
<!DOCTYPE svg PUBLIC "-//W3C//DTD SVG 1.1//EN" "http://www.w3.org/Graphics/SVG/1.1/DTD/svg11.dtd">
<svg version="1.1" id="meegotouch-pin-layer" xmlns="http://www.w3.org/2000/svg" xmlns:xlink="http://www.w3.org/1999/xlink"
	 x="0px" y="0px" width="550px" height="390px" viewBox="0 0 550 390" style="enable-background:new 0 0 550 390;"
	 xml:space="preserve">
<g id="meegotouch-pin">
	<g id="numberinputfieldThemeTemplateHelper">
		<g id="numfieldhelperBackground">
			<g>
				<path style="fill:#B3B3B3;" d="M16,389c-8.271,0-15-6.729-15-15V16C1,7.729,7.729,1,16,1h518c8.271,0,15,6.729,15,15v358
					c0,8.271-6.729,15-15,15H16z"/>
				<g>
					<path d="M534,2c7.72,0,14,6.28,14,14v358c0,7.72-6.28,14-14,14H16c-7.721,0-14-6.28-14-14V16C2,8.28,8.279,2,16,2H534 M534,0
						H16C7.2,0,0,7.2,0,16v358c0,8.8,7.2,16,16,16h518c8.8,0,16-7.2,16-16V16C550,7.2,542.8,0,534,0L534,0z"/>
				</g>
			</g>
		</g>
		<g>
			<path d="M63.385,49.191L54.99,34.018v15.176h-2.83V28.809h2.406l8.176,14.752V28.809h2.83v20.385h-2.188V49.191z"/>
			<path d="M74.5,49.411c-1.623,0-2.837-0.422-3.645-1.265c-0.807-0.844-1.209-2.107-1.209-3.795v-11.06h2.912v10.556
				c0,1.193,0.209,2.09,0.629,2.687c0.418,0.597,1.053,0.896,1.899,0.896c1.058,0,1.875-0.4,2.454-1.203
				c0.579-0.802,0.868-1.846,0.868-3.131v-9.803h2.911v15.9h-1.612l-0.588-2.353C78.109,48.555,76.568,49.411,74.5,49.411z"/>
			<path d="M105.18,49.191h-2.912v-10.95c0-1.058-0.197-1.853-0.595-2.386s-0.991-0.801-1.784-0.801
				c-1.021,0-1.807,0.401-2.357,1.203c-0.553,0.803-0.827,1.846-0.827,3.131v9.803h-2.912v-10.95c0-1.058-0.203-1.853-0.608-2.386
				c-0.406-0.533-1.014-0.801-1.824-0.801c-1.004,0-1.777,0.405-2.324,1.217c-0.547,0.812-0.82,1.852-0.82,3.117v9.803h-2.912
				V33.292h1.627l0.588,2.353c0.976-1.724,2.461-2.584,4.457-2.584c1.058,0,1.936,0.199,2.633,0.602s1.209,1.003,1.537,1.805
				c0.902-1.604,2.348-2.406,4.334-2.406c1.567,0,2.744,0.424,3.527,1.271c0.784,0.848,1.176,2.113,1.176,3.801v11.059H105.18z"/>
			<path d="M112.016,27.55v7.22c1.039-1.141,2.33-1.709,3.869-1.709c1.777,0,3.112,0.655,4.006,1.969
				c0.894,1.312,1.34,3.281,1.34,5.906s-0.602,4.681-1.805,6.166c-1.203,1.484-2.857,2.229-4.963,2.229
				c-2.068,0-3.855-0.091-5.359-0.273V27.55H112.016z M112.016,41.182v6.028c0.848,0.108,1.604,0.164,2.271,0.164
				c1.34,0,2.329-0.49,2.967-1.47s0.957-2.664,0.957-5.053c0-1.933-0.251-3.382-0.752-4.348s-1.249-1.449-2.242-1.449
				c-0.966,0-1.682,0.293-2.146,0.875c-0.465,0.584-0.758,1.293-0.875,2.127C112.075,38.891,112.016,39.932,112.016,41.182z"/>
			<path d="M134.943,46.759v1.982c-1.432,0.446-2.912,0.67-4.443,0.67c-2.225,0-3.889-0.67-4.99-2.011
				c-1.103-1.34-1.654-3.403-1.654-6.192c0-2.452,0.533-4.423,1.601-5.913s2.588-2.234,4.565-2.234c1.604,0,2.811,0.426,3.617,1.277
				c0.805,0.852,1.323,1.896,1.551,3.131c0.229,1.235,0.343,2.705,0.343,4.409h-8.587c0,1.851,0.328,3.238,0.984,4.163
				s1.641,1.389,2.953,1.389C131.995,47.43,133.348,47.205,134.943,46.759z M126.945,40.087h5.729c0-1.923-0.229-3.28-0.684-4.073
				c-0.456-0.794-1.112-1.189-1.969-1.189c-0.957,0-1.688,0.41-2.194,1.23C127.32,36.874,127.027,38.219,126.945,40.087z"/>
			<path d="M140.398,33.292l0.67,2.651c0.884-1.867,2.424-2.803,4.621-2.803c0.291,0,0.506,0.015,0.643,0.041v2.652
				c-0.229-0.02-0.57-0.027-1.025-0.027c-1.248,0-2.164,0.299-2.748,0.896c-0.582,0.597-0.875,1.529-0.875,2.796v9.692h-2.912
				V33.292H140.398z"/>
			<path d="M154.453,49.191v-2.051h1.682V30.857h-1.682v-2.051h6.33v2.051h-1.709v16.283h1.709v2.051H154.453z"/>
			<path d="M175.467,49.191h-2.912V38.639c0-1.195-0.209-2.091-0.629-2.688c-0.419-0.598-1.048-0.896-1.887-0.896
				c-1.059,0-1.878,0.401-2.461,1.203c-0.583,0.803-0.875,1.846-0.875,3.131v9.803h-2.912V33.292h1.627l0.588,2.353
				c1.012-1.724,2.553-2.584,4.621-2.584c1.613,0,2.823,0.424,3.63,1.271c0.808,0.847,1.21,2.114,1.21,3.801V49.191L175.467,49.191z
				"/>
			<path d="M181.018,33.292l0.588,2.271c0.574-0.849,1.213-1.478,1.914-1.888c0.703-0.409,1.596-0.614,2.681-0.614
				c1.759,0,3.081,0.662,3.965,1.988s1.326,3.315,1.326,5.969c0,2.625-0.604,4.67-1.812,6.139c-1.209,1.468-2.947,2.201-5.217,2.201
				c-0.602,0-1.322-0.102-2.16-0.301v4.702h-2.912V33.292H181.018z M182.303,40.4v6.576c0.702,0.266,1.44,0.396,2.215,0.396
				c1.312,0,2.299-0.456,2.961-1.367c0.66-0.911,0.99-2.62,0.99-5.127c0-1.941-0.246-3.396-0.738-4.368
				c-0.492-0.971-1.226-1.456-2.201-1.456c-1.057,0-1.858,0.408-2.405,1.225C182.577,37.095,182.303,38.469,182.303,40.4z"/>
			<path d="M199.584,49.411c-1.623,0-2.837-0.422-3.645-1.265c-0.807-0.844-1.209-2.107-1.209-3.795v-11.06h2.912v10.556
				c0,1.193,0.209,2.09,0.629,2.687c0.418,0.597,1.053,0.896,1.899,0.896c1.058,0,1.875-0.4,2.454-1.203
				c0.579-0.802,0.868-1.846,0.868-3.131v-9.803h2.911v15.9h-1.612l-0.588-2.353C203.193,48.555,201.652,49.411,199.584,49.411z"/>
			<path d="M214.445,49.411c-1.24,0-2.146-0.289-2.721-0.868c-0.576-0.579-0.861-1.502-0.861-2.77V35.191h-2.092v-1.094l4.252-4.334
				h0.752v3.527h3.869v1.9h-3.869v10.104c0,0.866,0.141,1.438,0.424,1.716c0.281,0.278,0.711,0.417,1.285,0.417
				c0.592,0,1.395-0.132,2.406-0.396v1.887C216.669,49.247,215.521,49.411,214.445,49.411z"/>
			<path d="M236.854,28.809v2.051h-7v6.904h5.455v2.051h-5.455v9.379h-2.938V28.809H236.854z"/>
			<path d="M242.623,49.191h-2.912v-14h-1.818v-1.899h4.73V49.191z M241.174,27.714c0.446,0,0.832,0.164,1.155,0.492
				s0.485,0.716,0.485,1.162c0,0.456-0.16,0.846-0.479,1.169c-0.319,0.322-0.707,0.484-1.162,0.484
				c-0.465,0-0.856-0.162-1.176-0.484c-0.319-0.323-0.479-0.713-0.479-1.169c0-0.466,0.159-0.856,0.479-1.177
				C240.316,27.873,240.709,27.714,241.174,27.714z"/>
			<path d="M257.184,46.759v1.982c-1.431,0.446-2.912,0.67-4.442,0.67c-2.224,0-3.888-0.67-4.99-2.011
				c-1.103-1.34-1.653-3.403-1.653-6.192c0-2.452,0.532-4.423,1.6-5.913c1.066-1.49,2.588-2.234,4.566-2.234
				c1.604,0,2.809,0.426,3.615,1.277s1.324,1.896,1.553,3.131c0.228,1.235,0.342,2.705,0.342,4.409h-8.586
				c0,1.851,0.328,3.238,0.983,4.163c0.656,0.925,1.642,1.389,2.953,1.389C254.234,47.43,255.588,47.205,257.184,46.759z
				 M249.186,40.087h5.729c0-1.923-0.228-3.28-0.685-4.073c-0.455-0.794-1.111-1.189-1.969-1.189c-0.957,0-1.688,0.41-2.193,1.23
				C249.562,36.874,249.268,38.219,249.186,40.087z"/>
			<path d="M261.012,49.191V27.55h2.912v21.644h-2.912V49.191z"/>
			<path d="M277.842,49.191l-0.615-1.955c-0.838,1.449-2.273,2.175-4.307,2.175c-1.887,0-3.307-0.668-4.259-2.003
				c-0.953-1.335-1.429-3.42-1.429-6.256c0-2.379,0.508-4.321,1.523-5.83c1.016-1.51,2.458-2.264,4.327-2.264
				c1.531,0,2.681,0.461,3.444,1.381v-6.89h2.912v21.644h-1.598V49.191z M276.625,41.945l-0.014-0.901
				c0-2.37-0.268-3.97-0.801-4.799s-1.291-1.244-2.275-1.244c-1.094,0-1.914,0.506-2.461,1.519c-0.547,1.012-0.82,2.528-0.82,4.553
				c0,2.123,0.264,3.714,0.793,4.771c0.528,1.058,1.321,1.587,2.379,1.587c1.03,0,1.82-0.384,2.372-1.148
				C276.35,45.516,276.625,44.07,276.625,41.945z"/>
		</g>
	</g>
	<g id="meegotouch-pin-delete-button-pressed">
		<rect x="210" y="220.615" style="fill:none;" width="100" height="98"/>
		<g>
			<path style="fill:#FFFFFF;" d="M292,291.615c0,5.5-4.5,10-10,10h-44c-5.5,0-10-4.5-10-10v-42c0-5.5,4.5-10,10-10h44
				c5.5,0,10,4.5,10,10V291.615z"/>
		</g>
		<g>
			<path style="fill:#333333;" d="M292,289.615c0,5.5-4.5,10-10,10h-44c-5.5,0-10-4.5-10-10v-42c0-5.5,4.5-10,10-10h44
				c5.5,0,10,4.5,10,10V289.615z"/>
		</g>
		<g>
			<linearGradient id="SVGID_1_" gradientUnits="userSpaceOnUse" x1="260.0005" y1="300.6152" x2="260.0005" y2="238.6152">
				<stop  offset="0" style="stop-color:#B3B3B3"/>
				<stop  offset="1" style="stop-color:#4D4D4D"/>
			</linearGradient>
			<path style="fill:url(#SVGID_1_);" d="M292,290.615c0,5.5-4.5,10-10,10h-44c-5.5,0-10-4.5-10-10v-42c0-5.5,4.5-10,10-10h44
				c5.5,0,10,4.5,10,10V290.615z"/>
		</g>
	</g>
	<g id="meegotouch-pin-delete-button">
		<rect x="210" y="100.615" style="fill:none;" width="100" height="100"/>
		<g>
			<path style="fill:#808080;" d="M292,172.615c0,5.5-4.5,10-10,10h-44c-5.5,0-10-4.5-10-10v-42c0-5.5,4.5-10,10-10h44
				c5.5,0,10,4.5,10,10V172.615z"/>
		</g>
		<g>
			<path style="fill:#FFFFFF;" d="M292,170.615c0,5.5-4.5,10-10,10h-44c-5.5,0-10-4.5-10-10v-42c0-5.5,4.5-10,10-10h44
				c5.5,0,10,4.5,10,10V170.615z"/>
		</g>
		<g>
			<linearGradient id="SVGID_2_" gradientUnits="userSpaceOnUse" x1="260.0005" y1="181.6152" x2="260.0005" y2="119.6152">
				<stop  offset="0" style="stop-color:#D2D2D2"/>
				<stop  offset="1" style="stop-color:#F2F2F2"/>
			</linearGradient>
			<path style="fill:url(#SVGID_2_);" d="M292,171.615c0,5.5-4.5,10-10,10h-44c-5.5,0-10-4.5-10-10v-42c0-5.5,4.5-10,10-10h44
				c5.5,0,10,4.5,10,10V171.615z"/>
		</g>
	</g>
	<g id="meegotouch-pin-input-field-background">
		<g>
			<path d="M30,199.615c-4.962,0-9-4.038-9-9v-80c0-4.962,4.038-9,9-9h80c4.962,0,9,4.038,9,9v80c0,4.962-4.038,9-9,9H30z"/>
			<path style="fill:#999999;" d="M110,102.615c4.411,0,8,3.589,8,8v80c0,4.411-3.589,8-8,8H30c-4.411,0-8-3.589-8-8v-80
				c0-4.411,3.589-8,8-8H110 M110,100.615H30c-5.5,0-10,4.5-10,10v80c0,5.5,4.5,10,10,10h80c5.5,0,10-4.5,10-10v-80
				C120,105.115,115.5,100.615,110,100.615L110,100.615z"/>
		</g>
	</g>
	<g id="common-transparent-background">
		<rect x="20" y="230.615" style="fill:none;" width="64" height="64"/>
	</g>
</g>
</svg>
