<?xml version="1.0" encoding="iso-8859-1"?>
<!-- Generator: Adobe Illustrator 14.0.0, SVG Export Plug-In . SVG Version: 6.00 Build 43363)  -->
<!DOCTYPE svg PUBLIC "-//W3C//DTD SVG 1.1//EN" "http://www.w3.org/Graphics/SVG/1.1/DTD/svg11.dtd">
<svg version="1.1" xmlns="http://www.w3.org/2000/svg" xmlns:xlink="http://www.w3.org/1999/xlink" x="0px" y="0px" width="318px"
	 height="356px" viewBox="0 0 318 356" style="enable-background:new 0 0 318 356;" xml:space="preserve">
<g id="meegotouch-progress-spinner-experimental-layer">
</g>
<g id="theme">
	<g id="meegotouch-progress-spinner-experimental">
		<g id="Spinnerthemehelperbackground">
			<g id="path3783">
				<path style="fill:#B3B3B3;" d="M15,354.551c-7.72,0-14-10.526-14-23.465V24.465C1,11.526,7.28,1,15,1h288
					c7.72,0,14,10.526,14,23.465v306.621c0,12.938-6.28,23.465-14,23.465H15z"/>
				<path d="M303,2c7.047,0,13,10.288,13,22.465v306.621c0,12.177-5.953,22.465-13,22.465H15c-7.047,0-13-10.288-13-22.465V24.465
					C2,12.288,7.953,2,15,2H303 M303,0H15C6.729,0,0,10.975,0,24.465v306.621c0,13.49,6.729,24.465,15,24.465h288
					c8.271,0,15-10.975,15-24.465V24.465C318,10.975,311.271,0,303,0L303,0z"/>
			</g>
			<path id="path3791" d="M77.219,13.104c1.008-0.168,2.328-0.312,4.008-0.312c2.064,0,3.576,0.479,4.537,1.344
				c0.863,0.77,1.416,1.944,1.416,3.386c0,1.463-0.434,2.615-1.248,3.455c-1.129,1.178-2.903,1.776-4.944,1.776
				c-0.623,0-1.199-0.022-1.681-0.146v6.48h-2.088V13.104z M79.307,20.904c0.455,0.119,1.031,0.168,1.729,0.168
				c2.521,0,4.058-1.248,4.058-3.434c0-2.16-1.537-3.191-3.816-3.191c-0.912,0-1.609,0.072-1.969,0.168v6.289H79.307z"/>
			<path id="path3793" d="M89.529,21.096c0-1.367-0.023-2.545-0.096-3.625h1.848l0.098,2.305h0.07
				c0.529-1.561,1.824-2.543,3.242-2.543c0.215,0,0.383,0.023,0.574,0.048v1.991c-0.215-0.047-0.433-0.047-0.72-0.047
				c-1.487,0-2.545,1.104-2.832,2.688c-0.049,0.287-0.071,0.646-0.071,0.984v6.19h-2.113V21.096z"/>
			<path id="path3795" d="M107.65,23.184c0,4.297-3,6.17-5.783,6.17c-3.121,0-5.568-2.305-5.568-5.978
				c0-3.864,2.568-6.146,5.76-6.146C105.395,17.23,107.65,19.656,107.65,23.184z M98.459,23.305c0,2.543,1.439,4.463,3.504,4.463
				c2.016,0,3.527-1.896,3.527-4.512c0-1.969-0.982-4.439-3.479-4.439C99.539,18.814,98.459,21.119,98.459,23.305z"/>
			<path id="path3797" d="M120.252,27.385c0,2.688-0.553,4.297-1.656,5.328c-1.151,1.031-2.785,1.393-4.25,1.393
				c-1.391,0-2.928-0.336-3.863-0.961l0.527-1.631c0.769,0.504,1.969,0.937,3.408,0.937c2.16,0,3.744-1.13,3.744-4.081v-1.271
				h-0.047c-0.625,1.079-1.896,1.944-3.697,1.944c-2.879,0-4.943-2.449-4.943-5.665c0-3.938,2.568-6.145,5.256-6.145
				c2.017,0,3.097,1.031,3.625,1.992h0.048l0.071-1.754h1.873c-0.072,0.816-0.096,1.777-0.096,3.17V27.385z M118.139,22.057
				c0-0.361-0.022-0.673-0.119-0.938c-0.385-1.248-1.393-2.256-2.953-2.256c-2.016,0-3.457,1.705-3.457,4.393
				c0,2.28,1.179,4.176,3.435,4.176c1.32,0,2.496-0.814,2.929-2.16c0.121-0.358,0.168-0.768,0.168-1.127v-2.088H118.139z"/>
			<path id="path3799" d="M123.586,21.096c0-1.367-0.023-2.545-0.096-3.625h1.848l0.096,2.305h0.072
				c0.527-1.561,1.824-2.543,3.24-2.543c0.217,0,0.385,0.023,0.576,0.048v1.991c-0.217-0.047-0.432-0.047-0.721-0.047
				c-1.488,0-2.543,1.104-2.832,2.688c-0.047,0.287-0.072,0.646-0.072,0.984v6.19h-2.111V21.096L123.586,21.096z"/>
			<path id="path3801" d="M132.371,23.664c0.047,2.855,1.848,4.031,3.984,4.031c1.512,0,2.447-0.264,3.215-0.601l0.385,1.513
				c-0.744,0.336-2.041,0.744-3.889,0.744c-3.576,0-5.713-2.375-5.713-5.881c0-3.504,2.063-6.24,5.449-6.24
				c3.815,0,4.801,3.312,4.801,5.449c0,0.432-0.025,0.743-0.072,0.983L132.371,23.664L132.371,23.664z M138.562,22.152
				c0.022-1.32-0.553-3.408-2.928-3.408c-2.16,0-3.072,1.943-3.24,3.408H138.562z"/>
			<path id="path3803" d="M142.93,26.952c0.648,0.384,1.752,0.815,2.81,0.815c1.512,0,2.231-0.744,2.231-1.729
				c0-1.008-0.6-1.536-2.137-2.112c-2.111-0.768-3.096-1.896-3.096-3.288c0-1.871,1.537-3.408,4.008-3.408
				c1.178,0,2.209,0.312,2.832,0.721l-0.504,1.535c-0.455-0.287-1.295-0.695-2.375-0.695c-1.248,0-1.92,0.721-1.92,1.584
				c0,0.961,0.672,1.393,2.184,1.992c1.992,0.744,3.049,1.753,3.049,3.48c0,2.063-1.608,3.504-4.319,3.504
				c-1.273,0-2.449-0.336-3.267-0.815L142.93,26.952z"/>
			<path id="path3805" d="M152.434,26.952c0.647,0.384,1.752,0.815,2.809,0.815c1.512,0,2.232-0.744,2.232-1.729
				c0-1.008-0.601-1.536-2.138-2.112c-2.11-0.768-3.096-1.896-3.096-3.288c0-1.871,1.537-3.408,4.008-3.408
				c1.179,0,2.209,0.312,2.832,0.721l-0.504,1.535c-0.455-0.287-1.295-0.695-2.375-0.695c-1.248,0-1.92,0.721-1.92,1.584
				c0,0.961,0.672,1.393,2.185,1.992c1.991,0.744,3.049,1.753,3.049,3.48c0,2.063-1.609,3.504-4.32,3.504
				c-1.273,0-2.449-0.336-3.266-0.815L152.434,26.952z"/>
			<path id="path3807" d="M167.025,26.952c0.647,0.384,1.752,0.815,2.809,0.815c1.512,0,2.232-0.744,2.232-1.729
				c0-1.008-0.603-1.536-2.137-2.112c-2.113-0.768-3.097-1.896-3.097-3.288c0-1.871,1.535-3.408,4.009-3.408
				c1.176,0,2.206,0.312,2.831,0.721l-0.504,1.535c-0.457-0.287-1.297-0.695-2.377-0.695c-1.248,0-1.92,0.721-1.92,1.584
				c0,0.961,0.672,1.393,2.185,1.992c1.991,0.744,3.049,1.753,3.049,3.48c0,2.063-1.607,3.504-4.32,3.504
				c-1.271,0-2.447-0.336-3.264-0.815L167.025,26.952L167.025,26.952z"/>
			<path id="path3809" d="M176.816,21.264c0-1.488-0.047-2.688-0.096-3.793h1.873l0.118,1.992h0.05
				c0.84-1.416,2.231-2.23,4.127-2.23c2.834,0,4.944,2.375,4.944,5.879c0,4.178-2.567,6.242-5.305,6.242
				c-1.535,0-2.882-0.674-3.576-1.824h-0.047v6.312h-2.091V21.264H176.816z M178.906,24.359c0,0.312,0.023,0.601,0.096,0.865
				c0.383,1.463,1.656,2.471,3.168,2.471c2.232,0,3.527-1.823,3.527-4.487c0-2.304-1.223-4.296-3.455-4.296
				c-1.441,0-2.809,1.008-3.193,2.592c-0.072,0.264-0.143,0.576-0.143,0.84V24.359L178.906,24.359z"/>
			<path id="path3811" d="M192.826,14.207c0,0.721-0.504,1.297-1.346,1.297c-0.769,0-1.271-0.576-1.271-1.297s0.529-1.32,1.32-1.32
				C192.297,12.887,192.826,13.463,192.826,14.207z M190.473,29.088V17.471h2.113v11.617H190.473z"/>
			<path id="path3813" d="M196.088,20.615c0-1.225-0.023-2.184-0.096-3.146h1.873l0.119,1.921h0.049c0.576-1.08,1.92-2.16,3.84-2.16
				c1.607,0,4.104,0.961,4.104,4.944v6.912h-2.11v-6.696c0-1.871-0.695-3.433-2.688-3.433c-1.369,0-2.449,0.983-2.832,2.16
				c-0.098,0.265-0.145,0.625-0.145,0.983v6.984h-2.113V20.615z"/>
			<path id="path3815" d="M209.408,20.615c0-1.225-0.023-2.184-0.096-3.146h1.873l0.119,1.921h0.049c0.576-1.08,1.92-2.16,3.84-2.16
				c1.607,0,4.104,0.961,4.104,4.944v6.912h-2.111v-6.696c0-1.871-0.694-3.433-2.688-3.433c-1.369,0-2.449,0.983-2.832,2.16
				c-0.098,0.265-0.145,0.625-0.145,0.983v6.984h-2.113V20.615z"/>
			<path id="path3817" d="M223.904,23.664c0.049,2.855,1.848,4.031,3.984,4.031c1.512,0,2.446-0.264,3.217-0.601l0.383,1.513
				c-0.744,0.336-2.039,0.744-3.887,0.744c-3.578,0-5.713-2.375-5.713-5.881c0-3.504,2.063-6.24,5.446-6.24
				c3.816,0,4.802,3.312,4.802,5.449c0,0.432-0.023,0.743-0.072,0.983L223.904,23.664L223.904,23.664z M230.098,22.152
				c0.023-1.32-0.553-3.408-2.93-3.408c-2.16,0-3.072,1.943-3.24,3.408H230.098z"/>
			<path id="path3819" d="M234.752,21.096c0-1.367-0.023-2.545-0.096-3.625h1.848l0.098,2.305h0.07
				c0.529-1.561,1.824-2.543,3.242-2.543c0.215,0,0.383,0.023,0.574,0.048v1.991c-0.215-0.047-0.432-0.047-0.719-0.047
				c-1.488,0-2.545,1.104-2.832,2.688c-0.049,0.287-0.072,0.646-0.072,0.984v6.19h-2.113V21.096L234.752,21.096z"/>
		</g>
		<g id="meegotouch-progressindicator-spinner-hollow-progress-small">
			<path id="path3382" style="fill:none;" d="M210,304c-24.813,0-29-8.947-29-29c0-20.055,4.187-29,29-29s29,8.945,29,29
				C239,295.053,234.813,304,210,304L210,304z"/>
			<path style="fill:#66C0EF;" d="M210,251c-19.707,0-24,8.443-24,24s4.293,24,24,24c19.706,0,24-8.443,24-24S229.706,251,210,251z
				 M210,294.5c-16.686,0-19.5-6.016-19.5-19.5s2.814-19.5,19.5-19.5c16.684,0,19.5,6.016,19.5,19.5S226.684,294.5,210,294.5z"/>
		</g>
		<g id="meegotouch-progressindicator-spinner-hollow-background-small">
			<path id="path3379" style="fill:none;" d="M80,304c-24.812,0-29-8.947-29-29s4.188-29,29-29s29,8.947,29,29S104.812,304,80,304
				L80,304z"/>
			<path style="fill:#D0D2D3;" d="M80,251c-19.705,0-24,8.443-24,24c0,15.555,4.295,24,24,24s24-8.445,24-24
				C104,259.443,99.705,251,80,251z M80,294.5c-16.684,0-19.5-6.016-19.5-19.5s2.816-19.502,19.5-19.502S99.5,261.516,99.5,275
				S96.684,294.5,80,294.5z"/>
			<path style="opacity:0.5;" d="M80,294.5c-16.684,0-19.5-6.016-19.5-19.5s2.816-19.502,19.5-19.502S99.5,261.516,99.5,275
				S96.684,294.5,80,294.5z"/>
		</g>
		<g id="meegotouch-progressindicator-spinner-hollow-progress">
			<path id="path3382_2_" style="fill:none;" d="M210,233c-40.215,0-47-14.499-47-47s6.785-47,47-47s47,14.499,47,47
				S250.215,233,210,233L210,233z"/>
			<path style="fill:#66C0EF;" d="M210,145.352c-33.377,0-40.648,14.301-40.648,40.649c0,26.348,7.271,40.647,40.648,40.647
				s40.648-14.3,40.648-40.647C250.648,159.652,243.377,145.352,210,145.352z M210,219.027c-28.259,0-33.027-10.189-33.027-33.027
				s4.769-33.026,33.027-33.026c28.258,0,33.027,10.188,33.027,33.026S238.258,219.027,210,219.027z"/>
		</g>
		<g id="meegotouch-progressindicator-spinner-hollow-background">
			<path id="path3379_2_" style="fill:none;" d="M80,233c-40.215,0-47-14.499-47-47s6.785-47,47-47s47,14.499,47,47
				S120.215,233,80,233L80,233z"/>
			<path style="fill:#D0D2D3;" d="M80,145.352c-33.377,0-40.648,14.3-40.648,40.648c0,26.348,7.271,40.648,40.648,40.648
				s40.648-14.301,40.648-40.648C120.648,159.651,113.377,145.352,80,145.352z M80,219.027c-28.259,0-33.027-10.189-33.027-33.027
				S51.741,152.973,80,152.973c28.258,0,33.027,10.189,33.027,33.027S108.258,219.027,80,219.027z"/>
			<path style="opacity:0.5;" d="M80,219.027c-28.259,0-33.027-10.189-33.027-33.027S51.741,152.973,80,152.973
				c28.258,0,33.027,10.189,33.027,33.027S108.258,219.027,80,219.027z"/>
		</g>
		<g id="meegotouch-progressindicator-spinner-progress">
			<path id="path3382_1_" style="fill:none;" d="M210,124c-31.658,0-37-11.414-37-37s5.342-37,37-37s37,11.414,37,37
				S241.658,124,210,124L210,124z"/>
			<path id="path95_1_" style="fill:#66C0EF;" d="M178,87c0,20.742,5.725,32,32,32s32-11.258,32-32s-5.725-32-32-32
				S178,66.258,178,87z"/>
			<path id="path89-6_1_" style="fill:#FFFFFF;" d="M210,113c-22.246,0-26-8.021-26-26s3.754-26,26-26s26,8.021,26,26
				S232.246,113,210,113L210,113z"/>
		</g>
		<g id="meegotouch-progressindicator-spinner-background">
			<path id="path3379_1_" style="fill:none;" d="M80,124c-31.658,0-37-11.414-37-37s5.342-37,37-37s37,11.414,37,37
				S111.658,124,80,124L80,124z"/>
			<path id="path92_1_" style="fill:#D0D2D3;" d="M48,87c0,20.742,5.725,32,32,32s32-11.258,32-32s-5.725-32-32-32S48,66.258,48,87z
				"/>
			<path id="path89_1_" style="fill:#FFFFFF;" d="M80,113c-22.246,0-26-8.021-26-26s3.754-26,26-26s26,8.021,26,26
				S102.246,113,80,113L80,113z"/>
		</g>
	</g>
</g>
</svg>
