<?xml version="1.0" encoding="iso-8859-1"?>
<!-- Generator: Adobe Illustrator 14.0.0, SVG Export Plug-In . SVG Version: 6.00 Build 43363)  -->
<!DOCTYPE svg PUBLIC "-//W3C//DTD SVG 1.1//EN" "http://www.w3.org/Graphics/SVG/1.1/DTD/svg11.dtd">
<svg version="1.1" xmlns="http://www.w3.org/2000/svg" xmlns:xlink="http://www.w3.org/1999/xlink" x="0px" y="0px" width="200px"
	 height="100px" viewBox="0 0 200 100" style="enable-background:new 0 0 200 100;" xml:space="preserve">
<g id="meegotouch-separator-layer">
</g>
<g id="theme">
	<g id="meegotouch-separator">
		<g id="MeegoTouchSeparatorThemeTemplateHelper">
			<g>
				<path style="fill:#B3B3B3;" d="M16,99C7.729,99,1,92.271,1,84V16C1,7.729,7.729,1,16,1h168c8.271,0,15,6.729,15,15v68
					c0,8.271-6.729,15-15,15H16z"/>
				<g>
					<path d="M184,2c7.72,0,14,6.28,14,14v68c0,7.72-6.28,14-14,14H16C8.28,98,2,91.72,2,84V16C2,8.28,8.28,2,16,2H184 M184,0H16
						C7.2,0,0,7.2,0,16v68c0,8.8,7.2,16,16,16h168c8.8,0,16-7.2,16-16V16C200,7.2,192.8,0,184,0L184,0z"/>
				</g>
			</g>
			<path d="M66.173,27.93c-0.977,0-1.95-0.133-2.92-0.4v-1.514c1.067,0.307,2.021,0.459,2.861,0.459
				c0.898,0,1.609-0.201,2.134-0.605s0.786-0.982,0.786-1.738c0-0.482-0.103-0.891-0.308-1.226s-0.471-0.62-0.796-0.854
				s-0.798-0.531-1.417-0.889c-0.734-0.424-1.315-0.799-1.742-1.128s-0.783-0.749-1.07-1.26c-0.285-0.511-0.429-1.132-0.429-1.86
				c0-1.236,0.412-2.189,1.235-2.856s1.945-1.001,3.364-1.001c0.931,0,1.804,0.098,2.617,0.293v1.465
				c-0.911-0.201-1.738-0.303-2.48-0.303c-0.774,0-1.404,0.188-1.89,0.562c-0.486,0.374-0.728,0.894-0.728,1.558
				c0,0.43,0.129,0.84,0.386,1.23s0.955,0.918,2.095,1.582c0.742,0.43,1.326,0.807,1.753,1.133s0.788,0.742,1.084,1.25
				s0.444,1.117,0.444,1.826C71.153,26.504,69.493,27.93,66.173,27.93z"/>
			<path d="M80.606,26.035v1.416c-1.022,0.318-2.08,0.479-3.174,0.479c-1.589,0-2.776-0.479-3.565-1.436
				c-0.787-0.957-1.181-2.432-1.181-4.424c0-1.752,0.38-3.159,1.143-4.224c0.762-1.064,1.849-1.597,3.262-1.597
				c1.146,0,2.007,0.305,2.583,0.913s0.945,1.354,1.108,2.236s0.244,1.933,0.244,3.149h-6.133c0,1.322,0.234,2.312,0.703,2.974
				s1.172,0.991,2.109,0.991C78.5,26.514,79.467,26.354,80.606,26.035z M74.894,21.27h4.092c0-1.373-0.163-2.344-0.488-2.91
				s-0.794-0.85-1.406-0.85c-0.684,0-1.206,0.293-1.567,0.879S74.951,19.936,74.894,21.27z"/>
			<path d="M84.503,16.416l0.42,1.621c0.41-0.605,0.866-1.055,1.367-1.348s1.14-0.439,1.914-0.439c1.257,0,2.2,0.474,2.831,1.421
				c0.633,0.947,0.947,2.368,0.947,4.263c0,1.875-0.431,3.336-1.293,4.385s-2.104,1.572-3.726,1.572
				c-0.43,0-0.944-0.072-1.543-0.215v3.359h-2.08V16.416H84.503z M85.421,21.494v4.697c0.501,0.189,1.028,0.283,1.582,0.283
				c0.938,0,1.643-0.326,2.114-0.977s0.708-1.871,0.708-3.662c0-1.387-0.176-2.427-0.527-3.12s-0.876-1.04-1.572-1.04
				c-0.755,0-1.328,0.291-1.719,0.874C85.615,19.133,85.421,20.113,85.421,21.494z"/>
			<path d="M100.226,26.133c-0.703,1.197-1.797,1.797-3.281,1.797c-1.035,0-1.841-0.291-2.417-0.874s-0.864-1.397-0.864-2.446
				c0-1.08,0.296-1.887,0.889-2.417s1.302-0.862,2.129-0.996s1.833-0.2,3.018-0.2v-1.338c0-1.322-0.706-1.982-2.119-1.982
				c-0.813,0-1.807,0.172-2.979,0.518v-1.455c1.179-0.326,2.298-0.488,3.359-0.488c1.25,0,2.199,0.301,2.847,0.903
				s0.972,1.489,0.972,2.661v7.959h-1.133L100.226,26.133z M99.698,22.236h-1.163c-0.93,0-1.628,0.197-2.094,0.591
				s-0.698,0.981-0.698,1.763c0,0.639,0.142,1.115,0.425,1.431s0.708,0.474,1.274,0.474c0.716,0,1.271-0.229,1.665-0.684
				s0.591-1.074,0.591-1.855V22.236z"/>
			<path d="M105.743,16.416l0.479,1.895c0.632-1.334,1.731-2.002,3.301-2.002c0.208,0,0.361,0.01,0.459,0.029v1.895
				c-0.163-0.014-0.407-0.02-0.732-0.02c-0.892,0-1.546,0.213-1.964,0.64c-0.416,0.427-0.624,1.093-0.624,1.997v6.924h-2.08V16.416
				H105.743z"/>
			<path d="M117.168,26.133c-0.703,1.197-1.796,1.797-3.28,1.797c-1.036,0-1.841-0.291-2.417-0.874s-0.864-1.397-0.864-2.446
				c0-1.08,0.296-1.887,0.889-2.417s1.302-0.862,2.129-0.996s1.833-0.2,3.018-0.2v-1.338c0-1.322-0.706-1.982-2.119-1.982
				c-0.813,0-1.807,0.172-2.979,0.518v-1.455c1.179-0.326,2.298-0.488,3.359-0.488c1.25,0,2.198,0.301,2.847,0.903
				c0.647,0.603,0.972,1.489,0.972,2.661v7.959h-1.133L117.168,26.133z M116.642,22.236h-1.162c-0.931,0-1.63,0.197-2.095,0.591
				c-0.467,0.394-0.698,0.981-0.698,1.763c0,0.639,0.142,1.115,0.425,1.431s0.707,0.474,1.273,0.474
				c0.717,0,1.272-0.229,1.666-0.684s0.591-1.074,0.591-1.855V22.236z"/>
			<path d="M124.425,27.93c-0.886,0-1.533-0.207-1.943-0.62s-0.615-1.073-0.615-1.978v-7.559h-1.494v-0.781l3.037-3.096h0.537v2.52
				h2.764v1.357h-2.764v7.217c0,0.619,0.101,1.027,0.303,1.226s0.508,0.298,0.918,0.298c0.423,0,0.996-0.094,1.718-0.283v1.348
				C126.014,27.812,125.193,27.93,124.425,27.93z"/>
			<path d="M132.413,27.93c-1.53,0-2.676-0.502-3.438-1.504s-1.143-2.506-1.143-4.512c0-1.744,0.396-3.125,1.187-4.141
				s1.922-1.523,3.394-1.523c1.484,0,2.618,0.502,3.403,1.504c0.784,1.002,1.177,2.402,1.177,4.199c0,1.85-0.366,3.307-1.099,4.375
				S134.002,27.93,132.413,27.93z M132.413,26.592c0.801,0,1.404-0.363,1.812-1.089s0.611-1.942,0.611-3.647
				c0-1.205-0.209-2.215-0.626-3.032s-1.016-1.226-1.797-1.226c-0.794,0-1.396,0.367-1.807,1.104s-0.615,1.787-0.615,3.154
				c0,1.537,0.205,2.71,0.615,3.521S131.619,26.592,132.413,26.592z"/>
			<path d="M140.509,16.416l0.479,1.895c0.632-1.334,1.731-2.002,3.301-2.002c0.208,0,0.361,0.01,0.459,0.029v1.895
				c-0.163-0.014-0.407-0.02-0.733-0.02c-0.891,0-1.545,0.213-1.962,0.64s-0.625,1.093-0.625,1.997v6.924h-2.08V16.416H140.509z"/>
		</g>
		<g id="meegotouch-separator-background-horizontal">
			<rect x="96" y="47" style="fill:none;" width="20" height="6"/>
			<rect x="96" y="50" width="20" height="1"/>
			<rect x="96" y="49" width="20" height="1"/>
		</g>
		<g id="meegotouch-separator-background-vertical">
			<rect x="80" y="40" style="fill:none;" width="6" height="20"/>
			<rect x="82" y="40" width="1" height="20"/>
			<rect x="83" y="40" width="1" height="20"/>
		</g>
	</g>
</g>
</svg>
