<?xml version="1.0" encoding="iso-8859-1"?>
<!-- Generator: Adobe Illustrator 15.0.1, SVG Export Plug-In . SVG Version: 6.00 Build 0)  -->
<!DOCTYPE svg PUBLIC "-//W3C//DTD SVG 1.1//EN" "http://www.w3.org/Graphics/SVG/1.1/DTD/svg11.dtd">
<svg version="1.1" id="meegotouch-application-window-layer"
	 xmlns="http://www.w3.org/2000/svg" xmlns:xlink="http://www.w3.org/1999/xlink" x="0px" y="0px" width="190px" height="190px"
	 viewBox="0 0 190 190" style="enable-background:new 0 0 190 190;" xml:space="preserve">
<g id="meegotouch-application-window">
	<g id="_x23_AppWindowThemeHelper">
		<g>
			<path style="fill:#F0F0F1;" d="M12,189.5c-6.341,0-11.5-5.159-11.5-11.5V12C0.5,5.659,5.659,0.5,12,0.5h166
				c6.341,0,11.5,5.159,11.5,11.5v166c0,6.341-5.159,11.5-11.5,11.5H12z"/>
			<path style="fill:#929497;" d="M178,1c6.065,0,11,4.935,11,11v166c0,6.065-4.935,11-11,11H12c-6.065,0-11-4.935-11-11V12
				C1,5.935,5.935,1,12,1H178 M178,0H12C5.4,0,0,5.4,0,12v166c0,6.6,5.4,12,12,12h166c6.6,0,12-5.4,12-12V12C190,5.4,184.6,0,178,0
				L178,0z"/>
		</g>
		<g>
			<path d="M30.553,20.624l-0.84,2.543h-1.079l2.758-8.084h1.248l2.758,8.084h-1.115l-0.864-2.543H30.553z M33.215,19.809
				l-0.804-2.326c-0.18-0.528-0.3-1.008-0.42-1.476h-0.024c-0.12,0.468-0.24,0.972-0.408,1.463l-0.792,2.339H33.215z"/>
			<path d="M36.518,19.257c0-0.743-0.024-1.343-0.048-1.895h0.936l0.06,0.995h0.024c0.42-0.707,1.116-1.115,2.063-1.115
				c1.415,0,2.471,1.188,2.471,2.938c0,2.087-1.283,3.118-2.65,3.118c-0.768,0-1.439-0.336-1.787-0.911h-0.024v3.154h-1.043V19.257z
				 M37.561,20.805c0,0.155,0.012,0.3,0.048,0.432c0.192,0.731,0.828,1.235,1.583,1.235c1.116,0,1.763-0.912,1.763-2.243
				c0-1.151-0.612-2.146-1.727-2.146c-0.72,0-1.403,0.504-1.595,1.295c-0.036,0.132-0.072,0.288-0.072,0.42V20.805z"/>
			<path d="M43.345,19.257c0-0.743-0.024-1.343-0.048-1.895h0.936l0.06,0.995h0.024c0.419-0.707,1.115-1.115,2.063-1.115
				c1.415,0,2.47,1.188,2.47,2.938c0,2.087-1.283,3.118-2.65,3.118c-0.768,0-1.439-0.336-1.787-0.911h-0.024v3.154h-1.043V19.257z
				 M44.389,20.805c0,0.155,0.012,0.3,0.048,0.432c0.192,0.731,0.828,1.235,1.583,1.235c1.115,0,1.763-0.912,1.763-2.243
				c0-1.151-0.611-2.146-1.727-2.146c-0.72,0-1.403,0.504-1.595,1.295c-0.036,0.132-0.072,0.288-0.072,0.42V20.805z"/>
			<path d="M50.173,14.651h1.056v8.516h-1.056V14.651z"/>
			<path d="M54.181,15.731c0,0.359-0.252,0.647-0.672,0.647c-0.384,0-0.636-0.288-0.636-0.647c0-0.36,0.264-0.66,0.66-0.66
				C53.917,15.071,54.181,15.359,54.181,15.731z M53.005,23.167v-5.805h1.056v5.805H53.005z"/>
			<path d="M59.951,22.963c-0.276,0.132-0.888,0.336-1.667,0.336c-1.751,0-2.891-1.188-2.891-2.962c0-1.787,1.224-3.095,3.119-3.095
				c0.624,0,1.175,0.156,1.463,0.312l-0.24,0.804c-0.252-0.132-0.648-0.275-1.223-0.275c-1.332,0-2.051,0.995-2.051,2.194
				c0,1.344,0.864,2.171,2.015,2.171c0.6,0,0.995-0.144,1.295-0.275L59.951,22.963z"/>
			<path d="M65.267,21.775c0,0.504,0.024,0.996,0.084,1.392h-0.947l-0.084-0.731h-0.036c-0.324,0.456-0.947,0.863-1.775,0.863
				c-1.175,0-1.775-0.827-1.775-1.667c0-1.403,1.247-2.171,3.49-2.159v-0.119c0-0.468-0.132-1.344-1.319-1.332
				c-0.551,0-1.115,0.156-1.523,0.432l-0.24-0.707c0.479-0.3,1.187-0.504,1.919-0.504c1.775,0,2.207,1.211,2.207,2.362V21.775z
				 M64.247,20.205c-1.151-0.024-2.458,0.18-2.458,1.307c0,0.695,0.456,1.008,0.983,1.008c0.768,0,1.259-0.479,1.427-0.972
				c0.036-0.12,0.048-0.24,0.048-0.336V20.205z"/>
			<path d="M68.196,15.971v1.392h1.511v0.804h-1.511v3.13c0,0.72,0.204,1.128,0.792,1.128c0.288,0,0.456-0.024,0.612-0.072
				l0.048,0.804c-0.204,0.071-0.528,0.144-0.936,0.144c-0.492,0-0.888-0.168-1.14-0.443c-0.288-0.324-0.407-0.84-0.407-1.523v-3.166
				h-0.9v-0.804h0.9v-1.079L68.196,15.971z"/>
			<path d="M72.072,15.731c0,0.359-0.252,0.647-0.672,0.647c-0.384,0-0.636-0.288-0.636-0.647c0-0.36,0.264-0.66,0.66-0.66
				C71.809,15.071,72.072,15.359,72.072,15.731z M70.897,23.167v-5.805h1.055v5.805H70.897z"/>
			<path d="M78.958,20.217c0,2.146-1.5,3.082-2.891,3.082c-1.559,0-2.782-1.151-2.782-2.986c0-1.931,1.283-3.07,2.878-3.07
				C77.831,17.242,78.958,18.453,78.958,20.217z M74.364,20.276c0,1.271,0.72,2.231,1.751,2.231c1.008,0,1.763-0.948,1.763-2.255
				c0-0.983-0.492-2.219-1.739-2.219C74.904,18.034,74.364,19.186,74.364,20.276z"/>
			<path d="M80.293,18.934c0-0.612-0.012-1.092-0.048-1.571h0.936l0.06,0.959h0.024c0.288-0.539,0.959-1.079,1.919-1.079
				c0.804,0,2.051,0.479,2.051,2.471v3.454h-1.055v-3.346c0-0.936-0.348-1.716-1.343-1.716c-0.684,0-1.224,0.492-1.416,1.08
				c-0.048,0.132-0.072,0.312-0.072,0.491v3.49h-1.055V18.934z"/>
			<path d="M92.46,17.362l0.78,2.95c0.156,0.647,0.312,1.247,0.42,1.847h0.036c0.132-0.587,0.324-1.211,0.516-1.835l0.948-2.962
				h0.887l0.899,2.902c0.216,0.695,0.384,1.308,0.516,1.895h0.036c0.097-0.587,0.252-1.199,0.444-1.883l0.827-2.914h1.044
				l-1.871,5.805h-0.96l-0.888-2.771c-0.204-0.647-0.372-1.224-0.515-1.907h-0.024c-0.144,0.696-0.324,1.296-0.528,1.919
				l-0.936,2.759h-0.959l-1.751-5.805H92.46z"/>
			<path d="M102.048,15.731c0,0.359-0.252,0.647-0.672,0.647c-0.384,0-0.636-0.288-0.636-0.647c0-0.36,0.264-0.66,0.66-0.66
				C101.784,15.071,102.048,15.359,102.048,15.731z M100.872,23.167v-5.805h1.056v5.805H100.872z"/>
			<path d="M103.68,18.934c0-0.612-0.012-1.092-0.048-1.571h0.936l0.061,0.959h0.023c0.288-0.539,0.96-1.079,1.919-1.079
				c0.804,0,2.051,0.479,2.051,2.471v3.454h-1.055v-3.346c0-0.936-0.348-1.716-1.344-1.716c-0.684,0-1.223,0.492-1.415,1.08
				c-0.048,0.132-0.072,0.312-0.072,0.491v3.49h-1.056V18.934z"/>
			<path d="M115.342,14.651v7.017c0,0.516,0.023,1.104,0.048,1.499h-0.936l-0.048-1.008h-0.036c-0.312,0.648-1.008,1.14-1.955,1.14
				c-1.403,0-2.495-1.188-2.495-2.95c-0.012-1.931,1.2-3.106,2.604-3.106c0.899,0,1.486,0.42,1.75,0.876h0.024v-3.467H115.342z
				 M114.298,19.725c0-0.132-0.012-0.312-0.048-0.443c-0.156-0.66-0.731-1.212-1.523-1.212c-1.091,0-1.738,0.96-1.738,2.231
				c0,1.175,0.587,2.146,1.715,2.146c0.707,0,1.355-0.479,1.547-1.259c0.036-0.145,0.048-0.288,0.048-0.456V19.725z"/>
			<path d="M122.361,20.217c0,2.146-1.499,3.082-2.891,3.082c-1.559,0-2.782-1.151-2.782-2.986c0-1.931,1.283-3.07,2.878-3.07
				C121.233,17.242,122.361,18.453,122.361,20.217z M117.768,20.276c0,1.271,0.72,2.231,1.751,2.231
				c1.008,0,1.763-0.948,1.763-2.255c0-0.983-0.491-2.219-1.738-2.219C118.308,18.034,117.768,19.186,117.768,20.276z"/>
			<path d="M124.032,17.362l0.779,2.95c0.156,0.647,0.312,1.247,0.42,1.847h0.036c0.132-0.587,0.323-1.211,0.516-1.835l0.947-2.962
				h0.888l0.899,2.902c0.216,0.695,0.384,1.308,0.516,1.895h0.036c0.096-0.587,0.252-1.199,0.443-1.883l0.828-2.914h1.043
				l-1.871,5.805h-0.959l-0.888-2.771c-0.204-0.647-0.372-1.224-0.516-1.907h-0.024c-0.144,0.696-0.323,1.296-0.527,1.919
				l-0.936,2.759h-0.96l-1.751-5.805H124.032z"/>
			<path d="M139.126,22.963c-0.276,0.132-0.888,0.336-1.667,0.336c-1.752,0-2.891-1.188-2.891-2.962
				c0-1.787,1.223-3.095,3.118-3.095c0.624,0,1.175,0.156,1.463,0.312l-0.239,0.804c-0.252-0.132-0.648-0.275-1.224-0.275
				c-1.331,0-2.051,0.995-2.051,2.194c0,1.344,0.863,2.171,2.015,2.171c0.6,0,0.995-0.144,1.295-0.275L139.126,22.963z"/>
			<path d="M145.545,20.217c0,2.146-1.499,3.082-2.891,3.082c-1.559,0-2.782-1.151-2.782-2.986c0-1.931,1.283-3.07,2.879-3.07
				C144.418,17.242,145.545,18.453,145.545,20.217z M140.951,20.276c0,1.271,0.72,2.231,1.752,2.231
				c1.007,0,1.763-0.948,1.763-2.255c0-0.983-0.492-2.219-1.739-2.219C141.491,18.034,140.951,19.186,140.951,20.276z"/>
			<path d="M146.88,19.173c0-0.684-0.012-1.271-0.048-1.811h0.924l0.048,1.151h0.036c0.264-0.779,0.911-1.271,1.619-1.271
				c0.107,0,0.191,0.012,0.287,0.024v0.995c-0.107-0.024-0.216-0.024-0.359-0.024c-0.744,0-1.271,0.552-1.415,1.344
				c-0.024,0.144-0.036,0.323-0.036,0.491v3.095h-1.056V19.173z"/>
			<path d="M150.852,18.934c0-0.612-0.012-1.092-0.048-1.571h0.936l0.06,0.959h0.024c0.288-0.539,0.96-1.079,1.919-1.079
				c0.804,0,2.051,0.479,2.051,2.471v3.454h-1.056v-3.346c0-0.936-0.348-1.716-1.343-1.716c-0.684,0-1.224,0.492-1.415,1.08
				c-0.048,0.132-0.072,0.312-0.072,0.491v3.49h-1.056V18.934z"/>
			<path d="M158.1,20.456c0.023,1.428,0.924,2.016,1.99,2.016c0.756,0,1.224-0.132,1.607-0.3l0.192,0.755
				c-0.372,0.168-1.02,0.372-1.943,0.372c-1.787,0-2.854-1.188-2.854-2.938s1.031-3.118,2.723-3.118
				c1.907,0,2.398,1.655,2.398,2.723c0,0.216-0.012,0.372-0.036,0.491H158.1z M161.193,19.701c0.013-0.66-0.275-1.703-1.463-1.703
				c-1.079,0-1.535,0.972-1.619,1.703H161.193z"/>
			<path d="M163.523,19.173c0-0.684-0.012-1.271-0.048-1.811h0.924l0.048,1.151h0.036c0.264-0.779,0.911-1.271,1.619-1.271
				c0.107,0,0.191,0.012,0.287,0.024v0.995c-0.107-0.024-0.216-0.024-0.359-0.024c-0.743,0-1.271,0.552-1.415,1.344
				c-0.024,0.144-0.036,0.323-0.036,0.491v3.095h-1.056V19.173z"/>
			<path d="M167.304,22.1c0.324,0.191,0.876,0.408,1.403,0.408c0.756,0,1.115-0.372,1.115-0.864c0-0.504-0.3-0.768-1.067-1.055
				c-1.056-0.384-1.547-0.948-1.547-1.644c0-0.936,0.768-1.703,2.003-1.703c0.588,0,1.104,0.156,1.415,0.359l-0.252,0.768
				c-0.228-0.144-0.647-0.348-1.188-0.348c-0.624,0-0.959,0.36-0.959,0.792c0,0.479,0.335,0.695,1.091,0.995
				c0.996,0.372,1.523,0.876,1.523,1.739c0,1.031-0.804,1.751-2.159,1.751c-0.636,0-1.223-0.168-1.631-0.407L167.304,22.1z"/>
		</g>
	</g>
	<g id="meegotouch-applicationwindow-corner-bottom-right">
		<path d="M100,102h12V90C112,96.6,106.6,102,100,102z"/>
	</g>
	<g id="meegotouch-applicationwindow-corner-bottom-left">
		<path d="M50,90v12h12C55.4,102,50,96.6,50,90z"/>
	</g>
	<g id="meegotouch-applicationwindow-corner-top-right">
		<path d="M112,52V40h-12C106.6,40,112,45.4,112,52z"/>
	</g>
	<g id="meegotouch-applicationwindow-corner-top-left">
		<path d="M62,40H50v12C50,45.4,55.4,40,62,40z"/>
	</g>
</g>
</svg>
