<?xml version="1.0" encoding="iso-8859-1"?>
<!-- Generator: Adobe Illustrator 14.0.0, SVG Export Plug-In . SVG Version: 6.00 Build 43363)  -->
<!DOCTYPE svg PUBLIC "-//W3C//DTD SVG 1.1//EN" "http://www.w3.org/Graphics/SVG/1.1/DTD/svg11.dtd">
<svg version="1.1" xmlns="http://www.w3.org/2000/svg" xmlns:xlink="http://www.w3.org/1999/xlink" x="0px" y="0px" width="927px"
	 height="927px" viewBox="0 0 927 927" style="enable-background:new 0 0 927 927;" xml:space="preserve">
<g id="Meegotouch-gallery-layer">
</g>
<g id="theme">
	<g id="Meegotouch-gallery">
		<g id="gallerythemetemplatehelper">
			<g>
				<path style="fill:#B3B3B3;" d="M927,911c0,8.8-7.2,16-16,16H16c-8.8,0-16-7.2-16-16V16C0,7.2,7.2,0,16,0h895c8.8,0,16,7.2,16,16
					V911z"/>
				<path style="fill:none;stroke:#000000;stroke-width:2;" d="M927,911c0,8.8-7.2,16-16,16H16c-8.8,0-16-7.2-16-16V16
					C0,7.2,7.2,0,16,0h895c8.8,0,16,7.2,16,16V911z"/>
			</g>
			<path d="M416.114,59.506c-1.404,0.54-4.211,1.332-7.487,1.332c-3.672,0-6.695-0.936-9.071-3.203
				c-2.087-2.017-3.383-5.256-3.383-9.035c0-7.235,5.003-12.526,13.138-12.526c2.808,0,5.04,0.611,6.083,1.115l-0.792,2.556
				c-1.296-0.611-2.916-1.043-5.363-1.043c-5.903,0-9.755,3.671-9.755,9.754c0,6.155,3.671,9.791,9.359,9.791
				c2.052,0,3.456-0.288,4.175-0.647v-7.235h-4.895v-2.52h7.991V59.506z"/>
			<path d="M433.287,56.41c0,1.512,0.072,2.988,0.252,4.176h-2.844l-0.252-2.195h-0.108c-0.972,1.367-2.844,2.591-5.327,2.591
				c-3.528,0-5.328-2.483-5.328-5.003c0-4.212,3.744-6.516,10.475-6.479V49.14c0-1.404-0.396-4.032-3.959-3.996
				c-1.656,0-3.348,0.468-4.571,1.296l-0.72-2.123c1.439-0.9,3.563-1.513,5.759-1.513c5.327,0,6.623,3.636,6.623,7.092V56.41z
				 M430.227,51.695c-3.456-0.072-7.379,0.54-7.379,3.923c0,2.088,1.368,3.024,2.952,3.024c2.304,0,3.78-1.44,4.284-2.916
				c0.108-0.36,0.144-0.72,0.144-1.008V51.695z"/>
			<path d="M438.4,35.029h3.168v25.557H438.4V35.029z"/>
			<path d="M446.896,35.029h3.168v25.557h-3.168V35.029z"/>
			<path d="M457.156,52.451c0.072,4.283,2.771,6.047,5.975,6.047c2.268,0,3.672-0.396,4.823-0.899l0.576,2.268
				c-1.116,0.504-3.06,1.115-5.832,1.115c-5.363,0-8.567-3.563-8.567-8.818c0-5.256,3.096-9.359,8.171-9.359
				c5.724,0,7.199,4.968,7.199,8.172c0,0.647-0.035,1.115-0.107,1.476H457.156z M466.442,50.184c0.036-1.98-0.827-5.111-4.392-5.111
				c-3.239,0-4.607,2.915-4.859,5.111H466.442z"/>
			<path d="M473.428,48.6c0-2.052-0.036-3.815-0.145-5.436h2.771l0.145,3.456h0.107c0.793-2.34,2.736-3.816,4.859-3.816
				c0.324,0,0.576,0.036,0.864,0.072v2.988c-0.323-0.072-0.647-0.072-1.079-0.072c-2.232,0-3.816,1.655-4.248,4.031
				c-0.072,0.432-0.107,0.972-0.107,1.476v9.287h-3.168V48.6z"/>
			<path d="M487.25,43.164l3.78,10.295c0.433,1.151,0.864,2.52,1.151,3.563h0.072c0.324-1.044,0.684-2.376,1.116-3.636l3.456-10.223
				h3.348l-4.752,12.419c-2.268,5.975-3.816,8.998-5.976,10.906c-1.583,1.332-3.095,1.872-3.888,2.016l-0.791-2.628
				c0.791-0.252,1.836-0.756,2.771-1.548c0.863-0.684,1.907-1.907,2.663-3.527c0.144-0.324,0.252-0.576,0.252-0.756
				s-0.071-0.432-0.252-0.828l-6.407-16.054H487.25z"/>
		</g>
		<g id="meegotouch-image-no-content-landscape-splash">
			<linearGradient id="SVGID_1_" gradientUnits="userSpaceOnUse" x1="135.542" y1="936.8594" x2="788.459" y2="486.1056">
				<stop  offset="0" style="stop-color:#000000"/>
				<stop  offset="0.1413" style="stop-color:#000000"/>
				<stop  offset="1" style="stop-color:#000000"/>
			</linearGradient>
			<rect x="30" y="638.982" style="fill:url(#SVGID_1_);" width="864" height="145"/>
			<path style="fill:#FFFFFF;" d="M711.299,759.42C711.298,759.42,711.299,759.42,711.299,759.42c-0.125,0-0.252-0.008-0.378-0.023
				l-73.848-8.896c-0.833-0.1-1.579-0.52-2.1-1.183c-0.521-0.662-0.752-1.485-0.651-2.318l6.404-53.152
				c0.205-1.707,1.761-2.962,3.504-2.751l73.847,8.896c0.831,0.099,1.576,0.52,2.098,1.185c0.521,0.664,0.754,1.486,0.653,2.316
				l-6.404,53.154C714.234,758.228,712.891,759.42,711.299,759.42L711.299,759.42z M643.852,692.072
				c-1.086,0-2.003,0.814-2.133,1.894l-6.404,53.152c-0.067,0.567,0.09,1.129,0.445,1.582c0.355,0.452,0.864,0.739,1.433,0.808
				l73.848,8.896c1.201,0.138,2.252-0.713,2.392-1.876l6.404-53.154c0.067-0.565-0.091-1.126-0.447-1.58s-0.864-0.741-1.431-0.81
				l-73.848-8.896C644.023,692.078,643.937,692.072,643.852,692.072L643.852,692.072z M709.327,753.347l-0.496-0.061l-68.776-8.285
				l0.061-0.496l5.704-47.356l0.496,0.061l68.776,8.284l-0.061,0.496L709.327,753.347L709.327,753.347z M641.168,744.128
				l67.286,8.105l5.524-45.867l-67.286-8.104L641.168,744.128L641.168,744.128z"/>
			<path style="fill:#FFFFFF;" d="M704.849,747.465l-0.496-0.061l-58.395-7.032l1.304-10.838l15.27-10.279
				c0.021-0.014,0.915-0.637,1.949-0.518c1.047,0.125,1.754,0.943,1.783,0.978l8.379,9.096l17.466-11.611
				c0.016-0.014,0.922-0.652,1.951-0.523c1.043,0.125,1.752,0.952,1.781,0.987l11.158,11.958L704.849,747.465L704.849,747.465z
				 M647.069,739.499l56.906,6.853l1.975-16.389l-10.856-11.637c-0.021-0.022-0.508-0.58-1.153-0.658
				c-0.675-0.072-1.257,0.349-1.263,0.353l-17.816,11.846l-0.683-0.084l-8.664-9.404c-0.016-0.019-0.502-0.57-1.154-0.648
				c-0.663-0.077-1.253,0.342-1.258,0.347l-14.903,10.032L647.069,739.499L647.069,739.499z"/>
			<g>
				<path style="fill:#FFFFFF;" d="M626.274,768.609L626.274,768.609c-0.507,0-1.013-0.125-1.462-0.362l-47.354-24.972
					c-0.74-0.391-1.285-1.05-1.535-1.856s-0.172-1.659,0.219-2.4l34.693-65.794c0.545-1.034,1.616-1.678,2.796-1.678
					c0.507,0,1.012,0.125,1.459,0.36l47.358,24.973c1.533,0.811,2.123,2.719,1.316,4.253l-34.697,65.798
					C628.523,767.966,627.452,768.609,626.274,768.609L626.274,768.609z M613.632,672.547c-0.808,0-1.54,0.438-1.911,1.145
					l-34.693,65.794c-0.267,0.505-0.318,1.086-0.147,1.638s0.542,1.002,1.046,1.268l47.354,24.972
					c0.306,0.162,0.65,0.247,0.995,0.247l0,0c0.806,0,1.537-0.438,1.909-1.146l34.697-65.797c0.551-1.047,0.147-2.35-0.898-2.902
					l-47.357-24.973C614.32,672.632,613.977,672.547,613.632,672.547L613.632,672.547z M625.001,762.177l-42.635-22.483
					l32.545-61.717l42.635,22.483L625.001,762.177L625.001,762.177z M583.718,739.275l40.865,21.55l31.611-59.947l-40.865-21.55
					L583.718,739.275L583.718,739.275z"/>
			</g>
			<g>
				<path style="fill:#FFFFFF;" d="M622.71,755.146l-15.897-8.381l-3.493-16.003c-0.007-0.021-0.282-1.076,0.208-2.006
					c0.488-0.926,1.516-1.297,1.56-1.312l19.467-7.751l-2.719-12.084c-0.007-0.024-0.278-1.073,0.214-2.006
					c0.487-0.927,1.505-1.297,1.549-1.312l17.128-6.706l9.654,5.092L622.71,755.146L622.71,755.146z M607.689,746.098l14.603,7.697
					l26.736-50.699l-8.365-4.412l-16.716,6.545c-0.02,0.007-0.711,0.266-1.014,0.841c-0.307,0.582-0.129,1.295-0.127,1.302
					l2.811,12.495l-0.32,0.607l-19.859,7.907c-0.023,0.009-0.723,0.268-1.025,0.843c-0.305,0.577-0.123,1.298-0.121,1.305
					L607.689,746.098L607.689,746.098z"/>
			</g>
			<path style="fill:#FFFFFF;" d="M154.345,772.294L154.345,772.294c-1.175,0-2.171-0.918-2.267-2.09l-2.912-35.794
				c-0.05-0.605,0.142-1.195,0.537-1.661c0.395-0.464,0.944-0.746,1.548-0.794l49.73-4.047c1.268-0.085,2.355,0.851,2.454,2.084
				l2.912,35.794c0.05,0.604-0.141,1.193-0.535,1.658c-0.395,0.464-0.944,0.747-1.55,0.796l-49.729,4.046
				C154.471,772.292,154.407,772.294,154.345,772.294L154.345,772.294z M201.166,728.9l-0.103,0.004l-49.731,4.047
				c-0.338,0.027-0.646,0.186-0.867,0.446c-0.223,0.262-0.33,0.593-0.303,0.932l2.912,35.793c0.055,0.657,0.612,1.172,1.271,1.172
				l0.106-0.004l49.73-4.046c0.339-0.027,0.647-0.187,0.869-0.447s0.328-0.591,0.301-0.929l-2.912-35.795
				C202.386,729.415,201.827,728.9,201.166,728.9L201.166,728.9z M155.592,768.286l-2.648-32.553l46.977-3.823l2.648,32.554
				L155.592,768.286L155.592,768.286z M154.021,736.649l2.486,30.559l44.982-3.66l-2.486-30.56L154.021,736.649L154.021,736.649z"/>
			<path style="fill:#FFFFFF;" d="M158.851,764.453l-0.614-7.537l8.713-8.856c0.046-0.05,0.564-0.589,1.315-0.649
				c0.717-0.06,1.354,0.388,1.418,0.437l6.607,4.771l9.824-9.871c0.043-0.048,0.564-0.593,1.315-0.654l0.14-0.006
				c0.688,0,1.221,0.403,1.279,0.45l8.992,6.405l0.997,12.257L158.851,764.453L158.851,764.453z M159.27,757.291l0.497,6.084
				l37.993-3.093l-0.878-10.796l-8.633-6.15c-0.02-0.015-0.332-0.25-0.68-0.25c-0.425,0.032-0.729,0.348-0.732,0.352l-10.173,10.222
				l-0.581,0.042l-7.001-5.055c-0.015-0.011-0.325-0.242-0.675-0.242c-0.43,0.032-0.731,0.342-0.734,0.346L159.27,757.291
				L159.27,757.291z"/>
			<path style="fill:#FFFFFF;" d="M272.814,758.93c-0.987,0-1.897-0.445-2.497-1.223l-32.687-42.403
				c-1.06-1.38-0.803-3.362,0.572-4.419l58.911-45.41c0.554-0.425,1.216-0.649,1.918-0.649c0.99,0,1.902,0.445,2.502,1.222
				l32.685,42.401c0.512,0.664,0.733,1.49,0.624,2.328c-0.109,0.836-0.534,1.577-1.198,2.089l-58.912,45.413
				C274.178,758.704,273.515,758.93,272.814,758.93L272.814,758.93z M299.032,665.825c-0.479,0-0.932,0.153-1.308,0.442
				l-58.911,45.41c-0.939,0.721-1.113,2.074-0.39,3.016l32.686,42.402c0.697,0.905,2.102,1.092,3.013,0.39l58.912-45.413
				c0.452-0.348,0.742-0.854,0.817-1.426c0.074-0.571-0.076-1.136-0.425-1.587l-32.685-42.401
				C300.334,666.129,299.71,665.825,299.032,665.825L299.032,665.825z M273.007,752.264l-0.306-0.396l-29.12-37.777l0.396-0.306
				l54.864-42.292l0.306,0.396l29.121,37.78l-0.396,0.306L273.007,752.264L273.007,752.264z M244.983,714.272l28.205,36.589
				l53.677-41.374l-28.206-36.592L244.983,714.272L244.983,714.272z"/>
			<path style="fill:#FFFFFF;" d="M273.97,744.826l-6.665-8.646l3.689-18.035c0.005-0.029,0.197-1.095,1.024-1.734
				c0.633-0.486,1.386-0.559,1.778-0.559c0.115,0,0.183,0.007,0.183,0.007l12.352,0.616l4.32-20.524
				c0.004-0.026,0.194-1.099,1.023-1.74c0.622-0.48,1.374-0.552,1.767-0.552c0.125,0,0.199,0.007,0.199,0.007l16.338,0.712
				l0.143,0.184l10.828,14.051l-0.396,0.306L273.97,744.826L273.97,744.826z M268.377,735.932l5.774,7.492l45.396-34.994
				l-10.076-13.074l-16.029-0.697c-0.214,0-0.754,0.033-1.155,0.343c-0.515,0.398-0.651,1.128-0.652,1.136l-4.407,20.935
				l-0.543,0.422l-12.887-0.642c-0.214,0-0.756,0.034-1.168,0.351c-0.514,0.397-0.651,1.123-0.652,1.13L268.377,735.932
				L268.377,735.932z"/>
			<path style="fill:#FFFFFF;" d="M249.4,774.773l-31.736-24.544l4.625-5.983l12.521-0.674c0.285,0,0.833,0.054,1.294,0.409
				c0.599,0.463,0.739,1.197,0.754,1.279l1.666,7.977l14.03-0.674c0.286,0,0.834,0.053,1.293,0.405
				c0.597,0.462,0.735,1.202,0.749,1.285l2.326,10.793L249.4,774.773L249.4,774.773z M219.066,750.05l30.154,23.321l6.626-8.568
				l-2.232-10.361c-0.025-0.14-0.135-0.493-0.378-0.681c-0.238-0.184-0.582-0.197-0.682-0.197l-14.456,0.696l-0.457-0.358
				l-1.766-8.454c-0.004-0.019-0.087-0.445-0.383-0.675c-0.24-0.186-0.583-0.2-0.683-0.2l-12.01,0.648L219.066,750.05
				L219.066,750.05z"/>
			<g style="opacity:0.8;">
				<g>
					<path style="fill:#FFFFFF;" d="M201.042,773.998L201.042,773.998c-0.84,0-1.609-0.456-2.007-1.19l-23.793-43.856
						c-0.29-0.531-0.354-1.146-0.183-1.729c0.173-0.585,0.562-1.067,1.097-1.357l31.565-17.125c1.068-0.581,2.512-0.148,3.088,0.917
						l23.794,43.854c0.288,0.532,0.352,1.147,0.179,1.732c-0.174,0.586-0.562,1.066-1.093,1.354l-31.566,17.127
						C201.792,773.903,201.419,773.998,201.042,773.998L201.042,773.998z M208.804,709.465c-0.211,0-0.42,0.053-0.605,0.153
						l-31.565,17.125c-0.299,0.162-0.517,0.433-0.614,0.762c-0.097,0.327-0.061,0.671,0.102,0.969l23.794,43.857
						c0.223,0.411,0.655,0.667,1.128,0.667l0,0c0.214,0,0.417-0.052,0.604-0.153l31.566-17.127c0.297-0.16,0.513-0.43,0.61-0.759
						s0.062-0.674-0.099-0.972l-23.795-43.855C209.707,709.72,209.275,709.465,208.804,709.465L208.804,709.465z M201.806,769.731
						l-22.477-41.427l28.708-15.575l22.477,41.427L201.806,769.731L201.806,769.731z M180.685,728.707l21.523,39.669l26.95-14.622
						l-21.523-39.669L180.685,728.707L180.685,728.707z"/>
				</g>
				<g>
					<path style="fill:#FFFFFF;" d="M203.285,764.999l-19.133-35.263l6.646-3.607l11.621,4.392c0.065,0.022,0.768,0.28,1.125,0.942
						c0.361,0.664,0.194,1.392,0.175,1.473l-1.695,7.972l13,4.999c0.06,0.02,0.77,0.275,1.13,0.938
						c0.359,0.664,0.187,1.396,0.166,1.478l-2.227,10.813L203.285,764.999L203.285,764.999z M185.508,730.139l18.18,33.505
						l9.521-5.165l2.138-10.382c0.032-0.139,0.075-0.506-0.071-0.775c-0.176-0.322-0.587-0.474-0.591-0.475l-13.463-5.177
						l-0.271-0.515l1.795-8.445c0.004-0.019,0.101-0.441-0.079-0.771c-0.176-0.325-0.582-0.477-0.586-0.479l-11.207-4.234
						L185.508,730.139L185.508,730.139z"/>
				</g>
			</g>
			<path style="fill:#FFFFFF;" d="M572.345,775.994L572.345,775.994c-1.175,0-2.171-0.918-2.267-2.09l-2.912-35.794
				c-0.05-0.605,0.142-1.195,0.537-1.661c0.395-0.464,0.944-0.746,1.548-0.794l49.73-4.047c1.266-0.085,2.356,0.851,2.454,2.084
				l2.912,35.794c0.05,0.604-0.141,1.193-0.535,1.658c-0.395,0.464-0.944,0.747-1.55,0.796l-49.729,4.046
				C572.471,775.992,572.407,775.994,572.345,775.994L572.345,775.994z M619.166,732.601l-0.103,0.004l-49.731,4.047
				c-0.338,0.027-0.646,0.186-0.867,0.446c-0.223,0.262-0.33,0.593-0.303,0.932l2.912,35.793c0.055,0.657,0.612,1.172,1.271,1.172
				l0.106-0.004l49.73-4.046c0.339-0.027,0.647-0.187,0.869-0.447s0.328-0.591,0.301-0.929l-2.912-35.795
				C620.386,733.115,619.827,732.601,619.166,732.601L619.166,732.601z M573.592,771.986l-2.648-32.553l46.977-3.823l2.648,32.554
				L573.592,771.986L573.592,771.986z M572.021,740.35l2.486,30.559l44.982-3.66l-2.486-30.56L572.021,740.35L572.021,740.35z"/>
			<path style="fill:#FFFFFF;" d="M576.851,768.153l-0.614-7.537l8.713-8.856c0.046-0.05,0.564-0.589,1.315-0.649
				c0.711-0.068,1.355,0.388,1.418,0.437l6.607,4.771l9.824-9.871c0.043-0.048,0.564-0.593,1.315-0.654l0.14-0.006
				c0.688,0,1.221,0.403,1.279,0.45l8.992,6.405l0.997,12.257L576.851,768.153L576.851,768.153z M577.27,760.991l0.497,6.084
				l37.993-3.093l-0.878-10.796l-8.633-6.15c-0.02-0.015-0.332-0.25-0.68-0.25c-0.425,0.032-0.729,0.348-0.732,0.352l-10.173,10.222
				l-0.581,0.042l-7.001-5.055c-0.015-0.011-0.325-0.242-0.675-0.242c-0.43,0.032-0.731,0.342-0.734,0.346L577.27,760.991
				L577.27,760.991z"/>
			<path style="fill:#FFFFFF;" d="M409.125,734.403L409.125,734.403c-1.626,0-3.004-1.271-3.137-2.892l-4.341-53.36
				c-0.068-0.835,0.194-1.649,0.74-2.293s1.308-1.035,2.144-1.103l74.137-6.032c1.727-0.152,3.256,1.175,3.394,2.882l4.343,53.361
				c0.068,0.836-0.195,1.65-0.741,2.293c-0.547,0.643-1.308,1.033-2.143,1.101l-74.138,6.032
				C409.296,734.4,409.21,734.403,409.125,734.403L409.125,734.403z M478.925,669.713c-0.058,0-0.116,0.002-0.175,0.007
				l-74.138,6.032c-0.57,0.046-1.089,0.313-1.462,0.754c-0.373,0.439-0.553,0.995-0.507,1.563l4.341,53.36
				c0.091,1.106,1.031,1.974,2.141,1.974l0,0c0.059,0,0.117-0.002,0.176-0.007l74.139-6.032c0.569-0.046,1.089-0.313,1.462-0.752
				c0.373-0.439,0.553-0.994,0.507-1.564l-4.343-53.361C480.976,670.579,480.035,669.713,478.925,669.713L478.925,669.713z
				 M411.207,728.409l-3.909-48.04l0.498-0.04l69.045-5.619l3.909,48.041l-0.498,0.04L411.207,728.409L411.207,728.409z
				 M408.376,681.285l3.747,46.046l67.549-5.496l-3.747-46.047L408.376,681.285L408.376,681.285z"/>
			<path style="fill:#FFFFFF;" d="M416.065,722.694l-0.887-10.88l12.91-13.122c0.02-0.022,0.761-0.812,1.805-0.896
				c1.056-0.097,1.91,0.574,1.943,0.601l10.027,7.239l14.795-14.864c0.017-0.02,0.76-0.818,1.806-0.903
				c1.07-0.102,1.91,0.585,1.944,0.611l13.321,9.488l1.457,17.914l-0.498,0.04L416.065,722.694L416.065,722.694z M416.212,712.189
				l0.77,9.427l57.128-4.65l-1.338-16.453l-12.962-9.233c-0.022-0.017-0.551-0.419-1.158-0.419l-0.105,0.004
				c-0.648,0.053-1.158,0.592-1.163,0.598l-15.095,15.166l-0.685,0.053l-10.367-7.484c-0.018-0.014-0.541-0.408-1.152-0.408
				l-0.11,0.004c-0.648,0.053-1.156,0.585-1.161,0.59L416.212,712.189L416.212,712.189z"/>
			<g>
				<path style="fill:#FFFFFF;" d="M833.567,744.135L833.567,744.135c-0.941,0-1.792-0.627-2.067-1.524l-9.854-32.08
					c-0.169-0.55-0.113-1.134,0.157-1.645c0.271-0.512,0.724-0.887,1.273-1.056l44.569-13.691c1.106-0.346,2.361,0.329,2.698,1.43
					l9.855,32.079c0.17,0.55,0.114,1.134-0.156,1.646c-0.271,0.511-0.723,0.886-1.272,1.055L834.2,744.039
					C833.995,744.103,833.782,744.135,833.567,744.135L833.567,744.135z M868.275,695.044c-0.113,0-0.227,0.017-0.336,0.05
					l-44.569,13.692c-0.295,0.091-0.537,0.292-0.683,0.567s-0.176,0.589-0.086,0.884l9.854,32.079
					c0.148,0.481,0.606,0.818,1.112,0.818l0,0c0.114,0,0.229-0.017,0.339-0.051l44.571-13.691c0.294-0.091,0.537-0.292,0.683-0.567
					s0.176-0.589,0.085-0.884l-9.855-32.08C869.241,695.38,868.783,695.044,868.275,695.044L868.275,695.044z M834.331,740.186
					l-8.982-29.237l42.164-12.954l8.982,29.238L834.331,740.186L834.331,740.186z M826.599,711.61l8.395,27.325l40.252-12.365
					l-8.395-27.326L826.599,711.61L826.599,711.61z"/>
			</g>
			<g>
				<path style="fill:#FFFFFF;" d="M836.534,736.032l-2.09-6.802l6.178-9.845c0.033-0.056,0.405-0.662,1.089-0.872
					c0.589-0.18,1.349,0.089,1.406,0.116l6.962,3.013l6.966-10.961c0.029-0.052,0.401-0.663,1.086-0.875
					c0.595-0.183,1.351,0.094,1.407,0.122l9.509,4.043l3.388,11.03L836.534,736.032L836.534,736.032z M835.534,729.375l1.662,5.407
					l33.988-10.442l-2.958-9.63l-9.101-3.871c-0.026-0.012-0.426-0.161-0.702-0.076c-0.272,0.084-0.483,0.367-0.524,0.438
					l-7.236,11.387l-0.545,0.161l-7.415-3.209c-0.021-0.01-0.427-0.155-0.699-0.069c-0.265,0.08-0.472,0.343-0.528,0.438
					L835.534,729.375L835.534,729.375z"/>
			</g>
			<g>
				<path style="fill:#FFFFFF;" d="M102.161,727.611L102.161,727.611c-0.162,0-0.325-0.018-0.484-0.053l-48.759-10.572
					c-1.228-0.266-2.01-1.48-1.746-2.708l7.613-35.098c0.257-1.193,1.509-1.999,2.705-1.741l48.765,10.574
					c0.592,0.127,1.101,0.48,1.43,0.994c0.329,0.512,0.439,1.12,0.312,1.713l-7.609,35.098
					C104.159,726.857,103.224,727.611,102.161,727.611L102.161,727.611z M61.013,678.388c-0.599,0-1.125,0.423-1.25,1.005
					l-7.613,35.098c-0.148,0.688,0.291,1.37,0.979,1.52l48.76,10.572c0.687,0.151,1.374-0.305,1.521-0.977l7.609-35.096
					c0.071-0.332,0.009-0.674-0.176-0.962s-0.47-0.485-0.801-0.557l-48.765-10.575C61.191,678.397,61.102,678.388,61.013,678.388
					L61.013,678.388z M101.155,723.454l-0.488-0.106l-45.572-9.881l6.92-31.921l46.062,9.989L101.155,723.454L101.155,723.454z
					 M56.284,712.701l44.105,9.563l6.498-29.964l-44.107-9.565L56.284,712.701L56.284,712.701z"/>
			</g>
			<g>
				<path style="fill:#FFFFFF;" d="M98.432,719.225l-39.209-8.503l2.606-12.018l9.779-5.176c0.037-0.022,0.778-0.387,1.445-0.24
					c0.736,0.161,1.181,0.77,1.229,0.838l8.425,11.064l7.195-3.865c0.041-0.025,0.786-0.384,1.447-0.237
					c0.736,0.161,1.178,0.762,1.227,0.83l7.459,9.917L98.432,719.225L98.432,719.225z M60.412,709.956l37.254,8.079l1.295-5.966
					l-7.193-9.562c-0.01-0.014-0.268-0.363-0.631-0.442c-0.319-0.072-0.744,0.133-0.748,0.134l-7.623,4.096l-0.568-0.122
					l-0.111-0.147l-8.61-11.309c-0.082-0.112-0.335-0.385-0.636-0.451c-0.321-0.066-0.744,0.137-0.747,0.139l-9.385,4.967
					L60.412,709.956L60.412,709.956z"/>
			</g>
			<g style="opacity:0.8;">
				<g>
					<path style="fill:#FFFFFF;" d="M92.678,748.059L92.678,748.059c-1.078,0-2.017-0.766-2.233-1.82l-7.198-35.185
						c-0.122-0.59-0.005-1.195,0.33-1.704c0.337-0.511,0.85-0.859,1.444-0.982l48.883-10c1.208-0.242,2.441,0.57,2.687,1.774
						l7.199,35.182c0.122,0.596,0.004,1.203-0.333,1.712c-0.336,0.509-0.849,0.854-1.443,0.975l-48.88,10.003
						C92.982,748.043,92.829,748.059,92.678,748.059L92.678,748.059z M134.361,699.32c-0.086,0-0.172,0.01-0.256,0.026
						l-48.884,10.001c-0.333,0.068-0.62,0.264-0.81,0.552c-0.188,0.285-0.254,0.624-0.187,0.952l7.199,35.186
						c0.121,0.592,0.647,1.021,1.253,1.021l0,0c0.085,0,0.17-0.009,0.254-0.026l48.882-10.003c0.334-0.066,0.62-0.261,0.809-0.546
						c0.189-0.285,0.256-0.626,0.187-0.959l-7.199-35.183C135.489,699.75,134.964,699.32,134.361,699.32L134.361,699.32z
						 M93.704,743.912l-6.546-31.998l46.175-9.446l6.546,31.997L93.704,743.912L93.704,743.912z M88.338,712.693l6.146,30.039
						l44.216-9.047l-6.146-30.038L88.338,712.693L88.338,712.693z"/>
				</g>
				<g>
					<path style="fill:#FFFFFF;" d="M96.376,739.734l-2.466-12.047l6.86-8.681c0.035-0.05,0.484-0.653,1.224-0.805
						c0.666-0.137,1.401,0.235,1.463,0.273l12.174,6.724l5.022-6.44c0.037-0.052,0.486-0.649,1.229-0.801
						c0.661-0.132,1.396,0.227,1.457,0.264l10.826,6.063l1.515,7.408L96.376,739.734L96.376,739.734z M94.982,727.943l2.173,10.611
						l37.346-7.641l-1.224-5.98l-10.439-5.847c-0.016-0.01-0.426-0.216-0.755-0.149c-0.366,0.075-0.627,0.418-0.629,0.421
						l-5.322,6.825l-0.57,0.119l-12.606-6.963c-0.021-0.012-0.437-0.229-0.76-0.157c-0.301,0.062-0.555,0.329-0.628,0.428
						L94.982,727.943L94.982,727.943z"/>
				</g>
			</g>
			<path style="fill:none;" d="M155.701,764.439c-0.069-0.125-0.285-0.424-0.575-0.524c-0.289-0.103-0.757,0.048-0.76,0.048
				l-13.431,5.246l-0.547-0.194l-4.367-7.45c-0.009-0.017-0.223-0.394-0.578-0.517c-0.291-0.104-0.754,0.043-0.757,0.043
				l-11.131,4.423l-2.001,5.768l36.011,12.501l3.553-10.232L155.701,764.439z"/>
			<path style="fill:none;" d="M809.26,749.324l0.496,0.061l68.775,8.284l-0.061,0.496l-3.153,26.178h4.489l3.469-28.793
				c0.067-0.565-0.091-1.126-0.447-1.58c-0.355-0.454-0.863-0.741-1.43-0.81l-73.849-8.896c-0.087-0.01-0.174-0.016-0.259-0.016
				c-1.086,0-2.003,0.814-2.133,1.894l-4.603,38.201h4.486L809.26,749.324z"/>
			<path style="fill:none;" d="M869.391,782.139l-10.856-11.637c-0.02-0.021-0.508-0.58-1.154-0.658
				c-0.672-0.065-1.256,0.349-1.262,0.353L838.3,782.042l-0.681-0.084l-8.664-9.404c-0.016-0.019-0.503-0.57-1.155-0.648
				c-0.662-0.077-1.252,0.342-1.257,0.346l-14.904,10.033l-0.247,2.059h57.733L869.391,782.139z"/>
			<path style="fill:none;" d="M810.701,781.71l15.271-10.279c0.02-0.014,0.911-0.641,1.948-0.518
				c1.046,0.125,1.754,0.942,1.784,0.978l8.379,9.096l17.466-11.611c0.016-0.013,0.919-0.658,1.95-0.523
				c1.043,0.125,1.752,0.951,1.782,0.986l11.158,11.959l-0.307,2.546h4.178l3.107-25.801l-67.285-8.104l-4.084,33.905h4.336
				L810.701,781.71z"/>
			<path style="fill:none;" d="M33.326,705.79L33.326,705.79c0.079,0,0.825,0.017,1.374,0.516c0.561,0.506,0.644,1.25,0.651,1.333
				l1.042,8.082l13.922,0.411c0.131-0.031,0.835,0.022,1.377,0.512c0.559,0.507,0.639,1.255,0.646,1.339l1.481,10.939l-8.255,9.114
				L30,723.937v3.45l15.664,14.191l20.586-22.722l-33.446-30.302L30,691.649v14.062L33.326,705.79z"/>
			<path style="fill:none;" d="M45.494,736.624l7.272-8.028l-1.422-10.503c-0.015-0.143-0.097-0.502-0.323-0.708
				c-0.229-0.206-0.597-0.252-0.719-0.253l-14.411-0.426l-0.43-0.392l-1.104-8.566c-0.002-0.019-0.051-0.451-0.328-0.701
				c-0.275-0.25-0.711-0.257-0.716-0.257L30,706.711v15.877L45.494,736.624z"/>
			<path style="fill:none;" d="M32.733,687.143l34.929,31.644L45.734,742.99L30,728.736v3.916l14.812,13.418
				c0.234,0.212,0.538,0.329,0.855,0.329c0.361,0,0.706-0.152,0.946-0.418l24.114-26.615c0.227-0.25,0.342-0.576,0.324-0.919
				c-0.017-0.343-0.164-0.657-0.415-0.884l-36.979-33.5c-0.233-0.212-0.536-0.328-0.854-0.328c-0.362,0-0.708,0.152-0.949,0.418
				L30,686.2v3.96L32.733,687.143z"/>
			<path style="fill:#FFFFFF;" d="M883.615,752.992c-0.521-0.665-1.267-1.086-2.098-1.185l-73.848-8.896
				c-1.732-0.214-3.298,1.045-3.504,2.751l-4.616,38.32h1.006l4.603-38.201c0.13-1.079,1.047-1.894,2.133-1.894
				c0.085,0,0.172,0.006,0.259,0.016l73.849,8.896c0.566,0.068,1.074,0.355,1.43,0.81c0.356,0.454,0.515,1.015,0.447,1.58
				l-3.469,28.793h1.007l3.454-28.674C884.368,754.479,884.137,753.656,883.615,752.992z"/>
			<polygon style="fill:#FFFFFF;" points="878.531,757.309 809.756,749.024 809.26,748.964 805.042,783.982 806.049,783.982 
				810.133,750.077 877.418,758.182 874.311,783.982 875.317,783.982 878.471,757.805 			"/>
			<path style="fill:#FFFFFF;" d="M859.281,769.478c-0.03-0.035-0.739-0.861-1.782-0.986c-1.031-0.135-1.935,0.511-1.95,0.523
				l-17.466,11.611l-8.379-9.096c-0.03-0.035-0.738-0.853-1.784-0.978c-1.037-0.123-1.929,0.504-1.948,0.518l-15.271,10.279
				l-0.316,2.633h1.007l0.247-2.059l14.904-10.033c0.005-0.004,0.595-0.423,1.257-0.346c0.652,0.078,1.14,0.63,1.155,0.648
				l8.664,9.404l0.681,0.084l17.818-11.846c0.006-0.004,0.59-0.418,1.262-0.353c0.646,0.078,1.135,0.637,1.154,0.658l10.856,11.637
				l-0.266,2.204h1.008l0.307-2.546L859.281,769.478z"/>
			<path style="fill:#FFFFFF;" d="M45.667,747.399c0.644,0,1.259-0.272,1.688-0.747l24.113-26.614
				c0.406-0.448,0.613-1.03,0.583-1.64c-0.03-0.61-0.294-1.17-0.742-1.576L34.33,683.323c-0.891-0.81-2.407-0.735-3.216,0.158
				L30,684.711v1.489l1.854-2.047c0.241-0.266,0.587-0.418,0.949-0.418c0.318,0,0.621,0.116,0.854,0.328l36.979,33.5
				c0.251,0.227,0.398,0.541,0.415,0.884c0.018,0.343-0.098,0.669-0.324,0.919l-24.114,26.615c-0.24,0.266-0.585,0.418-0.946,0.418
				c-0.317,0-0.621-0.117-0.855-0.329L30,732.652V734l14.14,12.811C44.558,747.19,45.101,747.399,45.667,747.399z"/>
			<polygon style="fill:#FFFFFF;" points="67.662,718.786 32.733,687.143 30,690.16 30,691.649 32.804,688.555 66.25,718.856 
				45.664,741.578 30,727.387 30,728.736 45.734,742.99 			"/>
			<path style="fill:#FFFFFF;" d="M53.819,728.922l-1.481-10.939c-0.007-0.084-0.087-0.832-0.646-1.339
				c-0.542-0.489-1.246-0.543-1.377-0.512l-13.922-0.411l-1.042-8.082c-0.008-0.083-0.091-0.827-0.651-1.333
				c-0.549-0.499-1.295-0.516-1.373-0.516h-0.001L30,705.711v1l3.313,0.079c0.005,0,0.44,0.007,0.716,0.257
				c0.277,0.25,0.326,0.683,0.328,0.701l1.104,8.566l0.43,0.392l14.411,0.426c0.122,0.001,0.49,0.047,0.719,0.253
				c0.227,0.206,0.309,0.565,0.323,0.708l1.422,10.503l-7.272,8.028L30,722.588v1.349l15.564,14.1L53.819,728.922z"/>
			<path style="fill:none;" d="M890.459,753.603l-0.547-0.198l-4.341-7.465c-0.009-0.016-0.222-0.395-0.575-0.519
				c-0.292-0.102-0.753,0.038-0.755,0.04l-11.149,4.387l-2.021,5.759L894,763.654v-11.422L890.459,753.603z"/>
			<path style="fill:none;" d="M693.779,671.388l-46.978,3.822l-2.648-32.553l43.833-3.567h-35.795l-9.648,0.785
				c-0.339,0.027-0.646,0.186-0.868,0.446c-0.223,0.262-0.329,0.592-0.302,0.931l2.912,35.794c0.054,0.657,0.611,1.172,1.27,1.172
				l0.106-0.004l49.731-4.046c0.702-0.058,1.227-0.675,1.17-1.377l-2.743-33.701h-2.669L693.779,671.388z"/>
			<path style="fill:none;" d="M869.796,756.22l2.503-7.136l0.214-0.083l11.349-4.465c0.038-0.018,0.871-0.265,1.466-0.059
				c0.713,0.249,1.078,0.901,1.118,0.976l4.097,7.045L894,751.16v-16.229l-17.309-6.076l-10.156,28.929L894,767.424v-2.709
				L869.796,756.22z"/>
			<path style="fill:none;" d="M875.119,684.459c-0.193,0.283-0.267,0.621-0.204,0.952l6.604,35.302
				c0.127,0.68,0.793,1.156,1.492,1.021L894,719.678v-2.953l-10.164,1.901l-6.008-32.104L894,683.497v-2.954l-18.065,3.38
				C875.603,683.985,875.313,684.176,875.119,684.459z"/>
			<polygon style="fill:none;" points="32.559,696.87 34.011,682.468 30,678.334 30,696.612 			"/>
			<path style="fill:none;" d="M102.971,680.025l-32.218,9.134l-13.185-46.506l12.571-3.563H60.038l-4.84,1.372
				c-0.338,0.095-0.619,0.319-0.792,0.63s-0.216,0.667-0.12,1.003l13.965,49.259c0.192,0.683,0.943,1.106,1.636,0.912l35.453-10.051
				c0.339-0.096,0.62-0.318,0.793-0.628s0.215-0.667,0.118-1.005L94.488,639.09h-3.121L102.971,680.025z"/>
			<path style="fill:none;" d="M71.261,652.917c0.104,0.37,0.488,0.615,0.492,0.617l12.306,8.204l0.157,0.565l-3.693,8.051
				c-0.009,0.018-0.203,0.423-0.096,0.799c0.104,0.371,0.483,0.615,0.487,0.617l10.271,6.762l6.045-1.715l-10.679-37.658
				l-10.712,3.038l-4.476,9.918C71.354,652.138,71.155,652.546,71.261,652.917z"/>
			<path style="fill:none;" d="M98.465,677.507l-7.447,2.113l-10.644-7.007c-0.059-0.036-0.702-0.448-0.91-1.188
				c-0.211-0.744,0.12-1.431,0.158-1.506l3.491-7.61l-11.9-7.934c-0.056-0.033-0.705-0.446-0.915-1.188
				c-0.209-0.74,0.126-1.431,0.165-1.507l4.656-10.32l8.013-2.271h-9.326l-15.003,4.253l12.64,44.582l30.294-8.589L90.327,639.09
				h-2.756L98.465,677.507z"/>
			<path style="fill:none;" d="M129.645,752.441l-4.896-7.155l-16.442-1.852c-0.076-0.01-0.672-0.092-1.163,0.246
				c-0.489,0.335-0.65,0.979-0.652,0.985l-3.084,11.416l-0.543,0.379l-19.631-2.093c-0.032-0.004-0.112-0.014-0.231-0.014
				c-0.215,0-0.623,0.033-0.943,0.252c-0.481,0.331-0.642,0.983-0.643,0.989l-3.922,14.156l8.572,12.521L129.645,752.441z"/>
			<path style="fill:none;" d="M80.446,755.35c0.003-0.019,0.235-1.012,1.046-1.568c0.796-0.544,1.866-0.405,1.867-0.404
				l19.189,2.045l2.973-11.002c0.005-0.023,0.24-1.006,1.056-1.564c0.521-0.357,1.115-0.433,1.521-0.433
				c0.204,0,0.333,0.02,0.333,0.02l16.883,1.9l5.721,8.358l-45.229,30.963l-9.4-13.73L80.446,755.35z"/>
			<path style="fill:none;" d="M884.635,717.46l9.365-1.753v-2.602l-7.425,1.389l-2.261-12.087l7.005-8.563
				c0.035-0.049,0.497-0.646,1.237-0.783c0.721-0.135,1.354,0.232,1.443,0.287v-8.834l-15.006,2.808L884.635,717.46z"/>
			<path style="fill:none;" d="M41.776,660.654l-0.051,0.497l-4.224,41.925l-0.497-0.051L30,702.319v4.153l9.055,0.913
				c1.001,0.092,1.913-0.658,2.013-1.645l4.734-46.99c0.102-1.006-0.636-1.908-1.645-2.011L30,655.313v4.154L41.776,660.654z"/>
			<path style="fill:none;" d="M688.971,667.206l-0.878-10.796l-8.633-6.15c-0.02-0.015-0.332-0.25-0.681-0.25
				c-0.364,0.027-0.649,0.265-0.733,0.354l-10.172,10.22l-0.579,0.042l-7.003-5.055c-0.015-0.012-0.324-0.242-0.675-0.242
				c-0.429,0.032-0.732,0.343-0.735,0.346l-8.402,8.541l0.498,6.084L688.971,667.206z"/>
			<path style="fill:none;" d="M865.26,758.396l10.818-30.817L894,733.87v-3.077l-18.264-6.41c-0.136-0.048-0.276-0.072-0.418-0.072
				c-0.544,0-1.03,0.344-1.21,0.855l-11.895,33.885c-0.112,0.32-0.092,0.667,0.057,0.976c0.148,0.308,0.406,0.538,0.726,0.65
				L894,771.561v-3.076L865.26,758.396z"/>
			<polygon style="fill:none;" points="35.052,682.104 33.453,697.966 32.956,697.915 30,697.617 30,701.314 36.607,701.98 
				40.681,661.549 30,660.473 30,676.898 			"/>
			<path style="fill:none;" d="M892.739,694.043c-0.3,0.057-0.56,0.321-0.634,0.418l-6.723,8.22l1.991,10.647l6.626-1.24V694.5
				l-0.5-0.287C893.48,694.201,893.108,693.981,892.739,694.043z"/>
			<path style="fill:none;" d="M647.718,674.132l44.983-3.66l-2.487-30.56l-44.982,3.661L647.718,674.132z M658.159,654.983
				c0.047-0.051,0.565-0.589,1.315-0.649c0.737-0.047,1.357,0.389,1.418,0.438l6.607,4.77l9.825-9.871
				c0.043-0.048,0.562-0.593,1.314-0.654l0.14-0.006c0.688,0,1.222,0.403,1.28,0.45l8.992,6.405l0.997,12.257l-39.987,3.255
				l-0.615-7.537L658.159,654.983z"/>
			<polygon style="fill:#FFFFFF;" points="70.753,689.159 102.971,680.025 91.367,639.09 90.327,639.09 101.736,679.336 
				71.442,687.925 58.803,643.343 73.806,639.09 70.14,639.09 57.568,642.653 			"/>
			<path style="fill:#FFFFFF;" d="M53.532,640.605c-0.303,0.544-0.376,1.17-0.208,1.763l13.964,49.258
				c0.281,0.995,1.203,1.69,2.24,1.69c0.213,0,0.426-0.03,0.632-0.088l35.453-10.051c0.595-0.169,1.09-0.561,1.393-1.104
				s0.377-1.17,0.208-1.766L95.528,639.09h-1.04l11.763,41.492c0.097,0.338,0.055,0.695-0.118,1.005s-0.454,0.532-0.793,0.628
				l-35.453,10.051c-0.692,0.194-1.443-0.229-1.636-0.912l-13.965-49.259c-0.096-0.336-0.053-0.692,0.12-1.003
				s0.454-0.535,0.792-0.63l4.84-1.372h-3.67l-1.443,0.409C54.331,639.668,53.836,640.061,53.532,640.605z"/>
			<path style="fill:#FFFFFF;" d="M70.463,651.682c-0.039,0.076-0.374,0.767-0.165,1.507c0.21,0.741,0.859,1.154,0.915,1.188
				l11.9,7.934l-3.491,7.61c-0.038,0.075-0.369,0.762-0.158,1.506c0.208,0.739,0.852,1.151,0.91,1.188l10.644,7.007l7.447-2.113
				L87.571,639.09h-4.439l-8.013,2.271L70.463,651.682z M86.552,639.159l10.679,37.658l-6.045,1.715l-10.271-6.762
				c-0.004-0.002-0.383-0.246-0.487-0.617c-0.107-0.376,0.087-0.781,0.096-0.799l3.693-8.051l-0.157-0.565l-12.306-8.204
				c-0.004-0.002-0.388-0.247-0.492-0.617c-0.105-0.371,0.093-0.779,0.104-0.802l4.476-9.918L86.552,639.159z"/>
			<path style="fill:#FFFFFF;" d="M646.802,675.21l46.978-3.822l-2.629-32.298h-3.164l-43.833,3.567L646.802,675.21z
				 M692.701,670.472l-44.983,3.66l-2.486-30.559l44.982-3.661L692.701,670.472z"/>
			<path style="fill:#FFFFFF;" d="M640.377,641.334l2.912,35.793c0.095,1.173,1.09,2.091,2.266,2.091
				c0.062,0,0.126-0.002,0.188-0.008l49.73-4.046c1.252-0.102,2.187-1.202,2.085-2.454l-2.736-33.62h-1.003l2.743,33.701
				c0.057,0.702-0.468,1.319-1.17,1.377l-49.731,4.046l-0.106,0.004c-0.658,0-1.216-0.515-1.27-1.172l-2.912-35.794
				c-0.027-0.339,0.079-0.669,0.302-0.931c0.222-0.261,0.529-0.419,0.868-0.446l9.648-0.785h-10.506
				c-0.292,0.137-0.557,0.33-0.772,0.584C640.518,640.14,640.327,640.729,640.377,641.334z"/>
			<path style="fill:#FFFFFF;" d="M690.049,668.122l-0.997-12.257l-8.992-6.405c-0.059-0.047-0.592-0.45-1.28-0.45l-0.14,0.006
				c-0.752,0.062-1.271,0.606-1.314,0.654l-9.825,9.871l-6.607-4.77c-0.061-0.049-0.681-0.484-1.418-0.438
				c-0.75,0.061-1.269,0.599-1.315,0.649l-8.713,8.856l0.615,7.537L690.049,668.122z M658.882,655.674
				c0.003-0.003,0.307-0.313,0.735-0.346c0.351,0,0.66,0.23,0.675,0.242l7.003,5.055l0.579-0.042l10.172-10.22
				c0.084-0.089,0.369-0.326,0.733-0.354c0.349,0,0.661,0.235,0.681,0.25l8.633,6.15l0.878,10.796l-37.993,3.093l-0.498-6.084
				L658.882,655.674z"/>
			<polygon style="fill:#FFFFFF;" points="865.26,758.396 894,768.484 894,767.424 866.535,757.783 876.691,728.854 894,734.931 
				894,733.87 876.078,727.579 			"/>
			<path style="fill:#FFFFFF;" d="M873.165,724.834l-11.895,33.886c-0.201,0.572-0.166,1.191,0.099,1.74s0.726,0.961,1.297,1.16
				L894,772.619v-1.059l-31.004-10.884c-0.319-0.112-0.577-0.343-0.726-0.65c-0.148-0.309-0.169-0.655-0.057-0.976l11.895-33.885
				c0.18-0.512,0.666-0.855,1.21-0.855c0.142,0,0.282,0.024,0.418,0.072l18.264,6.41v-1.06l-17.932-6.294
				C874.911,723.034,873.569,723.682,873.165,724.834z"/>
			<path style="fill:#FFFFFF;" d="M886.445,745.453c-0.04-0.074-0.405-0.727-1.118-0.976c-0.595-0.206-1.428,0.041-1.466,0.059
				l-11.349,4.465l-0.214,0.083l-2.503,7.136L894,764.715v-1.061l-22.929-8.048l2.021-5.759l11.149-4.387
				c0.002-0.002,0.463-0.142,0.755-0.04c0.354,0.124,0.566,0.503,0.575,0.519l4.341,7.465l0.547,0.198l3.541-1.37v-1.072
				l-3.458,1.338L886.445,745.453z"/>
			<polygon style="fill:#FFFFFF;" points="884.635,717.46 878.994,687.321 894,684.514 894,683.497 877.828,686.522 
				883.836,718.626 894,716.725 894,715.707 			"/>
			<path style="fill:#FFFFFF;" d="M883.011,721.733c-0.699,0.136-1.365-0.341-1.492-1.021l-6.604-35.302
				c-0.062-0.331,0.011-0.669,0.204-0.952c0.194-0.283,0.483-0.474,0.815-0.536l18.065-3.38v-1.017l-18.249,3.414
				c-0.595,0.111-1.112,0.45-1.457,0.954c-0.345,0.503-0.473,1.107-0.361,1.701l6.604,35.302c0.202,1.076,1.145,1.857,2.241,1.857
				c0.138,0,0.277-0.013,0.417-0.039L894,720.693v-1.016L883.011,721.733z"/>
			<path style="fill:#FFFFFF;" d="M887.374,713.328l-1.991-10.647l6.723-8.22c0.074-0.097,0.334-0.361,0.634-0.418
				c0.369-0.062,0.741,0.158,0.761,0.17l0.5,0.287v-1.152c-0.09-0.055-0.723-0.422-1.443-0.287c-0.74,0.138-1.202,0.734-1.237,0.783
				l-7.005,8.563l2.261,12.087l7.425-1.389v-1.018L887.374,713.328z"/>
			<path style="fill:#FFFFFF;" d="M131.035,752.701l-5.721-8.358l-16.883-1.9c0,0-0.129-0.02-0.333-0.02
				c-0.406,0-1.001,0.075-1.521,0.433c-0.815,0.559-1.051,1.541-1.056,1.564l-2.973,11.002l-19.189-2.045
				c-0.001-0.001-1.071-0.14-1.867,0.404c-0.811,0.557-1.043,1.55-1.046,1.568l-4.041,14.584l9.4,13.73L131.035,752.701z
				 M81.415,755.596c0.001-0.006,0.161-0.658,0.643-0.989c0.32-0.219,0.729-0.252,0.943-0.252c0.119,0,0.199,0.01,0.231,0.014
				l19.631,2.093l0.543-0.379l3.084-11.416c0.002-0.007,0.163-0.65,0.652-0.985c0.491-0.338,1.087-0.256,1.163-0.246l16.442,1.852
				l4.896,7.155l-43.579,29.832l-8.572-12.521L81.415,755.596z"/>
			<path style="fill:#FFFFFF;" d="M39.237,708.395C39.238,708.395,39.238,708.395,39.237,708.395c1.464,0,2.678-1.098,2.824-2.554
				l4.734-46.989c0.157-1.555-0.98-2.947-2.538-3.105L30,654.309v1.005l14.157,1.427c1.009,0.103,1.746,1.005,1.645,2.011
				l-4.734,46.99c-0.1,0.986-1.012,1.736-2.013,1.645L30,706.473v1.004l8.955,0.903C39.05,708.39,39.145,708.395,39.237,708.395z"/>
			<polygon style="fill:#FFFFFF;" points="37.502,703.076 41.726,661.151 41.776,660.654 30,659.468 30,660.473 40.681,661.549 
				36.607,701.98 30,701.314 30,702.319 37.005,703.025 			"/>
			<polygon style="fill:#FFFFFF;" points="33.453,697.966 35.052,682.104 30,676.898 30,678.334 34.011,682.468 32.559,696.87 
				30,696.612 30,697.617 32.956,697.915 			"/>
			<path style="fill:none;" d="M390.146,729.554l-15.627,3.013c-0.029,0.005-0.763,0.121-1.172,0.628
				c-0.408,0.507-0.371,1.25-0.371,1.258l0.568,21.386l-0.434,0.534l-12.569,2.342c-0.024,0.004-0.752,0.123-1.166,0.634
				c-0.409,0.506-0.374,1.243-0.374,1.251l0.579,17.954l6.714,5.43h1.062l35.622-44.048L390.146,729.554z"/>
			<path style="fill:none;" d="M330.396,763.058l43.875-54.251l37.478,30.312l-36.287,44.864h6.193l35.288-43.632
				c0.36-0.444,0.524-1.005,0.464-1.578c-0.061-0.572-0.338-1.085-0.782-1.443L375,703.662c-0.378-0.305-0.856-0.474-1.348-0.474
				c-0.658,0-1.27,0.289-1.678,0.793l-46.776,57.834c-0.359,0.443-0.523,1.003-0.461,1.577c0.062,0.574,0.339,1.088,0.782,1.446
				l23.669,19.144h7.081L330.396,763.058z"/>
			<path style="fill:none;" d="M374.42,710.213l-42.617,52.696l26.057,21.073h6.844l-6.107-4.939l-0.594-18.398
				c-0.002-0.03-0.062-1.111,0.596-1.926c0.664-0.82,1.734-0.984,1.779-0.991l12.156-2.266l-0.557-20.966
				c-0.002-0.026-0.065-1.113,0.592-1.93c0.661-0.818,1.739-0.979,1.785-0.986l16.06-3.097l13.972,11.303l-35.743,44.196h5.535
				l36.166-44.716L374.42,710.213z"/>
			<path style="fill:#FFFFFF;" d="M418.401,738.667c-0.088-0.838-0.496-1.59-1.147-2.115l-41.625-33.667
				c-0.556-0.449-1.258-0.696-1.977-0.696c-0.961,0-1.856,0.425-2.455,1.164l-46.776,57.833c-0.527,0.651-0.769,1.473-0.679,2.313
				c0.091,0.839,0.498,1.591,1.148,2.117l22.708,18.366h1.59l-23.669-19.144c-0.443-0.358-0.721-0.872-0.782-1.446
				c-0.062-0.574,0.102-1.134,0.461-1.577l46.776-57.834c0.408-0.504,1.02-0.793,1.678-0.793c0.491,0,0.97,0.169,1.348,0.474
				l41.625,33.667c0.444,0.358,0.722,0.871,0.782,1.443c0.061,0.573-0.104,1.134-0.464,1.578l-35.288,43.632h1.287l34.778-43.003
				C418.249,740.328,418.49,739.507,418.401,738.667z"/>
			<polygon style="fill:#FFFFFF;" points="374.271,708.807 330.396,763.058 356.27,783.982 357.859,783.982 331.803,762.909 
				374.42,710.213 410.343,739.267 374.177,783.982 375.462,783.982 411.749,739.118 			"/>
			<path style="fill:#FFFFFF;" d="M390.413,728.483l-16.06,3.097c-0.046,0.007-1.124,0.168-1.785,0.986
				c-0.657,0.816-0.594,1.903-0.592,1.93l0.557,20.966l-12.156,2.266c-0.045,0.007-1.115,0.171-1.779,0.991
				c-0.658,0.814-0.598,1.896-0.596,1.926l0.594,18.398l6.107,4.939h1.591l-6.714-5.43l-0.579-17.954
				c0-0.008-0.035-0.745,0.374-1.251c0.414-0.511,1.142-0.63,1.166-0.634l12.569-2.342l0.434-0.534l-0.568-21.386
				c0-0.008-0.037-0.751,0.371-1.258c0.409-0.507,1.143-0.623,1.172-0.628l15.627-3.013l12.833,10.381l-35.622,44.048h1.285
				l35.743-44.196L390.413,728.483z"/>
			<path style="fill:none;" d="M273.289,753.264c-0.043-0.34-0.214-0.642-0.481-0.849l-39.469-30.526
				c-0.224-0.174-0.492-0.265-0.776-0.265c-0.401,0-0.771,0.18-1.015,0.494l-21.973,28.406c-0.207,0.269-0.297,0.604-0.254,0.943
				c0.043,0.339,0.215,0.64,0.484,0.847l39.467,30.527c0.54,0.415,1.377,0.308,1.793-0.229l21.971-28.408
				C273.243,753.938,273.332,753.604,273.289,753.264z M249.955,779.7l-37.281-28.835l19.98-25.835l37.283,28.835L249.955,779.7z"/>
			
				<rect x="225.974" y="729.799" transform="matrix(-0.6118 0.791 -0.791 -0.6118 984.0541 1021.8179)" style="fill:none;" width="30.662" height="45.133"/>
			<path style="fill:#FFFFFF;" d="M251.856,783.225l21.971-28.407c0.37-0.478,0.531-1.074,0.454-1.68s-0.383-1.144-0.862-1.514
				l-39.468-30.526c-0.963-0.745-2.451-0.552-3.194,0.409l-21.973,28.406c-0.371,0.48-0.532,1.077-0.455,1.681
				c0.077,0.605,0.385,1.143,0.865,1.513l39.467,30.526c0.183,0.141,0.383,0.248,0.593,0.326h1.569
				C251.226,783.814,251.587,783.572,251.856,783.225z M249.272,782.842l-39.467-30.527c-0.27-0.207-0.441-0.508-0.484-0.847
				c-0.043-0.34,0.047-0.675,0.254-0.943l21.973-28.406c0.243-0.314,0.613-0.494,1.015-0.494c0.284,0,0.553,0.091,0.776,0.265
				l39.469,30.526c0.268,0.207,0.438,0.509,0.481,0.849c0.043,0.341-0.046,0.675-0.253,0.941l-21.971,28.408
				C250.649,783.149,249.812,783.257,249.272,782.842z"/>
			<path style="fill:#FFFFFF;" d="M212.674,750.865l37.281,28.835l19.982-25.835l-37.283-28.835L212.674,750.865z M268.535,754.045
				l-18.76,24.253l-35.699-27.612l18.758-24.253L268.535,754.045z"/>
			<path style="fill:none;" d="M155.701,764.439c-0.069-0.125-0.285-0.424-0.575-0.524c-0.289-0.103-0.757,0.048-0.76,0.048
				l-13.431,5.246l-0.547-0.194l-4.367-7.45c-0.009-0.017-0.223-0.394-0.578-0.517c-0.291-0.104-0.754,0.043-0.757,0.043
				l-11.131,4.423l-2.001,5.768l36.011,12.501l3.553-10.232L155.701,764.439z"/>
			<path style="fill:none;" d="M115.753,774.091l10.712-30.854l44.525,15.458l-8.779,25.288h2.815l9.01-25.953
				c0.111-0.318,0.09-0.664-0.06-0.973s-0.408-0.54-0.728-0.65l-47.136-16.364c-0.135-0.047-0.274-0.071-0.415-0.071
				c-0.546,0-1.032,0.345-1.21,0.858l-11.779,33.926c-0.111,0.32-0.091,0.667,0.06,0.975c0.149,0.308,0.408,0.538,0.729,0.648
				l21.902,7.604h8.845L115.753,774.091z"/>
			<path style="fill:none;" d="M127.082,744.51l-10.056,28.964l30.27,10.509h7.795l-34.81-12.084l2.479-7.145l11.546-4.588
				c0.038-0.019,0.869-0.273,1.465-0.063c0.716,0.248,1.083,0.898,1.122,0.973l4.121,7.03l12.973-5.067
				c0.031-0.015,0.866-0.275,1.466-0.068c0.714,0.248,1.08,0.905,1.119,0.979l5.644,9.489l-3.66,10.544h2.596l8.565-24.671
				L127.082,744.51z"/>
			<path style="fill:#FFFFFF;" d="M174.876,756.621c-0.266-0.549-0.727-0.961-1.299-1.16l-47.135-16.363
				c-1.162-0.408-2.498,0.25-2.899,1.403l-11.779,33.926c-0.198,0.573-0.161,1.191,0.104,1.74c0.267,0.548,0.729,0.958,1.302,1.156
				l19.18,6.659h3.05l-21.902-7.604c-0.32-0.11-0.579-0.341-0.729-0.648c-0.15-0.308-0.171-0.654-0.06-0.975l11.779-33.926
				c0.178-0.514,0.664-0.858,1.21-0.858c0.141,0,0.28,0.024,0.415,0.071l47.136,16.364c0.319,0.11,0.578,0.342,0.728,0.65
				s0.171,0.654,0.06,0.973l-9.01,25.953h1.059l8.896-25.625C175.18,757.787,175.143,757.17,174.876,756.621z"/>
			<polygon style="fill:#FFFFFF;" points="126.465,743.236 115.753,774.091 144.244,783.982 147.296,783.982 117.026,773.474 
				127.082,744.51 169.717,759.312 161.151,783.982 162.211,783.982 170.99,758.694 			"/>
			<path style="fill:#FFFFFF;" d="M156.572,763.949c-0.039-0.074-0.405-0.731-1.119-0.979c-0.6-0.207-1.435,0.054-1.466,0.068
				l-12.973,5.067l-4.121-7.03c-0.039-0.074-0.406-0.725-1.122-0.973c-0.596-0.21-1.427,0.045-1.465,0.063l-11.546,4.588
				l-2.479,7.145l34.81,12.084h3.465l3.66-10.544L156.572,763.949z M121.555,771.281l2.001-5.768l11.131-4.423
				c0.003,0,0.466-0.147,0.757-0.043c0.355,0.123,0.569,0.5,0.578,0.517l4.367,7.45l0.547,0.194l13.431-5.246
				c0.003,0,0.471-0.15,0.76-0.048c0.29,0.101,0.506,0.399,0.575,0.524l5.417,9.11l-3.553,10.232L121.555,771.281z"/>
			<polygon style="fill:none;" points="112.409,718.601 60.872,753.883 81.478,783.982 92.231,783.982 136.448,753.713 			"/>
			<path style="fill:none;" d="M59.481,753.623l0.413-0.282l52.774-36.131l25.17,36.763l-0.413,0.282l-43.423,29.728h7.731
				l40.292-27.585c0.428-0.292,0.716-0.733,0.812-1.244c0.097-0.513-0.012-1.031-0.305-1.459l-27.907-40.762
				c-0.361-0.528-0.963-0.845-1.609-0.845c-0.393,0-0.77,0.117-1.092,0.339l-56.638,38.771c-0.426,0.293-0.713,0.737-0.809,1.252
				c-0.096,0.513,0.012,1.026,0.302,1.448l20.594,30.084h4.891L59.481,753.623z"/>
			<polygon style="fill:#FFFFFF;" points="137.839,753.973 112.669,717.21 59.895,753.341 59.481,753.623 80.266,783.982 
				81.478,783.982 60.872,753.883 112.409,718.601 136.448,753.713 92.231,783.982 94.003,783.982 137.426,754.255 			"/>
			<path style="fill:#FFFFFF;" d="M143.359,753.13l-27.907-40.762c-0.548-0.802-1.458-1.28-2.435-1.28
				c-0.596,0-1.169,0.179-1.657,0.515l-56.638,38.771c-0.646,0.443-1.082,1.116-1.227,1.894c-0.144,0.775,0.02,1.556,0.461,2.196
				l20.207,29.519h1.211l-20.594-30.084c-0.29-0.422-0.397-0.936-0.302-1.448c0.096-0.515,0.383-0.959,0.809-1.252l56.638-38.771
				c0.322-0.222,0.699-0.339,1.092-0.339c0.646,0,1.248,0.316,1.609,0.845l27.907,40.762c0.293,0.428,0.401,0.946,0.305,1.459
				c-0.097,0.511-0.385,0.952-0.812,1.244l-40.292,27.585h1.77l39.086-26.76c0.647-0.44,1.085-1.11,1.231-1.884
				C143.968,754.562,143.804,753.778,143.359,753.13z"/>
		</g>
		<g id="meegotouch-image-no-content-portrait-splash">
			<linearGradient id="SVGID_2_" gradientUnits="userSpaceOnUse" x1="114.6118" y1="405.4033" x2="479.6126" y2="153.403">
				<stop  offset="0" style="stop-color:#000000"/>
				<stop  offset="0.1413" style="stop-color:#000000"/>
				<stop  offset="1" style="stop-color:#000000"/>
			</linearGradient>
			<rect x="32.419" y="116.451" style="fill:url(#SVGID_2_);" width="480" height="360"/>
			<path style="fill:none;stroke:#FFFFFF;stroke-width:2;" d="M430.454,289.825l-5.645,46.86l-68.278-8.226l5.645-46.859
				L430.454,289.825 M433.938,284.384l-73.849-8.896c-1.448-0.176-2.773,0.87-2.947,2.314l-6.403,53.152
				c-0.174,1.447,0.865,2.771,2.313,2.945l73.849,8.896c1.446,0.175,2.773-0.865,2.947-2.312l6.403-53.154
				C436.425,285.888,435.383,284.557,433.938,284.384L433.938,284.384z"/>
			<path style="fill:none;stroke:#FFFFFF;stroke-width:2;" d="M411.379,301.881c0,0-0.601-0.71-1.46-0.813s-1.614,0.443-1.614,0.443
				l-17.647,11.732l-0.315-0.039l-8.539-9.27c0,0-0.599-0.702-1.464-0.806c-0.857-0.104-1.608,0.437-1.608,0.437l-15.081,10.151
				l-1.217,10.114l57.899,6.973l2.062-17.116L411.379,301.881z"/>
			<path style="fill:#FFFFFF;" d="M506.518,371.473l-59.885-7.213l1.392-11.562l15.46-10.407c0.074-0.054,1.091-0.751,2.288-0.599
				c1.219,0.146,2.018,1.05,2.105,1.152l8.075,8.765l17.11-11.376c0.066-0.048,1.092-0.743,2.287-0.604
				c1.216,0.148,2.018,1.059,2.105,1.162l11.3,12.11L506.518,371.473L506.518,371.473z M448.857,362.514l55.914,6.734l1.887-15.662
				l-10.697-11.466c-0.129-0.146-0.478-0.459-0.85-0.504c-0.358-0.046-0.796,0.183-0.916,0.267l-17.978,11.953l-1.049-0.126
				l-8.789-9.54c-0.123-0.138-0.471-0.447-0.848-0.492c-0.422-0.058-0.796,0.179-0.914,0.261l-14.717,9.908L448.857,362.514
				L448.857,362.514z"/>
			<g>
				<path style="fill:#FFFFFF;" d="M117.668,282.386c-1.867,0-3.462-1.457-3.633-3.316l-4.844-53.317
					c-0.088-0.969,0.209-1.916,0.835-2.667s1.503-1.212,2.47-1.299l74.075-6.731c1.968-0.181,3.786,1.331,3.967,3.302l4.845,53.319
					c0.182,2.004-1.301,3.781-3.305,3.964l-74.077,6.731C117.89,282.381,117.778,282.386,117.668,282.386L117.668,282.386z
					 M186.904,217.04c-0.05,0-0.1,0.002-0.15,0.007l-74.077,6.731c-0.436,0.039-0.831,0.248-1.114,0.587
					c-0.284,0.342-0.419,0.77-0.379,1.205l4.844,53.317c0.08,0.89,0.881,1.583,1.792,1.491l74.077-6.731
					c0.906-0.082,1.576-0.886,1.494-1.79l-4.845-53.318C188.469,217.698,187.748,217.04,186.904,217.04L186.904,217.04z
					 M119.271,276.415l-4.452-48.996l70.48-6.404l4.453,48.996L119.271,276.415L119.271,276.415z M116.99,229.229l4.091,45.014
					l66.499-6.043l-4.092-45.014L116.99,229.229L116.99,229.229z"/>
			</g>
			<g>
				<path style="fill:#FFFFFF;" d="M124.073,270.654l-1.054-11.597l12.944-13.407c0.069-0.077,0.896-0.955,2.11-1.065
					c1.222-0.115,2.2,0.609,2.301,0.687l9.729,6.885l14.354-14.699c0.064-0.073,0.896-0.957,2.113-1.068
					c1.218-0.11,2.198,0.617,2.299,0.695l13.582,9.482l1.691,18.629L124.073,270.654L124.073,270.654z M125.094,259.788l0.79,8.694
					l56.088-5.098l-1.428-15.711l-12.857-8.979c-0.143-0.105-0.508-0.318-0.86-0.318c-0.448,0.038-0.81,0.342-0.917,0.456
					l-15.084,15.448l-1.051,0.091l-10.587-7.491c-0.133-0.098-0.497-0.308-0.854-0.308c-0.451,0.037-0.81,0.338-0.916,0.45
					L125.094,259.788L125.094,259.788z"/>
			</g>
			<path style="fill:none;stroke:#FFFFFF;stroke-width:2;" d="M287.644,211.312l32.079-60.832l41.75,22.017l-32.079,60.832
				L287.644,211.312 M281.187,211.079c-0.679,1.288-0.178,2.903,1.107,3.581l47.354,24.972c1.291,0.682,2.901,0.18,3.58-1.107
				l34.696-65.797c0.679-1.289,0.182-2.896-1.106-3.578l-47.357-24.973c-1.285-0.676-2.9-0.183-3.58,1.108L281.187,211.079
				L281.187,211.079z"/>
			<path style="fill:none;stroke:#FFFFFF;stroke-width:2;" d="M308.41,202.483c0,0-0.243-0.899,0.161-1.666
				c0.403-0.764,1.283-1.074,1.283-1.074l19.688-7.839l0.149-0.281l-2.767-12.296c0,0-0.238-0.893,0.169-1.663
				c0.402-0.765,1.273-1.074,1.273-1.074l16.929-6.628l9.011,4.752l-27.203,51.584l-15.25-8.039L308.41,202.483z"/>
			<path style="fill:none;stroke:#FFFFFF;stroke-width:2;" d="M355.957,225.052l53.778-42.865l29.419,36.908l-53.777,42.867
				L355.957,225.052 M350.136,222.252c-1.14,0.906-1.327,2.586-0.423,3.723l33.372,41.864c0.908,1.142,2.583,1.328,3.723,0.421
				l58.165-46.364c1.141-0.91,1.329-2.583,0.422-3.723l-33.371-41.864c-0.906-1.136-2.583-1.33-3.724-0.421L350.136,222.252
				L350.136,222.252z"/>
			<path style="fill:none;stroke:#FFFFFF;stroke-width:2;" d="M378.521,225.29c0,0,0.139-0.92,0.814-1.458
				c0.678-0.54,1.607-0.472,1.607-0.472l21.18,0.713l0.248-0.199l2.396-12.373c0,0,0.141-0.911,0.823-1.455
				c0.674-0.538,1.597-0.473,1.597-0.473l18.165,0.715l6.35,7.967l-45.604,36.35l-10.747-13.481L378.521,225.29z"/>
			<g>
				<path style="fill:#FFFFFF;" d="M176.047,254.411c-1.626,0-3.071-1.088-3.517-2.646l-20.437-71.52
					c-0.553-1.933,0.571-3.957,2.506-4.512l51.479-14.711c0.325-0.092,0.659-0.139,0.994-0.139c1.623,0,3.068,1.088,3.514,2.646
					l20.439,71.521c0.551,1.937-0.574,3.96-2.507,4.514l-51.478,14.707C176.719,254.364,176.383,254.411,176.047,254.411
					L176.047,254.411z M207.073,162.884c-0.15,0-0.301,0.021-0.446,0.062l-51.478,14.71c-0.874,0.25-1.383,1.165-1.133,2.039
					l20.438,71.521c0.241,0.849,1.181,1.377,2.038,1.133l51.478-14.708c0.874-0.25,1.382-1.166,1.133-2.042l-20.438-71.52
					C208.463,163.376,207.809,162.884,207.073,162.884L207.073,162.884z M177.63,248.429l-19.444-68.049l47.307-13.518
					l19.443,68.049L177.63,248.429L177.63,248.429z M160.658,181.753l18.345,64.203l43.46-12.418l-18.344-64.203L160.658,181.753
					L160.658,181.753z"/>
			</g>
			<g>
				<path style="fill:#FFFFFF;" d="M200.437,236.557l-13.782-9.272c-0.074-0.044-1.101-0.692-1.438-1.868
					c-0.335-1.177,0.192-2.27,0.253-2.391l8.516-18.655l-9.963-6.612c-0.082-0.049-1.102-0.696-1.438-1.877
					c-0.333-1.171,0.186-2.259,0.245-2.379l7.824-16.883l11.197-3.199l16.571,57.997L200.437,236.557L200.437,236.557z
					 M192.082,178.291l-7.452,16.079c-0.075,0.158-0.226,0.602-0.123,0.963c0.104,0.363,0.465,0.659,0.596,0.743l10.831,7.188
					l0.292,1.015l-8.954,19.614c-0.081,0.169-0.235,0.614-0.133,0.974c0.12,0.419,0.587,0.729,0.592,0.732l13.051,8.78l15.167-4.335
					l-15.472-54.151L192.082,178.291L192.082,178.291z"/>
			</g>
			<path style="fill:none;stroke:#FFFFFF;stroke-width:2;" d="M273.914,288.659l-14.934,44.775l-65.238-21.76l14.932-44.773
				L273.914,288.659 M278.418,284.026l-70.561-23.535c-1.383-0.463-2.892,0.299-3.352,1.676l-16.94,50.788
				c-0.459,1.382,0.293,2.888,1.675,3.35l70.563,23.534c1.38,0.461,2.891-0.29,3.352-1.674l16.939-50.786
				C280.553,286.001,279.799,284.487,278.418,284.026L278.418,284.026z"/>
			<path style="fill:none;stroke:#FFFFFF;stroke-width:2;" d="M252.808,296.643c0,0-0.445-0.817-1.268-1.092
				c-0.82-0.272-1.67,0.111-1.67,0.111l-19.642,7.952l-0.303-0.101l-6.505-10.794c0,0-0.444-0.81-1.272-1.086
				c-0.818-0.272-1.663,0.105-1.663,0.105l-16.812,6.919l-3.223,9.664l55.322,18.45l5.455-16.353L252.808,296.643z"/>
			<path style="fill:none;" d="M114.799,410.237l-22.027,50.725l33.366,14.489h15.599l-40.791-17.713l4.755-10.947l20.33-6.351
				c0,0,1.025-0.355,1.953,0.047c0.937,0.406,1.372,1.398,1.372,1.398l6.484,13.266l0.342,0.146l23.741-7.264
				c0,0,1.03-0.361,1.962,0.044c0.93,0.404,1.367,1.402,1.367,1.402l8.414,16.946l-3.92,9.024h6.576l14.383-33.12L114.799,410.237z"
				/>
			<path style="fill:none;" d="M130.51,435.022l-41.382-33.966c-0.291-0.24-0.662-0.372-1.044-0.372c-0.5,0-0.966,0.219-1.277,0.599
				l-47.192,57.495c-0.277,0.337-0.406,0.767-0.362,1.208c0.043,0.441,0.253,0.837,0.59,1.114l17.484,14.351h5.447l-19.061-15.646
				l44.902-54.703l38.028,31.216l-0.634,0.773l-31.488,38.36h4.936l31.28-38.109C131.314,436.641,131.212,435.6,130.51,435.022z"/>
			<path style="fill:none;" d="M109.617,431.79l-17.463,3.019c-0.174,0.028-0.624,0.156-0.86,0.444
				c-0.241,0.294-0.279,0.76-0.273,0.914l0.249,13l-0.671,0.814l-21.223,3.794c-0.185,0.029-0.639,0.157-0.876,0.446
				c-0.277,0.337-0.267,0.895-0.267,0.9l0.204,15.73l5.604,4.599h11.031l31.292-38.121L109.617,431.79z"/>
			<path style="fill:none;" d="M88.893,407.916l-42.365,51.611l19.398,15.924h4.963l-4.439-3.644l-0.214-16.611
				c-0.007-0.086-0.058-1.298,0.719-2.245c0.777-0.943,1.976-1.133,2.109-1.15l20.188-3.61l-0.229-11.955
				c-0.006-0.095-0.054-1.302,0.727-2.251c0.771-0.941,1.964-1.133,2.097-1.151l18.333-3.17l9.001,7.39l-31.52,38.398h4.274
				l31.896-38.856L88.893,407.916z"/>
			<polygon style="opacity:0.6;fill:#FFFFFF;" points="46.527,459.527 88.893,407.916 123.829,436.595 91.934,475.451 
				94.521,475.451 126.01,437.091 126.644,436.317 88.615,405.102 43.713,459.805 62.773,475.451 65.926,475.451 			"/>
			<path style="opacity:0.6;fill:#FFFFFF;" d="M39.842,461.101c-0.337-0.277-0.547-0.673-0.59-1.114
				c-0.044-0.441,0.085-0.871,0.362-1.208l47.192-57.495c0.312-0.38,0.777-0.599,1.277-0.599c0.382,0,0.753,0.132,1.044,0.372
				l41.382,33.966c0.702,0.577,0.805,1.618,0.228,2.319l-31.28,38.109h2.589l30.237-36.84c1.276-1.552,1.051-3.855-0.503-5.135
				L90.396,399.51c-0.648-0.532-1.47-0.825-2.312-0.825c-1.102,0-2.131,0.485-2.824,1.33l-47.191,57.494
				c-0.616,0.751-0.903,1.7-0.808,2.674c0.097,0.973,0.562,1.848,1.312,2.464l15.601,12.805h3.153L39.842,461.101z"/>
			<path style="opacity:0.6;fill:#FFFFFF;" d="M68.438,470.853l-0.204-15.73c0-0.006-0.011-0.563,0.267-0.9
				c0.237-0.289,0.691-0.417,0.876-0.446l21.223-3.794l0.671-0.814l-0.249-13c-0.006-0.154,0.032-0.62,0.273-0.914
				c0.236-0.288,0.687-0.416,0.86-0.444l17.463-3.019l6.747,5.54l-31.292,38.121h2.587l31.52-38.398l-9.001-7.39l-18.333,3.17
				c-0.133,0.019-1.325,0.21-2.097,1.151c-0.78,0.949-0.732,2.156-0.727,2.251l0.229,11.955l-20.188,3.61
				c-0.134,0.018-1.332,0.207-2.109,1.15c-0.776,0.947-0.726,2.159-0.719,2.245l0.214,16.611l4.439,3.644h3.152L68.438,470.853z"/>
			<path style="fill:none;" d="M359.389,364.86c-12.432,23.998-26.045,45.407-40.765,63.928
				c21.79,13.448,44.809,28.695,69.267,46.663h14.217c-25.359-19.007-49.162-34.929-71.662-48.788
				c3.135-4.206,6.216-8.543,9.245-13.008c9.376-1.666,18.697-3.537,27.963-5.534c0,0,1.406-0.354,2.539,0.351
				c1.144,0.711,1.53,2.188,1.53,2.188c2.01,6.608,4.064,13.306,6.162,20.093c0.145,0.096,0.291,0.192,0.436,0.288
				c11.168-1.617,22.27-3.361,33.315-5.104c0,0,1.442-0.301,2.673,0.572c1.233,0.874,1.738,2.546,1.738,2.546
				c3.347,9.571,6.782,19.298,10.31,29.182c-3.018,5.88-6.126,11.611-9.31,17.215h11.045c8.434-15.792,16.24-32.591,23.376-50.366
				C417.984,398.802,387.549,379.56,359.389,364.86z"/>
			<path style="fill:none;" d="M52.905,312.573l-20.486,9.389v25.812c0.146-0.101,0.304-0.19,0.473-0.269
				c1.355-0.619,2.872-0.118,2.872-0.118l26.76,7.419l12.354,26.955L32.419,401.22v10.032l54.306-24.89L52.905,312.573z"/>
			<polygon style="fill:none;" points="302.935,121.528 304.262,115.451 281.896,115.451 288.98,128.886 			"/>
			<polygon style="fill:none;" points="325.499,115.451 306.308,115.451 304.69,122.864 288.145,131.587 279.635,115.451 
				275.899,115.451 286.691,135.916 			"/>
			<path style="fill:none;" d="M284.789,142.875L284.789,142.875c0.269,0,0.524-0.064,0.762-0.189l47.355-24.972
				c0.791-0.417,1.106-1.438,0.689-2.23l-0.018-0.032h-4.318l0.114,0.217l-43.519,22.949l-12.217-23.166h-4.313l13.997,26.544
				C283.608,142.537,284.171,142.875,284.789,142.875z"/>
			<polygon style="opacity:0.6;fill:#FFFFFF;" points="286.691,135.916 275.899,115.451 273.639,115.451 285.855,138.617 
				329.374,115.668 329.26,115.451 325.499,115.451 			"/>
			<path style="opacity:0.6;fill:#FFFFFF;" d="M333.596,115.483c0.417,0.792,0.102,1.813-0.689,2.23l-47.355,24.972
				c-0.237,0.125-0.493,0.189-0.761,0.189h-0.001c-0.618,0-1.181-0.338-1.467-0.88l-13.997-26.544h-2.262l14.489,27.478
				c0.634,1.2,1.874,1.946,3.236,1.946h0.001c0.587,0,1.173-0.146,1.694-0.42l47.355-24.972c1.488-0.786,2.196-2.462,1.842-4.032
				h-2.104L333.596,115.483z"/>
			<polygon style="opacity:0.6;fill:#FFFFFF;" points="302.935,121.528 288.98,128.886 281.896,115.451 279.635,115.451 
				288.145,131.587 304.69,122.864 306.308,115.451 304.262,115.451 			"/>
			<path style="fill:none;" d="M303.757,421.059l-34.937-28.677l-42.364,51.609l34.937,28.679L303.757,421.059z M246.378,456.271
				l-0.213-16.61c-0.007-0.085-0.059-1.299,0.717-2.244c0.777-0.945,1.977-1.135,2.111-1.152l20.186-3.609l-0.229-11.956
				c-0.006-0.096-0.053-1.301,0.728-2.249c0.772-0.941,1.963-1.134,2.096-1.152l18.334-3.169l9.001,7.389l-38.271,46.621
				L246.378,456.271z"/>
			<path style="fill:none;" d="M289.546,416.256l-17.464,3.018c-0.174,0.028-0.622,0.156-0.859,0.445
				c-0.242,0.294-0.28,0.759-0.274,0.913l0.249,12.995l-0.666,0.818l-21.227,3.794c-0.185,0.029-0.639,0.157-0.877,0.446
				c-0.235,0.287-0.271,0.754-0.264,0.91l0.202,15.721l12.193,10.008l35.733-43.529L289.546,416.256z"/>
			<path style="fill:none;" d="M310.665,421.808c0.279-0.339,0.408-0.768,0.365-1.207c-0.044-0.439-0.254-0.835-0.593-1.112
				l-41.381-33.966c-0.296-0.244-0.657-0.372-1.044-0.372c-0.5,0-0.966,0.218-1.277,0.599l-47.193,57.494
				c-0.277,0.337-0.405,0.766-0.362,1.207c0.044,0.441,0.253,0.837,0.59,1.114l36.413,29.887h5.446l-37.987-31.183l0.634-0.773
				l44.268-53.928l38.028,31.214l-0.634,0.773l-44.24,53.896h2.309"/>
			<path style="fill:#FFFFFF;" d="M305.938,421.555l0.634-0.773l-38.028-31.214l-44.268,53.928l-0.634,0.773l37.987,31.183h0.068
				L305.938,421.555z M268.82,392.382l34.937,28.677l-42.364,51.611l-34.937-28.679L268.82,392.382z"/>
			<path style="fill:#FFFFFF;" d="M219.77,445.564c-0.337-0.277-0.546-0.673-0.59-1.114c-0.043-0.441,0.085-0.87,0.362-1.207
				l47.193-57.494c0.312-0.381,0.777-0.599,1.277-0.599c0.387,0,0.748,0.128,1.044,0.372l41.381,33.966
				c0.339,0.277,0.549,0.673,0.593,1.112c0.043,0.439-0.086,0.868-0.365,1.207l-44.03,53.644h2.588l42.988-52.374
				c0.617-0.752,0.905-1.7,0.81-2.672s-0.562-1.847-1.313-2.464l-41.381-33.965c-0.649-0.533-1.471-0.826-2.313-0.826
				c-1.102,0-2.131,0.485-2.823,1.33l-47.192,57.492c-0.617,0.75-0.903,1.7-0.808,2.674c0.096,0.973,0.562,1.848,1.311,2.464
				l34.529,28.341h3.153L219.77,445.564z"/>
			<path style="fill:#FFFFFF;" d="M290.106,414.129l-18.334,3.169c-0.133,0.019-1.323,0.211-2.096,1.152
				c-0.78,0.948-0.733,2.153-0.728,2.249l0.229,11.956l-20.186,3.609c-0.135,0.018-1.334,0.207-2.111,1.152
				c-0.775,0.945-0.724,2.159-0.717,2.244l0.213,16.61l14.459,11.867l38.271-46.621L290.106,414.129z M260.56,465.324
				l-12.193-10.008l-0.202-15.721c-0.007-0.156,0.028-0.623,0.264-0.91c0.238-0.289,0.692-0.417,0.877-0.446l21.227-3.794
				l0.666-0.818l-0.249-12.995c-0.006-0.154,0.032-0.619,0.274-0.913c0.237-0.289,0.686-0.417,0.859-0.445l17.464-3.018l6.747,5.539
				L260.56,465.324z"/>
			<path style="fill:none;" d="M445.086,316.023c-0.82,0-1.54,0.639-1.639,1.453l-6.403,53.153
				c-0.108,0.902,0.538,1.724,1.439,1.832l73.85,8.897c0.029,0.003,0.058-0.001,0.086,0.001v-15.818l-1.423,11.812l-70.264-8.464
				l5.884-48.846l65.803,7.927v-3.848l-67.136-8.088C445.217,316.027,445.151,316.023,445.086,316.023z"/>
			<polygon style="fill:none;" points="442.957,367.145 509.25,375.13 512.419,348.821 512.419,329.985 448.362,322.27 			"/>
			<path style="fill:#FFFFFF;" d="M512.333,381.359l-73.85-8.897c-0.901-0.108-1.548-0.93-1.439-1.832l6.403-53.153
				c0.099-0.814,0.818-1.453,1.639-1.453c0.065,0,0.131,0.004,0.197,0.013l67.136,8.088v-2.016l-66.896-8.059
				c-2.019-0.245-3.821,1.211-4.062,3.188l-6.403,53.154c-0.238,1.997,1.191,3.816,3.188,4.057l73.85,8.897
				c0.108,0.013,0.216,0.016,0.324,0.019v-2.004C512.391,381.358,512.362,381.362,512.333,381.359z"/>
			<polygon style="fill:#FFFFFF;" points="509.25,375.13 442.957,367.145 448.362,322.27 512.419,329.985 512.419,327.972 
				446.616,320.045 440.732,368.891 510.996,377.354 512.419,365.542 512.419,348.821 			"/>
		</g>
	</g>
</g>
</svg>
