<?xml version="1.0" encoding="utf-8"?>
<!-- Generator: Adobe Illustrator 14.0.0, SVG Export Plug-In . SVG Version: 6.00 Build 43363)  -->
<!DOCTYPE svg PUBLIC "-//W3C//DTD SVG 1.1//EN" "http://www.w3.org/Graphics/SVG/1.1/DTD/svg11.dtd">
<svg version="1.1" id="meegotouch-organiser-layer" xmlns="http://www.w3.org/2000/svg" xmlns:xlink="http://www.w3.org/1999/xlink"
	 x="0px" y="0px" width="350px" height="991px" viewBox="0 0 350 991" enable-background="new 0 0 350 991" xml:space="preserve">
<g id="meegotouch-organiser">
	<g id="organiserthemetemplatehelper">
		<g>
			<path fill="#B4B4B4" d="M16,989.775c-8.271,0-15-6.729-15-15V16C1,7.729,7.729,1,16,1h318c8.271,0,15,6.729,15,15v958.775
				c0,8.271-6.729,15-15,15H16z"/>
			<g>
				<path d="M334,2c7.721,0,14,6.28,14,14v958.775c0,7.722-6.279,14-14,14H16c-7.72,0-14-6.278-14-14V16C2,8.28,8.28,2,16,2H334
					 M334,0H16C7.2,0,0,7.2,0,16v958.775c0,8.8,7.2,16,16,16h318c8.799,0,16-7.2,16-16V16C350,7.2,342.799,0,334,0L334,0z"/>
			</g>
		</g>
		<g>
			<path fill="#010101" d="M131.754,24.812c0,5.545-3.385,8.521-7.513,8.521c-4.296,0-7.272-3.336-7.272-8.229
				c0-5.14,3.171-8.497,7.488-8.497C128.897,16.604,131.754,19.986,131.754,24.812z M119.177,25.054
				c0,3.479,1.872,6.574,5.188,6.574c3.312,0,5.184-3.048,5.184-6.721c0-3.24-1.68-6.601-5.157-6.601
				C120.906,18.309,119.177,21.523,119.177,25.054z"/>
			<path fill="#010101" d="M134.465,17.106c1.059-0.192,2.595-0.336,4.011-0.336c2.229,0,3.693,0.433,4.68,1.317
				c0.793,0.723,1.271,1.823,1.271,3.1c0,2.108-1.345,3.524-3.021,4.104v0.072c1.225,0.432,1.969,1.584,2.353,3.264
				c0.528,2.257,0.912,3.816,1.248,4.441h-2.16c-0.264-0.48-0.624-1.849-1.056-3.865c-0.479-2.229-1.368-3.072-3.265-3.145h-1.971
				v7.01h-2.088L134.465,17.106L134.465,17.106z M136.553,24.478h2.139c2.229,0,3.646-1.227,3.646-3.072c0-2.088-1.513-3-3.72-3
				c-1.009,0-1.705,0.072-2.064,0.168L136.553,24.478L136.553,24.478z"/>
			<path fill="#010101" d="M159.785,32.351c-0.936,0.357-2.809,0.889-4.992,0.889c-2.445,0-4.465-0.625-6.049-2.137
				c-1.393-1.347-2.256-3.504-2.256-6.024c0-4.824,3.336-8.353,8.761-8.353c1.872,0,3.36,0.405,4.059,0.741l-0.527,1.704
				c-0.864-0.405-1.944-0.693-3.576-0.693c-3.937,0-6.505,2.445-6.505,6.504c0,4.104,2.448,6.526,6.241,6.526
				c1.367,0,2.304-0.188,2.783-0.432v-4.824h-3.267v-1.681h5.328V32.351L159.785,32.351z"/>
			<path fill="#010101" d="M165.568,27.979l-1.68,5.089h-2.16l5.52-16.178h2.496l5.522,16.178h-2.233l-1.729-5.089H165.568z
				 M170.896,26.351l-1.607-4.656c-0.357-1.057-0.601-2.02-0.84-2.953H168.4c-0.24,0.938-0.48,1.944-0.816,2.929L166,26.351H170.896
				z"/>
			<path fill="#010101" d="M177.641,33.068V16.894h2.307l5.16,8.185c1.182,1.896,2.139,3.604,2.881,5.257l0.068-0.021
				c-0.188-2.16-0.24-4.128-0.24-6.648v-6.769h1.973V33.07h-2.113l-5.137-8.209c-1.125-1.801-2.209-3.648-3-5.4l-0.072,0.023
				c0.121,2.041,0.146,3.984,0.146,6.673v6.913h-1.971v-0.002H177.641z"/>
			<path fill="#010101" d="M195.52,16.894V33.07h-2.105V16.894H195.52z"/>
			<path fill="#010101" d="M198.904,30.523c0.936,0.6,2.279,1.057,3.719,1.057c2.137,0,3.385-1.129,3.385-2.761
				c0-1.487-0.863-2.376-3.047-3.192c-2.641-0.96-4.27-2.352-4.27-4.604c0-2.521,2.086-4.396,5.229-4.396
				c1.633,0,2.857,0.386,3.555,0.791l-0.576,1.705c-0.504-0.312-1.582-0.769-3.049-0.769c-2.209,0-3.049,1.317-3.049,2.425
				c0,1.512,0.984,2.256,3.215,3.119c2.736,1.057,4.105,2.377,4.105,4.753c0,2.496-1.824,4.681-5.641,4.681
				c-1.562,0-3.268-0.479-4.129-1.057L198.904,30.523z"/>
			<path fill="#010101" d="M219.354,25.483h-6.266v5.833h7.008v1.752h-9.117V16.894h8.758v1.752h-6.646v5.109h6.269v1.729
				L219.354,25.483L219.354,25.483z"/>
			<path fill="#010101" d="M222.811,17.106c1.061-0.192,2.592-0.336,4.006-0.336c2.232,0,3.695,0.433,4.684,1.317
				c0.793,0.723,1.271,1.823,1.271,3.1c0,2.108-1.347,3.524-3.024,4.104v0.072c1.229,0.432,1.971,1.584,2.354,3.264
				c0.528,2.257,0.907,3.816,1.25,4.441h-2.16c-0.271-0.48-0.623-1.849-1.062-3.865c-0.478-2.229-1.362-3.072-3.262-3.145h-1.97
				v7.01h-2.088V17.106L222.811,17.106z M224.896,24.478h2.137c2.232,0,3.648-1.227,3.648-3.072c0-2.088-1.518-3-3.723-3
				c-1.01,0-1.707,0.072-2.062,0.168V24.478z"/>
		</g>
	</g>
	<g id="meegotouch-monthgrid-daycell-selected-day">
		<g>
			<rect x="267.057" y="174.775" fill="#D0D5EA" width="51.998" height="52"/>
		</g>
		<rect x="267.057" y="174.775" fill="#535353" width="1" height="52"/>
		<rect x="267.057" y="225.775" fill="#B4B4B4" width="51.998" height="1"/>
		<rect x="267.057" y="174.775" fill="#535353" width="51.998" height="1"/>
		<rect x="318.158" y="174.775" fill="#B4B4B4" width="0.895" height="52"/>
	</g>
	<g id="meegotouch-monthgrid-daycell-current-day">
		<g>
			<g>
				<rect x="267.057" y="112.775" fill="#3967F2" width="51.998" height="52"/>
			</g>
		</g>
		<rect x="267.057" y="112.775" fill="#B0BBDC" width="1" height="52"/>
		<rect x="267.057" y="163.775" fill="#435CA2" width="51.998" height="1"/>
		<rect x="267.057" y="112.775" fill="#B0BBDC" width="51.998" height="1"/>
		<rect x="317.971" y="112.775" fill="#435CA2" width="1.084" height="52"/>
	</g>
	<g id="meegotouch-monthgrid-daycell-regular-day">
		<rect x="267.057" y="49.775" fill="#E6E5E6" width="0.896" height="52"/>
		<rect x="267.057" y="100.775" fill="#BFBFBF" width="51.998" height="1"/>
		<rect x="267.057" y="49.775" fill="#E6E5E6" width="51.998" height="1"/>
		<rect x="318.055" y="49.775" fill="#BFBFBF" width="1" height="52"/>
	</g>
	<g id="meegotouch-monthgrid-daycell-selected-day-current">
		<rect x="266.057" y="230.775" fill="#3967F2" width="51.998" height="52"/>
		<rect x="266.057" y="230.775" fill="#535B75" width="1" height="52"/>
		<rect x="267.057" y="231.775" fill="#C7CBD6" width="2" height="50"/>
		<rect x="266.057" y="281.775" fill="#435CA2" width="51.998" height="1"/>
		<rect x="267.057" y="279.775" fill="#C7CBD6" width="49.998" height="2"/>
		<rect x="266.057" y="230.775" fill="#535B75" width="51.998" height="1"/>
		<rect x="267.057" y="231.775" fill="#C7CBD6" width="49.998" height="2"/>
		<rect x="317.014" y="230.775" fill="#435CA2" width="1" height="52"/>
		<rect x="315.055" y="231.775" fill="#C7CBD6" width="2" height="50"/>
	</g>
	<g id="meegotouch-calendar-monthgrid-weeknumber">
		<g>
			<rect x="92.056" y="618.794" fill="#CCCCCC" width="24" height="24"/>
		</g>
		<rect x="92.056" y="618.794" fill="#BFBFBF" width="24" height="1"/>
		<rect x="115.056" y="618.794" fill="#BFBFBF" width="1" height="24"/>
		<rect x="92.056" y="641.794" fill="#BFBFBF" width="24" height="1"/>
	</g>
	<g id="meegotouch-calendar-monthgrid-daylabel">
		<g>
			<rect x="121.056" y="619.794" width="22" height="22"/>
		</g>
		<rect x="121.056" y="619.794" fill="#242424" width="1" height="22"/>
		<rect x="142.056" y="619.794" fill="#242424" width="1" height="22"/>
	</g>
	<g id="meegotouch-monthgrid-daycell-selected-day-eventindicator">
		<rect x="156.056" y="561.794" fill="none" width="52" height="52"/>
		<path fill="#808080" d="M196.057,602.268c0,0.825-0.898,1.5-2,1.5h-24c-1.101,0-2-0.675-2-1.5c0-0.823,0.899-1.5,2-1.5h24
			C195.154,600.768,196.057,601.442,196.057,602.268z"/>
	</g>
	<g id="meegotouch-monthgrid-daycell-regular-day-eventindicator">
		<rect x="212.057" y="616.794" fill="none" width="52" height="52"/>
		<path fill="#999999" d="M252.057,657.268c0,0.825-0.898,1.5-2,1.5h-24c-1.102,0-2-0.675-2-1.5c0-0.822,0.898-1.5,2-1.5h24
			C251.154,655.768,252.057,656.443,252.057,657.268z"/>
	</g>
	<g id="meegotouch-monthgrid-daycell-othermonth-day-eventindicator">
		<rect x="212.057" y="561.794" fill="none" width="52" height="52"/>
		<path fill="#B3B3B3" d="M252.057,602.268c0,0.825-0.9,1.5-2,1.5h-24c-1.1,0-2-0.675-2-1.5c0-0.824,0.9-1.5,2-1.5h24
			C251.156,600.768,252.057,601.442,252.057,602.268z"/>
	</g>
	<g id="meegotouch-monthgrid-daycell-current-day-eventindicator">
		<rect x="157.056" y="616.794" fill="none" width="52" height="52"/>
		<path fill="#FFFFFF" d="M197.057,657.27c0,0.823-0.898,1.5-2,1.5h-24c-1.101,0-2-0.677-2-1.5c0-0.824,0.899-1.5,2-1.5h24
			C196.154,655.77,197.057,656.443,197.057,657.27z"/>
	</g>
</g>
</svg>
