<?xml version="1.0" encoding="iso-8859-1"?>
<!-- Generator: Adobe Illustrator 15.0.2, SVG Export Plug-In . SVG Version: 6.00 Build 0)  -->
<!DOCTYPE svg PUBLIC "-//W3C//DTD SVG 1.1//EN" "http://www.w3.org/Graphics/SVG/1.1/DTD/svg11.dtd">
<svg version="1.1" id="meegotouch-textedit-layer" xmlns="http://www.w3.org/2000/svg" xmlns:xlink="http://www.w3.org/1999/xlink"
	 x="0px" y="0px" width="969.816px" height="390px" viewBox="0 0 969.816 390" style="enable-background:new 0 0 969.816 390;"
	 xml:space="preserve">
<g id="meegotouch-textedit">
	<g id="_x23_Inputfieldthemehelper">
		<g>
			<path d="M957.816,0c6.6,0,12,5.4,12,12v366c0,6.6-5.4,12-12,12h-456c-6.6,0-12-5.4-12-12V12c0-6.6,5.4-12,12-12H957.816z"/>
		</g>
		<g>
			<path style="fill:#F0F0F1;" d="M12,389.5c-6.341,0-11.5-5.159-11.5-11.5V12C0.5,5.659,5.659,0.5,12,0.5h456
				c6.341,0,11.5,5.159,11.5,11.5v366c0,6.341-5.159,11.5-11.5,11.5H12z"/>
			<path style="fill:#929497;" d="M468,1c6.065,0,11,4.935,11,11v366c0,6.065-4.935,11-11,11H12c-6.065,0-11-4.935-11-11V12
				C1,5.935,5.935,1,12,1H468 M468,0H12C5.4,0,0,5.4,0,12v366c0,6.6,5.4,12,12,12h456c6.6,0,12-5.4,12-12V12C480,5.4,474.6,0,468,0
				L468,0z"/>
		</g>
		<g>
			<path style="fill:#FFFFFF;" d="M656.744,51.104h-8.135v-2.627h2.16V27.527h-2.16v-2.628h8.135v2.628h-2.195v20.949h2.195V51.104z
				"/>
			<path style="fill:#FFFFFF;" d="M663.836,33.682c1.297-2.23,3.385-3.311,5.939-3.311c4.285,0,6.229,2.34,6.229,6.515v14.218
				h-3.744V37.498c0-2.52-0.648-4.607-3.24-4.607c-3.166,0-4.283,2.879-4.283,5.579v12.634h-3.742V30.658h2.086L663.836,33.682z"/>
			<path style="fill:#FFFFFF;" d="M684.248,33.574c1.691-2.484,3.492-3.203,5.902-3.203c5.688,0,6.805,5.326,6.805,10.223
				c0,5.902-2.412,10.727-8.928,10.727c-0.936,0-2.16-0.217-2.879-0.396v6.047h-3.744V30.658h2.088L684.248,33.574z M685.148,48.297
				c0.756,0.287,1.799,0.504,2.844,0.504c4.57,0,5.074-4.141,5.074-8.387c0-4.32-0.863-7.523-3.779-7.523
				c-3.779,0-4.139,3.959-4.139,6.875V48.297z"/>
			<path style="fill:#FFFFFF;" d="M713.658,48.08c-1.295,2.232-3.383,3.312-5.938,3.312c-4.285,0-6.229-2.34-6.229-6.516V30.658
				h3.744v13.606c0,2.521,0.648,4.607,3.24,4.607c3.166,0,4.283-2.88,4.283-5.579V30.658h3.742v20.445h-2.088L713.658,48.08z"/>
			<path style="fill:#FFFFFF;" d="M731.623,50.744c-1.441,0.396-2.953,0.648-4.428,0.648c-3.24,0-4.607-1.477-4.607-4.68V33.178
				h-2.484v-2.52h2.52l1.477-4.895h2.232v4.895h4.967v2.52h-4.967v12.887c0,1.656,0.287,2.736,2.195,2.736
				c1.043,0,2.088-0.252,3.096-0.504V50.744z"/>
			<path style="fill:#FFFFFF;" d="M753.438,26.123c-0.898-0.288-1.836-0.54-2.771-0.54c-2.52,0-2.664,1.584-2.664,5.075h3.744v2.52
				h-3.744v17.926h-3.742V33.178h-2.484v-2.52h2.484c0-4.499,0.684-7.666,5.723-7.666c1.188,0,2.34,0.144,3.455,0.432V26.123z"/>
			<path style="fill:#FFFFFF;" d="M759.379,51.104h-3.744V33.178h-2.34v-2.52h6.084V51.104z M757.508,27.743
				c-1.189,0-2.125-0.937-2.125-2.124s0.936-2.123,2.125-2.123c1.15,0,2.123,0.971,2.123,2.123
				C759.631,26.807,758.695,27.743,757.508,27.743z"/>
			<path style="fill:#FFFFFF;" d="M778.457,50.527c-1.836,0.576-3.779,0.865-5.723,0.865c-6.623,0-8.531-4.607-8.531-10.547
				c0-5.111,2.016-10.475,7.918-10.475c6.66,0,7.092,6.191,7.092,11.338h-11.051c0,3.455,0.828,7.127,5.076,7.127
				c1.764,0,3.527-0.396,5.219-0.863V50.527z M775.541,39.405c0-2.304-0.18-6.515-3.42-6.515c-3.311,0-3.814,4.067-3.959,6.515
				H775.541z"/>
			<path style="fill:#FFFFFF;" d="M787.494,51.104h-3.742V23.279h3.742V51.104z"/>
			<path style="fill:#FFFFFF;" d="M804.953,48.584c-1.26,2.124-3.131,2.809-5.543,2.809c-6.191,0-7.307-5.544-7.307-10.619
				c0-4.752,1.836-10.402,7.523-10.402c1.691,0,3.311,0.432,4.426,1.764v-8.855h3.744v27.824h-2.051L804.953,48.584z
				 M800.201,32.891c-3.887,0-4.211,4.932-4.211,7.811c0,2.699,0.289,8.171,4.068,8.171c4.391,0,4.104-5.039,4.104-8.206
				C804.162,37.822,804.162,32.891,800.201,32.891z"/>
		</g>
		<g>
			<path d="M166.929,51.104h-8.135v-2.627h2.16V27.527h-2.16v-2.628h8.135v2.628h-2.196v20.949h2.196V51.104z"/>
			<path d="M174.021,33.682c1.296-2.23,3.384-3.311,5.939-3.311c4.284,0,6.227,2.34,6.227,6.515v14.218h-3.743V37.498
				c0-2.52-0.648-4.607-3.24-4.607c-3.167,0-4.284,2.879-4.284,5.579v12.634h-3.743V30.658h2.087L174.021,33.682z"/>
			<path d="M194.432,33.574c1.692-2.484,3.492-3.203,5.903-3.203c5.688,0,6.803,5.326,6.803,10.223
				c0,5.902-2.412,10.727-8.927,10.727c-0.936,0-2.16-0.217-2.88-0.396v6.047h-3.743V30.658h2.087L194.432,33.574z M195.332,48.297
				c0.756,0.287,1.8,0.504,2.844,0.504c4.571,0,5.076-4.141,5.076-8.387c0-4.32-0.864-7.523-3.78-7.523
				c-3.779,0-4.14,3.959-4.14,6.875V48.297z"/>
			<path d="M223.843,48.08c-1.296,2.232-3.383,3.312-5.939,3.312c-4.284,0-6.228-2.34-6.228-6.516V30.658h3.744v13.606
				c0,2.521,0.648,4.607,3.24,4.607c3.167,0,4.283-2.88,4.283-5.579V30.658h3.744v20.445h-2.088L223.843,48.08z"/>
			<path d="M241.807,50.744c-1.44,0.396-2.952,0.648-4.427,0.648c-3.24,0-4.607-1.477-4.607-4.68V33.178h-2.484v-2.52h2.52
				l1.476-4.895h2.232v4.895h4.967v2.52h-4.967v12.887c0,1.656,0.288,2.736,2.195,2.736c1.044,0,2.088-0.252,3.096-0.504V50.744z"/>
			<path d="M263.623,26.123c-0.9-0.288-1.836-0.54-2.772-0.54c-2.52,0-2.664,1.584-2.664,5.075h3.744v2.52h-3.744v17.926h-3.744
				V33.178h-2.483v-2.52h2.483c0-4.499,0.684-7.666,5.724-7.666c1.188,0,2.339,0.144,3.456,0.432V26.123z"/>
			<path d="M269.563,51.104h-3.744V33.178h-2.339v-2.52h6.083V51.104z M267.691,27.743c-1.188,0-2.124-0.937-2.124-2.124
				s0.936-2.123,2.124-2.123c1.152,0,2.124,0.971,2.124,2.123C269.815,26.807,268.879,27.743,267.691,27.743z"/>
			<path d="M288.642,50.527c-1.836,0.576-3.779,0.865-5.723,0.865c-6.624,0-8.531-4.607-8.531-10.547
				c0-5.111,2.016-10.475,7.919-10.475c6.659,0,7.091,6.191,7.091,11.338h-11.051c0,3.455,0.828,7.127,5.076,7.127
				c1.764,0,3.527-0.396,5.219-0.863V50.527z M285.726,39.405c0-2.304-0.18-6.515-3.42-6.515c-3.312,0-3.815,4.067-3.959,6.515
				H285.726z"/>
			<path d="M297.679,51.104h-3.743V23.279h3.743V51.104z"/>
			<path d="M315.138,48.584c-1.26,2.124-3.132,2.809-5.543,2.809c-6.191,0-7.307-5.544-7.307-10.619
				c0-4.752,1.836-10.402,7.523-10.402c1.691,0,3.312,0.432,4.427,1.764v-8.855h3.744v27.824h-2.052L315.138,48.584z
				 M310.386,32.891c-3.888,0-4.211,4.932-4.211,7.811c0,2.699,0.288,8.171,4.067,8.171c4.392,0,4.104-5.039,4.104-8.206
				C314.346,37.822,314.346,32.891,310.386,32.891z"/>
		</g>
	</g>
	<g id="meegotouch-textedit-button-inverted-background-selected">
		<g>
			<path style="fill:#00DB00;" d="M872,260.5c-5.238,0-9.5-4.262-9.5-9.5v-23c0-5.238,4.262-9.5,9.5-9.5h23
				c5.238,0,9.5,4.262,9.5,9.5v23c0,5.238-4.262,9.5-9.5,9.5H872z"/>
			<g>
				<path style="fill:#333333;" d="M895,219c4.963,0,9,4.037,9,9v23c0,4.963-4.037,9-9,9h-23c-4.963,0-9-4.037-9-9v-23
					c0-4.963,4.037-9,9-9H895 M895,218h-23c-5.5,0-10,4.5-10,10v23c0,5.5,4.5,10,10,10h23c5.5,0,10-4.5,10-10v-23
					C905,222.5,900.5,218,895,218L895,218z"/>
			</g>
		</g>
	</g>
	<g id="meegotouch-textedit-button-inverted-background-pressed">
		<g>
			<path d="M872,200.5c-5.238,0-9.5-4.262-9.5-9.5v-23c0-5.238,4.262-9.5,9.5-9.5h23c5.238,0,9.5,4.262,9.5,9.5v23
				c0,5.238-4.262,9.5-9.5,9.5H872z"/>
			<g>
				<path style="fill:#333333;" d="M895,159c4.963,0,9,4.038,9,9v23c0,4.962-4.037,9-9,9h-23c-4.963,0-9-4.038-9-9v-23
					c0-4.962,4.037-9,9-9H895 M895,158h-23c-5.5,0-10,4.5-10,10v23c0,5.5,4.5,10,10,10h23c5.5,0,10-4.5,10-10v-23
					C905,162.5,900.5,158,895,158L895,158z"/>
			</g>
		</g>
	</g>
	<g id="meegotouch-textedit-button-inverted-background">
		<g>
			<path style="fill:#1A1A1A;" d="M872,144.5c-5.238,0-9.5-4.262-9.5-9.5v-23c0-5.238,4.262-9.5,9.5-9.5h23
				c5.238,0,9.5,4.262,9.5,9.5v23c0,5.238-4.262,9.5-9.5,9.5H872z"/>
			<g>
				<path style="fill:#333333;" d="M895,103c4.963,0,9,4.038,9,9v23c0,4.962-4.037,9-9,9h-23c-4.963,0-9-4.038-9-9v-23
					c0-4.962,4.037-9,9-9H895 M895,102h-23c-5.5,0-10,4.5-10,10v23c0,5.5,4.5,10,10,10h23c5.5,0,10-4.5,10-10v-23
					C905,106.5,900.5,102,895,102L895,102z"/>
			</g>
		</g>
	</g>
	<g id="meegotouch-textedit-button-inverted-background-disabled-horizontal-right" style="opacity:0.3;">
		<path style="fill:#333333;" d="M756,278h38c5.5,0,10,4.5,10,10v32c0,5.5-4.5,10-10,10h-38V278z"/>
		<path style="fill:#FFFFFF;" d="M793,279c5.5,0,10,4.5,10,10v30c0,5.5-4.5,10-10,10h-37v-50H793z"/>
	</g>
	<g id="meegotouch-textedit-inverted-background-disabled-selected-horizontal-left" style="opacity:0.3;">
		<path style="fill:#333333;" d="M746,330h-38c-5.5,0-10-4.5-10-10v-32c0-5.5,4.5-10,10-10h38V330z"/>
		<path style="fill:#FFFFFF;" d="M709,329c-5.5,0-10-4.5-10-10v-30c0-5.5,4.5-10,10-10h37v50H709z"/>
	</g>
	<g id="meegotouch-textedit-button-inverted-background-pressed-horizontal-right">
		<path style="fill:#333333;" d="M756,218h38c5.5,0,10,4.5,10,10v32c0,5.5-4.5,10-10,10h-38V218z"/>
		<path d="M793,219c5.5,0,10,4.5,10,10v30c0,5.5-4.5,10-10,10h-37v-50H793z"/>
		<rect x="756.002" y="221" width="1" height="46"/>
	</g>
	<g id="meegotouch-textedit-button-inverted-background-selected-pressed-horizontal-right">
		<path style="fill:#6666FF;" d="M698,218h38c5.5,0,10,4.5,10,10v32c0,5.5-4.5,10-10,10h-38V218z"/>
		<path style="fill:#FFFFFF;" d="M735,219c5.5,0,10,4.5,10,10v30c0,5.5-4.5,10-10,10h-37v-50H735z"/>
		<rect x="698.002" y="221" style="fill:#CCCCCC;" width="1" height="46"/>
	</g>
	<g id="meegotouch-textedit-button-inverted-background-selected-horizontal-right">
		<path style="fill:#6666FF;" d="M756,158h38c5.5,0,10,4.5,10,10v32c0,5.5-4.5,10-10,10h-38V158z"/>
		<path style="fill:#FFFFFF;" d="M793,159c5.5,0,10,4.5,10,10v30c0,5.5-4.5,10-10,10h-37v-50H793z"/>
		<rect x="756.002" y="161" style="fill:#CCCCCC;" width="1" height="46"/>
	</g>
	<g id="meegotouch-textedit-inverted-background-selected-horizontal-left">
		<path style="fill:#6666FF;" d="M746,210h-38c-5.5,0-10-4.5-10-10v-32c0-5.5,4.5-10,10-10h38V210z"/>
		<path style="fill:#FFFFFF;" d="M709,209c-5.5,0-10-4.5-10-10v-30c0-5.5,4.5-10,10-10h37v50H709z"/>
	</g>
	<g id="meegotouch-textedit-button-inverted-background-horizontal-right">
		<path style="fill:#333333;" d="M756,100h38c5.5,0,10,4.5,10,10v32c0,5.5-4.5,10-10,10h-38V100z"/>
		<path style="fill:#FFFFFF;" d="M793,101c5.5,0,10,4.5,10,10v30c0,5.5-4.5,10-10,10h-37v-50H793z"/>
		<rect x="756.002" y="103" style="fill:#CCCCCC;" width="1" height="46"/>
	</g>
	<g id="meegotouch-textedit-inverted-background-horizontal-left">
		<path style="fill:#333333;" d="M746,152h-38c-5.5,0-10-4.5-10-10v-32c0-5.5,4.5-10,10-10h38V152z"/>
		<path style="fill:#FFFFFF;" d="M709,151c-5.5,0-10-4.5-10-10v-30c0-5.5,4.5-10,10-10h37v50H709z"/>
	</g>
	<g id="meegotouch-textedit-inverted-background-error">
		<g>
			<path style="fill:#FFFFFF;" d="M680,316c0,5.5-4.5,10-10,10h-80c-5.5,0-10-4.5-10-10v-32c0-5.5,4.5-10,10-10h80
				c5.5,0,10,4.5,10,10V316z"/>
			<g>
				<path style="fill:#FF6668;" d="M670,276c4.411,0,8,3.589,8,8v32c0,4.411-3.589,8-8,8h-80c-4.411,0-8-3.589-8-8v-32
					c0-4.411,3.589-8,8-8H670 M670,274h-80c-5.5,0-10,4.5-10,10v32c0,5.5,4.5,10,10,10h80c5.5,0,10-4.5,10-10v-32
					C680,278.5,675.5,274,670,274L670,274z"/>
			</g>
		</g>
	</g>
	<g id="meegotouch-textedit-inverted-background-disabled" style="opacity:0.3;">
		<g>
			<path style="fill:#FFFFFF;" d="M680,260c0,5.5-4.5,10-10,10h-80c-5.5,0-10-4.5-10-10v-32c0-5.5,4.5-10,10-10h80
				c5.5,0,10,4.5,10,10V260z"/>
			<g>
				<path style="fill:#333333;" d="M670,219c4.963,0,9,4.037,9,9v32c0,4.963-4.037,9-9,9h-80c-4.963,0-9-4.037-9-9v-32
					c0-4.963,4.037-9,9-9H670 M670,218h-80c-5.5,0-10,4.5-10,10v32c0,5.5,4.5,10,10,10h80c5.5,0,10-4.5,10-10v-32
					C680,222.5,675.5,218,670,218L670,218z"/>
			</g>
		</g>
	</g>
	<g id="meegotouch-textedit-inverted-background-selected">
		<g>
			<path style="fill:#FFFFFF;" d="M680,200c0,5.5-4.5,10-10,10h-80c-5.5,0-10-4.5-10-10v-32c0-5.5,4.5-10,10-10h80
				c5.5,0,10,4.5,10,10V200z"/>
			<path style="fill:#6666FF;" d="M670,159c4.963,0,9,4.038,9,9v32c0,4.963-4.037,9-9,9h-80c-4.963,0-9-4.037-9-9v-32
				c0-4.962,4.037-9,9-9H670 M670,158h-80c-5.5,0-10,4.5-10,10v32c0,5.5,4.5,10,10,10h80c5.5,0,10-4.5,10-10v-32
				C680,162.5,675.5,158,670,158L670,158z"/>
		</g>
	</g>
	<g id="meegotouch-textedit-inverted-background">
		<g>
			<path style="fill:#FFFFFF;" d="M680,142c0,5.5-4.5,10-10,10h-80c-5.5,0-10-4.5-10-10v-32c0-5.5,4.5-10,10-10h80
				c5.5,0,10,4.5,10,10V142z"/>
			<path style="fill:#333333;" d="M670,101c4.963,0,9,4.038,9,9v32c0,4.962-4.037,9-9,9h-80c-4.963,0-9-4.038-9-9v-32
				c0-4.962,4.037-9,9-9H670 M670,100h-80c-5.5,0-10,4.5-10,10v32c0,5.5,4.5,10,10,10h80c5.5,0,10-4.5,10-10v-32
				C680,104.5,675.5,100,670,100L670,100z"/>
		</g>
	</g>
	<g id="meegotouch-textedit-button-background-selected">
		<g>
			<path style="fill:#00DB00;" d="M392,260.5c-5.238,0-9.5-4.262-9.5-9.5v-23c0-5.238,4.262-9.5,9.5-9.5h23
				c5.238,0,9.5,4.262,9.5,9.5v23c0,5.238-4.262,9.5-9.5,9.5H392z"/>
			<path style="fill:#666666;" d="M415,219c4.962,0,9,4.037,9,9v23c0,4.963-4.038,9-9,9h-23c-4.962,0-9-4.037-9-9v-23
				c0-4.963,4.038-9,9-9H415 M415,218h-23c-5.5,0-10,4.5-10,10v23c0,5.5,4.5,10,10,10h23c5.5,0,10-4.5,10-10v-23
				C425,222.5,420.5,218,415,218L415,218z"/>
		</g>
	</g>
	<g id="meegotouch-textedit-button-background-pressed">
		<g>
			<path style="fill:#C8C8C8;" d="M392,200.5c-5.238,0-9.5-4.262-9.5-9.5v-23c0-5.238,4.262-9.5,9.5-9.5h23
				c5.238,0,9.5,4.262,9.5,9.5v23c0,5.238-4.262,9.5-9.5,9.5H392z"/>
			<path style="fill:#666666;" d="M415,159c4.962,0,9,4.038,9,9v23c0,4.962-4.038,9-9,9h-23c-4.962,0-9-4.038-9-9v-23
				c0-4.962,4.038-9,9-9H415 M415,158h-23c-5.5,0-10,4.5-10,10v23c0,5.5,4.5,10,10,10h23c5.5,0,10-4.5,10-10v-23
				C425,162.5,420.5,158,415,158L415,158z"/>
		</g>
	</g>
	<g id="meegotouch-textedit-button-background">
		<g>
			<path style="fill:#F2F2F2;" d="M392,144.5c-5.238,0-9.5-4.262-9.5-9.5v-23c0-5.238,4.262-9.5,9.5-9.5h23
				c5.238,0,9.5,4.262,9.5,9.5v23c0,5.238-4.262,9.5-9.5,9.5H392z"/>
			<path style="fill:#666666;" d="M415,103c4.962,0,9,4.038,9,9v23c0,4.962-4.038,9-9,9h-23c-4.962,0-9-4.038-9-9v-23
				c0-4.962,4.038-9,9-9H415 M415,102h-23c-5.5,0-10,4.5-10,10v23c0,5.5,4.5,10,10,10h23c5.5,0,10-4.5,10-10v-23
				C425,106.5,420.5,102,415,102L415,102z"/>
		</g>
	</g>
	<g id="meegotouch-textedit-button-background-disabled-horizontal-right" style="opacity:0.3;">
		<path style="fill:#666666;" d="M276,278h38c5.5,0,10,4.5,10,10v32c0,5.5-4.5,10-10,10h-38V278z"/>
		<path style="fill:#FFFFFF;" d="M313,279c5.5,0,10,4.5,10,10v30c0,5.5-4.5,10-10,10h-37v-50H313z"/>
	</g>
	<g id="meegotouch-textedit-background-disabled-selected-horizontal-left" style="opacity:0.3;">
		<path style="fill:#666666;" d="M266,330h-38c-5.5,0-10-4.5-10-10v-32c0-5.5,4.5-10,10-10h38V330z"/>
		<path style="fill:#FFFFFF;" d="M229,329c-5.5,0-10-4.5-10-10v-30c0-5.5,4.5-10,10-10h37v50H229z"/>
	</g>
	<g id="meegotouch-textedit-button-background-pressed-horizontal-right">
		<path style="fill:#666666;" d="M276,218h38c5.5,0,10,4.5,10,10v32c0,5.5-4.5,10-10,10h-38V218z"/>
		<path style="fill:#C8C8C8;" d="M313,219c5.5,0,10,4.5,10,10v30c0,5.5-4.5,10-10,10h-37v-50H313z"/>
		<rect x="276.001" y="221" style="fill:#CCCCCC;" width="1" height="46"/>
	</g>
	<g id="meegotouch-textedit-button-background-selected-pressed-horizontal-right">
		<g>
			<path style="fill:#6666FF;" d="M218,218h38c5.5,0,10,4.5,10,10v32c0,5.5-4.5,10-10,10h-38V218z"/>
		</g>
		<path style="fill:#C8C8C8;" d="M255,219c5.5,0,10,4.5,10,10v30c0,5.5-4.5,10-10,10h-37v-50H255z"/>
		<rect x="218.001" y="221" style="fill:#CCCCCC;" width="1" height="46"/>
	</g>
	<g id="meegotouch-textedit-button-background-selected-horizontal-right">
		<g>
			<path style="fill:#6666FF;" d="M276,158h38c5.5,0,10,4.5,10,10v32c0,5.5-4.5,10-10,10h-38V158z"/>
		</g>
		<path style="fill:#FFFFFF;" d="M313,159c5.5,0,10,4.5,10,10v30c0,5.5-4.5,10-10,10h-37v-50H313z"/>
		<rect x="276.001" y="161" style="fill:#CCCCCC;" width="1" height="46"/>
	</g>
	<g id="meegotouch-textedit-background-selected-horizontal-left">
		<g>
			<path style="fill:#6666FF;" d="M266,210h-38c-5.5,0-10-4.5-10-10v-32c0-5.5,4.5-10,10-10h38V210z"/>
		</g>
		<path style="fill:#FFFFFF;" d="M229,209c-5.5,0-10-4.5-10-10v-30c0-5.5,4.5-10,10-10h37v50H229z"/>
	</g>
	<g id="meegotouch-textedit-button-background-horizontal-right">
		<path style="fill:#666666;" d="M276,100h38c5.5,0,10,4.5,10,10v32c0,5.5-4.5,10-10,10h-38V100z"/>
		<path style="fill:#FFFFFF;" d="M313,101c5.5,0,10,4.5,10,10v30c0,5.5-4.5,10-10,10h-37v-50H313z"/>
		<rect x="276.001" y="103" style="fill:#CCCCCC;" width="1" height="46"/>
	</g>
	<g id="meegotouch-textedit-background-horizontal-left">
		<path style="fill:#666666;" d="M266,152h-38c-5.5,0-10-4.5-10-10v-32c0-5.5,4.5-10,10-10h38V152z"/>
		<path style="fill:#FFFFFF;" d="M229,151c-5.5,0-10-4.5-10-10v-30c0-5.5,4.5-10,10-10h37v50H229z"/>
	</g>
	<g id="meegotouch-textedit-background-error">
		<g>
			<path style="fill:#FFFFFF;" d="M200,316c0,5.5-4.5,10-10,10h-80c-5.5,0-10-4.5-10-10v-32c0-5.5,4.5-10,10-10h80
				c5.5,0,10,4.5,10,10V316z"/>
			<g>
				<path style="fill:#FF6668;" d="M190,276c4.411,0,8,3.589,8,8v32c0,4.411-3.589,8-8,8h-80c-4.411,0-8-3.589-8-8v-32
					c0-4.411,3.589-8,8-8H190 M190,274h-80c-5.5,0-10,4.5-10,10v32c0,5.5,4.5,10,10,10h80c5.5,0,10-4.5,10-10v-32
					C200,278.5,195.5,274,190,274L190,274z"/>
			</g>
		</g>
	</g>
	<g id="meegotouch-textedit-background-disabled" style="opacity:0.3;">
		<g>
			<path style="fill:#FFFFFF;" d="M200,260c0,5.5-4.5,10-10,10h-80c-5.5,0-10-4.5-10-10v-32c0-5.5,4.5-10,10-10h80
				c5.5,0,10,4.5,10,10V260z"/>
			<g>
				<path style="fill:#666666;" d="M190,219c4.962,0,9,4.037,9,9v32c0,4.963-4.038,9-9,9h-80c-4.962,0-9-4.037-9-9v-32
					c0-4.963,4.038-9,9-9H190 M190,218h-80c-5.5,0-10,4.5-10,10v32c0,5.5,4.5,10,10,10h80c5.5,0,10-4.5,10-10v-32
					C200,222.5,195.5,218,190,218L190,218z"/>
			</g>
		</g>
	</g>
	<g id="meegotouch-textedit-background-selected">
		<g>
			<path style="fill:#FFFFFF;" d="M200,200c0,5.5-4.5,10-10,10h-80c-5.5,0-10-4.5-10-10v-32c0-5.5,4.5-10,10-10h80
				c5.5,0,10,4.5,10,10V200z"/>
			<path style="fill:#6666FF;" d="M190,159c4.962,0,9,4.038,9,9v32c0,4.963-4.038,9-9,9h-80c-4.962,0-9-4.037-9-9v-32
				c0-4.962,4.038-9,9-9H190 M190,158h-80c-5.5,0-10,4.5-10,10v32c0,5.5,4.5,10,10,10h80c5.5,0,10-4.5,10-10v-32
				C200,162.5,195.5,158,190,158L190,158z"/>
		</g>
	</g>
	<g id="meegotouch-textedit-background">
		<g>
			<path style="fill:#FFFFFF;" d="M200,142c0,5.5-4.5,10-10,10h-80c-5.5,0-10-4.5-10-10v-32c0-5.5,4.5-10,10-10h80
				c5.5,0,10,4.5,10,10V142z"/>
			<path style="fill:#666666;" d="M190,101c4.962,0,9,4.038,9,9v32c0,4.962-4.038,9-9,9h-80c-4.962,0-9-4.038-9-9v-32
				c0-4.962,4.038-9,9-9H190 M190,100h-80c-5.5,0-10,4.5-10,10v32c0,5.5,4.5,10,10,10h80c5.5,0,10-4.5,10-10v-32
				C200,104.5,195.5,100,190,100L190,100z"/>
		</g>
	</g>
</g>
</svg>
