<?xml version="1.0" encoding="iso-8859-1"?>
<!-- Generator: Adobe Illustrator 14.0.0, SVG Export Plug-In . SVG Version: 6.00 Build 43363)  -->
<!DOCTYPE svg PUBLIC "-//W3C//DTD SVG 1.1//EN" "http://www.w3.org/Graphics/SVG/1.1/DTD/svg11.dtd">
<svg version="1.1" id="meegotouch-switch-layer" xmlns="http://www.w3.org/2000/svg" xmlns:xlink="http://www.w3.org/1999/xlink"
	 x="0px" y="0px" width="350px" height="148px" viewBox="0 0 350 148" style="enable-background:new 0 0 350 148;"
	 xml:space="preserve">
<g id="meegotouch-switch">
	<g id="MeegoTouchSwithThemeTemplateHelper">
		<g>
			<path style="fill:#B3B3B3;" d="M16,147c-8.271,0-15-6.729-15-15V16C1,7.729,7.729,1,16,1h318c8.271,0,15,6.729,15,15v116
				c0,8.271-6.729,15-15,15H16z"/>
			<g>
				<path d="M334,2c7.721,0,14,6.28,14,14v116c0,7.721-6.279,14-14,14H16c-7.721,0-14-6.279-14-14V16C2,8.28,8.279,2,16,2H334
					 M334,0H16C7.2,0,0,7.2,0,16v116c0,8.8,7.2,16,16,16h318c8.8,0,16-7.2,16-16V16C350,7.2,342.8,0,334,0L334,0z"/>
			</g>
		</g>
		<g>
			<path d="M150.75,34.497c-1.025,0-2.047-0.14-3.066-0.421v-1.59c1.121,0.322,2.123,0.481,3.004,0.481
				c0.943,0,1.691-0.211,2.242-0.635c0.549-0.424,0.824-1.033,0.824-1.826c0-0.506-0.107-0.934-0.322-1.286
				c-0.215-0.352-0.494-0.65-0.836-0.896s-0.838-0.557-1.486-0.934c-0.772-0.443-1.383-0.839-1.83-1.185
				c-0.448-0.347-0.821-0.786-1.122-1.323c-0.302-0.535-0.451-1.188-0.451-1.953c0-1.299,0.433-2.298,1.297-2.998
				c0.865-0.701,2.041-1.052,3.531-1.052c0.979,0,1.896,0.103,2.748,0.308v1.539c-0.957-0.213-1.824-0.318-2.604-0.318
				c-0.813,0-1.475,0.197-1.984,0.59c-0.508,0.393-0.764,0.938-0.764,1.635c0,0.451,0.135,0.883,0.404,1.293
				c0.271,0.41,1.004,0.963,2.199,1.66c0.779,0.451,1.395,0.848,1.842,1.189c0.447,0.341,0.826,0.779,1.139,1.312
				c0.312,0.533,0.465,1.173,0.465,1.918C155.979,33,154.236,34.497,150.75,34.497z"/>
			<path d="M173.002,22.408l-3.211,11.925h-2.562l-2.328-9.618l-2.502,9.618h-2.521l-3.088-11.925h2.205l2.317,10.037l2.521-10.037
				h2.41l2.369,10.059l2.461-10.059H173.002z"/>
			<path d="M177.184,34.333H175v-10.5h-1.363v-1.425h3.547V34.333L177.184,34.333z M176.098,18.225c0.334,0,0.623,0.123,0.867,0.369
				c0.242,0.246,0.363,0.536,0.363,0.871c0,0.342-0.119,0.635-0.359,0.877c-0.238,0.242-0.529,0.363-0.871,0.363
				c-0.35,0-0.643-0.121-0.883-0.363c-0.238-0.242-0.357-0.535-0.357-0.877c0-0.349,0.119-0.643,0.357-0.882
				C175.455,18.344,175.748,18.225,176.098,18.225z"/>
			<path d="M183.336,34.497c-0.93,0-1.609-0.217-2.039-0.651c-0.432-0.434-0.646-1.126-0.646-2.076v-7.937h-1.566v-0.819
				l3.188-3.252h0.563v2.646h2.901v1.425h-2.901v7.577c0,0.65,0.104,1.079,0.317,1.287c0.211,0.209,0.533,0.312,0.964,0.312
				c0.444,0,1.047-0.099,1.805-0.297v1.415C185.004,34.374,184.143,34.497,183.336,34.497z"/>
			<path d="M191.828,34.497c-1.621,0-2.846-0.531-3.672-1.595c-0.828-1.062-1.24-2.623-1.24-4.682c0-1.914,0.445-3.391,1.338-4.43
				s2.189-1.559,3.891-1.559c0.664,0,1.336,0.084,2.021,0.257v1.485c-0.521-0.164-1.166-0.246-1.939-0.246
				c-0.998,0-1.754,0.398-2.271,1.194c-0.517,0.797-0.772,1.909-0.772,3.338c0,1.538,0.258,2.714,0.772,3.527
				c0.519,0.813,1.272,1.22,2.271,1.22c0.861,0,1.535-0.078,2.021-0.234v1.414C193.516,34.395,192.709,34.497,191.828,34.497z"/>
			<path d="M204.953,34.333h-2.186v-8.11c0-0.828-0.156-1.449-0.473-1.867c-0.312-0.416-0.787-0.625-1.416-0.625
				c-0.793,0-1.406,0.302-1.846,0.902c-0.438,0.602-0.656,1.385-0.656,2.348v7.354h-2.186V18.102h2.186v5.455
				c0.762-0.883,1.74-1.322,2.941-1.322c1.213,0,2.117,0.322,2.725,0.969c0.604,0.646,0.908,1.611,0.908,2.896L204.953,34.333
				L204.953,34.333z"/>
		</g>
	</g>
	<g id="meegotouch-button-switch-colorstripe-active">
		<rect x="190" y="98" style="fill:#66C0EF;" width="64" height="40"/>
	</g>
	<g id="meegotouch-button-switch-colorstripe-normal">
		<g id="_x3C_Path_x3E__1_">
			<rect x="254" y="98" style="fill:#191919;" width="64" height="40"/>
		</g>
	</g>
	<g id="meegotouch-button-switch-background">
		<g>
			<path style="fill:#FFFFFF;" d="M164,120c0,11-9,20-20,20h-24c-11,0-20-9-20-20l0,0c0-11,9-20,20-20h24C155,100,164,109,164,120
				L164,120z"/>
		</g>
	</g>
	<g id="meegotouch-button-switch-mask">
		<g>
			<path style="fill:#191919;" d="M84,120c0,11-9,20-20,20H40c-11,0-20-9-20-20l0,0c0-11,9-20,20-20h24C75,100,84,109,84,120L84,120
				z"/>
		</g>
	</g>
	<g id="meegotouch-button-switch-thumb">
		<g>
			<path style="fill:#FFFFFF;" d="M57,70c0,8.25-6.75,15-15,15l0,0c-8.25,0-15-6.75-15-15l0,0c0-8.25,6.75-15,15-15l0,0
				C50.25,55,57,61.75,57,70L57,70z"/>
		</g>
	</g>
</g>
</svg>
