<?xml version="1.0" encoding="iso-8859-1"?>
<!-- Generator: Adobe Illustrator 15.0.1, SVG Export Plug-In . SVG Version: 6.00 Build 0)  -->
<!DOCTYPE svg PUBLIC "-//W3C//DTD SVG 1.1//EN" "http://www.w3.org/Graphics/SVG/1.1/DTD/svg11.dtd">
<svg version="1.1" id="meegotouch-positionindicator-layer"
	 xmlns="http://www.w3.org/2000/svg" xmlns:xlink="http://www.w3.org/1999/xlink" x="0px" y="0px" width="410px" height="190px"
	 viewBox="0 0 410 190" style="enable-background:new 0 0 410 190;" xml:space="preserve">
<g id="meegotouch-positionindicator">
	<g id="_x23_PositionIndicatorThemeHelper">
		<g>
			<path d="M222,189.5c-6.341,0-11.5-5.159-11.5-11.5V12c0-6.341,5.159-11.5,11.5-11.5h176c6.341,0,11.5,5.159,11.5,11.5v166
				c0,6.341-5.159,11.5-11.5,11.5H222z"/>
			<g>
				<path style="fill:#A6A8AB;" d="M398,1c6.065,0,11,4.935,11,11v166c0,6.065-4.935,11-11,11H222c-6.065,0-11-4.935-11-11V12
					c0-6.065,4.935-11,11-11H398 M398,0H222c-6.6,0-12,5.4-12,12v166c0,6.6,5.4,12,12,12h176c6.6,0,12-5.4,12-12V12
					C410,5.4,404.6,0,398,0L398,0z"/>
			</g>
		</g>
		<g>
			<path style="fill:#F0F0F1;" d="M12,189.5c-6.341,0-11.5-5.159-11.5-11.5V12C0.5,5.659,5.659,0.5,12,0.5h176
				c6.341,0,11.5,5.159,11.5,11.5v166c0,6.341-5.159,11.5-11.5,11.5H12z"/>
			<path style="fill:#929497;" d="M188,1c6.065,0,11,4.935,11,11v166c0,6.065-4.935,11-11,11H12c-6.065,0-11-4.935-11-11V12
				C1,5.935,5.935,1,12,1H188 M188,0H12C5.4,0,0,5.4,0,12v166c0,6.6,5.4,12,12,12h176c6.6,0,12-5.4,12-12V12C200,5.4,194.6,0,188,0
				L188,0z"/>
		</g>
		<g>
			<path style="fill:#FFFFFF;" d="M225.797,39.733c2.592,0,3.232,1.489,3.232,3.49c0,2.161-1.088,3.745-3.553,3.745h-1.297v4.418
				h-1.088V39.733H225.797z M225.283,46.104c0.961,0,1.426-0.176,1.793-0.48c0.609-0.496,0.816-1.345,0.816-2.385
				c0-1.008-0.176-1.873-0.881-2.321c-0.318-0.208-0.736-0.32-1.504-0.32h-1.328v5.506H225.283z"/>
			<path style="fill:#FFFFFF;" d="M234.115,51.514c-2.752,0-3.344-2.529-3.344-4.802c0-2.192,0.832-4.514,3.344-4.514
				c2.562,0,3.346,2.305,3.346,4.514C237.461,49.129,236.758,51.514,234.115,51.514z M234.115,43.03
				c-1.953,0-2.256,2.145-2.256,3.682c0,1.521,0.271,3.97,2.289,3.97c2.113,0,2.225-2.401,2.225-4.034
				C236.373,45.239,235.973,43.03,234.115,43.03z"/>
			<path style="fill:#FFFFFF;" d="M243.844,43.302c-0.607-0.192-1.088-0.272-1.809-0.272c-0.992,0-1.633,0.48-1.633,1.457
				c0,0.929,0.561,1.232,1.568,1.761c1.072,0.561,2.146,1.169,2.146,2.641c0,1.857-1.137,2.625-2.914,2.625
				c-0.625,0-1.424-0.144-2.033-0.288v-0.88c0.752,0.208,1.568,0.336,2.145,0.336c1.025,0,1.762-0.432,1.762-1.569
				c0-1.041-0.736-1.457-1.697-1.953c-0.977-0.496-2.016-1.088-2.016-2.545c0-1.585,1.215-2.417,2.705-2.417
				c0.656,0,1.215,0.096,1.775,0.256V43.302z"/>
			<path style="fill:#FFFFFF;" d="M247.475,51.386h-1.039v-8.228h-1.041v-0.832h2.08V51.386z M246.947,41.045
				c-0.449,0-0.656-0.384-0.656-0.832c0-0.464,0.207-0.833,0.656-0.833c0.432,0,0.672,0.384,0.672,0.833
				S247.395,41.045,246.947,41.045z"/>
			<path style="fill:#FFFFFF;" d="M253.893,51.258c-0.48,0.128-1.121,0.256-1.666,0.256c-1.408,0-1.809-0.832-1.809-1.985v-6.371
				h-1.008v-0.832h0.977l0.32-1.697h0.752v1.697h2.193v0.832h-2.193v6.179c0,0.769,0.096,1.345,0.961,1.345
				c0.48,0,0.959-0.096,1.473-0.24V51.258z"/>
			<path style="fill:#FFFFFF;" d="M256.723,51.386h-1.041v-8.228h-1.039v-0.832h2.08V51.386z M256.195,41.045
				c-0.449,0-0.656-0.384-0.656-0.832c0-0.464,0.207-0.833,0.656-0.833c0.432,0,0.672,0.384,0.672,0.833
				S256.643,41.045,256.195,41.045z"/>
			<path style="fill:#FFFFFF;" d="M262.42,51.514c-2.754,0-3.346-2.529-3.346-4.802c0-2.192,0.832-4.514,3.346-4.514
				c2.561,0,3.346,2.305,3.346,4.514C265.766,49.129,265.061,51.514,262.42,51.514z M262.42,43.03c-1.953,0-2.258,2.145-2.258,3.682
				c0,1.521,0.273,3.97,2.289,3.97c2.113,0,2.225-2.401,2.225-4.034C264.676,45.239,264.275,43.03,262.42,43.03z"/>
			<path style="fill:#FFFFFF;" d="M269.01,43.606c0.529-0.832,1.426-1.408,2.434-1.408c1.889,0,2.721,1.024,2.721,3.009v6.178
				h-1.039v-5.89c0-1.425-0.385-2.465-1.713-2.465c-1.553,0-2.258,1.265-2.258,2.673v5.682h-1.039v-9.06h0.688L269.01,43.606z"/>
			<path style="fill:#FFFFFF;" d="M282.082,51.386h-1.039v-8.228h-1.041v-0.832h2.08V51.386z M281.555,41.045
				c-0.449,0-0.656-0.384-0.656-0.832c0-0.464,0.207-0.833,0.656-0.833c0.432,0,0.672,0.384,0.672,0.833
				S282.002,41.045,281.555,41.045z"/>
			<path style="fill:#FFFFFF;" d="M285.795,43.606c0.527-0.832,1.424-1.408,2.432-1.408c1.889,0,2.723,1.024,2.723,3.009v6.178
				h-1.041v-5.89c0-1.425-0.385-2.465-1.713-2.465c-1.553,0-2.258,1.265-2.258,2.673v5.682h-1.039v-9.06h0.688L285.795,43.606z"/>
			<path style="fill:#FFFFFF;" d="M299.604,51.37h-0.672l-0.225-1.2c-0.607,0.96-1.312,1.344-2.385,1.344
				c-2.352,0-3.057-2.081-3.057-4.706c0-2.897,1.088-4.61,3.186-4.61c0.912,0,1.537,0.304,2.113,1.088v-4.274h1.039V51.37z
				 M296.516,43.03c-1.713,0-2.162,1.713-2.162,3.762c0,2.144,0.48,3.889,2.113,3.889c2.08,0,2.16-2.225,2.16-3.874
				C298.627,44.919,298.389,43.03,296.516,43.03z"/>
			<path style="fill:#FFFFFF;" d="M303.602,51.386h-1.039v-8.228h-1.041v-0.832h2.08V51.386z M303.074,41.045
				c-0.449,0-0.656-0.384-0.656-0.832c0-0.464,0.207-0.833,0.656-0.833c0.432,0,0.672,0.384,0.672,0.833
				S303.521,41.045,303.074,41.045z"/>
			<path style="fill:#FFFFFF;" d="M311.221,51.29c-0.514,0.144-1.105,0.224-1.73,0.224c-2.305,0-3.537-1.504-3.537-4.77
				c0-2.929,1.312-4.545,3.762-4.545c0.576,0,1.072,0.096,1.441,0.192v0.848c-0.385-0.112-0.85-0.208-1.408-0.208
				c-1.666,0-2.705,1.041-2.705,3.713c0,2.61,0.799,3.938,2.607,3.938c0.561,0,1.121-0.096,1.57-0.224V51.29z"/>
			<path style="fill:#FFFFFF;" d="M317.475,50.105c-0.576,0.912-1.408,1.408-2.512,1.408c-1.602,0-2.498-0.992-2.498-2.593
				c0-2.673,2.658-2.849,4.85-2.849v-0.977c0-1.36-0.496-2.065-1.744-2.065c-0.768,0-1.537,0.112-2.354,0.384v-0.848
				c0.816-0.24,1.666-0.368,2.434-0.368c1.793,0,2.705,0.928,2.705,2.849v6.338h-0.672L317.475,50.105z M316.402,46.856
				c-1.424,0-2.881,0.384-2.881,2.064c0,1.104,0.561,1.761,1.648,1.761c1.17,0,2.145-0.944,2.145-2.433v-1.392H316.402z"/>
			<path style="fill:#FFFFFF;" d="M324.738,51.258c-0.479,0.128-1.119,0.256-1.664,0.256c-1.408,0-1.809-0.832-1.809-1.985v-6.371
				h-1.008v-0.832h0.977l0.318-1.697h0.754v1.697h2.191v0.832h-2.191v6.179c0,0.769,0.096,1.345,0.959,1.345
				c0.48,0,0.961-0.096,1.473-0.24V51.258z"/>
			<path style="fill:#FFFFFF;" d="M329.139,51.514c-2.754,0-3.346-2.529-3.346-4.802c0-2.192,0.832-4.514,3.346-4.514
				c2.561,0,3.346,2.305,3.346,4.514C332.484,49.129,331.779,51.514,329.139,51.514z M329.139,43.03
				c-1.953,0-2.258,2.145-2.258,3.682c0,1.521,0.273,3.97,2.289,3.97c2.113,0,2.225-2.401,2.225-4.034
				C331.395,45.239,330.996,43.03,329.139,43.03z"/>
			<path style="fill:#FFFFFF;" d="M335.746,43.703c0.561-1.008,1.359-1.473,2.354-1.473c0.158,0,0.383,0.016,0.527,0.032v0.976
				c-0.191-0.016-0.4-0.032-0.656-0.032c-1.312,0-2.098,1.025-2.098,2.609v5.57h-1.039v-9.06h0.688L335.746,43.703z"/>
			<path style="fill:#FFFFFF;" d="M345.537,51.386h-1.039v-8.228h-1.041v-0.832h2.08V51.386z M345.01,41.045
				c-0.449,0-0.656-0.384-0.656-0.832c0-0.464,0.207-0.833,0.656-0.833c0.432,0,0.672,0.384,0.672,0.833
				S345.457,41.045,345.01,41.045z"/>
			<path style="fill:#FFFFFF;" d="M349.25,43.606c0.527-0.832,1.424-1.408,2.432-1.408c1.889,0,2.723,1.024,2.723,3.009v6.178
				h-1.041v-5.89c0-1.425-0.385-2.465-1.713-2.465c-1.553,0-2.258,1.265-2.258,2.673v5.682h-1.039v-9.06h0.688L349.25,43.606z"/>
			<path style="fill:#FFFFFF;" d="M362.803,42.326l-2.785,9.06h-1.279l-2.658-9.06h1.088l2.273,8.051l2.338-8.051H362.803z"/>
			<path style="fill:#FFFFFF;" d="M369.811,51.146c-0.752,0.24-1.553,0.368-2.354,0.368c-2.768,0-3.439-2.273-3.439-4.657
				c0-2.049,0.752-4.658,3.248-4.658c2.738,0,2.865,2.849,2.865,4.898h-5.041c0.016,1.889,0.527,3.585,2.432,3.585
				c0.801,0,1.553-0.144,2.289-0.353V51.146z M369.107,46.296c0-1.232-0.178-3.266-1.826-3.266c-1.744,0-2.064,1.889-2.16,3.266
				H369.107z"/>
			<path style="fill:#FFFFFF;" d="M373.361,43.703c0.561-1.008,1.359-1.473,2.352-1.473c0.16,0,0.385,0.016,0.529,0.032v0.976
				c-0.191-0.016-0.4-0.032-0.656-0.032c-1.312,0-2.098,1.025-2.098,2.609v5.57h-1.039v-9.06h0.688L373.361,43.703z"/>
			<path style="fill:#FFFFFF;" d="M381.617,51.258c-0.479,0.128-1.119,0.256-1.664,0.256c-1.408,0-1.809-0.832-1.809-1.985v-6.371
				h-1.008v-0.832h0.977l0.318-1.697h0.754v1.697h2.191v0.832h-2.191v6.179c0,0.769,0.096,1.345,0.959,1.345
				c0.48,0,0.961-0.096,1.473-0.24V51.258z"/>
			<path style="fill:#FFFFFF;" d="M388.467,51.146c-0.752,0.24-1.553,0.368-2.354,0.368c-2.77,0-3.441-2.273-3.441-4.657
				c0-2.049,0.752-4.658,3.25-4.658c2.736,0,2.865,2.849,2.865,4.898h-5.043c0.016,1.889,0.529,3.585,2.434,3.585
				c0.801,0,1.553-0.144,2.289-0.353V51.146z M387.762,46.296c0-1.232-0.176-3.266-1.824-3.266c-1.744,0-2.064,1.889-2.16,3.266
				H387.762z"/>
			<path style="fill:#FFFFFF;" d="M396.979,51.37h-0.672l-0.225-1.2c-0.607,0.96-1.312,1.344-2.385,1.344
				c-2.354,0-3.057-2.081-3.057-4.706c0-2.897,1.088-4.61,3.184-4.61c0.914,0,1.537,0.304,2.113,1.088v-4.274h1.041V51.37z
				 M393.889,43.03c-1.713,0-2.16,1.713-2.16,3.762c0,2.144,0.48,3.889,2.113,3.889c2.08,0,2.16-2.225,2.16-3.874
				C396.002,44.919,395.762,43.03,393.889,43.03z"/>
		</g>
		<g>
			<path d="M38.677,38.278c2.917,0,3.637,1.674,3.637,3.925c0,2.431-1.225,4.213-3.997,4.213h-1.458v4.969h-1.225V38.278H38.677z
				 M38.101,45.444c1.081,0,1.603-0.198,2.017-0.54c0.684-0.558,0.918-1.513,0.918-2.683c0-1.135-0.198-2.107-0.99-2.611
				c-0.36-0.234-0.828-0.36-1.692-0.36h-1.495v6.194H38.101z"/>
			<path d="M48.037,51.53c-3.097,0-3.763-2.845-3.763-5.401c0-2.467,0.937-5.078,3.763-5.078c2.881,0,3.763,2.593,3.763,5.078
				C51.8,48.847,51.007,51.53,48.037,51.53z M48.037,41.987c-2.197,0-2.539,2.413-2.539,4.142c0,1.71,0.306,4.465,2.575,4.465
				c2.376,0,2.502-2.701,2.502-4.537C50.575,44.472,50.125,41.987,48.037,41.987z"/>
			<path d="M58.981,42.293c-0.684-0.216-1.225-0.307-2.035-0.307c-1.116,0-1.836,0.54-1.836,1.639c0,1.044,0.63,1.386,1.765,1.981
				c1.206,0.63,2.413,1.314,2.413,2.97c0,2.089-1.278,2.953-3.277,2.953c-0.702,0-1.603-0.162-2.287-0.324v-0.99
				c0.847,0.234,1.765,0.378,2.413,0.378c1.152,0,1.98-0.486,1.98-1.764c0-1.17-0.828-1.639-1.909-2.197
				c-1.098-0.558-2.269-1.225-2.269-2.863c0-1.783,1.369-2.719,3.043-2.719c0.738,0,1.368,0.108,1.999,0.288V42.293z"/>
			<path d="M63.066,51.386h-1.17v-9.255h-1.17v-0.936h2.341V51.386z M62.472,39.754c-0.504,0-0.738-0.432-0.738-0.937
				c0-0.522,0.234-0.936,0.738-0.936c0.486,0,0.756,0.433,0.756,0.936C63.228,39.322,62.976,39.754,62.472,39.754z"/>
			<path d="M70.285,51.242c-0.54,0.144-1.26,0.288-1.873,0.288c-1.584,0-2.035-0.937-2.035-2.232v-7.167h-1.134v-0.936h1.099
				l0.36-1.909h0.846v1.909h2.467v0.936h-2.467v6.95c0,0.864,0.108,1.512,1.081,1.512c0.54,0,1.08-0.108,1.656-0.27V51.242z"/>
			<path d="M73.47,51.386h-1.17v-9.255h-1.17v-0.936h2.341V51.386z M72.875,39.754c-0.504,0-0.738-0.432-0.738-0.937
				c0-0.522,0.234-0.936,0.738-0.936c0.486,0,0.756,0.433,0.756,0.936C73.632,39.322,73.38,39.754,72.875,39.754z"/>
			<path d="M79.878,51.53c-3.097,0-3.763-2.845-3.763-5.401c0-2.467,0.936-5.078,3.763-5.078c2.881,0,3.763,2.593,3.763,5.078
				C83.642,48.847,82.849,51.53,79.878,51.53z M79.878,41.987c-2.197,0-2.539,2.413-2.539,4.142c0,1.71,0.306,4.465,2.575,4.465
				c2.377,0,2.503-2.701,2.503-4.537C82.417,44.472,81.967,41.987,79.878,41.987z"/>
			<path d="M87.293,42.635c0.594-0.937,1.603-1.584,2.737-1.584c2.125,0,3.061,1.152,3.061,3.385v6.95h-1.17V44.76
				c0-1.603-0.432-2.773-1.926-2.773c-1.747,0-2.539,1.422-2.539,3.007v6.392h-1.17V41.195h0.774L87.293,42.635z"/>
			<path d="M102,51.386h-1.17v-9.255h-1.17v-0.936H102V51.386z M101.405,39.754c-0.504,0-0.738-0.432-0.738-0.937
				c0-0.522,0.234-0.936,0.738-0.936c0.486,0,0.756,0.433,0.756,0.936C102.162,39.322,101.909,39.754,101.405,39.754z"/>
			<path d="M106.175,42.635c0.594-0.937,1.603-1.584,2.737-1.584c2.125,0,3.061,1.152,3.061,3.385v6.95h-1.17V44.76
				c0-1.603-0.432-2.773-1.927-2.773c-1.747,0-2.539,1.422-2.539,3.007v6.392h-1.17V41.195h0.774L106.175,42.635z"/>
			<path d="M121.71,51.368h-0.756l-0.252-1.351c-0.685,1.081-1.477,1.513-2.683,1.513c-2.647,0-3.439-2.34-3.439-5.293
				c0-3.259,1.224-5.186,3.583-5.186c1.026,0,1.729,0.342,2.377,1.224v-4.807h1.17V51.368z M118.236,41.987
				c-1.927,0-2.431,1.927-2.431,4.231c0,2.413,0.541,4.375,2.377,4.375c2.341,0,2.431-2.502,2.431-4.357
				C120.612,44.112,120.342,41.987,118.236,41.987z"/>
			<path d="M126.209,51.386h-1.17v-9.255h-1.17v-0.936h2.341V51.386z M125.615,39.754c-0.504,0-0.738-0.432-0.738-0.937
				c0-0.522,0.234-0.936,0.738-0.936c0.486,0,0.756,0.433,0.756,0.936C126.371,39.322,126.119,39.754,125.615,39.754z"/>
			<path d="M134.778,51.278c-0.576,0.162-1.243,0.252-1.945,0.252c-2.593,0-3.979-1.692-3.979-5.366
				c0-3.295,1.477-5.113,4.231-5.113c0.648,0,1.206,0.108,1.621,0.216v0.955c-0.433-0.126-0.955-0.234-1.585-0.234
				c-1.873,0-3.042,1.17-3.042,4.177c0,2.935,0.9,4.429,2.935,4.429c0.63,0,1.26-0.108,1.765-0.252V51.278z"/>
			<path d="M141.816,49.945c-0.648,1.026-1.584,1.584-2.827,1.584c-1.801,0-2.809-1.116-2.809-2.917
				c0-3.006,2.989-3.205,5.456-3.205V44.31c0-1.53-0.559-2.323-1.963-2.323c-0.864,0-1.729,0.126-2.647,0.432v-0.954
				c0.918-0.27,1.873-0.414,2.737-0.414c2.017,0,3.043,1.044,3.043,3.205v7.13h-0.756L141.816,49.945z M140.61,46.29
				c-1.603,0-3.241,0.432-3.241,2.323c0,1.243,0.63,1.98,1.854,1.98c1.314,0,2.413-1.062,2.413-2.736V46.29H140.61z"/>
			<path d="M149.988,51.242c-0.541,0.144-1.261,0.288-1.873,0.288c-1.584,0-2.034-0.937-2.034-2.232v-7.167h-1.134v-0.936h1.098
				l0.36-1.909h0.847v1.909h2.466v0.936h-2.466v6.95c0,0.864,0.108,1.512,1.08,1.512c0.54,0,1.081-0.108,1.657-0.27V51.242z"/>
			<path d="M154.937,51.53c-3.097,0-3.763-2.845-3.763-5.401c0-2.467,0.936-5.078,3.763-5.078c2.881,0,3.763,2.593,3.763,5.078
				C158.7,48.847,157.908,51.53,154.937,51.53z M154.937,41.987c-2.196,0-2.539,2.413-2.539,4.142c0,1.71,0.306,4.465,2.575,4.465
				c2.377,0,2.503-2.701,2.503-4.537C157.476,44.472,157.026,41.987,154.937,41.987z"/>
			<path d="M162.371,42.743c0.63-1.134,1.53-1.657,2.646-1.657c0.18,0,0.432,0.018,0.594,0.036v1.099
				c-0.216-0.018-0.45-0.036-0.738-0.036c-1.476,0-2.358,1.152-2.358,2.935v6.266h-1.17V41.195h0.774L162.371,42.743z"/>
		</g>
	</g>
	<g id="meegotouch-positionindicator-inverted-background-horizontal" transform="translate(27, 53)">
		<rect id="_x3C_Path_x3E__19_" x="273" y="86" style="opacity:0.1;fill:#FFFFFF;" width="12" height="6"/>
	</g>
	<g id="meegotouch-positionindicator-inverted-indicator-horizontal" transform="translate(27, 37)">
		<path id="_x3C_Path_x3E__18_" style="fill:#FFFFFF;" d="M285,92v6h-12v-6H285z"/>
	</g>
	<g id="meegotouch-positionindicator-inverted-background" transform="translate(27, 53)">
		<rect id="_x3C_Path_x3E__16_" x="273" y="60" style="opacity:0.1;fill:#FFFFFF;" width="6" height="12"/>
	</g>
	<g id="meegotouch-positionindicator-inverted-indicator" transform="translate(27, 37)">
		<path id="_x3C_Path_x3E__15_" style="fill:#FFFFFF;" d="M279,75h-6V63h6V75z"/>
	</g>
	<g id="meegotouch-positionindicator-background-horizontal" transform="translate(27, 53)">
		<rect id="_x3C_Path_x3E__13_" x="73" y="86" style="opacity:0.1;enable-background:new    ;" width="12" height="6"/>
	</g>
	<g id="meegotouch-positionindicator-indicator-horizontal" transform="translate(27, 37)">
		<path id="_x3C_Path_x3E__12_" style="fill:#191819;" d="M85,92v6H73v-6H85z"/>
	</g>
	<g id="meegotouch-positionindicator-background" transform="translate(27, 53)">
		<rect id="_x3C_Path_x3E__8_" x="73" y="60" style="opacity:0.1;enable-background:new    ;" width="6" height="12"/>
	</g>
	<g id="meegotouch-positionindicator-indicator" transform="translate(27, 37)">
		<path id="_x3C_Path_x3E__10_" style="fill:#191919;" d="M79,75h-6V63h6V75z"/>
	</g>
</g>
</svg>
