<?xml version="1.0" encoding="iso-8859-1"?>
<!-- Generator: Adobe Illustrator 15.0.2, SVG Export Plug-In . SVG Version: 6.00 Build 0)  -->
<!DOCTYPE svg PUBLIC "-//W3C//DTD SVG 1.1//EN" "http://www.w3.org/Graphics/SVG/1.1/DTD/svg11.dtd">
<svg version="1.1" id="meegotouch-notifications-layer"
	 xmlns="http://www.w3.org/2000/svg" xmlns:xlink="http://www.w3.org/1999/xlink" x="0px" y="0px" width="480px" height="490px"
	 viewBox="0 0 480 490" style="enable-background:new 0 0 480 490;" xml:space="preserve">
<g id="meegotouch-notifications">
	<g id="_x23_Notificationthemehelper">
		<g>
			<path style="fill:#F0F0F1;" d="M12.5,490.5c-6.6,0-12-5.4-12-12v-466c0-6.6,5.4-12,12-12h456c6.6,0,12,5.4,12,12v466
				c0,6.6-5.4,12-12,12H12.5z"/>
			<path style="fill:none;stroke:#929497;" d="M12.5,490.5c-6.6,0-12-5.4-12-12v-466c0-6.6,5.4-12,12-12h456c6.6,0,12,5.4,12,12v466
				c0,6.6-5.4,12-12,12H12.5z"/>
		</g>
		<g>
			<path d="M160.562,51.604h-2.808l-10.798-19.51v19.51h-3.636V25.399h3.096l10.511,18.97v-18.97h3.635V51.604z"/>
			<path d="M173.63,51.893c-6.551,0-8.243-5.256-8.243-10.836c0-5.398,2.268-10.186,8.243-10.186c6.011,0,8.243,4.679,8.243,10.258
				C181.874,47.356,179.642,51.893,173.63,51.893z M173.63,33.391c-3.852,0-4.355,4.787-4.355,7.559
				c0,2.844,0.396,8.423,4.355,8.423c3.996,0,4.355-4.896,4.355-8.423C177.986,38.322,177.23,33.391,173.63,33.391z"/>
			<path d="M196.13,51.244c-1.44,0.396-2.952,0.648-4.427,0.648c-3.24,0-4.607-1.477-4.607-4.68V33.678h-2.484v-2.52h2.52
				l1.476-4.895h2.232v4.895h4.967v2.52h-4.967v12.887c0,1.656,0.288,2.736,2.195,2.736c1.044,0,2.088-0.252,3.096-0.504V51.244z"/>
			<path d="M203.619,51.604h-3.744V33.678h-2.339v-2.52h6.083V51.604z M201.747,28.243c-1.188,0-2.124-0.937-2.124-2.124
				s0.936-2.123,2.124-2.123c1.152,0,2.124,0.971,2.124,2.123C203.871,27.307,202.935,28.243,201.747,28.243z"/>
			<path d="M219.026,26.623c-0.9-0.288-1.836-0.54-2.772-0.54c-2.52,0-2.664,1.584-2.664,5.075h3.744v2.52h-3.744v17.926h-3.744
				V33.678h-2.483v-2.52h2.483c0-4.499,0.684-7.666,5.724-7.666c1.188,0,2.339,0.144,3.456,0.432V26.623z"/>
			<path d="M224.966,51.604h-3.744V33.678h-2.339v-2.52h6.083V51.604z M223.094,28.243c-1.188,0-2.124-0.937-2.124-2.124
				s0.936-2.123,2.124-2.123c1.152,0,2.124,0.971,2.124,2.123C225.218,27.307,224.282,28.243,223.094,28.243z"/>
			<path d="M242.354,51.352c-1.404,0.396-2.664,0.541-4.14,0.541c-6.551,0-8.423-5.076-8.423-10.764
				c0-5.867,2.556-10.258,8.963-10.258c1.224,0,2.268,0.144,3.456,0.432v2.556c-1.152-0.36-2.124-0.433-3.312-0.433
				c-4.283,0-5.219,4.355-5.219,7.775c0,3.455,0.792,8.135,5.219,8.135c1.224,0,2.269-0.035,3.456-0.396V51.352z"/>
			<path d="M256.43,48.652c-1.297,2.232-3.348,3.24-5.904,3.24c-3.744,0-5.902-2.232-5.902-5.977c0-6.334,6.119-6.515,10.869-6.515
				v-1.907c0-1.872-0.395-2.628-0.863-3.096c-0.646-0.648-1.656-0.973-2.951-0.973c-1.836,0-3.637,0.433-5.363,0.937v-2.628
				c1.98-0.54,4.031-0.863,6.047-0.863c2.305,0,4.104,0.576,5.291,1.799c1.008,1.045,1.584,2.34,1.584,4.716v14.218h-2.051
				L256.43,48.652z M253.766,41.633c-1.621,0-2.844,0.217-3.707,0.756c-1.045,0.648-1.693,1.764-1.693,3.492
				c0,2.088,0.938,3.491,3.061,3.491c2.771,0,4.066-2.016,4.066-4.607v-3.132H253.766z"/>
			<path d="M274.285,51.244c-1.439,0.396-2.953,0.648-4.428,0.648c-3.24,0-4.607-1.477-4.607-4.68V33.678h-2.484v-2.52h2.52
				l1.477-4.895h2.232v4.895h4.967v2.52h-4.967v12.887c0,1.656,0.287,2.736,2.195,2.736c1.043,0,2.088-0.252,3.096-0.504V51.244z"/>
			<path d="M281.773,51.604h-3.744V33.678h-2.34v-2.52h6.084V51.604z M279.9,28.243c-1.188,0-2.123-0.937-2.123-2.124
				s0.936-2.123,2.123-2.123c1.152,0,2.125,0.971,2.125,2.123C282.025,27.307,281.09,28.243,279.9,28.243z"/>
			<path d="M294.84,51.893c-6.551,0-8.242-5.256-8.242-10.836c0-5.398,2.268-10.186,8.242-10.186c6.012,0,8.244,4.679,8.244,10.258
				C303.084,47.356,300.852,51.893,294.84,51.893z M294.84,33.391c-3.852,0-4.355,4.787-4.355,7.559
				c0,2.844,0.396,8.423,4.355,8.423c3.996,0,4.355-4.896,4.355-8.423C299.195,38.322,298.439,33.391,294.84,33.391z"/>
			<path d="M310.537,34.182c1.295-2.23,3.383-3.311,5.939-3.311c4.283,0,6.227,2.34,6.227,6.515v14.218h-3.744V37.998
				c0-2.52-0.646-4.607-3.238-4.607c-3.168,0-4.285,2.879-4.285,5.579v12.634h-3.742V31.158h2.088L310.537,34.182z"/>
			<path d="M338.615,34.146c-1.367-0.469-2.809-0.756-4.283-0.756c-1.943,0-3.42,0.756-3.42,2.879c0,1.656,1.512,2.484,3.564,3.456
				c2.34,1.116,4.787,2.483,4.787,6.011c0,4.5-3.168,6.156-7.236,6.156c-1.764,0-3.527-0.289-5.254-0.685v-2.7
				c1.619,0.433,3.348,0.864,5.002,0.864c2.16,0,3.779-0.756,3.779-3.132c0-1.943-1.475-2.771-3.562-3.779
				c-2.268-1.115-4.787-2.34-4.787-5.831c0-3.888,3.203-5.759,6.73-5.759c1.584,0,3.168,0.18,4.68,0.647V34.146z"/>
		</g>
	</g>
	<g id="meegotouch-shorteventbanner-background">
		<rect x="248.5" y="174.5" width="36" height="36"/>
	</g>
	<g id="meegotouch-new-items-counter-background-combined">
		<g>
			<path style="fill:#666666;" d="M278.902,137.498c0,5.5-4.5,10-10,10h-9.998c-5.5,0-10-4.5-10-10V127.5c0-5.5,4.5-10,10-10h9.998
				c5.5,0,10,4.5,10,10V137.498z"/>
		</g>
	</g>
	<g id="meegotouch-new-items-counter-background-regular">
		<g>
			<path style="fill:#1080DD;" d="M318.902,137.498c0,5.5-4.5,10-10,10h-9.998c-5.5,0-10-4.5-10-10V127.5c0-5.5,4.5-10,10-10h9.998
				c5.5,0,10,4.5,10,10V137.498z"/>
		</g>
	</g>
	<g id="meegotouch-fulleventbanner-background-pressed">
		<g style="opacity:0.2;">
			<path style="fill:#FFFFFF;" d="M238.5,452.5c0,4.4-3.6,8-8,8h-48c-4.4,0-8-3.6-8-8v-48c0-4.4,3.6-8,8-8h48c4.4,0,8,3.6,8,8V452.5
				z"/>
		</g>
	</g>
	<g id="meegotouch-fulleventbanner-background">
		<g style="opacity:0.8;">
			<path d="M164.5,452.5c0,4.4-3.6,8-8,8h-48c-4.4,0-8-3.6-8-8v-48c0-4.4,3.6-8,8-8h48c4.4,0,8,3.6,8,8V452.5z"/>
		</g>
	</g>
	<g id="meegotouch-notification-lockscreen-background">
		<path style="opacity:0.8;fill:#191919;enable-background:new    ;" d="M163.5,378.5c0,3.85-3.15,7-7,7h-48c-3.85,0-7-3.15-7-7v-48
			c0-3.85,3.15-7,7-7h48c3.85,0,7,3.15,7,7V378.5z"/>
		<path style="opacity:0.5;fill:#FFFFFF;" d="M156.5,323.5c3.85,0,7,3.15,7,7v48c0,3.85-3.15,7-7,7h-48c-3.85,0-7-3.15-7-7v-48
			c0-3.85,3.15-7,7-7H156.5 M156.5,322.5h-48c-4.411,0-8,3.589-8,8v48c0,4.411,3.589,8,8,8h48c4.411,0,8-3.589,8-8v-48
			C164.5,326.089,160.912,322.5,156.5,322.5L156.5,322.5z"/>
	</g>
	<g id="meegotouch-notification-system-background-pressed">
		<g style="opacity:0.9;">
			<path d="M184.5,312c-5.238,0-9.5-4.262-9.5-9.5v-44c0-5.238,4.262-9.5,9.5-9.5h44c5.238,0,9.5,4.262,9.5,9.5v44
				c0,5.238-4.262,9.5-9.5,9.5H184.5z"/>
			<path style="fill:#FF0000;" d="M228.5,249.5c4.962,0,9,4.037,9,9v44c0,4.963-4.038,9-9,9h-44c-4.962,0-9-4.037-9-9v-44
				c0-4.963,4.038-9,9-9H228.5 M228.5,248.5h-44c-5.5,0-10,4.5-10,10v44c0,5.5,4.5,10,10,10h44c5.5,0,10-4.5,10-10v-44
				C238.5,253,234,248.5,228.5,248.5L228.5,248.5z"/>
		</g>
		<g style="opacity:0.5;">
			<path d="M238.5,302.5c0,5.5-4.5,10-10,10h-44c-5.5,0-10-4.5-10-10v-44c0-5.5,4.5-10,10-10h44c5.5,0,10,4.5,10,10V302.5z"/>
		</g>
	</g>
	<g id="meegotouch-notification-system-background">
		<g style="opacity:0.9;">
			<path d="M110.5,312c-5.238,0-9.5-4.262-9.5-9.5v-44c0-5.238,4.262-9.5,9.5-9.5h44c5.238,0,9.5,4.262,9.5,9.5v44
				c0,5.238-4.262,9.5-9.5,9.5H110.5z"/>
			<path style="fill:#FF0000;" d="M154.5,249.5c4.962,0,9,4.037,9,9v44c0,4.963-4.038,9-9,9h-44c-4.962,0-9-4.037-9-9v-44
				c0-4.963,4.038-9,9-9H154.5 M154.5,248.5h-44c-5.5,0-10,4.5-10,10v44c0,5.5,4.5,10,10,10h44c5.5,0,10-4.5,10-10v-44
				C164.5,253,160,248.5,154.5,248.5L154.5,248.5z"/>
		</g>
	</g>
	<g id="meegotouch-notification-information-background-pressed">
		<g style="opacity:0.9;">
			<path d="M184.5,238c-5.238,0-9.5-4.262-9.5-9.5v-44c0-5.238,4.262-9.5,9.5-9.5h44c5.238,0,9.5,4.262,9.5,9.5v44
				c0,5.238-4.262,9.5-9.5,9.5H184.5z"/>
			<path style="fill:#00DB00;" d="M228.5,175.5c4.962,0,9,4.038,9,9v44c0,4.962-4.038,9-9,9h-44c-4.962,0-9-4.038-9-9v-44
				c0-4.962,4.038-9,9-9H228.5 M228.5,174.5h-44c-5.5,0-10,4.5-10,10v44c0,5.5,4.5,10,10,10h44c5.5,0,10-4.5,10-10v-44
				C238.5,179,234,174.5,228.5,174.5L228.5,174.5z"/>
		</g>
		<g style="opacity:0.5;">
			<path d="M238.5,228.5c0,5.5-4.5,10-10,10h-44c-5.5,0-10-4.5-10-10v-44c0-5.5,4.5-10,10-10h44c5.5,0,10,4.5,10,10V228.5z"/>
		</g>
	</g>
	<g id="meegotouch-notification-information-background">
		<g style="opacity:0.9;">
			<path d="M110.5,238c-5.238,0-9.5-4.262-9.5-9.5v-44c0-5.238,4.262-9.5,9.5-9.5h44c5.238,0,9.5,4.262,9.5,9.5v44
				c0,5.238-4.262,9.5-9.5,9.5H110.5z"/>
			<path style="fill:#00DB00;" d="M154.5,175.5c4.962,0,9,4.038,9,9v44c0,4.962-4.038,9-9,9h-44c-4.962,0-9-4.038-9-9v-44
				c0-4.962,4.038-9,9-9H154.5 M154.5,174.5h-44c-5.5,0-10,4.5-10,10v44c0,5.5,4.5,10,10,10h44c5.5,0,10-4.5,10-10v-44
				C164.5,179,160,174.5,154.5,174.5L154.5,174.5z"/>
		</g>
	</g>
	<g id="meegotouch-notification-event-background-pressed">
		<g style="opacity:0.9;">
			<path d="M184.5,164c-5.238,0-9.5-4.262-9.5-9.5v-44c0-5.238,4.262-9.5,9.5-9.5h44c5.238,0,9.5,4.262,9.5,9.5v44
				c0,5.238-4.262,9.5-9.5,9.5H184.5z"/>
			<path style="fill:#0080DD;" d="M228.5,101.5c4.962,0,9,4.038,9,9v44c0,4.962-4.038,9-9,9h-44c-4.962,0-9-4.038-9-9v-44
				c0-4.962,4.038-9,9-9H228.5 M228.5,100.5h-44c-5.5,0-10,4.5-10,10v44c0,5.5,4.5,10,10,10h44c5.5,0,10-4.5,10-10v-44
				C238.5,105,234,100.5,228.5,100.5L228.5,100.5z"/>
		</g>
		<g style="opacity:0.5;">
			<path d="M238.5,154.5c0,5.5-4.5,10-10,10h-44c-5.5,0-10-4.5-10-10v-44c0-5.5,4.5-10,10-10h44c5.5,0,10,4.5,10,10V154.5z"/>
		</g>
	</g>
	<g id="meegotouch-notification-event-background">
		<g style="opacity:0.9;">
			<path d="M110.5,164c-5.238,0-9.5-4.262-9.5-9.5v-44c0-5.238,4.262-9.5,9.5-9.5h44c5.238,0,9.5,4.262,9.5,9.5v44
				c0,5.238-4.262,9.5-9.5,9.5H110.5z"/>
			<path style="fill:#0080DD;" d="M154.5,101.5c4.962,0,9,4.038,9,9v44c0,4.962-4.038,9-9,9h-44c-4.962,0-9-4.038-9-9v-44
				c0-4.962,4.038-9,9-9H154.5 M154.5,100.5h-44c-5.5,0-10,4.5-10,10v44c0,5.5,4.5,10,10,10h44c5.5,0,10-4.5,10-10v-44
				C164.5,105,160,100.5,154.5,100.5L154.5,100.5z"/>
		</g>
	</g>
</g>
</svg>
