<?xml version="1.0" encoding="iso-8859-1"?>
<!-- Generator: Adobe Illustrator 14.0.0, SVG Export Plug-In . SVG Version: 6.00 Build 43363)  -->
<!DOCTYPE svg PUBLIC "-//W3C//DTD SVG 1.1//EN" "http://www.w3.org/Graphics/SVG/1.1/DTD/svg11.dtd">
<svg version="1.1" xmlns="http://www.w3.org/2000/svg" xmlns:xlink="http://www.w3.org/1999/xlink" x="0px" y="0px" width="350px"
	 height="360px" viewBox="0 0 350 360" style="enable-background:new 0 0 350 360;" xml:space="preserve">
<g id="meegotouch-textfield-button-combo-layer">
</g>
<g id="theme">
	<g id="meegotouch-textfield-button-combo">
		<g id="MeegotouchTextfieldButtonComboThemeTemplateHelper">
			<g>
				<path style="fill:#B3B3B3;" d="M16,359c-8.271,0-15-6.729-15-15V16C1,7.729,7.729,1,16,1h318c8.271,0,15,6.729,15,15v328
					c0,8.271-6.729,15-15,15H16z"/>
				<g>
					<path d="M334,2c7.72,0,14,6.28,14,14v328c0,7.72-6.28,14-14,14H16c-7.72,0-14-6.28-14-14V16C2,8.28,8.28,2,16,2H334 M334,0H16
						C7.2,0,0,7.2,0,16v328c0,8.8,7.2,16,16,16h318c8.8,0,16-7.2,16-16V16C350,7.2,342.8,0,334,0L334,0z"/>
				</g>
			</g>
			<path d="M49.076,33.885V20.195H45.23v-1.6h9.885v1.6h-3.834v13.689H49.076z"/>
			<path d="M62.991,32.059v1.487c-1.074,0.335-2.185,0.503-3.333,0.503c-1.668,0-2.916-0.503-3.743-1.508s-1.24-2.553-1.24-4.645
				c0-1.84,0.4-3.318,1.199-4.436c0.801-1.117,1.941-1.676,3.426-1.676c1.202,0,2.106,0.319,2.712,0.959
				c0.604,0.639,0.992,1.422,1.163,2.348s0.257,2.028,0.257,3.307h-6.439c0,1.388,0.246,2.429,0.738,3.123
				c0.492,0.693,1.23,1.04,2.215,1.04C60.779,32.562,61.794,32.395,62.991,32.059z M56.992,27.055h4.296
				c0-1.441-0.171-2.461-0.512-3.055c-0.343-0.596-0.835-0.893-1.477-0.893c-0.719,0-1.267,0.308-1.646,0.923
				C57.274,24.646,57.054,25.654,56.992,27.055z"/>
			<path d="M74.075,33.885h-2.4l-2.666-4.625l-2.768,4.625H64.18l3.845-6.092l-3.527-5.834h2.39l2.358,4.111l2.451-4.111h2.061
				l-3.507,5.558L74.075,33.885z"/>
			<path d="M78.669,34.049c-0.93,0-1.61-0.217-2.04-0.652c-0.432-0.434-0.646-1.125-0.646-2.076v-7.936h-1.568v-0.82l3.188-3.251
				h0.563v2.646h2.902v1.426h-2.902v7.577c0,0.649,0.106,1.079,0.318,1.286c0.212,0.209,0.533,0.313,0.964,0.313
				c0.444,0,1.046-0.099,1.805-0.298v1.416C80.337,33.926,79.476,34.049,78.669,34.049z"/>
			<path d="M88.584,17.734v1.486c-0.643-0.205-1.179-0.307-1.61-0.307c-0.684,0-1.114,0.217-1.291,0.65
				c-0.179,0.435-0.268,1.232-0.268,2.395H87.6v1.426h-2.185v10.5h-2.184v-10.5h-1.445v-1.426h1.445c0-1.812,0.277-3.01,0.83-3.594
				c0.555-0.584,1.392-0.877,2.513-0.877C87.265,17.488,87.935,17.57,88.584,17.734z"/>
			<path d="M91.845,33.885h-2.184v-10.5h-1.363v-1.426h3.547V33.885z M90.759,17.775c0.334,0,0.623,0.123,0.866,0.369
				c0.242,0.246,0.364,0.537,0.364,0.871c0,0.342-0.12,0.635-0.359,0.877c-0.239,0.243-0.53,0.364-0.871,0.364
				c-0.35,0-0.644-0.121-0.883-0.364c-0.239-0.242-0.358-0.535-0.358-0.877c0-0.348,0.119-0.643,0.358-0.881
				C90.115,17.895,90.409,17.775,90.759,17.775z"/>
			<path d="M102.767,32.059v1.487c-1.074,0.335-2.185,0.503-3.333,0.503c-1.668,0-2.916-0.503-3.743-1.508s-1.24-2.553-1.24-4.645
				c0-1.84,0.4-3.318,1.199-4.436c0.801-1.117,1.941-1.676,3.426-1.676c1.202,0,2.106,0.319,2.712,0.959
				c0.604,0.639,0.992,1.422,1.163,2.348s0.257,2.028,0.257,3.307h-6.439c0,1.388,0.246,2.429,0.738,3.123
				c0.492,0.693,1.23,1.04,2.215,1.04C100.555,32.562,101.569,32.395,102.767,32.059z M96.768,27.055h4.296
				c0-1.441-0.171-2.461-0.512-3.055c-0.343-0.596-0.835-0.893-1.477-0.893c-0.719,0-1.267,0.308-1.646,0.923
				C97.05,24.646,96.829,25.654,96.768,27.055z"/>
			<path d="M105.636,33.885V17.652h2.185v16.232H105.636z"/>
			<path d="M118.259,33.885l-0.461-1.467c-0.63,1.087-1.706,1.631-3.23,1.631c-1.415,0-2.479-0.501-3.194-1.502
				c-0.714-1.002-1.071-2.566-1.071-4.691c0-1.785,0.381-3.242,1.144-4.373c0.762-1.132,1.844-1.697,3.245-1.697
				c1.148,0,2.01,0.345,2.584,1.035v-5.168h2.184v16.232H118.259z M117.347,28.449l-0.011-0.676c0-1.777-0.2-2.978-0.6-3.6
				c-0.4-0.622-0.97-0.934-1.708-0.934c-0.82,0-1.436,0.38-1.846,1.139s-0.615,1.896-0.615,3.414c0,1.594,0.198,2.786,0.596,3.579
				c0.396,0.793,0.99,1.189,1.783,1.189c0.772,0,1.366-0.287,1.779-0.861C117.14,31.126,117.347,30.043,117.347,28.449z"/>
			<path d="M142.325,21.959l-3.21,11.926h-2.563l-2.328-9.619l-2.502,9.619H129.2l-3.087-11.926h2.204l2.318,10.039l2.521-10.039
				h2.41l2.369,10.059l2.461-10.059H142.325z"/>
			<path d="M146.509,33.885h-2.184v-10.5h-1.363v-1.426h3.547V33.885z M145.423,17.775c0.334,0,0.623,0.123,0.866,0.369
				c0.242,0.246,0.364,0.537,0.364,0.871c0,0.342-0.12,0.635-0.359,0.877c-0.239,0.243-0.53,0.364-0.871,0.364
				c-0.35,0-0.644-0.121-0.883-0.364c-0.239-0.242-0.358-0.535-0.358-0.877c0-0.348,0.119-0.643,0.358-0.881
				C144.779,17.895,145.073,17.775,145.423,17.775z"/>
			<path d="M152.661,34.049c-0.93,0-1.61-0.217-2.04-0.652c-0.432-0.434-0.646-1.125-0.646-2.076v-7.936h-1.568v-0.82l3.188-3.251
				h0.563v2.646h2.902v1.426h-2.902v7.577c0,0.649,0.106,1.079,0.318,1.286c0.212,0.209,0.533,0.313,0.964,0.313
				c0.444,0,1.046-0.099,1.805-0.298v1.416C154.329,33.926,153.468,34.049,152.661,34.049z"/>
			<path d="M165.663,33.885h-2.185v-8.111c0-0.827-0.157-1.449-0.472-1.866s-0.786-0.626-1.415-0.626
				c-0.793,0-1.408,0.301-1.846,0.902s-0.656,1.385-0.656,2.349v7.353h-2.185V17.652h2.185v5.455
				c0.759-0.882,1.739-1.322,2.942-1.322c1.211,0,2.118,0.322,2.723,0.969c0.605,0.646,0.908,1.611,0.908,2.896V33.885z"/>
			<path d="M175.764,17.652v5.414c0.779-0.854,1.746-1.281,2.901-1.281c1.334,0,2.335,0.492,3.005,1.477s1.005,2.461,1.005,4.43
				s-0.451,3.51-1.354,4.624s-2.143,1.671-3.723,1.671c-1.552,0-2.891-0.068-4.02-0.205V17.652H175.764z M175.764,27.875v4.522
				c0.636,0.082,1.203,0.123,1.702,0.123c1.005,0,1.746-0.367,2.225-1.103c0.479-0.734,0.719-1.998,0.719-3.789
				c0-1.449-0.188-2.535-0.564-3.26s-0.937-1.088-1.682-1.088c-0.725,0-1.262,0.219-1.609,0.656
				c-0.35,0.438-0.568,0.969-0.656,1.596C175.808,26.158,175.764,26.939,175.764,27.875z"/>
			<path d="M188.745,34.049c-1.217,0-2.128-0.316-2.732-0.949c-0.605-0.632-0.908-1.58-0.908-2.846v-8.295h2.185v7.916
				c0,0.896,0.157,1.567,0.472,2.016c0.314,0.447,0.789,0.671,1.426,0.671c0.792,0,1.406-0.301,1.84-0.902
				c0.435-0.602,0.651-1.384,0.651-2.349v-7.352h2.185v11.926h-1.211l-0.44-1.764C191.452,33.406,190.297,34.049,188.745,34.049z"/>
			<path d="M199.891,34.049c-0.93,0-1.61-0.217-2.04-0.652c-0.432-0.434-0.646-1.125-0.646-2.076v-7.936h-1.568v-0.82l3.188-3.251
				h0.563v2.646h2.902v1.426h-2.902v7.577c0,0.649,0.106,1.079,0.318,1.286c0.212,0.209,0.533,0.313,0.964,0.313
				c0.444,0,1.046-0.099,1.805-0.298v1.416C201.559,33.926,200.697,34.049,199.891,34.049z"/>
			<path d="M207.182,34.049c-0.93,0-1.61-0.217-2.04-0.652c-0.432-0.434-0.646-1.125-0.646-2.076v-7.936h-1.568v-0.82l3.188-3.251
				h0.563v2.646h2.902v1.426h-2.902v7.577c0,0.649,0.106,1.079,0.318,1.286c0.212,0.209,0.533,0.313,0.964,0.313
				c0.444,0,1.046-0.099,1.805-0.298v1.416C208.85,33.926,207.988,34.049,207.182,34.049z"/>
			<path d="M215.568,34.049c-1.606,0-2.809-0.527-3.609-1.58c-0.799-1.053-1.199-2.631-1.199-4.736c0-1.832,0.415-3.281,1.246-4.348
				c0.83-1.066,2.018-1.6,3.562-1.6c1.559,0,2.75,0.525,3.574,1.578c0.823,1.053,1.235,2.523,1.235,4.41
				c0,1.941-0.385,3.473-1.153,4.594C218.455,33.488,217.236,34.049,215.568,34.049z M215.568,32.644
				c0.842,0,1.476-0.381,1.902-1.144c0.428-0.762,0.641-2.039,0.641-3.83c0-1.264-0.219-2.325-0.656-3.184
				c-0.438-0.857-1.066-1.287-1.887-1.287c-0.834,0-1.466,0.387-1.896,1.159s-0.646,1.876-0.646,3.312
				c0,1.613,0.216,2.846,0.646,3.697S214.734,32.644,215.568,32.644z"/>
			<path d="M231.606,33.885h-2.185v-7.916c0-0.896-0.157-1.567-0.472-2.016c-0.314-0.447-0.786-0.672-1.415-0.672
				c-0.793,0-1.408,0.301-1.846,0.902s-0.656,1.385-0.656,2.349v7.353h-2.185V21.959h1.221l0.441,1.764
				c0.758-1.292,1.913-1.938,3.465-1.938c1.211,0,2.118,0.317,2.723,0.953c0.605,0.636,0.908,1.586,0.908,2.851V33.885z"/>
			<path d="M243.932,34.049c-1.621,0-2.845-0.531-3.672-1.596c-0.827-1.062-1.24-2.623-1.24-4.68c0-1.914,0.446-3.391,1.338-4.43
				c0.893-1.039,2.189-1.559,3.892-1.559c0.663,0,1.336,0.085,2.021,0.256v1.486c-0.521-0.164-1.166-0.246-1.938-0.246
				c-0.998,0-1.755,0.398-2.271,1.195c-0.516,0.797-0.774,1.908-0.774,3.338c0,1.537,0.259,2.713,0.774,3.527
				c0.517,0.812,1.273,1.22,2.271,1.22c0.861,0,1.534-0.079,2.021-0.235v1.414C245.619,33.945,244.812,34.049,243.932,34.049z"/>
			<path d="M252.308,34.049c-1.606,0-2.809-0.527-3.609-1.58c-0.799-1.053-1.199-2.631-1.199-4.736c0-1.832,0.415-3.281,1.246-4.348
				c0.83-1.066,2.018-1.6,3.562-1.6c1.559,0,2.75,0.525,3.574,1.578c0.823,1.053,1.235,2.523,1.235,4.41
				c0,1.941-0.385,3.473-1.153,4.594C255.194,33.488,253.976,34.049,252.308,34.049z M252.308,32.644
				c0.842,0,1.476-0.381,1.902-1.144c0.428-0.762,0.641-2.039,0.641-3.83c0-1.264-0.219-2.325-0.656-3.184
				c-0.438-0.857-1.066-1.287-1.887-1.287c-0.834,0-1.466,0.387-1.896,1.159s-0.646,1.876-0.646,3.312
				c0,1.613,0.216,2.846,0.646,3.697S251.474,32.644,252.308,32.644z"/>
			<path d="M274.499,33.885h-2.185v-8.214c0-0.793-0.148-1.39-0.446-1.79c-0.297-0.398-0.743-0.6-1.338-0.6
				c-0.766,0-1.355,0.301-1.769,0.902c-0.414,0.602-0.62,1.385-0.62,2.349v7.353h-2.185v-8.214c0-0.793-0.152-1.39-0.456-1.79
				c-0.305-0.398-0.761-0.6-1.369-0.6c-0.752,0-1.333,0.305-1.743,0.913s-0.615,1.388-0.615,2.338v7.353h-2.185V21.959h1.221
				l0.441,1.764c0.73-1.292,1.846-1.938,3.342-1.938c0.793,0,1.451,0.15,1.975,0.451c0.522,0.301,0.907,0.752,1.153,1.354
				c0.677-1.203,1.76-1.805,3.251-1.805c1.175,0,2.057,0.317,2.645,0.953s0.883,1.586,0.883,2.851V33.885z"/>
			<path d="M279.625,17.652v5.414c0.779-0.854,1.746-1.281,2.901-1.281c1.334,0,2.335,0.492,3.005,1.477s1.005,2.461,1.005,4.43
				s-0.451,3.51-1.354,4.624s-2.143,1.671-3.723,1.671c-1.552,0-2.891-0.068-4.02-0.205V17.652H279.625z M279.625,27.875v4.522
				c0.636,0.082,1.203,0.123,1.702,0.123c1.005,0,1.746-0.367,2.225-1.103c0.479-0.734,0.719-1.998,0.719-3.789
				c0-1.449-0.188-2.535-0.564-3.26s-0.937-1.088-1.682-1.088c-0.725,0-1.262,0.219-1.609,0.656
				c-0.35,0.438-0.568,0.969-0.656,1.596C279.669,26.158,279.625,26.939,279.625,27.875z"/>
			<path d="M293.313,34.049c-1.606,0-2.809-0.527-3.609-1.58c-0.799-1.053-1.199-2.631-1.199-4.736c0-1.832,0.415-3.281,1.246-4.348
				c0.83-1.066,2.018-1.6,3.562-1.6c1.559,0,2.75,0.525,3.574,1.578c0.823,1.053,1.235,2.523,1.235,4.41
				c0,1.941-0.385,3.473-1.153,4.594C296.2,33.488,294.981,34.049,293.313,34.049z M293.313,32.644c0.842,0,1.476-0.381,1.902-1.144
				c0.428-0.762,0.641-2.039,0.641-3.83c0-1.264-0.219-2.325-0.656-3.184c-0.438-0.857-1.066-1.287-1.887-1.287
				c-0.834,0-1.466,0.387-1.896,1.159s-0.646,1.876-0.646,3.312c0,1.613,0.216,2.846,0.646,3.697S292.479,32.644,293.313,32.644z"/>
		</g>
		<g id="meegotouch-textedit-button-background-pressed-bottom-center">
			<path style="fill:#FFFFFF;" d="M242,271c5.5,0,10-4.5,10-10v-36h-48v46H242z"/>
			<path style="fill:#333333;" d="M242,269c5.5,0,10-4.5,10-10v-36h-48v46H242z"/>
			<linearGradient id="SVGID_1_" gradientUnits="userSpaceOnUse" x1="228" y1="270" x2="228" y2="224">
				<stop  offset="0" style="stop-color:#B3B3B3"/>
				<stop  offset="1" style="stop-color:#4D4D4D"/>
			</linearGradient>
			<path style="fill:url(#SVGID_1_);" d="M242,270c5.5,0,10-4.5,10-10v-36h-48v46H242z"/>
		</g>
		<g id="meegotouch-textedit-button-background-pressed-vertical-center">
			<rect x="204" y="168" style="opacity:0.2;fill:#1A171B;" width="48" height="45"/>
			<rect x="204" y="166" style="fill:#333333;" width="48" height="45"/>
			<linearGradient id="SVGID_2_" gradientUnits="userSpaceOnUse" x1="228" y1="212" x2="228" y2="167.0005">
				<stop  offset="0" style="stop-color:#B3B3B3"/>
				<stop  offset="1" style="stop-color:#4D4D4D"/>
			</linearGradient>
			<rect x="204" y="167" style="fill:url(#SVGID_2_);" width="48" height="45"/>
		</g>
		<g id="meegotouch-textedit-button-background-pressed-vertical-top">
			<path style="opacity:0.2;fill:#1A171B;" d="M252,120c0-5.5-4.5-10-10-10h-38v46h48V120z"/>
			<path style="fill:#333333;" d="M252,118c0-5.5-4.5-10-10-10h-38v46h48V118z"/>
			<linearGradient id="SVGID_3_" gradientUnits="userSpaceOnUse" x1="228" y1="155" x2="228" y2="109">
				<stop  offset="0" style="stop-color:#B3B3B3"/>
				<stop  offset="1" style="stop-color:#4D4D4D"/>
			</linearGradient>
			<path style="fill:url(#SVGID_3_);" d="M252,119c0-5.5-4.5-10-10-10h-38v46h48V119z"/>
		</g>
		<g id="meegotouch-textedit-button-background-pressed">
			<path style="fill:#333333;" d="M204,96h37.676C247.354,96,252,91.5,252,86V60c0-5.5-4.646-10-10.324-10H204V96z"/>
			<path style="fill:#FFFFFF;" d="M204,98h37.676C247.354,98,252,93.5,252,88V62c0-5.5-4.646-10-10.324-10H204V98z"/>
			
				<linearGradient id="SVGID_4_" gradientUnits="userSpaceOnUse" x1="-597.0005" y1="51.0005" x2="-597.0005" y2="97.0005" gradientTransform="matrix(-1 0 0 1 -369 0)">
				<stop  offset="0" style="stop-color:#4D4D4D"/>
				<stop  offset="1" style="stop-color:#B3B3B3"/>
			</linearGradient>
			<path style="fill:url(#SVGID_4_);" d="M204,51h37.676C247.354,51,252,55.5,252,61v26c0,5.5-4.646,10-10.324,10H204V51z"/>
		</g>
		<g id="meegotouch-textedit-combo-background-selected-vertical-bottom">
			<path style="fill:#CCCCCC;" d="M146,261c0,5.5,4.5,10,10,10h38v-46h-48V261z"/>
			<linearGradient id="SVGID_5_" gradientUnits="userSpaceOnUse" x1="170.0005" y1="270" x2="170.0005" y2="223">
				<stop  offset="0" style="stop-color:#29ABE2"/>
				<stop  offset="1" style="stop-color:#66C0EF"/>
			</linearGradient>
			<path style="fill:url(#SVGID_5_);" d="M146,260c0,5.5,4.5,10,10,10h38v-47h-48V260z"/>
			<rect x="193" y="223" style="fill:#CCCCCC;" width="1" height="47"/>
			<rect x="146" y="223" style="fill:#808080;" width="47" height="1"/>
		</g>
		<g id="meegotouch-textedit-combo-background-selected-vertical-center">
			<rect x="146" y="166" style="fill:#66C0EF;" width="48" height="47"/>
			<rect x="146" y="212" style="opacity:0.2;fill:#FFFFFF;" width="47" height="1"/>
			<rect x="146" y="166" style="fill:#808080;" width="47" height="1"/>
			<rect x="193" y="166" style="fill:#CCCCCC;" width="1" height="47"/>
		</g>
		<g id="meegotouch-textedit-combo-background-selected-vertical-top">
			<path style="fill:#808080;" d="M146,118c0-5.5,4.5-10,10-10h38v46h-48V118z"/>
			<linearGradient id="SVGID_6_" gradientUnits="userSpaceOnUse" x1="170.0005" y1="156" x2="170.0005" y2="109">
				<stop  offset="0" style="stop-color:#66C0EF"/>
				<stop  offset="1" style="stop-color:#7DD8FF"/>
			</linearGradient>
			<path style="fill:url(#SVGID_6_);" d="M146,119c0-5.5,4.5-10,10-10h38v47h-48V119z"/>
			<rect x="193" y="109" style="fill:#CCCCCC;" width="1" height="47"/>
			<rect x="146" y="155" style="opacity:0.2;fill:#FFFFFF;" width="47" height="1"/>
		</g>
		<g id="meegotouch-textedit-combo-background-selected">
			<path d="M194,50h-37.996C150.502,50,146,54.5,146,60v14.667c0,5.5,4.502-6,10.004-6H194V50z"/>
			<path style="fill:#CCCCCC;" d="M156.004,72.667c-5.502,0-10.004-11.5-10.004-6V88c0,5.5,4.502,10,10.004,10H194V72.667H156.004z"
				/>
			<g>
				<linearGradient id="SVGID_7_" gradientUnits="userSpaceOnUse" x1="170.0005" y1="97" x2="170.0005" y2="51">
					<stop  offset="0" style="stop-color:#31A9DC"/>
					<stop  offset="1" style="stop-color:#86D0F0"/>
				</linearGradient>
				<path style="fill:url(#SVGID_7_);" d="M194,51h-37.996C150.502,51,146,55.549,146,61.108v25.783
					C146,92.451,150.502,97,156.004,97H194V51z"/>
			</g>
			<rect x="193" y="50" style="fill:#808080;" width="1" height="48"/>
		</g>
		<g id="meegotouch-textedit-button-background-vertical-bottom">
			<path style="fill:#CCCCCC;" d="M126,271c5.5,0,10-4.5,10-10v-36H88v46H126z"/>
			<path style="fill:#FFFFFF;" d="M126,269c5.5,0,10-4.5,10-10v-36H88v46H126z"/>
			<linearGradient id="SVGID_8_" gradientUnits="userSpaceOnUse" x1="112" y1="270" x2="112" y2="224">
				<stop  offset="0" style="stop-color:#D2D2D2"/>
				<stop  offset="1" style="stop-color:#E1E1E1"/>
			</linearGradient>
			<path style="fill:url(#SVGID_8_);" d="M126,270c5.5,0,10-4.5,10-10v-36H88v46H126z"/>
			<rect x="88" y="224" style="fill:#FFFFFF;" width="1" height="46"/>
		</g>
		<g id="meegotouch-textedit-button-background-vertical-center">
			<rect x="88" y="168" style="fill:#CCCCCC;" width="48" height="45"/>
			<rect x="88" y="166" style="fill:#FFFFFF;" width="48" height="45"/>
			<rect x="88" y="167" style="fill:#E1E1E1;" width="48" height="45"/>
			<rect x="88" y="167" style="fill:#FFFFFF;" width="1" height="45"/>
		</g>
		<g id="meegotouch-textedit-button-background-vertical-top">
			<path style="fill:#CCCCCC;" d="M136,120c0-5.5-4.5-10-10-10H88v46h48V120z"/>
			<path style="fill:#FFFFFF;" d="M136,118c0-5.5-4.5-10-10-10H88v46h48V118z"/>
			<linearGradient id="SVGID_9_" gradientUnits="userSpaceOnUse" x1="112" y1="155" x2="112" y2="109">
				<stop  offset="0" style="stop-color:#E1E1E1"/>
				<stop  offset="1" style="stop-color:#F2F2F2"/>
			</linearGradient>
			<path style="fill:url(#SVGID_9_);" d="M136,119c0-5.5-4.5-10-10-10H88v46h48V119z"/>
			<rect x="88" y="109" style="fill:#FFFFFF;" width="1" height="46"/>
		</g>
		<g id="meegotouch-textedit-button-background">
			<path style="fill:#808080;" d="M88,52h37.676C131.354,52,136,56.5,136,62v26c0,5.5-4.646,10-10.324,10H88V52z"/>
			<path style="fill:#FFFFFF;" d="M88,50h37.676C131.354,50,136,54.5,136,60v26c0,5.5-4.646,10-10.324,10H88V50z"/>
			
				<linearGradient id="SVGID_10_" gradientUnits="userSpaceOnUse" x1="-481" y1="51.0005" x2="-481" y2="97.0005" gradientTransform="matrix(-1 0 0 1 -369 0)">
				<stop  offset="0" style="stop-color:#F2F2F2"/>
				<stop  offset="1" style="stop-color:#D1D1D1"/>
			</linearGradient>
			<path style="fill:url(#SVGID_10_);" d="M88,51h37.676C131.354,51,136,55.5,136,61v26c0,5.5-4.646,10-10.324,10H88V51z"/>
			<rect x="88" y="51" style="fill:#FFFFFF;" width="1.031" height="46"/>
		</g>
		<g id="meegotouch-textedit-combo-background-vertical-bottom">
			<path style="fill:#CCCCCC;" d="M30,261c0,5.5,4.5,10,10,10h38v-46H30V261z"/>
			<path style="fill:#FAF9F9;" d="M30,260c0,5.5,4.5,10,10,10h38v-47H30V260z"/>
			<rect x="77" y="223" style="fill:#CCCCCC;" width="1" height="47"/>
			<rect x="30" y="223" style="fill:#9B9C9E;" width="47" height="1"/>
		</g>
		<g id="meegotouch-textedit-combo-background-vertical-center">
			<rect x="30" y="166" style="fill:#FAF9F9;" width="48" height="47"/>
			<rect x="30" y="212" style="opacity:0.2;" width="48" height="1"/>
			<rect x="30" y="166" style="fill:#9B9C9E;" width="47" height="1"/>
			<rect x="77" y="166" style="fill:#CCCCCC;" width="1" height="46"/>
		</g>
		<g id="meegotouch-textedit-combo-background-vertical-top">
			<path style="fill:#808080;" d="M30,118c0-5.5,4.5-10,10-10h38v46H30V118z"/>
			<path style="fill:#FAF9F9;" d="M30,119c0-5.5,4.5-10,10-10h38v47H30V119z"/>
			<rect x="77" y="109" style="fill:#CCCCCC;" width="1" height="46"/>
			<rect x="30" y="155" style="opacity:0.2;" width="48" height="1"/>
		</g>
		<g id="meegotouch-textedit-combo-background">
			<path style="fill:#808080;" d="M78,50H40.004C34.502,50,30,54.5,30,60v14.667c0,5.5,4.502-6,10.004-6H78V50z"/>
			<path style="fill:#CCCCCC;" d="M40.004,72.667c-5.502,0-10.004-11.5-10.004-6V88c0,5.5,4.502,10,10.004,10H78V72.667H40.004z"/>
			<path style="fill:#FAF9F9;" d="M78,51H40.004C34.502,51,30,55.549,30,61.108v25.783C30,92.451,34.502,97,40.004,97H78V51z"/>
			<rect x="77" y="50.996" style="fill:#CCCCCC;" width="1" height="47.004"/>
		</g>
	</g>
</g>
</svg>
