<?xml version="1.0" encoding="iso-8859-1"?>
<!-- Generator: Adobe Illustrator 14.0.0, SVG Export Plug-In . SVG Version: 6.00 Build 43363)  -->
<!DOCTYPE svg PUBLIC "-//W3C//DTD SVG 1.1//EN" "http://www.w3.org/Graphics/SVG/1.1/DTD/svg11.dtd">
<svg version="1.1" id="meegotouch-gestures-layer" xmlns="http://www.w3.org/2000/svg" xmlns:xlink="http://www.w3.org/1999/xlink"
	 x="0px" y="0px" width="150px" height="200px" viewBox="0 0 150 200" style="enable-background:new 0 0 150 200;"
	 xml:space="preserve">
<g id="meegotouch-gestures">
	<g id="Gesturesthemetemplatehelper">
		<g>
			<path style="fill:#B3B3B3;" d="M16,199c-8.271,0-15-6.729-15-15V16C1,7.729,7.729,1,16,1h118c8.271,0,15,6.729,15,15v168
				c0,8.271-6.729,15-15,15H16z"/>
			<path d="M134,2c7.72,0,14,6.28,14,14v168c0,7.72-6.28,14-14,14H16c-7.72,0-14-6.28-14-14V16C2,8.28,8.28,2,16,2H134 M134,0H16
				C7.2,0,0,7.2,0,16v168c0,8.8,7.2,16,16,16h118c8.8,0,16-7.2,16-16V16C150,7.2,142.8,0,134,0L134,0z"/>
		</g>
		<path d="M40.633,32.938c-0.6,1.151-2.016,1.752-3.264,1.752c-5.16,0-5.832-4.992-5.832-8.93c0-4.896,1.728-8.928,6.96-8.928
			c1.104,0,2.208,0.144,3.24,0.455v1.729c-0.983-0.312-2.088-0.432-3.144-0.432c-3.602,0-4.393,4.057-4.393,6.864
			c0,2.376,0.072,7.536,3.432,7.536c1.416,0,2.28-1.056,2.28-2.447v-3.049h-1.728v-1.752h4.248v8.761h-1.32L40.633,32.938z"/>
		<path d="M54.649,34.113c-1.224,0.384-2.521,0.576-3.816,0.576c-4.417,0-5.688-3.072-5.688-7.033c0-3.408,1.344-6.984,5.28-6.984
			c4.44,0,4.729,4.129,4.729,7.561h-7.368c0,2.305,0.552,4.752,3.384,4.752c1.177,0,2.353-0.264,3.48-0.576V34.113z M52.705,26.696
			c0-1.536-0.12-4.345-2.28-4.345c-2.208,0-2.544,2.713-2.64,4.345H52.705z"/>
		<path d="M65.186,22.855c-0.912-0.312-1.872-0.504-2.856-0.504c-1.296,0-2.28,0.504-2.28,1.92c0,1.105,1.008,1.656,2.376,2.305
			c1.561,0.744,3.192,1.656,3.192,4.009c0,3-2.112,4.104-4.824,4.104c-1.176,0-2.353-0.192-3.504-0.457v-1.799
			c1.08,0.287,2.231,0.575,3.336,0.575c1.44,0,2.521-0.504,2.521-2.088c0-1.296-0.984-1.849-2.377-2.521
			c-1.512-0.744-3.192-1.561-3.192-3.889c0-2.592,2.137-3.84,4.489-3.84c1.056,0,2.111,0.12,3.12,0.432V22.855z"/>
		<path d="M74.785,34.257c-0.96,0.265-1.969,0.433-2.952,0.433c-2.16,0-3.072-0.984-3.072-3.121v-9.024h-1.656v-1.681h1.68
			l0.984-3.264h1.488v3.264h3.312v1.681h-3.312v8.593c0,1.104,0.192,1.824,1.464,1.824c0.696,0,1.393-0.168,2.064-0.336V34.257z"/>
		<path d="M84.984,32.48c-0.864,1.488-2.256,2.209-3.96,2.209c-2.856,0-4.152-1.561-4.152-4.345v-9.481h2.496v9.073
			c0,1.681,0.432,3.072,2.16,3.072c2.112,0,2.856-1.92,2.856-3.72v-8.426h2.496v13.634h-1.393L84.984,32.48z"/>
		<path d="M92.496,23.145c0.841-1.729,2.112-2.4,3.961-2.4c0.168,0,0.359,0,0.552,0.023v2.28c-0.312-0.024-0.6-0.024-0.888-0.024
			c-2.112,0-3.097,0.961-3.097,3.169v8.305h-2.496V20.863h1.392L92.496,23.145z"/>
		<path d="M107.929,34.113c-1.224,0.384-2.521,0.576-3.816,0.576c-4.416,0-5.688-3.072-5.688-7.033c0-3.408,1.344-6.984,5.28-6.984
			c4.44,0,4.729,4.129,4.729,7.561h-7.368c0,2.305,0.552,4.752,3.384,4.752c1.177,0,2.353-0.264,3.48-0.576V34.113z M105.984,26.696
			c0-1.536-0.12-4.345-2.28-4.345c-2.208,0-2.544,2.713-2.64,4.345H105.984z"/>
		<path d="M118.465,22.855c-0.912-0.312-1.872-0.504-2.856-0.504c-1.296,0-2.28,0.504-2.28,1.92c0,1.105,1.008,1.656,2.376,2.305
			c1.561,0.744,3.192,1.656,3.192,4.009c0,3-2.112,4.104-4.824,4.104c-1.176,0-2.353-0.192-3.504-0.457v-1.799
			c1.08,0.287,2.231,0.575,3.336,0.575c1.44,0,2.521-0.504,2.521-2.088c0-1.296-0.984-1.849-2.377-2.521
			c-1.512-0.744-3.192-1.561-3.192-3.889c0-2.592,2.137-3.84,4.489-3.84c1.056,0,2.111,0.12,3.12,0.432V22.855z"/>
	</g>
	<g id="meegotouch-tap">
		<circle style="opacity:0.3;fill:#66C0EF;" cx="40" cy="72" r="20"/>
		<circle style="fill:#66C0EF;" cx="40" cy="72" r="15"/>
	</g>
</g>
</svg>
