<?xml version="1.0" encoding="iso-8859-1"?>
<!-- Generator: Adobe Illustrator 14.0.0, SVG Export Plug-In . SVG Version: 6.00 Build 43363)  -->
<!DOCTYPE svg PUBLIC "-//W3C//DTD SVG 1.1//EN" "http://www.w3.org/Graphics/SVG/1.1/DTD/svg11.dtd">
<svg version="1.1" id="theme-layer" xmlns="http://www.w3.org/2000/svg" xmlns:xlink="http://www.w3.org/1999/xlink" x="0px"
	 y="0px" width="1451px" height="220px" viewBox="0 0 1451 220" style="enable-background:new 0 0 1451 220;" xml:space="preserve">
<g id="meegotouch-progress-spinner-experimental-layer">
</g>
<g id="theme">
	<g id="meegotouch-launcher-spinner">
		<g id="MeegoTouchSpinnerThemeTemplateHelper">
			<g>
				<path style="fill:#B4B4B4;" d="M16,219c-8.271,0-15-6.729-15-15V16C1,7.729,7.729,1,16,1h1418.5c8.271,0,15,6.729,15,15v188
					c0,8.271-6.729,15-15,15H16z"/>
				<g>
					<path style="fill:#010101;" d="M1434.5,2c7.721,0,14,6.28,14,14v188c0,7.721-6.279,14-14,14H16c-7.72,0-14-6.279-14-14V16
						C2,8.28,8.28,2,16,2H1434.5 M1434.5,0H16C7.2,0,0,7.2,0,16v188c0,8.8,7.2,16,16,16h1418.5c8.8,0,16-7.2,16-16V16
						C1450.5,7.2,1443.3,0,1434.5,0L1434.5,0z"/>
				</g>
			</g>
			<g>
				<path style="fill:#030303;" d="M670.837,11.994h2.112v14.752h6.913v1.793h-9.025V11.994z"/>
				<path style="fill:#030303;" d="M690.278,25.691c0,1.031,0.049,2.037,0.168,2.848h-1.896l-0.168-1.498h-0.072
					c-0.646,0.935-1.896,1.771-3.553,1.771c-2.354,0-3.553-1.694-3.553-3.414c0-2.87,2.497-4.442,6.983-4.418v-0.246
					c0-0.958-0.265-2.749-2.64-2.725c-1.104,0-2.232,0.319-3.049,0.884l-0.48-1.449c0.961-0.613,2.377-1.029,3.841-1.029
					c3.554,0,4.417,2.479,4.417,4.836L690.278,25.691L690.278,25.691z M688.237,22.475c-2.305-0.049-4.92,0.369-4.92,2.676
					c0,1.426,0.912,2.062,1.97,2.062c1.536,0,2.521-0.982,2.854-1.987c0.072-0.246,0.098-0.489,0.098-0.688L688.237,22.475
					L688.237,22.475z"/>
				<path style="fill:#030303;" d="M694.261,16.658l2.521,7.021c0.286,0.787,0.574,1.719,0.769,2.433h0.047
					c0.217-0.714,0.457-1.621,0.744-2.479l2.305-6.972h2.232l-3.168,8.468c-1.513,4.073-2.545,6.138-3.984,7.438
					c-1.057,0.908-2.062,1.276-2.593,1.375l-0.528-1.792c0.528-0.173,1.227-0.517,1.851-1.056c0.573-0.468,1.271-1.302,1.774-2.406
					c0.098-0.221,0.168-0.394,0.168-0.516s-0.049-0.294-0.168-0.564l-4.271-10.948H694.261L694.261,16.658L694.261,16.658z"/>
				<path style="fill:#030303;" d="M715.069,22.5c0,4.395-3,6.311-5.782,6.311c-3.12,0-5.568-2.357-5.568-6.113
					c0-3.953,2.568-6.285,5.761-6.285C712.813,16.412,715.069,18.891,715.069,22.5z M705.877,22.623
					c0,2.603,1.438,4.565,3.505,4.565c2.016,0,3.527-1.938,3.527-4.616c0-2.013-0.984-4.539-3.48-4.539
					C706.957,18.033,705.877,20.389,705.877,22.623z"/>
				<path style="fill:#030303;" d="M727.454,25.274c0,1.253,0.021,2.331,0.096,3.265h-1.873l-0.119-1.938h-0.049
					c-0.527,0.957-1.775,2.209-3.84,2.209c-1.824,0-4.008-1.057-4.008-5.205v-6.946h2.109v6.555c0,2.258,0.696,3.805,2.594,3.805
					c1.416,0,2.398-1.005,2.783-1.988c0.119-0.293,0.191-0.688,0.191-1.104V16.66h2.113L727.454,25.274L727.454,25.274z"/>
				<path style="fill:#030303;" d="M733.501,13.811v2.848h3.022v1.646h-3.022v6.405c0,1.475,0.408,2.31,1.584,2.31
					c0.576,0,0.912-0.05,1.225-0.147l0.096,1.645c-0.406,0.148-1.057,0.295-1.87,0.295c-0.984,0-1.776-0.344-2.28-0.908
					c-0.576-0.664-0.816-1.719-0.816-3.119v-6.479h-1.8V16.66h1.8v-2.209L733.501,13.811z"/>
				<path style="fill:#030303;" d="M743.7,26.354c0.646,0.394,1.752,0.833,2.809,0.833c1.512,0,2.231-0.76,2.231-1.768
					c0-1.03-0.603-1.571-2.138-2.16c-2.11-0.785-3.097-1.939-3.097-3.362c0-1.915,1.536-3.485,4.009-3.485
					c1.176,0,2.208,0.319,2.832,0.736l-0.504,1.57c-0.456-0.293-1.297-0.711-2.377-0.711c-1.248,0-1.92,0.736-1.92,1.62
					c0,0.981,0.672,1.424,2.185,2.036c1.992,0.762,3.048,1.793,3.048,3.56c0,2.11-1.605,3.585-4.318,3.585
					c-1.271,0-2.447-0.344-3.266-0.834L743.7,26.354z"/>
				<path style="fill:#030303;" d="M753.491,20.535c0-1.521-0.049-2.748-0.098-3.877h1.873l0.119,2.037h0.049
					c0.84-1.449,2.232-2.283,4.128-2.283c2.832,0,4.944,2.43,4.944,6.015c0,4.272-2.568,6.384-5.305,6.384
					c-1.535,0-2.881-0.689-3.576-1.865h-0.048V33.4h-2.089L753.491,20.535L753.491,20.535z M755.58,23.701
					c0,0.319,0.022,0.614,0.097,0.885c0.383,1.498,1.655,2.529,3.168,2.529c2.232,0,3.527-1.865,3.527-4.591
					c0-2.356-1.226-4.395-3.455-4.395c-1.441,0-2.811,1.03-3.193,2.649c-0.072,0.271-0.144,0.59-0.144,0.859V23.701z"/>
				<path style="fill:#030303;" d="M769.5,13.318c0,0.737-0.505,1.326-1.345,1.326c-0.77,0-1.271-0.589-1.271-1.326
					c0-0.736,0.527-1.35,1.32-1.35C768.972,11.969,769.5,12.558,769.5,13.318z M767.147,28.539V16.658h2.112v11.881H767.147
					L767.147,28.539z"/>
				<path style="fill:#030303;" d="M772.763,19.873c0-1.252-0.023-2.234-0.096-3.217h1.873l0.119,1.965h0.049
					c0.576-1.104,1.92-2.209,3.84-2.209c1.607,0,4.104,0.979,4.104,5.056v7.069h-2.11v-6.849c0-1.916-0.695-3.511-2.688-3.511
					c-1.369,0-2.447,1.005-2.833,2.209c-0.097,0.271-0.144,0.638-0.144,1.007v7.144h-2.113V19.873L772.763,19.873z"/>
				<path style="fill:#030303;" d="M786.083,19.873c0-1.252-0.023-2.234-0.098-3.217h1.873l0.119,1.965h0.049
					c0.576-1.104,1.922-2.209,3.842-2.209c1.606,0,4.104,0.979,4.104,5.056v7.069h-2.112v-6.849c0-1.916-0.693-3.511-2.688-3.511
					c-1.369,0-2.449,1.005-2.833,2.209c-0.097,0.271-0.146,0.638-0.146,1.007v7.144h-2.111L786.083,19.873L786.083,19.873z"/>
				<path style="fill:#030303;" d="M800.579,22.99c0.048,2.922,1.848,4.125,3.982,4.125c1.514,0,2.448-0.271,3.219-0.615
					l0.383,1.549c-0.743,0.344-2.039,0.761-3.89,0.761c-3.574,0-5.712-2.431-5.712-6.015c0-3.583,2.063-6.383,5.447-6.383
					c3.816,0,4.801,3.389,4.801,5.57c0,0.443-0.021,0.762-0.07,1.008H800.579L800.579,22.99z M806.771,21.443
					c0.024-1.35-0.552-3.484-2.929-3.484c-2.16,0-3.072,1.986-3.24,3.484H806.771z"/>
				<path style="fill:#030303;" d="M811.427,20.363c0-1.396-0.023-2.602-0.096-3.705h1.848l0.096,2.355h0.072
					c0.528-1.596,1.824-2.602,3.24-2.602c0.217,0,0.385,0.024,0.576,0.049v2.037c-0.217-0.047-0.434-0.047-0.722-0.047
					c-1.486,0-2.544,1.129-2.832,2.748c-0.048,0.295-0.07,0.662-0.07,1.006v6.334h-2.112V20.363L811.427,20.363z"/>
			</g>
		</g>
		<g id="meegotouch-launcher-spinner-large-16">
			<path style="opacity:0.6;fill:#010101;" d="M1365.5,87.803c0,21.066,5.812,32.5,32.5,32.5c26.686,0,32.5-11.434,32.5-32.5
				s-5.814-32.501-32.5-32.501C1371.312,55.302,1365.5,66.736,1365.5,87.803z"/>
			<path style="fill:#D1D2D3;" d="M1399.045,128c31.992,0,38.955-14.047,38.955-39.938c0-25.959-7.16-40.055-38.955-40.055
				L1396.949,48C1364.962,48,1358,62.053,1358,87.945c0,25.953,7.154,40.051,38.949,40.051L1399.045,128z M1366.389,87.959
				c0-20.464,5.502-31.567,30.783-31.567l1.652,0.006c25.127,0,30.785,11.141,30.785,31.654c0,20.459-5.502,31.56-30.785,31.56
				l-1.652-0.002C1372.045,119.609,1366.389,108.468,1366.389,87.959z"/>
			
				<radialGradient id="SVGID_1_" cx="1409.3066" cy="61.6797" r="21.6018" gradientTransform="matrix(1 0 0 1 0.0239 -0.0017)" gradientUnits="userSpaceOnUse">
				<stop  offset="0" style="stop-color:#2AAAE2"/>
				<stop  offset="1" style="stop-color:#83D5F7"/>
			</radialGradient>
			<path style="fill:url(#SVGID_1_);" d="M1399.045,48.008L1396.949,48c-5.766,0-10.707,0.464-14.953,1.364l3.357,8.104
				c3.355-0.711,7.261-1.077,11.818-1.077l1.652,0.006c19.318,0,27.123,6.592,29.701,18.96l8.104-3.356
				C1433.365,56.349,1423.491,48.008,1399.045,48.008z"/>
		</g>
		<g id="meegotouch-launcher-spinner-large-15">
			<path style="opacity:0.6;fill:#010101;" d="M1275.5,88.803c0,21.066,5.812,32.5,32.5,32.5c26.686,0,32.5-11.434,32.5-32.5
				c0-21.065-5.814-32.5-32.5-32.5C1281.312,56.303,1275.5,67.737,1275.5,88.803z"/>
			<path style="fill:#D1D2D3;" d="M1348,88.062c0-25.958-7.16-40.054-38.955-40.054L1306.949,48
				C1274.962,48,1268,62.053,1268,87.944c0,25.954,7.154,40.052,38.949,40.052l2.096,0.004C1341.037,128,1348,113.952,1348,88.062z
				 M1307.172,119.608c-25.127,0-30.783-11.142-30.783-31.65c0-20.463,5.502-31.566,30.783-31.566l1.652,0.006
				c25.127,0,30.785,11.141,30.785,31.653c0,20.459-5.502,31.561-30.785,31.561L1307.172,119.608z"/>
			
				<radialGradient id="SVGID_2_" cx="1307.9658" cy="55.7051" r="22.6885" gradientTransform="matrix(1 0 0 1 0.0229 0)" gradientUnits="userSpaceOnUse">
				<stop  offset="0" style="stop-color:#2AAAE2"/>
				<stop  offset="1" style="stop-color:#83D5F7"/>
			</radialGradient>
			<path style="fill:url(#SVGID_2_);" d="M1306.949,48c-14.812,0-24.25,3.019-30.124,8.825l6.539,6.539
				c4.643-4.588,12.102-6.973,23.808-6.973l1.652,0.006c11.65,0,19.11,2.399,23.767,7.013l6.528-6.528
				c-5.892-5.839-15.332-8.874-30.074-8.874L1306.949,48z"/>
		</g>
		<g id="meegotouch-launcher-spinner-large-14">
			<path style="opacity:0.6;fill:#010101;" d="M1185.5,88.803c0,21.066,5.812,32.5,32.5,32.5c26.686,0,32.5-11.434,32.5-32.5
				c0-21.065-5.814-32.501-32.5-32.501C1191.312,56.302,1185.5,67.737,1185.5,88.803z"/>
			<path style="fill:#D1D2D3;" d="M1258,88.062c0-25.959-7.16-40.055-38.955-40.055L1216.949,48
				C1184.962,48,1178,62.053,1178,87.945c0,25.953,7.154,40.051,38.949,40.051l2.096,0.004C1251.037,128,1258,113.953,1258,88.062z
				 M1218.824,119.611l-1.652-0.002c-25.127,0-30.783-11.142-30.783-31.65c0-20.464,5.502-31.567,30.783-31.567l1.652,0.006
				c25.127,0,30.785,11.141,30.785,31.654C1249.609,108.511,1244.107,119.611,1218.824,119.611z"/>
			
				<radialGradient id="SVGID_3_" cx="1206.6562" cy="61.6729" r="21.6083" gradientTransform="matrix(1 0 0 1 0.0215 -0.0017)" gradientUnits="userSpaceOnUse">
				<stop  offset="0" style="stop-color:#2AAAE2"/>
				<stop  offset="1" style="stop-color:#83D5F7"/>
			</radialGradient>
			<path style="fill:url(#SVGID_3_);" d="M1179.334,71.984l8.109,3.359c2.532-12.365,10.267-18.952,29.729-18.952l1.652,0.006
				c4.553,0,8.457,0.37,11.814,1.092l3.354-8.101c-4.247-0.912-9.188-1.381-14.948-1.381L1216.949,48
				C1192.324,48,1182.537,56.337,1179.334,71.984z"/>
		</g>
		<g id="meegotouch-launcher-spinner-large-13">
			<path style="opacity:0.6;fill:#010101;" d="M1095.5,87.802c0,21.066,5.812,32.5,32.5,32.5c26.686,0,32.5-11.434,32.5-32.5
				c0-21.065-5.814-32.5-32.5-32.5C1101.312,55.302,1095.5,66.736,1095.5,87.802z"/>
			<path style="fill:#D1D2D3;" d="M1129.045,48.008L1126.949,48C1094.962,48,1088,62.053,1088,87.944
				c0,25.954,7.154,40.052,38.949,40.052l2.096,0.004c31.992,0,38.955-14.048,38.955-39.938
				C1168,62.104,1160.84,48.008,1129.045,48.008z M1128.824,119.611l-1.652-0.003c-25.127,0-30.783-11.142-30.783-31.65
				c0-20.463,5.502-31.566,30.783-31.566l1.652,0.006c25.127,0,30.785,11.141,30.785,31.653
				C1159.609,108.51,1154.107,119.611,1128.824,119.611z"/>
			
				<radialGradient id="SVGID_4_" cx="1107.9932" cy="68" r="20" gradientTransform="matrix(1 0 0 1 0.0205 0)" gradientUnits="userSpaceOnUse">
				<stop  offset="0" style="stop-color:#2AAAE2"/>
				<stop  offset="1" style="stop-color:#83D5F7"/>
			</radialGradient>
			<path style="fill:url(#SVGID_4_);" d="M1096.389,87.958c0-20.463,5.502-31.566,30.783-31.566l0.828,0.003v-8.391L1126.949,48
				C1094.962,48,1088,62.053,1088,87.944c0,0.019,0,0.037,0,0.056h8.389C1096.389,87.985,1096.389,87.972,1096.389,87.958z"/>
		</g>
		<g id="meegotouch-launcher-spinner-large-12">
			<path style="opacity:0.6;fill:#010101;" d="M1005.5,87.802c0,21.066,5.812,32.5,32.5,32.5c26.686,0,32.5-11.434,32.5-32.5
				c0-21.065-5.814-32.5-32.5-32.5C1011.312,55.302,1005.5,66.736,1005.5,87.802z"/>
			<path style="fill:#D1D2D3;" d="M1039.045,128c31.992,0,38.955-14.048,38.955-39.938c0-25.958-7.16-40.054-38.955-40.054
				L1036.949,48C1004.962,48,998,62.053,998,87.944c0,25.954,7.154,40.052,38.949,40.052L1039.045,128z M1006.389,87.958
				c0-20.463,5.502-31.566,30.783-31.566l1.652,0.006c25.127,0,30.785,11.141,30.785,31.653c0,20.459-5.502,31.561-30.785,31.561
				l-1.652-0.003C1012.045,119.608,1006.389,108.467,1006.389,87.958z"/>
			
				<radialGradient id="SVGID_5_" cx="1011.6699" cy="76.6831" r="21.6029" gradientTransform="matrix(1 0 0 1 0.0195 0)" gradientUnits="userSpaceOnUse">
				<stop  offset="0" style="stop-color:#2AAAE2"/>
				<stop  offset="1" style="stop-color:#83D5F7"/>
			</radialGradient>
			<path style="fill:url(#SVGID_5_);" d="M1006.389,87.958c0-16.774,3.706-27.254,18.965-30.489l-3.357-8.104
				C1002.689,53.458,998,66.72,998,87.944c0,5.998,0.389,11.354,1.369,16.058l8.103-3.356
				C1006.697,96.929,1006.389,92.696,1006.389,87.958z"/>
		</g>
		<g id="meegotouch-launcher-spinner-large-11">
			<path style="opacity:0.6;fill:#010101;" d="M915.5,88.803c0,21.066,5.812,32.5,32.5,32.5c26.686,0,32.5-11.434,32.5-32.5
				c0-21.065-5.814-32.501-32.5-32.501C921.312,56.302,915.5,67.737,915.5,88.803z"/>
			<path style="fill:#D1D2D3;" d="M988,88.062c0-25.959-7.16-40.055-38.955-40.055L946.949,48C914.962,48,908,62.053,908,87.945
				c0,25.953,7.154,40.051,38.949,40.051l2.096,0.004C981.037,128,988,113.953,988,88.062z M947.172,119.609
				c-25.127,0-30.783-11.142-30.783-31.65c0-20.464,5.502-31.567,30.783-31.567l1.652,0.006c25.127,0,30.785,11.141,30.785,31.654
				c0,20.459-5.502,31.56-30.785,31.56L947.172,119.609z"/>
			
				<radialGradient id="SVGID_6_" cx="915.6963" cy="87.9736" r="22.6895" gradientTransform="matrix(1 0 0 1 0.0181 -0.0017)" gradientUnits="userSpaceOnUse">
				<stop  offset="0" style="stop-color:#2AAAE2"/>
				<stop  offset="1" style="stop-color:#83D5F7"/>
			</radialGradient>
			<path style="fill:url(#SVGID_6_);" d="M916.389,87.959c0-10.988,1.593-19.273,6.977-24.596l-6.539-6.539
				C910.014,63.558,908,74.042,908,87.945c0,13.92,2.064,24.424,8.878,31.178l6.528-6.527
				C918.021,107.259,916.389,98.958,916.389,87.959z"/>
		</g>
		<g id="meegotouch-launcher-spinner-large-10">
			<path style="opacity:0.6;fill:#010101;" d="M825.5,87.803c0,21.066,5.812,32.5,32.5,32.5c26.686,0,32.5-11.434,32.5-32.5
				c0-21.065-5.814-32.5-32.5-32.5C831.312,55.303,825.5,66.737,825.5,87.803z"/>
			<path style="fill:#D1D2D3;" d="M898,88.062c0-25.958-7.16-40.054-38.955-40.054L856.949,48C824.962,48,818,62.053,818,87.944
				c0,25.954,7.154,40.052,38.949,40.052l2.096,0.004C891.037,128,898,113.952,898,88.062z M858.824,119.611l-1.652-0.003
				c-25.127,0-30.783-11.142-30.783-31.65c0-20.463,5.502-31.566,30.783-31.566l1.652,0.006c25.127,0,30.785,11.141,30.785,31.653
				C889.609,108.51,884.107,119.611,858.824,119.611z"/>
			
				<radialGradient id="SVGID_7_" cx="831.6738" cy="99.2998" r="21.6023" gradientTransform="matrix(1 0 0 1 0.0171 0)" gradientUnits="userSpaceOnUse">
				<stop  offset="0" style="stop-color:#2AAAE2"/>
				<stop  offset="1" style="stop-color:#83D5F7"/>
			</radialGradient>
			<path style="fill:url(#SVGID_7_);" d="M845.359,118.517c-15.17-3.258-18.971-13.766-18.971-30.559
				c0-4.71,0.298-8.918,1.055-12.615l-8.109-3.359C818.375,76.661,818,81.985,818,87.944c0,21.253,4.808,34.55,24.005,38.672
				L845.359,118.517z"/>
		</g>
		<g id="meegotouch-launcher-spinner-large-9">
			<path style="opacity:0.6;fill:#010101;" d="M735.5,88.802c0,21.066,5.812,32.5,32.5,32.5c26.686,0,32.5-11.434,32.5-32.5
				c0-21.065-5.814-32.5-32.5-32.5C741.312,56.302,735.5,67.736,735.5,88.802z"/>
			<path style="fill:#D1D2D3;" d="M769.045,48.008L766.949,48C734.962,48,728,62.053,728,87.943
				c0,25.955,7.154,40.053,38.949,40.053l2.096,0.004C801.037,128,808,113.951,808,88.061C808,62.104,800.84,48.008,769.045,48.008z
				 M768.824,119.611l-1.652-0.004c-25.127,0-30.783-11.141-30.783-31.65c0-20.463,5.502-31.566,30.783-31.566l1.652,0.006
				c25.127,0,30.785,11.141,30.785,31.654C799.609,108.51,794.107,119.611,768.824,119.611z"/>
			
				<radialGradient id="SVGID_8_" cx="747.9941" cy="107.999" r="20" gradientTransform="matrix(1 0 0 1 0.0151 0)" gradientUnits="userSpaceOnUse">
				<stop  offset="0" style="stop-color:#2AAAE2"/>
				<stop  offset="1" style="stop-color:#83D5F7"/>
			</radialGradient>
			<path style="fill:url(#SVGID_8_);" d="M768,119.609l-0.828-0.002c-25.109,0-30.775-11.127-30.783-31.607H728
				c0.01,25.918,7.178,39.996,38.949,39.996l1.051,0.002V119.609z"/>
		</g>
		<g id="meegotouch-launcher-spinner-large-8">
			<path style="opacity:0.6;fill:#010101;" d="M645.5,88c0,21.066,5.812,32.501,32.5,32.501c26.686,0,32.5-11.435,32.5-32.501
				c0-21.065-5.814-32.5-32.5-32.5C651.312,55.5,645.5,66.935,645.5,88z"/>
			<path style="fill:#D1D2D3;" d="M679.045,128C711.037,128,718,113.952,718,88.062c0-25.958-7.16-40.054-38.955-40.054L676.949,48
				C644.963,48,638,62.053,638,87.944c0,25.954,7.154,40.052,38.949,40.052L679.045,128z M646.389,87.958
				c0-20.463,5.502-31.566,30.783-31.566l1.652,0.006c25.127,0,30.785,11.141,30.785,31.653c0,20.459-5.502,31.561-30.785,31.561
				l-1.652-0.003C652.045,119.608,646.389,108.467,646.389,87.958z"/>
			<radialGradient id="SVGID_9_" cx="666.6865" cy="114.3232" r="21.602" gradientUnits="userSpaceOnUse">
				<stop  offset="0" style="stop-color:#2AAAE2"/>
				<stop  offset="1" style="stop-color:#83D5F7"/>
			</radialGradient>
			<path style="fill:url(#SVGID_9_);" d="M690.648,118.532c-3.357,0.713-7.264,1.079-11.824,1.079l-1.652-0.003
				c-19.32,0-27.123-6.594-29.699-18.962l-8.104,3.355c3.262,15.651,13.133,23.994,37.58,23.994l2.096,0.004
				c5.77,0,10.713-0.464,14.959-1.364L690.648,118.532z"/>
		</g>
		<g id="meegotouch-launcher-spinner-large-7">
			<path style="opacity:0.6;fill:#010101;" d="M555.502,88c0,21.066,5.812,32.501,32.5,32.501c26.686,0,32.5-11.435,32.5-32.501
				c0-21.065-5.814-32.5-32.5-32.5C561.314,55.5,555.502,66.935,555.502,88z"/>
			<path style="fill:#D1D2D3;" d="M628,88.062c0-25.958-7.159-40.054-38.954-40.054L586.95,48C554.963,48,548,62.053,548,87.944
				c0,25.954,7.155,40.052,38.95,40.052l2.096,0.004C621.038,128,628,113.952,628,88.062z M587.173,119.608
				c-25.127,0-30.783-11.142-30.783-31.65c0-20.463,5.502-31.566,30.783-31.566l1.652,0.006c25.127,0,30.785,11.141,30.785,31.653
				c0,20.459-5.502,31.561-30.785,31.561L587.173,119.608z"/>
			
				<radialGradient id="SVGID_10_" cx="588.0205" cy="120.2969" r="22.6891" gradientTransform="matrix(1 0 0 1 0.0142 0)" gradientUnits="userSpaceOnUse">
				<stop  offset="0" style="stop-color:#2AAAE2"/>
				<stop  offset="1" style="stop-color:#83D5F7"/>
			</radialGradient>
			<path style="fill:url(#SVGID_10_);" d="M589.046,128c14.815,0,24.256-3.019,30.13-8.825l-6.538-6.538
				c-4.643,4.589-12.104,6.975-23.812,6.975l-1.652-0.003c-11.651,0-19.11-2.399-23.767-7.014l-6.527,6.527
				c5.891,5.838,15.329,8.874,30.071,8.874L589.046,128z"/>
		</g>
		<g id="meegotouch-launcher-spinner-large-6">
			<path style="opacity:0.6;fill:#010101;" d="M465.5,88c0,21.066,5.812,32.5,32.5,32.5c26.686,0,32.5-11.434,32.5-32.5
				c0-21.065-5.814-32.5-32.5-32.5S465.5,66.935,465.5,88z"/>
			<path style="fill:#D1D2D3;" d="M538,88.062c0-25.958-7.16-40.054-38.955-40.054L496.951,48C464.963,48,458,62.053,458,87.944
				c0,25.954,7.156,40.052,38.951,40.052l2.094,0.004C531.037,128,538,113.952,538,88.062z M498.826,119.611l-1.654-0.003
				c-25.126,0-30.782-11.142-30.782-31.65c0-20.463,5.502-31.566,30.782-31.566l1.654,0.006c25.127,0,30.785,11.141,30.785,31.653
				C529.611,108.51,524.107,119.611,498.826,119.611z"/>
			<radialGradient id="SVGID_11_" cx="509.335" cy="114.3291" r="21.6088" gradientUnits="userSpaceOnUse">
				<stop  offset="0" style="stop-color:#2AAAE2"/>
				<stop  offset="1" style="stop-color:#83D5F7"/>
			</radialGradient>
			<path style="fill:url(#SVGID_11_);" d="M536.666,104.017l-8.108-3.358c-2.532,12.366-10.267,18.953-29.731,18.953l-1.654-0.003
				c-4.552,0-8.457-0.371-11.813-1.092l-3.354,8.099c4.247,0.911,9.188,1.381,14.947,1.381l2.094,0.004
				C523.676,128,533.463,119.665,536.666,104.017z"/>
		</g>
		<g id="meegotouch-launcher-spinner-large-5">
			<path style="opacity:0.6;fill:#010101;" d="M375.5,88c0,21.066,5.812,32.5,32.5,32.5c26.686,0,32.5-11.434,32.5-32.5
				c0-21.065-5.814-32.5-32.5-32.5C381.312,55.5,375.5,66.935,375.5,88z"/>
			<path style="fill:#D1D2D3;" d="M409.045,48.008L406.949,48C374.962,48,368,62.053,368,87.944
				c0,25.954,7.154,40.052,38.949,40.052l2.096,0.004C441.037,128,448,113.952,448,88.062C448,62.104,440.84,48.008,409.045,48.008z
				 M408.824,119.611l-1.652-0.003c-25.127,0-30.783-11.142-30.783-31.65c0-20.463,5.502-31.566,30.783-31.566l1.652,0.006
				c25.127,0,30.785,11.141,30.785,31.653C439.609,108.51,434.107,119.611,408.824,119.611z"/>
			
				<radialGradient id="SVGID_12_" cx="427.9941" cy="108" r="20" gradientTransform="matrix(1 0 0 1 0.0117 0)" gradientUnits="userSpaceOnUse">
				<stop  offset="0" style="stop-color:#2AAAE2"/>
				<stop  offset="1" style="stop-color:#83D5F7"/>
			</radialGradient>
			<path style="fill:url(#SVGID_12_);" d="M439.609,88.051c0,20.459-5.502,31.561-30.785,31.561L408,119.61v8.388l1.045,0.002
				C441.037,128,448,113.952,448,88.062c0-0.021-0.002-0.041-0.002-0.062h-8.389C439.609,88.017,439.609,88.033,439.609,88.051z"/>
		</g>
		<g id="meegotouch-launcher-spinner-large-4">
			<path style="opacity:0.6;fill:#010101;" d="M285.5,88c0,21.066,5.813,32.5,32.5,32.5c26.685,0,32.5-11.434,32.5-32.5
				c0-21.065-5.815-32.5-32.5-32.5C291.313,55.5,285.5,66.935,285.5,88z"/>
			<path style="fill:#D1D2D3;" d="M319.046,128C351.037,128,358,113.951,358,88.061c0-25.957-7.159-40.053-38.954-40.053L316.95,48
				C284.963,48,278,62.053,278,87.943c0,25.955,7.155,40.053,38.95,40.053L319.046,128z M286.391,87.957
				c0-20.463,5.501-31.566,30.782-31.566l1.651,0.006c25.128,0,30.785,11.141,30.785,31.654c0,20.459-5.501,31.561-30.785,31.561
				l-1.651-0.004C292.046,119.607,286.391,108.467,286.391,87.957z"/>
			
				<radialGradient id="SVGID_13_" cx="344.3164" cy="99.3179" r="21.6025" gradientTransform="matrix(1 0 0 1 0.0107 0)" gradientUnits="userSpaceOnUse">
				<stop  offset="0" style="stop-color:#2AAAE2"/>
				<stop  offset="1" style="stop-color:#83D5F7"/>
			</radialGradient>
			<path style="fill:url(#SVGID_13_);" d="M358,88.061c0-5.999-0.391-11.355-1.37-16.061l-8.104,3.356
				c0.775,3.718,1.084,7.952,1.084,12.694c0,16.77-3.705,27.247-18.963,30.482l3.356,8.103C353.311,122.542,358,109.283,358,88.061z
				"/>
		</g>
		<g id="meegotouch-launcher-spinner-large-3">
			<path style="opacity:0.6;fill:#010101;" d="M195.501,88c0,21.066,5.812,32.501,32.499,32.501
				c26.686,0,32.499-11.435,32.499-32.501S254.686,55.5,228,55.5C201.312,55.5,195.501,66.934,195.501,88z"/>
			<path style="fill:#D1D2D3;" d="M268,88.061c0-25.958-7.16-40.055-38.954-40.055L226.95,48C194.964,48,188,62.052,188,87.943
				c0,25.955,7.156,40.053,38.95,40.053l2.096,0.004C261.037,128,268,113.953,268,88.061z M227.173,119.609
				c-25.127,0-30.782-11.143-30.782-31.652c0-20.463,5.501-31.566,30.782-31.566l1.652,0.006c25.127,0,30.784,11.141,30.784,31.654
				c0,20.459-5.501,31.561-30.784,31.561L227.173,119.609z"/>
			
				<radialGradient id="SVGID_14_" cx="260.2695" cy="88.0283" r="22.6885" gradientTransform="matrix(1 0 0 1 0.0391 0)" gradientUnits="userSpaceOnUse">
				<stop  offset="0" style="stop-color:#2AAAE2"/>
				<stop  offset="1" style="stop-color:#83D5F7"/>
			</radialGradient>
			<path style="fill:url(#SVGID_14_);" d="M259.118,56.881l-6.527,6.527c5.386,5.338,7.019,13.639,7.019,24.643
				c0,10.984-1.592,19.268-6.973,24.587l6.538,6.538c6.811-6.73,8.825-17.213,8.825-31.115
				C268,74.139,265.933,63.633,259.118,56.881z"/>
		</g>
		<g id="meegotouch-launcher-spinner-large-2">
			<path style="opacity:0.6;fill:#010101;" d="M105.5,88c0,21.066,5.812,32.5,32.5,32.5c26.685,0,32.5-11.434,32.5-32.5
				s-5.814-32.5-32.5-32.5C111.314,55.5,105.5,66.934,105.5,88z"/>
			<path style="fill:#D1D2D3;" d="M178,88.061c0-25.957-7.16-40.053-38.955-40.053L136.95,48C104.962,48,98,62.053,98,87.943
				c0,25.955,7.156,40.053,38.951,40.053l2.095,0.004C171.037,128,178,113.951,178,88.061z M138.825,119.611l-1.653-0.004
				c-25.126,0-30.783-11.141-30.783-31.65c0-20.463,5.502-31.566,30.783-31.566l1.653,0.006c25.127,0,30.785,11.141,30.785,31.654
				C169.61,108.51,164.107,119.611,138.825,119.611z"/>
			<radialGradient id="SVGID_15_" cx="164.3193" cy="76.7021" r="21.6008" gradientUnits="userSpaceOnUse">
				<stop  offset="0" style="stop-color:#2AAAE2"/>
				<stop  offset="1" style="stop-color:#83D5F7"/>
			</radialGradient>
			<path style="fill:url(#SVGID_15_);" d="M153.994,49.389l-3.355,8.1c15.17,3.258,18.972,13.766,18.972,30.562
				c0,4.706-0.298,8.91-1.054,12.605l8.11,3.359C177.624,99.34,178,94.018,178,88.061C178,66.806,173.189,53.511,153.994,49.389z"/>
		</g>
		<g id="meegotouch-launcher-spinner-large-1">
			<path style="opacity:0.6;fill:#010101;" d="M15.5,88c0,21.065,5.813,32.5,32.5,32.5c26.685,0,32.5-11.435,32.5-32.5
				S74.685,55.5,48,55.5C21.313,55.5,15.5,66.935,15.5,88z"/>
			<path style="fill:#D1D2D3;" d="M49.045,48.008L46.95,48C14.963,48,8,62.053,8,87.943c0,25.955,7.156,40.053,38.95,40.053
				L49.045,128C81.037,128,88,113.951,88,88.061C88,62.104,80.84,48.008,49.045,48.008z M48.825,119.611l-1.652-0.004
				c-25.126,0-30.783-11.142-30.783-31.65c0-20.462,5.502-31.565,30.783-31.565l1.652,0.006c25.126,0,30.785,11.141,30.785,31.653
				C79.609,108.509,74.107,119.611,48.825,119.611z"/>
			<radialGradient id="SVGID_16_" cx="68" cy="68.002" r="19.9988" gradientUnits="userSpaceOnUse">
				<stop  offset="0" style="stop-color:#2AAAE2"/>
				<stop  offset="1" style="stop-color:#83D5F7"/>
			</radialGradient>
			<path style="fill:url(#SVGID_16_);" d="M49.045,48.008L48,48.004v8.391l0.825,0.003C73.93,56.397,79.6,67.52,79.609,88H88
				C87.988,62.082,80.814,48.008,49.045,48.008z"/>
		</g>
		<g id="meegotouch-launcher-spinner-small-16">
			<path style="opacity:0.6;fill:#010101;" d="M1378.5,169.882c0,12.64,3.488,19.5,19.5,19.5s19.5-6.86,19.5-19.5
				s-3.488-19.501-19.5-19.501S1378.5,157.242,1378.5,169.882z"/>
			<path style="fill:#D1D2D3;" d="M1398.627,194c19.195,0,23.373-8.429,23.373-23.963c0-15.575-4.297-24.032-23.373-24.032
				l-1.258-0.005c-19.191,0-23.369,8.432-23.369,23.967c0,15.572,4.293,24.03,23.369,24.03L1398.627,194z M1379.033,169.976
				c0-12.278,3.301-18.94,18.471-18.94l0.99,0.003c15.076,0,18.471,6.685,18.471,18.993c0,12.275-3.301,18.936-18.471,18.936
				l-0.99-0.001C1382.428,188.966,1379.033,182.28,1379.033,169.976z"/>
			
				<radialGradient id="SVGID_17_" cx="1404.7812" cy="154.207" r="12.9613" gradientTransform="matrix(1 0 0 1 0.0239 -0.0017)" gradientUnits="userSpaceOnUse">
				<stop  offset="0" style="stop-color:#2AAAE2"/>
				<stop  offset="1" style="stop-color:#83D5F7"/>
			</radialGradient>
			<path style="fill:url(#SVGID_17_);" d="M1398.627,146.005l-1.258-0.005c-3.459,0-6.424,0.278-8.971,0.818l2.014,4.863
				c2.014-0.427,4.355-0.646,7.092-0.646l0.99,0.003c11.592,0,16.273,3.955,17.82,11.376l4.863-2.014
				C1419.219,151.009,1413.295,146.005,1398.627,146.005z"/>
		</g>
		<g id="meegotouch-launcher-spinner-small-15">
			<path style="opacity:0.6;fill:#010101;" d="M1290.5,170.481c0,12.64,3.487,19.5,19.5,19.5c16.011,0,19.5-6.86,19.5-19.5
				c0-12.639-3.489-19.5-19.5-19.5C1293.987,150.981,1290.5,157.843,1290.5,170.481z"/>
			<path style="fill:#D1D2D3;" d="M1334,170.037c0-15.575-4.297-24.032-23.373-24.032l-1.258-0.005
				c-19.192,0-23.369,8.432-23.369,23.967c0,15.572,4.293,24.03,23.369,24.03l1.258,0.003C1329.822,194,1334,185.571,1334,170.037z
				 M1309.503,188.965c-15.076,0-18.47-6.685-18.47-18.99c0-12.277,3.301-18.939,18.47-18.939l0.991,0.003
				c15.076,0,18.471,6.685,18.471,18.992c0,12.275-3.301,18.937-18.471,18.937L1309.503,188.965z"/>
			
				<radialGradient id="SVGID_18_" cx="1309.9766" cy="150.623" r="13.6131" gradientTransform="matrix(1 0 0 1 0.0229 0)" gradientUnits="userSpaceOnUse">
				<stop  offset="0" style="stop-color:#2AAAE2"/>
				<stop  offset="1" style="stop-color:#83D5F7"/>
			</radialGradient>
			<path style="fill:url(#SVGID_18_);" d="M1309.369,146c-8.887,0-14.55,1.812-18.074,5.295l3.924,3.924
				c2.785-2.753,7.261-4.184,14.284-4.184l0.991,0.003c6.99,0,11.467,1.44,14.26,4.208l3.917-3.917
				c-3.534-3.503-9.199-5.324-18.044-5.324L1309.369,146z"/>
		</g>
		<g id="meegotouch-launcher-spinner-small-14">
			<path style="opacity:0.6;fill:#010101;" d="M1198.5,170.481c0,12.64,3.488,19.5,19.5,19.5s19.5-6.86,19.5-19.5
				c0-12.639-3.488-19.5-19.5-19.5S1198.5,157.843,1198.5,170.481z"/>
			<path style="fill:#D1D2D3;" d="M1242,170.037c0-15.575-4.296-24.032-23.373-24.032l-1.258-0.005
				c-19.191,0-23.369,8.432-23.369,23.967c0,15.572,4.293,24.03,23.369,24.03l1.258,0.003C1237.822,194,1242,185.571,1242,170.037z
				 M1218.494,188.967l-0.991-0.001c-15.075,0-18.47-6.686-18.47-18.99c0-12.278,3.302-18.94,18.47-18.94l0.991,0.003
				c15.076,0,18.472,6.685,18.472,18.993C1236.966,182.307,1233.664,188.967,1218.494,188.967z"/>
			
				<radialGradient id="SVGID_19_" cx="1211.1914" cy="154.2031" r="12.9644" gradientTransform="matrix(1 0 0 1 0.0215 -0.0017)" gradientUnits="userSpaceOnUse">
				<stop  offset="0" style="stop-color:#2AAAE2"/>
				<stop  offset="1" style="stop-color:#83D5F7"/>
			</radialGradient>
			<path style="fill:url(#SVGID_19_);" d="M1194.801,160.391l4.865,2.016c1.52-7.419,6.16-11.371,17.837-11.371l0.991,0.003
				c2.732,0,5.074,0.223,7.089,0.655l2.013-4.86c-2.548-0.547-5.513-0.828-8.969-0.828l-1.258-0.005
				C1202.595,146,1196.723,151.002,1194.801,160.391z"/>
		</g>
		<g id="meegotouch-launcher-spinner-small-13">
			<path style="opacity:0.6;fill:#010101;" d="M1108.5,169.881c0,12.64,3.488,19.5,19.5,19.5s19.5-6.86,19.5-19.5
				c0-12.639-3.488-19.5-19.5-19.5S1108.5,157.242,1108.5,169.881z"/>
			<path style="fill:#D1D2D3;" d="M1128.627,146.005L1127.37,146c-19.192,0-23.37,8.432-23.37,23.967
				c0,15.572,4.293,24.03,23.37,24.03l1.257,0.003c19.195,0,23.373-8.429,23.373-23.963
				C1152,154.462,1147.704,146.005,1128.627,146.005z M1128.495,188.967l-0.991-0.002c-15.076,0-18.47-6.685-18.47-18.99
				c0-12.277,3.301-18.939,18.47-18.939l0.991,0.003c15.076,0,18.471,6.685,18.471,18.992
				C1146.966,182.306,1143.665,188.967,1128.495,188.967z"/>
			
				<radialGradient id="SVGID_20_" cx="1116.002" cy="158" r="12" gradientTransform="matrix(1 0 0 1 -0.0112 0)" gradientUnits="userSpaceOnUse">
				<stop  offset="0" style="stop-color:#2AAAE2"/>
				<stop  offset="1" style="stop-color:#83D5F7"/>
			</radialGradient>
			<path style="fill:url(#SVGID_20_);" d="M1109.034,169.975c0-12.277,3.301-18.939,18.47-18.939l0.496,0.002v-5.035l-0.63-0.002
				c-19.192,0-23.37,8.432-23.37,23.967c0,0.011,0,0.021,0,0.033h5.034C1109.034,169.991,1109.034,169.982,1109.034,169.975z"/>
		</g>
		<g id="meegotouch-launcher-spinner-small-12">
			<path style="opacity:0.6;fill:#010101;" d="M1016.5,169.881c0,12.64,3.487,19.5,19.5,19.5c16.011,0,19.5-6.86,19.5-19.5
				c0-12.639-3.489-19.5-19.5-19.5C1019.987,150.381,1016.5,157.242,1016.5,169.881z"/>
			<path style="fill:#D1D2D3;" d="M1036.627,194c19.195,0,23.373-8.429,23.373-23.963c0-15.575-4.296-24.032-23.373-24.032
				l-1.258-0.005c-19.192,0-23.369,8.432-23.369,23.967c0,15.572,4.292,24.03,23.369,24.03L1036.627,194z M1017.033,169.975
				c0-12.277,3.301-18.939,18.47-18.939l0.991,0.003c15.076,0,18.472,6.685,18.472,18.992c0,12.275-3.302,18.937-18.472,18.937
				l-0.991-0.002C1020.427,188.965,1017.033,182.28,1017.033,169.975z"/>
			
				<radialGradient id="SVGID_21_" cx="1020.1992" cy="163.209" r="12.9619" gradientTransform="matrix(1 0 0 1 0.0195 0)" gradientUnits="userSpaceOnUse">
				<stop  offset="0" style="stop-color:#2AAAE2"/>
				<stop  offset="1" style="stop-color:#83D5F7"/>
			</radialGradient>
			<path style="fill:url(#SVGID_21_);" d="M1017.033,169.975c0-10.064,2.224-16.353,11.379-18.293l-2.015-4.863
				c-11.584,2.456-14.397,10.413-14.397,23.148c0,3.599,0.233,6.812,0.821,9.634l4.861-2.014
				C1017.218,175.357,1017.033,172.817,1017.033,169.975z"/>
		</g>
		<g id="meegotouch-launcher-spinner-small-11">
			<path style="opacity:0.6;fill:#010101;" d="M928.5,170.481c0,12.64,3.487,19.5,19.5,19.5c16.012,0,19.5-6.86,19.5-19.5
				c0-12.639-3.488-19.5-19.5-19.5C931.987,150.981,928.5,157.843,928.5,170.481z"/>
			<path style="fill:#D1D2D3;" d="M972,170.037c0-15.575-4.296-24.032-23.373-24.032L947.37,146c-19.192,0-23.37,8.432-23.37,23.967
				c0,15.572,4.293,24.03,23.37,24.03l1.257,0.003C967.822,194,972,185.571,972,170.037z M947.503,188.966
				c-15.076,0-18.47-6.686-18.47-18.99c0-12.278,3.302-18.94,18.47-18.94l0.992,0.003c15.076,0,18.471,6.685,18.471,18.993
				c0,12.275-3.301,18.936-18.471,18.936L947.503,188.966z"/>
			
				<radialGradient id="SVGID_22_" cx="928.6152" cy="169.9834" r="13.6137" gradientTransform="matrix(1 0 0 1 0.0181 -0.0017)" gradientUnits="userSpaceOnUse">
				<stop  offset="0" style="stop-color:#2AAAE2"/>
				<stop  offset="1" style="stop-color:#83D5F7"/>
			</radialGradient>
			<path style="fill:url(#SVGID_22_);" d="M929.033,169.976c0-6.593,0.956-11.564,4.187-14.758l-3.924-3.923
				c-4.088,4.04-5.296,10.33-5.296,18.672c0,8.353,1.239,14.654,5.327,18.707l3.917-3.917
				C930.013,181.555,929.033,176.574,929.033,169.976z"/>
		</g>
		<g id="meegotouch-launcher-spinner-small-10">
			<path style="opacity:0.6;fill:#010101;" d="M838.5,169.882c0,12.64,3.487,19.5,19.5,19.5c16.011,0,19.499-6.86,19.499-19.5
				s-3.488-19.5-19.499-19.5C841.987,150.382,838.5,157.242,838.5,169.882z"/>
			<path style="fill:#D1D2D3;" d="M882,170.037c0-15.575-4.297-24.032-23.373-24.032L857.369,146
				C838.176,146,834,154.432,834,169.967c0,15.572,4.291,24.03,23.369,24.03l1.258,0.003C877.821,194,882,185.571,882,170.037z
				 M858.494,188.967l-0.991-0.002c-15.076,0-18.47-6.685-18.47-18.99c0-12.277,3.301-18.939,18.47-18.939l0.991,0.003
				c15.076,0,18.471,6.685,18.471,18.992C876.965,182.306,873.664,188.967,858.494,188.967z"/>
			
				<radialGradient id="SVGID_23_" cx="842.2109" cy="176.7793" r="12.9619" gradientTransform="matrix(1 0 0 1 -0.0112 0)" gradientUnits="userSpaceOnUse">
				<stop  offset="0" style="stop-color:#2AAAE2"/>
				<stop  offset="1" style="stop-color:#83D5F7"/>
			</radialGradient>
			<path style="fill:url(#SVGID_23_);" d="M850.415,188.31c-9.102-1.954-11.382-8.259-11.382-18.335
				c0-2.826,0.179-5.351,0.633-7.569l-4.867-2.016c-0.574,2.807-0.799,6.002-0.799,9.577c0,12.751,2.885,20.729,14.402,23.203
				L850.415,188.31z"/>
		</g>
		<g id="meegotouch-launcher-spinner-small-9">
			<path style="opacity:0.6;fill:#010101;" d="M748.5,170.48c0,12.641,3.487,19.5,19.5,19.5c16.011,0,19.5-6.859,19.5-19.5
				c0-12.639-3.489-19.499-19.5-19.499C751.987,150.981,748.5,157.842,748.5,170.48z"/>
			<path style="fill:#D1D2D3;" d="M768.627,146.005L767.369,146C748.177,146,744,154.432,744,169.966
				c0,15.573,4.293,24.031,23.369,24.031l1.258,0.003c19.195,0,23.373-8.43,23.373-23.964
				C792,154.462,787.703,146.005,768.627,146.005z M768.494,188.967l-0.991-0.003c-15.076,0-18.47-6.684-18.47-18.989
				c0-12.278,3.301-18.94,18.47-18.94l0.991,0.004c15.076,0,18.471,6.685,18.471,18.992
				C786.965,182.306,783.664,188.967,768.494,188.967z"/>
			
				<radialGradient id="SVGID_24_" cx="755.9941" cy="182" r="12" gradientTransform="matrix(1 0 0 1 0.0151 0)" gradientUnits="userSpaceOnUse">
				<stop  offset="0" style="stop-color:#2AAAE2"/>
				<stop  offset="1" style="stop-color:#83D5F7"/>
			</radialGradient>
			<path style="fill:url(#SVGID_24_);" d="M768,188.966l-0.497-0.002c-15.065,0-18.465-6.676-18.47-18.964H744
				c0.006,15.551,4.307,23.997,23.369,23.997l0.631,0.002V188.966z"/>
		</g>
		<g id="meegotouch-launcher-spinner-small-8">
			<path style="opacity:0.6;fill:#010101;" d="M660.5,170c0,12.64,3.488,19.5,19.5,19.5s19.5-6.86,19.5-19.5s-3.488-19.5-19.5-19.5
				S660.5,157.36,660.5,170z"/>
			<path style="fill:#D1D2D3;" d="M680.627,194c19.195,0,23.373-8.429,23.373-23.963c0-15.575-4.296-24.032-23.373-24.032
				L679.37,146c-19.192,0-23.37,8.432-23.37,23.967c0,15.572,4.293,24.03,23.37,24.03L680.627,194z M661.033,169.975
				c0-12.277,3.302-18.939,18.47-18.939l0.992,0.003c15.075,0,18.471,6.685,18.471,18.992c0,12.275-3.302,18.937-18.471,18.937
				l-0.992-0.002C664.428,188.965,661.033,182.28,661.033,169.975z"/>
			<radialGradient id="SVGID_25_" cx="673.2124" cy="185.7939" r="12.961" gradientUnits="userSpaceOnUse">
				<stop  offset="0" style="stop-color:#2AAAE2"/>
				<stop  offset="1" style="stop-color:#83D5F7"/>
			</radialGradient>
			<path style="fill:url(#SVGID_25_);" d="M687.589,188.319c-2.014,0.428-4.357,0.647-7.094,0.647l-0.992-0.002
				c-11.592,0-16.273-3.956-17.819-11.377l-4.861,2.013c1.957,9.392,7.879,14.396,22.548,14.396l1.257,0.003
				c3.462,0,6.428-0.278,8.976-0.818L687.589,188.319z"/>
		</g>
		<g id="meegotouch-launcher-spinner-small-7">
			<path style="opacity:0.6;fill:#010101;" d="M570.502,170c0,12.64,3.487,19.5,19.5,19.5c16.011,0,19.5-6.86,19.5-19.5
				s-3.489-19.5-19.5-19.5C573.989,150.5,570.502,157.36,570.502,170z"/>
			<path style="fill:#D1D2D3;" d="M614,170.037c0-15.575-4.295-24.032-23.372-24.032L589.371,146
				C570.179,146,566,154.432,566,169.967c0,15.572,4.294,24.03,23.371,24.03l1.257,0.003C609.823,194,614,185.571,614,170.037z
				 M589.504,188.965c-15.076,0-18.47-6.685-18.47-18.99c0-12.277,3.302-18.939,18.47-18.939l0.992,0.003
				c15.075,0,18.471,6.685,18.471,18.992c0,12.275-3.302,18.937-18.471,18.937L589.504,188.965z"/>
			
				<radialGradient id="SVGID_26_" cx="590.0234" cy="189.3789" r="13.6127" gradientTransform="matrix(1 0 0 1 -0.0107 0)" gradientUnits="userSpaceOnUse">
				<stop  offset="0" style="stop-color:#2AAAE2"/>
				<stop  offset="1" style="stop-color:#83D5F7"/>
			</radialGradient>
			<path style="fill:url(#SVGID_26_);" d="M590.628,194c8.89,0,14.554-1.812,18.078-5.295l-3.923-3.923
				c-2.786,2.753-7.262,4.185-14.287,4.185l-0.992-0.002c-6.99,0-11.466-1.439-14.26-4.208l-3.916,3.916
				c3.534,3.503,9.197,5.324,18.043,5.324L590.628,194z"/>
		</g>
		<g id="meegotouch-launcher-spinner-small-6">
			<path style="opacity:0.6;fill:#010101;" d="M480.5,170c0,12.64,3.487,19.5,19.5,19.5c16.011,0,19.5-6.86,19.5-19.5
				s-3.489-19.5-19.5-19.5C483.988,150.5,480.5,157.36,480.5,170z"/>
			<path style="fill:#D1D2D3;" d="M524,170.037c0-15.575-4.296-24.032-23.373-24.032L499.37,146c-19.192,0-23.37,8.432-23.37,23.967
				c0,15.572,4.294,24.03,23.37,24.03l1.257,0.003C519.822,194,524,185.571,524,170.037z M500.495,188.967l-0.992-0.002
				c-15.075,0-18.469-6.685-18.469-18.99c0-12.277,3.301-18.939,18.469-18.939l0.992,0.003c15.076,0,18.472,6.685,18.472,18.992
				C518.967,182.306,515.664,188.967,500.495,188.967z"/>
			<radialGradient id="SVGID_27_" cx="506.8008" cy="185.7969" r="12.9653" gradientUnits="userSpaceOnUse">
				<stop  offset="0" style="stop-color:#2AAAE2"/>
				<stop  offset="1" style="stop-color:#83D5F7"/>
			</radialGradient>
			<path style="fill:url(#SVGID_27_);" d="M523.199,179.609l-4.865-2.015c-1.519,7.42-6.159,11.372-17.839,11.372l-0.992-0.002
				c-2.73,0-5.074-0.223-7.088-0.655l-2.013,4.859c2.548,0.547,5.513,0.828,8.968,0.828l1.257,0.003
				C515.405,194,521.277,188.999,523.199,179.609z"/>
		</g>
		<g id="meegotouch-launcher-spinner-small-5">
			<path style="opacity:0.6;fill:#010101;" d="M388.5,170c0,12.64,3.487,19.5,19.5,19.5c16.012,0,19.5-6.86,19.5-19.5
				s-3.488-19.5-19.5-19.5C391.987,150.5,388.5,157.36,388.5,170z"/>
			<path style="fill:#D1D2D3;" d="M408.627,146.005L407.37,146c-19.192,0-23.37,8.432-23.37,23.967
				c0,15.572,4.293,24.03,23.37,24.03l1.257,0.003c19.195,0,23.373-8.429,23.373-23.963
				C432,154.462,427.704,146.005,408.627,146.005z M408.495,188.967l-0.992-0.002c-15.076,0-18.47-6.685-18.47-18.99
				c0-12.277,3.302-18.939,18.47-18.939l0.992,0.003c15.076,0,18.471,6.685,18.471,18.992
				C426.966,182.306,423.665,188.967,408.495,188.967z"/>
			
				<radialGradient id="SVGID_28_" cx="419.9941" cy="182" r="12" gradientTransform="matrix(1 0 0 1 0.0117 0)" gradientUnits="userSpaceOnUse">
				<stop  offset="0" style="stop-color:#2AAAE2"/>
				<stop  offset="1" style="stop-color:#83D5F7"/>
			</radialGradient>
			<path style="fill:url(#SVGID_28_);" d="M426.966,170.03c0,12.275-3.301,18.937-18.471,18.937L408,188.966v5.033l0.627,0.001
				c19.195,0,23.373-8.429,23.373-23.963c0-0.014-0.001-0.025-0.001-0.037h-5.033C426.966,170.01,426.966,170.02,426.966,170.03z"/>
		</g>
		<g id="meegotouch-launcher-spinner-small-4">
			<path style="opacity:0.6;fill:#010101;" d="M300.5,170c0,12.64,3.488,19.5,19.5,19.5c16.01,0,19.5-6.86,19.5-19.5
				s-3.49-19.5-19.5-19.5C303.988,150.5,300.5,157.36,300.5,170z"/>
			<path style="fill:#D1D2D3;" d="M320.627,194c19.195,0,23.373-8.43,23.373-23.964c0-15.574-4.295-24.031-23.373-24.031
				L319.369,146C300.178,146,296,154.432,296,169.966c0,15.573,4.293,24.031,23.369,24.031L320.627,194z M301.035,169.975
				c0-12.278,3.301-18.94,18.469-18.94l0.99,0.004c15.076,0,18.471,6.685,18.471,18.992c0,12.275-3.301,18.937-18.471,18.937
				l-0.99-0.003C304.428,188.964,301.035,182.28,301.035,169.975z"/>
			
				<radialGradient id="SVGID_29_" cx="335.7871" cy="176.791" r="12.9615" gradientTransform="matrix(1 0 0 1 0.0107 0)" gradientUnits="userSpaceOnUse">
				<stop  offset="0" style="stop-color:#2AAAE2"/>
				<stop  offset="1" style="stop-color:#83D5F7"/>
			</radialGradient>
			<path style="fill:url(#SVGID_29_);" d="M344,170.036c0-3.6-0.234-6.813-0.822-9.636l-4.863,2.014
				c0.467,2.23,0.65,4.771,0.65,7.616c0,10.062-2.223,16.349-11.377,18.289l2.014,4.862C341.186,190.725,344,182.77,344,170.036z"/>
		</g>
		<g id="meegotouch-launcher-spinner-small-3">
			<path style="opacity:0.6;fill:#010101;" d="M208.501,170c0,12.64,3.486,19.5,19.499,19.5c16.011,0,19.499-6.86,19.499-19.5
				s-3.488-19.5-19.499-19.5C211.987,150.5,208.501,157.36,208.501,170z"/>
			<path style="fill:#D1D2D3;" d="M252,170.036c0-15.574-4.297-24.032-23.373-24.032L227.37,146c-19.191,0-23.37,8.431-23.37,23.966
				c0,15.573,4.294,24.031,23.37,24.031l1.257,0.003C247.822,194,252,185.571,252,170.036z M227.504,188.966
				c-15.076,0-18.47-6.686-18.47-18.991c0-12.278,3.301-18.94,18.47-18.94l0.991,0.004c15.076,0,18.471,6.685,18.471,18.992
				c0,12.275-3.301,18.937-18.471,18.937L227.504,188.966z"/>
			
				<radialGradient id="SVGID_30_" cx="247.3506" cy="170.0166" r="13.6132" gradientTransform="matrix(1 0 0 1 0.0391 0)" gradientUnits="userSpaceOnUse">
				<stop  offset="0" style="stop-color:#2AAAE2"/>
				<stop  offset="1" style="stop-color:#83D5F7"/>
			</radialGradient>
			<path style="fill:url(#SVGID_30_);" d="M246.671,151.328l-3.917,3.917c3.231,3.202,4.212,8.183,4.212,14.785
				c0,6.591-0.955,11.561-4.184,14.752l3.923,3.923c4.086-4.038,5.295-10.327,5.295-18.669
				C252,161.684,250.76,155.38,246.671,151.328z"/>
		</g>
		<g id="meegotouch-launcher-spinner-small-2">
			<path style="opacity:0.6;fill:#010101;" d="M116.501,170c0,12.64,3.487,19.5,19.499,19.5s19.5-6.86,19.5-19.5
				s-3.488-19.5-19.5-19.5S116.501,157.36,116.501,170z"/>
			<path style="fill:#D1D2D3;" d="M160,170.036c0-15.574-4.296-24.031-23.373-24.031L135.37,146c-19.192,0-23.37,8.432-23.37,23.966
				c0,15.573,4.293,24.031,23.37,24.031l1.257,0.003C155.822,194,160,185.57,160,170.036z M136.495,188.967l-0.992-0.003
				c-15.075,0-18.469-6.684-18.469-18.989c0-12.278,3.301-18.94,18.469-18.94l0.992,0.004c15.076,0,18.472,6.685,18.472,18.992
				C154.967,182.306,151.664,188.967,136.495,188.967z"/>
			<radialGradient id="SVGID_31_" cx="151.7915" cy="163.2207" r="12.9609" gradientUnits="userSpaceOnUse">
				<stop  offset="0" style="stop-color:#2AAAE2"/>
				<stop  offset="1" style="stop-color:#83D5F7"/>
			</radialGradient>
			<path style="fill:url(#SVGID_31_);" d="M145.597,146.833l-2.014,4.86c9.103,1.954,11.384,8.259,11.384,18.337
				c0,2.823-0.18,5.346-0.633,7.563l4.866,2.016c0.574-2.806,0.8-5.999,0.8-9.573C160,157.283,157.113,149.307,145.597,146.833z"/>
		</g>
		<g id="meegotouch-launcher-spinner-small-1">
			<path style="opacity:0.6;fill:#010101;" d="M28.501,170c0,12.639,3.487,19.5,19.5,19.5c16.011,0,19.499-6.861,19.499-19.5
				c0-12.64-3.488-19.5-19.499-19.5C31.988,150.5,28.501,157.36,28.501,170z"/>
			<path style="fill:#D1D2D3;" d="M48.628,146.004L47.37,146C28.179,146,24,154.432,24,169.966c0,15.573,4.294,24.032,23.37,24.032
				L48.628,194C67.822,194,72,185.57,72,170.036C72,154.462,67.704,146.004,48.628,146.004z M48.495,188.967l-0.991-0.003
				c-15.076,0-18.47-6.685-18.47-18.989c0-12.277,3.302-18.939,18.47-18.939l0.991,0.003c15.076,0,18.471,6.685,18.471,18.992
				C66.966,182.305,63.665,188.967,48.495,188.967z"/>
			
				<radialGradient id="SVGID_32_" cx="60.0005" cy="158.002" r="11.9993" gradientTransform="matrix(1 0 0 1 0 0.0025)" gradientUnits="userSpaceOnUse">
				<stop  offset="0" style="stop-color:#2AAAE2"/>
				<stop  offset="1" style="stop-color:#83D5F7"/>
			</radialGradient>
			<path style="fill:url(#SVGID_32_);" d="M48.628,146.004l-0.627-0.002v5.035l0.494,0.001c15.063,0,18.465,6.674,18.471,18.962H72
				C71.994,154.449,67.689,146.004,48.628,146.004z"/>
		</g>
	</g>
</g>
</svg>
