<?xml version="1.0" encoding="iso-8859-1"?>
<!-- Generator: Adobe Illustrator 15.0.2, SVG Export Plug-In . SVG Version: 6.00 Build 0)  -->
<!DOCTYPE svg PUBLIC "-//W3C//DTD SVG 1.1//EN" "http://www.w3.org/Graphics/SVG/1.1/DTD/svg11.dtd">
<svg version="1.1" id="meegotouch-progress-indicators-layer"
	 xmlns="http://www.w3.org/2000/svg" xmlns:xlink="http://www.w3.org/1999/xlink" x="0px" y="0px" width="970px" height="490px"
	 viewBox="0 0 970 490" style="enable-background:new 0 0 970 490;" xml:space="preserve">
<g id="meegotouch-progress-indicators">
	<g id="_x23_ProgressIndicatorThemeHelper">
		<g>
			<path d="M502.5,490.5c-6.6,0-12-5.4-12-12v-466c0-6.6,5.4-12,12-12h456c6.6,0,12,5.4,12,12v466c0,6.6-5.4,12-12,12H502.5z"/>
		</g>
		<g>
			<path style="fill:#F0F0F1;" d="M12.5,490.5c-6.6,0-12-5.4-12-12v-466c0-6.6,5.4-12,12-12h456c6.6,0,12,5.4,12,12v466
				c0,6.6-5.4,12-12,12H12.5z"/>
			<path style="fill:none;stroke:#929497;" d="M12.5,490.5c-6.6,0-12-5.4-12-12v-466c0-6.6,5.4-12,12-12h456c6.6,0,12,5.4,12,12v466
				c0,6.6-5.4,12-12,12H12.5z"/>
		</g>
		<g>
			<path d="M100.893,25.398c5.615,0,7.883,2.592,7.883,8.1c0,5.58-3.131,8.639-8.711,8.639h-2.34v9.467h-3.779V25.398H100.893z
				 M99.237,39.582c2.52,0,3.491-0.432,4.247-1.225c1.044-1.042,1.368-2.699,1.368-4.751c0-1.944-0.252-3.491-1.152-4.499
				c-0.684-0.756-1.656-1.188-3.888-1.188h-2.088v11.662H99.237z"/>
			<path d="M116.049,34.578c1.26-2.592,3.167-3.6,5.939-3.6c0.252,0,0.54,0,0.828,0.035v3.42c-0.468-0.035-0.9-0.035-1.332-0.035
				c-3.167,0-4.644,1.439-4.644,4.752v12.453h-3.743V31.158h2.087L116.049,34.578z"/>
			<path d="M133.185,51.893c-6.551,0-8.243-5.256-8.243-10.836c0-5.398,2.268-10.186,8.243-10.186c6.011,0,8.243,4.68,8.243,10.258
				C141.428,47.357,139.196,51.893,133.185,51.893z M133.185,33.391c-3.852,0-4.355,4.787-4.355,7.559
				c0,2.844,0.396,8.424,4.355,8.424c3.996,0,4.355-4.896,4.355-8.424C137.54,38.322,136.784,33.391,133.185,33.391z"/>
			<path d="M158.6,31.158h2.088v19.475c0,4.715-3.24,6.947-7.667,6.947c-2.268,0-4.463-0.396-6.623-0.938v-2.627
				c1.979,0.469,4.139,0.936,6.191,0.936c4.032,0,4.355-2.23,4.355-5.76v-0.395c-1.188,1.619-2.916,2.303-4.787,2.303
				c-5.615,0-6.983-4.932-6.983-9.971c0-5.256,1.8-10.258,7.523-10.258c2.339,0,3.923,0.863,5.111,2.771L158.6,31.158z
				 M153.201,33.391c-3.6,0-4.14,4.176-4.14,7.559c0,2.736,0.288,7.631,3.923,7.631c3.636,0,4.032-3.852,4.032-7.703
				C157.016,37.639,156.476,33.391,153.201,33.391z"/>
			<path d="M169.113,34.578c1.26-2.592,3.167-3.6,5.939-3.6c0.252,0,0.54,0,0.828,0.035v3.42c-0.468-0.035-0.9-0.035-1.332-0.035
				c-3.167,0-4.644,1.439-4.644,4.752v12.453h-3.743V31.158h2.087L169.113,34.578z"/>
			<path d="M192.259,51.027c-1.836,0.576-3.779,0.865-5.723,0.865c-6.624,0-8.531-4.607-8.531-10.547
				c0-5.111,2.016-10.475,7.919-10.475c6.659,0,7.091,6.192,7.091,11.338h-11.051c0,3.455,0.828,7.127,5.076,7.127
				c1.764,0,3.527-0.396,5.219-0.863V51.027z M189.344,39.906c0-2.305-0.18-6.516-3.419-6.516c-3.312,0-3.816,4.066-3.96,6.516
				H189.344z"/>
			<path d="M208.063,34.147c-1.368-0.469-2.808-0.756-4.283-0.756c-1.944,0-3.419,0.756-3.419,2.879
				c0,1.656,1.512,2.484,3.563,3.455c2.34,1.117,4.787,2.484,4.787,6.012c0,4.5-3.167,6.156-7.235,6.156
				c-1.764,0-3.527-0.289-5.255-0.684v-2.701c1.62,0.432,3.348,0.865,5.003,0.865c2.16,0,3.779-0.756,3.779-3.133
				c0-1.943-1.476-2.771-3.563-3.779c-2.268-1.115-4.787-2.34-4.787-5.832c0-3.887,3.204-5.758,6.731-5.758
				c1.584,0,3.167,0.18,4.679,0.646V34.147z"/>
			<path d="M223.328,34.147c-1.368-0.469-2.808-0.756-4.284-0.756c-1.944,0-3.419,0.756-3.419,2.879
				c0,1.656,1.512,2.484,3.563,3.455c2.34,1.117,4.787,2.484,4.787,6.012c0,4.5-3.167,6.156-7.235,6.156
				c-1.764,0-3.527-0.289-5.255-0.684v-2.701c1.62,0.432,3.348,0.865,5.003,0.865c2.16,0,3.779-0.756,3.779-3.133
				c0-1.943-1.476-2.771-3.563-3.779c-2.268-1.115-4.787-2.34-4.787-5.832c0-3.887,3.204-5.758,6.731-5.758
				c1.584,0,3.167,0.18,4.68,0.646V34.147z"/>
			<path d="M241.256,51.604h-3.744V33.678h-2.339v-2.52h6.083V51.604z M239.384,28.242c-1.188,0-2.124-0.936-2.124-2.123
				s0.936-2.123,2.124-2.123c1.152,0,2.124,0.971,2.124,2.123C241.508,27.307,240.572,28.242,239.384,28.242z"/>
			<path d="M249.788,34.182c1.296-2.23,3.384-3.311,5.939-3.311c4.284,0,6.227,2.34,6.227,6.516v14.217h-3.743V37.998
				c0-2.52-0.648-4.607-3.24-4.607c-3.167,0-4.284,2.879-4.284,5.578v12.635h-3.743V31.158h2.087L249.788,34.182z"/>
			<path d="M279.342,49.084c-1.26,2.125-3.132,2.809-5.543,2.809c-6.191,0-7.307-5.543-7.307-10.619
				c0-4.751,1.836-10.402,7.523-10.402c1.691,0,3.312,0.432,4.427,1.764v-8.855h3.744v27.824h-2.052L279.342,49.084z M274.59,33.391
				c-3.888,0-4.211,4.932-4.211,7.811c0,2.699,0.288,8.172,4.067,8.172c4.392,0,4.104-5.041,4.104-8.207
				C278.55,38.322,278.55,33.391,274.59,33.391z"/>
			<path d="M291.943,51.604h-3.744V33.678h-2.339v-2.52h6.083V51.604z M290.071,28.242c-1.188,0-2.124-0.936-2.124-2.123
				s0.936-2.123,2.124-2.123c1.152,0,2.124,0.971,2.124,2.123C292.195,27.307,291.259,28.242,290.071,28.242z"/>
			<path d="M309.33,51.352c-1.404,0.396-2.664,0.541-4.139,0.541c-6.551,0-8.423-5.076-8.423-10.764
				c0-5.867,2.556-10.258,8.963-10.258c1.224,0,2.268,0.143,3.456,0.432v2.555c-1.152-0.359-2.124-0.432-3.312-0.432
				c-4.283,0-5.219,4.355-5.219,7.775c0,3.455,0.792,8.135,5.219,8.135c1.224,0,2.268-0.035,3.456-0.396V51.352z"/>
			<path d="M323.406,48.652c-1.296,2.232-3.348,3.24-5.903,3.24c-3.744,0-5.903-2.232-5.903-5.977c0-6.334,6.119-6.514,10.871-6.514
				v-1.908c0-1.873-0.396-2.629-0.864-3.096c-0.648-0.648-1.656-0.973-2.952-0.973c-1.836,0-3.636,0.432-5.363,0.936v-2.627
				c1.98-0.539,4.031-0.863,6.047-0.863c2.304,0,4.104,0.576,5.291,1.799c1.008,1.045,1.584,2.34,1.584,4.717v14.217h-2.052
				L323.406,48.652z M320.742,41.633c-1.62,0-2.844,0.217-3.708,0.756c-1.044,0.648-1.692,1.764-1.692,3.492
				c0,2.088,0.936,3.492,3.06,3.492c2.771,0,4.067-2.016,4.067-4.607v-3.133H320.742z"/>
			<path d="M341.261,51.244c-1.439,0.396-2.952,0.648-4.427,0.648c-3.24,0-4.607-1.477-4.607-4.68V33.678h-2.484v-2.52h2.52
				l1.476-4.895h2.232v4.895h4.967v2.52h-4.967v12.887c0,1.656,0.288,2.736,2.195,2.736c1.044,0,2.088-0.252,3.096-0.504V51.244z"/>
			<path d="M351.558,51.893c-6.551,0-8.243-5.256-8.243-10.836c0-5.398,2.268-10.186,8.243-10.186c6.011,0,8.243,4.68,8.243,10.258
				C359.801,47.357,357.569,51.893,351.558,51.893z M351.558,33.391c-3.852,0-4.355,4.787-4.355,7.559
				c0,2.844,0.396,8.424,4.355,8.424c3.996,0,4.355-4.896,4.355-8.424C355.913,38.322,355.157,33.391,351.558,33.391z"/>
			<path d="M367.362,34.578c1.26-2.592,3.167-3.6,5.939-3.6c0.252,0,0.54,0,0.828,0.035v3.42c-0.468-0.035-0.9-0.035-1.332-0.035
				c-3.167,0-4.644,1.439-4.644,4.752v12.453h-3.743V31.158h2.087L367.362,34.578z"/>
			<path d="M387.989,34.147c-1.368-0.469-2.808-0.756-4.283-0.756c-1.944,0-3.419,0.756-3.419,2.879
				c0,1.656,1.512,2.484,3.563,3.455c2.34,1.117,4.787,2.484,4.787,6.012c0,4.5-3.167,6.156-7.235,6.156
				c-1.764,0-3.527-0.289-5.255-0.684v-2.701c1.62,0.432,3.348,0.865,5.003,0.865c2.16,0,3.779-0.756,3.779-3.133
				c0-1.943-1.476-2.771-3.563-3.779c-2.268-1.115-4.787-2.34-4.787-5.832c0-3.887,3.204-5.758,6.731-5.758
				c1.584,0,3.167,0.18,4.679,0.646V34.147z"/>
		</g>
		<g>
			<path style="fill:#FFFFFF;" d="M516.481,25.398c5.616,0,7.883,2.592,7.883,8.1c0,5.58-3.131,8.639-8.71,8.639h-2.34v9.467h-3.779
				V25.398H516.481z M514.826,39.582c2.52,0,3.491-0.432,4.247-1.225c1.044-1.042,1.368-2.699,1.368-4.751
				c0-1.944-0.252-3.491-1.151-4.499c-0.685-0.756-1.656-1.188-3.888-1.188h-2.088v11.662H514.826z"/>
			<path style="fill:#FFFFFF;" d="M531.639,34.578c1.259-2.592,3.167-3.6,5.938-3.6c0.252,0,0.54,0,0.828,0.035v3.42
				c-0.468-0.035-0.899-0.035-1.332-0.035c-3.167,0-4.644,1.439-4.644,4.752v12.453h-3.743V31.158h2.087L531.639,34.578z"/>
			<path style="fill:#FFFFFF;" d="M548.773,51.893c-6.551,0-8.243-5.256-8.243-10.836c0-5.398,2.268-10.186,8.243-10.186
				c6.012,0,8.243,4.68,8.243,10.258C557.017,47.357,554.785,51.893,548.773,51.893z M548.773,33.391
				c-3.852,0-4.355,4.787-4.355,7.559c0,2.844,0.396,8.424,4.355,8.424c3.996,0,4.355-4.896,4.355-8.424
				C553.129,38.322,552.373,33.391,548.773,33.391z"/>
			<path style="fill:#FFFFFF;" d="M574.188,31.158h2.088v19.475c0,4.715-3.24,6.947-7.667,6.947c-2.268,0-4.463-0.396-6.623-0.938
				v-2.627c1.979,0.469,4.139,0.936,6.19,0.936c4.032,0,4.356-2.23,4.356-5.76v-0.395c-1.188,1.619-2.916,2.303-4.787,2.303
				c-5.615,0-6.984-4.932-6.984-9.971c0-5.256,1.801-10.258,7.523-10.258c2.34,0,3.924,0.863,5.112,2.771L574.188,31.158z
				 M568.79,33.391c-3.601,0-4.14,4.176-4.14,7.559c0,2.736,0.288,7.631,3.923,7.631c3.636,0,4.032-3.852,4.032-7.703
				C572.605,37.639,572.064,33.391,568.79,33.391z"/>
			<path style="fill:#FFFFFF;" d="M584.701,34.578c1.26-2.592,3.168-3.6,5.939-3.6c0.252,0,0.54,0,0.828,0.035v3.42
				c-0.469-0.035-0.9-0.035-1.332-0.035c-3.168,0-4.644,1.439-4.644,4.752v12.453h-3.743V31.158h2.088L584.701,34.578z"/>
			<path style="fill:#FFFFFF;" d="M607.848,51.027c-1.836,0.576-3.779,0.865-5.723,0.865c-6.623,0-8.531-4.607-8.531-10.547
				c0-5.111,2.016-10.475,7.92-10.475c6.658,0,7.09,6.192,7.09,11.338h-11.051c0,3.455,0.828,7.127,5.076,7.127
				c1.764,0,3.527-0.396,5.219-0.863V51.027z M604.933,39.906c0-2.305-0.181-6.516-3.419-6.516c-3.312,0-3.816,4.066-3.961,6.516
				H604.933z"/>
			<path style="fill:#FFFFFF;" d="M623.652,34.147c-1.368-0.469-2.809-0.756-4.283-0.756c-1.944,0-3.42,0.756-3.42,2.879
				c0,1.656,1.512,2.484,3.563,3.455c2.34,1.117,4.787,2.484,4.787,6.012c0,4.5-3.168,6.156-7.235,6.156
				c-1.764,0-3.527-0.289-5.255-0.684v-2.701c1.62,0.432,3.348,0.865,5.004,0.865c2.159,0,3.778-0.756,3.778-3.133
				c0-1.943-1.475-2.771-3.562-3.779c-2.269-1.115-4.787-2.34-4.787-5.832c0-3.887,3.203-5.758,6.73-5.758
				c1.584,0,3.167,0.18,4.68,0.646V34.147z"/>
			<path style="fill:#FFFFFF;" d="M638.916,34.147c-1.368-0.469-2.808-0.756-4.283-0.756c-1.943,0-3.42,0.756-3.42,2.879
				c0,1.656,1.512,2.484,3.564,3.455c2.34,1.117,4.787,2.484,4.787,6.012c0,4.5-3.168,6.156-7.235,6.156
				c-1.764,0-3.527-0.289-5.256-0.684v-2.701c1.62,0.432,3.349,0.865,5.004,0.865c2.159,0,3.779-0.756,3.779-3.133
				c0-1.943-1.476-2.771-3.563-3.779c-2.268-1.115-4.787-2.34-4.787-5.832c0-3.887,3.203-5.758,6.73-5.758
				c1.584,0,3.168,0.18,4.68,0.646V34.147z"/>
			<path style="fill:#FFFFFF;" d="M656.845,51.604h-3.743V33.678h-2.34v-2.52h6.083V51.604z M654.973,28.242
				c-1.188,0-2.124-0.936-2.124-2.123s0.937-2.123,2.124-2.123c1.152,0,2.124,0.971,2.124,2.123
				C657.097,27.307,656.16,28.242,654.973,28.242z"/>
			<path style="fill:#FFFFFF;" d="M665.377,34.182c1.295-2.23,3.383-3.311,5.938-3.311c4.284,0,6.228,2.34,6.228,6.516v14.217H673.8
				V37.998c0-2.52-0.647-4.607-3.239-4.607c-3.168,0-4.284,2.879-4.284,5.578v12.635h-3.743V31.158h2.088L665.377,34.182z"/>
			<path style="fill:#FFFFFF;" d="M694.931,49.084c-1.26,2.125-3.132,2.809-5.544,2.809c-6.19,0-7.307-5.543-7.307-10.619
				c0-4.751,1.836-10.402,7.523-10.402c1.691,0,3.312,0.432,4.428,1.764v-8.855h3.743v27.824h-2.052L694.931,49.084z M690.18,33.391
				c-3.889,0-4.212,4.932-4.212,7.811c0,2.699,0.288,8.172,4.067,8.172c4.392,0,4.104-5.041,4.104-8.207
				C694.139,38.322,694.139,33.391,690.18,33.391z"/>
			<path style="fill:#FFFFFF;" d="M707.531,51.604h-3.743V33.678h-2.34v-2.52h6.083V51.604z M705.66,28.242
				c-1.188,0-2.124-0.936-2.124-2.123s0.937-2.123,2.124-2.123c1.152,0,2.123,0.971,2.123,2.123
				C707.783,27.307,706.848,28.242,705.66,28.242z"/>
			<path style="fill:#FFFFFF;" d="M724.918,51.352c-1.403,0.396-2.663,0.541-4.139,0.541c-6.551,0-8.423-5.076-8.423-10.764
				c0-5.867,2.556-10.258,8.962-10.258c1.225,0,2.269,0.143,3.456,0.432v2.555c-1.151-0.359-2.124-0.432-3.312-0.432
				c-4.283,0-5.219,4.355-5.219,7.775c0,3.455,0.791,8.135,5.219,8.135c1.225,0,2.268-0.035,3.455-0.396V51.352z"/>
			<path style="fill:#FFFFFF;" d="M738.994,48.652c-1.295,2.232-3.348,3.24-5.902,3.24c-3.744,0-5.904-2.232-5.904-5.977
				c0-6.334,6.119-6.514,10.871-6.514v-1.908c0-1.873-0.396-2.629-0.863-3.096c-0.648-0.648-1.656-0.973-2.952-0.973
				c-1.836,0-3.636,0.432-5.363,0.936v-2.627c1.979-0.539,4.031-0.863,6.048-0.863c2.303,0,4.104,0.576,5.291,1.799
				c1.008,1.045,1.584,2.34,1.584,4.717v14.217h-2.053L738.994,48.652z M736.331,41.633c-1.62,0-2.844,0.217-3.708,0.756
				c-1.043,0.648-1.691,1.764-1.691,3.492c0,2.088,0.936,3.492,3.06,3.492c2.771,0,4.067-2.016,4.067-4.607v-3.133H736.331z"/>
			<path style="fill:#FFFFFF;" d="M756.85,51.244c-1.439,0.396-2.951,0.648-4.427,0.648c-3.239,0-4.607-1.477-4.607-4.68V33.678
				h-2.483v-2.52h2.52l1.476-4.895h2.231v4.895h4.968v2.52h-4.968v12.887c0,1.656,0.288,2.736,2.195,2.736
				c1.045,0,2.088-0.252,3.096-0.504V51.244z"/>
			<path style="fill:#FFFFFF;" d="M767.146,51.893c-6.551,0-8.243-5.256-8.243-10.836c0-5.398,2.269-10.186,8.243-10.186
				c6.012,0,8.243,4.68,8.243,10.258C775.39,47.357,773.158,51.893,767.146,51.893z M767.146,33.391
				c-3.852,0-4.355,4.787-4.355,7.559c0,2.844,0.396,8.424,4.355,8.424c3.996,0,4.355-4.896,4.355-8.424
				C771.502,38.322,770.746,33.391,767.146,33.391z"/>
			<path style="fill:#FFFFFF;" d="M782.951,34.578c1.26-2.592,3.168-3.6,5.939-3.6c0.252,0,0.539,0,0.828,0.035v3.42
				c-0.469-0.035-0.9-0.035-1.332-0.035c-3.168,0-4.645,1.439-4.645,4.752v12.453H780V31.158h2.087L782.951,34.578z"/>
			<path style="fill:#FFFFFF;" d="M803.578,34.147c-1.368-0.469-2.809-0.756-4.283-0.756c-1.944,0-3.42,0.756-3.42,2.879
				c0,1.656,1.512,2.484,3.563,3.455c2.34,1.117,4.787,2.484,4.787,6.012c0,4.5-3.167,6.156-7.235,6.156
				c-1.764,0-3.527-0.289-5.255-0.684v-2.701c1.62,0.432,3.348,0.865,5.003,0.865c2.16,0,3.779-0.756,3.779-3.133
				c0-1.943-1.475-2.771-3.562-3.779c-2.268-1.115-4.787-2.34-4.787-5.832c0-3.887,3.203-5.758,6.73-5.758
				c1.584,0,3.168,0.18,4.68,0.646V34.147z"/>
			<path style="fill:#FFFFFF;" d="M830.398,51.604h-3.744V33.678h-2.34v-2.52h6.084V51.604z M828.526,28.242
				c-1.188,0-2.124-0.936-2.124-2.123s0.936-2.123,2.124-2.123c1.151,0,2.124,0.971,2.124,2.123
				C830.65,27.307,829.715,28.242,828.526,28.242z"/>
			<path style="fill:#FFFFFF;" d="M838.93,34.182c1.296-2.23,3.384-3.311,5.939-3.311c4.283,0,6.227,2.34,6.227,6.516v14.217h-3.742
				V37.998c0-2.52-0.648-4.607-3.24-4.607c-3.168,0-4.283,2.879-4.283,5.578v12.635h-3.744V31.158h2.088L838.93,34.182z"/>
			<path style="fill:#FFFFFF;" d="M870.536,31.158l-6.155,20.445h-4.248l-5.902-20.445h3.815l4.464,16.955l4.643-16.955H870.536z"/>
			<path style="fill:#FFFFFF;" d="M887.096,51.027c-1.836,0.576-3.779,0.865-5.723,0.865c-6.624,0-8.531-4.607-8.531-10.547
				c0-5.111,2.016-10.475,7.918-10.475c6.66,0,7.092,6.192,7.092,11.338h-11.051c0,3.455,0.828,7.127,5.076,7.127
				c1.764,0,3.527-0.396,5.219-0.863V51.027z M884.18,39.906c0-2.305-0.18-6.516-3.42-6.516c-3.311,0-3.814,4.066-3.959,6.516
				H884.18z"/>
			<path style="fill:#FFFFFF;" d="M895.342,34.578c1.26-2.592,3.167-3.6,5.938-3.6c0.252,0,0.54,0,0.828,0.035v3.42
				c-0.468-0.035-0.899-0.035-1.332-0.035c-3.167,0-4.644,1.439-4.644,4.752v12.453h-3.743V31.158h2.087L895.342,34.578z"/>
			<path style="fill:#FFFFFF;" d="M915.248,51.244c-1.439,0.396-2.952,0.648-4.428,0.648c-3.24,0-4.607-1.477-4.607-4.68V33.678
				h-2.484v-2.52h2.521l1.476-4.895h2.232v4.895h4.967v2.52h-4.967v12.887c0,1.656,0.287,2.736,2.195,2.736
				c1.043,0,2.088-0.252,3.096-0.504V51.244z"/>
			<path style="fill:#FFFFFF;" d="M931.555,51.027c-1.836,0.576-3.779,0.865-5.723,0.865c-6.623,0-8.531-4.607-8.531-10.547
				c0-5.111,2.016-10.475,7.92-10.475c6.658,0,7.09,6.192,7.09,11.338H921.26c0,3.455,0.828,7.127,5.076,7.127
				c1.764,0,3.527-0.396,5.219-0.863V51.027z M928.64,39.906c0-2.305-0.181-6.516-3.419-6.516c-3.312,0-3.816,4.066-3.961,6.516
				H928.64z"/>
			<path style="fill:#FFFFFF;" d="M948.836,49.084c-1.26,2.125-3.133,2.809-5.544,2.809c-6.19,0-7.308-5.543-7.308-10.619
				c0-4.751,1.836-10.402,7.523-10.402c1.691,0,3.312,0.432,4.428,1.764v-8.855h3.744v27.824h-2.053L948.836,49.084z
				 M944.084,33.391c-3.888,0-4.211,4.932-4.211,7.811c0,2.699,0.287,8.172,4.066,8.172c4.393,0,4.104-5.041,4.104-8.207
				C948.043,38.322,948.043,33.391,944.084,33.391z"/>
		</g>
	</g>
	<g id="meegotouch-slider-received-inverted-background-vertical">
		<g>
			<path style="fill:#1080DD;" d="M784.5,414.5c-2.2,0-4-1.8-4-4v-56c0-2.2,1.8-4,4-4h2c2.2,0,4,1.8,4,4v56c0,2.2-1.8,4-4,4H784.5z"
				/>
		</g>
		<g style="opacity:0.5;">
			<path d="M784.5,414.5c-2.2,0-4-1.8-4-4v-56c0-2.2,1.8-4,4-4h2c2.2,0,4,1.8,4,4v56c0,2.2-1.8,4-4,4H784.5z"/>
		</g>
	</g>
	<g id="meegotouch-slider-elapsed-inverted-background-vertical">
		<g>
			<path style="fill:#1080DD;" d="M764.5,414.5c-2.2,0-4-1.8-4-4v-56c0-2.2,1.8-4,4-4h2c2.2,0,4,1.8,4,4v56c0,2.2-1.8,4-4,4H764.5z"
				/>
		</g>
	</g>
	<g id="meegotouch-slider-inverted-background-vertical">
		<g>
			<path style="fill:#4D4D4D;" d="M744.5,414.5c-2.2,0-4-1.8-4-4v-56c0-2.2,1.8-4,4-4h2c2.2,0,4,1.8,4,4v56c0,2.2-1.8,4-4,4H744.5z"
				/>
		</g>
	</g>
	<g id="meegotouch-slider-handle-inverted-background-pressed-vertical">
		<rect id="_x3C_Path_x3E__4_" x="670.5" y="350.5" style="fill-opacity:0;" width="64" height="64"/>
		<g>
			<path d="M688.5,406c-5.238,0-9.5-4.262-9.5-9.5v-28c0-5.238,4.262-9.5,9.5-9.5h28c5.238,0,9.5,4.262,9.5,9.5v28
				c0,5.238-4.262,9.5-9.5,9.5H688.5z"/>
			<path style="fill:#666666;" d="M716.5,359.5c4.963,0,9,4.037,9,9v28c0,4.963-4.037,9-9,9h-28c-4.963,0-9-4.037-9-9v-28
				c0-4.963,4.037-9,9-9H716.5 M716.5,358.5h-28c-5.5,0-10,4.5-10,10v28c0,5.5,4.5,10,10,10h28c5.5,0,10-4.5,10-10v-28
				C726.5,363,722,358.5,716.5,358.5L716.5,358.5z"/>
		</g>
	</g>
	<g id="meegotouch-slider-handle-inverted-background-vertical">
		<rect id="_x3C_Path_x3E__5_" x="590.5" y="350.5" style="fill-opacity:0;" width="64" height="64"/>
		<g>
			<path style="fill:#333333;" d="M608.5,406c-5.238,0-9.5-4.262-9.5-9.5v-28c0-5.238,4.262-9.5,9.5-9.5h28
				c5.238,0,9.5,4.262,9.5,9.5v28c0,5.238-4.262,9.5-9.5,9.5H608.5z"/>
			<path style="fill:#666666;" d="M636.5,359.5c4.963,0,9,4.037,9,9v28c0,4.963-4.037,9-9,9h-28c-4.963,0-9-4.037-9-9v-28
				c0-4.963,4.037-9,9-9H636.5 M636.5,358.5h-28c-5.5,0-10,4.5-10,10v28c0,5.5,4.5,10,10,10h28c5.5,0,10-4.5,10-10v-28
				C646.5,363,642,358.5,636.5,358.5L636.5,358.5z"/>
		</g>
	</g>
	<g id="meegotouch-slider-received-inverted-background-horizontal">
		<g>
			<path style="fill:#1080DD;" d="M654.5,327.5c0,2.2-1.8,4-4,4h-56c-2.2,0-4-1.8-4-4v-2c0-2.2,1.8-4,4-4h56c2.2,0,4,1.8,4,4V327.5z
				"/>
		</g>
		<g style="opacity:0.5;">
			<path d="M654.5,327.5c0,2.2-1.8,4-4,4h-56c-2.2,0-4-1.8-4-4v-2c0-2.2,1.8-4,4-4h56c2.2,0,4,1.8,4,4V327.5z"/>
		</g>
	</g>
	<g id="meegotouch-slider-elapsed-inverted-background-horizontal">
		<g>
			<path style="fill:#1080DD;" d="M654.5,307.5c0,2.2-1.8,4-4,4h-56c-2.2,0-4-1.8-4-4v-2c0-2.2,1.8-4,4-4h56c2.2,0,4,1.8,4,4V307.5z
				"/>
		</g>
	</g>
	<g id="meegotouch-slider-inverted-background-horizontal">
		<g>
			<path style="fill:#4D4D4D;" d="M654.5,287.5c0,2.2-1.8,4-4,4h-56c-2.2,0-4-1.8-4-4v-2c0-2.2,1.8-4,4-4h56c2.2,0,4,1.8,4,4V287.5z
				"/>
		</g>
	</g>
	<g id="meegotouch-slider-handle-label-arrow-down-inverted">
		<polygon style="fill:#FFFFFF;" points="770.5,253.5 774.5,249.5 766.5,249.5 		"/>
	</g>
	<g id="meegotouch-slider-handle-label-arrow-up-inverted">
		<polygon style="fill:#FFFFFF;" points="770.5,211.5 766.5,215.5 774.5,215.5 		"/>
	</g>
	<g id="meegotouch-slider-handle-label-arrow-right-inverted">
		<polygon style="fill:#FFFFFF;" points="795.5,232.5 791.5,228.5 791.5,236.5 		"/>
	</g>
	<g id="meegotouch-slider-handle-label-arrow-left-inverted">
		<polygon style="fill:#FFFFFF;" points="745.5,232.5 749.5,236.5 749.5,228.5 		"/>
	</g>
	<g id="meegotouch-slider-handle-value-inverted-background">
		<g>
			<path style="fill:#FFFFFF;" d="M790.5,238.5c0,5.5-4.5,10-10,10h-20c-5.5,0-10-4.5-10-10v-12c0-5.5,4.5-10,10-10h20
				c5.5,0,10,4.5,10,10V238.5z"/>
		</g>
	</g>
	<g id="meegotouch-slider-handle-inverted-background-pressed-horizontal">
		<rect id="_x3C_Path_x3E__6_" x="670.5" y="200.5" style="fill-opacity:0;" width="64" height="64"/>
		<g>
			<path d="M688.5,256c-5.238,0-9.5-4.262-9.5-9.5v-28c0-5.238,4.262-9.5,9.5-9.5h28c5.238,0,9.5,4.262,9.5,9.5v28
				c0,5.238-4.262,9.5-9.5,9.5H688.5z"/>
			<path style="fill:#666666;" d="M716.5,209.5c4.963,0,9,4.038,9,9v28c0,4.963-4.037,9-9,9h-28c-4.963,0-9-4.037-9-9v-28
				c0-4.962,4.037-9,9-9H716.5 M716.5,208.5h-28c-5.5,0-10,4.5-10,10v28c0,5.5,4.5,10,10,10h28c5.5,0,10-4.5,10-10v-28
				C726.5,213,722,208.5,716.5,208.5L716.5,208.5z"/>
		</g>
	</g>
	<g id="meegotouch-slider-handle-inverted-background-horizontal">
		<rect id="_x3C_Path_x3E__7_" x="590.5" y="200.5" style="fill-opacity:0;" width="64" height="64"/>
		<g>
			<path style="fill:#333333;" d="M608.5,256c-5.238,0-9.5-4.262-9.5-9.5v-28c0-5.238,4.262-9.5,9.5-9.5h28
				c5.238,0,9.5,4.262,9.5,9.5v28c0,5.238-4.262,9.5-9.5,9.5H608.5z"/>
			<path style="fill:#666666;" d="M636.5,209.5c4.963,0,9,4.038,9,9v28c0,4.963-4.037,9-9,9h-28c-4.963,0-9-4.037-9-9v-28
				c0-4.962,4.037-9,9-9H636.5 M636.5,208.5h-28c-5.5,0-10,4.5-10,10v28c0,5.5,4.5,10,10,10h28c5.5,0,10-4.5,10-10v-28
				C646.5,213,642,208.5,636.5,208.5L636.5,208.5z"/>
		</g>
	</g>
	<g id="meegotouch-progressindicator-inverted-spinner-large-on">
		<circle id="circle69_1_" style="fill:#191819;" cx="718.5" cy="148.5" r="8"/>
		<circle id="circle71_3_" style="fill:#1080DD;" cx="718.5" cy="148.5" r="7"/>
	</g>
	<g id="meegotouch-progressindicator-inverted-spinner-large-off">
		<circle id="circle74_1_" style="fill:#191819;" cx="698.5" cy="148.5" r="8"/>
		<circle id="circle76_1_" cx="698.5" cy="148.5" r="7"/>
	</g>
	<g id="meegotouch-progressindicator-inverted-spinner-medium-on">
		<circle id="circle79_1_" style="fill:#191819;" cx="718.5" cy="125.5" r="5"/>
		<circle id="circle81_3_" style="fill:#1080DD;" cx="718.5" cy="125.5" r="4"/>
	</g>
	<g id="meegotouch-progressindicator-inverted-spinner-medium-off">
		<circle id="circle84_1_" style="fill:#191819;" cx="698.5" cy="125.5" r="5"/>
		<circle id="circle86_1_" cx="698.5" cy="125.5" r="4"/>
	</g>
	<g id="meegotouch-progressindicator-inverted-spinner-small-on">
		<circle id="circle89_1_" style="fill:#191819;" cx="718.5" cy="102.5" r="4"/>
		<circle id="circle91_3_" style="fill:#1080DD;" cx="718.5" cy="102.5" r="3"/>
	</g>
	<g id="meegotouch-progressindicator-inverted-spinner-small-off">
		<circle id="circle94_1_" style="fill:#191819;" cx="698.5" cy="102.5" r="4"/>
		<circle id="circle96_1_" cx="698.5" cy="102.5" r="3"/>
	</g>
	<g id="meegotouch-progressindicator-inverted-bar-mask">
		<g>
			<path style="fill:#FFFFFF;" d="M654.5,166.5c0,2.2-1.8,4-4,4h-56c-2.2,0-4-1.8-4-4v-2c0-2.2,1.8-4,4-4h56c2.2,0,4,1.8,4,4V166.5z
				"/>
		</g>
	</g>
	<g id="meegotouch-progressindicator-inverted-bar-background">
		<g>
			<path style="fill:#4D4D4D;" d="M654.5,144.5c0,2.2-1.8,4-4,4h-56c-2.2,0-4-1.8-4-4v-2c0-2.2,1.8-4,4-4h56c2.2,0,4,1.8,4,4V144.5z
				"/>
		</g>
	</g>
	<g id="meegotouch-progressindicator-inverted-bar-known-texture">
		<rect x="590.5" y="120.5" style="fill:#1080DD;" width="8" height="8"/>
	</g>
	<g id="meegotouch-progressindicator-inverted-bar-unknown-texture">
		<rect x="590.5" y="100.5" style="fill:#1080DD;" width="8" height="8"/>
		<polygon style="opacity:0.5;fill:#FFFFFF;" points="591.914,100.5 590.5,100.5 590.5,101.914 		"/>
		<polygon style="opacity:0.5;fill:#FFFFFF;" points="598.5,100.5 597.086,100.5 590.5,107.086 590.5,108.5 591.915,108.5 
			598.5,101.916 		"/>
		<polygon style="opacity:0.5;fill:#FFFFFF;" points="598.5,108.5 598.5,107.086 597.085,108.5 		"/>
	</g>
	<g id="meegotouch-slider-received-background-vertical">
		<g>
			<path style="fill:#1080DD;" d="M290.5,354.5c0-2.2,1.8-4,4-4h2c2.2,0,4,1.8,4,4v56c0,2.2-1.8,4-4,4h-2c-2.2,0-4-1.8-4-4V354.5z"
				/>
		</g>
		<g style="opacity:0.5;">
			<path style="fill:#FFFFFF;" d="M290.5,354.5c0-2.2,1.8-4,4-4h2c2.2,0,4,1.8,4,4v56c0,2.2-1.8,4-4,4h-2c-2.2,0-4-1.8-4-4V354.5z"
				/>
		</g>
	</g>
	<g id="meegotouch-slider-elapsed-background-vertical">
		<g>
			<path style="fill:#1080DD;" d="M270.5,354.5c0-2.2,1.8-4,4-4h2c2.2,0,4,1.8,4,4v56c0,2.2-1.8,4-4,4h-2c-2.2,0-4-1.8-4-4V354.5z"
				/>
		</g>
	</g>
	<g id="meegotouch-slider-background-vertical">
		<g>
			<path style="fill:#CCCCCC;" d="M260.5,354.5c0-2.2-1.8-4-4-4h-2c-2.2,0-4,1.8-4,4v56c0,2.2,1.8,4,4,4h2c2.2,0,4-1.8,4-4V354.5z"
				/>
		</g>
	</g>
	<g id="meegotouch-slider-handle-background-pressed-vertical">
		<rect id="_x3C_Path_x3E__2_" x="180.5" y="350.5" style="fill-opacity:0;" width="64" height="64"/>
		<g id="_x3C_Path_x3E__32_">
			<path style="fill:#808080;" d="M198.5,406c-5.238,0-9.5-4.262-9.5-9.5v-28c0-5.238,4.262-9.5,9.5-9.5h28
				c5.238,0,9.5,4.262,9.5,9.5v28c0,5.238-4.262,9.5-9.5,9.5H198.5z"/>
			<path style="fill:#666666;" d="M226.5,359.5c4.962,0,9,4.037,9,9v28c0,4.963-4.038,9-9,9h-28c-4.962,0-9-4.037-9-9v-28
				c0-4.963,4.038-9,9-9H226.5 M226.5,358.5h-28c-5.5,0-10,4.5-10,10v28c0,5.5,4.5,10,10,10h28c5.5,0,10-4.5,10-10v-28
				C236.5,363,232,358.5,226.5,358.5L226.5,358.5z"/>
		</g>
	</g>
	<g id="meegotouch-slider-handle-background-vertical">
		<rect id="_x3C_Path_x3E__3_" x="100.5" y="350.5" style="fill-opacity:0;" width="64" height="64"/>
		<g id="_x3C_Path_x3E__31_">
			<path style="fill:#F2F2F2;" d="M118.5,406c-5.238,0-9.5-4.262-9.5-9.5v-28c0-5.238,4.262-9.5,9.5-9.5h28
				c5.238,0,9.5,4.262,9.5,9.5v28c0,5.238-4.262,9.5-9.5,9.5H118.5z"/>
			<path style="fill:#666666;" d="M146.5,359.5c4.962,0,9,4.037,9,9v28c0,4.963-4.038,9-9,9h-28c-4.962,0-9-4.037-9-9v-28
				c0-4.963,4.038-9,9-9H146.5 M146.5,358.5h-28c-5.5,0-10,4.5-10,10v28c0,5.5,4.5,10,10,10h28c5.5,0,10-4.5,10-10v-28
				C156.5,363,152,358.5,146.5,358.5L146.5,358.5z"/>
		</g>
	</g>
	<g id="meegotouch-slider-received-background-horizontal">
		<g>
			<path style="fill:#1080DD;" d="M104.5,320.5c-2.2,0-4,1.8-4,4v2c0,2.2,1.8,4,4,4h56c2.2,0,4-1.8,4-4v-2c0-2.2-1.8-4-4-4H104.5z"
				/>
		</g>
		<g style="opacity:0.5;">
			<path style="fill:#FFFFFF;" d="M104.5,320.5c-2.2,0-4,1.8-4,4v2c0,2.2,1.8,4,4,4h56c2.2,0,4-1.8,4-4v-2c0-2.2-1.8-4-4-4H104.5z"
				/>
		</g>
	</g>
	<g id="meegotouch-slider-elapsed-background-horizontal">
		<g>
			<path style="fill:#1080DD;" d="M104.5,300.5c-2.2,0-4,1.8-4,4v2c0,2.2,1.8,4,4,4h56c2.2,0,4-1.8,4-4v-2c0-2.2-1.8-4-4-4H104.5z"
				/>
		</g>
	</g>
	<g id="meegotouch-slider-background-horizontal">
		<g>
			<path style="fill:#CCCCCC;" d="M104.5,280.5c-2.2,0-4,1.8-4,4v2c0,2.2,1.8,4,4,4h56c2.2,0,4-1.8,4-4v-2c0-2.2-1.8-4-4-4H104.5z"
				/>
		</g>
	</g>
	<g id="meegotouch-slider-handle-label-arrow-down">
		<polygon style="fill:#191919;" points="280.5,253.5 284.5,249.5 276.5,249.5 		"/>
	</g>
	<g id="meegotouch-slider-handle-label-arrow-up">
		<polygon style="fill:#191919;" points="280.5,211.5 276.5,215.5 284.5,215.5 		"/>
	</g>
	<g id="meegotouch-slider-handle-label-arrow-right">
		<polygon style="fill:#191919;" points="305.5,232.5 301.5,228.5 301.5,236.5 		"/>
	</g>
	<g id="meegotouch-slider-handle-label-arrow-left">
		<polygon style="fill:#191919;" points="255.5,232.5 259.5,236.5 259.5,228.5 		"/>
	</g>
	<g id="meegotouch-slider-handle-value-background">
		<g id="_x3C_Path_x3E__30_">
			<path d="M260.5,226.5c0-5.5,4.5-10,10-10h20c5.5,0,10,4.5,10,10v12c0,5.5-4.5,10-10,10h-20c-5.5,0-10-4.5-10-10V226.5z"/>
		</g>
	</g>
	<g id="meegotouch-slider-handle-background-pressed-horizontal">
		<rect id="_x3C_Path_x3E_" x="180.5" y="200.5" style="fill-opacity:0;" width="64" height="64"/>
		<g id="_x3C_Path_x3E__29_">
			<path style="fill:#808080;" d="M198.5,256c-5.238,0-9.5-4.262-9.5-9.5v-28c0-5.238,4.262-9.5,9.5-9.5h28
				c5.238,0,9.5,4.262,9.5,9.5v28c0,5.238-4.262,9.5-9.5,9.5H198.5z"/>
			<path style="fill:#666666;" d="M226.5,209.5c4.962,0,9,4.038,9,9v28c0,4.963-4.038,9-9,9h-28c-4.962,0-9-4.037-9-9v-28
				c0-4.962,4.038-9,9-9H226.5 M226.5,208.5h-28c-5.5,0-10,4.5-10,10v28c0,5.5,4.5,10,10,10h28c5.5,0,10-4.5,10-10v-28
				C236.5,213,232,208.5,226.5,208.5L226.5,208.5z"/>
		</g>
	</g>
	<g id="meegotouch-slider-handle-background-horizontal">
		<rect id="_x3C_Path_x3E__1_" x="100.5" y="200.5" style="fill-opacity:0;" width="64" height="64"/>
		<g id="_x3C_Path_x3E__28_">
			<path style="fill:#F2F2F2;" d="M118.5,256c-5.238,0-9.5-4.262-9.5-9.5v-28c0-5.238,4.262-9.5,9.5-9.5h28
				c5.238,0,9.5,4.262,9.5,9.5v28c0,5.238-4.262,9.5-9.5,9.5H118.5z"/>
			<path style="fill:#666666;" d="M146.5,209.5c4.962,0,9,4.038,9,9v28c0,4.963-4.038,9-9,9h-28c-4.962,0-9-4.037-9-9v-28
				c0-4.962,4.038-9,9-9H146.5 M146.5,208.5h-28c-5.5,0-10,4.5-10,10v28c0,5.5,4.5,10,10,10h28c5.5,0,10-4.5,10-10v-28
				C156.5,213,152,208.5,146.5,208.5L146.5,208.5z"/>
		</g>
	</g>
	<g id="meegotouch-progressindicator-spinner-large-on">
		<radialGradient id="circle69_2_" cx="228.5" cy="148.5" r="8" gradientUnits="userSpaceOnUse">
			<stop  offset="0" style="stop-color:#000000"/>
			<stop  offset="1" style="stop-color:#000000;stop-opacity:0.4"/>
		</radialGradient>
		<circle id="circle69" style="opacity:0.15;fill:url(#circle69_2_);" cx="228.5" cy="148.5" r="8"/>
		<circle id="circle71" style="fill:#1080DD;" cx="228.5" cy="148.5" r="7"/>
	</g>
	<g id="meegotouch-progressindicator-spinner-large-off">
		<radialGradient id="circle74_2_" cx="208.5" cy="148.5" r="8" gradientUnits="userSpaceOnUse">
			<stop  offset="0" style="stop-color:#000000"/>
			<stop  offset="1" style="stop-color:#000000;stop-opacity:0.4"/>
		</radialGradient>
		<circle id="circle74" style="opacity:0.15;fill:url(#circle74_2_);" cx="208.5" cy="148.5" r="8"/>
		<linearGradient id="circle76_2_" gradientUnits="userSpaceOnUse" x1="208.5" y1="155.5" x2="208.5" y2="141.5">
			<stop  offset="0" style="stop-color:#F5F5F5"/>
			<stop  offset="1" style="stop-color:#FFFFFF"/>
		</linearGradient>
		<circle id="circle76" style="fill:url(#circle76_2_);" cx="208.5" cy="148.5" r="7"/>
	</g>
	<g id="meegotouch-progressindicator-spinner-medium-on">
		<radialGradient id="circle79_2_" cx="228.5" cy="125.5" r="5" gradientUnits="userSpaceOnUse">
			<stop  offset="0" style="stop-color:#000000"/>
			<stop  offset="1" style="stop-color:#000000;stop-opacity:0.4"/>
		</radialGradient>
		<circle id="circle79" style="opacity:0.15;fill:url(#circle79_2_);" cx="228.5" cy="125.5" r="5"/>
		<circle id="circle81" style="fill:#1080DD;" cx="228.5" cy="125.5" r="4"/>
	</g>
	<g id="meegotouch-progressindicator-spinner-medium-off">
		<radialGradient id="circle84_2_" cx="208.5" cy="125.5" r="5" gradientUnits="userSpaceOnUse">
			<stop  offset="0" style="stop-color:#000000"/>
			<stop  offset="1" style="stop-color:#000000;stop-opacity:0.4"/>
		</radialGradient>
		<circle id="circle84" style="opacity:0.15;fill:url(#circle84_2_);" cx="208.5" cy="125.5" r="5"/>
		<linearGradient id="circle86_2_" gradientUnits="userSpaceOnUse" x1="208.5" y1="129.5" x2="208.5" y2="121.5">
			<stop  offset="0" style="stop-color:#F5F5F5"/>
			<stop  offset="1" style="stop-color:#FFFFFF"/>
		</linearGradient>
		<circle id="circle86" style="fill:url(#circle86_2_);" cx="208.5" cy="125.5" r="4"/>
	</g>
	<g id="meegotouch-progressindicator-spinner-small-on">
		<radialGradient id="circle89_2_" cx="228.5" cy="102.5" r="4" gradientUnits="userSpaceOnUse">
			<stop  offset="0" style="stop-color:#000000"/>
			<stop  offset="1" style="stop-color:#000000;stop-opacity:0.4"/>
		</radialGradient>
		<circle id="circle89" style="opacity:0.15;fill:url(#circle89_2_);" cx="228.5" cy="102.5" r="4"/>
		<circle id="circle91" style="fill:#1080DD;" cx="228.5" cy="102.5" r="3"/>
	</g>
	<g id="meegotouch-progressindicator-spinner-small-off">
		<radialGradient id="circle94_2_" cx="208.5" cy="102.5" r="4" gradientUnits="userSpaceOnUse">
			<stop  offset="0" style="stop-color:#000000"/>
			<stop  offset="1" style="stop-color:#000000;stop-opacity:0.4"/>
		</radialGradient>
		<circle id="circle94" style="opacity:0.15;fill:url(#circle94_2_);" cx="208.5" cy="102.5" r="4"/>
		<linearGradient id="circle96_2_" gradientUnits="userSpaceOnUse" x1="208.5" y1="105.5" x2="208.5" y2="99.5">
			<stop  offset="0" style="stop-color:#F5F5F5"/>
			<stop  offset="1" style="stop-color:#FFFFFF"/>
		</linearGradient>
		<circle id="circle96" style="fill:url(#circle96_2_);" cx="208.5" cy="102.5" r="3"/>
	</g>
	<g id="meegotouch-progressindicator-bar-mask">
		<g>
			<path style="fill:#FFFFFF;" d="M164.5,166.5c0,2.2-1.8,4-4,4h-56c-2.2,0-4-1.8-4-4v-2c0-2.2,1.8-4,4-4h56c2.2,0,4,1.8,4,4V166.5z
				"/>
		</g>
	</g>
	<g id="meegotouch-progressindicator-bar-background">
		<g>
			<path style="fill:#CCCCCC;" d="M104.5,138.5c-2.2,0-4,1.8-4,4v2c0,2.2,1.8,4,4,4h56c2.2,0,4-1.8,4-4v-2c0-2.2-1.8-4-4-4H104.5z"
				/>
		</g>
	</g>
	<g id="meegotouch-progressindicator-bar-known-texture">
		<rect x="100.5" y="120.5" style="fill:#1080DD;" width="8" height="8"/>
	</g>
	<g id="meegotouch-progressindicator-bar-unknown-texture">
		<rect x="100.5" y="100.5" style="fill:#1080DD;" width="8" height="8"/>
		<polygon style="opacity:0.5;fill:#FFFFFF;" points="101.914,100.5 100.5,100.5 100.5,101.914 		"/>
		<polygon style="opacity:0.5;fill:#FFFFFF;" points="108.5,100.5 107.086,100.5 100.5,107.086 100.5,108.5 101.915,108.5 
			108.5,101.916 		"/>
		<polygon style="opacity:0.5;fill:#FFFFFF;" points="108.5,108.5 108.5,107.086 107.085,108.5 		"/>
	</g>
	<g id="meegotouch-seeker-handle-inverted-background-vertical">
		<rect x="813.5" y="324.5" style="opacity:0;fill:#FFFFFF;" width="64" height="64"/>
		<path style="fill:#FFFFFF;" d="M847.5,356.5c0,1.482-0.52,2-2,2s-2-0.518-2-2c0-1.48,0.52-2,2-2S847.5,355.02,847.5,356.5z"/>
	</g>
	<g id="meegotouch-seeker-handle-inverted-background-horizontal">
		<rect x="813.5" y="199.5" style="opacity:0;fill:#FFFFFF;" width="64" height="64"/>
		<path style="fill:#FFFFFF;" d="M847.5,231.5c0,1.482-0.52,2-2,2s-2-0.518-2-2c0-1.48,0.52-2,2-2S847.5,230.02,847.5,231.5z"/>
	</g>
	<g id="meegotouch-seeker-handle-background-vertical">
		<rect x="323.5" y="324.5" style="opacity:0;fill:#FFFFFF;" width="64" height="64"/>
		<path style="fill:#FFFFFF;" d="M357.5,356.5c0,1.482-0.52,2-2,2s-2-0.518-2-2c0-1.48,0.52-2,2-2S357.5,355.02,357.5,356.5z"/>
	</g>
	<g id="meegotouch-seeker-handle-background-horizontal">
		<rect x="323.5" y="199.5" style="opacity:0;fill:#FFFFFF;" width="64" height="64"/>
		<path style="fill:#FFFFFF;" d="M357.5,231.5c0,1.482-0.52,2-2,2s-2-0.518-2-2c0-1.48,0.52-2,2-2S357.5,230.02,357.5,231.5z"/>
	</g>
</g>
</svg>
