<?xml version="1.0" encoding="iso-8859-1"?>
<!-- Generator: Adobe Illustrator 14.0.0, SVG Export Plug-In . SVG Version: 6.00 Build 43363)  -->
<!DOCTYPE svg PUBLIC "-//W3C//DTD SVG 1.1//EN" "http://www.w3.org/Graphics/SVG/1.1/DTD/svg11.dtd">
<svg version="1.1" id="meegotouch-statusmenu-layer"
	 xmlns="http://www.w3.org/2000/svg" xmlns:xlink="http://www.w3.org/1999/xlink" x="0px" y="0px" width="234px" height="150px"
	 viewBox="0 0 234 150" style="enable-background:new 0 0 234 150;" xml:space="preserve">
<g id="meegotouch-statusmenu">
	<g id="MeegoTouchStatusThemeTemplateHelper">
		<g>
			<path style="fill:#B5B6B6;" d="M17,149c-8.271,0-15-6.729-15-15V16C2,7.729,8.729,1,17,1h201.5c8.271,0,15,6.729,15,15v118
				c0,8.271-6.729,15-15,15H17z"/>
			<g>
				<path style="fill:#030303;" d="M218.5,2c7.721,0,14,6.28,14,14v118c0,7.721-6.279,14-14,14H17c-7.721,0-14-6.279-14-14V16
					C3,8.28,9.279,2,17,2H218.5 M218.5,0H17C8.2,0,1,7.2,1,16v118c0,8.8,7.2,16,16,16h201.5c8.8,0,16-7.2,16-16V16
					C234.5,7.2,227.3,0,218.5,0L218.5,0z"/>
			</g>
		</g>
		<g>
			<path style="fill:#020202;" d="M65.123,26.867c0.936,0.601,2.28,1.057,3.72,1.057c2.136,0,3.384-1.128,3.384-2.76
				c0-1.488-0.864-2.377-3.048-3.191c-2.641-0.961-4.272-2.354-4.272-4.608c0-2.521,2.088-4.394,5.232-4.394
				c1.632,0,2.856,0.385,3.552,0.793l-0.576,1.703c-0.504-0.312-1.584-0.768-3.048-0.768c-2.208,0-3.048,1.32-3.048,2.424
				c0,1.512,0.984,2.256,3.216,3.12c2.736,1.056,4.104,2.376,4.104,4.753c0,2.496-1.824,4.68-5.641,4.68
				c-1.56,0-3.264-0.479-4.128-1.056L65.123,26.867z"/>
			<path style="fill:#020202;" d="M79.619,15.011v2.784h3.024v1.607h-3.024v6.266c0,1.439,0.408,2.256,1.584,2.256
				c0.576,0,0.912-0.048,1.224-0.145l0.096,1.609c-0.408,0.144-1.056,0.286-1.872,0.286c-0.984,0-1.776-0.336-2.28-0.888
				c-0.576-0.646-0.816-1.682-0.816-3.048v-6.337h-1.8v-1.608h1.8v-2.16L79.619,15.011z"/>
			<path style="fill:#020202;" d="M93.18,26.628c0,1.008,0.048,1.992,0.168,2.784h-1.896l-0.168-1.465h-0.072
				c-0.648,0.912-1.896,1.729-3.552,1.729c-2.353,0-3.553-1.656-3.553-3.336c0-2.809,2.497-4.344,6.985-4.32V21.78
				c0-0.937-0.264-2.688-2.64-2.664c-1.104,0-2.232,0.312-3.048,0.864l-0.48-1.418c0.96-0.6,2.376-1.008,3.84-1.008
				c3.552,0,4.417,2.426,4.417,4.729L93.18,26.628L93.18,26.628z M91.139,23.482c-2.304-0.047-4.92,0.36-4.92,2.617
				c0,1.393,0.912,2.017,1.968,2.017c1.536,0,2.52-0.96,2.856-1.944c0.072-0.24,0.096-0.48,0.096-0.672V23.482z"/>
			<path style="fill:#020202;" d="M99.035,15.011v2.784h3.024v1.607h-3.024v6.266c0,1.439,0.408,2.256,1.584,2.256
				c0.576,0,0.912-0.048,1.224-0.145l0.097,1.609c-0.408,0.144-1.057,0.286-1.873,0.286c-0.984,0-1.776-0.336-2.28-0.888
				c-0.576-0.646-0.816-1.682-0.816-3.048v-6.337h-1.8v-1.608h1.8v-2.16L99.035,15.011z"/>
			<path style="fill:#020202;" d="M114.155,26.22c0,1.224,0.024,2.28,0.096,3.192h-1.872l-0.12-1.896h-0.048
				c-0.527,0.938-1.776,2.16-3.84,2.16c-1.824,0-4.009-1.031-4.009-5.088v-6.793h2.112v6.408c0,2.209,0.695,3.721,2.592,3.721
				c1.416,0,2.4-0.984,2.785-1.943c0.119-0.289,0.191-0.672,0.191-1.08v-7.104h2.112L114.155,26.22L114.155,26.22z"/>
			<path style="fill:#020202;" d="M117.371,27.275c0.646,0.385,1.752,0.815,2.809,0.815c1.512,0,2.23-0.743,2.23-1.729
				c0-1.008-0.6-1.534-2.137-2.11c-2.111-0.769-3.097-1.896-3.097-3.289c0-1.871,1.537-3.407,4.009-3.407
				c1.178,0,2.209,0.312,2.834,0.721l-0.504,1.535c-0.457-0.287-1.298-0.695-2.377-0.695c-1.248,0-1.921,0.721-1.921,1.584
				c0,0.961,0.673,1.393,2.185,1.992c1.992,0.744,3.049,1.752,3.049,3.479c0,2.063-1.608,3.504-4.32,3.504
				c-1.271,0-2.448-0.336-3.265-0.815L117.371,27.275z"/>
			<path style="fill:#020202;" d="M142.188,27.708c0,2.688-0.553,4.296-1.655,5.329c-1.152,1.031-2.784,1.393-4.249,1.393
				c-1.393,0-2.928-0.338-3.864-0.961l0.528-1.633c0.768,0.504,1.968,0.938,3.408,0.938c2.16,0,3.744-1.129,3.744-4.082V27.42
				h-0.049c-0.623,1.08-1.896,1.944-3.695,1.944c-2.881,0-4.944-2.448-4.944-5.665c0-3.936,2.567-6.145,5.257-6.145
				c2.016,0,3.096,1.032,3.624,1.991h0.048l0.072-1.752h1.872c-0.072,0.815-0.097,1.776-0.097,3.168V27.708L142.188,27.708z
				 M140.075,22.379c0-0.359-0.024-0.672-0.12-0.936c-0.385-1.248-1.393-2.256-2.952-2.256c-2.017,0-3.457,1.703-3.457,4.393
				c0,2.279,1.177,4.176,3.433,4.176c1.32,0,2.496-0.816,2.93-2.16c0.119-0.359,0.168-0.768,0.168-1.128L140.075,22.379
				L140.075,22.379z"/>
			<path style="fill:#020202;" d="M145.521,21.42c0-1.369-0.023-2.545-0.097-3.625h1.849l0.097,2.305h0.071
				c0.527-1.561,1.824-2.545,3.24-2.545c0.217,0,0.385,0.024,0.575,0.049v1.992c-0.216-0.049-0.432-0.049-0.72-0.049
				c-1.488,0-2.544,1.104-2.832,2.688c-0.048,0.289-0.072,0.648-0.072,0.984v6.192h-2.111V21.42L145.521,21.42z"/>
			<path style="fill:#020202;" d="M155.818,14.531c0,0.72-0.504,1.296-1.346,1.296c-0.768,0-1.271-0.576-1.271-1.296
				c0-0.721,0.528-1.32,1.319-1.32C155.29,13.211,155.818,13.787,155.818,14.531z M153.466,29.412V17.795h2.112v11.617H153.466z"/>
			<path style="fill:#020202;" d="M159.081,21.588c0-1.488-0.048-2.688-0.097-3.793h1.873l0.119,1.992h0.049
				c0.84-1.416,2.231-2.232,4.127-2.232c2.834,0,4.945,2.377,4.945,5.881c0,4.176-2.568,6.24-5.305,6.24
				c-1.536,0-2.881-0.672-3.576-1.824h-0.048v6.312h-2.089L159.081,21.588L159.081,21.588z M161.17,24.684
				c0,0.312,0.023,0.601,0.096,0.864c0.385,1.464,1.656,2.472,3.168,2.472c2.232,0,3.528-1.824,3.528-4.487
				c0-2.304-1.224-4.296-3.456-4.296c-1.439,0-2.809,1.008-3.191,2.593c-0.072,0.264-0.145,0.575-0.145,0.84V24.684z"/>
		</g>
	</g>
	<g id="meegotouch-statusmenu-drawer-grip">
		<rect x="47.866" y="69.591" style="fill:none;" width="58" height="20"/>
		<ellipse style="opacity:0.2;fill:#FFFFFF;" cx="64.866" cy="76.583" rx="2" ry="2.008"/>
		<ellipse style="opacity:0.2;fill:#FFFFFF;" cx="76.866" cy="76.583" rx="2" ry="2.008"/>
		<ellipse style="opacity:0.2;fill:#FFFFFF;" cx="88.866" cy="76.583" rx="2" ry="2.008"/>
		<ellipse style="opacity:0.2;fill:#FFFFFF;" cx="64.866" cy="82.604" rx="2" ry="2.008"/>
		<ellipse style="opacity:0.2;fill:#FFFFFF;" cx="58.866" cy="76.583" rx="2" ry="2.008"/>
		<ellipse style="opacity:0.2;fill:#FFFFFF;" cx="58.866" cy="82.604" rx="2" ry="2.008"/>
		<ellipse style="opacity:0.2;fill:#FFFFFF;" cx="52.866" cy="76.583" rx="2" ry="2.008"/>
		<ellipse style="opacity:0.2;fill:#FFFFFF;" cx="52.866" cy="82.604" rx="2" ry="2.008"/>
		<ellipse style="opacity:0.2;fill:#FFFFFF;" cx="70.866" cy="76.583" rx="2" ry="2.008"/>
		<ellipse style="opacity:0.2;fill:#FFFFFF;" cx="70.866" cy="82.604" rx="2" ry="2.008"/>
		<ellipse style="opacity:0.2;fill:#FFFFFF;" cx="82.866" cy="76.583" rx="2" ry="2.008"/>
		<ellipse style="opacity:0.2;fill:#FFFFFF;" cx="82.866" cy="82.604" rx="2" ry="2.008"/>
		<ellipse style="opacity:0.2;fill:#FFFFFF;" cx="76.866" cy="82.604" rx="2" ry="2.008"/>
		<ellipse style="opacity:0.2;fill:#FFFFFF;" cx="88.866" cy="82.604" rx="2" ry="2.008"/>
		<ellipse style="opacity:0.2;fill:#FFFFFF;" cx="94.866" cy="76.583" rx="2" ry="2.008"/>
		<ellipse style="opacity:0.2;fill:#FFFFFF;" cx="94.866" cy="82.604" rx="2" ry="2.008"/>
		<ellipse style="opacity:0.2;fill:#FFFFFF;" cx="100.866" cy="76.583" rx="2" ry="2.008"/>
		<ellipse style="opacity:0.2;fill:#FFFFFF;" cx="100.866" cy="82.604" rx="2" ry="2.008"/>
	</g>
	<g id="meegotouch-statusmenu-drawer-background">
		<rect x="142.511" y="68.59" style="fill:#010101;" width="24" height="20"/>
	</g>
</g>
</svg>
