<?xml version="1.0" encoding="iso-8859-1"?>
<!-- Generator: Adobe Illustrator 14.0.0, SVG Export Plug-In . SVG Version: 6.00 Build 43363)  -->
<!DOCTYPE svg PUBLIC "-//W3C//DTD SVG 1.1//EN" "http://www.w3.org/Graphics/SVG/1.1/DTD/svg11.dtd">
<svg version="1.1" xmlns="http://www.w3.org/2000/svg" xmlns:xlink="http://www.w3.org/1999/xlink" x="0px" y="0px" width="260px"
	 height="1105px" viewBox="0 0 260 1105" style="enable-background:new 0 0 260 1105;" xml:space="preserve">
<g id="meegotouch-media-navigationbar-layer">
</g>
<g id="theme">
	<g id="meegotouch-media-navigationbar">
		<g id="NavigationbarformediathemehelperBackground">
			<g>
				<path style="fill:#B3B3B3;" d="M16,1104c-8.271,0-15-6.729-15-15V16C1,7.729,7.729,1,16,1h228c8.271,0,15,6.729,15,15v1073
					c0,8.271-6.729,15-15,15H16z"/>
				<g>
					<path d="M244,2c7.72,0,14,6.28,14,14v1073c0,7.72-6.28,14-14,14H16c-7.72,0-14-6.28-14-14V16C2,8.28,8.28,2,16,2H244 M244,0H16
						C7.2,0,0,7.2,0,16v1073c0,8.8,7.2,16,16,16h228c8.8,0,16-7.2,16-16V16C260,7.2,252.8,0,244,0L244,0z"/>
				</g>
			</g>
			<g>
				<path d="M33.912,32.494v-8.083h1.151l2.579,4.09c0.588,0.947,1.067,1.799,1.439,2.626l0.035-0.012
					c-0.096-1.079-0.119-2.062-0.119-3.322v-3.382h0.983v8.083h-1.056l-2.566-4.102c-0.563-0.899-1.104-1.822-1.499-2.698
					l-0.036,0.013c0.06,1.019,0.071,1.99,0.071,3.334v3.453H33.912z"/>
				<path d="M45.85,31.104c0,0.504,0.024,0.995,0.084,1.391h-0.947l-0.084-0.73h-0.036c-0.323,0.455-0.947,0.863-1.775,0.863
					c-1.175,0-1.774-0.828-1.774-1.668c0-1.402,1.247-2.17,3.49-2.158v-0.12c0-0.468-0.132-1.343-1.319-1.331
					c-0.552,0-1.115,0.156-1.523,0.432l-0.24-0.707c0.48-0.301,1.188-0.504,1.919-0.504c1.775,0,2.207,1.211,2.207,2.362V31.104z
					 M44.83,29.532c-1.151-0.024-2.458,0.18-2.458,1.308c0,0.695,0.455,1.008,0.983,1.008c0.768,0,1.259-0.48,1.427-0.973
					c0.036-0.119,0.048-0.239,0.048-0.336V29.532z"/>
				<path d="M47.868,26.689l1.14,3.25c0.191,0.54,0.348,1.02,0.468,1.5h0.036c0.132-0.48,0.3-0.96,0.491-1.5l1.128-3.25h1.103
					l-2.278,5.805h-1.008l-2.206-5.805H47.868z"/>
				<path d="M54.407,25.059c0,0.359-0.252,0.648-0.672,0.648c-0.384,0-0.636-0.289-0.636-0.648s0.265-0.66,0.66-0.66
					C54.144,24.398,54.407,24.688,54.407,25.059z M53.232,32.494v-5.805h1.055v5.805H53.232z"/>
				<path d="M61.006,31.643c0,1.344-0.275,2.147-0.827,2.663c-0.576,0.516-1.392,0.696-2.123,0.696c-0.696,0-1.464-0.168-1.931-0.48
					l0.264-0.815c0.384,0.252,0.983,0.468,1.703,0.468c1.079,0,1.871-0.564,1.871-2.039v-0.636h-0.024
					c-0.312,0.54-0.947,0.972-1.847,0.972c-1.439,0-2.471-1.224-2.471-2.83c0-1.967,1.283-3.07,2.626-3.07
					c1.008,0,1.548,0.516,1.812,0.995h0.023l0.036-0.876h0.936c-0.036,0.408-0.048,0.888-0.048,1.584V31.643z M59.95,28.98
					c0-0.18-0.012-0.336-0.06-0.468c-0.192-0.624-0.695-1.128-1.476-1.128c-1.007,0-1.727,0.852-1.727,2.195
					c0,1.14,0.587,2.087,1.715,2.087c0.659,0,1.247-0.407,1.463-1.079c0.061-0.18,0.084-0.384,0.084-0.564V28.98z"/>
				<path d="M66.825,31.104c0,0.504,0.024,0.995,0.084,1.391h-0.947l-0.084-0.73h-0.036c-0.324,0.455-0.947,0.863-1.775,0.863
					c-1.175,0-1.774-0.828-1.774-1.668c0-1.402,1.247-2.17,3.49-2.158v-0.12c0-0.468-0.132-1.343-1.319-1.331
					c-0.552,0-1.115,0.156-1.523,0.432l-0.24-0.707c0.48-0.301,1.188-0.504,1.919-0.504c1.775,0,2.207,1.211,2.207,2.362V31.104z
					 M65.806,29.532c-1.151-0.024-2.458,0.18-2.458,1.308c0,0.695,0.455,1.008,0.983,1.008c0.768,0,1.259-0.48,1.427-0.973
					c0.036-0.119,0.048-0.239,0.048-0.336V29.532z"/>
				<path d="M69.755,25.299v1.391h1.512v0.804h-1.512v3.13c0,0.721,0.204,1.128,0.792,1.128c0.288,0,0.456-0.024,0.611-0.071
					l0.048,0.803c-0.203,0.072-0.527,0.145-0.936,0.145c-0.491,0-0.887-0.168-1.139-0.444c-0.288-0.323-0.408-0.839-0.408-1.522
					v-3.167h-0.899v-0.804h0.899V25.61L69.755,25.299z"/>
				<path d="M73.631,25.059c0,0.359-0.252,0.648-0.672,0.648c-0.384,0-0.636-0.289-0.636-0.648s0.265-0.66,0.66-0.66
					C73.367,24.398,73.631,24.688,73.631,25.059z M72.456,32.494v-5.805h1.055v5.805H72.456z"/>
				<path d="M80.518,29.545c0,2.146-1.499,3.082-2.891,3.082c-1.56,0-2.782-1.152-2.782-2.986c0-1.932,1.283-3.07,2.878-3.07
					C79.39,26.57,80.518,27.781,80.518,29.545z M75.924,29.604c0,1.271,0.72,2.231,1.751,2.231c1.008,0,1.763-0.947,1.763-2.255
					c0-0.983-0.491-2.219-1.738-2.219C76.464,27.361,75.924,28.513,75.924,29.604z"/>
				<path d="M81.853,28.261c0-0.611-0.013-1.091-0.049-1.571h0.936l0.061,0.96h0.023c0.288-0.54,0.96-1.079,1.919-1.079
					c0.804,0,2.051,0.479,2.051,2.471v3.453h-1.055v-3.346c0-0.936-0.348-1.715-1.344-1.715c-0.684,0-1.224,0.492-1.415,1.079
					c-0.048,0.132-0.072,0.312-0.072,0.491v3.49h-1.055V28.261z"/>
				<path d="M91.056,23.979h1.043v3.646h0.024c0.371-0.647,1.043-1.055,1.979-1.055c1.451,0,2.459,1.199,2.459,2.95
					c0,2.075-1.319,3.106-2.615,3.106c-0.839,0-1.511-0.324-1.955-1.08h-0.023l-0.061,0.947h-0.899
					c0.024-0.396,0.049-0.982,0.049-1.498V23.979z M92.099,30.168c0,0.132,0.012,0.264,0.048,0.384
					c0.192,0.731,0.815,1.235,1.583,1.235c1.115,0,1.764-0.899,1.764-2.23c0-1.164-0.6-2.159-1.739-2.159
					c-0.708,0-1.38,0.504-1.596,1.296c-0.035,0.131-0.06,0.275-0.06,0.443V30.168z"/>
				<path d="M101.961,31.104c0,0.504,0.024,0.995,0.084,1.391h-0.947l-0.084-0.73h-0.036c-0.323,0.455-0.947,0.863-1.775,0.863
					c-1.175,0-1.774-0.828-1.774-1.668c0-1.402,1.247-2.17,3.49-2.158v-0.12c0-0.468-0.132-1.343-1.319-1.331
					c-0.552,0-1.115,0.156-1.523,0.432l-0.24-0.707c0.48-0.301,1.188-0.504,1.919-0.504c1.775,0,2.207,1.211,2.207,2.362V31.104z
					 M100.941,29.532c-1.151-0.024-2.458,0.18-2.458,1.308c0,0.695,0.455,1.008,0.983,1.008c0.768,0,1.259-0.48,1.427-0.973
					c0.036-0.119,0.048-0.239,0.048-0.336V29.532z"/>
				<path d="M103.668,28.501c0-0.684-0.013-1.271-0.049-1.812h0.924l0.048,1.152h0.036c0.264-0.78,0.911-1.271,1.619-1.271
					c0.108,0,0.191,0.012,0.288,0.023v0.996c-0.108-0.024-0.216-0.024-0.36-0.024c-0.743,0-1.271,0.552-1.415,1.343
					c-0.023,0.145-0.036,0.324-0.036,0.492v3.094h-1.055V28.501z"/>
				<path d="M110.243,32.494v-5.001h-0.804v-0.804h0.804v-0.275c0-0.815,0.192-1.559,0.672-2.027
					c0.396-0.383,0.923-0.539,1.415-0.539c0.384,0,0.695,0.084,0.899,0.168l-0.144,0.815c-0.156-0.072-0.36-0.132-0.672-0.132
					c-0.899,0-1.127,0.779-1.127,1.679v0.312h1.402v0.804h-1.402v5.001H110.243z"/>
				<path d="M118.736,29.545c0,2.146-1.499,3.082-2.891,3.082c-1.56,0-2.782-1.152-2.782-2.986c0-1.932,1.283-3.07,2.878-3.07
					C117.608,26.57,118.736,27.781,118.736,29.545z M114.143,29.604c0,1.271,0.72,2.231,1.751,2.231
					c1.008,0,1.763-0.947,1.763-2.255c0-0.983-0.491-2.219-1.738-2.219C114.683,27.361,114.143,28.513,114.143,29.604z"/>
				<path d="M120.071,28.501c0-0.684-0.013-1.271-0.049-1.812h0.924l0.048,1.152h0.036c0.264-0.78,0.911-1.271,1.619-1.271
					c0.108,0,0.192,0.012,0.288,0.023v0.996c-0.108-0.024-0.216-0.024-0.36-0.024c-0.743,0-1.271,0.552-1.415,1.343
					c-0.023,0.145-0.036,0.324-0.036,0.492v3.094h-1.055V28.501z"/>
				<path d="M126.539,28.261c0-0.611-0.024-1.091-0.049-1.571h0.924l0.048,0.947h0.036c0.324-0.551,0.863-1.066,1.835-1.066
					c0.779,0,1.379,0.479,1.631,1.163h0.024c0.18-0.336,0.42-0.575,0.659-0.756c0.349-0.264,0.72-0.407,1.271-0.407
					c0.779,0,1.919,0.504,1.919,2.518v3.406h-1.031v-3.273c0-1.127-0.42-1.787-1.26-1.787c-0.611,0-1.067,0.443-1.259,0.947
					c-0.048,0.156-0.084,0.336-0.084,0.527v3.586h-1.031v-3.478c0-0.923-0.408-1.583-1.212-1.583c-0.647,0-1.139,0.527-1.307,1.055
					c-0.061,0.145-0.084,0.336-0.084,0.516v3.49h-1.031V28.261z"/>
				<path d="M137.135,29.784c0.024,1.427,0.924,2.015,1.991,2.015c0.756,0,1.224-0.132,1.607-0.3l0.191,0.756
					c-0.372,0.168-1.02,0.372-1.942,0.372c-1.787,0-2.854-1.188-2.854-2.939c0-1.75,1.031-3.117,2.723-3.117
					c1.906,0,2.398,1.654,2.398,2.723c0,0.215-0.013,0.371-0.036,0.491H137.135z M140.229,29.028
					c0.012-0.659-0.276-1.702-1.463-1.702c-1.08,0-1.535,0.971-1.619,1.702H140.229z"/>
				<path d="M147.561,23.979v7.017c0,0.516,0.023,1.103,0.048,1.498h-0.936l-0.048-1.007h-0.036c-0.312,0.647-1.008,1.14-1.955,1.14
					c-1.403,0-2.494-1.188-2.494-2.951c-0.013-1.931,1.199-3.105,2.603-3.105c0.899,0,1.487,0.42,1.751,0.875h0.023v-3.466H147.561z
					 M146.517,29.053c0-0.133-0.012-0.312-0.048-0.443c-0.155-0.66-0.731-1.212-1.523-1.212c-1.091,0-1.738,0.96-1.738,2.231
					c0,1.175,0.588,2.146,1.715,2.146c0.708,0,1.355-0.48,1.547-1.26c0.036-0.145,0.048-0.287,0.048-0.455V29.053z"/>
				<path d="M150.502,25.059c0,0.359-0.252,0.648-0.672,0.648c-0.384,0-0.636-0.289-0.636-0.648s0.265-0.66,0.66-0.66
					C150.238,24.398,150.502,24.688,150.502,25.059z M149.327,32.494v-5.805h1.055v5.805H149.327z"/>
				<path d="M156.213,31.104c0,0.504,0.024,0.995,0.084,1.391h-0.947l-0.084-0.73h-0.036c-0.323,0.455-0.947,0.863-1.775,0.863
					c-1.175,0-1.774-0.828-1.774-1.668c0-1.402,1.247-2.17,3.49-2.158v-0.12c0-0.468-0.132-1.343-1.319-1.331
					c-0.552,0-1.115,0.156-1.523,0.432l-0.24-0.707c0.48-0.301,1.188-0.504,1.919-0.504c1.775,0,2.207,1.211,2.207,2.362V31.104z
					 M155.193,29.532c-1.151-0.024-2.458,0.18-2.458,1.308c0,0.695,0.455,1.008,0.983,1.008c0.768,0,1.259-0.48,1.427-0.973
					c0.036-0.119,0.048-0.239,0.048-0.336V29.532z"/>
				<path d="M164.54,31.104c0,0.504,0.024,0.995,0.084,1.391h-0.947l-0.084-0.73h-0.036c-0.324,0.455-0.947,0.863-1.775,0.863
					c-1.175,0-1.774-0.828-1.774-1.668c0-1.402,1.247-2.17,3.49-2.158v-0.12c0-0.468-0.132-1.343-1.319-1.331
					c-0.552,0-1.115,0.156-1.523,0.432l-0.24-0.707c0.48-0.301,1.188-0.504,1.919-0.504c1.775,0,2.207,1.211,2.207,2.362V31.104z
					 M163.521,29.532c-1.151-0.024-2.458,0.18-2.458,1.308c0,0.695,0.455,1.008,0.983,1.008c0.768,0,1.259-0.48,1.427-0.973
					c0.036-0.119,0.048-0.239,0.048-0.336V29.532z"/>
				<path d="M166.247,28.585c0-0.743-0.024-1.343-0.049-1.896h0.936l0.061,0.996h0.023c0.42-0.708,1.115-1.115,2.063-1.115
					c1.415,0,2.471,1.188,2.471,2.938c0,2.088-1.283,3.119-2.651,3.119c-0.768,0-1.438-0.336-1.786-0.912h-0.024v3.154h-1.043
					V28.585z M167.29,30.132c0,0.156,0.012,0.3,0.048,0.432c0.192,0.731,0.828,1.235,1.583,1.235c1.115,0,1.764-0.911,1.764-2.242
					c0-1.152-0.612-2.147-1.728-2.147c-0.72,0-1.403,0.504-1.595,1.296c-0.036,0.131-0.072,0.287-0.072,0.42V30.132z"/>
				<path d="M173.075,28.585c0-0.743-0.024-1.343-0.049-1.896h0.936l0.061,0.996h0.023c0.42-0.708,1.115-1.115,2.063-1.115
					c1.415,0,2.471,1.188,2.471,2.938c0,2.088-1.283,3.119-2.651,3.119c-0.768,0-1.438-0.336-1.786-0.912h-0.024v3.154h-1.043
					V28.585z M174.118,30.132c0,0.156,0.012,0.3,0.048,0.432c0.192,0.731,0.828,1.235,1.583,1.235c1.115,0,1.764-0.911,1.764-2.242
					c0-1.152-0.612-2.147-1.728-2.147c-0.72,0-1.403,0.504-1.595,1.296c-0.036,0.131-0.072,0.287-0.072,0.42V30.132z"/>
				<path d="M179.902,23.979h1.055v8.515h-1.055V23.979z"/>
				<path d="M183.909,25.059c0,0.359-0.252,0.648-0.672,0.648c-0.384,0-0.636-0.289-0.636-0.648s0.265-0.66,0.66-0.66
					C183.646,24.398,183.909,24.688,183.909,25.059z M182.734,32.494v-5.805h1.055v5.805H182.734z"/>
				<path d="M189.68,32.291c-0.276,0.132-0.888,0.336-1.668,0.336c-1.751,0-2.89-1.188-2.89-2.963c0-1.787,1.223-3.094,3.118-3.094
					c0.623,0,1.175,0.155,1.463,0.312l-0.24,0.804c-0.251-0.133-0.647-0.276-1.223-0.276c-1.331,0-2.051,0.995-2.051,2.194
					c0,1.344,0.863,2.172,2.015,2.172c0.6,0,0.995-0.145,1.295-0.276L189.68,32.291z"/>
				<path d="M194.996,31.104c0,0.504,0.024,0.995,0.084,1.391h-0.947l-0.084-0.73h-0.036c-0.323,0.455-0.947,0.863-1.775,0.863
					c-1.175,0-1.774-0.828-1.774-1.668c0-1.402,1.247-2.17,3.49-2.158v-0.12c0-0.468-0.132-1.343-1.319-1.331
					c-0.552,0-1.115,0.156-1.523,0.432l-0.24-0.707c0.48-0.301,1.188-0.504,1.919-0.504c1.775,0,2.207,1.211,2.207,2.362V31.104z
					 M193.977,29.532c-1.151-0.024-2.458,0.18-2.458,1.308c0,0.695,0.455,1.008,0.983,1.008c0.768,0,1.259-0.48,1.427-0.973
					c0.036-0.119,0.048-0.239,0.048-0.336V29.532z"/>
				<path d="M197.925,25.299v1.391h1.512v0.804h-1.512v3.13c0,0.721,0.204,1.128,0.792,1.128c0.288,0,0.456-0.024,0.611-0.071
					l0.048,0.803c-0.203,0.072-0.527,0.145-0.936,0.145c-0.491,0-0.887-0.168-1.139-0.444c-0.288-0.323-0.408-0.839-0.408-1.522
					v-3.167h-0.899v-0.804h0.899V25.61L197.925,25.299z"/>
				<path d="M201.801,25.059c0,0.359-0.252,0.648-0.672,0.648c-0.384,0-0.636-0.289-0.636-0.648s0.265-0.66,0.66-0.66
					C201.537,24.398,201.801,24.688,201.801,25.059z M200.626,32.494v-5.805h1.055v5.805H200.626z"/>
				<path d="M208.688,29.545c0,2.146-1.499,3.082-2.891,3.082c-1.56,0-2.782-1.152-2.782-2.986c0-1.932,1.283-3.07,2.878-3.07
					C207.56,26.57,208.688,27.781,208.688,29.545z M204.094,29.604c0,1.271,0.72,2.231,1.751,2.231c1.008,0,1.763-0.947,1.763-2.255
					c0-0.983-0.491-2.219-1.738-2.219C204.634,27.361,204.094,28.513,204.094,29.604z"/>
				<path d="M210.022,28.261c0-0.611-0.013-1.091-0.049-1.571h0.936l0.061,0.96h0.023c0.288-0.54,0.96-1.079,1.919-1.079
					c0.804,0,2.051,0.479,2.051,2.471v3.453h-1.055v-3.346c0-0.936-0.348-1.715-1.344-1.715c-0.684,0-1.224,0.492-1.415,1.079
					c-0.048,0.132-0.072,0.312-0.072,0.491v3.49h-1.055V28.261z"/>
				<path d="M216.538,31.428c0.324,0.191,0.876,0.407,1.403,0.407c0.756,0,1.115-0.372,1.115-0.863c0-0.504-0.3-0.768-1.067-1.056
					c-1.056-0.384-1.547-0.947-1.547-1.643c0-0.936,0.768-1.703,2.003-1.703c0.588,0,1.104,0.155,1.415,0.359l-0.252,0.768
					c-0.228-0.145-0.647-0.348-1.188-0.348c-0.623,0-0.959,0.359-0.959,0.791c0,0.48,0.336,0.695,1.091,0.996
					c0.996,0.371,1.523,0.875,1.523,1.738c0,1.031-0.804,1.752-2.158,1.752c-0.636,0-1.224-0.168-1.632-0.408L216.538,31.428z"/>
			</g>
		</g>
		<g id="meegotouch-button-navigationbar-media-portrait-tab-background-selected-horizontal-right">
			<rect x="170" y="875" width="60" height="60"/>
			<path d="M230,875v52c0,4.4-3.6,8-8,8h-52v-60H230z"/>
			<g>
				<rect x="170" y="875" style="fill:#D0D2D3;" width="60" height="6"/>
			</g>
			<g>
				<rect x="170" y="875" width="60" height="1"/>
			</g>
		</g>
		<g id="meegotouch-button-navigationbar-media-portrait-tab-background-pressed-horizontal-right">
			<rect x="100" y="875" style="fill:#C8C8C8;" width="60" height="60"/>
			<linearGradient id="SVGID_1_" gradientUnits="userSpaceOnUse" x1="130.0005" y1="935" x2="130.0005" y2="875">
				<stop  offset="0" style="stop-color:#1A1A1A"/>
				<stop  offset="1" style="stop-color:#808080"/>
			</linearGradient>
			<path style="fill:url(#SVGID_1_);" d="M160,875v52c0,4.4-3.6,8-8,8h-52v-60H160z"/>
			<rect x="100" y="875" width="60" height="1"/>
		</g>
		<g id="meegotouch-button-navigationbar-media-portrait-tab-background-horizontal-right">
			<rect x="30" y="875" width="60" height="60"/>
			<path d="M90,875v52c0,4.4-3.6,8-8,8H30v-60H90z"/>
		</g>
		<g id="meegotouch-button-navigationbar-media-portrait-tab-background-selected-horizontal-center">
			<g>
				<rect x="170" y="804" width="60" height="60"/>
			</g>
			<g>
				<rect x="170" y="804" style="fill:#D0D2D3;" width="60" height="6"/>
			</g>
			<g>
				<rect x="170" y="804" width="60" height="1"/>
			</g>
			<g>
				<rect x="229" y="805" style="fill:#D0D2D3;" width="1" height="59"/>
			</g>
			<g>
				<rect x="170" y="805" style="fill:#D0D2D3;" width="1" height="59"/>
			</g>
		</g>
		<g id="meegotouch-button-navigationbar-media-portrait-tab-background-pressed-horizontal-center">
			<g>
				<linearGradient id="SVGID_2_" gradientUnits="userSpaceOnUse" x1="130.0005" y1="864" x2="130.0005" y2="804">
					<stop  offset="0" style="stop-color:#1A1A1A"/>
					<stop  offset="1" style="stop-color:#808080"/>
				</linearGradient>
				<rect x="100" y="804" style="fill:url(#SVGID_2_);" width="60" height="60"/>
			</g>
			<g>
				<rect x="100" y="804" width="60" height="1"/>
			</g>
		</g>
		<g id="meegotouch-button-navigationbar-media-portrait-tab-background-horizontal-center">
			<g>
				<rect x="30" y="804" width="60" height="60"/>
			</g>
		</g>
		<g id="meegotouch-button-navigationbar-media-portrait-tab-background-selected-horizontal-left">
			<rect x="170" y="734" width="60" height="60"/>
			<path d="M170,734v52c0,4.4,3.6,8,8,8h52v-60H170z"/>
			<rect x="170" y="735" style="fill:#D0D2D3;" width="60" height="6"/>
			<rect x="229" y="734" style="fill:#D0D2D3;" width="1" height="60"/>
			<rect x="170" y="734" style="fill:#D0D2D3;" width="1" height="60"/>
			<rect x="170" y="734" width="60" height="1"/>
		</g>
		<g id="meegotouch-button-navigationbar-media-portrait-tab-background-pressed-horizontal-left">
			<rect x="100" y="734" style="fill:#C8C8C8;" width="60" height="60"/>
			<linearGradient id="SVGID_3_" gradientUnits="userSpaceOnUse" x1="130.0005" y1="794" x2="130.0005" y2="734">
				<stop  offset="0" style="stop-color:#1A1A1A"/>
				<stop  offset="1" style="stop-color:#808080"/>
			</linearGradient>
			<path style="fill:url(#SVGID_3_);" d="M100,734v52c0,4.4,3.6,8,8,8h52v-60H100z"/>
			<rect x="100" y="734" width="60" height="1"/>
		</g>
		<g id="meegotouch-button-navigationbar-media-portrait-tab-background-horizontal-left">
			<rect x="30" y="734" width="60" height="60"/>
			<path d="M30,734v52c0,4.4,3.6,8,8,8h52v-60H30z"/>
			<rect x="30" y="734" width="60" height="1"/>
		</g>
		<g id="meegotouch-button-navigationbar-media-portrait-toolbarbutton-background-pressed-horizontal-right">
			<rect x="100" y="666" width="60" height="60"/>
			<linearGradient id="SVGID_4_" gradientUnits="userSpaceOnUse" x1="130.0005" y1="726" x2="130.0005" y2="666">
				<stop  offset="0" style="stop-color:#1A1A1A"/>
				<stop  offset="1" style="stop-color:#808080"/>
			</linearGradient>
			<path style="fill:url(#SVGID_4_);" d="M160,666v52c0,4.4-3.6,8-8,8h-52v-60H160z"/>
		</g>
		<g id="meegotouch-button-navigationbar-media-portrait-toolbarbutton-background-horizontal-right">
			<rect x="30" y="666" width="60" height="60"/>
			<path d="M90,666v52c0,4.4-3.6,8-8,8H30v-60H90z"/>
		</g>
		<g id="meegotouch-button-navigationbar-media-portrait-toolbarbutton-background-pressed-horizontal-center">
			<g>
				<linearGradient id="SVGID_5_" gradientUnits="userSpaceOnUse" x1="130.0005" y1="655" x2="130.0005" y2="595">
					<stop  offset="0" style="stop-color:#1A1A1A"/>
					<stop  offset="1" style="stop-color:#808080"/>
				</linearGradient>
				<rect x="100" y="595" style="fill:url(#SVGID_5_);" width="60" height="60"/>
			</g>
		</g>
		<g id="meegotouch-button-navigationbar-media-portrait-toolbarbutton-background-horizontal-center">
			<g>
				<rect x="30" y="595" width="60" height="60"/>
			</g>
		</g>
		<g id="meegotouch-button-navigationbar-media-portrait-toolbarbutton-background-pressed-horizontal-left">
			<rect x="100" y="525" width="60" height="60"/>
			<linearGradient id="SVGID_6_" gradientUnits="userSpaceOnUse" x1="130.0005" y1="585" x2="130.0005" y2="525.0005">
				<stop  offset="0" style="stop-color:#1A1A1A"/>
				<stop  offset="1" style="stop-color:#808080"/>
			</linearGradient>
			<path style="fill:url(#SVGID_6_);" d="M100,525v52c0,4.4,3.6,8,8,8h52v-60H100z"/>
		</g>
		<g id="meegotouch-button-navigationbar-media-portrait-toolbarbutton-background-horizontal-left">
			<rect x="30" y="525" width="60" height="60"/>
			<path d="M30,525v52c0,4.4,3.6,8,8,8h52v-60H30z"/>
		</g>
		<g id="meegotouch-button-navigationbar-media-tab-background-selected">
			<g>
				<rect x="170" y="455" width="60" height="59"/>
			</g>
			<g>
				<rect x="170" y="454" width="60" height="59"/>
			</g>
			<g>
				<rect x="170" y="454" style="fill:#D0D2D3;" width="60" height="6"/>
			</g>
			<g>
				<rect x="170" y="454" style="fill:#D0D2D3;" width="1" height="59"/>
			</g>
			<g>
				<rect x="229" y="454" style="fill:#D0D2D3;" width="1" height="59"/>
			</g>
		</g>
		<g id="meegotouch-button-navigationbar-media-tab-background-pressed">
			<g>
				<rect x="100" y="455" width="60" height="59"/>
			</g>
			<g>
				<linearGradient id="SVGID_7_" gradientUnits="userSpaceOnUse" x1="130.0005" y1="513" x2="130.0005" y2="454">
					<stop  offset="0" style="stop-color:#1A1A1A"/>
					<stop  offset="1" style="stop-color:#808080"/>
				</linearGradient>
				<rect x="100" y="454" style="fill:url(#SVGID_7_);" width="60" height="59"/>
			</g>
		</g>
		<g id="meegotouch-button-navigationbar-media-tab-background">
			<g>
				<rect x="30" y="455" width="60" height="59"/>
			</g>
			<g>
				<rect x="30" y="454" width="60" height="59"/>
			</g>
		</g>
		<g id="meegotouch-button-navigationbar-media-toolbarbutton-background-pressed">
			<g>
				<rect x="100" y="381" width="60" height="59"/>
			</g>
			<g>
				<linearGradient id="SVGID_8_" gradientUnits="userSpaceOnUse" x1="130.0005" y1="439" x2="130.0005" y2="380">
					<stop  offset="0" style="stop-color:#1A1A1A"/>
					<stop  offset="1" style="stop-color:#808080"/>
				</linearGradient>
				<rect x="100" y="380" style="fill:url(#SVGID_8_);" width="60" height="59"/>
			</g>
		</g>
		<g id="meegotouch-button-navigationbar-media-toolbarbutton-background">
			<g>
				<rect x="30" y="381" width="60" height="59"/>
			</g>
			<g>
				<rect x="30" y="380" width="60" height="59"/>
			</g>
		</g>
		<g id="meegotouch-navigationbar-media-toolbar-portrait-background">
			<g>
				<rect x="100" y="310" width="60" height="60"/>
			</g>
		</g>
		<g id="meegotouch-navigationbar-media-toolbar-background">
			<g style="opacity:0.05;">
				<rect x="30" y="311" width="60" height="59"/>
			</g>
			<g>
				<rect x="30" y="310" width="60" height="59"/>
			</g>
		</g>
		<g id="meegotouch-button-navigationbar-media-close-background-pressed">
			<g>
				<rect x="128" y="242" width="88" height="59"/>
			</g>
			<g>
				<linearGradient id="SVGID_9_" gradientUnits="userSpaceOnUse" x1="172" y1="300" x2="172" y2="241">
					<stop  offset="0" style="stop-color:#1A1A1A"/>
					<stop  offset="1" style="stop-color:#808080"/>
				</linearGradient>
				<rect x="128" y="241" style="fill:url(#SVGID_9_);" width="88" height="59"/>
			</g>
		</g>
		<g id="meegotouch-button-navigationbar-media-close-background">
			<g>
				<rect x="30" y="242" width="88" height="59"/>
			</g>
			<g>
				<rect x="30" y="241" width="88" height="59"/>
			</g>
		</g>
		<g id="meegotouch-button-navigationbar-media-viewmenu-background-pressed">
			<g>
				<linearGradient id="SVGID_10_" gradientUnits="userSpaceOnUse" x1="172" y1="231" x2="172" y2="171">
					<stop  offset="0" style="stop-color:#1A1A1A"/>
					<stop  offset="1" style="stop-color:#808080"/>
				</linearGradient>
				<rect x="128" y="171" style="fill:url(#SVGID_10_);" width="88" height="60"/>
			</g>
		</g>
		<g id="meegotouch-button-navigationbar-media-viewmenu-background">
			<g>
				<rect x="30" y="172" width="88" height="59"/>
			</g>
			<g>
				<rect x="30" y="171" width="88" height="59"/>
			</g>
			<g>
				<rect x="30" y="224" style="fill:#64AF2D;" width="88" height="6"/>
			</g>
		</g>
		<g id="meegotouch-button-navigationbar-media-home-background-pressed">
			<g>
				<rect x="128" y="102" width="88" height="59"/>
			</g>
			<g>
				<linearGradient id="SVGID_11_" gradientUnits="userSpaceOnUse" x1="172" y1="160" x2="172" y2="101">
					<stop  offset="0" style="stop-color:#1A1A1A"/>
					<stop  offset="1" style="stop-color:#808080"/>
				</linearGradient>
				<rect x="128" y="101" style="fill:url(#SVGID_11_);" width="88" height="59"/>
			</g>
		</g>
		<g id="meegotouch-button-navigationbar-media-home-background">
			<g>
				<rect x="30" y="102" width="88" height="59"/>
			</g>
			<g>
				<rect x="30" y="101" width="88" height="59"/>
			</g>
		</g>
	</g>
</g>
</svg>
