<?xml version="1.0" encoding="iso-8859-1"?>
<!-- Generator: Adobe Illustrator 14.0.0, SVG Export Plug-In . SVG Version: 6.00 Build 43363)  -->
<!DOCTYPE svg PUBLIC "-//W3C//DTD SVG 1.1//EN" "http://www.w3.org/Graphics/SVG/1.1/DTD/svg11.dtd">
<svg version="1.1" id="meegotouch-completer-layer" xmlns="http://www.w3.org/2000/svg" xmlns:xlink="http://www.w3.org/1999/xlink"
	 x="0px" y="0px" width="200px" height="217px" viewBox="0 0 200 217" style="enable-background:new 0 0 200 217;"
	 xml:space="preserve">
<g id="meegotouch-completer">
	<g id="helperyeah">
		<rect style="fill:#CCCCCC;stroke:#000000;stroke-width:2;" width="200" height="216.931"/>
		<g>
			<path d="M30.784,40.029c-0.664,0.385-2.057,0.77-3.813,0.77c-4.07,0-7.112-2.887-7.112-8.228c0-5.101,3.063-8.517,7.541-8.517
				c1.778,0,2.935,0.434,3.428,0.722l-0.472,1.708c-0.686-0.385-1.692-0.674-2.892-0.674c-3.386,0-5.635,2.43-5.635,6.688
				c0,3.994,2.035,6.521,5.527,6.521c1.156,0,2.313-0.265,3.063-0.674L30.784,40.029z"/>
			<path d="M42.224,34.615c0,4.307-2.678,6.184-5.163,6.184c-2.785,0-4.97-2.31-4.97-5.99c0-3.873,2.292-6.158,5.142-6.158
				C40.21,28.65,42.224,31.08,42.224,34.615z M34.019,34.736c0,2.55,1.285,4.475,3.128,4.475c1.8,0,3.149-1.9,3.149-4.523
				c0-1.973-0.879-4.449-3.106-4.449C34.982,30.238,34.019,32.547,34.019,34.736z"/>
			<path d="M44.602,32.042c0-1.228-0.042-2.188-0.085-3.151h1.649l0.086,1.9h0.063c0.579-1.107,1.543-2.141,3.278-2.141
				c1.393,0,2.464,0.961,2.913,2.333h0.043c0.321-0.673,0.75-1.155,1.179-1.516c0.621-0.53,1.285-0.817,2.271-0.817
				c1.393,0,3.428,1.01,3.428,5.052v6.833h-1.842v-6.568c0-2.262-0.75-3.586-2.25-3.586c-1.093,0-1.906,0.891-2.249,1.901
				c-0.086,0.313-0.15,0.675-0.15,1.06v7.193h-1.843v-6.978c0-1.853-0.728-3.177-2.163-3.177c-1.157,0-2.035,1.061-2.335,2.118
				c-0.107,0.288-0.15,0.673-0.15,1.034v7.002h-1.843V32.042z"/>
			<path d="M62.468,32.691c0-1.492-0.042-2.695-0.085-3.801h1.671l0.107,1.996h0.042c0.75-1.419,1.993-2.236,3.686-2.236
				c2.527,0,4.413,2.381,4.413,5.895c0,4.186-2.293,6.254-4.734,6.254c-1.371,0-2.571-0.674-3.192-1.828h-0.043v6.328h-1.864V32.691
				z M64.332,35.795c0,0.312,0.021,0.602,0.086,0.866c0.343,1.468,1.478,2.479,2.827,2.479c1.993,0,3.149-1.829,3.149-4.5
				c0-2.31-1.093-4.306-3.085-4.306c-1.285,0-2.506,1.01-2.849,2.598c-0.064,0.266-0.129,0.578-0.129,0.843V35.795z"/>
			<path d="M74.657,23.453h1.886v17.082h-1.886V23.453z"/>
			<path d="M80.763,35.098c0.043,2.863,1.65,4.042,3.557,4.042c1.35,0,2.186-0.266,2.871-0.603l0.343,1.516
				c-0.664,0.337-1.821,0.746-3.471,0.746c-3.192,0-5.099-2.382-5.099-5.894c0-3.513,1.842-6.255,4.862-6.255
				c3.407,0,4.285,3.318,4.285,5.461c0,0.434-0.021,0.746-0.064,0.986H80.763z M86.29,33.582c0.021-1.324-0.492-3.416-2.613-3.416
				c-1.928,0-2.742,1.948-2.893,3.416H86.29z"/>
			<path d="M92.717,26.1v2.791h2.699v1.611h-2.699v6.279c0,1.443,0.364,2.262,1.414,2.262c0.514,0,0.813-0.049,1.093-0.145
				l0.085,1.611c-0.364,0.146-0.942,0.289-1.671,0.289c-0.878,0-1.585-0.337-2.035-0.89c-0.514-0.649-0.729-1.685-0.729-3.056
				v-6.352h-1.606v-1.611h1.606v-2.166L92.717,26.1z"/>
			<path d="M98.458,35.098c0.043,2.863,1.65,4.042,3.557,4.042c1.35,0,2.186-0.266,2.871-0.603l0.343,1.516
				c-0.664,0.337-1.821,0.746-3.471,0.746c-3.192,0-5.099-2.382-5.099-5.894c0-3.513,1.842-6.255,4.862-6.255
				c3.407,0,4.285,3.318,4.285,5.461c0,0.434-0.021,0.746-0.064,0.986H98.458z M103.985,33.582c0.021-1.324-0.492-3.416-2.613-3.416
				c-1.928,0-2.742,1.948-2.893,3.416H103.985z"/>
			<path d="M108.141,32.523c0-1.372-0.021-2.551-0.085-3.633h1.649l0.086,2.309h0.063c0.472-1.563,1.629-2.549,2.893-2.549
				c0.192,0,0.343,0.023,0.514,0.048v1.997c-0.192-0.049-0.385-0.049-0.643-0.049c-1.328,0-2.271,1.107-2.527,2.695
				c-0.043,0.288-0.064,0.648-0.064,0.985v6.208h-1.886V32.523z"/>
		</g>
	</g>
	<g id="meegotouch-completer-button">
		<g>
			<path style="fill:#CCCCCC;" d="M30,197c-4.962,0-9-4.037-9-9v-44c0-4.963,4.038-9,9-9h44c4.962,0,9,4.037,9,9v44
				c0,4.963-4.038,9-9,9H30z"/>
			<path style="fill:#999999;" d="M74,136c4.411,0,8,3.589,8,8v44c0,4.411-3.589,8-8,8H30c-4.411,0-8-3.589-8-8v-44
				c0-4.411,3.589-8,8-8H74 M74,134H30c-5.5,0-10,4.5-10,10v44c0,5.5,4.5,10,10,10h44c5.5,0,10-4.5,10-10v-44
				C84,138.5,79.5,134,74,134L74,134z"/>
		</g>
	</g>
	<g id="meegotouch-completer-button-pressed">
		<g>
			<path style="fill:#808080;" d="M110,197c-4.963,0-9-4.037-9-9v-44c0-4.963,4.037-9,9-9h43.999c4.963,0,9,4.037,9,9v44
				c0,4.963-4.037,9-9,9H110z"/>
			<path style="fill:#999999;" d="M153.999,136c4.411,0,8,3.589,8,8v44c0,4.411-3.589,8-8,8H110c-4.411,0-8-3.589-8-8v-44
				c0-4.411,3.589-8,8-8H153.999 M153.999,134H110c-5.5,0-10,4.5-10,10v44c0,5.5,4.5,10,10,10h43.999c5.5,0,10-4.5,10-10v-44
				C163.999,138.5,159.499,134,153.999,134L153.999,134z"/>
		</g>
	</g>
	<g id="meegotouch-completer-background">
		<g>
			<path style="fill:#E6E6E6;" d="M30,113c-4.962,0-9-4.037-9-9V60c0-4.963,4.038-9,9-9h44c4.962,0,9,4.037,9,9v44
				c0,4.963-4.038,9-9,9H30z"/>
			<path style="fill:#999999;" d="M74,52c4.411,0,8,3.589,8,8v44c0,4.411-3.589,8-8,8H30c-4.411,0-8-3.589-8-8V60
				c0-4.411,3.589-8,8-8H74 M74,50H30c-5.5,0-10,4.5-10,10v44c0,5.5,4.5,10,10,10h44c5.5,0,10-4.5,10-10V60C84,54.5,79.5,50,74,50
				L74,50z"/>
		</g>
	</g>
	<g id="meegotouch-completer-background-pressed">
		<g>
			<path style="fill:#999999;" d="M110,113c-4.963,0-9-4.037-9-9V60c0-4.963,4.037-9,9-9h43.999c4.963,0,9,4.037,9,9v44
				c0,4.963-4.037,9-9,9H110z"/>
			<path style="fill:#999999;" d="M153.999,52c4.411,0,8,3.589,8,8v44c0,4.411-3.589,8-8,8H110c-4.411,0-8-3.589-8-8V60
				c0-4.411,3.589-8,8-8H153.999 M153.999,50H110c-5.5,0-10,4.5-10,10v44c0,5.5,4.5,10,10,10h43.999c5.5,0,10-4.5,10-10V60
				C163.999,54.5,159.499,50,153.999,50L153.999,50z"/>
		</g>
	</g>
</g>
</svg>
