<?xml version="1.0" encoding="iso-8859-1"?>
<!-- Generator: Adobe Illustrator 14.0.0, SVG Export Plug-In . SVG Version: 6.00 Build 43363)  -->
<!DOCTYPE svg PUBLIC "-//W3C//DTD SVG 1.1//EN" "http://www.w3.org/Graphics/SVG/1.1/DTD/svg11.dtd">
<svg version="1.1" xmlns="http://www.w3.org/2000/svg" xmlns:xlink="http://www.w3.org/1999/xlink" x="0px" y="0px" width="370px"
	 height="360px" viewBox="0 0 370 360" style="enable-background:new 0 0 370 360;" xml:space="preserve">
<g id="meegotouch-speechbubble-layer">
</g>
<g id="theme">
	<g id="meegotouch-speechbubble">
		<g id="MeegotouchSpeechBubbleThemeTemplateHelper">
			<g>
				<path style="fill:#B3B3B3;" d="M16,359c-8.271,0-15-6.729-15-15V16C1,7.729,7.729,1,16,1h338c8.271,0,15,6.729,15,15v328
					c0,8.271-6.729,15-15,15H16z"/>
				<g>
					<path d="M354,2c7.72,0,14,6.28,14,14v328c0,7.72-6.28,14-14,14H16c-7.72,0-14-6.28-14-14V16C2,8.28,8.28,2,16,2H354 M354,0H16
						C7.2,0,0,7.2,0,16v328c0,8.8,7.2,16,16,16h338c8.8,0,16-7.2,16-16V16C370,7.2,362.8,0,354,0L354,0z"/>
				</g>
			</g>
			<path d="M97.975,33.396c-1.172,0-2.34-0.16-3.504-0.48v-1.816c1.281,0.367,2.426,0.551,3.434,0.551
				c1.078,0,1.932-0.242,2.561-0.727s0.943-1.18,0.943-2.086c0-0.578-0.123-1.068-0.369-1.471s-0.564-0.744-0.955-1.025
				s-0.957-0.637-1.699-1.066c-0.883-0.508-1.58-0.959-2.092-1.354s-0.939-0.898-1.283-1.512s-0.516-1.357-0.516-2.232
				c0-1.484,0.494-2.627,1.482-3.428s2.334-1.201,4.037-1.201c1.117,0,2.164,0.117,3.141,0.352v1.758
				c-1.094-0.242-2.086-0.363-2.977-0.363c-0.93,0-1.686,0.225-2.268,0.674s-0.873,1.072-0.873,1.869
				c0,0.516,0.154,1.008,0.463,1.477s1.146,1.102,2.514,1.898c0.891,0.516,1.592,0.969,2.104,1.359s0.945,0.891,1.301,1.5
				s0.533,1.34,0.533,2.191C103.951,31.685,101.959,33.396,97.975,33.396z"/>
			<path d="M107.76,19.579l0.504,1.945c0.492-0.727,1.039-1.266,1.641-1.617s1.367-0.527,2.297-0.527
				c1.508,0,2.641,0.568,3.398,1.705s1.137,2.842,1.137,5.115c0,2.25-0.518,4.004-1.553,5.262s-2.525,1.887-4.471,1.887
				c-0.516,0-1.133-0.086-1.852-0.258v4.031h-2.496V19.579H107.76z M108.861,25.673v5.637c0.602,0.227,1.234,0.34,1.898,0.34
				c1.125,0,1.971-0.391,2.537-1.172s0.85-2.246,0.85-4.395c0-1.664-0.211-2.912-0.633-3.744s-1.051-1.248-1.887-1.248
				c-0.906,0-1.594,0.35-2.062,1.049S108.861,24.017,108.861,25.673z"/>
			<path d="M128.49,31.122v1.699c-1.227,0.383-2.496,0.574-3.809,0.574c-1.906,0-3.332-0.574-4.277-1.723s-1.418-2.918-1.418-5.309
				c0-2.102,0.457-3.791,1.371-5.068s2.219-1.916,3.914-1.916c1.375,0,2.408,0.365,3.1,1.096s1.135,1.625,1.33,2.684
				s0.293,2.318,0.293,3.779h-7.359c0,1.586,0.281,2.775,0.844,3.568s1.406,1.189,2.531,1.189
				C125.963,31.696,127.123,31.505,128.49,31.122z M121.635,25.403h4.91c0-1.648-0.195-2.812-0.586-3.492s-0.953-1.02-1.688-1.02
				c-0.82,0-1.447,0.352-1.881,1.055S121.705,23.802,121.635,25.403z"/>
			<path d="M140.701,31.122v1.699c-1.227,0.383-2.496,0.574-3.809,0.574c-1.906,0-3.332-0.574-4.277-1.723s-1.418-2.918-1.418-5.309
				c0-2.102,0.457-3.791,1.371-5.068s2.219-1.916,3.914-1.916c1.375,0,2.408,0.365,3.1,1.096s1.135,1.625,1.33,2.684
				s0.293,2.318,0.293,3.779h-7.359c0,1.586,0.281,2.775,0.844,3.568s1.406,1.189,2.531,1.189
				C138.174,31.696,139.334,31.505,140.701,31.122z M133.846,25.403h4.91c0-1.648-0.195-2.812-0.586-3.492s-0.953-1.02-1.688-1.02
				c-0.82,0-1.447,0.352-1.881,1.055S133.916,23.802,133.846,25.403z"/>
			<path d="M149.021,33.396c-1.852,0-3.25-0.607-4.195-1.822s-1.418-2.998-1.418-5.35c0-2.188,0.51-3.875,1.529-5.062
				s2.502-1.781,4.447-1.781c0.758,0,1.527,0.098,2.309,0.293v1.699c-0.594-0.188-1.332-0.281-2.215-0.281
				c-1.141,0-2.006,0.455-2.596,1.365s-0.885,2.182-0.885,3.814c0,1.758,0.295,3.102,0.885,4.031s1.455,1.395,2.596,1.395
				c0.984,0,1.754-0.09,2.309-0.27v1.617C150.951,33.278,150.029,33.396,149.021,33.396z"/>
			<path d="M164.021,33.208h-2.496v-9.27c0-0.945-0.18-1.656-0.539-2.133s-0.898-0.715-1.617-0.715
				c-0.906,0-1.609,0.344-2.109,1.031s-0.75,1.582-0.75,2.684v8.402h-2.496V14.657h2.496v6.234c0.867-1.008,1.988-1.512,3.363-1.512
				c1.383,0,2.42,0.369,3.111,1.107s1.037,1.842,1.037,3.311V33.208z"/>
			<path d="M175.564,14.657v6.188c0.891-0.977,1.996-1.465,3.316-1.465c1.523,0,2.668,0.562,3.434,1.688s1.148,2.812,1.148,5.062
				s-0.516,4.012-1.547,5.285s-2.449,1.91-4.254,1.91c-1.773,0-3.305-0.078-4.594-0.234V14.657H175.564z M175.564,26.341v5.168
				c0.727,0.094,1.375,0.141,1.945,0.141c1.148,0,1.996-0.42,2.543-1.26s0.82-2.283,0.82-4.33c0-1.656-0.215-2.898-0.645-3.727
				s-1.07-1.242-1.922-1.242c-0.828,0-1.441,0.25-1.84,0.75s-0.648,1.107-0.75,1.822S175.564,25.271,175.564,26.341z"/>
			<path d="M190.4,33.396c-1.391,0-2.432-0.361-3.123-1.084s-1.037-1.807-1.037-3.252v-9.48h2.496v9.047
				c0,1.023,0.18,1.791,0.539,2.303s0.902,0.768,1.629,0.768c0.906,0,1.607-0.344,2.104-1.031s0.744-1.582,0.744-2.684v-8.402h2.496
				v13.629h-1.383l-0.504-2.016C193.494,32.661,192.174,33.396,190.4,33.396z"/>
			<path d="M202.154,14.657v6.188c0.891-0.977,1.996-1.465,3.316-1.465c1.523,0,2.668,0.562,3.434,1.688s1.148,2.812,1.148,5.062
				s-0.516,4.012-1.547,5.285s-2.449,1.91-4.254,1.91c-1.773,0-3.305-0.078-4.594-0.234V14.657H202.154z M202.154,26.341v5.168
				c0.727,0.094,1.375,0.141,1.945,0.141c1.148,0,1.996-0.42,2.543-1.26s0.82-2.283,0.82-4.33c0-1.656-0.215-2.898-0.645-3.727
				s-1.07-1.242-1.922-1.242c-0.828,0-1.441,0.25-1.84,0.75s-0.648,1.107-0.75,1.822S202.154,25.271,202.154,26.341z"/>
			<path d="M215.373,14.657v6.188c0.891-0.977,1.996-1.465,3.316-1.465c1.523,0,2.668,0.562,3.434,1.688s1.148,2.812,1.148,5.062
				s-0.516,4.012-1.547,5.285s-2.449,1.91-4.254,1.91c-1.773,0-3.305-0.078-4.594-0.234V14.657H215.373z M215.373,26.341v5.168
				c0.727,0.094,1.375,0.141,1.945,0.141c1.148,0,1.996-0.42,2.543-1.26s0.82-2.283,0.82-4.33c0-1.656-0.215-2.898-0.645-3.727
				s-1.07-1.242-1.922-1.242c-0.828,0-1.441,0.25-1.84,0.75s-0.648,1.107-0.75,1.822S215.373,25.271,215.373,26.341z"/>
			<path d="M226.096,33.208V14.657h2.496v18.551H226.096z"/>
			<path d="M240.932,31.122v1.699c-1.227,0.383-2.496,0.574-3.809,0.574c-1.906,0-3.332-0.574-4.277-1.723s-1.418-2.918-1.418-5.309
				c0-2.102,0.457-3.791,1.371-5.068s2.219-1.916,3.914-1.916c1.375,0,2.408,0.365,3.1,1.096s1.135,1.625,1.33,2.684
				s0.293,2.318,0.293,3.779h-7.359c0,1.586,0.281,2.775,0.844,3.568s1.406,1.189,2.531,1.189
				C238.404,31.696,239.564,31.505,240.932,31.122z M234.076,25.403h4.91c0-1.648-0.195-2.812-0.586-3.492s-0.953-1.02-1.688-1.02
				c-0.82,0-1.447,0.352-1.881,1.055S234.146,23.802,234.076,25.403z"/>
		</g>
		<g id="meegotouch-speechbubble-outgoing-mirrored-background-pressed">
			<g>
				<linearGradient id="SVGID_1_" gradientUnits="userSpaceOnUse" x1="274" y1="197.5" x2="274" y2="135.2979">
					<stop  offset="0" style="stop-color:#29ABE2"/>
					<stop  offset="1" style="stop-color:#1D7399"/>
				</linearGradient>
				<path style="fill:url(#SVGID_1_);" d="M252,197.5c-5.238,0-9.5-4.262-9.5-9.5v-52.703l8.329,9.203H296
					c5.238,0,9.5,4.262,9.5,9.5v34c0,5.238-4.262,9.5-9.5,9.5H252z"/>
				<g>
					<path style="fill:#666666;" d="M243,136.595l7.31,8.076l0.298,0.329h0.443H296c4.963,0,9,4.038,9,9v34c0,4.963-4.037,9-9,9h-44
						c-4.963,0-9-4.037-9-9v-34.334V147V136.595 M242,134v13v6.666V188c0,5.5,4.5,10,10,10h44c5.5,0,10-4.5,10-10v-34
						c0-5.5-4.5-10-10-10h-44.949L242,134L242,134z"/>
				</g>
			</g>
		</g>
		<g id="meegotouch-speechbubble-outgoing-mirrored-background">
			<g>
				<linearGradient id="SVGID_2_" gradientUnits="userSpaceOnUse" x1="200" y1="197.5" x2="200" y2="135.2979">
					<stop  offset="0" style="stop-color:#45A4D8"/>
					<stop  offset="0.2881" style="stop-color:#48A7DA"/>
					<stop  offset="0.5194" style="stop-color:#52AFE0"/>
					<stop  offset="0.7311" style="stop-color:#63BCEA"/>
					<stop  offset="0.9298" style="stop-color:#7BD0F9"/>
					<stop  offset="1" style="stop-color:#85D8FF"/>
				</linearGradient>
				<path style="fill:url(#SVGID_2_);" d="M178,197.5c-5.238,0-9.5-4.262-9.5-9.5v-52.703l8.329,9.203H222
					c5.238,0,9.5,4.262,9.5,9.5v34c0,5.238-4.262,9.5-9.5,9.5H178z"/>
				<g>
					<path style="fill:#666666;" d="M169,136.595l7.31,8.076l0.297,0.329h0.444H222c4.963,0,9,4.038,9,9v34c0,4.963-4.037,9-9,9h-44
						c-4.962,0-9-4.037-9-9v-34.334V147V136.595 M168,134v13v6.666V188c0,5.5,4.5,10,10,10h44c5.5,0,10-4.5,10-10v-34
						c0-5.5-4.5-10-10-10h-44.949L168,134L168,134z"/>
				</g>
			</g>
		</g>
		<g id="meegotouch-speechbubble-incoming-mirrored-background-pressed">
			<g>
				<linearGradient id="SVGID_3_" gradientUnits="userSpaceOnUse" x1="125.6489" y1="197.5" x2="125.6489" y2="134.5005">
					<stop  offset="0" style="stop-color:#B3B3B3"/>
					<stop  offset="1" style="stop-color:#4D4D4D"/>
				</linearGradient>
				<path style="fill:url(#SVGID_3_);" d="M104,197.5c-5.238,0-9.5-4.262-9.5-9.5v-44c0-5.238,4.262-9.5,9.5-9.5h52.798
					l-7.298,7.345V188c0,5.238-4.262,9.5-9.5,9.5H104z"/>
				<g>
					<path style="fill:#666666;" d="M155.597,135l-6.306,6.346L149,141.638v0.413V188c0,4.963-4.038,9-9,9h-36c-4.962,0-9-4.037-9-9
						v-44c0-4.962,4.038-9,9-9H155.597 M158,134h-54c-5.5,0-10,4.5-10,10v44c0,5.5,4.5,10,10,10h36c5.5,0,10-4.5,10-10v-45.949
						L158,134L158,134z"/>
				</g>
			</g>
		</g>
		<g id="meegotouch-speechbubble-incoming-mirrored-background">
			<g>
				<linearGradient id="SVGID_4_" gradientUnits="userSpaceOnUse" x1="51.6489" y1="197.5" x2="51.6489" y2="134.5005">
					<stop  offset="0" style="stop-color:#D2D2D2"/>
					<stop  offset="1" style="stop-color:#F2F2F2"/>
				</linearGradient>
				<path style="fill:url(#SVGID_4_);" d="M30,197.5c-5.238,0-9.5-4.262-9.5-9.5v-44c0-5.238,4.262-9.5,9.5-9.5h52.798l-7.298,7.345
					V188c0,5.238-4.262,9.5-9.5,9.5H30z"/>
				<g>
					<path style="fill:#666666;" d="M81.597,135l-6.306,6.346L75,141.638v0.413V188c0,4.963-4.038,9-9,9H30c-4.962,0-9-4.037-9-9
						v-44c0-4.962,4.038-9,9-9H81.597 M84,134H30c-5.5,0-10,4.5-10,10v44c0,5.5,4.5,10,10,10h36c5.5,0,10-4.5,10-10v-45.949L84,134
						L84,134z"/>
				</g>
			</g>
		</g>
		<g id="meegotouch-speechbubble-outgoing-background-pressed">
			<g>
				<linearGradient id="SVGID_5_" gradientUnits="userSpaceOnUse" x1="274" y1="123.5" x2="274" y2="61.2974">
					<stop  offset="0" style="stop-color:#29ABE2"/>
					<stop  offset="1" style="stop-color:#1D7399"/>
				</linearGradient>
				<path style="fill:url(#SVGID_5_);" d="M252,123.5c-5.238,0-9.5-4.262-9.5-9.5V80c0-5.238,4.262-9.5,9.5-9.5h45.171l8.329-9.203
					V114c0,5.238-4.262,9.5-9.5,9.5H252z"/>
				<g>
					<path style="fill:#666666;" d="M305,62.595V73v6.666V114c0,4.962-4.037,9-9,9h-44c-4.963,0-9-4.038-9-9V80c0-4.962,4.037-9,9-9
						h44.949h0.443l0.298-0.329L305,62.595 M306,60l-9.051,10H252c-5.5,0-10,4.5-10,10v34c0,5.5,4.5,10,10,10h44c5.5,0,10-4.5,10-10
						V79.666V73V60L306,60z"/>
				</g>
			</g>
		</g>
		<g id="meegotouch-speechbubble-outgoing-background">
			<g>
				<linearGradient id="SVGID_6_" gradientUnits="userSpaceOnUse" x1="200" y1="123.5" x2="200" y2="61.2974">
					<stop  offset="0" style="stop-color:#45A4D8"/>
					<stop  offset="0.2881" style="stop-color:#48A7DA"/>
					<stop  offset="0.5194" style="stop-color:#52AFE0"/>
					<stop  offset="0.7311" style="stop-color:#63BCEA"/>
					<stop  offset="0.9298" style="stop-color:#7BD0F9"/>
					<stop  offset="1" style="stop-color:#85D8FF"/>
				</linearGradient>
				<path style="fill:url(#SVGID_6_);" d="M178,123.5c-5.238,0-9.5-4.262-9.5-9.5V80c0-5.238,4.262-9.5,9.5-9.5h45.171l8.329-9.203
					V114c0,5.238-4.262,9.5-9.5,9.5H178z"/>
				<g>
					<path style="fill:#666666;" d="M231,62.595V73v6.666V114c0,4.962-4.037,9-9,9h-44c-4.962,0-9-4.038-9-9V80c0-4.962,4.038-9,9-9
						h44.949h0.443l0.298-0.329L231,62.595 M232,60l-9.051,10H178c-5.5,0-10,4.5-10,10v34c0,5.5,4.5,10,10,10h44c5.5,0,10-4.5,10-10
						V79.666V73V60L232,60z"/>
				</g>
			</g>
		</g>
		<g id="meegotouch-speechbubble-incoming-background-pressed">
			<g>
				<linearGradient id="SVGID_7_" gradientUnits="userSpaceOnUse" x1="126.3511" y1="123.5" x2="126.3511" y2="60.5">
					<stop  offset="0" style="stop-color:#B3B3B3"/>
					<stop  offset="1" style="stop-color:#4D4D4D"/>
				</linearGradient>
				<path style="fill:url(#SVGID_7_);" d="M112,123.5c-5.238,0-9.5-4.262-9.5-9.5V67.845L95.202,60.5H148c5.238,0,9.5,4.262,9.5,9.5
					v44c0,5.238-4.262,9.5-9.5,9.5H112z"/>
				<g>
					<path style="fill:#666666;" d="M148,61c4.962,0,9,4.038,9,9v44c0,4.962-4.038,9-9,9h-36c-4.962,0-9-4.038-9-9V68.051v-0.412
						l-0.291-0.293L96.403,61H148 M148,60H94l8,8.051V114c0,5.5,4.5,10,10,10h36c5.5,0,10-4.5,10-10V70C158,64.5,153.5,60,148,60
						L148,60z"/>
				</g>
			</g>
		</g>
		<g id="meegotouch-speechbubble-incoming-background">
			<g>
				<linearGradient id="SVGID_8_" gradientUnits="userSpaceOnUse" x1="52.3511" y1="123.5" x2="52.3511" y2="60.5">
					<stop  offset="0" style="stop-color:#D2D2D2"/>
					<stop  offset="1" style="stop-color:#F2F2F2"/>
				</linearGradient>
				<path style="fill:url(#SVGID_8_);" d="M38,123.5c-5.238,0-9.5-4.262-9.5-9.5V67.845L21.202,60.5H74c5.238,0,9.5,4.262,9.5,9.5
					v44c0,5.238-4.262,9.5-9.5,9.5H38z"/>
				<g>
					<path style="fill:#666666;" d="M74,61c4.962,0,9,4.038,9,9v44c0,4.962-4.038,9-9,9H38c-4.962,0-9-4.038-9-9V68.051v-0.412
						l-0.291-0.293L22.403,61H74 M74,60H20l8,8.051V114c0,5.5,4.5,10,10,10h36c5.5,0,10-4.5,10-10V70C84,64.5,79.5,60,74,60L74,60z"
						/>
				</g>
			</g>
		</g>
		<g id="meegotouch-speechbubble-outgoing-chat-mirrored-background-pressed">
			<g>
				<linearGradient id="SVGID_9_" gradientUnits="userSpaceOnUse" x1="275.6484" y1="345.5" x2="275.6484" y2="282.5">
					<stop  offset="0" style="stop-color:#29ABE2"/>
					<stop  offset="1" style="stop-color:#1D7399"/>
				</linearGradient>
				<path style="fill:url(#SVGID_9_);" d="M254,345.5c-5.238,0-9.5-4.262-9.5-9.5v-44c0-5.238,4.262-9.5,9.5-9.5h52.798
					l-7.298,7.345V336c0,5.238-4.262,9.5-9.5,9.5H254z"/>
				<g>
					<path style="fill:#666666;" d="M305.597,283l-6.306,6.346L299,289.639v0.412V336c0,4.963-4.037,9-9,9h-36c-4.963,0-9-4.037-9-9
						v-44c0-4.963,4.037-9,9-9H305.597 M308,282h-54c-5.5,0-10,4.5-10,10v44c0,5.5,4.5,10,10,10h36c5.5,0,10-4.5,10-10v-45.949
						L308,282L308,282z"/>
				</g>
			</g>
		</g>
		<g id="meegotouch-speechbubble-outgoing-chat-mirrored-background">
			<g>
				<linearGradient id="SVGID_10_" gradientUnits="userSpaceOnUse" x1="201.6484" y1="345.5" x2="201.6484" y2="282.5">
					<stop  offset="0" style="stop-color:#45A4D8"/>
					<stop  offset="0.2881" style="stop-color:#48A7DA"/>
					<stop  offset="0.5194" style="stop-color:#52AFE0"/>
					<stop  offset="0.7311" style="stop-color:#63BCEA"/>
					<stop  offset="0.9298" style="stop-color:#7BD0F9"/>
					<stop  offset="1" style="stop-color:#85D8FF"/>
				</linearGradient>
				<path style="fill:url(#SVGID_10_);" d="M180,345.5c-5.238,0-9.5-4.262-9.5-9.5v-44c0-5.238,4.262-9.5,9.5-9.5h52.798
					l-7.298,7.345V336c0,5.238-4.262,9.5-9.5,9.5H180z"/>
				<g>
					<path style="fill:#666666;" d="M231.597,283l-6.306,6.346L225,289.639v0.412V336c0,4.963-4.037,9-9,9h-36c-4.962,0-9-4.037-9-9
						v-44c0-4.963,4.038-9,9-9H231.597 M234,282h-54c-5.5,0-10,4.5-10,10v44c0,5.5,4.5,10,10,10h36c5.5,0,10-4.5,10-10v-45.949
						L234,282L234,282z"/>
				</g>
			</g>
		</g>
		<g id="meegotouch-speechbubble-outgoing-chat-background-pressed">
			<g>
				<linearGradient id="SVGID_11_" gradientUnits="userSpaceOnUse" x1="276.3516" y1="271.5" x2="276.3516" y2="208.5">
					<stop  offset="0" style="stop-color:#29ABE2"/>
					<stop  offset="1" style="stop-color:#1D7399"/>
				</linearGradient>
				<path style="fill:url(#SVGID_11_);" d="M262,271.5c-5.238,0-9.5-4.262-9.5-9.5v-46.155l-7.298-7.345H298
					c5.238,0,9.5,4.262,9.5,9.5v44c0,5.238-4.262,9.5-9.5,9.5H262z"/>
				<g>
					<path style="fill:#666666;" d="M298,209c4.963,0,9,4.037,9,9v44c0,4.963-4.037,9-9,9h-36c-4.963,0-9-4.037-9-9v-45.949v-0.412
						l-0.291-0.293L246.403,209H298 M298,208h-54l8,8.051V262c0,5.5,4.5,10,10,10h36c5.5,0,10-4.5,10-10v-44
						C308,212.5,303.5,208,298,208L298,208z"/>
				</g>
			</g>
		</g>
		<g id="meegotouch-speechbubble-outgoing-chat-background">
			<g>
				<linearGradient id="SVGID_12_" gradientUnits="userSpaceOnUse" x1="202.3506" y1="271.5" x2="202.3506" y2="208.5">
					<stop  offset="0" style="stop-color:#45A4D8"/>
					<stop  offset="0.2881" style="stop-color:#48A7DA"/>
					<stop  offset="0.5194" style="stop-color:#52AFE0"/>
					<stop  offset="0.7311" style="stop-color:#63BCEA"/>
					<stop  offset="0.9298" style="stop-color:#7BD0F9"/>
					<stop  offset="1" style="stop-color:#85D8FF"/>
				</linearGradient>
				<path style="fill:url(#SVGID_12_);" d="M188,271.5c-5.238,0-9.5-4.262-9.5-9.5v-46.155l-7.298-7.345H224
					c5.238,0,9.5,4.262,9.5,9.5v44c0,5.238-4.262,9.5-9.5,9.5H188z"/>
				<g>
					<path style="fill:#666666;" d="M224,209c4.963,0,9,4.037,9,9v44c0,4.963-4.037,9-9,9h-36c-4.962,0-9-4.037-9-9v-45.949v-0.412
						l-0.291-0.293L172.403,209H224 M224,208h-54l8,8.051V262c0,5.5,4.5,10,10,10h36c5.5,0,10-4.5,10-10v-44
						C234,212.5,229.5,208,224,208L224,208z"/>
				</g>
			</g>
		</g>
	</g>
</g>
</svg>
