<?xml version="1.0" encoding="iso-8859-1"?>
<!-- Generator: Adobe Illustrator 14.0.0, SVG Export Plug-In . SVG Version: 6.00 Build 43363)  -->
<!DOCTYPE svg PUBLIC "-//W3C//DTD SVG 1.1//EN" "http://www.w3.org/Graphics/SVG/1.1/DTD/svg11.dtd">
<svg version="1.1" xmlns="http://www.w3.org/2000/svg" xmlns:xlink="http://www.w3.org/1999/xlink" x="0px" y="0px" width="160px"
	 height="467px" viewBox="0 0 160 467" style="enable-background:new 0 0 160 467;" xml:space="preserve">
<g id="meegotouch-quicklauncher-layer">
</g>
<g id="theme">
	<g id="meegotouch-quicklauncher">
		<g id="QuicklaunchbarThemeTemplateHelper">
			<g>
				<path style="fill:#B3B3B3;" d="M16,466c-8.271,0-15-6.729-15-15V16C1,7.729,7.729,1,16,1h128c8.271,0,15,6.729,15,15v435
					c0,8.271-6.729,15-15,15H16z"/>
				<g>
					<path d="M144,2c7.72,0,14,6.28,14,14v435c0,7.72-6.28,14-14,14H16c-7.72,0-14-6.28-14-14V16C2,8.28,8.28,2,16,2H144 M144,0H16
						C7.2,0,0,7.2,0,16v435c0,8.8,7.2,16,16,16h128c8.8,0,16-7.2,16-16V16C160,7.2,152.8,0,144,0L144,0z"/>
				</g>
			</g>
			<path style="fill:#010101;" d="M27.04,24.092l0.461-1.467H28.7v15.351h-2.184v-4.348c-0.615,0.725-1.524,1.087-2.728,1.087
				c-1.415,0-2.477-0.511-3.184-1.533c-0.708-1.021-1.062-2.555-1.062-4.599c0-1.853,0.383-3.338,1.148-4.455
				c0.766-1.118,1.866-1.677,3.302-1.677C25.368,22.451,26.384,22.998,27.04,24.092z M24.251,33.229
				c0.758,0,1.336-0.296,1.732-0.888c0.396-0.591,0.595-1.901,0.595-3.933c0-1.756-0.2-2.945-0.6-3.568
				c-0.4-0.621-0.97-0.933-1.708-0.933c-0.82,0-1.436,0.383-1.846,1.148s-0.615,1.914-0.615,3.445c0,1.579,0.204,2.762,0.61,3.548
				C22.827,32.835,23.437,33.229,24.251,33.229z"/>
			<path style="fill:#010101;" d="M35.283,34.715c-1.217,0-2.128-0.316-2.732-0.948c-0.605-0.633-0.908-1.581-0.908-2.846v-8.296
				h2.185v7.916c0,0.896,0.157,1.567,0.472,2.016c0.314,0.447,0.789,0.672,1.426,0.672c0.792,0,1.406-0.301,1.84-0.902
				c0.435-0.602,0.651-1.385,0.651-2.349v-7.353H40.4v11.926h-1.211l-0.44-1.764C37.99,34.072,36.835,34.715,35.283,34.715z"/>
			<path style="fill:#010101;" d="M45.886,34.551h-2.184v-10.5h-1.363v-1.426h3.547V34.551z M44.8,18.441
				c0.334,0,0.623,0.123,0.866,0.369c0.242,0.246,0.364,0.537,0.364,0.872c0,0.342-0.12,0.634-0.359,0.877
				c-0.239,0.242-0.53,0.364-0.871,0.364c-0.35,0-0.644-0.122-0.883-0.364c-0.239-0.243-0.358-0.535-0.358-0.877
				c0-0.349,0.119-0.643,0.358-0.882S44.45,18.441,44.8,18.441z"/>
			<path style="fill:#010101;" d="M53.402,34.715c-1.621,0-2.845-0.531-3.672-1.595c-0.827-1.062-1.24-2.623-1.24-4.681
				c0-1.914,0.446-3.391,1.338-4.43c0.893-1.039,2.189-1.559,3.892-1.559c0.663,0,1.336,0.086,2.021,0.256v1.487
				c-0.521-0.164-1.166-0.246-1.938-0.246c-0.998,0-1.755,0.398-2.271,1.194c-0.516,0.797-0.774,1.909-0.774,3.338
				c0,1.538,0.259,2.714,0.774,3.527c0.517,0.813,1.273,1.221,2.271,1.221c0.861,0,1.534-0.079,2.021-0.236v1.415
				C55.09,34.612,54.283,34.715,53.402,34.715z"/>
			<path style="fill:#010101;" d="M62.292,27.814l4.348,6.736h-2.584l-4.102-6.49v6.49H57.77V18.318h2.185v9.701l4.04-5.395h2.389
				L62.292,27.814z"/>
			<path style="fill:#010101;" d="M68.127,34.551V18.318h2.185v16.232H68.127z"/>
			<path style="fill:#010101;" d="M79.479,32.828c-0.738,1.258-1.887,1.887-3.445,1.887c-1.087,0-1.933-0.306-2.538-0.918
				c-0.604-0.611-0.907-1.468-0.907-2.568c0-1.135,0.311-1.98,0.934-2.538c0.621-0.557,1.366-0.905,2.234-1.046
				c0.868-0.14,1.925-0.21,3.169-0.21v-1.405c0-1.387-0.742-2.081-2.226-2.081c-0.854,0-1.896,0.182-3.127,0.544v-1.528
				c1.237-0.342,2.413-0.513,3.527-0.513c1.312,0,2.309,0.316,2.989,0.948c0.68,0.633,1.021,1.563,1.021,2.794v8.357H79.92
				L79.479,32.828z M78.925,28.736h-1.22c-0.979,0-1.711,0.207-2.2,0.621c-0.488,0.413-0.733,1.03-0.733,1.851
				c0,0.67,0.149,1.171,0.446,1.502c0.298,0.332,0.743,0.497,1.339,0.497c0.751,0,1.334-0.238,1.748-0.717
				c0.413-0.479,0.62-1.129,0.62-1.949V28.736z"/>
			<path style="fill:#010101;" d="M87.65,34.715c-1.217,0-2.128-0.316-2.732-0.948c-0.605-0.633-0.908-1.581-0.908-2.846v-8.296
				h2.185v7.916c0,0.896,0.157,1.567,0.472,2.016c0.314,0.447,0.789,0.672,1.426,0.672c0.792,0,1.406-0.301,1.84-0.902
				c0.435-0.602,0.651-1.385,0.651-2.349v-7.353h2.185v11.926h-1.211l-0.44-1.764C90.357,34.072,89.202,34.715,87.65,34.715z"/>
			<path style="fill:#010101;" d="M104.508,34.551h-2.185v-7.916c0-0.896-0.157-1.567-0.472-2.015
				c-0.314-0.448-0.786-0.672-1.415-0.672c-0.793,0-1.408,0.301-1.846,0.902s-0.656,1.384-0.656,2.349v7.352H95.75V22.625h1.221
				l0.441,1.764c0.758-1.291,1.913-1.938,3.465-1.938c1.211,0,2.118,0.318,2.723,0.953c0.605,0.637,0.908,1.587,0.908,2.852V34.551z
				"/>
			<path style="fill:#010101;" d="M111.86,34.715c-1.621,0-2.845-0.531-3.672-1.595c-0.827-1.062-1.24-2.623-1.24-4.681
				c0-1.914,0.446-3.391,1.338-4.43c0.893-1.039,2.189-1.559,3.892-1.559c0.663,0,1.336,0.086,2.021,0.256v1.487
				c-0.521-0.164-1.166-0.246-1.938-0.246c-0.998,0-1.755,0.398-2.271,1.194c-0.516,0.797-0.774,1.909-0.774,3.338
				c0,1.538,0.259,2.714,0.774,3.527c0.517,0.813,1.273,1.221,2.271,1.221c0.861,0,1.534-0.079,2.021-0.236v1.415
				C113.548,34.612,112.741,34.715,111.86,34.715z"/>
			<path style="fill:#010101;" d="M124.985,34.551h-2.185v-8.111c0-0.826-0.157-1.448-0.472-1.865s-0.786-0.626-1.415-0.626
				c-0.793,0-1.408,0.301-1.846,0.902s-0.656,1.384-0.656,2.349v7.352h-2.185V18.318h2.185v5.455
				c0.759-0.881,1.739-1.322,2.942-1.322c1.211,0,2.118,0.323,2.723,0.969c0.605,0.646,0.908,1.612,0.908,2.896V34.551z"/>
		</g>
		<g id="duistatusmenuclose-background">
			<rect x="30" y="170" style="fill:#020202;" width="60" height="60"/>
		</g>
		<g id="duiquicklaunchbar-background">
			<rect x="30" y="70" style="opacity:0.8;fill:#020202;" width="85" height="85"/>
		</g>
	</g>
</g>
</svg>
