<?xml version="1.0" encoding="iso-8859-1"?>
<!-- Generator: Adobe Illustrator 15.0.1, SVG Export Plug-In . SVG Version: 6.00 Build 0)  -->
<!DOCTYPE svg PUBLIC "-//W3C//DTD SVG 1.1//EN" "http://www.w3.org/Graphics/SVG/1.1/DTD/svg11.dtd">
<svg version="1.1" id="switch-temp-layer" xmlns="http://www.w3.org/2000/svg" xmlns:xlink="http://www.w3.org/1999/xlink" x="0px"
	 y="0px" width="410px" height="290px" viewBox="0 0 410 290" style="enable-background:new 0 0 410 290;" xml:space="preserve">
<g id="switch-temp">
	<g id="seattleswitchhelper">
		<g>
			<path d="M222,289.5c-6.341,0-11.5-5.159-11.5-11.5V12c0-6.341,5.159-11.5,11.5-11.5h176c6.341,0,11.5,5.159,11.5,11.5v266
				c0,6.341-5.159,11.5-11.5,11.5H222z"/>
			<g>
				<path style="fill:#A6A8AB;" d="M398,1c6.065,0,11,4.935,11,11v266c0,6.065-4.935,11-11,11H222c-6.065,0-11-4.935-11-11V12
					c0-6.065,4.935-11,11-11H398 M398,0H222c-6.6,0-12,5.4-12,12v266c0,6.6,5.4,12,12,12h176c6.6,0,12-5.4,12-12V12
					C410,5.4,404.6,0,398,0L398,0z"/>
			</g>
		</g>
		<g>
			<path style="fill:#F0F0F1;" d="M12,289.5c-6.341,0-11.5-5.159-11.5-11.5V12C0.5,5.659,5.659,0.5,12,0.5h176
				c6.341,0,11.5,5.159,11.5,11.5v266c0,6.341-5.159,11.5-11.5,11.5H12z"/>
			<path style="fill:#929497;" d="M188,1c6.065,0,11,4.935,11,11v266c0,6.065-4.935,11-11,11H12c-6.065,0-11-4.935-11-11V12
				C1,5.935,5.935,1,12,1H188 M188,0H12C5.4,0,0,5.4,0,12v266c0,6.6,5.4,12,12,12h176c6.6,0,12-5.4,12-12V12C200,5.4,194.6,0,188,0
				L188,0z"/>
		</g>
	</g>
	<g id="meegotouch-switch-off-inverted">
		<g>
			<path style="fill:#333333;" d="M380,134c0,5.5-4.5,10-10,10h-46c-5.5,0-10-4.5-10-10v-22c0-5.5,4.5-10,10-10h46
				c5.5,0,10,4.5,10,10V134z"/>
		</g>
		<g>
			<path style="fill:#1A1A1A;" d="M379,134c0,4.95-4.05,9-9,9h-46c-4.95,0-9-4.05-9-9v-22c0-4.95,4.05-9,9-9h46c4.95,0,9,4.05,9,9
				V134z"/>
		</g>
	</g>
	<g id="meegotouch-switch-on-inverted">
		<g>
			<path style="fill:#333333;" d="M380,82c0,5.5-4.5,10-10,10h-46c-5.5,0-10-4.5-10-10V60c0-5.5,4.5-10,10-10h46c5.5,0,10,4.5,10,10
				V82z"/>
		</g>
		<g>
			<path style="fill:#CCDB2A;" d="M379,82c0,4.95-4.05,9-9,9h-46c-4.95,0-9-4.05-9-9V60c0-4.95,4.05-9,9-9h46c4.95,0,9,4.05,9,9V82z
				"/>
		</g>
		<g style="opacity:0.5;">
			<path d="M379,82c0,4.95-4.05,9-9,9h-46c-4.95,0-9-4.05-9-9V60c0-4.95,4.05-9,9-9h46c4.95,0,9,4.05,9,9V82z"/>
		</g>
	</g>
	<g id="meegotouch-switch-shadow-inverted">
		<g style="opacity:0.1;">
			<path d="M294,208c0,3.3-2.7,6-6,6h-22c-3.3,0-6-2.7-6-6v-22c0-3.3,2.7-6,6-6h22c3.3,0,6,2.7,6,6V208z"/>
		</g>
		<g style="opacity:0.1;">
			<path d="M293,208c0,2.75-2.25,5-5,5h-22c-2.75,0-5-2.25-5-5v-22c0-2.75,2.25-5,5-5h22c2.75,0,5,2.25,5,5V208z"/>
		</g>
		<g style="opacity:0.1;">
			<path d="M292,208c0,2.2-1.8,4-4,4h-22c-2.2,0-4-1.8-4-4v-22c0-2.2,1.8-4,4-4h22c2.2,0,4,1.8,4,4V208z"/>
		</g>
	</g>
	<g id="meegotouch-switch-thumb-disabled-inverted" style="opacity:0.3;">
		<g>
			<path style="fill:#333333;" d="M292,164c0,2.2-1.8,4-4,4h-22c-2.2,0-4-1.8-4-4v-22c0-2.2,1.8-4,4-4h22c2.2,0,4,1.8,4,4V164z"/>
		</g>
		<g>
			<path style="fill:#1A1A1A;" d="M266,167c-1.65,0-3-1.35-3-3v-22c0-1.65,1.35-3,3-3h22c1.65,0,3,1.35,3,3v22c0,1.65-1.35,3-3,3
				H266z"/>
		</g>
	</g>
	<g id="meegotouch-switch-thumb-pressed-inverted">
		<g>
			<path style="fill:#333333;" d="M292,120c0,2.2-1.8,4-4,4h-22c-2.2,0-4-1.8-4-4V98c0-2.2,1.8-4,4-4h22c2.2,0,4,1.8,4,4V120z"/>
		</g>
		<g>
			<path d="M266,123c-1.65,0-3-1.35-3-3V98c0-1.65,1.35-3,3-3h22c1.65,0,3,1.35,3,3v22c0,1.65-1.35,3-3,3H266z"/>
		</g>
	</g>
	<g id="meegotouch-switch-thumb-inverted">
		<g>
			<path style="fill:#333333;" d="M292,82c0,2.2-1.8,4-4,4h-22c-2.2,0-4-1.8-4-4V60c0-2.2,1.8-4,4-4h22c2.2,0,4,1.8,4,4V82z"/>
		</g>
		<g>
			<path style="fill:#4D4D4D;" d="M266,85c-1.65,0-3-1.35-3-3V60c0-1.65,1.35-3,3-3h22c1.65,0,3,1.35,3,3v22c0,1.65-1.35,3-3,3H266z
				"/>
		</g>
	</g>
	<g id="meegotouch-switch-off">
		<g>
			<path d="M170,134c0,5.5-4.5,10-10,10h-46c-5.5,0-10-4.5-10-10v-22c0-5.5,4.5-10,10-10h46c5.5,0,10,4.5,10,10V134z"/>
		</g>
		<g>
			<path style="fill:#808080;" d="M169,134c0,4.95-4.05,9-9,9h-46c-4.95,0-9-4.05-9-9v-22c0-4.95,4.05-9,9-9h46c4.95,0,9,4.05,9,9
				V134z"/>
		</g>
	</g>
	<g id="meegotouch-switch-on">
		<g>
			<path d="M170,82c0,5.5-4.5,10-10,10h-46c-5.5,0-10-4.5-10-10V60c0-5.5,4.5-10,10-10h46c5.5,0,10,4.5,10,10V82z"/>
		</g>
		<g>
			<path style="fill:#CCDB2A;" d="M169,82c0,4.95-4.05,9-9,9h-46c-4.95,0-9-4.05-9-9V60c0-4.95,4.05-9,9-9h46c4.95,0,9,4.05,9,9V82z
				"/>
		</g>
	</g>
	<g id="meegotouch-switch-shadow">
		<g style="opacity:0.1;">
			<path d="M84,208c0,3.3-2.7,6-6,6H56c-3.3,0-6-2.7-6-6v-22c0-3.3,2.7-6,6-6h22c3.3,0,6,2.7,6,6V208z"/>
		</g>
		<g style="opacity:0.1;">
			<path d="M83,208c0,2.75-2.25,5-5,5H56c-2.75,0-5-2.25-5-5v-22c0-2.75,2.25-5,5-5h22c2.75,0,5,2.25,5,5V208z"/>
		</g>
		<g style="opacity:0.1;">
			<path d="M82,208c0,2.2-1.8,4-4,4H56c-2.2,0-4-1.8-4-4v-22c0-2.2,1.8-4,4-4h22c2.2,0,4,1.8,4,4V208z"/>
		</g>
	</g>
	<g id="meegotouch-switch-thumb-disabled" style="opacity:0.3;">
		<g>
			<path d="M82,164c0,2.2-1.8,4-4,4H56c-2.2,0-4-1.8-4-4v-22c0-2.2,1.8-4,4-4h22c2.2,0,4,1.8,4,4V164z"/>
		</g>
		<g>
			<path style="fill:#FFFFFF;" d="M56,167c-1.65,0-3-1.35-3-3v-22c0-1.65,1.35-3,3-3h22c1.65,0,3,1.35,3,3v22c0,1.65-1.35,3-3,3H56z
				"/>
		</g>
	</g>
	<g id="meegotouch-switch-thumb-pressed">
		<g>
			<path d="M82,120c0,2.2-1.8,4-4,4H56c-2.2,0-4-1.8-4-4V98c0-2.2,1.8-4,4-4h22c2.2,0,4,1.8,4,4V120z"/>
		</g>
		<g>
			<path style="fill:#00A652;" d="M56,123c-1.65,0-3-1.35-3-3V98c0-1.65,1.35-3,3-3h22c1.65,0,3,1.35,3,3v22c0,1.65-1.35,3-3,3H56z"
				/>
		</g>
	</g>
	<g id="meegotouch-switch-thumb">
		<g>
			<path d="M82,82c0,2.2-1.8,4-4,4H56c-2.2,0-4-1.8-4-4V60c0-2.2,1.8-4,4-4h22c2.2,0,4,1.8,4,4V82z"/>
		</g>
		<g>
			<path style="fill:#FFFFFF;" d="M56,85c-1.65,0-3-1.35-3-3V60c0-1.65,1.35-3,3-3h22c1.65,0,3,1.35,3,3v22c0,1.65-1.35,3-3,3H56z"
				/>
		</g>
	</g>
</g>
</svg>
