<?xml version="1.0" encoding="iso-8859-1"?>
<!-- Generator: Adobe Illustrator 14.0.0, SVG Export Plug-In . SVG Version: 6.00 Build 43363)  -->
<!DOCTYPE svg PUBLIC "-//W3C//DTD SVG 1.1//EN" "http://www.w3.org/Graphics/SVG/1.1/DTD/svg11.dtd">
<svg version="1.1" id="icon-m-music-video-fm-transmitter-layer"
	 xmlns="http://www.w3.org/2000/svg" xmlns:xlink="http://www.w3.org/1999/xlink" x="0px" y="0px" width="48px" height="48px"
	 viewBox="0 0 48 48" style="enable-background:new 0 0 48 48;" xml:space="preserve">
<g id="icon-m-music-video-fm-transmitter">
	<rect style="fill:none;" width="48" height="48"/>
	<path style="fill:#333333;" d="M35.675,16.871c-0.573,0.373-0.734,1.141-0.362,1.713c0.027,0.041,2.65,4.109,2.633,7.608v0.606
		c0.018,3.479-2.606,7.563-2.633,7.604c-0.371,0.572-0.21,1.339,0.363,1.712c0.209,0.136,0.442,0.199,0.674,0.199
		c0.404,0,0.801-0.198,1.037-0.562c0.125-0.191,3.056-4.739,3.033-8.959v-0.594c0.022-4.227-2.908-8.773-3.033-8.967
		C37.014,16.66,36.247,16.5,35.675,16.871z"/>
	<path style="fill:#333333;" d="M42.854,12.102c-0.484-0.482-1.265-0.48-1.747,0.002c-0.484,0.484-0.482,1.268,0,1.75
		c0.043,0.043,4.316,4.418,4.418,12.451v0.359c-0.102,8.038-4.363,12.412-4.418,12.467c-0.484,0.482-0.485,1.265-0.003,1.75
		c0.241,0.242,0.56,0.363,0.877,0.363c0.315,0,0.632-0.119,0.873-0.359C43.06,40.68,47.886,35.773,48,26.68v-0.391
		C47.886,17.213,43.06,12.305,42.854,12.102z"/>
	<path style="fill:#333333;" d="M0,16.705v18.99c0,0.859,0.695,1.557,1.557,1.557H30.81c0.858,0,1.558-0.697,1.558-1.557v-18.99
		c0-0.86-0.699-1.558-1.558-1.558h-3.767L7.256,5.297C6.758,5.049,6.148,5.256,5.9,5.758L5.714,6.133
		c-0.247,0.5-0.041,1.113,0.457,1.361l15.375,7.653H1.557C0.695,15.147,0,15.845,0,16.705z M18.241,30.744
		c0-2.451,1.986-4.436,4.436-4.438c2.454,0.002,4.438,1.986,4.438,4.438s-1.984,4.436-4.438,4.439
		C20.228,35.18,18.241,33.195,18.241,30.744z M5.188,30.744c0-2.451,1.988-4.436,4.438-4.438c2.452,0.002,4.437,1.986,4.437,4.438
		s-1.985,4.436-4.437,4.439C7.176,35.18,5.188,33.195,5.188,30.744z M3.113,19.324c0-0.58,0.468-1.051,1.042-1.051H28.17
		c0.574,0,1.045,0.471,1.045,1.051v3.502c0,0.576-0.471,1.049-1.045,1.049H12.537l-1.335-4.729l-1.334,4.729H4.155
		c-0.574,0-1.042-0.473-1.042-1.049V19.324z"/>
</g>
</svg>
