<?xml version="1.0" encoding="iso-8859-1"?>
<!-- Generator: Adobe Illustrator 14.0.0, SVG Export Plug-In . SVG Version: 6.00 Build 43363)  -->
<!DOCTYPE svg PUBLIC "-//W3C//DTD SVG 1.1//EN" "http://www.w3.org/Graphics/SVG/1.1/DTD/svg11.dtd">
<svg version="1.1" id="icon-m-camera-scene-portrait-screen-layer"
	 xmlns="http://www.w3.org/2000/svg" xmlns:xlink="http://www.w3.org/1999/xlink" x="0px" y="0px" width="32px" height="32px"
	 viewBox="0 0 32 32" style="enable-background:new 0 0 32 32;" xml:space="preserve">
<g id="icon-m-camera-scene-portrait-screen">
	<rect style="fill:none;" width="32" height="32"/>
	<path style="fill:#FFFFFF;" d="M19.854,10.478L19.85,8.904c-1.526-0.219-2.639-0.975-3.479-1.703
		c-0.089,0.18-0.189,0.359-0.3,0.535c-0.306,0.488-0.68,0.941-1.112,1.346c-1.418,1.332-3.012,1.486-4.086,1.486
		c-0.303,0-0.598-0.016-0.887-0.029c-0.008,0.119-0.022,0.232-0.022,0.357c0,3.432,3.391,7.865,6.018,7.865s5.869-4.703,5.869-8.135
		c0-0.051-0.008-0.094-0.009-0.145L19.854,10.478z"/>
	<path style="fill:#FFFFFF;" d="M15.818,0.762c-3.936,0-7.125,3.189-7.125,7.123c0,0.23,0.014,0.455,0.034,0.682
		c1.794,0,3.468,0.475,4.918-0.885c0.294-0.277,0.572-0.605,0.798-0.965c0.253-0.404,0.44-0.85,0.512-1.307
		c0.025-0.156,0.135-1.789,0.01-1.855c0.841,0.439,1.402,1.002,1.976,1.555c0.897,0.863,2.013,1.938,3.803,1.938
		c0.333,0,0.672-0.039,1.02-0.117c0,0.002,0,0.002,0,0.004l0.012-0.008v1.637l1.131,0.004c0.021-0.227,0.035-0.451,0.035-0.682
		C22.941,3.951,19.752,0.762,15.818,0.762z"/>
	<path style="fill:#FFFFFF;" d="M23,17.5l-7,11l-7-11C5.5,19,3.5,22,3.5,26v5.5h25l-0.008-5.547C28.5,22.5,26.5,19,23,17.5z"/>
</g>
</svg>
