<?xml version="1.0" encoding="iso-8859-1"?>
<!-- Generator: Adobe Illustrator 14.0.0, SVG Export Plug-In . SVG Version: 6.00 Build 43363)  -->
<!DOCTYPE svg PUBLIC "-//W3C//DTD SVG 1.1//EN" "http://www.w3.org/Graphics/SVG/1.1/DTD/svg11.dtd">
<svg version="1.1" id="icon-s-toolbar-favorite-unmark-layer"
	 xmlns="http://www.w3.org/2000/svg" xmlns:xlink="http://www.w3.org/1999/xlink" x="0px" y="0px" width="18px" height="18px"
	 viewBox="0 0 18 18" style="enable-background:new 0 0 18 18;" xml:space="preserve">
<g id="icon-s-toolbar-favorite-unmark_1_">
	<rect style="fill:none;" width="18" height="18"/>
	<path style="fill:#FFFFFF;" d="M14.272,17.486L14.272,17.486c-0.157,0-0.323-0.055-0.489-0.168l-4.624-3.082
		C9.139,14.224,9.083,14.201,9,14.201c-0.084,0-0.141,0.022-0.16,0.035l-4.624,3.082c-0.385,0.257-0.791,0.199-0.998-0.088
		c-0.095-0.133-0.183-0.365-0.063-0.724l1.794-5.339c0.021-0.066-0.021-0.206-0.078-0.249l-4.37-3.246
		C0.068,7.35,0.126,6.998,0.171,6.863c0.045-0.137,0.208-0.452,0.748-0.452h5.462c0.071,0,0.193-0.087,0.216-0.154l1.738-5.175
		C8.505,0.569,8.856,0.515,9,0.515c0.143,0,0.494,0.055,0.664,0.567l1.737,5.175c0.023,0.067,0.145,0.154,0.216,0.154h5.463
		c0.541,0,0.703,0.315,0.748,0.452c0.045,0.135,0.104,0.486-0.331,0.81l-4.369,3.246c-0.056,0.043-0.101,0.183-0.078,0.249
		l1.793,5.339c0.12,0.358,0.032,0.593-0.063,0.724C14.662,17.394,14.478,17.486,14.272,17.486L14.272,17.486z M9,13.159
		c0.271,0,0.532,0.075,0.736,0.21l3.804,2.535L12.062,11.5c-0.166-0.497,0.024-1.106,0.444-1.418l3.536-2.628l-4.426-0.001
		c-0.521,0-1.038-0.371-1.204-0.866L9,2.374L7.585,6.587C7.419,7.082,6.901,7.453,6.381,7.453H1.957l3.536,2.629
		c0.42,0.312,0.611,0.921,0.445,1.418l-1.479,4.404l3.805-2.535C8.466,13.234,8.728,13.159,9,13.159L9,13.159z"/>
</g>
</svg>
