<?xml version="1.0" encoding="iso-8859-1"?>
<!-- Generator: Adobe Illustrator 14.0.0, SVG Export Plug-In . SVG Version: 6.00 Build 43363)  -->
<!DOCTYPE svg PUBLIC "-//W3C//DTD SVG 1.1//EN" "http://www.w3.org/Graphics/SVG/1.1/DTD/svg11.dtd">
<svg version="1.1" id="icon-m-common-35g-layer" xmlns="http://www.w3.org/2000/svg" xmlns:xlink="http://www.w3.org/1999/xlink"
	 x="0px" y="0px" width="48px" height="48px" viewBox="0 0 48 48" style="enable-background:new 0 0 48 48;" xml:space="preserve">
<g id="icon-m-common-35g">
	<rect style="fill:none;" width="48" height="48"/>
	<path style="fill:#333333;" d="M8.222,13.444c-1.759,0-3.595,0.458-5.431,0.956v-3.71c1.989-0.497,4.322-0.918,6.694-0.918
		c5.239,0,9.026,1.76,9.026,6.923c0,3.251-1.798,5.469-5.049,6.464c3.595,0.65,5.545,3.099,5.545,6.502
		c0,6.119-3.862,8.567-10.632,8.567c-2.256,0-4.245-0.307-6.425-0.881v-3.709c2.295,0.535,4.092,0.918,5.813,0.918
		c3.519,0,4.896-1.684,4.896-4.781c0-4.092-2.371-4.818-8.262-4.818v-3.52c5.661,0,7.918-0.611,7.918-4.321
		C12.314,14.63,10.937,13.444,8.222,13.444z"/>
	<path style="fill:#333333;" d="M25.166,38.229c-1.874,0-3.365-1.492-3.365-3.367c0-1.873,1.492-3.403,3.365-3.403
		c1.875,0,3.404,1.53,3.404,3.403C28.57,36.736,27.041,38.229,25.166,38.229z"/>
	<path style="fill:#333333;" d="M37.635,20.061c0.498-0.076,1.109-0.076,1.684-0.076c5.393,0,8.682,2.945,8.682,8.797
		c0,6.349-3.252,9.447-10.365,9.447c-2.256,0-4.513-0.345-6.54-0.842v-3.748c1.913,0.496,3.634,0.918,5.431,0.918
		c3.672,0,5.125-1.836,5.125-5.584c0-3.252-1.683-5.202-5.621-5.202c-1.225,0-2.869,0.039-4.055,0.191V10.079h14.954v3.671h-9.294
		V20.061z"/>
</g>
</svg>
