<?xml version="1.0" encoding="iso-8859-1"?>
<!-- Generator: Adobe Illustrator 14.0.0, SVG Export Plug-In . SVG Version: 6.00 Build 43363)  -->
<!DOCTYPE svg PUBLIC "-//W3C//DTD SVG 1.1//EN" "http://www.w3.org/Graphics/SVG/1.1/DTD/svg11.dtd">
<svg version="1.1" id="icon-m-toolbar-reply-layer" xmlns="http://www.w3.org/2000/svg" xmlns:xlink="http://www.w3.org/1999/xlink"
	 x="0px" y="0px" width="32px" height="32px" viewBox="0 0 32 32" style="enable-background:new 0 0 32 32;" xml:space="preserve">
<g id="icon-m-toolbar-reply">
	<rect style="fill:none;" width="32" height="32"/>
	<path style="fill:#FFFFFF;" d="M1.6,16c0,7.952,6.447,14.4,14.4,14.4S30.4,23.952,30.4,16c0-7.953-6.447-14.4-14.4-14.4
		S1.6,8.047,1.6,16z M7.375,15.613l6.636-6.898c0.386-0.352,0.884-0.008,0.884,0.395v3.435l9.374,0.003
		c0.296-0.003,0.532,0.232,0.532,0.533v5.119c0.001,0.33-0.278,0.529-0.532,0.529h-9.374v4.141c0,0.358-0.427,0.811-0.884,0.395
		L7.377,16.4C7.141,16.189,7.142,15.823,7.375,15.613z"/>
</g>
</svg>
