<?xml version="1.0" encoding="iso-8859-1"?>
<!-- Generator: Adobe Illustrator 14.0.0, SVG Export Plug-In . SVG Version: 6.00 Build 43363)  -->
<!DOCTYPE svg PUBLIC "-//W3C//DTD SVG 1.1//EN" "http://www.w3.org/Graphics/SVG/1.1/DTD/svg11.dtd">
<svg version="1.1" id="icon-s-status-latin-uppercase-layer"
	 xmlns="http://www.w3.org/2000/svg" xmlns:xlink="http://www.w3.org/1999/xlink" x="0px" y="0px" width="30px" height="16px"
	 viewBox="0 0 30 16" style="enable-background:new 0 0 30 16;" xml:space="preserve">
<g id="icon-s-status-latin-uppercase">
	<rect style="fill:none;" width="30" height="16"/>
	<path style="fill:#FFFFFF;" d="M10.912,15.652H8.711l-0.96-3.342H2.91l-0.96,3.342h-1.92L4.35,1.088h2.32L10.912,15.652z
		 M7.371,10.852l-2.02-7.583L3.29,10.852H7.371z"/>
	<path style="fill:#FFFFFF;" d="M14.53,5.35c0.8-0.86,1.621-1.221,2.76-1.221c3.04,0,3.821,2.701,3.821,5.621
		c0,3.781-1.841,6.002-4.842,6.002c-1.56,0-2.46-0.039-3.82-0.201V0.188h2.081V5.35z M14.53,14.23c0.44,0.061,1.1,0.1,1.621,0.1
		c2.32,0,2.801-1.959,2.801-4.641c0-1.439-0.181-4.141-2.141-4.141c-2.221,0-2.281,2.361-2.281,4.381V14.23z"/>
	<path style="fill:#FFFFFF;" d="M29.971,15.512c-0.78,0.221-1.48,0.301-2.301,0.301c-3.641,0-4.681-2.822-4.681-5.982
		c0-3.261,1.42-5.701,4.981-5.701c0.68,0,1.26,0.081,1.92,0.24v1.42c-0.641-0.2-1.18-0.24-1.84-0.24
		c-2.381,0-2.901,2.421-2.901,4.32c0,1.922,0.44,4.521,2.901,4.521c0.68,0,1.26-0.02,1.92-0.221V15.512z"/>
</g>
</svg>
