<?xml version="1.0" encoding="iso-8859-1"?>
<!-- Generator: Adobe Illustrator 14.0.0, SVG Export Plug-In . SVG Version: 6.00 Build 43363)  -->
<!DOCTYPE svg PUBLIC "-//W3C//DTD SVG 1.1//EN" "http://www.w3.org/Graphics/SVG/1.1/DTD/svg11.dtd">
<svg version="1.1" id="icon-m-content-videostream-layer"
	 xmlns="http://www.w3.org/2000/svg" xmlns:xlink="http://www.w3.org/1999/xlink" x="0px" y="0px" width="48px" height="48px"
	 viewBox="0 0 48 48" style="enable-background:new 0 0 48 48;" xml:space="preserve">
<g id="icon-m-content-videostream_2_">
	<rect style="fill:none;" width="48" height="48"/>
	<path style="fill:#333333;" d="M36.384,5.97h1.395V3.902h-27.75v2.043V5.97h1.407c0.284,0,0.518,0.231,0.518,0.518v2.047
		c0,0.285-0.233,0.98-0.518,0.98h-1.407v0.024v1.284v0.017h6.07v10.406h-6.07v0.016v1.719v0.023h1.407
		c0.284,0,0.518,0.234,0.518,0.519v2.047c0,0.286-0.233,0.519-0.518,0.519h-1.407v0.023v1.639h27.75v-1.662h-1.395
		c-0.286,0-0.519-0.232-0.519-0.519V23.5c0-0.287,0.232-0.52,0.519-0.52h1.395v-1.734h-1.301V10.84h1.301V9.539h-1.395
		c-0.286,0-0.519-0.695-0.519-0.982V6.487C35.865,6.201,36.098,5.97,36.384,5.97z M29.131,6.487c0-0.286,0.234-0.518,0.52-0.518
		h2.071c0.284,0,0.518,0.231,0.518,0.518v2.069c0,0.287-0.233,0.982-0.518,0.982H29.65c-0.285,0-0.52-0.695-0.52-0.982V6.487z
		 M22.375,6.487c0-0.286,0.235-0.518,0.519-0.518h2.073c0.285,0,0.517,0.231,0.517,0.518v2.069c0,0.287-0.232,0.982-0.517,0.982
		h-2.073c-0.284,0-0.519-0.695-0.519-0.982V6.487z M18.708,25.569c0,0.286-0.233,0.519-0.519,0.519h-2.071
		c-0.286,0-0.517-0.232-0.517-0.519v-2.047c0-0.284,0.231-0.519,0.517-0.519h2.071c0.286,0,0.519,0.234,0.519,0.519V25.569z
		 M18.708,8.534c0,0.285-0.233,0.98-0.519,0.98h-2.071c-0.286,0-0.517-0.695-0.517-0.98V6.487c0-0.286,0.231-0.518,0.517-0.518
		h2.071c0.286,0,0.519,0.231,0.519,0.518V8.534z M25.484,25.569c0,0.286-0.232,0.519-0.517,0.519h-2.073
		c-0.284,0-0.519-0.232-0.519-0.519V23.5c0-0.287,0.235-0.52,0.519-0.52h2.073c0.285,0,0.517,0.232,0.517,0.52V25.569z
		 M32.239,25.569c0,0.286-0.233,0.519-0.518,0.519H29.65c-0.285,0-0.52-0.232-0.52-0.519V23.5c0-0.287,0.234-0.52,0.52-0.52h2.071
		c0.284,0,0.518,0.232,0.518,0.52V25.569z M33.442,21.246l-14.734,0.016v-0.016H18.7V10.84h0.008v-0.017h14.734V21.246z"/>
	<circle style="fill:#333333;" cx="23.982" cy="41.35" r="6.643"/>
	<circle style="fill:#333333;" cx="11.158" cy="41.35" r="4.117"/>
	<circle style="fill:#333333;" cx="2.62" cy="41.35" r="2.62"/>
	<circle style="fill:#333333;" cx="36.808" cy="41.35" r="4.116"/>
	<circle style="fill:#333333;" cx="45.38" cy="41.35" r="2.62"/>
</g>
</svg>
