<?xml version="1.0" encoding="iso-8859-1"?>
<!-- Generator: Adobe Illustrator 14.0.0, SVG Export Plug-In . SVG Version: 6.00 Build 43363)  -->
<!DOCTYPE svg PUBLIC "-//W3C//DTD SVG 1.1//EN" "http://www.w3.org/Graphics/SVG/1.1/DTD/svg11.dtd">
<svg version="1.1" id="icon-m-camera-postcapture-view-3sec-screen-layer"
	 xmlns="http://www.w3.org/2000/svg" xmlns:xlink="http://www.w3.org/1999/xlink" x="0px" y="0px" width="32px" height="32px"
	 viewBox="0 0 32 32" style="enable-background:new 0 0 32 32;" xml:space="preserve">
<g id="icon-m-camera-postcapture-view-3sec-screen">
	<rect style="fill:none;" width="32" height="32"/>
	<path style="fill:#FFFFFF;" d="M15.841,10.458c0.251,0,0.477-0.098,0.652-0.25c0.232,0.331,0.563,0.539,0.932,0.539
		c0.366,0,0.698-0.208,0.933-0.539c0.173,0.152,0.4,0.25,0.65,0.25c0.548,0,0.99-0.446,0.99-0.996c0-0.551-0.442-0.997-0.99-0.997
		c-0.127,0-0.246,0.025-0.357,0.07c-0.16-0.706-0.648-1.22-1.226-1.22c-0.578,0-1.066,0.514-1.226,1.22
		c-0.111-0.045-0.231-0.07-0.358-0.07c-0.547,0-0.992,0.446-0.992,0.997C14.85,10.012,15.294,10.458,15.841,10.458z"/>
	<path style="fill:#FFFFFF;" d="M15.153,14.846c-1.43-3.308-4.349-7.44-7.029,2.607h5.625
		C14.642,15.716,16.163,12.612,15.153,14.846z"/>
	<path style="fill:#FFFFFF;" d="M6.25,6.25h19.5v8.25c1.125,0.75,1.875,1.875,1.875,1.875V5.125c0,0,0-0.75-0.75-0.75H5.125
		c-0.75,0-0.75,0.75-0.75,0.75v15c0,0.75,0.75,0.75,0.75,0.75H13C13,19.75,13.375,19,13.375,19H6.25V6.25z"/>
	<path style="fill:#FFFFFF;" d="M21.625,14.582V13.57h1.125v-1.5h-3.375v1.5H20.5v1.01c-3.304,0.325-6.02,3.118-6.02,6.506
		c0,3.605,2.933,6.539,6.539,6.539c3.604,0,6.54-2.934,6.54-6.539C27.559,17.707,24.916,14.918,21.625,14.582z M20.65,26.362
		c-0.795,0-1.494-0.108-2.26-0.311v-1.304c0.807,0.188,1.439,0.321,2.045,0.321c1.236,0,1.722-0.591,1.722-1.681
		c0-1.439-0.835-1.693-2.907-1.693v-1.239c1.992,0,2.786-0.215,2.786-1.521c0-0.875-0.484-1.291-1.44-1.291
		c-0.617,0-1.264,0.162-1.91,0.336v-1.305c0.7-0.175,1.521-0.322,2.354-0.322c1.843,0,3.175,0.619,3.175,2.434
		c0,1.145-0.633,1.926-1.775,2.273c1.265,0.229,1.951,1.09,1.951,2.289C24.391,25.501,23.03,26.362,20.65,26.362z"/>
</g>
</svg>
