<?xml version="1.0" encoding="iso-8859-1"?>
<!-- Generator: Adobe Illustrator 14.0.0, SVG Export Plug-In . SVG Version: 6.00 Build 43363)  -->
<!DOCTYPE svg PUBLIC "-//W3C//DTD SVG 1.1//EN" "http://www.w3.org/Graphics/SVG/1.1/DTD/svg11.dtd">
<svg version="1.1" id="icon-m-camera-whitebalance-cloudy-screen-layer"
	 xmlns="http://www.w3.org/2000/svg" xmlns:xlink="http://www.w3.org/1999/xlink" x="0px" y="0px" width="32px" height="32px"
	 viewBox="0 0 32 32" style="enable-background:new 0 0 32 32;" xml:space="preserve">
<g id="icon-m-camera-whitebalance-cloudy-screen">
	<rect style="fill:none;" width="32" height="32"/>
	<path style="fill:#FFFFFF;" d="M10.007,17.04c0.301-0.652,0.621-1.238,0.953-1.759c-1.091-0.538-1.847-1.659-1.847-2.957
		c0-1.817,1.479-3.296,3.296-3.296c1.498,0,2.763,1.004,3.163,2.375c0.71-0.242,1.378-0.353,1.965-0.388
		c-0.585-2.292-2.655-3.987-5.127-3.987c-2.925,0-5.296,2.371-5.296,5.296C7.113,14.383,8.291,16.164,10.007,17.04z"/>
	<path style="fill:#FFFFFF;" d="M13.625,4.586V1.773c0-0.505-0.441-0.948-0.946-0.948h-0.356c-0.522,0-0.948,0.426-0.948,0.947
		v2.814c0,0.253,0.098,0.49,0.279,0.67c0.178,0.178,0.417,0.278,0.668,0.277h0.355c0.252,0,0.49-0.1,0.67-0.277
		C13.526,5.077,13.625,4.839,13.625,4.586z"/>
	<path style="fill:#FFFFFF;" d="M4.628,11.375H1.814c-0.505,0-0.947,0.442-0.947,0.946l0,0.355c0,0.523,0.426,0.948,0.947,0.948
		h2.814c0.253,0,0.49-0.099,0.67-0.278c0.178-0.179,0.277-0.416,0.277-0.67v-0.354c0-0.253-0.099-0.491-0.278-0.671
		C5.118,11.474,4.88,11.375,4.628,11.375z"/>
	<path style="fill:#FFFFFF;" d="M7.726,6.093l-1.99-1.988c-0.357-0.358-0.983-0.358-1.339,0L4.146,4.355
		c-0.37,0.368-0.37,0.97,0,1.339l1.989,1.99c0.179,0.179,0.416,0.276,0.67,0.276s0.492-0.098,0.67-0.276l0.251-0.251
		c0.179-0.179,0.277-0.418,0.277-0.671C8.003,6.509,7.905,6.271,7.726,6.093z"/>
	<path style="fill:#FFFFFF;" d="M20.834,4.355l-0.252-0.251c-0.356-0.358-0.981-0.358-1.338,0l-1.99,1.988
		c-0.37,0.369-0.37,0.97,0,1.341l0.252,0.251c0.178,0.179,0.416,0.276,0.67,0.276c0.253,0,0.49-0.098,0.67-0.276l1.988-1.99
		C21.203,5.325,21.203,4.724,20.834,4.355z"/>
	<path style="fill:#FFFFFF;" d="M18.5,31.5c-1.718,0-3.643-0.474-4.936-1.886C12.672,30.144,11.529,30.5,10.5,30.5
		c-3.215,0-5.5-2.771-5.5-6s2.416-5.786,5.632-5.786c0.331,0,1.051,0.23,1.368,0.286c1.13-3.394,3.065-5.5,6-5.5
		c2.934,0,5.369,2.106,6.5,5.5c0.316-0.056,1-0.286,1.33-0.286c3.216,0,5.67,2.557,5.67,5.786s-2.285,6-5.5,6
		c-1.027,0-2.205-0.356-3.094-0.884C21.602,31.043,20.241,31.5,18.5,31.5L18.5,31.5z M13.953,26.559l0.687,0.978
		c0.969,1.377,2.244,2.136,3.593,2.136c1.342,0,2.622-0.761,3.604-2.141l0.689-0.972l0.894,0.789
		c0.683,0.602,1.54,0.936,2.411,0.936c2.032,0,3.687-1.666,3.687-3.713c0-2.048-1.654-3.715-3.687-3.715
		c-0.457,0-0.893,0.088-1.296,0.257l-1.179,0.496l-0.283-1.246c-0.671-2.958-2.662-4.863-4.84-4.863c-2.18,0-4.17,1.905-4.839,4.863
		l-0.283,1.246l-1.178-0.496c-0.405-0.169-0.842-0.257-1.301-0.257c-2.034,0-3.688,1.667-3.688,3.715
		c0,2.047,1.654,3.713,3.688,3.713c0.875,0,1.736-0.334,2.424-0.938L13.953,26.559L13.953,26.559z"/>
</g>
</svg>
