<?xml version="1.0" encoding="iso-8859-1"?>
<!-- Generator: Adobe Illustrator 14.0.0, SVG Export Plug-In . SVG Version: 6.00 Build 43363)  -->
<!DOCTYPE svg PUBLIC "-//W3C//DTD SVG 1.1//EN" "http://www.w3.org/Graphics/SVG/1.1/DTD/svg11.dtd">
<svg version="1.1" id="icon-l-common-video-playback-layer"
	 xmlns="http://www.w3.org/2000/svg" xmlns:xlink="http://www.w3.org/1999/xlink" x="0px" y="0px" width="86px" height="86px"
	 viewBox="0 0 86 86" style="enable-background:new 0 0 86 86;" xml:space="preserve">
<g id="icon-l-common-video-playback_2_">
	<path style="fill:#FFFFFF;" d="M43.008,0C19.26,0,0,19.254,0,42.994C0,66.746,19.26,86,43.008,86C66.746,86,86,66.746,86,42.994
		C86,19.254,66.746,0,43.008,0z M43.012,77.596C23.895,77.561,8.444,62.104,8.41,42.994C8.441,23.887,23.897,8.436,43.008,8.402
		c19.1,0.033,34.555,15.484,34.591,34.592C77.563,62.106,62.107,77.561,43.012,77.596z"/>
	<g>
		<path style="fill:#FFFFFF;" d="M29.341,22.066c0-1.1,0.782-1.554,1.737-1.009l36.701,20.951c0.956,0.545,0.956,1.438,0,1.982
			L31.078,64.942c-0.955,0.545-1.737,0.091-1.737-1.009V22.066z"/>
	</g>
</g>
</svg>
