<?xml version="1.0" encoding="iso-8859-1"?>
<!-- Generator: Adobe Illustrator 14.0.0, SVG Export Plug-In . SVG Version: 6.00 Build 43363)  -->
<!DOCTYPE svg PUBLIC "-//W3C//DTD SVG 1.1//EN" "http://www.w3.org/Graphics/SVG/1.1/DTD/svg11.dtd">
<svg version="1.1" id="icon-m-camera-exposure-0-layer"
	 xmlns="http://www.w3.org/2000/svg" xmlns:xlink="http://www.w3.org/1999/xlink" x="0px" y="0px" width="32px" height="32px"
	 viewBox="0 0 32 32" style="enable-background:new 0 0 32 32;" xml:space="preserve">
<g id="icon-m-camera-exposure-0">
	<g>
		<rect style="fill:none;" width="32" height="32"/>
	</g>
	<g>
		<path style="fill:#FFFFFF;" d="M16.054,9.49c1.278,0,2.244,0.454,2.897,1.361c0.652,0.908,0.979,2.51,0.979,4.807
			c0,2.518-0.33,4.227-0.991,5.126s-1.637,1.349-2.926,1.349c-1.129,0-1.981-0.299-2.557-0.896s-0.951-1.354-1.125-2.266
			c-0.175-0.914-0.262-2.018-0.262-3.313c0-2.252,0.335-3.844,1.004-4.773S14.736,9.49,16.054,9.49z M15.996,20.755
			c0.564,0,0.978-0.317,1.241-0.95c0.262-0.634,0.395-2.016,0.395-4.146c0-2.047-0.136-3.357-0.406-3.931
			c-0.272-0.572-0.681-0.858-1.229-0.858c-0.498,0-0.865,0.199-1.1,0.598s-0.382,0.918-0.439,1.561
			c-0.059,0.642-0.087,1.519-0.087,2.631c0,2.191,0.13,3.589,0.39,4.191C15.019,20.453,15.431,20.755,15.996,20.755z"/>
	</g>
</g>
</svg>
