<?xml version="1.0" encoding="iso-8859-1"?>
<!-- Generator: Adobe Illustrator 14.0.0, SVG Export Plug-In . SVG Version: 6.00 Build 43363)  -->
<!DOCTYPE svg PUBLIC "-//W3C//DTD SVG 1.1//EN" "http://www.w3.org/Graphics/SVG/1.1/DTD/svg11.dtd">
<svg version="1.1" id="icon-m-common-simcard-layer"
	 xmlns="http://www.w3.org/2000/svg" xmlns:xlink="http://www.w3.org/1999/xlink" x="0px" y="0px" width="48px" height="48px"
	 viewBox="0 0 48 48" style="enable-background:new 0 0 48 48;" xml:space="preserve">
<g id="icon-m-common-simcard">
	<rect style="fill:none;" width="48" height="48"/>
	<rect x="8" y="8" style="fill:none;" width="32" height="32"/>
	<g>
		<g>
			<path d="M27,30c-0.55,0-1-0.45-1-1V19c0-0.55,0.45-1,1-1h8c0.55,0,1,0.45,1,1v10c0,0.55-0.45,1-1,1H27z"/>
		</g>
		<path d="M17,12c-0.55,0-1.355,0.277-1.788,0.616l-7.424,5.812C7.354,18.766,7,19.494,7,20.043V35c0,0.55,0.45,1,1,1h32
			c0.55,0,1-0.45,1-1V13c0-0.55-0.45-1-1-1H17z M38,33H10V21c0,0,7-6.001,6.999-6.002S38,14.904,38,14.904V33z"/>
	</g>
</g>
</svg>
