<?xml version="1.0" encoding="iso-8859-1"?>
<!-- Generator: Adobe Illustrator 14.0.0, SVG Export Plug-In . SVG Version: 6.00 Build 43363)  -->
<!DOCTYPE svg PUBLIC "-//W3C//DTD SVG 1.1//EN" "http://www.w3.org/Graphics/SVG/1.1/DTD/svg11.dtd">
<svg version="1.1" id="icon-m-content-attachment-layer"
	 xmlns="http://www.w3.org/2000/svg" xmlns:xlink="http://www.w3.org/1999/xlink" x="0px" y="0px" width="48px" height="48px"
	 viewBox="0 0 48 48" style="enable-background:new 0 0 48 48;" xml:space="preserve">
<g id="icon-m-content-attachment">
	<rect style="fill:none;" width="48" height="48"/>
	<path style="fill:#333333;" d="M34.825,10.675c0-0.794-0.653-1.442-1.456-1.442c-0.805,0-1.455,0.648-1.455,1.442
		c0,0.101,0,27.099,0,27.099c-0.289,4.094-3.713,7.325-7.914,7.331c-4.199-0.006-7.604-3.234-7.893-7.324V7.442
		c0.42-2.575,2.682-4.544,5.398-4.549c2.724,0.005,5.029,1.983,5.44,4.569l-0.008,21.396h-0.002c0.001,0.022,0.006,0.04,0.006,0.061
		c-0.002,1.425-1.166,2.581-2.606,2.583c-1.438-0.002-2.602-1.156-2.606-2.58v-0.006c0-0.021,0.005-0.037,0.006-0.058h-0.006
		L21.72,10.586c-0.048-0.752-0.675-1.354-1.448-1.354c-0.772,0-1.396,0.602-1.445,1.354l-0.009,18.328v0.005v0.005v0.057h0.003
		c0.034,2.992,2.488,5.406,5.514,5.406c3.048,0,5.517-2.449,5.517-5.468c0-0.02-0.003-0.038-0.003-0.061h-0.001L29.829,7.463
		c-0.427-4.186-3.989-7.455-8.324-7.455s-7.917,3.27-8.342,7.455l-0.001,30.311C13.447,43.465,18.189,47.989,24,47.992
		c5.811-0.003,10.553-4.529,10.839-10.219C34.839,37.773,34.825,10.775,34.825,10.675z"/>
</g>
</svg>
