<?xml version="1.0" encoding="iso-8859-1"?>
<!-- Generator: Adobe Illustrator 14.0.0, SVG Export Plug-In . SVG Version: 6.00 Build 43363)  -->
<!DOCTYPE svg PUBLIC "-//W3C//DTD SVG 1.1//EN" "http://www.w3.org/Graphics/SVG/1.1/DTD/svg11.dtd">
<svg version="1.1" id="icon-m-content-image-layer" xmlns="http://www.w3.org/2000/svg" xmlns:xlink="http://www.w3.org/1999/xlink"
	 x="0px" y="0px" width="48px" height="48px" viewBox="0 0 48 48" style="enable-background:new 0 0 48 48;" xml:space="preserve">
<g id="icon-m-content-image">
	<rect style="fill:none;" width="48" height="48"/>
	<path style="fill:#333333;" d="M29.215,19.254c0.664,0,1.265-0.26,1.729-0.662c0.618,0.878,1.494,1.43,2.471,1.43
		c0.973,0,1.849-0.552,2.469-1.43c0.464,0.402,1.064,0.662,1.726,0.662c1.456,0,2.63-1.182,2.63-2.64
		c0-1.463-1.174-2.644-2.63-2.644c-0.333,0-0.651,0.065-0.948,0.187c-0.422-1.87-1.715-3.235-3.246-3.235
		c-1.532,0-2.826,1.365-3.25,3.235c-0.295-0.121-0.613-0.187-0.949-0.187c-1.451,0-2.627,1.181-2.627,2.644
		C26.588,18.072,27.764,19.254,29.215,19.254z"/>
	<path style="fill:#333333;" d="M27.326,29.428C23.41,20.373,15.503,9.779,8.17,37.276h31.66
		C39.83,37.276,33.849,14.993,27.326,29.428z"/>
	<path style="fill:#333333;" d="M0,3.574v40.852h48V3.574H0z M4.085,40.34V7.558l39.829-0.031V40.34H4.085z"/>
</g>
</svg>
