<?xml version="1.0" encoding="iso-8859-1"?>
<!-- Generator: Adobe Illustrator 14.0.0, SVG Export Plug-In . SVG Version: 6.00 Build 43363)  -->
<!DOCTYPE svg PUBLIC "-//W3C//DTD SVG 1.1//EN" "http://www.w3.org/Graphics/SVG/1.1/DTD/svg11.dtd">
<svg version="1.1" id="icon-s-status-cyrillic-caps-layer"
	 xmlns="http://www.w3.org/2000/svg" xmlns:xlink="http://www.w3.org/1999/xlink" x="0px" y="0px" width="36px" height="15px"
	 viewBox="0 0 36 15" style="enable-background:new 0 0 36 15;" xml:space="preserve">
<g id="icon-s-status-cyrillic-caps">
	<rect x="1" style="fill:none;" width="33" height="15"/>
	<path style="fill:#FFFFFF;" d="M36.096,3.871"/>
	<path style="fill:#FFFFFF;" d="M12.231,14.781h-2.201l-0.96-3.34H4.229l-0.96,3.34h-1.92L5.67,0.219h2.32L12.231,14.781z
		 M8.69,9.98L6.67,2.398L4.609,9.98H8.69z"/>
	<path style="fill:#FFFFFF;" d="M24.928,14.781V0.219h4.242c2.381,0,4.061,0.881,4.061,3.521c0,1.64-0.76,2.78-2.301,3.36
		c1.9,0.441,2.721,1.661,2.721,3.582c0,3-1.961,4.1-4.781,4.1H24.928z M28.529,6.54c1.781,0,2.541-0.881,2.541-2.601
		c0-1.52-0.721-2.26-2.24-2.26h-1.82v4.86H28.529z M28.77,13.322c1.98,0,2.721-0.842,2.721-2.701c0-1.86-0.939-2.721-2.76-2.721
		H27.01v5.422H28.77z"/>
	<g>
		<path style="fill:#FFFFFF;" d="M18.121,6.46c1.6,0,2.821,0.341,3.62,1.04c0.801,0.701,1.201,1.74,1.201,3.121
			s-0.42,2.42-1.24,3.121c-0.84,0.7-2.08,1.039-3.741,1.039h-4.641V0.219h8.302V1.68H15.46v4.78H18.121z M15.46,13.361h2.32
			c1.081,0,1.841-0.199,2.28-0.641c0.461-0.42,0.68-1.119,0.68-2.1s-0.219-1.681-0.68-2.101c-0.439-0.439-1.2-0.64-2.28-0.64h-2.32
			V13.361z"/>
	</g>
</g>
</svg>
