<?xml version="1.0" encoding="iso-8859-1"?>
<!-- Generator: Adobe Illustrator 14.0.0, SVG Export Plug-In . SVG Version: 6.00 Build 43363)  -->
<!DOCTYPE svg PUBLIC "-//W3C//DTD SVG 1.1//EN" "http://www.w3.org/Graphics/SVG/1.1/DTD/svg11.dtd">
<svg version="1.1" id="icon-m-music-video-now-playing8-layer"
	 xmlns="http://www.w3.org/2000/svg" xmlns:xlink="http://www.w3.org/1999/xlink" x="0px" y="0px" width="48px" height="48px"
	 viewBox="0 0 48 48" style="enable-background:new 0 0 48 48;" xml:space="preserve">
<g id="icon-m-music-video-now-playing8">
	<polygon style="fill:none;" points="48,48 0,47.907 0,0 48,0 	"/>
	<g>
		<path style="fill:#333333;" d="M17.415,16.258c0-1.1,0.782-1.554,1.737-1.009l13.527,7.723c0.956,0.545,0.956,1.438,0,1.982
			l-13.527,7.725c-0.955,0.545-1.737,0.091-1.737-1.009V16.258z"/>
	</g>
	<path style="fill:#333333;" d="M37.502,10.501C30.045,3.043,17.955,3.043,10.498,10.5s-7.457,19.547-0.001,27.002
		c7.456,7.457,19.546,7.457,27.003,0c1.312-1.311,2.389-2.768,3.24-4.318l-2.217-2.215c-0.767,1.598-1.809,3.1-3.133,4.426
		c-6.281,6.281-16.502,6.279-22.783-0.001s-6.281-16.501,0-22.783c6.281-6.282,16.503-6.282,22.784-0.001
		c2.902,2.902,4.455,6.647,4.675,10.455l-4.383,0.002l5.906,5.907l5.908-5.908H43.06C42.838,18.496,40.991,13.988,37.502,10.501z"/>
</g>
</svg>
