<?xml version="1.0" encoding="iso-8859-1"?>
<!-- Generator: Adobe Illustrator 14.0.0, SVG Export Plug-In . SVG Version: 6.00 Build 43363)  -->
<!DOCTYPE svg PUBLIC "-//W3C//DTD SVG 1.1//EN" "http://www.w3.org/Graphics/SVG/1.1/DTD/svg11.dtd">
<svg version="1.1" id="icon-l-ovi-store-layer" xmlns="http://www.w3.org/2000/svg" xmlns:xlink="http://www.w3.org/1999/xlink"
	 x="0px" y="0px" width="80px" height="81px" viewBox="0 0 80 81" style="enable-background:new 0 0 80 81;" xml:space="preserve">
<g id="icon-l-ovi-store_2_">
	<path style="fill:#349FD9;" d="M32.11,50.795c0,2.915-0.296,4.723-1.772,4.723c-1.544,0-1.751-2.387-1.751-4.723
		c0-2.926,0.506-4.12,1.751-4.12C31.805,46.675,32.11,48.914,32.11,50.795z M66.035,69h-52.07l2.807-43.558h8.499l3.814-7.485
		c0.36-1.174,3.372-6.72,10.632-6.938L40.202,11l0.071,0.019c7.298,0.213,10.287,5.756,10.642,6.938l3.815,7.485h8.5L66.035,69z
		 M30.254,25.442h19.498l-3.039-5.991c-1.677-3.251-4.58-3.964-6.718-3.985c-3.058,0.032-5.386,1.417-6.716,4.007l-0.061,0.141
		L30.254,25.442z M23.838,36.67c2.144,0,3.886-1.738,3.886-3.887s-1.742-3.887-3.886-3.887c-2.146,0-3.885,1.738-3.885,3.887
		S21.691,36.67,23.838,36.67z M55.221,42.914l-4.854,0.002c-0.154,0-0.342,0.012-0.534,0.041l0.015-0.043h-4.899l-2.175,8.643
		l-2.058-8.643h-5.542l0.563,1.953c-1.222-1.396-3.029-2.152-5.353-2.152c-4.465,0-7.238,2.984-7.238,7.788
		c0,5.313,2.553,8.241,7.191,8.241c4.451,0,7.039-2.818,7.186-7.715l1.479,5.106c0.371,1.214,1.094,2.608,3.411,2.608
		c2.254,0,2.988-1.312,3.41-2.608l3.104-10.196c0.29,0.395,0.67,0.515,1.02,0.549v9.777c0,0.408,0,1.367,0.839,1.961
		c0.336,0.236,0.919,0.518,1.793,0.518c0.712,0,1.316-0.176,1.807-0.519c0.835-0.593,0.835-1.552,0.835-1.96V42.914z M55.459,40.211
		c0-1.468-1.169-2.496-2.844-2.496c-1.728,0-2.844,0.979-2.844,2.496c0,1.495,1.144,2.498,2.844,2.498
		C54.314,42.709,55.459,41.706,55.459,40.211z M60.065,32.783c0-2.148-1.733-3.887-3.884-3.887c-2.146,0-3.888,1.738-3.888,3.887
		c0,2.146,1.741,3.887,3.888,3.887C58.332,36.67,60.065,34.93,60.065,32.783z"/>
	<rect style="fill:none;" width="80" height="80"/>
</g>
</svg>
