<?xml version="1.0" encoding="iso-8859-1"?>
<!-- Generator: Adobe Illustrator 14.0.0, SVG Export Plug-In . SVG Version: 6.00 Build 43363)  -->
<!DOCTYPE svg PUBLIC "-//W3C//DTD SVG 1.1//EN" "http://www.w3.org/Graphics/SVG/1.1/DTD/svg11.dtd">
<svg version="1.1" id="icon-m-toolbar-todo-layer" xmlns="http://www.w3.org/2000/svg" xmlns:xlink="http://www.w3.org/1999/xlink"
	 x="0px" y="0px" width="32px" height="32px" viewBox="0 0 32 32" style="enable-background:new 0 0 32 32;" xml:space="preserve">
<g id="icon-m-toolbar-todo">
	<rect style="fill:none;" width="32" height="32"/>
	<path style="fill:#333333;" d="M31.914,15.845c-0.072-0.218-0.276-0.361-0.518-0.361c-4.982,0.099-8.738,4.494-10.062,6.289
		L18.992,19.4c-0.192-0.198-0.547-0.201-0.744-0.019l-1.583,1.437c-0.103,0.098-0.162,0.23-0.165,0.375
		c-0.001,0.142,0.053,0.273,0.155,0.38l4.723,4.668c0.098,0.103,0.238,0.161,0.384,0.161l0.043-0.002
		c0.155-0.013,0.297-0.089,0.393-0.219c1.853-2.584,4.09-5.091,6.469-7.25c1.579-1.43,2.721-2.258,3.033-2.479l0.066-0.051
		C31.918,16.264,31.98,16.045,31.914,15.845z"/>
	<path style="fill:#333333;" d="M23.899,28.677v-0.093h-20v-22.5h2.036v3.115h15.86V6.084h2.104v8.998
		c1.149-0.801,2.455-1.508,3.899-1.98V4.067c0-0.567-0.464-1.03-1.03-1.03h-4.926V2.761h-0.007C21.773,1.226,20.504,0,18.939,0
		H8.843C7.279,0,6.008,1.226,5.945,2.761H5.94v0.276H1.029C0.463,3.037,0,3.5,0,4.067v26.901C0,31.535,0.463,32,1.029,32h25.739
		c0.566,0,1.03-0.465,1.03-1.031v-6.931c-1.139,1.249-2.208,2.56-3.163,3.89C24.425,28.218,24.175,28.467,23.899,28.677z"/>
	<rect x="5.947" y="11.663" style="fill:#333333;" width="13" height="3"/>
	<rect x="5.947" y="17.163" style="fill:#333333;" width="7.75" height="3"/>
</g>
</svg>
