<?xml version="1.0" encoding="iso-8859-1"?>
<!-- Generator: Adobe Illustrator 14.0.0, SVG Export Plug-In . SVG Version: 6.00 Build 43363)  -->
<!DOCTYPE svg PUBLIC "-//W3C//DTD SVG 1.1//EN" "http://www.w3.org/Graphics/SVG/1.1/DTD/svg11.dtd">
<svg version="1.1" id="icon-s-common-sip-layer" xmlns="http://www.w3.org/2000/svg" xmlns:xlink="http://www.w3.org/1999/xlink"
	 x="0px" y="0px" width="20px" height="18px" viewBox="0 0 20 18" style="enable-background:new 0 0 20 18;" xml:space="preserve">
<g id="icon-s-common-sip">
	<rect style="fill:none;" width="20" height="18"/>
	<path style="fill:#FFFFFF;" d="M18.322,0H1.677C1.023,0,0.488,0.535,0.488,1.188v11.897c0,0.654,0.535,1.188,1.188,1.188h2.563V18
		l3.084-3.725h10.999c0.654,0,1.188-0.535,1.188-1.189V1.188C19.513,0.535,18.978,0,18.322,0z M7.691,9.925
		c-0.148,0.315-0.359,0.587-0.623,0.808c-0.262,0.218-0.574,0.384-0.925,0.494c-0.346,0.105-0.722,0.159-1.118,0.159
		c-0.277,0-0.537-0.021-0.774-0.071c-0.235-0.045-0.449-0.104-0.633-0.172c-0.185-0.066-0.346-0.141-0.477-0.217
		C3,10.845,2.905,10.777,2.843,10.711c-0.07-0.074-0.123-0.167-0.155-0.275c-0.028-0.096-0.042-0.215-0.042-0.361
		c0-0.104,0.005-0.188,0.015-0.254c0.01-0.078,0.028-0.146,0.053-0.2c0.035-0.08,0.086-0.142,0.151-0.179
		C3.014,9.354,3.184,9.368,3.426,9.53c0.097,0.063,0.222,0.133,0.373,0.21C3.95,9.814,4.135,9.887,4.351,9.954
		C4.557,10.018,4.8,10.05,5.075,10.05c0.204,0,0.39-0.026,0.554-0.08c0.16-0.053,0.298-0.125,0.412-0.219
		c0.109-0.089,0.191-0.196,0.25-0.327C6.352,9.291,6.38,9.136,6.38,8.964c0-0.178-0.039-0.33-0.115-0.45
		c-0.088-0.135-0.199-0.25-0.344-0.354c-0.153-0.11-0.333-0.214-0.53-0.307L4.737,7.549C4.509,7.442,4.284,7.323,4.068,7.195
		C3.842,7.061,3.638,6.898,3.457,6.717c-0.182-0.188-0.332-0.41-0.444-0.662C2.896,5.799,2.837,5.492,2.837,5.144
		c0-0.358,0.066-0.686,0.199-0.971c0.133-0.286,0.32-0.529,0.559-0.725C3.83,3.257,4.11,3.108,4.429,3.01
		c0.475-0.146,1.028-0.191,1.577-0.098c0.186,0.032,0.363,0.074,0.528,0.129c0.167,0.055,0.318,0.116,0.449,0.186
		C7.13,3.301,7.222,3.36,7.278,3.416C7.332,3.471,7.369,3.518,7.393,3.56c0.021,0.038,0.038,0.084,0.051,0.14
		c0.01,0.044,0.018,0.095,0.022,0.154C7.472,3.91,7.474,3.979,7.474,4.062c0,0.082-0.003,0.154-0.011,0.22
		C7.455,4.354,7.442,4.416,7.426,4.466C7.401,4.547,7.36,4.61,7.305,4.656C7.171,4.766,7.02,4.771,6.764,4.617
		C6.671,4.562,6.56,4.502,6.426,4.434C6.3,4.369,6.148,4.31,5.976,4.254C5.657,4.155,5.201,4.146,4.913,4.25
		C4.78,4.299,4.671,4.361,4.588,4.438C4.507,4.515,4.448,4.6,4.408,4.702C4.366,4.811,4.345,4.925,4.345,5.045
		c0,0.176,0.037,0.322,0.116,0.444c0.085,0.133,0.202,0.254,0.348,0.358c0.154,0.11,0.336,0.215,0.537,0.312
		C5.56,6.261,5.778,6.361,5.998,6.465C6.225,6.568,6.451,6.687,6.67,6.813C6.9,6.945,7.108,7.104,7.29,7.285
		c0.187,0.186,0.338,0.408,0.452,0.66c0.115,0.256,0.174,0.56,0.174,0.902C7.916,9.246,7.84,9.609,7.691,9.925z M10.451,10.891
		c0,0.076-0.021,0.148-0.062,0.209c-0.044,0.065-0.11,0.113-0.196,0.145c-0.05,0.02-0.117,0.033-0.201,0.047
		c-0.079,0.011-0.175,0.018-0.286,0.018c-0.105,0-0.201-0.007-0.281-0.018c-0.086-0.014-0.153-0.027-0.204-0.047
		c-0.09-0.03-0.155-0.079-0.198-0.146c-0.039-0.057-0.062-0.13-0.062-0.205V3.359c0-0.08,0.024-0.155,0.072-0.218
		C9.08,3.08,9.146,3.033,9.232,3.007C9.285,2.989,9.352,2.974,9.434,2.96c0.167-0.024,0.404-0.022,0.557,0
		c0.085,0.015,0.152,0.029,0.203,0.047c0.086,0.03,0.153,0.079,0.196,0.144c0.041,0.062,0.062,0.134,0.062,0.21V10.891z
		 M17.146,6.646C17.005,6.99,16.8,7.287,16.537,7.531c-0.264,0.243-0.588,0.432-0.965,0.562c-0.371,0.131-0.816,0.193-1.324,0.193
		H13.58v2.604c0,0.08-0.024,0.157-0.074,0.219c-0.041,0.057-0.104,0.104-0.184,0.134c-0.053,0.019-0.117,0.032-0.201,0.047
		c-0.08,0.011-0.176,0.019-0.286,0.019c-0.109,0-0.206-0.008-0.285-0.019c-0.084-0.015-0.149-0.028-0.2-0.047
		c-0.088-0.03-0.153-0.079-0.197-0.146c-0.04-0.062-0.063-0.133-0.063-0.207V3.65c0-0.231,0.071-0.404,0.21-0.521
		c0.126-0.102,0.27-0.152,0.428-0.152h1.68c0.175,0,0.348,0.008,0.507,0.021c0.167,0.017,0.361,0.049,0.58,0.096
		c0.233,0.051,0.473,0.147,0.713,0.286c0.241,0.139,0.45,0.315,0.621,0.521c0.17,0.206,0.302,0.447,0.395,0.717
		c0.091,0.266,0.137,0.563,0.137,0.881C17.357,5.919,17.286,6.305,17.146,6.646z"/>
	<path style="fill:#FFFFFF;" d="M15.301,4.496c-0.149-0.089-0.307-0.146-0.465-0.171c-0.176-0.026-0.35-0.04-0.516-0.04h-0.74v2.7
		h0.717c0.285,0,0.523-0.034,0.704-0.104c0.179-0.069,0.327-0.164,0.446-0.285c0.119-0.119,0.209-0.266,0.271-0.436
		c0.063-0.176,0.098-0.368,0.098-0.576c0-0.277-0.051-0.511-0.152-0.69C15.563,4.715,15.441,4.582,15.301,4.496z"/>
</g>
</svg>
