<?xml version="1.0" encoding="iso-8859-1"?>
<!-- Generator: Adobe Illustrator 14.0.0, SVG Export Plug-In . SVG Version: 6.00 Build 43363)  -->
<!DOCTYPE svg PUBLIC "-//W3C//DTD SVG 1.1//EN" "http://www.w3.org/Graphics/SVG/1.1/DTD/svg11.dtd">
<svg version="1.1" id="icon-m-messaging-smiley-lips-sealed-layer"
	 xmlns="http://www.w3.org/2000/svg" xmlns:xlink="http://www.w3.org/1999/xlink" x="0px" y="0px" width="48px" height="48px"
	 viewBox="0 0 48 48" style="enable-background:new 0 0 48 48;" xml:space="preserve">
<g id="icon-m-messaging-smiley-lips-sealed">
	<rect style="fill:none;" width="48" height="48"/>
	<circle style="fill:#333333;" cx="16.053" cy="15.486" r="3.75"/>
	<circle style="fill:#333333;" cx="31.947" cy="15.486" r="3.75"/>
	<path style="fill:#333333;" d="M38.677,39c-3.788,3.707-8.969,6-14.677,6C12.42,45,3,35.58,3,24S12.42,3,24,3
		c10.561,0,19.322,7.837,20.782,18h3.024C46.329,9.162,36.238,0,24,0C10.745,0,0,10.745,0,24s10.745,24,24,24
		c7.578,0,14.33-3.516,18.729-9H38.677z"/>
	<path style="fill:#333333;" d="M39.75,25.5l-2.625,1.125L33.75,27.75v1.688h-4.5V27H27v2.438h-3V27h-2.25v2.438h-3V27H16.5v2.438
		h-3V27h-2.25v2.438v1.125V33h2.25v-2.438h3V33h2.25v-2.438h3V33H24v-2.438h3V33h2.25v-2.438h4.5v1.688l3.375,1.125L39.75,34.5H48
		v-9H39.75z M45.75,32.625H42v-5.25h3.75V32.625z"/>
</g>
</svg>
