<?xml version="1.0" encoding="iso-8859-1"?>
<!-- Generator: Adobe Illustrator 14.0.0, SVG Export Plug-In . SVG Version: 6.00 Build 43363)  -->
<!DOCTYPE svg PUBLIC "-//W3C//DTD SVG 1.1//EN" "http://www.w3.org/Graphics/SVG/1.1/DTD/svg11.dtd">
<svg version="1.1" id="icon-m-toolbar-media-server-layer"
	 xmlns="http://www.w3.org/2000/svg" xmlns:xlink="http://www.w3.org/1999/xlink" x="0px" y="0px" width="32px" height="32px"
	 viewBox="0 0 32 32" style="enable-background:new 0 0 32 32;" xml:space="preserve">
<g id="icon-m-toolbar-media-server">
	<rect style="fill:none;" width="32" height="32"/>
	<path style="fill:#FFFFFF;" d="M31.07,17.159H32v-1.392H13.5v1.375v0.017h0.938c0.189,0,0.345,0.155,0.345,0.345v1.365
		c0,0.19-0.156,0.346-0.345,0.346H13.5v0.016v1.462v0.011h3.931v6.344H13.5v0.012v1.461v0.017h0.938
		c0.189,0,0.345,0.154,0.345,0.345v1.365c0,0.189-0.156,0.346-0.345,0.346H13.5v0.016v1.375H32v-1.391h-0.93
		c-0.19,0-0.346-0.156-0.346-0.346v-1.381c0-0.19,0.155-0.346,0.346-0.346H32v-1.461h-0.715v-6.366H32V19.23h-0.93
		c-0.19,0-0.346-0.154-0.346-0.346v-1.381C30.725,17.314,30.88,17.159,31.07,17.159z M25.807,17.361
		c0-0.229,0.188-0.416,0.417-0.416h1.667c0.229,0,0.416,0.188,0.416,0.416v1.667c0,0.23-0.188,0.417-0.416,0.417h-1.667
		c-0.229,0-0.417-0.187-0.417-0.417V17.361z M21.304,17.361c0-0.229,0.188-0.416,0.417-0.416h1.667c0.229,0,0.416,0.188,0.416,0.416
		v1.667c0,0.23-0.187,0.417-0.416,0.417h-1.667c-0.229,0-0.417-0.187-0.417-0.417V17.361z M19.287,30.394
		c0,0.231-0.188,0.421-0.418,0.421h-1.666c-0.23,0-0.417-0.189-0.417-0.421v-1.661c0-0.231,0.187-0.418,0.417-0.418h1.666
		c0.23,0,0.418,0.187,0.418,0.418V30.394z M19.391,19.018c0,0.23-0.188,0.419-0.418,0.419h-1.667c-0.229,0-0.416-0.188-0.416-0.419
		v-1.662c0-0.23,0.186-0.419,0.416-0.419h1.667c0.23,0,0.418,0.188,0.418,0.419V19.018z M23.804,30.389
		c0,0.229-0.187,0.416-0.416,0.416h-1.667c-0.229,0-0.417-0.188-0.417-0.416v-1.667c0-0.229,0.188-0.417,0.417-0.417h1.667
		c0.229,0,0.416,0.188,0.416,0.417V30.389z M28.307,30.389c0,0.229-0.188,0.416-0.416,0.416h-1.667
		c-0.229,0-0.417-0.188-0.417-0.416v-1.667c0-0.229,0.188-0.417,0.417-0.417h1.667c0.229,0,0.416,0.188,0.416,0.417V30.389z
		 M28.86,27.059h-9.055v-0.012h-0.005v-6.344h0.005v-0.011h3.813h0.084h5.157V27.059z"/>
	<path style="fill:#FFFFFF;" d="M10.581,25.539V12.616h7.77V1.528c0-0.833-0.687-1.511-1.529-1.511H1.529
		C0.686,0.018,0,0.695,0,1.528v22.498c0,0.834,0.686,1.513,1.529,1.513H10.581z M5.946,22.689c-1.219,0-2.206-0.988-2.206-2.205
		c0-1.221,0.987-2.207,2.206-2.207c1.218,0,2.205,0.986,2.205,2.207C8.151,21.701,7.164,22.689,5.946,22.689z M4.1,7.959
		c-0.215,0-0.39-0.176-0.39-0.393V5.127c0-0.217,0.175-0.395,0.39-0.395h10.151c0.214,0,0.391,0.178,0.391,0.395v2.439
		c0,0.217-0.176,0.393-0.391,0.393H4.1z"/>
</g>
</svg>
