<?xml version="1.0" encoding="iso-8859-1"?>
<!-- Generator: Adobe Illustrator 14.0.0, SVG Export Plug-In . SVG Version: 6.00 Build 43363)  -->
<!DOCTYPE svg PUBLIC "-//W3C//DTD SVG 1.1//EN" "http://www.w3.org/Graphics/SVG/1.1/DTD/svg11.dtd">
<svg version="1.1" id="icon-s-status-ongoing-muted-layer"
	 xmlns="http://www.w3.org/2000/svg" xmlns:xlink="http://www.w3.org/1999/xlink" x="0px" y="0px" width="19px" height="18px"
	 viewBox="0 0 19 18" style="enable-background:new 0 0 19 18;" xml:space="preserve">
<g id="icon-s-status-ongoing-muted">
	<rect style="fill:none;" width="19" height="18"/>
	<path style="fill:#FFFFFF;" d="M18.775,2.108c-0.919-1.134-3.921-2.715-5.729-1.869C11.179,1.118,8.31,3.297,5.821,5.781
		l1.971,1.971c1.329-1.345,2.85-2.804,3.234-3.046c0.986-0.62,2.528,1.511,2.528,1.511c0.426,0.425,0.775,0.215,1.046,0.007
		l4.17-3.084C19.272,2.694,18.778,2.108,18.775,2.108z"/>
	<path style="fill:#FFFFFF;" d="M1.922,10.6c-0.297,0.508-0.551,1.003-0.731,1.476c-0.709,1.858,0.742,4.795,1.887,5.706
		c-0.001,0.004,0.589,0.494,1.031-0.008l2.126-2.859L1.922,10.6z"/>
	
		<rect x="5.291" y="2.475" transform="matrix(0.7075 -0.7067 0.7067 0.7075 -5.4846 7.1306)" style="fill:#FFFFFF;" width="1.164" height="15.434"/>
</g>
</svg>
