<?xml version="1.0" encoding="iso-8859-1"?>
<!-- Generator: Adobe Illustrator 14.0.0, SVG Export Plug-In . SVG Version: 6.00 Build 43363)  -->
<!DOCTYPE svg PUBLIC "-//W3C//DTD SVG 1.1//EN" "http://www.w3.org/Graphics/SVG/1.1/DTD/svg11.dtd">
<svg version="1.1" id="icon-m-toolbar-mediacontrol-pause-layer"
	 xmlns="http://www.w3.org/2000/svg" xmlns:xlink="http://www.w3.org/1999/xlink" x="0px" y="0px" width="32px" height="32px"
	 viewBox="0 0 32 32" style="enable-background:new 0 0 32 32;" xml:space="preserve">
<g id="icon-m-toolbar-mediacontrol-pause_1_">
	<rect style="fill:none;" width="32" height="32"/>
	<g>
		<path style="fill:#FFFFFF;" d="M13.15,28.25c0,1.1-0.9,2-2,2H4.462c-1.1,0-2-0.9-2-2V3.75c0-1.1,0.9-2,2-2h6.688c1.1,0,2,0.9,2,2
			V28.25z"/>
	</g>
	<g>
		<path style="fill:#FFFFFF;" d="M29.537,28.25c0,1.1-0.9,2-2,2H20.85c-1.1,0-2-0.9-2-2V3.75c0-1.1,0.9-2,2-2h6.688c1.1,0,2,0.9,2,2
			V28.25z"/>
	</g>
</g>
</svg>
