<?xml version="1.0" encoding="iso-8859-1"?>
<!-- Generator: Adobe Illustrator 14.0.0, SVG Export Plug-In . SVG Version: 6.00 Build 43363)  -->
<!DOCTYPE svg PUBLIC "-//W3C//DTD SVG 1.1//EN" "http://www.w3.org/Graphics/SVG/1.1/DTD/svg11.dtd">
<svg version="1.1" id="icon-m-music-video-repeat-off-layer"
	 xmlns="http://www.w3.org/2000/svg" xmlns:xlink="http://www.w3.org/1999/xlink" x="0px" y="0px" width="48px" height="48px"
	 viewBox="0 0 48 48" style="enable-background:new 0 0 48 48;" xml:space="preserve">
<g id="icon-m-music-video-repeat-off_2_">
	<rect style="fill:none;" width="48" height="48"/>
	<path style="fill:#333333;" d="M39,11.25H28.5L32.25,15l-3.75,3.75h3h2.25c0,0,1.5,0,1.5,1.5c0,2.25,0,11.25,0,11.25s0,1.5-1.5,1.5
		h-19.5c-1.5,0-1.5-1.5-1.5-1.5V20.25c0,0-0.112-1.5,1.388-1.5H18v3.75l8.25-7.5L18,7.5v3.75H9C5.25,11.25,5.25,15,5.25,15v21.75
		c0,0,0,3.75,3.75,3.75h30c3.75,0,3.75-3.75,3.75-3.75V15C42.75,15,42.75,11.25,39,11.25z M41.25,36.75
		C41.236,37.417,40.991,39,39,39H9c-2.142,0-2.25-1.874-2.25-2.25V15c0.013-0.667,0.259-2.25,2.25-2.25h10.5v-1.859L24.02,15
		l-4.52,4.109V17.25h-5.362c-1.091,0-1.758,0.472-2.125,0.867c-0.747,0.805-0.776,1.832-0.763,2.17V31.5c0,1.454,1.051,3,3,3h19.5
		c1.949,0,3-1.546,3-3V20.25c0-0.85,0-3-3-3h-1.5L34.371,15l-2.25-2.25H39c2.142,0,2.25,1.873,2.25,2.25V36.75z"/>
</g>
</svg>
