<?xml version="1.0" encoding="iso-8859-1"?>
<!-- Generator: Adobe Illustrator 14.0.0, SVG Export Plug-In . SVG Version: 6.00 Build 43363)  -->
<!DOCTYPE svg PUBLIC "-//W3C//DTD SVG 1.1//EN" "http://www.w3.org/Graphics/SVG/1.1/DTD/svg11.dtd">
<svg version="1.1" id="icon-m-telephony-call-answer-layer"
	 xmlns="http://www.w3.org/2000/svg" xmlns:xlink="http://www.w3.org/1999/xlink" x="0px" y="0px" width="48px" height="48px"
	 viewBox="0 0 48 48" style="enable-background:new 0 0 48 48;" xml:space="preserve">
<g id="icon-m-telephony-call-answer_1_">
	<rect style="fill:none;" width="48" height="48"/>
	<path style="fill:#333333;" d="M7.615,8.434c-2.356,6.533-3.427,23.125-0.026,30.725c1.489,3.329,7.181,5.258,9.848,4.955
		c0.005,0.006,1.406-0.124,1.329-1.347l-1.387-9.395c-0.077-0.622-0.267-1.347-1.365-1.343c0,0-4.764,0.778-5.235-1.299
		c-0.321-1.441-0.313-12.446,0.012-13.885c0.476-2.082,5.238-1.319,5.238-1.319c1.101-0.003,1.285-0.73,1.365-1.349l1.408-9.407
		c0.073-1.228-1.327-1.351-1.332-1.345C14.808,3.146,8.861,4.989,7.615,8.434z"/>
	<path style="fill:#333333;" d="M28.307,10.477l-2.211,2.746c0.109,0.118,0.223,0.237,0.322,0.361
		c3.893,4.836,3.893,12.711,0.004,17.551c-0.188,0.231-0.386,0.438-0.58,0.649l2.211,2.746c0.188-0.214,0.383-0.432,0.566-0.661
		c5.104-6.349,5.108-16.669,0-23.025C28.519,10.719,28.414,10.604,28.307,10.477z"/>
	<path style="fill:#333333;" d="M38.368,5.488c-0.103-0.131-0.207-0.246-0.313-0.371L35.854,7.85
		c0.106,0.123,0.212,0.247,0.312,0.373c6.27,7.793,6.27,20.473,0,28.265c-0.182,0.229-0.369,0.453-0.559,0.666l2.197,2.735
		c0.19-0.218,0.381-0.438,0.563-0.667C45.853,29.922,45.848,14.787,38.368,5.488z"/>
</g>
</svg>
