<?xml version="1.0" encoding="iso-8859-1"?>
<!-- Generator: Adobe Illustrator 14.0.0, SVG Export Plug-In . SVG Version: 6.00 Build 43363)  -->
<!DOCTYPE svg PUBLIC "-//W3C//DTD SVG 1.1//EN" "http://www.w3.org/Graphics/SVG/1.1/DTD/svg11.dtd">
<svg version="1.1" id="icon-s-messaging-smiley-worried-layer"
	 xmlns="http://www.w3.org/2000/svg" xmlns:xlink="http://www.w3.org/1999/xlink" x="0px" y="0px" width="18px" height="18px"
	 viewBox="0 0 18 18" style="enable-background:new 0 0 18 18;" xml:space="preserve">
<g id="icon-s-messaging-smiley-worried">
	<rect style="fill:none;" width="18" height="18"/>
	<path style="fill:#333333;" d="M13.728,6.047c-0.19,0-0.362-0.129-0.409-0.322c-0.11-0.455-0.359-0.77-0.74-0.935
		c-0.449-0.194-0.942-0.126-1.088-0.069c-0.121,0.132-0.318,0.178-0.489,0.098c-0.211-0.1-0.302-0.35-0.204-0.562
		c0.2-0.427,0.994-0.466,1.386-0.427c1.006,0.1,1.718,0.719,1.955,1.696c0.056,0.226-0.084,0.454-0.311,0.509
		C13.794,6.043,13.761,6.047,13.728,6.047L13.728,6.047z"/>
	<path style="fill:#333333;" d="M4.272,6.047c0.19,0,0.363-0.129,0.409-0.322c0.11-0.455,0.359-0.77,0.74-0.935
		C5.871,4.596,6.364,4.664,6.51,4.721c0.121,0.132,0.318,0.178,0.489,0.098c0.211-0.1,0.302-0.35,0.204-0.562
		C7.003,3.83,6.209,3.791,5.817,3.83c-1.006,0.1-1.718,0.719-1.956,1.696C3.807,5.752,3.946,5.98,4.172,6.035
		C4.206,6.043,4.239,6.047,4.272,6.047L4.272,6.047z"/>
	<path style="fill:#333333;" d="M11.107,6.688c0.332,0,0.637,0.152,0.837,0.415c0.348,0.46,0.257,1.118-0.202,1.468
		c-0.184,0.139-0.402,0.211-0.631,0.211c-0.332,0-0.637-0.15-0.836-0.414c-0.17-0.224-0.241-0.499-0.203-0.775
		c0.038-0.277,0.182-0.523,0.405-0.691C10.66,6.762,10.879,6.688,11.107,6.688 M11.107,6.188c-0.324,0-0.652,0.102-0.932,0.313
		C9.494,7.018,9.36,7.987,9.876,8.668c0.303,0.402,0.766,0.613,1.235,0.613c0.324,0,0.652-0.102,0.932-0.313
		c0.682-0.518,0.815-1.486,0.3-2.168C12.038,6.398,11.576,6.188,11.107,6.188L11.107,6.188z"/>
	<path style="fill:#333333;" d="M6.889,6.688c0.332,0,0.636,0.152,0.836,0.415c0.348,0.46,0.256,1.118-0.203,1.468
		C7.339,8.709,7.122,8.781,6.892,8.781c-0.332,0-0.636-0.15-0.836-0.414C5.887,8.144,5.815,7.868,5.854,7.592
		C5.892,7.314,6.036,7.068,6.259,6.9C6.442,6.762,6.66,6.688,6.889,6.688 M6.889,6.188c-0.325,0-0.653,0.102-0.932,0.313
		C5.275,7.018,5.142,7.987,5.658,8.668C5.961,9.07,6.424,9.281,6.892,9.281c0.325,0,0.653-0.102,0.932-0.313
		c0.681-0.518,0.815-1.486,0.3-2.168C7.819,6.398,7.357,6.188,6.889,6.188L6.889,6.188z"/>
	<path style="fill:#333333;" d="M9,1.125c4.342,0,7.875,3.533,7.875,7.875c0,4.343-3.533,7.875-7.875,7.875
		c-4.342,0-7.875-3.532-7.875-7.875C1.125,4.658,4.658,1.125,9,1.125 M9,0C4.029,0,0,4.029,0,9s4.029,9,9,9s9-4.029,9-9
		S13.971,0,9,0L9,0z"/>
	<path style="fill:#333333;" d="M13.709,12.671c-0.029-0.029-1.979-1.934-4.563-1.949h0h0c-1.923,0.013-3.489,1.066-4.179,1.618
		c-0.227,0.163-1.081,0.852-0.125,1.335c0,0,0.809,0.381,1.476-0.874c0,0,0.356-0.853,1.176-1.255l-0.025,0.007
		c0.508-0.172,1.072-0.287,1.677-0.286c2.316-0.006,4.057,1.693,4.167,1.802c0.109,0.11,0.287,0.11,0.396,0
		C13.819,12.959,13.819,12.781,13.709,12.671z"/>
</g>
</svg>
