<?xml version="1.0" encoding="iso-8859-1"?>
<!-- Generator: Adobe Illustrator 14.0.0, SVG Export Plug-In . SVG Version: 6.00 Build 43363)  -->
<!DOCTYPE svg PUBLIC "-//W3C//DTD SVG 1.1//EN" "http://www.w3.org/Graphics/SVG/1.1/DTD/svg11.dtd">
<svg version="1.1" id="icon-s-calendar-notes-layer"
	 xmlns="http://www.w3.org/2000/svg" xmlns:xlink="http://www.w3.org/1999/xlink" x="0px" y="0px" width="19px" height="18px"
	 viewBox="0 0 19 18" style="enable-background:new 0 0 19 18;" xml:space="preserve">
<g id="icon-s-calendar-notes">
	<rect style="fill:none;" width="19" height="18"/>
	<polygon style="fill:#333333;" points="11.313,3 11.313,4.987 13,4.987 13,0 10.01,0 10,1.5 8,1.5 8,0 5,0 5,1.5 3,1.5 3,0 0,0 
		0,14 5,14 5,12 2,12 2,9 5,9 5,7 2.077,7 2.077,4 7.856,4 7.856,3 	"/>
	<path style="fill:#333333;" d="M16.144,5.987V4h-1.457v1.987h-4.373V4H8.856v1.987H6V18h13V5.987H16.144z M17.594,16.189h-4.639
		h-0.953H7.406v-2.527h1.313v-2.508l-1.313,0.297V8.936l2.736-0.816l1.577-0.008v5.551h0.455c0.35-1.143,1.176-1.844,1.771-2.344
		c0.207-0.172,0.589-0.488,0.589-0.613c0-0.01,0-0.02-0.001-0.027c-0.021-0.001-0.051-0.003-0.086-0.003
		c-0.326,0-0.677,0.108-1.008,0.226l-1.25,0.439V8.6l0.654-0.206c0.624-0.196,1.25-0.296,1.859-0.296
		c1.794,0,2.865,0.955,2.865,2.557c0,1.393-0.925,2.159-1.6,2.721c-0.096,0.081-0.189,0.16-0.278,0.238h1.903V16.189z"/>
</g>
</svg>
