<?xml version="1.0" encoding="iso-8859-1"?>
<!-- Generator: Adobe Illustrator 14.0.0, SVG Export Plug-In . SVG Version: 6.00 Build 43363)  -->
<!DOCTYPE svg PUBLIC "-//W3C//DTD SVG 1.1//EN" "http://www.w3.org/Graphics/SVG/1.1/DTD/svg11.dtd">
<svg version="1.1" id="icon-m-common-camera-layer" xmlns="http://www.w3.org/2000/svg" xmlns:xlink="http://www.w3.org/1999/xlink"
	 x="0px" y="0px" width="48px" height="48px" viewBox="0 0 48 48" style="enable-background:new 0 0 48 48;" xml:space="preserve">
<g id="icon-m-common-camera">
	<rect style="fill:none;" width="48" height="48"/>
	<path style="fill:#333333;" d="M45.569,7.198H2.431c-1.313,0-2.396,1.083-2.396,2.399v28.802c0,1.319,1.083,2.402,2.396,2.402
		h43.139c1.313,0,2.396-1.083,2.396-2.402V9.598C47.966,8.281,46.883,7.198,45.569,7.198z M24,35.235
		c-5.955,0-10.785-4.845-10.785-10.804c0-5.965,4.83-10.799,10.785-10.799c5.957,0,10.784,4.834,10.784,10.799
		C34.784,30.394,29.957,35.235,24,35.235z M44.9,14.938h-9.277v-4.646H44.9V14.938z"/>
</g>
</svg>
