<?xml version="1.0" encoding="iso-8859-1"?>
<!-- Generator: Adobe Illustrator 14.0.0, SVG Export Plug-In . SVG Version: 6.00 Build 43363)  -->
<!DOCTYPE svg PUBLIC "-//W3C//DTD SVG 1.1//EN" "http://www.w3.org/Graphics/SVG/1.1/DTD/svg11.dtd">
<svg version="1.1" id="icon-m-content-powerpoint-layer"
	 xmlns="http://www.w3.org/2000/svg" xmlns:xlink="http://www.w3.org/1999/xlink" x="0px" y="0px" width="48px" height="48px"
	 viewBox="0 0 48 48" style="enable-background:new 0 0 48 48;" xml:space="preserve">
<g id="icon-m-content-powerpoint_2_">
	<rect style="fill:none;" width="48" height="48"/>
	<polygon style="fill:#333333;" points="29,0.27 29,16.677 44.904,16.677 44.904,16.171 	"/>
	<path style="fill:#333333;" d="M28.614,20.547c-1.921,0-3.483-1.562-3.483-3.482V0H4.646c-0.851,0-1.55,0.697-1.55,1.549v44.902
		c0,0.853,0.699,1.549,1.55,1.549h38.711c0.85,0,1.548-0.696,1.548-1.549V20.547H28.614z M16.729,43.645
		c0,0-3.726,1.205-4.877-3.014l-2.082-8.603c0,0-0.657-3.123,3.014-3.397c0,0,3.248-0.146,4.426,3.663l1.601,7.076
		C18.811,39.37,19.908,42.823,16.729,43.645z M30.533,34.562c-1.332,1.553-3.615,2.005-5.536,2.237
		c-0.996,0.121-2.746,0.346-3.482-0.512c-0.543-0.634-0.418-1.624,0.356-2.001c1.487-0.723,3.46-0.096,4.72-1.37
		c0.996-1.005,0.995-2.758,0.393-3.958c-0.59-1.179-1.815-1.874-3.827-2.115c-0.905-0.182-11.933-1.56-11.933-1.56
		c-1.046-0.241-1.714-0.204-2.391-0.654C8,24.075,7.583,23.123,7.786,22.281c0.11-0.456,0.402-0.879,0.908-1.188
		c0.876-0.537,1.986-0.485,2.953-0.274c0,0,14.642,3.097,14.648,3.098c1.147,0.25,2.743,0.896,3.543,1.812
		c0.318,0.364,0.556,0.695,0.791,1.13c0.688,1.272,0.987,2.6,0.976,4.027C31.596,32.158,31.4,33.553,30.533,34.562z"/>
</g>
</svg>
