<?xml version="1.0" encoding="iso-8859-1"?>
<!-- Generator: Adobe Illustrator 14.0.0, SVG Export Plug-In . SVG Version: 6.00 Build 43363)  -->
<!DOCTYPE svg PUBLIC "-//W3C//DTD SVG 1.1//EN" "http://www.w3.org/Graphics/SVG/1.1/DTD/svg11.dtd">
<svg version="1.1" id="icon-m-camera-scene-portrait-layer"
	 xmlns="http://www.w3.org/2000/svg" xmlns:xlink="http://www.w3.org/1999/xlink" x="0px" y="0px" width="48px" height="48px"
	 viewBox="0 0 48 48" style="enable-background:new 0 0 48 48;" xml:space="preserve">
<g id="icon-m-camera-scene-portrait">
	<rect style="fill:none;" width="48" height="48"/>
	<path style="fill:#333333;" d="M29.781,15.717l-0.008-2.359c-2.289-0.328-3.958-1.464-5.218-2.557
		c-0.134,0.27-0.284,0.539-0.45,0.803c-0.459,0.732-1.02,1.412-1.667,2.02c-2.129,1.997-4.519,2.229-6.129,2.229
		c-0.455,0-0.896-0.021-1.331-0.044c-0.013,0.179-0.034,0.352-0.034,0.537c0,5.147,5.086,11.797,9.028,11.797
		c3.941,0,8.803-7.055,8.803-12.202c0-0.074-0.012-0.141-0.014-0.215L29.781,15.717z"/>
	<path style="fill:#333333;" d="M23.726,1.142c-5.903,0-10.687,4.784-10.687,10.686c0,0.345,0.021,0.684,0.051,1.021
		c2.69,0.002,5.202,0.713,7.377-1.327c0.441-0.413,0.858-0.905,1.196-1.446c0.379-0.607,0.661-1.273,0.769-1.959
		c0.037-0.234,0.203-2.682,0.016-2.781c1.262,0.658,2.104,1.502,2.963,2.332c1.346,1.293,3.02,2.904,5.704,2.904
		c0.5,0,1.008-0.06,1.53-0.175c0,0.001,0,0.003,0,0.004l0.018-0.011v2.454l1.695,0.005c0.033-0.337,0.053-0.676,0.053-1.021
		C34.411,5.926,29.627,1.142,23.726,1.142z"/>
	<path style="fill:#333333;" d="M34.5,26.25L24,42.75l-10.5-16.5C8.25,28.5,5.25,33,5.25,39v8.25h37.5l-0.013-8.318
		C42.75,33.75,39.75,28.5,34.5,26.25z"/>
</g>
</svg>
