<?xml version="1.0" encoding="iso-8859-1"?>
<!-- Generator: Adobe Illustrator 14.0.0, SVG Export Plug-In . SVG Version: 6.00 Build 43363)  -->
<!DOCTYPE svg PUBLIC "-//W3C//DTD SVG 1.1//EN" "http://www.w3.org/Graphics/SVG/1.1/DTD/svg11.dtd">
<svg version="1.1" id="icon-m-content-ovi-store-layer"
	 xmlns="http://www.w3.org/2000/svg" xmlns:xlink="http://www.w3.org/1999/xlink" x="0px" y="0px" width="48px" height="48px"
	 viewBox="0 0 48 48" style="enable-background:new 0 0 48 48;" xml:space="preserve">
<g id="icon-m-content-ovi-store_1_">
	<rect style="fill:none;" width="48" height="48"/>
	<circle style="fill:#333333;" cx="24" cy="24" r="24"/>
	<path style="fill:#FFFFFF;" d="M35.467,15.73c0-1.238,0.927-1.907,2.268-1.907c1.26,0,2.266,0.696,2.266,1.907
		c0,1.234-0.951,1.904-2.266,1.904S35.467,16.965,35.467,15.73z M21.526,26.448c0,4.612-2.139,7.729-6.776,7.729
		c-5.022,0-6.75-3.452-6.75-7.832c0-4.328,2.345-7.365,6.801-7.365C19.414,18.98,21.526,22.045,21.526,26.448z M17.247,26.268
		c0-1.981-0.308-4.918-2.497-4.918c-2.293,0-2.473,2.781-2.473,4.918c0,2.191,0.103,5.539,2.473,5.539
		C17.122,31.807,17.247,28.819,17.247,26.268z M27.561,30.243l-2.628-11.057h-4.304l3.703,12.776
		c0.399,1.313,1.069,2.215,2.878,2.215s2.448-0.901,2.881-2.215l3.888-12.776h-3.632L27.561,30.243z M35.414,19.187
		c-0.395,0-0.719,0.007-0.949,0.319c-0.108,0.143-0.253,0.404-0.253,0.864c0,0.484,0.145,0.726,0.253,0.869
		c0.23,0.31,0.555,0.312,0.949,0.312c0.135,0,0.238,0,0.238,0v10.735c0,0.376,0,1.068,0.58,1.479
		c0.303,0.213,0.785,0.412,1.464,0.412c0.704,0,1.169-0.195,1.474-0.412c0.584-0.411,0.584-1.104,0.584-1.479V19.186h-4.061
		C35.693,19.186,35.549,19.187,35.414,19.187z"/>
</g>
</svg>
