<?xml version="1.0" encoding="iso-8859-1"?>
<!-- Generator: Adobe Illustrator 14.0.0, SVG Export Plug-In . SVG Version: 6.00 Build 43363)  -->
<!DOCTYPE svg PUBLIC "-//W3C//DTD SVG 1.1//EN" "http://www.w3.org/Graphics/SVG/1.1/DTD/svg11.dtd">
<svg version="1.1" id="icon-m-ovi-layer" xmlns="http://www.w3.org/2000/svg" xmlns:xlink="http://www.w3.org/1999/xlink" x="0px"
	 y="0px" width="28px" height="28px" viewBox="0 0 28 28" style="enable-background:new 0 0 28 28;" xml:space="preserve">
<g id="icon-m-ovi">
	<g>
		<linearGradient id="SVGID_1_" gradientUnits="userSpaceOnUse" x1="13.9995" y1="0" x2="13.9995" y2="28.0005">
			<stop  offset="0" style="stop-color:#6CBE45"/>
			<stop  offset="0.5" style="stop-color:#46A647"/>
			<stop  offset="1" style="stop-color:#316F37"/>
		</linearGradient>
		<path style="fill:url(#SVGID_1_);" d="M28,26.409C28,27.284,27.284,28,26.409,28H1.591C0.716,28,0,27.284,0,26.409V1.591
			C0,0.716,0.716,0,1.591,0h24.818C27.284,0,28,0.716,28,1.591V26.409z"/>
	</g>
	<g>
		<path style="fill:#FFFFFF;" d="M23.564,6.3c-0.968,0-1.637,0.483-1.637,1.378c0,0.892,0.688,1.376,1.637,1.376
			s1.635-0.484,1.635-1.376C25.199,6.802,24.476,6.3,23.564,6.3z"/>
		<path style="fill:#FFFFFF;" d="M21.889,10.175c-0.283,0-0.519,0.005-0.685,0.229c-0.077,0.103-0.183,0.291-0.183,0.626
			c0,0.349,0.105,0.521,0.183,0.625c0.166,0.224,0.401,0.226,0.685,0.226c0.099,0,0.172,0,0.172,0v7.753c0,0.271,0,0.771,0.42,1.069
			C22.7,20.856,23.047,21,23.537,21c0.51,0,0.845-0.143,1.064-0.297c0.421-0.298,0.421-0.799,0.421-1.069v-9.461h-2.931
			C22.092,10.173,21.987,10.175,21.889,10.175z"/>
		<path style="fill:#FFFFFF;" d="M16.221,18.157l-1.896-7.984h-3.107l2.671,9.228c0.374,0.985,0.772,1.6,2.079,1.6
			c1.306,0,1.706-0.614,2.078-1.6l2.809-9.228H18.23L16.221,18.157z"/>
		<path style="fill:#FFFFFF;" d="M7.01,10.024c-3.217,0-4.91,2.194-4.91,5.319C2.1,18.506,3.346,21,6.973,21
			c3.348,0,4.891-2.252,4.891-5.581C11.863,12.237,10.34,10.024,7.01,10.024z M6.973,19.287c-1.711,0-1.785-2.418-1.785-3.999
			c0-1.544,0.131-3.553,1.785-3.553c1.582,0,1.804,2.12,1.804,3.553C8.776,17.13,8.684,19.287,6.973,19.287z"/>
	</g>
	<path style="fill:none;" d="M0,28V0h28v28H0z"/>
</g>
</svg>
