<?xml version="1.0" encoding="iso-8859-1"?>
<!-- Generator: Adobe Illustrator 14.0.0, SVG Export Plug-In . SVG Version: 6.00 Build 43363)  -->
<!DOCTYPE svg PUBLIC "-//W3C//DTD SVG 1.1//EN" "http://www.w3.org/Graphics/SVG/1.1/DTD/svg11.dtd">
<svg version="1.1" id="icon-m-email-mailbox-layer" xmlns="http://www.w3.org/2000/svg" xmlns:xlink="http://www.w3.org/1999/xlink"
	 x="0px" y="0px" width="48px" height="48px" viewBox="0 0 48 48" style="enable-background:new 0 0 48 48;" xml:space="preserve">
<g id="icon-m-email-mailbox_2_">
	<rect style="fill:none;" width="48" height="48"/>
	<path style="fill:#333333;" d="M48,6.104h-8.164h-2.899h-0.103v32.788H3.002V15.857h24.03v12.045
		c-0.077,3.901-1.415,5.027-2.941,5.027c-1.205,0-1.821-0.381-1.821-3.233c0-2.712,0.683-7.14,1.169-9.992H18.8
		c-5.153,0-8.934,3.294-8.934,9.585c0,4.258,2.403,6.217,4.774,6.217c2.474,0,3.64-1.376,4.605-3.195
		c0.55,1.992,2.095,3.195,4.088,3.195c4.052,0,6.658-2.85,6.701-8.655l-0.001-13.996H0v29.041h36.834h3.002v-3.003V13.391H48V6.104z
		 M18.455,27.261c-0.377,2.92-0.929,5.633-2.646,5.633c-1.306,0-1.958-0.821-1.958-3.779c0-4.533,2.094-6.767,4.193-6.767h1.033
		L18.455,27.261z"/>
</g>
</svg>
