<?xml version="1.0" encoding="iso-8859-1"?>
<!-- Generator: Adobe Illustrator 14.0.0, SVG Export Plug-In . SVG Version: 6.00 Build 43363)  -->
<!DOCTYPE svg PUBLIC "-//W3C//DTD SVG 1.1//EN" "http://www.w3.org/Graphics/SVG/1.1/DTD/svg11.dtd">
<svg version="1.1" id="icon-m-toolbar-history-layer"
	 xmlns="http://www.w3.org/2000/svg" xmlns:xlink="http://www.w3.org/1999/xlink" x="0px" y="0px" width="32px" height="32px"
	 viewBox="0 0 32 32" style="enable-background:new 0 0 32 32;" xml:space="preserve">
<g id="icon-m-toolbar-history_1_">
	<rect style="fill:none;" width="32" height="32"/>
	<g>
		<g>
			<path style="fill:#FFFFFF;" d="M20.635,16.46c-0.193,0.907-0.979,1.554-1.91,1.554c-1.08,0-1.958-0.88-1.958-1.959
				c0-0.163,0.022-0.327,0.063-0.488l-4.302-5.416l1.833-1.469l4.304,5.416c0.34-0.016,0.67,0.066,0.977,0.232l4.049-1.885
				l0.99,2.135L20.635,16.46z"/>
		</g>
	</g>
	<path style="fill:#FFFFFF;" d="M31.941,14.768c0-0.02-0.002-0.037-0.004-0.057c-0.018-0.185-0.041-0.369-0.066-0.555
		c-0.004-0.031-0.008-0.062-0.012-0.094c-0.025-0.177-0.057-0.35-0.088-0.525c-0.008-0.039-0.016-0.082-0.023-0.123
		c-0.031-0.164-0.068-0.326-0.105-0.487c-0.014-0.054-0.023-0.104-0.035-0.157c-0.039-0.148-0.078-0.297-0.121-0.442
		c-0.018-0.068-0.035-0.134-0.055-0.2c-0.041-0.129-0.082-0.26-0.127-0.388c-0.027-0.083-0.055-0.167-0.084-0.25
		c-0.039-0.108-0.08-0.218-0.121-0.325c-0.039-0.102-0.078-0.202-0.119-0.303c-0.037-0.088-0.076-0.176-0.115-0.264
		c-0.051-0.117-0.104-0.234-0.158-0.352c-0.033-0.069-0.066-0.136-0.104-0.205c-0.062-0.132-0.127-0.26-0.197-0.391
		c-0.029-0.053-0.061-0.106-0.09-0.16c-0.076-0.139-0.156-0.277-0.238-0.415c-0.025-0.044-0.053-0.085-0.08-0.127
		c-0.088-0.144-0.176-0.286-0.27-0.425c-0.029-0.039-0.055-0.076-0.082-0.115c-0.096-0.139-0.193-0.279-0.295-0.415
		c-0.031-0.044-0.064-0.085-0.098-0.126c-0.098-0.13-0.197-0.259-0.301-0.385c-0.047-0.059-0.098-0.113-0.146-0.172
		c-0.092-0.107-0.182-0.216-0.277-0.32c-0.105-0.118-0.217-0.231-0.328-0.346c-0.041-0.043-0.08-0.086-0.121-0.127
		c0-0.002-0.002-0.002-0.004-0.003c-0.156-0.159-0.318-0.312-0.484-0.464c-0.043-0.037-0.086-0.073-0.129-0.111
		c-0.125-0.107-0.248-0.219-0.375-0.323c-0.059-0.046-0.117-0.09-0.174-0.136c-0.115-0.092-0.232-0.186-0.352-0.273
		c-0.061-0.045-0.125-0.088-0.188-0.134c-0.117-0.084-0.234-0.167-0.355-0.246c-0.061-0.041-0.121-0.079-0.184-0.12
		c-0.125-0.08-0.252-0.16-0.383-0.236c-0.051-0.033-0.104-0.062-0.156-0.093c-0.143-0.081-0.283-0.161-0.428-0.239
		c-0.039-0.02-0.08-0.039-0.117-0.059c-0.16-0.084-0.322-0.164-0.486-0.242c-0.021-0.009-0.045-0.02-0.068-0.03
		c-0.18-0.083-0.363-0.163-0.549-0.239c-0.004-0.001-0.006-0.002-0.008-0.002c-1.555-0.633-3.252-0.984-5.033-0.986
		c-0.428,0-0.852,0.022-1.27,0.062c-0.008,0-0.016,0-0.023,0.001c-0.171,0.019-0.341,0.038-0.51,0.062
		c-0.049,0.008-0.1,0.012-0.15,0.021c-0.147,0.021-0.292,0.046-0.438,0.073c-0.073,0.013-0.146,0.023-0.22,0.038
		c-0.125,0.026-0.25,0.054-0.374,0.083c-0.094,0.02-0.188,0.041-0.281,0.064c-0.103,0.025-0.205,0.053-0.306,0.082
		c-0.115,0.031-0.231,0.063-0.346,0.098c-0.077,0.023-0.152,0.051-0.23,0.075c-0.139,0.045-0.277,0.091-0.415,0.142
		c-0.049,0.018-0.099,0.037-0.147,0.055c-0.163,0.062-0.325,0.125-0.488,0.191c-0.021,0.01-0.043,0.02-0.064,0.028
		c-1.534,0.653-2.97,1.603-4.22,2.854l0.003,0.002c-2.367,2.369-3.849,5.619-3.921,9.213h-1.22l-3.506,0.001
		c-0.308,0-0.695,0.372-0.339,0.771l5.878,5.768c0.182,0.205,0.497,0.203,0.677,0.002l5.91-5.77c0.301-0.335,0.005-0.771-0.34-0.771
		H8.73H7.576c0.116-4.449,2.849-8.247,6.723-9.896l0.021-0.01c0.127-0.055,0.257-0.105,0.387-0.154
		c0.055-0.021,0.108-0.041,0.162-0.061c0.083-0.029,0.168-0.057,0.252-0.086c0.103-0.033,0.203-0.066,0.306-0.098
		c0.035-0.011,0.072-0.021,0.107-0.031c2.539-0.729,5.287-0.533,7.712,0.592c0,0,0.002,0,0.004,0
		c0.137,0.064,0.273,0.133,0.408,0.203c0.037,0.018,0.074,0.037,0.109,0.058c0.1,0.051,0.195,0.104,0.291,0.159
		c0.072,0.043,0.145,0.082,0.213,0.124c0.061,0.035,0.117,0.072,0.174,0.108c0.105,0.065,0.209,0.131,0.311,0.199
		c0.018,0.012,0.035,0.025,0.055,0.037c1.576,1.08,2.861,2.559,3.707,4.293c0.012,0.023,0.023,0.049,0.035,0.072
		c0.057,0.115,0.105,0.232,0.158,0.35c0.025,0.059,0.051,0.116,0.076,0.175c0.035,0.087,0.068,0.171,0.1,0.257
		c0.037,0.093,0.074,0.186,0.107,0.281c0.018,0.051,0.035,0.104,0.053,0.156c0.043,0.127,0.086,0.258,0.123,0.388
		c0.006,0.016,0.01,0.034,0.016,0.051c0.592,2.034,0.59,4.204-0.006,6.236c-0.002,0.007-0.004,0.017-0.008,0.023
		c-0.041,0.141-0.086,0.28-0.135,0.417c-0.014,0.043-0.027,0.083-0.041,0.125c-0.037,0.105-0.078,0.21-0.119,0.315
		c-0.027,0.073-0.055,0.146-0.086,0.217c-0.029,0.073-0.062,0.145-0.094,0.216c-0.045,0.104-0.09,0.207-0.137,0.307
		c-0.021,0.041-0.039,0.08-0.061,0.119c-0.062,0.131-0.129,0.26-0.197,0.387c-0.004,0.01-0.01,0.018-0.016,0.027
		c-0.93,1.707-2.295,3.141-3.947,4.152c-0.008,0.004-0.018,0.01-0.025,0.016c-0.123,0.075-0.25,0.146-0.375,0.217
		c-0.039,0.021-0.076,0.042-0.115,0.062c-0.1,0.054-0.201,0.104-0.301,0.156c-0.07,0.033-0.137,0.068-0.205,0.101
		c-0.074,0.034-0.15,0.068-0.225,0.102c-0.098,0.044-0.197,0.088-0.297,0.13c-0.045,0.019-0.094,0.037-0.141,0.055
		c-0.129,0.052-0.26,0.102-0.391,0.146c-0.018,0.007-0.033,0.014-0.053,0.019c-3.865,1.338-8.321,0.465-11.409-2.617l-1.672,1.674
		c2.784,2.788,6.491,4.091,10.138,3.907c0.107-0.004,0.215-0.014,0.32-0.021c0.109-0.009,0.217-0.014,0.324-0.025
		c0.15-0.015,0.299-0.033,0.447-0.053c0.064-0.009,0.127-0.016,0.191-0.024c0.166-0.026,0.332-0.054,0.496-0.084
		c0.047-0.009,0.092-0.017,0.139-0.026c0.172-0.033,0.34-0.07,0.508-0.11c0.043-0.011,0.084-0.019,0.125-0.029
		c0.168-0.042,0.332-0.085,0.494-0.134c0.047-0.013,0.094-0.025,0.139-0.039c0.156-0.048,0.309-0.098,0.463-0.15
		c0.055-0.018,0.111-0.036,0.168-0.055c0.139-0.051,0.279-0.104,0.416-0.158c0.068-0.027,0.137-0.055,0.205-0.082
		c0.123-0.051,0.246-0.104,0.367-0.16c0.082-0.035,0.162-0.071,0.244-0.11c0.105-0.05,0.213-0.103,0.316-0.157
		c0.094-0.047,0.188-0.094,0.281-0.144c0.09-0.048,0.18-0.101,0.271-0.151c0.102-0.059,0.203-0.115,0.305-0.176
		c0.082-0.049,0.158-0.098,0.238-0.15c0.107-0.067,0.215-0.134,0.32-0.205c0.072-0.048,0.143-0.1,0.215-0.15
		c0.109-0.074,0.215-0.15,0.322-0.229c0.07-0.052,0.139-0.107,0.207-0.16c0.105-0.081,0.207-0.162,0.311-0.246
		c0.072-0.059,0.143-0.121,0.213-0.183c0.096-0.081,0.191-0.162,0.285-0.247c0.07-0.062,0.135-0.129,0.201-0.191
		c0.092-0.088,0.186-0.17,0.273-0.262c0.125-0.123,0.244-0.252,0.363-0.381c0.025-0.029,0.055-0.059,0.082-0.088
		c0.113-0.125,0.221-0.25,0.328-0.378c0.033-0.039,0.066-0.077,0.1-0.116c0.109-0.132,0.211-0.267,0.314-0.402
		c0.027-0.037,0.059-0.073,0.086-0.109c0.102-0.141,0.201-0.279,0.297-0.419c0.027-0.039,0.053-0.076,0.08-0.116
		c0.092-0.137,0.18-0.276,0.268-0.418c0.027-0.045,0.059-0.091,0.086-0.136c0.078-0.134,0.156-0.269,0.23-0.405
		c0.033-0.057,0.066-0.113,0.096-0.17c0.066-0.125,0.131-0.252,0.193-0.379c0.037-0.072,0.074-0.145,0.109-0.219
		c0.053-0.111,0.102-0.225,0.152-0.338c0.039-0.091,0.082-0.184,0.119-0.275c0.039-0.096,0.076-0.193,0.113-0.291
		c0.043-0.111,0.086-0.225,0.127-0.338c0.027-0.078,0.055-0.16,0.082-0.239c0.043-0.131,0.088-0.264,0.127-0.397
		c0.02-0.062,0.037-0.125,0.055-0.191c0.043-0.148,0.084-0.299,0.121-0.449c0.012-0.05,0.021-0.1,0.035-0.15
		c0.039-0.164,0.074-0.328,0.107-0.493c0.008-0.04,0.014-0.081,0.021-0.12c0.031-0.175,0.062-0.349,0.09-0.525
		c0.004-0.033,0.008-0.065,0.012-0.098c0.025-0.184,0.049-0.367,0.066-0.552c0.002-0.017,0.002-0.032,0.004-0.048
		C31.979,16.834,32,16.419,32,16C32,15.584,31.979,15.174,31.941,14.768z"/>
</g>
</svg>
