<?xml version="1.0" encoding="iso-8859-1"?>
<!-- Generator: Adobe Illustrator 14.0.0, SVG Export Plug-In . SVG Version: 6.00 Build 43363)  -->
<!DOCTYPE svg PUBLIC "-//W3C//DTD SVG 1.1//EN" "http://www.w3.org/Graphics/SVG/1.1/DTD/svg11.dtd">
<svg version="1.1" id="icon-m-telephony-ovi-layer" xmlns="http://www.w3.org/2000/svg" xmlns:xlink="http://www.w3.org/1999/xlink"
	 x="0px" y="0px" width="48px" height="48px" viewBox="0 0 48 48" style="enable-background:new 0 0 48 48;" xml:space="preserve">
<g id="icon-m-telephony-ovi">
	<rect style="fill:none;" width="48" height="48"/>
	<path style="fill:#333333;" d="M12.33,20.239c-2.748,0-2.965,3.338-2.965,5.899c0,2.625,0.123,6.643,2.965,6.643
		c2.838,0,2.996-3.584,2.996-6.643C15.324,23.761,14.955,20.239,12.33,20.239z"/>
	<path style="fill:#333333;" d="M44.609,0.75H3.393c-1.453,0-2.643,1.188-2.643,2.643v41.217c0,1.453,1.189,2.642,2.643,2.642
		h41.217c1.453,0,2.641-1.188,2.641-2.642V3.393C47.25,1.938,46.062,0.75,44.609,0.75z M12.33,35.625
		c-6.023,0-8.092-4.143-8.092-9.391c0-5.193,2.811-8.836,8.156-8.836c5.525,0,8.059,3.677,8.059,8.957
		C20.453,31.885,17.891,35.625,12.33,35.625z M30.719,32.969c-0.619,1.639-1.281,2.656-3.451,2.656s-2.832-1.02-3.453-2.656
		l-4.438-15.322h5.16l3.15,13.26l3.338-13.26h4.355L30.719,32.969z M42.307,33.355c0,0.451,0,1.281-0.699,1.776
		c-0.363,0.257-0.922,0.492-1.77,0.492c-0.814,0-1.389-0.238-1.752-0.492c-0.697-0.495-0.697-1.325-0.697-1.776V20.479
		c0,0-0.123,0-0.287,0c-0.473,0-0.861-0.002-1.139-0.371c-0.127-0.174-0.303-0.461-0.303-1.039c0-0.558,0.176-0.869,0.303-1.041
		c0.275-0.371,0.666-0.381,1.139-0.381c0.164,0,0.338-0.002,0.338-0.002h4.867V33.355z M39.883,15.787
		c-1.574,0-2.717-0.807-2.717-2.287c0-1.484,1.111-2.288,2.717-2.288c1.516,0,2.717,0.833,2.717,2.288
		C42.6,14.98,41.459,15.787,39.883,15.787z"/>
</g>
</svg>
