<?xml version="1.0" encoding="iso-8859-1"?>
<!-- Generator: Adobe Illustrator 14.0.0, SVG Export Plug-In . SVG Version: 6.00 Build 43363)  -->
<!DOCTYPE svg PUBLIC "-//W3C//DTD SVG 1.1//EN" "http://www.w3.org/Graphics/SVG/1.1/DTD/svg11.dtd">
<svg version="1.1" id="icon-m-music-video-now-playing4-layer"
	 xmlns="http://www.w3.org/2000/svg" xmlns:xlink="http://www.w3.org/1999/xlink" x="0px" y="0px" width="48px" height="48px"
	 viewBox="0 0 48 48" style="enable-background:new 0 0 48 48;" xml:space="preserve">
<g id="icon-m-music-video-now-playing4">
	<polygon style="fill:none;" points="48,48 0,47.907 0,0 48,0 	"/>
	<g>
		<path style="fill:#333333;" d="M17.415,16.258c0-1.1,0.782-1.554,1.737-1.009l13.527,7.723c0.956,0.545,0.956,1.438,0,1.982
			l-13.527,7.725c-0.955,0.545-1.737,0.091-1.737-1.009V16.258z"/>
	</g>
	<path style="fill:#333333;" d="M10.498,37.502c7.457,7.458,19.546,7.457,27.003,0c7.456-7.456,7.456-19.546,0.001-27.002
		c-7.457-7.456-19.546-7.456-27.003,0.001C9.188,11.812,8.11,13.27,7.26,14.818l2.216,2.217c0.766-1.6,1.808-3.102,3.133-4.426
		c6.281-6.281,16.501-6.282,22.782-0.001c6.28,6.28,6.281,16.503,0,22.783c-6.281,6.281-16.504,6.281-22.784,0.001
		c-2.903-2.902-4.456-6.646-4.674-10.455l4.381-0.001l-5.905-5.907L0.5,24.938h4.439C5.161,29.507,7.008,34.014,10.498,37.502z"/>
</g>
</svg>
