<?xml version="1.0" encoding="iso-8859-1"?>
<!-- Generator: Adobe Illustrator 14.0.0, SVG Export Plug-In . SVG Version: 6.00 Build 43363)  -->
<!DOCTYPE svg PUBLIC "-//W3C//DTD SVG 1.1//EN" "http://www.w3.org/Graphics/SVG/1.1/DTD/svg11.dtd">
<svg version="1.1" id="icon-m-camera-whitebalance-auto-layer"
	 xmlns="http://www.w3.org/2000/svg" xmlns:xlink="http://www.w3.org/1999/xlink" x="0px" y="0px" width="48px" height="48px"
	 viewBox="0 0 48 48" style="enable-background:new 0 0 48 48;" xml:space="preserve">
<g id="icon-m-camera-whitebalance-auto">
	<rect style="fill:none;" width="48" height="48"/>
	<path style="fill:#333333;" d="M18.614,13.543c2.727,0,4.945,2.217,4.945,4.944c0,2.727-2.218,4.944-4.945,4.944
		c-2.726,0-4.944-2.218-4.944-4.944C13.67,15.76,15.888,13.543,18.614,13.543 M18.614,10.543c-4.388,0-7.944,3.557-7.944,7.944
		c0,4.387,3.557,7.944,7.944,7.944s7.944-3.558,7.944-7.944C26.559,14.1,23.002,10.543,18.614,10.543L18.614,10.543z"/>
	<path style="fill:#333333;" d="M20.438,6.88V2.659c0-0.758-0.663-1.421-1.42-1.42l-0.534-0.001
		c-0.783,0.001-1.422,0.639-1.421,1.42l-0.001,4.223c0,0.379,0.148,0.734,0.418,1.004c0.268,0.269,0.625,0.417,1.003,0.416h0.533
		c0.379,0,0.737-0.148,1.005-0.416C20.29,7.615,20.438,7.258,20.438,6.88z"/>
	<path style="fill:#333333;" d="M6.941,17.063h-4.22c-0.758,0-1.421,0.664-1.42,1.42L1.3,19.017
		c0.001,0.784,0.639,1.421,1.421,1.421h4.222c0.379,0,0.735-0.148,1.005-0.418c0.268-0.268,0.417-0.623,0.416-1.003v-0.533
		c0-0.378-0.149-0.735-0.417-1.005C7.677,17.211,7.32,17.063,6.941,17.063z"/>
	<path style="fill:#333333;" d="M34.58,17.063h-4.221c-0.758,0-1.422,0.664-1.421,1.42l-0.001,0.534
		c0.001,0.784,0.639,1.421,1.421,1.421h4.222c0.379,0,0.735-0.148,1.004-0.418c0.269-0.268,0.418-0.623,0.416-1.003v-0.533
		c0-0.378-0.147-0.735-0.416-1.005C35.314,17.211,34.957,17.063,34.58,17.063z"/>
	<path style="fill:#333333;" d="M11.589,9.139L8.604,6.155c-0.536-0.536-1.475-0.536-2.009,0L6.218,6.532
		c-0.554,0.555-0.554,1.456,0,2.009l2.984,2.986c0.268,0.268,0.625,0.415,1.005,0.415c0.38,0,0.737-0.147,1.004-0.415l0.377-0.378
		c0.268-0.267,0.416-0.625,0.416-1.005C12.004,9.764,11.857,9.407,11.589,9.139z"/>
	<path style="fill:#333333;" d="M31.252,6.532l-0.379-0.377c-0.535-0.536-1.473-0.536-2.008,0L25.88,9.139
		c-0.554,0.555-0.554,1.456,0,2.011l0.378,0.378c0.267,0.268,0.624,0.414,1.005,0.414c0.38,0,0.737-0.146,1.005-0.414l2.984-2.986
		C31.805,7.988,31.805,7.087,31.252,6.532z"/>
	<path style="fill:#333333;" d="M20.438,34.316v-4.221c0-0.758-0.663-1.422-1.42-1.42l-0.534-0.002
		c-0.783,0.002-1.422,0.639-1.421,1.422l-0.001,4.221c0,0.38,0.148,0.736,0.418,1.006c0.268,0.268,0.625,0.416,1.003,0.416h0.533
		c0.379,0,0.737-0.149,1.005-0.417C20.29,35.052,20.438,34.695,20.438,34.316z"/>
	<path style="fill:#333333;" d="M25.88,27.836l2.985,2.983c0.535,0.536,1.474,0.536,2.008,0l0.379-0.377
		c0.553-0.554,0.553-1.455,0-2.009l-2.984-2.984c-0.27-0.269-0.625-0.416-1.006-0.416c-0.38,0-0.737,0.147-1.004,0.416l-0.378,0.377
		c-0.268,0.268-0.415,0.625-0.415,1.005S25.612,27.568,25.88,27.836z"/>
	<path style="fill:#333333;" d="M6.218,30.443l0.377,0.376c0.536,0.536,1.474,0.536,2.009,0l2.984-2.983
		c0.554-0.555,0.554-1.455,0-2.01l-0.377-0.377c-0.267-0.269-0.624-0.416-1.005-0.416c-0.38,0-0.737,0.147-1.004,0.416l-2.984,2.984
		C5.664,28.987,5.664,29.889,6.218,30.443z"/>
	<path style="fill:#333333;" d="M40.738,27h-4.694L30,47.25h3.41l1.344-4.645h6.773l1.344,4.645h3.802L40.738,27z M35.404,40.04
		l2.766-10.007l2.74,10.053L35.404,40.04z"/>
</g>
</svg>
