<?xml version="1.0" encoding="iso-8859-1"?>
<!-- Generator: Adobe Illustrator 14.0.0, SVG Export Plug-In . SVG Version: 6.00 Build 43363)  -->
<!DOCTYPE svg PUBLIC "-//W3C//DTD SVG 1.1//EN" "http://www.w3.org/Graphics/SVG/1.1/DTD/svg11.dtd">
<svg version="1.1" id="icon-s-calendar-layer" xmlns="http://www.w3.org/2000/svg" xmlns:xlink="http://www.w3.org/1999/xlink"
	 x="0px" y="0px" width="18px" height="18px" viewBox="0 0 18 18" style="enable-background:new 0 0 18 18;" xml:space="preserve">
<g id="icon-s-calendar">
	<rect style="fill:none;" width="18" height="18"/>
	<path style="fill:#333333;" d="M14,2.75V0h-2v2.75H6V0H4v2.75H1.452v15.232h15.097V2.75H14z M8.938,16.17H2.696v-2.112h1.802V9.033
		L2.696,9.442V7.338l3.071-0.949l1.475-0.006v7.675h1.696V16.17z M15.304,16.17H9.002v-1.219c0-2.25,1.4-3.434,2.424-4.297
		c0.654-0.55,1.052-0.916,1.052-1.379c0-0.477-0.128-0.734-0.804-0.734c-0.547,0-1.1,0.17-1.613,0.353L9.26,9.177V6.871l0.418-0.133
		c0.793-0.252,1.583-0.379,2.345-0.379c2.093,0,3.245,1.01,3.245,2.846c0,1.6-1.079,2.506-1.946,3.232
		c-0.688,0.581-1.211,1.049-1.465,1.551h3.446V16.17z"/>
</g>
</svg>
