<?xml version="1.0" encoding="iso-8859-1"?>
<!-- Generator: Adobe Illustrator 14.0.0, SVG Export Plug-In . SVG Version: 6.00 Build 43363)  -->
<!DOCTYPE svg PUBLIC "-//W3C//DTD SVG 1.1//EN" "http://www.w3.org/Graphics/SVG/1.1/DTD/svg11.dtd">
<svg version="1.1" id="icon-s-email-attachment-layer"
	 xmlns="http://www.w3.org/2000/svg" xmlns:xlink="http://www.w3.org/1999/xlink" x="0px" y="0px" width="11px" height="18px"
	 viewBox="0 0 11 18" style="enable-background:new 0 0 11 18;" xml:space="preserve">
<g id="icon-s-email-attachment_1_">
	<rect style="fill:none;" width="11" height="18"/>
	<path style="fill:#333333;" d="M10.79,4.323c-0.021-0.316-0.29-0.568-0.621-0.566S9.571,4.011,9.55,4.327v8.546
		c-0.004,2.141-1.807,3.891-4.043,3.891c-2.234,0-4.037-1.75-4.041-3.891L1.47,3.131c0.182-1.082,1.148-1.914,2.313-1.92
		C4.948,1.207,6.155,1.916,6.332,3c0,0-0.004,5.551-0.004,7.934H5.101l-0.006-6.61c-0.02-0.316-0.289-0.568-0.621-0.566
		c-0.33,0.002-0.598,0.254-0.618,0.57l-0.005,7.856h3.713l0.004-9.188C7.384,1.241,5.64-0.007,3.782,0
		C1.925,0.009,0.39,1.388,0.208,3.145L0.206,13c0.072,2.777,2.43,4.994,5.301,5c2.918-0.006,5.284-2.271,5.287-5.111L10.79,4.323z"
		/>
</g>
</svg>
