<?xml version="1.0" encoding="iso-8859-1"?>
<!-- Generator: Adobe Illustrator 14.0.0, SVG Export Plug-In . SVG Version: 6.00 Build 43363)  -->
<!DOCTYPE svg PUBLIC "-//W3C//DTD SVG 1.1//EN" "http://www.w3.org/Graphics/SVG/1.1/DTD/svg11.dtd">
<svg version="1.1" id="icon-l-contacts-layer" xmlns="http://www.w3.org/2000/svg" xmlns:xlink="http://www.w3.org/1999/xlink"
	 x="0px" y="0px" width="80px" height="80px" viewBox="0 0 80 80" style="enable-background:new 0 0 80 80;" xml:space="preserve">
<g id="icon-l-contacts_1_">
	<rect style="fill:none;" width="80" height="80"/>
	<g>
		<path style="fill:#1B75BB;" d="M31.241,39.492c0.425,0.549,0.865,1.07,1.329,1.547c2.128,2.199,4.682,3.564,7.425,3.564
			c2.771,0,5.345-1.391,7.486-3.615c2.917-3.035,5.002-7.629,5.71-12.381c0.155-1.088,0.264-2.179,0.271-3.27
			c0-0.045,0.006-0.091,0.006-0.137c0-9.372-6.028-13.701-13.473-13.701c-7.432,0-13.461,4.329-13.461,13.701
			c0,2.696,0.518,5.436,1.405,7.988C28.75,35.52,29.867,37.691,31.241,39.492z"/>
		<path style="fill:#1B75BB;" d="M66.891,62.918c-0.37-4.23-2.36-7.848-7.357-10.377c-3.172-1.609-6.585-3.82-8.944-5.428
			c-0.116-0.074-0.205-0.139-0.312-0.211c-0.393-0.229-0.841-0.367-1.329-0.367c-0.616,0-1.183,0.221-1.628,0.578l-0.404,0.396
			l-4.133,4.08c-0.765,0.762-1.774,1.133-2.783,1.127c-1.008,0.006-2.016-0.365-2.786-1.127l-4.134-4.08l-0.397-0.396
			c-0.448-0.357-1.014-0.578-1.632-0.578c-0.488,0-0.936,0.139-1.33,0.367c-0.104,0.072-0.196,0.137-0.307,0.211
			c-2.363,1.607-5.777,3.818-8.955,5.428c-4.988,2.529-6.979,6.146-7.349,10.377c-0.047,0.506-0.079,1.016-0.079,1.537
			c0,0,0.637,3.967,26.646,4.045h0.303h0.006h0.031h0.002h0.301c26.014-0.078,26.649-4.045,26.649-4.045
			C66.969,63.934,66.937,63.424,66.891,62.918z"/>
	</g>
</g>
</svg>
