<?xml version="1.0" encoding="iso-8859-1"?>
<!-- Generator: Adobe Illustrator 14.0.0, SVG Export Plug-In . SVG Version: 6.00 Build 43363)  -->
<!DOCTYPE svg PUBLIC "-//W3C//DTD SVG 1.1//EN" "http://www.w3.org/Graphics/SVG/1.1/DTD/svg11.dtd">
<svg version="1.1" id="icon-m-toolbar-unlocked-layer"
	 xmlns="http://www.w3.org/2000/svg" xmlns:xlink="http://www.w3.org/1999/xlink" x="0px" y="0px" width="32px" height="32px"
	 viewBox="0 0 32 32" style="enable-background:new 0 0 32 32;" xml:space="preserve">
<g id="icon-m-toolbar-unlocked">
	<rect style="fill:none;" width="32" height="32"/>
	<path style="fill:#FFFFFF;" d="M30.844,13.512H16.008c-0.001-1.534-0.004-3.287-0.004-3.335c0-4.379-3.581-7.926-8-7.927
		c-4.419,0.001-7.999,3.548-8,7.927c0,0.052-0.002,2.118-0.003,3.749h2.454v-1.548l0,0C2.452,11.22,2.45,10.213,2.45,10.177
		c0.005-3.038,2.486-5.499,5.554-5.503c3.067,0.004,5.55,2.465,5.555,5.503c0,0.048,0.002,1.801,0.003,3.335h-1.218
		c-0.637,0-1.158,0.504-1.158,1.121v13.992c0,0.617,0.521,1.125,1.158,1.125h18.5c0.635,0,1.156-0.504,1.156-1.125V14.633
		C31.998,14.016,31.479,13.512,30.844,13.512z M23.183,21.484v5.126h-3.069v-5.06c-0.852-0.506-1.424-1.434-1.424-2.496
		c0-1.604,1.3-2.903,2.904-2.903c1.603,0,2.903,1.3,2.903,2.903C24.497,20.072,23.974,20.966,23.183,21.484z"/>
</g>
</svg>
