<?xml version="1.0" encoding="iso-8859-1"?>
<!-- Generator: Adobe Illustrator 14.0.0, SVG Export Plug-In . SVG Version: 6.00 Build 43363)  -->
<!DOCTYPE svg PUBLIC "-//W3C//DTD SVG 1.1//EN" "http://www.w3.org/Graphics/SVG/1.1/DTD/svg11.dtd">
<svg version="1.1" id="icon-m-status-menu-presence-away-layer"
	 xmlns="http://www.w3.org/2000/svg" xmlns:xlink="http://www.w3.org/1999/xlink" x="0px" y="0px" width="48px" height="48px"
	 viewBox="0 0 48 48" style="enable-background:new 0 0 48 48;" xml:space="preserve">
<g id="icon-m-status-menu-presence-away">
	<rect style="fill:none;" width="48" height="48"/>
	<path style="fill:#1072BA;" d="M27.744,6.036v13.4h6.127c2.27,0,4.115,1.786,4.115,3.979c0,2.192-1.846,3.974-4.115,3.974h-9.985
		c-0.838,0-1.651-0.246-2.353-0.717c-1.233-0.693-2.02-2.005-2.02-3.404V6.229C11.748,8.224,6,15.251,6,23.642
		c0,9.941,8.059,18,18,18c9.941,0,18-8.059,18-18C42,14.985,35.887,7.761,27.744,6.036z"/>
</g>
</svg>
