<?xml version="1.0" encoding="iso-8859-1"?>
<!-- Generator: Adobe Illustrator 14.0.0, SVG Export Plug-In . SVG Version: 6.00 Build 43363)  -->
<!DOCTYPE svg PUBLIC "-//W3C//DTD SVG 1.1//EN" "http://www.w3.org/Graphics/SVG/1.1/DTD/svg11.dtd">
<svg version="1.1" id="icon-m-content-chat-layer" xmlns="http://www.w3.org/2000/svg" xmlns:xlink="http://www.w3.org/1999/xlink"
	 x="0px" y="0px" width="48px" height="48px" viewBox="0 0 48 48" style="enable-background:new 0 0 48 48;" xml:space="preserve">
<g id="icon-m-content-chat">
	<rect style="fill:none;" width="48" height="48"/>
	<path style="fill:#333333;" d="M47.916,2.602c0-0.824-0.675-1.5-1.5-1.5H1.5c-0.825,0-1.5,0.676-1.5,1.5v32.686
		c0,0.824,0.675,1.5,1.5,1.5l22.603,0.014v8.839c0,0-0.021,0.958,0.876,1.223c0.799,0.245,1.41-0.794,1.41-0.794l5.659-9.268
		l14.368-0.014c0.825,0,1.5-0.676,1.5-1.5V2.602z M24.018,25.171H5.359v-5.089h18.658V25.171z M5.359,14.922V9.834h37.318v5.088
		H5.359z"/>
</g>
</svg>
