<?xml version="1.0" encoding="iso-8859-1"?>
<!-- Generator: Adobe Illustrator 14.0.0, SVG Export Plug-In . SVG Version: 6.00 Build 43363)  -->
<!DOCTYPE svg PUBLIC "-//W3C//DTD SVG 1.1//EN" "http://www.w3.org/Graphics/SVG/1.1/DTD/svg11.dtd">
<svg version="1.1" id="icon-s-status-loud-layer" xmlns="http://www.w3.org/2000/svg" xmlns:xlink="http://www.w3.org/1999/xlink"
	 x="0px" y="0px" width="18px" height="18px" viewBox="0 0 18 18" style="enable-background:new 0 0 18 18;" xml:space="preserve">
<g id="icon-s-status-loud">
	<rect style="fill:none;" width="18" height="18"/>
	<rect x="12" y="8.513" style="fill:#FFFFFF;" width="6" height="1"/>
	
		<rect x="12.21" y="4.22" transform="matrix(0.8394 -0.5436 0.5436 0.8394 -0.2161 8.6935)" style="fill:#FFFFFF;" width="4.781" height="0.985"/>
	
		<rect x="12.21" y="12.795" transform="matrix(-0.8394 -0.5435 0.5435 -0.8394 19.6351 32.3766)" style="fill:#FFFFFF;" width="4.781" height="0.984"/>
	<path style="fill:#FFFFFF;" d="M9.221,3.013H8.995c-0.052,0-0.128,0.029-0.17,0.064L4.919,6.402H0.323v5.188H4.88l3.954,3.359
		c0.042,0.037,0.118,0.063,0.171,0.063H9.23c0.051,0,0.093-0.052,0.093-0.113L9.316,3.127C9.316,3.063,9.271,3.013,9.221,3.013z"/>
</g>
</svg>
