<?xml version="1.0" encoding="iso-8859-1"?>
<!-- Generator: Adobe Illustrator 14.0.0, SVG Export Plug-In . SVG Version: 6.00 Build 43363)  -->
<!DOCTYPE svg PUBLIC "-//W3C//DTD SVG 1.1//EN" "http://www.w3.org/Graphics/SVG/1.1/DTD/svg11.dtd">
<svg version="1.1" id="icon-m-content-never-played-layer"
	 xmlns="http://www.w3.org/2000/svg" xmlns:xlink="http://www.w3.org/1999/xlink" x="0px" y="0px" width="48px" height="48px"
	 viewBox="0 0 48 48" style="enable-background:new 0 0 48 48;" xml:space="preserve">
<g id="icon-m-content-never-played">
	<rect style="fill:none;" width="48" height="48"/>
	<path style="fill:#333333;" d="M9.984,11.439h-2v3h2V11.439L9.984,11.439z M9.984,17.439h-2v3h2V17.439L9.984,17.439z
		 M9.984,23.439h-2v3h2V23.439L9.984,23.439z M9.984,29.439h-2v3h2V29.439L9.984,29.439z M9.984,35.439h-2v3h2V35.439L9.984,35.439z
		 M8.945,41.28l-0.941,0.158c0.058,0.345,0.234,0.575,0.483,0.665l0,0c0.004,0.002,0.007,0.004,0.011,0.004c0,0,0,0,0,0.001
		c0.001,0,0.001,0,0.001,0l0,0.001c0.003,0.001,0.006,0.002,0.01,0.003l0,0c0,0,0.001,0,0.002,0.001l0,0c0.001,0,0.001,0,0.002,0
		l0,0c0.003,0.002,0.005,0.002,0.008,0.002l0,0l0.002,0.001l0,0c0.001,0.001,0.001,0.001,0.001,0.001s0,0,0.001,0h0.001h0
		c0.002,0.002,0.005,0.002,0.007,0.002c0,0,0,0,0,0c0,0.001,0.001,0.001,0.001,0.001l0.001,0.001H8.54c0,0,0,0,0,0h0.002l0,0
		c0.002,0.001,0.004,0.002,0.006,0.002l0,0c0,0,0.001,0,0.001,0h0l0.001,0.001h0.001l0.001,0.001h0.001
		c0.002,0,0.005,0.001,0.007,0.002l0,0h0.002h0h0.001h0c0.001,0,0.001,0.001,0.001,0.001h0.001c0.002,0.001,0.003,0.001,0.005,0.002
		h0.001h0.001h0h0.001c0,0.001,0,0.001,0,0.001c0.001,0,0.001,0,0.002,0h0c0,0,0.001,0,0.001,0h0.001
		c0.002,0,0.003,0.002,0.005,0.002h0H8.59h0.001h0.001c0,0,0,0,0,0h0.002c0,0,0,0.001,0.001,0.001h0.001c0,0,0,0,0,0
		c0.001,0.001,0.002,0.001,0.003,0.001h0c0,0,0.001,0,0.001,0h0h0.001h0.002l0.001,0.001h0c0.001,0,0.001,0.001,0.001,0.001H8.61
		h0.001h0c0.001,0,0.002,0,0.003,0h0.001h0.001l0.001,0.001c0,0,0.001,0,0.001,0c0,0,0.001,0,0.001,0c0,0.001,0,0.001,0.001,0.001
		c0,0,0,0,0.001,0h0.001h0.001h0.001c0.001,0,0.001,0,0.001,0h0.001L8.63,42.14h0.001h0c0.001,0,0.001,0,0.002,0.001h0h0.001
		c0,0,0.001,0,0.002,0c0,0,0,0,0.001,0c0,0,0.001,0,0.002,0c0,0,0,0,0.001,0h0.001c0,0,0.001,0,0.001,0l0.001,0.001h0.001h0.002
		h0.001l0.001,0.001h0.001h0.001h0c0.001,0,0.001,0,0.002,0h0.001h0.001c0.001,0,0.001,0,0.001,0c0.001,0,0.001,0,0.002,0
		c0,0,0,0,0.001,0h0.001l0.001,0.001c0,0,0,0,0,0h0.001c0.001,0,0.001,0,0.001,0c0.001,0,0.001,0,0.001,0H8.67
		c0.001,0,0.001,0,0.001,0c0.001,0,0.001,0,0.001,0h0.001c0,0.001,0.001,0.001,0.001,0.001h0.001h0.001h0.001c0,0,0.001,0,0.001,0h0
		c0.001,0,0.002,0,0.002,0c0,0,0,0,0.001,0h0.001l0,0c0.001,0,0.002,0.001,0.002,0.001h0.001H8.69h0c0.001,0,0.001,0,0.001,0h0.001
		l0.002,0.001h0c0,0,0.001,0,0.002,0h0.001h0.001c0,0,0.001,0,0.001,0c0,0,0.001,0,0.002,0h0c0,0,0.001,0,0.002,0h0h0.001h0.001
		c0.001,0,0.002,0,0.002,0h0.001h0.002h0.001h0.001h0c0,0,0.001,0,0.001,0H8.72c0,0,0.001,0,0.001,0c0,0,0,0,0.001,0
		c0,0,0.001,0,0.002,0h0c0.001,0,0.001,0,0.002,0h0c0.001,0,0.001,0,0.001,0H8.73c0.001,0,0.001,0,0.001,0h0.001h0.001h0
		c0.001,0,0.001,0,0.001,0h0.001c0,0,0.001,0,0.002,0l0,0c0.18,0,0.383-0.058,0.598-0.18L8.945,41.28L8.945,41.28z M14.641,36.637
		l-2.605,1.486l0.992,1.737l2.605-1.487L14.641,36.637L14.641,36.637z M19.852,33.662l-2.605,1.486l0.991,1.738l2.605-1.488
		L19.852,33.662L19.852,33.662z M25.062,30.688l-2.605,1.487l0.992,1.737l2.605-1.488L25.062,30.688L25.062,30.688z M30.273,27.713
		L27.668,29.2l0.991,1.737l2.605-1.488L30.273,27.713L30.273,27.713z M35.484,24.738l-2.605,1.487l0.99,1.737l2.605-1.488
		L35.484,24.738L35.484,24.738z M33.754,19.972l-0.991,1.737l2.605,1.487l0.991-1.737L33.754,19.972L33.754,19.972z M28.543,16.998
		l-0.992,1.736l2.606,1.487l0.991-1.737l-0.751-0.429l-0.001-0.001l-0.003-0.001c-0.001-0.001-0.003-0.001-0.005-0.003l-0.012-0.007
		l-0.002-0.001l-0.002-0.001c-0.001-0.001-0.003-0.002-0.004-0.003l-0.004-0.002c-0.002,0-0.004-0.002-0.006-0.002l0,0
		c-0.002-0.002-0.004-0.004-0.006-0.004l-0.001-0.001c-0.005-0.003-0.009-0.005-0.014-0.008v-0.001
		c-0.003,0-0.005-0.002-0.007-0.004h-0.001c-0.002,0-0.003-0.002-0.005-0.003l-0.006-0.003
		C29.557,17.576,28.543,16.998,28.543,16.998L28.543,16.998z M23.333,14.023l-0.991,1.737l2.605,1.486l0.991-1.736L23.333,14.023
		L23.333,14.023z M18.122,11.049l-0.992,1.736l2.605,1.487l0.992-1.737c0,0-0.64-0.365-1.286-0.733l-0.006-0.003
		c0,0-0.001,0-0.002-0.002l-0.002-0.002h0L18.122,11.049L18.122,11.049z M12.911,8.074l-0.992,1.736l2.605,1.488l0.992-1.738
		L12.911,8.074L12.911,8.074z"/>
	<polygon style="fill:#333333;" points="38.156,25 40.017,24.994 40.01,22.995 38.156,23 	"/>
	<polygon style="fill:#333333;" points="7.984,7.857 9.844,7.852 9.838,5.854 7.984,5.857 	"/>
	<polygon style="fill:#333333;" points="7.984,42.146 9.844,42.142 9.838,40.143 7.984,40.148 	"/>
</g>
</svg>
