<?xml version="1.0" encoding="iso-8859-1"?>
<!-- Generator: Adobe Illustrator 14.0.0, SVG Export Plug-In . SVG Version: 6.00 Build 43363)  -->
<!DOCTYPE svg PUBLIC "-//W3C//DTD SVG 1.1//EN" "http://www.w3.org/Graphics/SVG/1.1/DTD/svg11.dtd">
<svg version="1.1" id="icon-m-content-call-duration-layer"
	 xmlns="http://www.w3.org/2000/svg" xmlns:xlink="http://www.w3.org/1999/xlink" x="0px" y="0px" width="48px" height="48px"
	 viewBox="0 0 48 48" style="enable-background:new 0 0 48 48;" xml:space="preserve">
<g id="icon-m-content-call-duration">
	<rect style="fill:none;" width="48" height="48"/>
	<path style="fill:#333333;" d="M24.772,2.624C18.485,5.577,5.998,16.552,3.028,24.332c-1.301,3.405,1.36,8.793,3.46,10.465
		c-0.001,0.009,1.081,0.907,1.891-0.012l5.663-7.624c0.385-0.494,0.764-1.142-0.016-1.916c0,0-3.918-2.817-2.784-4.619
		c0.792-1.245,8.58-9.022,9.827-9.811c1.808-1.135,4.636,2.771,4.636,2.771c0.781,0.776,1.426,0.393,1.92,0.013l7.646-5.657
		c0.921-0.818,0.017-1.893,0.011-1.893C33.597,3.97,28.089,1.068,24.772,2.624z"/>
	<g>
		<g>
			<path style="fill:#333333;" d="M36.467,35.983c-0.135,0.63-0.679,1.078-1.326,1.078c-0.749,0-1.359-0.61-1.359-1.359
				c0-0.113,0.015-0.228,0.045-0.339L31.234,32l1.273-1.02l2.591,3.363c0.235-0.01,0.466,0.047,0.679,0.161l2.811-1.308l0.686,1.481
				L36.467,35.983z"/>
		</g>
	</g>
	<path style="fill:#333333;" d="M35.189,27.466c4.536,0,8.227,3.69,8.227,8.227c0,4.535-3.69,8.227-8.227,8.227
		s-8.227-3.691-8.227-8.227C26.963,31.156,30.653,27.466,35.189,27.466 M35.189,25.567c-5.592,0-10.125,4.534-10.125,10.125
		c0,5.592,4.533,10.125,10.125,10.125s10.125-4.533,10.125-10.125C45.314,30.102,40.781,25.567,35.189,25.567L35.189,25.567z"/>
</g>
</svg>
