<?xml version="1.0" encoding="iso-8859-1"?>
<!-- Generator: Adobe Illustrator 14.0.0, SVG Export Plug-In . SVG Version: 6.00 Build 43363)  -->
<!DOCTYPE svg PUBLIC "-//W3C//DTD SVG 1.1//EN" "http://www.w3.org/Graphics/SVG/1.1/DTD/svg11.dtd">
<svg version="1.1" id="icon-m-toolbar-grid-layer" xmlns="http://www.w3.org/2000/svg" xmlns:xlink="http://www.w3.org/1999/xlink"
	 x="0px" y="0px" width="32px" height="32px" viewBox="0 0 32 32" style="enable-background:new 0 0 32 32;" xml:space="preserve">
<g id="icon-m-toolbar-grid_1_">
	<rect style="fill:none;" width="32" height="32"/>
	<g>
		<path style="fill:#FFFFFF;" d="M19.935,6.656c0,1.1-0.9,2-2,2h-4.394c-1.1,0-2-0.9-2-2V2.264c0-1.1,0.9-2,2-2h4.394
			c1.1,0,2,0.9,2,2V6.656z"/>
	</g>
	<g>
		<path style="fill:#FFFFFF;" d="M32,6.656c0,1.1-0.9,2-2,2h-4.393c-1.1,0-2-0.9-2-2V2.264c0-1.1,0.9-2,2-2H30c1.1,0,2,0.9,2,2
			V6.656z"/>
	</g>
	<g>
		<path style="fill:#FFFFFF;" d="M8.394,18.196c0,1.1-0.9,2-2,2H2c-1.1,0-2-0.9-2-2v-4.394c0-1.1,0.9-2,2-2h4.394c1.1,0,2,0.9,2,2
			V18.196z"/>
	</g>
	<g>
		<path style="fill:#FFFFFF;" d="M19.935,18.196c0,1.1-0.9,2-2,2h-4.394c-1.1,0-2-0.9-2-2v-4.394c0-1.1,0.9-2,2-2h4.394
			c1.1,0,2,0.9,2,2V18.196z"/>
	</g>
	<g>
		<path style="fill:#FFFFFF;" d="M32,18.196c0,1.1-0.9,2-2,2h-4.393c-1.1,0-2-0.9-2-2v-4.394c0-1.1,0.9-2,2-2H30c1.1,0,2,0.9,2,2
			V18.196z"/>
	</g>
	<g>
		<path style="fill:#FFFFFF;" d="M8.394,29.738c0,1.1-0.9,2-2,2H2c-1.1,0-2-0.9-2-2v-4.395c0-1.1,0.9-2,2-2h4.394c1.1,0,2,0.9,2,2
			V29.738z"/>
	</g>
	<g>
		<path style="fill:#FFFFFF;" d="M19.935,29.738c0,1.1-0.9,2-2,2h-4.394c-1.1,0-2-0.9-2-2v-4.395c0-1.1,0.9-2,2-2h4.394
			c1.1,0,2,0.9,2,2V29.738z"/>
	</g>
	<g>
		<path style="fill:#FFFFFF;" d="M32,29.738c0,1.1-0.9,2-2,2h-4.393c-1.1,0-2-0.9-2-2v-4.395c0-1.1,0.9-2,2-2H30c1.1,0,2,0.9,2,2
			V29.738z"/>
	</g>
	<g>
		<path style="fill:#FFFFFF;" d="M8.394,6.656c0,1.1-0.9,2-2,2H2c-1.1,0-2-0.9-2-2V2.264c0-1.1,0.9-2,2-2h4.394c1.1,0,2,0.9,2,2
			V6.656z"/>
	</g>
</g>
</svg>
