<?xml version="1.0" encoding="iso-8859-1"?>
<!-- Generator: Adobe Illustrator 14.0.0, SVG Export Plug-In . SVG Version: 6.00 Build 43363)  -->
<!DOCTYPE svg PUBLIC "-//W3C//DTD SVG 1.1//EN" "http://www.w3.org/Graphics/SVG/1.1/DTD/svg11.dtd">
<svg version="1.1" id="icon-m-content-backup-layer"
	 xmlns="http://www.w3.org/2000/svg" xmlns:xlink="http://www.w3.org/1999/xlink" x="0px" y="0px" width="48px" height="48px"
	 viewBox="0 0 48 48" style="enable-background:new 0 0 48 48;" xml:space="preserve">
<g id="icon-m-content-backup_2_">
	<rect style="fill:none;" width="48" height="48"/>
	<rect x="37.5" y="29.25" style="fill:#333333;" width="3.75" height="6.75"/>
	<rect x="37.5" y="12.831" style="fill:#333333;" width="3.75" height="6.75"/>
	<path style="fill:#333333;" d="M46.5,0h-45C0.675,0,0,0.674,0,1.5v45C0,47.324,0.675,48,1.5,48h45c0.825,0,1.5-0.676,1.5-1.5v-45
		C48,0.674,47.325,0,46.5,0z M44.25,44.25H3.75V3.75h40.5V44.25z"/>
	<path style="fill:#333333;" d="M35.25,12.195V10.5h2.123h2.377V6H6v36h33.203v-3.357h-1.83H35.25V36.28v-7.257v-2.361h2.123H39
		v-4.848h-1.627H35.25v-2.363V12.195z M24.908,14.644l-1.942,2.942c-2.42-0.992-5.224-0.393-7.031,1.512l-2.944-1.943
		C15.904,13.669,20.844,12.636,24.908,14.644z M11.757,19.026l2.944,1.942c-1.039,2.408-0.487,5.223,1.378,7.058l-1.942,2.944
		C10.691,28.024,9.698,23.076,11.757,19.026z M15.989,32.234l1.942-2.945c2.478,1.123,5.405,0.539,7.262-1.438l2.943,1.942
		C25.179,33.359,20.101,34.386,15.989,32.234z M29.335,27.977l-2.944-1.941c1.088-2.487,0.473-5.407-1.534-7.242l1.942-2.944
		C30.395,18.782,31.449,23.854,29.335,27.977z"/>
</g>
</svg>
