<?xml version="1.0" encoding="iso-8859-1"?>
<!-- Generator: Adobe Illustrator 14.0.0, SVG Export Plug-In . SVG Version: 6.00 Build 43363)  -->
<!DOCTYPE svg PUBLIC "-//W3C//DTD SVG 1.1//EN" "http://www.w3.org/Graphics/SVG/1.1/DTD/svg11.dtd">
<svg version="1.1" id="icon-m-camera-video-high-resolution-layer"
	 xmlns="http://www.w3.org/2000/svg" xmlns:xlink="http://www.w3.org/1999/xlink" x="0px" y="0px" width="32px" height="32px"
	 viewBox="0 0 32 32" style="enable-background:new 0 0 32 32;" xml:space="preserve">
<g id="icon-m-camera-video-high-resolution">
	<rect style="fill:none;" width="32" height="32"/>
	<path style="fill:#FFFFFF;" d="M27.25,27.25V14.443c-7.073,0-12.807,5.733-12.807,12.807H27.25z"/>
	<path style="fill:#FFFFFF;" d="M14.424,19.646h-1.035c-0.191,0-0.349-0.156-0.349-0.347v-1.392c0-0.191,0.158-0.348,0.349-0.348
		h1.391c0.191,0,0.348,0.156,0.348,0.348v0.666c0.563-0.785,1.2-1.514,1.902-2.175l-6.452,0.008v-0.012h-0.005V9.408h0.005V9.397
		h9.894v4.572c0.653-0.335,1.333-0.622,2.038-0.859V9.408h0.873V8.535h-0.937c-0.192,0-0.348-0.467-0.348-0.658V6.485
		c0-0.191,0.155-0.348,0.348-0.348h0.937V4.75H4.75v1.371v0.017h0.945c0.191,0,0.348,0.156,0.348,0.348V7.86
		c0,0.19-0.157,0.658-0.348,0.658H4.75v0.017v0.862v0.011h4.076v6.987H4.75v0.012v1.153v0.016h0.945
		c0.191,0,0.348,0.156,0.348,0.348V19.3c0,0.19-0.157,0.347-0.348,0.347H4.75v0.017v1.1h9.07
		C14.005,20.381,14.208,20.01,14.424,19.646z M17.577,6.485c0-0.191,0.156-0.348,0.349-0.348h1.391c0.19,0,0.348,0.156,0.348,0.348
		v1.392c0,0.191-0.157,0.658-0.348,0.658h-1.391c-0.192,0-0.349-0.467-0.349-0.658V6.485z M13.041,6.485
		c0-0.191,0.158-0.348,0.349-0.348h1.391c0.191,0,0.348,0.156,0.348,0.348v1.392c0,0.191-0.156,0.658-0.348,0.658h-1.391
		c-0.191,0-0.349-0.467-0.349-0.658V6.485z M8.492,7.86V6.485c0-0.191,0.156-0.348,0.347-0.348h1.392
		c0.191,0,0.348,0.156,0.348,0.348V7.86c0,0.19-0.156,0.658-0.348,0.658H8.839C8.647,8.519,8.492,8.051,8.492,7.86z M10.578,19.3
		c0,0.19-0.156,0.347-0.348,0.347H8.839c-0.191,0-0.347-0.156-0.347-0.347v-1.376c0-0.191,0.156-0.348,0.347-0.348h1.392
		c0.191,0,0.348,0.156,0.348,0.348V19.3z"/>
	<path style="fill:none;" d="M23.739,8.037c0.046,0.015,0.091,0.031,0.136,0.046V8.037H23.739z"/>
</g>
</svg>
