<?xml version="1.0" encoding="iso-8859-1"?>
<!-- Generator: Adobe Illustrator 14.0.0, SVG Export Plug-In . SVG Version: 6.00 Build 43363)  -->
<!DOCTYPE svg PUBLIC "-//W3C//DTD SVG 1.1//EN" "http://www.w3.org/Graphics/SVG/1.1/DTD/svg11.dtd">
<svg version="1.1" id="icon-s-messaging-smiley-cry-layer"
	 xmlns="http://www.w3.org/2000/svg" xmlns:xlink="http://www.w3.org/1999/xlink" x="0px" y="0px" width="18px" height="18px"
	 viewBox="0 0 18 18" style="enable-background:new 0 0 18 18;" xml:space="preserve">
<g id="icon-s-messaging-smiley-cry">
	<rect style="fill:none;" width="18" height="18"/>
	<g>
		<circle style="fill:#FFCD0A;" cx="9" cy="9" r="8.5"/>
		<g>
			<path style="fill:#4798ED;" d="M4.252,10.329c-0.43,0.863-0.941,0.911-1.422,0.672c-0.481-0.239-0.75-0.677-0.319-1.541
				c0.431-0.862,2.215-2.261,2.215-2.261S4.683,9.467,4.252,10.329z"/>
			<path style="fill:#4798ED;" d="M13.748,10.329c0.43,0.863,0.941,0.911,1.422,0.672s0.75-0.677,0.319-1.541
				c-0.431-0.862-2.216-2.261-2.216-2.261S13.317,9.467,13.748,10.329z"/>
		</g>
		<g>
			<path style="fill:#040505;" d="M11.079,4.779 M11.079,4.307c-0.307,0-0.616,0.097-0.88,0.296C9.555,5.09,9.429,6.007,9.916,6.65
				c0.287,0.379,0.725,0.578,1.166,0.578c0.307,0,0.617-0.096,0.881-0.295c0.643-0.488,0.77-1.404,0.283-2.047
				C11.958,4.507,11.521,4.307,11.079,4.307L11.079,4.307z"/>
			<path style="fill:#040505;" d="M6.918,4.307c-0.307,0-0.617,0.097-0.88,0.296C5.394,5.09,5.268,6.007,5.755,6.65
				c0.287,0.379,0.725,0.578,1.166,0.578c0.308,0,0.616-0.096,0.88-0.295c0.644-0.488,0.771-1.404,0.283-2.047
				C7.796,4.507,7.359,4.307,6.918,4.307L6.918,4.307z"/>
			<path style="fill:#FFFFFF;" d="M6.918,5.059c0.225,0,0.431,0.103,0.566,0.281C7.72,5.651,7.658,6.098,7.347,6.334
				C7.223,6.427,7.076,6.477,6.92,6.477c-0.224,0-0.431-0.104-0.565-0.28C6.24,6.045,6.191,5.858,6.217,5.671
				s0.124-0.354,0.274-0.468C6.616,5.109,6.764,5.059,6.918,5.059"/>
			<path style="fill:#4798ED;" d="M5.518,6.166c0.048,0.227,0.124,0.446,0.237,0.645c0.287,0.506,0.725,0.773,1.166,0.773
				c0.308,0,0.616-0.129,0.88-0.395c0.263-0.267,0.435-0.63,0.519-1.023H5.518z"/>
			<path style="fill:#FFFFFF;" d="M11.094,5.059c0.225,0,0.431,0.103,0.566,0.281c0.234,0.312,0.173,0.758-0.137,0.994
				c-0.125,0.093-0.272,0.143-0.428,0.143c-0.225,0-0.43-0.104-0.565-0.28c-0.114-0.151-0.163-0.338-0.138-0.525
				c0.026-0.188,0.124-0.354,0.275-0.468C10.791,5.109,10.939,5.059,11.094,5.059"/>
			<path style="fill:#4798ED;" d="M9.68,6.166c0.048,0.227,0.125,0.446,0.237,0.645c0.288,0.506,0.725,0.773,1.166,0.773
				c0.308,0,0.616-0.129,0.88-0.395c0.264-0.267,0.435-0.63,0.519-1.023H9.68z"/>
		</g>
		<path style="fill:#040505;" d="M9,12.122c2.074,0,3.8,1.097,4.173,2.544c0.049-0.189,0.077-0.386,0.077-0.587
			c0-1.729-1.902-3.131-4.25-3.131s-4.25,1.401-4.25,3.131c0,0.201,0.028,0.397,0.077,0.587C5.2,13.219,6.926,12.122,9,12.122z"/>
		<path style="fill:#333333;" d="M9.658,11.814"/>
	</g>
</g>
</svg>
