<?xml version="1.0" encoding="iso-8859-1"?>
<!-- Generator: Adobe Illustrator 14.0.0, SVG Export Plug-In . SVG Version: 6.00 Build 43363)  -->
<!DOCTYPE svg PUBLIC "-//W3C//DTD SVG 1.1//EN" "http://www.w3.org/Graphics/SVG/1.1/DTD/svg11.dtd">
<svg version="1.1" id="icon-m-telephony-video-call-layer"
	 xmlns="http://www.w3.org/2000/svg" xmlns:xlink="http://www.w3.org/1999/xlink" x="0px" y="0px" width="48px" height="48px"
	 viewBox="0 0 48 48" style="enable-background:new 0 0 48 48;" xml:space="preserve">
<g id="icon-m-telephony-video-call_1_">
	<rect style="fill:none;" width="48" height="48"/>
	<path style="fill:#333333;" d="M37.969,38.033C34.078,40.971,29.24,42.717,24,42.717c-5.24,0-10.078-1.746-13.97-4.684
		C5.841,40.493,3.184,44.044,3.106,48h41.787C44.816,44.044,42.159,40.493,37.969,38.033z"/>
	<path style="fill:#333333;" d="M24,38.967c10.76,0,19.483-8.722,19.483-19.483C43.483,8.721,34.76,0,24,0
		C13.239,0,4.516,8.721,4.516,19.483C4.516,30.245,13.239,38.967,24,38.967z M24,11.984c4.137,0,7.5,3.363,7.5,7.496
		c0,4.136-3.363,7.5-7.5,7.5c-4.135,0-7.5-3.364-7.5-7.5C16.5,15.348,19.865,11.984,24,11.984z"/>
</g>
</svg>
