<?xml version="1.0" encoding="iso-8859-1"?>
<!-- Generator: Adobe Illustrator 14.0.0, SVG Export Plug-In . SVG Version: 6.00 Build 43363)  -->
<!DOCTYPE svg PUBLIC "-//W3C//DTD SVG 1.1//EN" "http://www.w3.org/Graphics/SVG/1.1/DTD/svg11.dtd">
<svg version="1.1" id="icon-m-common-device-root-layer"
	 xmlns="http://www.w3.org/2000/svg" xmlns:xlink="http://www.w3.org/1999/xlink" x="0px" y="0px" width="48px" height="48px"
	 viewBox="0 0 48 48" style="enable-background:new 0 0 48 48;" xml:space="preserve">
<g id="icon-m-common-device-root">
	<rect style="fill:none;" width="48" height="48"/>
	<path style="fill:#333333;" d="M34.495,48c0.841,0,1.583-0.69,1.738-1.502c0,0,0.783-3.975,0.783-4.815V6.318
		c0-0.842-0.783-4.816-0.783-4.816C36.078,0.69,35.336,0,34.495,0h-20.99c-0.841,0-1.583,0.69-1.738,1.502
		c0,0-0.783,3.975-0.783,4.816v35.364c0,0.841,0.783,4.815,0.783,4.815C11.922,47.31,12.664,48,13.505,48H34.495z M34.39,41.619
		H13.61V6.081h20.78V41.619z"/>
</g>
</svg>
