<?xml version="1.0" encoding="iso-8859-1"?>
<!-- Generator: Adobe Illustrator 14.0.0, SVG Export Plug-In . SVG Version: 6.00 Build 43363)  -->
<!DOCTYPE svg PUBLIC "-//W3C//DTD SVG 1.1//EN" "http://www.w3.org/Graphics/SVG/1.1/DTD/svg11.dtd">
<svg version="1.1" id="icon-m-common-3g-layer" xmlns="http://www.w3.org/2000/svg" xmlns:xlink="http://www.w3.org/1999/xlink"
	 x="0px" y="0px" width="48px" height="48px" viewBox="0 0 48 48" style="enable-background:new 0 0 48 48;" xml:space="preserve">
<g id="icon-m-common-3g">
	<rect style="fill:none;" width="48" height="48"/>
	<path style="fill:#333333;" d="M8.146,13.444c-1.76,0-3.595,0.458-5.431,0.956v-3.71c1.989-0.497,4.322-0.918,6.693-0.918
		c5.24,0,9.026,1.76,9.026,6.923c0,3.251-1.798,5.469-5.049,6.464c3.595,0.65,5.546,3.099,5.546,6.502
		c0,6.119-3.863,8.567-10.632,8.567c-2.257,0-4.246-0.307-6.426-0.881v-3.709c2.295,0.535,4.093,0.918,5.814,0.918
		c3.519,0,4.895-1.684,4.895-4.781c0-4.092-2.371-4.818-8.261-4.818v-3.52c5.661,0,7.917-0.611,7.917-4.321
		C12.238,14.63,10.861,13.444,8.146,13.444z"/>
	<path style="fill:#333333;" d="M43.525,35.475c-1.07,1.645-3.213,2.754-5.584,2.754c-8.338,0-9.6-7.382-9.6-14.535
		c0-7.419,2.83-13.921,12.238-13.921c2.027,0,4.055,0.229,5.928,0.727v3.634c-1.797-0.497-3.441-0.688-5.354-0.688
		c-5.087,0-6.272,5.163-6.272,10.173c0,5.623,0.229,10.939,4.093,10.939c1.949,0,2.868-1.606,2.868-3.825v-4.245H38.63v-3.672H48
		v15.107h-3.71L43.525,35.475z"/>
</g>
</svg>
