<?xml version="1.0" encoding="iso-8859-1"?>
<!-- Generator: Adobe Illustrator 14.0.0, SVG Export Plug-In . SVG Version: 6.00 Build 43363)  -->
<!DOCTYPE svg PUBLIC "-//W3C//DTD SVG 1.1//EN" "http://www.w3.org/Graphics/SVG/1.1/DTD/svg11.dtd">
<svg version="1.1" id="icon-m-settings-keychain-layer"
	 xmlns="http://www.w3.org/2000/svg" xmlns:xlink="http://www.w3.org/1999/xlink" x="0px" y="0px" width="48px" height="48px"
	 viewBox="0 0 48 48" style="enable-background:new 0 0 48 48;" xml:space="preserve">
<g id="icon-m-settings-keychain">
	<rect style="fill:none;" width="48" height="48"/>
	<path style="fill:#333333;" d="M26.816,13.74c-4.126,1.343-5.898,5.621-4.558,9.74c0.927,2.844,5.057,5.058,5.057,5.058
		c0.107,0.044,2.828,0.882,2.891,1.114c-0.117,0.432-1.575,3.256-1.575,3.256s2.512,0.727,3.233,1.131
		c-0.237,0.87-1.59,3.285-1.59,3.285s2.827,1.095,3.64,1.621c-0.269,0.717-1.656,2.625-1.656,2.625l3.053,1.605l0.26,0.794
		l4.103-1.354c0.416-0.139,0.656-0.601,0.52-1.021l-4.807-14.766c-0.138-0.423-0.061-1.099,0.138-1.497c0,0,2.008-4.014,1.182-6.556
		C35.363,14.658,30.928,12.401,26.816,13.74z M27.638,15.749c1.901-0.618,3.954,0.421,4.575,2.328
		c0.619,1.907-0.426,3.958-2.326,4.578c-1.911,0.621-3.958-0.423-4.579-2.331C24.686,18.416,25.728,16.371,27.638,15.749z"/>
	<path style="fill:#333333;" d="M14.213,15.001l2.362-0.253c-0.713-0.986-1.196-2.16-1.357-3.451
		c-0.508-4.096,2.411-7.842,6.506-8.35c4.097-0.509,7.842,2.41,8.35,6.506c0.271,2.175-0.432,4.244-1.758,5.79
		c0.821-0.007,1.627,0.129,2.391,0.381c1.198-1.837,1.781-4.089,1.49-6.435c-0.654-5.274-5.462-9.02-10.736-8.365
		c-5.275,0.655-9.02,5.461-8.365,10.735C13.25,12.807,13.644,13.963,14.213,15.001z"/>
	<path style="fill:#333333;" d="M24,16.5h0.95l-3.161-2.657c-0.926-0.779-2.672-1.312-3.876-1.184l-5.415,0.579
		c-1.204,0.129-2.123,1.115-2.039,2.193l1.126,14.682c0.059,0.771,0.362,1.514,0.748,1.943l-1.183,3.875l0.542,0.165l-0.564,1.846
		l-0.541-0.165l-0.564,1.846l1.625,0.496l-0.564,1.848l-1.626-0.498l-0.563,1.847l1.626,0.497l-0.564,1.847l-1.625-0.497
		l-0.564,1.846L11.02,48l4.564-14.952c0.56-0.14,1.225-0.587,1.706-1.194L24,23.371V16.5z M21.381,19.879
		c-0.468,1.529-2.301,2.325-4.096,1.777c-1.795-0.549-2.872-2.232-2.405-3.762c0.467-1.527,2.3-2.324,4.096-1.776
		S21.848,18.351,21.381,19.879z"/>
</g>
</svg>
