<?xml version="1.0" encoding="iso-8859-1"?>
<!-- Generator: Adobe Illustrator 14.0.0, SVG Export Plug-In . SVG Version: 6.00 Build 43363)  -->
<!DOCTYPE svg PUBLIC "-//W3C//DTD SVG 1.1//EN" "http://www.w3.org/Graphics/SVG/1.1/DTD/svg11.dtd">
<svg version="1.1" id="icon-s-status-cellular-layer"
	 xmlns="http://www.w3.org/2000/svg" xmlns:xlink="http://www.w3.org/1999/xlink" x="0px" y="0px" width="18px" height="18px"
	 viewBox="0 0 18 18" style="enable-background:new 0 0 18 18;" xml:space="preserve">
<g id="icon-s-status-cellular_2_">
	<rect x="1" style="fill:none;" width="18" height="18"/>
	<path style="fill:#FFFFFF;" d="M13.047,0.239C9.619,1.851,2.811,7.834,1.192,12.075c-0.709,1.858,0.742,4.795,1.887,5.706
		c-0.001,0.004,0.589,0.495,1.031-0.007l3.087-4.155c0.21-0.27,0.417-0.623-0.009-1.044c0,0-2.136-1.538-1.518-2.52
		c0.432-0.68,4.677-4.919,5.357-5.35c0.986-0.619,2.528,1.512,2.528,1.512c0.426,0.424,0.776,0.214,1.046,0.006l4.17-3.084
		c0.502-0.445,0.008-1.031,0.005-1.031C17.857,0.974,14.855-0.606,13.047,0.239z"/>
</g>
</svg>
