<?xml version="1.0" encoding="iso-8859-1"?>
<!-- Generator: Adobe Illustrator 14.0.0, SVG Export Plug-In . SVG Version: 6.00 Build 43363)  -->
<!DOCTYPE svg PUBLIC "-//W3C//DTD SVG 1.1//EN" "http://www.w3.org/Graphics/SVG/1.1/DTD/svg11.dtd">
<svg version="1.1" id="icon-s-status-alarm-layer" xmlns="http://www.w3.org/2000/svg" xmlns:xlink="http://www.w3.org/1999/xlink"
	 x="0px" y="0px" width="16px" height="16px" viewBox="0 0 16 16" style="enable-background:new 0 0 16 16;" xml:space="preserve">
<g id="icon-s-status-alarm">
	<rect x="1" style="fill:none;" width="16" height="16"/>
	<path style="fill:#FFFFFF;" d="M16.186,5.047c-0.441-0.451-0.908-0.556-1.492-0.779c-1.404-0.539-2.789-1.334-3.959-2.282
		C9.948,1.348,9.223,0.827,8.257,0.451C6.212-0.344,4.055-0.127,2.44,1.419L2.42,1.439C0.874,3.055,0.655,5.211,1.452,7.257
		c0.375,0.966,0.896,1.691,1.533,2.478c0.949,1.169,1.744,2.555,2.283,3.959c0.224,0.584,0.329,1.051,0.779,1.492
		c0.306,0.301,0.321,0.32,0.623,0.623c0.203,0.203,0.604,0.273,0.807,0.07l4.691-4.691l0.02-0.021l4.691-4.688
		c0.202-0.203,0.133-0.604-0.07-0.807C16.506,5.368,16.486,5.353,16.186,5.047z"/>
	<path style="fill:#FFFFFF;" d="M11.574,14.005c0.438,0.729,1.232,1.218,2.145,1.218c1.383,0,2.504-1.121,2.504-2.503
		c0-0.913-0.49-1.708-1.217-2.147L11.574,14.005z"/>
</g>
</svg>
