<?xml version="1.0" encoding="iso-8859-1"?>
<!-- Generator: Adobe Illustrator 14.0.0, SVG Export Plug-In . SVG Version: 6.00 Build 43363)  -->
<!DOCTYPE svg PUBLIC "-//W3C//DTD SVG 1.1//EN" "http://www.w3.org/Graphics/SVG/1.1/DTD/svg11.dtd">
<svg version="1.1" id="icon-m-common-45g-layer" xmlns="http://www.w3.org/2000/svg" xmlns:xlink="http://www.w3.org/1999/xlink"
	 x="0px" y="0px" width="48px" height="48px" viewBox="0 0 48 48" style="enable-background:new 0 0 48 48;" xml:space="preserve">
<g id="icon-m-common-45g">
	<rect style="fill:none;" width="48" height="48"/>
	<path style="fill:#333333;" d="M20.499,31.936H17.63v5.891h-6.158v-5.891h-10.9v-3.519L11.779,9.868h5.852v18.396h2.868V31.936z
		 M11.473,28.265V17.02L4.856,28.265H11.473z"/>
	<path style="fill:#333333;" d="M25.166,38.132c-1.874,0-3.365-1.491-3.365-3.366c0-1.873,1.492-3.403,3.365-3.403
		c1.875,0,3.404,1.53,3.404,3.403C28.57,36.641,27.041,38.132,25.166,38.132z"/>
	<path style="fill:#333333;" d="M37.635,19.965c0.498-0.076,1.109-0.076,1.684-0.076c5.393,0,8.682,2.944,8.682,8.797
		c0,6.349-3.252,9.446-10.365,9.446c-2.256,0-4.513-0.344-6.54-0.841v-3.748c1.913,0.496,3.634,0.918,5.431,0.918
		c3.672,0,5.125-1.837,5.125-5.584c0-3.252-1.683-5.202-5.621-5.202c-1.225,0-2.869,0.039-4.055,0.191V9.982h14.954v3.672h-9.294
		V19.965z"/>
</g>
</svg>
