<?xml version="1.0" encoding="iso-8859-1"?>
<!-- Generator: Adobe Illustrator 14.0.0, SVG Export Plug-In . SVG Version: 6.00 Build 43363)  -->
<!DOCTYPE svg PUBLIC "-//W3C//DTD SVG 1.1//EN" "http://www.w3.org/Graphics/SVG/1.1/DTD/svg11.dtd">
<svg version="1.1" id="icon-m-calendar-location-picker-layer"
	 xmlns="http://www.w3.org/2000/svg" xmlns:xlink="http://www.w3.org/1999/xlink" x="0px" y="0px" width="32px" height="32px"
	 viewBox="0 0 32 32" style="enable-background:new 0 0 32 32;" xml:space="preserve">
<g id="icon-m-calendar-location-picker">
	<rect style="fill:none;" width="32" height="32"/>
	<path style="fill:#FFFFFF;" d="M16,2.666c-4.381,0.052-7.915,3.239-7.915,7.172c0,1.257,0.361,2.438,0.993,3.463H9.08
		c0.21,0.343,1.404,2.049,1.671,2.354c2.753,3.932,4.111,8.553,5.189,13.68h0.118c1.08-5.127,2.437-9.748,5.189-13.68
		c0.268-0.305,1.461-2.011,1.672-2.352v-0.002c0.633-1.025,0.994-2.206,0.994-3.463C23.914,5.905,20.381,2.718,16,2.666z
		 M16.148,12.803c-1.698,0-3.072-1.369-3.072-3.065c0-1.693,1.375-3.063,3.072-3.063c1.695,0,3.072,1.37,3.072,3.063
		C19.221,11.434,17.844,12.803,16.148,12.803z"/>
</g>
</svg>
