<?xml version="1.0" encoding="iso-8859-1"?>
<!-- Generator: Adobe Illustrator 14.0.0, SVG Export Plug-In . SVG Version: 6.00 Build 43363)  -->
<!DOCTYPE svg PUBLIC "-//W3C//DTD SVG 1.1//EN" "http://www.w3.org/Graphics/SVG/1.1/DTD/svg11.dtd">
<svg version="1.1" id="icon-m-common-tag-layer" xmlns="http://www.w3.org/2000/svg" xmlns:xlink="http://www.w3.org/1999/xlink"
	 x="0px" y="0px" width="48px" height="48px" viewBox="0 0 48 48" style="enable-background:new 0 0 48 48;" xml:space="preserve">
<g id="icon-m-common-tag">
	<rect style="fill:none;" width="48" height="48"/>
	<path style="fill:#333333;" d="M40.506,16.335l0.064-0.164l-0.015-0.006c0.128-0.436,0.126-0.911-0.056-1.353L35.289,2.128
		c-0.409-0.997-1.542-1.438-2.52-0.981L20.351,6.963c-0.431,0.202-0.755,0.551-0.956,0.958l-0.014-0.006L7.356,38.778l21.188,8.255
		l11.959-30.694L40.506,16.335z M34.299,11.861c-0.838,2.075-3.177,3.133-5.227,2.362c-2.049-0.771-3.031-3.077-2.192-5.151
		c0.837-2.076,3.177-3.134,5.227-2.363C34.155,7.479,35.137,9.787,34.299,11.861z"/>
</g>
</svg>
