<?xml version="1.0" encoding="iso-8859-1"?>
<!-- Generator: Adobe Illustrator 14.0.0, SVG Export Plug-In . SVG Version: 6.00 Build 43363)  -->
<!DOCTYPE svg PUBLIC "-//W3C//DTD SVG 1.1//EN" "http://www.w3.org/Graphics/SVG/1.1/DTD/svg11.dtd">
<svg version="1.1" id="icon-l-drive-layer" xmlns="http://www.w3.org/2000/svg" xmlns:xlink="http://www.w3.org/1999/xlink" x="0px"
	 y="0px" width="80px" height="81px" viewBox="0 0 80 81" style="enable-background:new 0 0 80 81;" xml:space="preserve">
<g id="icon-l-drive">
	<linearGradient id="SVGID_1_" gradientUnits="userSpaceOnUse" x1="39.9995" y1="20.397" x2="39.9995" y2="207.4508">
		<stop  offset="0" style="stop-color:#FFFFFF"/>
		<stop  offset="1" style="stop-color:#B2B2C9"/>
	</linearGradient>
	<path style="fill:url(#SVGID_1_);" d="M12.521,34.85c0.66,0.346,1.541,0.512,2.443,0.576c-1.468,1.134-2.423,2.906-2.423,4.895
		v9.897c0,0.803,0.267,1.541,0.704,2.149v1.568H25v-0.008l2.922,0.001h24.125L55,53.928v0.008h11.754v-1.567
		c0.438-0.607,0.704-1.348,0.704-2.15V40.32c0-1.988-0.955-3.761-2.425-4.895c0.902-0.064,1.783-0.23,2.445-0.576
		c2.162-1.123,3.117-3.568,2.133-5.461c-0.737-1.416-5.838-0.457-8.359,0.116c-2.621-10.276-6.281-12.981-7.139-12.981
		c-0.121,0-0.187,0.014-0.187,0.014H26.074c0,0-0.065-0.014-0.188-0.014c-0.857,0-4.519,2.704-7.139,12.981
		c-2.521-0.573-7.624-1.532-8.361-0.116C9.404,31.281,10.357,33.727,12.521,34.85z M50.8,49.076c0,0.66-0.54,1.2-1.2,1.2H30.4
		c-0.66,0-1.2-0.54-1.2-1.2v-1.201c0-0.658,0.54-1.198,1.2-1.198H49.6c0.66,0,1.2,0.54,1.2,1.198V49.076z M50.8,43.076
		c0,0.66-0.54,1.2-1.2,1.2H30.4c-0.66,0-1.2-0.54-1.2-1.2v-1.199c0-0.66,0.54-1.2,1.2-1.2H49.6c0.66,0,1.2,0.54,1.2,1.2V43.076z
		 M64.145,44.996c0,2.65-2.148,4.801-4.802,4.801c-2.65,0-4.799-2.15-4.799-4.801s2.148-4.799,4.799-4.799
		C61.996,40.197,64.145,42.346,64.145,44.996z M27.264,19.009h0.23h25.014l0.036,0.067l0.193-0.067
		c0.454,0.104,3.286,3.234,5.262,12.902h-36C23.979,22.238,26.812,19.113,27.264,19.009z M20.657,40.199
		c2.649,0,4.799,2.148,4.799,4.799c0,2.652-2.149,4.801-4.799,4.801c-2.652,0-4.802-2.148-4.802-4.801
		C15.855,42.348,18.005,40.199,20.657,40.199z M25,56.336v3.43c0,2.041-1.671,3.711-3.713,3.711h-4.328
		c-2.041,0-3.713-1.67-3.713-3.711v-3.43H25z M66.754,56.336v3.43c0,2.041-1.671,3.711-3.713,3.711h-4.328
		c-2.042,0-3.713-1.67-3.713-3.711v-3.43H66.754z"/>
	<rect style="fill:none;" width="80" height="80"/>
</g>
</svg>
