<?xml version="1.0" encoding="iso-8859-1"?>
<!-- Generator: Adobe Illustrator 14.0.0, SVG Export Plug-In . SVG Version: 6.00 Build 43363)  -->
<!DOCTYPE svg PUBLIC "-//W3C//DTD SVG 1.1//EN" "http://www.w3.org/Graphics/SVG/1.1/DTD/svg11.dtd">
<svg version="1.1" id="icon-s-common-presence-online-layer"
	 xmlns="http://www.w3.org/2000/svg" xmlns:xlink="http://www.w3.org/1999/xlink" x="0px" y="0px" width="18px" height="18px"
	 viewBox="0 0 18 18" style="enable-background:new 0 0 18 18;" xml:space="preserve">
<g id="icon-s-common-presence-online">
	<rect style="fill:none;" width="18" height="18"/>
	<path style="fill:#333333;" d="M15.769,5.926c-1.741,1.605-4.335,4.252-6.801,7.744c-0.077,0.11-0.183,0.193-0.306,0.241v0.049
		l-0.476-0.038c-0.096-0.033-0.183-0.088-0.257-0.161L2.947,8.752C2.826,8.631,2.754,8.463,2.75,8.291l0.006-0.1
		c0.021-0.16,0.096-0.307,0.213-0.414l1.658-1.531C4.888,6.002,5.34,6.015,5.582,6.273l2.369,2.431
		c2.217-2.977,5.155-4.921,7.558-5.903C13.868,1.079,11.561,0,9,0C4.037,0,0,4.037,0,9s4.037,9,9,9s9-4.037,9-9
		c0-1.497-0.373-2.906-1.021-4.149C16.577,5.193,16.174,5.553,15.769,5.926z"/>
	<path style="fill:#FFFFFF;" d="M15.769,5.926c-1.741,1.605-4.335,4.252-6.801,7.744c-0.077,0.11-0.183,0.193-0.306,0.241v0.049
		l-0.476-0.038c-0.096-0.033-0.183-0.088-0.257-0.161L2.947,8.752C2.826,8.631,2.754,8.463,2.75,8.291l0.006-0.1
		c0.021-0.16,0.096-0.307,0.213-0.414l1.658-1.531C4.888,6.002,5.34,6.015,5.582,6.273l2.369,2.431
		c2.217-2.977,5.155-4.921,7.558-5.903c0.562,0.602,1.121,1.446,1.47,2.05C16.577,5.193,16.174,5.553,15.769,5.926z"/>
</g>
</svg>
