<?xml version="1.0" encoding="iso-8859-1"?>
<!-- Generator: Adobe Illustrator 14.0.0, SVG Export Plug-In . SVG Version: 6.00 Build 43363)  -->
<!DOCTYPE svg PUBLIC "-//W3C//DTD SVG 1.1//EN" "http://www.w3.org/Graphics/SVG/1.1/DTD/svg11.dtd">
<svg version="1.1" id="icon-m-settings-call-layer" xmlns="http://www.w3.org/2000/svg" xmlns:xlink="http://www.w3.org/1999/xlink"
	 x="0px" y="0px" width="64px" height="64px" viewBox="0 0 64 64" style="enable-background:new 0 0 64 64;" xml:space="preserve">
<g id="icon-m-settings-call">
	<rect style="opacity:0;fill:#FFFFFF;" width="64" height="64"/>
	<g>
		<path style="fill:#FFFFFF;" d="M6.694,23.199c4.652,9.902,21.938,29.57,34.191,34.248c5.363,2.047,13.85-2.143,16.482-5.451
			c0.014,0.002,1.43-1.703-0.018-2.979l-12.008-8.919c-0.78-0.606-1.799-1.203-3.018,0.024c0,0-4.439,6.174-7.277,4.386
			c-1.961-1.247-14.208-13.513-15.45-15.477c-1.788-2.848,4.365-7.302,4.365-7.302c1.223-1.23,0.618-2.244,0.02-3.023l-8.91-12.042
			c-1.288-1.45-2.98-0.025-2.98-0.016C8.815,9.302,4.245,17.976,6.694,23.199z"/>
	</g>
</g>
</svg>
