<?xml version="1.0" encoding="iso-8859-1"?>
<!-- Generator: Adobe Illustrator 14.0.0, SVG Export Plug-In . SVG Version: 6.00 Build 43363)  -->
<!DOCTYPE svg PUBLIC "-//W3C//DTD SVG 1.1//EN" "http://www.w3.org/Graphics/SVG/1.1/DTD/svg11.dtd">
<svg version="1.1" id="icon-m-content-captures-layer"
	 xmlns="http://www.w3.org/2000/svg" xmlns:xlink="http://www.w3.org/1999/xlink" x="0px" y="0px" width="48px" height="48px"
	 viewBox="0 0 48 48" style="enable-background:new 0 0 48 48;" xml:space="preserve">
<g id="icon-m-content-captures">
	<rect style="fill:none;" width="48" height="48"/>
	<path style="fill:#333333;" d="M21.192,11.219c0.474,0,0.906-0.186,1.237-0.476c0.442,0.628,1.07,1.025,1.767,1.025
		c0.698,0,1.323-0.397,1.769-1.025c0.33,0.29,0.759,0.476,1.233,0.476c1.042,0,1.881-0.848,1.881-1.891
		c0-1.044-0.839-1.892-1.881-1.892c-0.239,0-0.469,0.046-0.677,0.135c-0.305-1.341-1.228-2.314-2.326-2.314
		c-1.094,0-2.022,0.974-2.325,2.314c-0.208-0.087-0.438-0.135-0.679-0.135c-1.036,0-1.881,0.848-1.881,1.892
		C19.312,10.371,20.157,11.219,21.192,11.219"/>
	<path style="fill:#333333;" d="M27.419,19.619c-1.688-3.73-4.581-7.75-7.577-1.121C17.04,12.019,11.54,4.017,6.293,23.695h15.766
		C23.54,21.993,25.361,20.603,27.419,19.619z"/>
	<path style="fill:#333333;" d="M20.258,26.209H3.087V3.145H31.91v15.079C32.756,18.09,33.617,18,34.5,18
		c0.169,0,0.332,0.021,0.5,0.025V0H0v29.354h18.833C19.197,28.248,19.68,27.198,20.258,26.209z"/>
	<path style="fill:#333333;" d="M41.672,34.271l-0.012,0.021l4.191,7.284C47.209,39.47,48,36.964,48,34.271
		c0-1.279-0.182-2.517-0.516-3.691h-7.945L41.672,34.271z"/>
	<path style="fill:#333333;" d="M33.629,28.403h13.064c-1.761-3.384-5.125-6.053-8.909-6.999L33.629,28.403z"/>
	<path style="fill:#333333;" d="M28.776,31.946l6.311-10.932C34.892,21.007,34.697,21,34.5,21c-3.775,0-7.186,1.551-9.636,4.047
		L28.776,31.946z"/>
	<path style="fill:#333333;" d="M23.161,27.177C21.796,29.287,21,31.8,21,34.5c0,1.269,0.109,2.32,0.436,3.484h7.839L23.161,27.177z
		"/>
	<path style="fill:#333333;" d="M40.197,37.054l-2.111,3.655h-0.023l-4.199,7.275C34.074,47.994,34.286,48,34.5,48
		c3.784,0,7.203-1.559,9.654-4.068L40.197,37.054z"/>
	<path style="fill:#333333;" d="M35.371,40.597H22.307c1.751,3.388,5.086,6.03,8.864,6.989L35.371,40.597z"/>
</g>
</svg>
