<?xml version="1.0" encoding="iso-8859-1"?>
<!-- Generator: Adobe Illustrator 14.0.0, SVG Export Plug-In . SVG Version: 6.00 Build 43363)  -->
<!DOCTYPE svg PUBLIC "-//W3C//DTD SVG 1.1//EN" "http://www.w3.org/Graphics/SVG/1.1/DTD/svg11.dtd">
<svg version="1.1" id="icon-m-note-reminder-layer" xmlns="http://www.w3.org/2000/svg" xmlns:xlink="http://www.w3.org/1999/xlink"
	 x="0px" y="0px" width="48px" height="48px" viewBox="0 0 48 48" style="enable-background:new 0 0 48 48;" xml:space="preserve">
<g id="icon-m-note-reminder">
	<rect style="fill:none;" width="48" height="48"/>
	<path style="fill:#333333;" d="M16.5,34.5c0-6.236,3.188-11.739,8.019-14.971H5.225v-3.642h24.8v1.176
		c1.431-0.368,2.93-0.563,4.475-0.563c0.252,0,0.5,0.008,0.75,0.02V1.639c0-0.9-0.738-1.639-1.64-1.639h-3.142v1.803
		c0,0.958-0.784,1.741-1.742,1.741h-1.016c-0.959,0-1.742-0.783-1.742-1.741V0h-6.094v1.803c0,0.958-0.784,1.741-1.741,1.741h-1.017
		c-0.958,0-1.742-0.783-1.742-1.741V0H9.281v1.803c0,0.958-0.784,1.741-1.742,1.741H6.523c-0.958,0-1.742-0.783-1.742-1.741V0H1.639
		C0.738,0,0,0.738,0,1.639v34.431c0,0.903,0.738,1.64,1.639,1.64h15.153C16.604,36.666,16.5,35.596,16.5,34.5z M5.225,9.029h24.8
		v3.643h-24.8V9.029z M5.225,22.638h12v3.642h-12V22.638z"/>
	<path style="fill:#333333;" d="M34.5,21C27.044,21,21,27.045,21,34.5S27.044,48,34.5,48C41.955,48,48,41.955,48,34.5
		S41.955,21,34.5,21z M32.988,41.139c-0.176,0.174-0.523,0.113-0.699-0.063c-0.262-0.261-0.275-0.277-0.541-0.54
		c-0.389-0.382-0.48-0.788-0.676-1.294c-0.466-1.217-1.154-2.416-1.978-3.43c-0.552-0.681-1.003-1.311-1.329-2.146
		c-0.689-1.773-0.501-3.643,0.84-5.043l0.018-0.016c1.398-1.342,3.27-1.531,5.041-0.842c0.838,0.328,1.467,0.779,2.146,1.33
		c1.016,0.823,2.215,1.512,3.432,1.979c0.506,0.195,0.91,0.286,1.295,0.676c0.26,0.264,0.276,0.277,0.539,0.541
		c0.176,0.175,0.235,0.522,0.061,0.698l-4.065,4.065l-0.018,0.019L32.988,41.139z M39.068,41.625c-0.902,0-1.721-0.465-2.188-1.242
		l-0.155-0.258l3.398-3.399l0.26,0.155c0.777,0.467,1.24,1.285,1.242,2.188C41.623,40.479,40.477,41.625,39.068,41.625z"/>
</g>
</svg>
