<?xml version="1.0" encoding="iso-8859-1"?>
<!-- Generator: Adobe Illustrator 14.0.0, SVG Export Plug-In . SVG Version: 6.00 Build 43363)  -->
<!DOCTYPE svg PUBLIC "-//W3C//DTD SVG 1.1//EN" "http://www.w3.org/Graphics/SVG/1.1/DTD/svg11.dtd">
<svg version="1.1" id="icon-s-mms-layer" xmlns="http://www.w3.org/2000/svg" xmlns:xlink="http://www.w3.org/1999/xlink" x="0px"
	 y="0px" width="23px" height="18px" viewBox="0 0 23 18" style="enable-background:new 0 0 23 18;" xml:space="preserve">
<g id="icon-s-mms_1_">
	<rect style="fill:none;" width="23" height="18"/>
	<path style="fill:#333333;" d="M13.891,0H1.515C0.377,0,0.391,1.125,0.391,1.125V2.25l7.313,3.375l7.313-3.375V1.125
		C15.016,1.125,15.023,0,13.891,0z"/>
	<path style="fill:#333333;" d="M7.141,7.875L0.391,4.5v5.625c0,0-0.014,1.125,1.125,1.125h5.625V7.875z"/>
	<path style="fill:#333333;" d="M9.391,6.75V18h13.219V6.75H9.391z M10.22,16.875l0.168-0.629c0.952-3.569,2.022-5.231,3.37-5.231
		c0.863,0,1.678,0.711,2.426,2.118c0.371-0.51,0.778-0.76,1.232-0.76c1.5,0,2.414,2.964,2.657,3.872l0.169,0.63H10.22z
		 M19.525,11.607c-0.229,0.177-0.496,0.273-0.775,0.273s-0.547-0.097-0.775-0.273c-0.76,0.254-1.604-0.357-1.604-1.164
		c0-0.653,0.51-1.188,1.149-1.227c0.255-0.518,0.712-0.842,1.229-0.842c0.52,0,0.977,0.324,1.229,0.842
		c0.641,0.039,1.15,0.574,1.15,1.227C21.13,11.25,20.286,11.863,19.525,11.607z"/>
</g>
</svg>
