<?xml version="1.0" encoding="iso-8859-1"?>
<!-- Generator: Adobe Illustrator 14.0.0, SVG Export Plug-In . SVG Version: 6.00 Build 43363)  -->
<!DOCTYPE svg PUBLIC "-//W3C//DTD SVG 1.1//EN" "http://www.w3.org/Graphics/SVG/1.1/DTD/svg11.dtd">
<svg version="1.1" id="icon-l-games-layer" xmlns="http://www.w3.org/2000/svg" xmlns:xlink="http://www.w3.org/1999/xlink" x="0px"
	 y="0px" width="80px" height="80px" viewBox="0 0 80 80" style="enable-background:new 0 0 80 80;" xml:space="preserve">
<g id="icon-l-games_1_">
	<path style="fill:#EC297B;" d="M69.963,52.203c0-0.012,0.016-0.033,0.016-0.045c-0.09-1.32-2.141-23.805-2.141-23.805l-0.051,0.004
		c-0.055-0.345-0.104-0.691-0.184-1.033c-1.49-6.631-8.016-10.781-14.578-9.271c-2.979,0.684-5.441,2.42-7.113,4.73H34.087
		c-1.669-2.311-4.134-4.047-7.112-4.73c-6.561-1.51-13.09,2.641-14.578,9.271c-0.078,0.342-0.131,0.688-0.182,1.033l-0.052-0.004
		c0,0-2.051,22.484-2.143,23.805c0,0.012,0.017,0.033,0.017,0.045c-0.404,4.533,2.522,8.785,7.032,9.824
		c4.524,1.039,8.994-1.533,10.554-5.812l0.15-0.109l5.821-15.322c0.793-1.68,3.232-2.91,6.154-2.91c0.069,0,0.136,0.005,0.202,0.009
		v0.008c0.017,0,0.033-0.005,0.048-0.005c0.016,0,0.032,0.005,0.05,0.005v-0.008c0.068-0.004,0.132-0.009,0.201-0.009
		c2.922,0,5.361,1.23,6.154,2.91l5.822,15.322l0.147,0.109c1.562,4.279,6.03,6.852,10.556,5.812
		C67.441,60.988,70.367,56.736,69.963,52.203z M23.579,37.907c-3.708,0-6.715-3.032-6.715-6.774c0-3.738,3.007-6.773,6.715-6.773
		c3.705,0,6.713,3.035,6.713,6.773C30.292,34.875,27.284,37.907,23.579,37.907z M44.796,30.93c0,1.333-1.075,2.418-2.4,2.418h-4.794
		c-1.321,0-2.399-1.085-2.399-2.418v-0.969c0-1.336,1.078-2.419,2.399-2.419h4.794c1.325,0,2.4,1.083,2.4,2.419V30.93z
		 M56.422,37.907c-3.707,0-6.715-3.032-6.715-6.774c0-3.738,3.008-6.773,6.715-6.773c3.705,0,6.715,3.035,6.715,6.773
		C63.137,34.875,60.127,37.907,56.422,37.907z"/>
	<rect style="fill:none;" width="80" height="80"/>
</g>
</svg>
