<?xml version="1.0" encoding="iso-8859-1"?>
<!-- Generator: Adobe Illustrator 14.0.0, SVG Export Plug-In . SVG Version: 6.00 Build 43363)  -->
<!DOCTYPE svg PUBLIC "-//W3C//DTD SVG 1.1//EN" "http://www.w3.org/Graphics/SVG/1.1/DTD/svg11.dtd">
<svg version="1.1" id="icon-m-toolbar-panorama-selected-layer"
	 xmlns="http://www.w3.org/2000/svg" xmlns:xlink="http://www.w3.org/1999/xlink" x="0px" y="0px" width="32px" height="32px"
	 viewBox="0 0 32 32" style="enable-background:new 0 0 32 32;" xml:space="preserve">
<g id="icon-m-toolbar-panorama-selected">
	<rect style="fill:none;" width="32" height="32"/>
	<path style="fill:#63AF45;" d="M16,8.5c-6.455,0-11.823-1.67-15.5-4v23C4.391,25.254,9.623,24,16,24c6.375,0,11.609,1.254,15.5,3.5
		v-23C27.824,6.841,22.471,8.5,16,8.5z M3.174,21.027C3.042,21.488,3.158,22.066,3,22.5V9c1.727,0.653,3.371,0.929,5.43,1.303
		c-0.017,0.009-0.033,0.016-0.051,0.024c-0.646,1.984-1.584,4.882-2.674,6.694C4.73,18.648,3.73,19.08,3.174,21.027z M11.137,12.83
		c-0.017,0.109-0.375,2.139-1.474,4.355c-0.023,0.039-0.544,0.819-0.427,1.891c0.014,0.117,0.016,0.238,0.014,0.357
		c-0.014,0.871-0.326,1.51-0.879,1.797c-0.107,0.057-0.203,0.084-0.292,0.084c-0.12,0-0.223-0.049-0.293-0.137
		c-0.137-0.176-0.1-0.438-0.002-0.779c0.142-0.492,0.198-1.071,0.146-1.512c-0.023-0.197-0.035-0.402-0.046-0.604l-0.002-0.066
		c-0.006-0.102-0.072-0.213-0.141-0.332c-0.046-0.08-0.092-0.162-0.127-0.242L7.583,17.57c-0.078-0.177-0.158-0.359-0.192-0.574
		c-0.068-0.41-0.035-0.885,0.1-1.412c0.132-0.52,0.433-0.994,0.723-1.451c0.457-0.715,0.886-1.392,0.639-2.184
		c-0.014-0.047-0.04-0.088-0.067-0.137c-0.053-0.09-0.12-0.199-0.127-0.357c-0.011-0.223,0.082-0.354,0.162-0.423
		c0.103-0.091,0.244-0.137,0.42-0.137c0.449,0,1.021,0.298,1.026,0.302C10.874,11.516,11.191,12.111,11.137,12.83z M14.668,19.857
		l-0.109,0.02c-0.11,0.021-0.213,0.031-0.307,0.031c-0.351,0-0.627-0.134-0.896-0.439c-0.285-0.322-0.362-0.791-0.431-1.207
		c-0.028-0.18-0.058-0.352-0.099-0.492c-0.085-0.285-0.214-0.576-0.34-0.858c-0.062-0.144-0.126-0.284-0.182-0.425
		c-0.07-0.168-0.14-0.324-0.208-0.478c-0.24-0.54-0.469-1.05-0.474-1.729l-0.001-0.295l0.299,0.045
		c1.265,0.191,2.208,1.418,2.548,2.475c0.052,0.168,0.12,0.357,0.19,0.558c0.234,0.667,0.501,1.425,0.527,2.003l0.008,0.152
		C15.22,19.662,15.132,19.771,14.668,19.857z M26.637,24.613c-0.441-0.098-0.682-0.288-0.937-0.491
		c-0.085-0.069-0.175-0.14-0.28-0.213c-0.285-0.196-0.586-0.37-0.905-0.552c-0.517-0.297-1.05-0.604-1.512-1.021
		c-0.614-0.555-1.981-1.963-1.411-3.027l0.07-0.132l0.154-0.003c0,0,0.006,0,0.01,0c0.166,0,0.371,0.072,0.484,0.145l0.127,0.078
		l-0.006,0.086l0.018-0.012c0.482,0.79,1.25,1.432,2.062,2.111c0.946,0.789,1.923,1.605,2.419,2.687l0.211,0.456L26.637,24.613z
		 M29,22.5c-0.647-0.456-1.451-0.629-2.424-1.43c-1.35-1.109-2.623-3.931-4.256-4.259c-1.816-0.364-3.713,3.063-5.427,2.341
		c-0.919-0.387-0.726-1.827-1.077-2.391c-0.432-0.693-1.137-1.235-1.622-1.98c-0.676-1.038-1.737-2.645-2.267-4.006
		c1.286,0.117,2.61,0.182,3.967,0.182c4.957,0,9.428-0.563,13.105-1.957V22.5z"/>
</g>
</svg>
