<?xml version="1.0" encoding="iso-8859-1"?>
<!-- Generator: Adobe Illustrator 14.0.0, SVG Export Plug-In . SVG Version: 6.00 Build 43363)  -->
<!DOCTYPE svg PUBLIC "-//W3C//DTD SVG 1.1//EN" "http://www.w3.org/Graphics/SVG/1.1/DTD/svg11.dtd">
<svg version="1.1" id="icon-l-search-layer" xmlns="http://www.w3.org/2000/svg" xmlns:xlink="http://www.w3.org/1999/xlink"
	 x="0px" y="0px" width="80px" height="81px" viewBox="0 0 80 81" style="enable-background:new 0 0 80 81;" xml:space="preserve">
<g id="icon-l-search_1_">
	<linearGradient id="SVGID_1_" gradientUnits="userSpaceOnUse" x1="39.9995" y1="14.9482" x2="39.9995" y2="253.9996">
		<stop  offset="0" style="stop-color:#FFFFFF"/>
		<stop  offset="1" style="stop-color:#B2B2C9"/>
	</linearGradient>
	<path style="fill:url(#SVGID_1_);" d="M45.566,16.09c-8.125-8.123-21.348-8.123-29.472,0c-8.126,8.125-8.126,21.349,0,29.471
		c7.458,7.461,19.209,8.068,27.372,1.833l4.377,4.38l0.898,5.023c0.092,0.513,0.465,1.229,0.832,1.597l11.064,11.062
		c0.73,0.73,1.928,0.73,2.659,0l6.153-6.156c0.731-0.727,0.731-1.926,0-2.657L58.396,49.568c-0.368-0.365-1.083-0.738-1.593-0.832
		l-5.032-0.896l-4.373-4.374C53.633,35.301,53.025,23.551,45.566,16.09z M40.987,40.984c-5.6,5.6-14.711,5.6-20.312,0
		c-5.602-5.6-5.602-14.713-0.002-20.313c5.602-5.596,14.715-5.596,20.314,0C46.588,26.271,46.588,35.385,40.987,40.984z"/>
	<rect style="fill:none;" width="80" height="80"/>
</g>
</svg>
