<?xml version="1.0" encoding="iso-8859-1"?>
<!-- Generator: Adobe Illustrator 14.0.0, SVG Export Plug-In . SVG Version: 6.00 Build 43363)  -->
<!DOCTYPE svg PUBLIC "-//W3C//DTD SVG 1.1//EN" "http://www.w3.org/Graphics/SVG/1.1/DTD/svg11.dtd">
<svg version="1.1" id="icon-m-toolbar-volume-layer"
	 xmlns="http://www.w3.org/2000/svg" xmlns:xlink="http://www.w3.org/1999/xlink" x="0px" y="0px" width="32px" height="32px"
	 viewBox="0 0 32 32" style="enable-background:new 0 0 32 32;" xml:space="preserve">
<g id="icon-m-toolbar-volume_1_">
	<rect style="fill:none;" width="32" height="32"/>
	<path style="fill:#FFFFFF;" d="M16.954,4.883h-0.43c-0.1,0-0.246,0.054-0.325,0.117l-7.441,6.164H0v9.611h8.684l7.535,6.226
		c0.079,0.067,0.225,0.118,0.325,0.118h0.429c0.096,0,0.178-0.095,0.178-0.21l-0.02-21.815C17.131,4.978,17.05,4.883,16.954,4.883z"
		/>
	<path style="fill:#FFFFFF;" d="M27.588,5.25c-0.357-0.271-0.865-0.192-1.139,0.168c-0.268,0.363-0.189,0.881,0.176,1.155
		c2.311,1.751,3.755,5.207,3.755,9.022c0,3.808-1.444,7.272-3.755,9.021c-0.365,0.27-0.443,0.781-0.176,1.146
		c0.273,0.364,0.781,0.439,1.139,0.172C30.307,23.872,32,19.913,32,15.596C32,11.27,30.307,7.312,27.588,5.25z"/>
	<path style="fill:#FFFFFF;" d="M25.254,11.162c0,0-0.02-0.059-0.034-0.087c-0.171-0.403-0.577-1.141-0.577-1.141
		c-0.438-0.757-0.881-1.337-1.547-1.962c-0.236-0.229-0.499-0.426-0.754-0.621c-0.055-0.042-0.115-0.072-0.179-0.096
		C21.814,7.066,21.369,7.16,21.118,7.5C20.9,7.799,20.91,8.201,21.116,8.496c0.056,0.102,0.167,0.208,0.228,0.266
		c0.383,0.352,0.791,0.694,1.143,1.115c0.129,0.158,0.254,0.322,0.377,0.495c0.908,1.403,1.453,3.279,1.453,5.288
		c0,1.984-0.516,3.844-1.41,5.248c-0.457,0.632-0.979,1.145-1.545,1.625c-0.355,0.303-0.451,0.818-0.178,1.192
		c0.277,0.374,0.787,0.472,1.176,0.218c0.268-0.176,0.518-0.351,0.752-0.578c0.74-0.622,1.322-1.542,1.818-2.483h-0.012
		c0.766-1.499,1.2-3.314,1.2-5.222C26.118,14.05,25.809,12.506,25.254,11.162z"/>
</g>
</svg>
