<?xml version="1.0" encoding="iso-8859-1"?>
<!-- Generator: Adobe Illustrator 14.0.0, SVG Export Plug-In . SVG Version: 6.00 Build 43363)  -->
<!DOCTYPE svg PUBLIC "-//W3C//DTD SVG 1.1//EN" "http://www.w3.org/Graphics/SVG/1.1/DTD/svg11.dtd">
<svg version="1.1" id="icon-m-common-backwards-layer"
	 xmlns="http://www.w3.org/2000/svg" xmlns:xlink="http://www.w3.org/1999/xlink" x="0px" y="0px" width="48px" height="48px"
	 viewBox="0 0 48 48" style="enable-background:new 0 0 48 48;" xml:space="preserve">
<g id="icon-m-common-backwards_1_">
	<rect style="fill:none;" width="48" height="48"/>
	<g>
		<path style="fill:#333333;" d="M48,11.652c0-1.1-0.781-1.554-1.737-1.009L26.87,21.715c-0.956,0.545-1.737,0.091-1.737-1.009
			v-9.054c0-1.1-0.782-1.554-1.737-1.009L1.737,23.011c-0.955,0.545-0.955,1.438,0,1.982l21.659,12.363
			c0.955,0.545,1.737,0.091,1.737-1.009v-9.052c0-1.1,0.781-1.554,1.737-1.009l19.393,11.069C47.219,37.901,48,37.447,48,36.348
			V11.652z"/>
	</g>
</g>
</svg>
