<?xml version="1.0" encoding="iso-8859-1"?>
<!-- Generator: Adobe Illustrator 14.0.0, SVG Export Plug-In . SVG Version: 6.00 Build 43363)  -->
<!DOCTYPE svg PUBLIC "-//W3C//DTD SVG 1.1//EN" "http://www.w3.org/Graphics/SVG/1.1/DTD/svg11.dtd">
<svg version="1.1" id="icon-m-common-unlocked-layer"
	 xmlns="http://www.w3.org/2000/svg" xmlns:xlink="http://www.w3.org/1999/xlink" x="0px" y="0px" width="64px" height="64px"
	 viewBox="0 0 64 64" style="enable-background:new 0 0 64 64;" xml:space="preserve">
<g id="icon-m-common-unlocked">
	<rect style="fill:none;" width="64" height="64"/>
	<path style="fill:#333333;" d="M60.184,27.67H32.017c-0.001-3.063-0.006-7.02-0.006-7.117C32.009,12.236,25.211,5.502,16.82,5.5
		C8.429,5.502,1.633,12.236,1.63,20.553c0,0.098-0.006,4.07-0.008,7.176h4.667c-0.007-3.105-0.013-7.078-0.013-7.176
		c0.01-5.77,4.722-10.439,10.545-10.449c5.824,0.01,10.537,4.68,10.546,10.449c-0.001,0.098,0.004,4.055,0.006,7.117h-2.313
		c-1.211,0-2.198,0.955-2.198,2.129v26.566c0,1.172,0.987,2.135,2.198,2.135h35.125c1.206,0,2.195-0.957,2.195-2.135V29.799
		C62.377,28.625,61.39,27.67,60.184,27.67z M45.637,42.807v9.732h-5.826v-9.604c-1.616-0.963-2.704-2.723-2.704-4.74
		c0-3.045,2.469-5.514,5.515-5.514c3.043,0,5.514,2.469,5.514,5.514C48.135,40.125,47.14,41.822,45.637,42.807z"/>
</g>
</svg>
