<?xml version="1.0" encoding="iso-8859-1"?>
<!-- Generator: Adobe Illustrator 14.0.0, SVG Export Plug-In . SVG Version: 6.00 Build 43363)  -->
<!DOCTYPE svg PUBLIC "-//W3C//DTD SVG 1.1//EN" "http://www.w3.org/Graphics/SVG/1.1/DTD/svg11.dtd">
<svg version="1.1" id="icon-m-content-email-layer" xmlns="http://www.w3.org/2000/svg" xmlns:xlink="http://www.w3.org/1999/xlink"
	 x="0px" y="0px" width="48px" height="48px" viewBox="0 0 48 48" style="enable-background:new 0 0 48 48;" xml:space="preserve">
<g id="icon-m-content-email">
	<rect style="fill:none;" width="48" height="48"/>
	<path style="fill:#333333;" d="M24,0.75C11.159,0.75,0.75,11.16,0.75,24c0,12.842,10.409,23.25,23.25,23.25
		c12.84,0,23.25-10.408,23.25-23.25C47.25,11.16,36.84,0.75,24,0.75z M37.52,30.191c-1.396,1.682-3.336,2.531-5.781,2.531
		c-1.136,0-2.127-0.303-2.972-0.943c-0.851-0.61-1.446-1.482-1.76-2.588c-1.348,2.345-3.176,3.531-5.493,3.531
		c-1.55,0-2.868-0.618-3.95-1.845c-1.068-1.238-1.618-2.896-1.618-5.005c0-3.294,0.945-5.863,2.813-7.734
		c1.879-1.865,4.38-2.807,7.521-2.807h5.531c-0.9,4.916-1.346,8.568-1.346,10.978c0,1.466,0.169,2.423,0.494,2.882
		c0.334,0.451,0.893,0.686,1.682,0.686c1.019,0,1.814-0.574,2.408-1.747c0.586-1.156,0.865-2.792,0.865-4.899
		c0-3.715-0.953-6.59-2.877-8.646c-1.926-2.048-4.65-3.073-8.166-3.073c-3.695,0-6.698,1.078-9.024,3.237
		c-2.344,2.144-3.508,5.129-3.508,8.93c0,4.25,1.066,7.447,3.22,9.57c2.152,2.14,5.367,3.203,9.662,3.203
		c2.539,0,5.215-0.459,7.996-1.389v3.209c-1.008,0.369-2.35,0.691-3.975,0.955c-1.648,0.258-3.084,0.395-4.341,0.395
		c-5.06,0-9.079-1.359-12.053-4.082c-2.98-2.72-4.469-6.605-4.469-11.678c0-3.166,0.692-5.91,2.088-8.248
		c1.382-2.33,3.352-4.115,5.894-5.363c2.542-1.254,5.353-1.871,8.425-1.871c4.7,0,8.347,1.295,10.943,3.892
		c2.598,2.595,3.892,6.198,3.892,10.796C39.621,26.148,38.93,28.521,37.52,30.191z"/>
	<path style="fill:#333333;" d="M22.279,20.22c-0.978,1.344-1.478,3.148-1.478,5.433c0,1.415,0.177,2.456,0.545,3.139
		c0.361,0.682,0.993,1.01,1.886,1.01c1.672,0,2.76-2.062,3.274-6.197l0.692-5.404h-1.341C24.477,18.199,23.278,18.868,22.279,20.22z
		"/>
</g>
</svg>
