<?xml version="1.0" encoding="iso-8859-1"?>
<!-- Generator: Adobe Illustrator 14.0.0, SVG Export Plug-In . SVG Version: 6.00 Build 43363)  -->
<!DOCTYPE svg PUBLIC "-//W3C//DTD SVG 1.1//EN" "http://www.w3.org/Graphics/SVG/1.1/DTD/svg11.dtd">
<svg version="1.1" id="icon-m-camera-exposure-minus13-layer"
	 xmlns="http://www.w3.org/2000/svg" xmlns:xlink="http://www.w3.org/1999/xlink" x="0px" y="0px" width="32px" height="32px"
	 viewBox="0 0 32 32" style="enable-background:new 0 0 32 32;" xml:space="preserve">
<g id="icon-m-camera-exposure-minus13">
	<g>
		<rect style="fill:none;" width="32" height="32"/>
	</g>
	<g>
		<path style="fill:#FFFFFF;" d="M8.022,17.959H3.648v-2.154h4.374V17.959z"/>
		<path style="fill:#FFFFFF;" d="M16.607,21.896H9.156v-1.425h2.494v-8.455l-2.494,0.533v-1.393l3.693-1.15h1.409v10.465h2.349
			V21.896z"/>
		<path style="fill:#FFFFFF;" d="M18.795,22.025c-0.794,0-1.426-0.632-1.426-1.426c0-0.793,0.632-1.441,1.426-1.441
			s1.441,0.648,1.441,1.441C20.236,21.394,19.589,22.025,18.795,22.025z"/>
		<path style="fill:#FFFFFF;" d="M23.784,11.529c-0.745,0-1.522,0.193-2.3,0.404v-1.57c0.842-0.211,1.83-0.389,2.834-0.389
			c2.22,0,3.823,0.744,3.823,2.932c0,1.377-0.762,2.316-2.139,2.736c1.522,0.275,2.349,1.313,2.349,2.754
			c0,2.592-1.636,3.629-4.503,3.629c-0.955,0-1.798-0.13-2.721-0.373v-1.57c0.972,0.227,1.733,0.389,2.462,0.389
			c1.49,0,2.073-0.713,2.073-2.025c0-1.732-1.005-2.041-3.499-2.041v-1.49c2.397,0,3.354-0.259,3.354-1.83
			C25.518,12.031,24.935,11.529,23.784,11.529z"/>
	</g>
</g>
</svg>
