<?xml version="1.0" encoding="iso-8859-1"?>
<!-- Generator: Adobe Illustrator 14.0.0, SVG Export Plug-In . SVG Version: 6.00 Build 43363)  -->
<!DOCTYPE svg PUBLIC "-//W3C//DTD SVG 1.1//EN" "http://www.w3.org/Graphics/SVG/1.1/DTD/svg11.dtd">
<svg version="1.1" id="icon-s-status-latin-lowercase-layer"
	 xmlns="http://www.w3.org/2000/svg" xmlns:xlink="http://www.w3.org/1999/xlink" x="0px" y="0px" width="29px" height="16px"
	 viewBox="0 0 29 16" style="enable-background:new 0 0 29 16;" xml:space="preserve">
<g id="icon-s-status-latin-lowercase">
	<rect style="fill:none;" width="29" height="16"/>
	<path style="fill:#FFFFFF;" d="M6.84,14.012c-0.72,1.24-1.86,1.779-3.28,1.779c-2.081,0-3.281-1.22-3.281-3.3
		c0-3.521,3.401-3.621,6.041-3.621V7.529c0-1.379-0.78-1.979-2.12-1.979c-1.021,0-2.021,0.239-2.981,0.52V4.61
		C2.32,4.31,3.46,4.129,4.58,4.129c2.36,0,3.821,1.102,3.821,3.561v7.962h-1.14L6.84,14.012z M5.16,10.11c-1.6,0-2.8,0.601-2.8,2.36
		c0,1.141,0.52,1.9,1.7,1.9c1.541,0,2.26-1.101,2.26-2.539V10.11H5.16z"/>
	<path style="fill:#FFFFFF;" d="M13.28,5.35c0.8-0.86,1.621-1.221,2.76-1.221c3.04,0,3.821,2.701,3.821,5.621
		c0,3.781-1.841,6.002-4.842,6.002c-1.56,0-2.46-0.039-3.82-0.199V0.188h2.081V5.35z M13.28,14.231c0.44,0.06,1.1,0.101,1.621,0.101
		c2.32,0,2.801-1.961,2.801-4.642c0-1.44-0.181-4.141-2.141-4.141c-2.221,0-2.281,2.36-2.281,4.382V14.231z"/>
	<path style="fill:#FFFFFF;" d="M28.721,15.512c-0.78,0.22-1.48,0.3-2.301,0.3c-3.641,0-4.681-2.82-4.681-5.981
		c0-3.261,1.42-5.701,4.981-5.701c0.68,0,1.26,0.08,1.92,0.24v1.42C28,5.59,27.461,5.55,26.801,5.55c-2.381,0-2.901,2.42-2.901,4.32
		c0,1.921,0.44,4.521,2.901,4.521c0.68,0,1.26-0.021,1.92-0.22V15.512z"/>
</g>
</svg>
