<?xml version="1.0" encoding="iso-8859-1"?>
<!-- Generator: Adobe Illustrator 14.0.0, SVG Export Plug-In . SVG Version: 6.00 Build 43363)  -->
<!DOCTYPE svg PUBLIC "-//W3C//DTD SVG 1.1//EN" "http://www.w3.org/Graphics/SVG/1.1/DTD/svg11.dtd">
<svg version="1.1" id="icon-m-telephony-ongoing-muted-layer"
	 xmlns="http://www.w3.org/2000/svg" xmlns:xlink="http://www.w3.org/1999/xlink" x="0px" y="0px" width="48px" height="48px"
	 viewBox="0 0 48 48" style="enable-background:new 0 0 48 48;" xml:space="preserve">
<g id="icon-m-telephony-ongoing-muted_1_">
	<rect style="fill:none;" width="48" height="48"/>
	<path style="fill:#333333;" d="M9.508,27.261C9.001,28.142,8.573,29,8.259,29.827c-1.346,3.521,1.404,9.089,3.576,10.813
		c-0.001,0.01,1.118,0.938,1.953-0.013l3.873-5.214L9.508,27.261z"/>
	
		<rect x="16.022" y="11.634" transform="matrix(-0.7077 0.7066 -0.7066 -0.7077 47.7972 32.7432)" style="fill:#333333;" width="2.205" height="29.252"/>
	<path style="fill:#333333;" d="M41.584,10.936c-1.738-2.146-7.43-5.145-10.857-3.536c-3.496,1.64-8.84,5.689-13.518,10.322
		l3.737,3.74c2.477-2.503,5.244-5.151,5.955-5.6c1.868-1.171,4.791,2.865,4.791,2.865c0.809,0.801,1.471,0.405,1.982,0.014
		l7.9-5.849C42.525,12.049,41.59,10.936,41.584,10.936z"/>
</g>
</svg>
