<?xml version="1.0" encoding="iso-8859-1"?>
<!-- Generator: Adobe Illustrator 14.0.0, SVG Export Plug-In . SVG Version: 6.00 Build 43363)  -->
<!DOCTYPE svg PUBLIC "-//W3C//DTD SVG 1.1//EN" "http://www.w3.org/Graphics/SVG/1.1/DTD/svg11.dtd">
<svg version="1.1" id="icon-m-content-photoalbum-layer"
	 xmlns="http://www.w3.org/2000/svg" xmlns:xlink="http://www.w3.org/1999/xlink" x="0px" y="0px" width="48px" height="48px"
	 viewBox="0 0 48 48" style="enable-background:new 0 0 48 48;" xml:space="preserve">
<g id="icon-m-content-photoalbum_2_">
	<rect style="fill:none;" width="48" height="48"/>
	<polygon style="fill:#333333;" points="7.73,28.882 7.519,28.925 3.561,9.477 28.155,4.396 28.185,4.546 29.02,7.971 32.144,7.971 
		30.679,0.774 0,7.11 6.724,40.146 11.403,39.182 11.403,28.262 	"/>
	<path style="fill:#333333;" d="M14.863,11.539v35.688H48V11.539H14.863z M44.702,35.969H18.1V14.802h26.603V35.969z"/>
	<path style="fill:#333333;" d="M35.219,24.234c0.438,0,0.834-0.17,1.14-0.436c0.407,0.581,0.984,0.943,1.628,0.943
		c0.643,0,1.22-0.362,1.629-0.943c0.307,0.266,0.699,0.436,1.138,0.436c0.96,0,1.733-0.779,1.733-1.736
		c0-0.969-0.773-1.746-1.733-1.746c-0.22,0-0.43,0.043-0.625,0.123c-0.278-1.234-1.131-2.134-2.142-2.134
		c-1.01,0-1.863,0.899-2.143,2.134c-0.193-0.08-0.403-0.123-0.625-0.123c-0.956,0-1.732,0.777-1.732,1.746
		C33.486,23.455,34.263,24.234,35.219,24.234z"/>
	<path style="fill:#333333;" d="M32.271,29.955c-2.305-5.332-6.831-11.914-11.148,4.277H39.75
		C39.75,34.232,36.109,21.458,32.271,29.955z"/>
</g>
</svg>
