<?xml version="1.0" encoding="iso-8859-1"?>
<!-- Generator: Adobe Illustrator 14.0.0, SVG Export Plug-In . SVG Version: 6.00 Build 43363)  -->
<!DOCTYPE svg PUBLIC "-//W3C//DTD SVG 1.1//EN" "http://www.w3.org/Graphics/SVG/1.1/DTD/svg11.dtd">
<svg version="1.1" id="icon-m-toolbar-refresh4-layer"
	 xmlns="http://www.w3.org/2000/svg" xmlns:xlink="http://www.w3.org/1999/xlink" x="0px" y="0px" width="32px" height="32px"
	 viewBox="0 0 32 32" style="enable-background:new 0 0 32 32;" xml:space="preserve">
<g id="icon-m-toolbar-refresh4">
	<rect style="fill:none;" width="32" height="32"/>
	<path style="fill:#FFFFFF;" d="M16,1.6C8.047,1.6,1.6,8.047,1.6,16c0,7.952,6.447,14.4,14.4,14.4S30.4,23.952,30.4,16
		C30.4,8.047,23.953,1.6,16,1.6z M8.864,21.135c-0.113,0-0.227-0.042-0.315-0.124l-5.4-5.004C3.055,15.92,3.001,15.799,3,15.672
		c-0.002-0.128,0.05-0.25,0.141-0.34c0.087-0.082,0.243-0.168,0.363-0.168h2.933c0.153-5.02,4.286-9.059,9.342-9.062
		c1.833,0,3.609,0.535,5.139,1.547c0.115,0.076,0.191,0.201,0.205,0.34s-0.035,0.275-0.134,0.375l-2.102,2.104
		c-0.144,0.145-0.364,0.177-0.544,0.082c-0.8-0.42-1.663-0.635-2.565-0.635c-2.951,0.004-5.374,2.334-5.529,5.25h3.975
		c0.124,0,0.241,0.049,0.328,0.137c0.089,0.088,0.158,0.229,0.156,0.355c-0.002,0.127-0.037,0.266-0.129,0.351l-5.4,5.004
		C9.09,21.093,8.977,21.135,8.864,21.135z M28.496,16.093h-3.404c-0.336,4.835-4.421,8.698-9.312,8.7c0,0,0,0,0,0
		c-1.57-0.001-3.123-0.399-4.49-1.149c-0.128-0.071-0.215-0.198-0.236-0.343c-0.02-0.144,0.028-0.289,0.131-0.393l2.173-2.174
		c0.128-0.129,0.32-0.17,0.489-0.106c0.632,0.235,1.283,0.354,1.934,0.355c2.841-0.003,5.167-2.116,5.489-4.891h-3.496
		c-0.12,0-0.236-0.048-0.322-0.13c-0.092-0.09-0.162-0.23-0.16-0.358c0-0.127,0.035-0.267,0.129-0.354l5.399-5.002
		c0.178-0.164,0.452-0.164,0.631,0l5.4,5.002c0.094,0.088,0.147,0.21,0.149,0.338c0,0.129-0.052,0.25-0.145,0.339
		C28.769,16.01,28.616,16.093,28.496,16.093z"/>
</g>
</svg>
