<?xml version="1.0" encoding="iso-8859-1"?>
<!-- Generator: Adobe Illustrator 14.0.0, SVG Export Plug-In . SVG Version: 6.00 Build 43363)  -->
<!DOCTYPE svg PUBLIC "-//W3C//DTD SVG 1.1//EN" "http://www.w3.org/Graphics/SVG/1.1/DTD/svg11.dtd">
<svg version="1.1" id="icon-m-messaging-smiley-sarcastic-layer"
	 xmlns="http://www.w3.org/2000/svg" xmlns:xlink="http://www.w3.org/1999/xlink" x="0px" y="0px" width="48px" height="48px"
	 viewBox="0 0 48 48" style="enable-background:new 0 0 48 48;" xml:space="preserve">
<g id="icon-m-messaging-smiley-sarcastic_1_">
	<rect style="fill:none;" width="48" height="48"/>
	<path style="fill:#333333;" d="M25.859,31.947"/>
	<circle style="fill:#FFCD0A;" cx="24" cy="24" r="23.5"/>
	<circle style="fill:#040505;" cx="18.987" cy="19.998" r="2"/>
	<path style="fill:#040505;" d="M22.668,17.654c-0.389,0.39-1.025,0.39-1.414,0l-4.95-4.949c-0.389-0.389-0.389-1.025,0-1.414l0,0
		c0.389-0.389,1.025-0.389,1.414,0l4.95,4.949C23.057,16.63,23.057,17.266,22.668,17.654L22.668,17.654z"/>
	<circle style="fill:#040505;" cx="29.014" cy="19.998" r="2"/>
	<path style="fill:#040505;" d="M25.332,17.654c0.389,0.39,1.025,0.39,1.414,0l4.949-4.949c0.389-0.389,0.389-1.025,0-1.414l0,0
		c-0.389-0.389-1.025-0.389-1.414,0l-4.949,4.949C24.943,16.63,24.943,17.266,25.332,17.654L25.332,17.654z"/>
	<path style="fill:#040505;" d="M7.091,30.724c0,0,0.646-7.927,9.164-5.905C16.255,24.818,5.93,20.05,7.091,30.724z"/>
	<path style="fill:#040505;" d="M18.577,33.395c-4.298-1.713-7.3-4.995-8.11-8.363L9.033,25.82
		c-0.288,4.088,3.042,8.549,8.316,10.652c6.158,2.454,12.932,2.151,14.741-2.384c0.21-0.526,0.341-1.071,0.41-1.62
		C30.01,35.877,24.019,35.563,18.577,33.395z"/>
</g>
</svg>
