<?xml version="1.0" encoding="iso-8859-1"?>
<!-- Generator: Adobe Illustrator 14.0.0, SVG Export Plug-In . SVG Version: 6.00 Build 43363)  -->
<!DOCTYPE svg PUBLIC "-//W3C//DTD SVG 1.1//EN" "http://www.w3.org/Graphics/SVG/1.1/DTD/svg11.dtd">
<svg version="1.1" id="icon-m-settings-account-layer"
	 xmlns="http://www.w3.org/2000/svg" xmlns:xlink="http://www.w3.org/1999/xlink" x="0px" y="0px" width="48px" height="48px"
	 viewBox="0 0 48 48" style="enable-background:new 0 0 48 48;" xml:space="preserve">
<g id="icon-m-settings-account">
	<rect style="fill:none;" width="48" height="48"/>
	<path style="fill:#333333;" d="M24.006,0.75c3.319,0,6.012,2.775,6.012,6.2c0,3.43-2.693,6.209-6.012,6.209
		c-3.331,0-6.02-2.779-6.02-6.209C17.987,3.525,20.676,0.75,24.006,0.75z M34.524,31.5H13.476v-5.878
		c0-6.082,5.543-9.311,10.531-9.311c4.976,0,10.518,3.229,10.518,9.311V31.5z"/>
	<path style="fill:#333333;" d="M30.611,33.75c-2.242,0-4.925,2.645-4.925,2.645c-0.267,0.263-0.787,0.5-1.16,0.5H11.495
		c-0.373,0-0.678,0.312-0.68,0.68l-0.014,3.627h0.701l2.074,2.02c0,0,1.163-1.604,1.664-2.004c0.633,0.512,2.24,2.483,2.24,2.483
		s1.576-1.707,2.209-2.122c0.51,0.471,1.743,2.287,1.743,2.287s1.875-1.898,2.188-2.104c0.203-0.012,1.578,1.942,1.641,2.018
		c0,0,2.839,2.721,5.351,2.721c3.635,0,6.588-2.526,6.588-6.166C37.199,36.704,34.246,33.75,30.611,33.75z M32.336,43.247
		c-1.684,0-3.049-1.362-3.049-3.048c0-1.678,1.365-3.046,3.049-3.046s3.046,1.368,3.046,3.046
		C35.382,41.885,34.02,43.247,32.336,43.247z"/>
</g>
</svg>
