<?xml version="1.0" encoding="iso-8859-1"?>
<!-- Generator: Adobe Illustrator 14.0.0, SVG Export Plug-In . SVG Version: 6.00 Build 43363)  -->
<!DOCTYPE svg PUBLIC "-//W3C//DTD SVG 1.1//EN" "http://www.w3.org/Graphics/SVG/1.1/DTD/svg11.dtd">
<svg version="1.1" id="icon-m-camera-stitching-layer"
	 xmlns="http://www.w3.org/2000/svg" xmlns:xlink="http://www.w3.org/1999/xlink" x="0px" y="0px" width="48px" height="48px"
	 viewBox="0 0 48 48" style="enable-background:new 0 0 48 48;" xml:space="preserve">
<g id="icon-m-camera-stitching_1_">
	<rect style="fill:none;" width="48" height="48"/>
	<path style="fill:#FFFFFF;" d="M13,21.789C10.245,24.362,7.38,29.953,4.521,40H18.25v-8H15h-2v-2V21.789z"/>
	<path style="fill:#FFFFFF;" d="M22,30h4.795c-0.352-0.678-0.716-1.348-1.09-2H17v-7.993c-0.657-0.015-1.324,0.11-2,0.407V30h5.25
		v12H3.966c-0.027,0.103-0.055,0.199-0.083,0.302H45c0,0-0.047-0.114-0.129-0.302H22V30z"/>
	<path style="fill:#FFFFFF;" d="M24,40h19.897c-2.29-4.306-7.894-12.434-14.346-4.136c-0.538-1.244-1.126-2.554-1.757-3.864H24V40z"
		/>
	<path style="fill:#FFFFFF;" d="M19,20.489V26h5.479C22.809,23.451,20.964,21.388,19,20.489z"/>
	<path style="fill:#FFFFFF;" d="M37,17V4H15v13H0v27h48V17H37z M17,6h18v22H17V6z M20.25,42H2V19h13v11h5.25V42z M46,30v1v11H22V30
		h14.998H37V19h9V30z"/>
	<path style="fill:#FFFFFF;" d="M28.5,9c-2.483,0-4.5,2.005-4.5,4.5c0,2.494,2.017,4.5,4.5,4.5c2.484,0,4.5-2.006,4.5-4.5
		C33,11.005,30.984,9,28.5,9L28.5,9z"/>
</g>
</svg>
