<?xml version="1.0" encoding="iso-8859-1"?>
<!-- Generator: Adobe Illustrator 14.0.0, SVG Export Plug-In . SVG Version: 6.00 Build 43363)  -->
<!DOCTYPE svg PUBLIC "-//W3C//DTD SVG 1.1//EN" "http://www.w3.org/Graphics/SVG/1.1/DTD/svg11.dtd">
<svg version="1.1" id="icon-m-camera-whitebalance-auto-screen-layer"
	 xmlns="http://www.w3.org/2000/svg" xmlns:xlink="http://www.w3.org/1999/xlink" x="0px" y="0px" width="32px" height="32px"
	 viewBox="0 0 32 32" style="enable-background:new 0 0 32 32;" xml:space="preserve">
<g id="icon-m-camera-whitebalance-auto-screen">
	<rect style="fill:none;" width="32" height="32"/>
	<path style="fill:#FFFFFF;" d="M12.41,9.028c1.818,0,3.296,1.479,3.296,3.296s-1.479,3.297-3.296,3.297
		c-1.817,0-3.296-1.479-3.296-3.297S10.593,9.028,12.41,9.028 M12.41,7.028c-2.925,0-5.296,2.371-5.296,5.296
		c0,2.926,2.371,5.297,5.296,5.297c2.924,0,5.296-2.371,5.296-5.297C17.706,9.399,15.333,7.028,12.41,7.028L12.41,7.028z"/>
	<path style="fill:#FFFFFF;" d="M13.625,4.586V1.773c0-0.507-0.441-0.948-0.946-0.946l-0.356-0.002
		c-0.522,0.002-0.948,0.426-0.948,0.947v2.814c0,0.253,0.098,0.49,0.279,0.67c0.178,0.18,0.417,0.278,0.668,0.277h0.355
		c0.252,0,0.49-0.1,0.67-0.277C13.526,5.077,13.625,4.839,13.625,4.586z"/>
	<path style="fill:#FFFFFF;" d="M4.628,11.375H1.814c-0.505,0-0.947,0.442-0.947,0.946l0,0.357c0,0.521,0.426,0.946,0.947,0.946
		h2.814c0.253,0,0.49-0.099,0.67-0.278c0.178-0.179,0.277-0.416,0.277-0.668v-0.357c0-0.251-0.099-0.489-0.278-0.669
		C5.118,11.474,4.88,11.375,4.628,11.375z"/>
	<path style="fill:#FFFFFF;" d="M23.054,11.375H20.24c-0.506,0-0.949,0.442-0.947,0.946l-0.002,0.357
		c0.002,0.521,0.427,0.946,0.948,0.946h2.814c0.253,0,0.49-0.099,0.67-0.278C23.902,13.168,24,12.931,24,12.679v-0.357
		c0-0.251-0.098-0.489-0.277-0.669C23.543,11.474,23.305,11.375,23.054,11.375z"/>
	<path style="fill:#FFFFFF;" d="M7.726,6.093l-1.99-1.99c-0.357-0.356-0.983-0.356-1.339,0L4.146,4.355
		c-0.37,0.37-0.37,0.97,0,1.339l1.989,1.99c0.179,0.179,0.416,0.276,0.67,0.276s0.492-0.098,0.67-0.276l0.251-0.251
		c0.179-0.179,0.277-0.418,0.277-0.671C8.003,6.509,7.905,6.272,7.726,6.093z"/>
	<path style="fill:#FFFFFF;" d="M20.834,4.355l-0.252-0.253c-0.356-0.356-0.981-0.356-1.338,0l-1.99,1.99
		c-0.37,0.369-0.37,0.97,0,1.341l0.252,0.251c0.178,0.179,0.416,0.276,0.67,0.276c0.253,0,0.49-0.098,0.67-0.276l1.988-1.99
		C21.203,5.325,21.203,4.726,20.834,4.355z"/>
	<path style="fill:#FFFFFF;" d="M13.625,22.878v-2.814c0-0.505-0.441-0.947-0.946-0.946l-0.356-0.001
		c-0.522,0.001-0.948,0.426-0.948,0.947v2.814c0,0.254,0.098,0.49,0.279,0.67c0.178,0.179,0.417,0.277,0.668,0.277h0.355
		c0.252,0,0.49-0.099,0.67-0.278C13.526,23.367,13.625,23.13,13.625,22.878z"/>
	<path style="fill:#FFFFFF;" d="M17.254,18.558l1.99,1.989c0.356,0.356,0.982,0.356,1.338,0l0.252-0.251
		c0.369-0.37,0.369-0.972,0-1.34l-1.988-1.99c-0.182-0.178-0.417-0.277-0.671-0.277c-0.253,0-0.491,0.1-0.669,0.277l-0.252,0.252
		c-0.179,0.178-0.277,0.416-0.277,0.669C16.977,18.141,17.075,18.379,17.254,18.558z"/>
	<path style="fill:#FFFFFF;" d="M4.146,20.296l0.252,0.251c0.356,0.356,0.981,0.356,1.339,0l1.99-1.989
		c0.369-0.37,0.369-0.971,0-1.34l-0.252-0.252c-0.178-0.178-0.416-0.277-0.669-0.277s-0.492,0.1-0.67,0.277l-1.989,1.99
		C3.775,19.324,3.775,19.926,4.146,20.296z"/>
	<path style="fill:#FFFFFF;" d="M27.159,18h-3.13L20,31.5h2.273l0.896-3.097h4.516l0.896,3.097h2.534L27.159,18z M23.603,26.694
		l1.845-6.672l1.826,6.701L23.603,26.694z"/>
</g>
</svg>
