<?xml version="1.0" encoding="iso-8859-1"?>
<!-- Generator: Adobe Illustrator 14.0.0, SVG Export Plug-In . SVG Version: 6.00 Build 43363)  -->
<!DOCTYPE svg PUBLIC "-//W3C//DTD SVG 1.1//EN" "http://www.w3.org/Graphics/SVG/1.1/DTD/svg11.dtd">
<svg version="1.1" id="icon-m-note-time-layer" xmlns="http://www.w3.org/2000/svg" xmlns:xlink="http://www.w3.org/1999/xlink"
	 x="0px" y="0px" width="48px" height="48px" viewBox="0 0 48 48" style="enable-background:new 0 0 48 48;" xml:space="preserve">
<g id="icon-m-note-time">
	<rect style="fill:none;" width="48" height="48"/>
	<path style="fill:#333333;" d="M16.5,34.5c0-6.236,3.188-11.739,8.02-14.971H5.225v-3.643h24.8v1.176
		c1.431-0.367,2.93-0.563,4.475-0.563c0.252,0,0.5,0.009,0.75,0.02V1.639C35.25,0.737,34.513,0,33.61,0h-3.142v1.803
		c0,0.958-0.784,1.741-1.742,1.741h-1.016c-0.959,0-1.742-0.783-1.742-1.741V0h-6.094v1.803c0,0.958-0.784,1.741-1.741,1.741h-1.017
		c-0.958,0-1.742-0.783-1.742-1.741V0H9.281v1.803c0,0.958-0.784,1.741-1.741,1.741H6.523c-0.958,0-1.742-0.783-1.742-1.741V0H1.639
		C0.737,0,0,0.737,0,1.639v34.431c0,0.903,0.737,1.64,1.639,1.64h15.152C16.604,36.666,16.5,35.596,16.5,34.5z M5.225,9.029h24.8
		v3.643h-24.8V9.029z M5.225,22.637h12v3.643h-12V22.637z"/>
	<path style="fill:#333333;" d="M34.5,21C27.044,21,21,27.044,21,34.5C21,41.955,27.044,48,34.5,48C41.955,48,48,41.955,48,34.5
		C48,27.044,41.955,21,34.5,21z M43.539,36.488c-0.418,0.423-0.976,0.658-1.569,0.661l-8.423,0.004l0,0
		c-0.65,0-1.179-0.198-1.572-0.589c-0.417-0.413-0.657-0.989-0.657-1.58v-8.408c0-1.229,1.001-2.229,2.229-2.229
		c1.23,0,2.23,1,2.23,2.229v6.16l6.158-0.046c1.233,0,2.236,0.991,2.246,2.212C44.186,35.5,43.957,36.063,43.539,36.488z"/>
</g>
</svg>
