<?xml version="1.0" encoding="iso-8859-1"?>
<!-- Generator: Adobe Illustrator 14.0.0, SVG Export Plug-In . SVG Version: 6.00 Build 43363)  -->
<!DOCTYPE svg PUBLIC "-//W3C//DTD SVG 1.1//EN" "http://www.w3.org/Graphics/SVG/1.1/DTD/svg11.dtd">
<svg version="1.1" id="icon-m-telephony-call-diverted-layer"
	 xmlns="http://www.w3.org/2000/svg" xmlns:xlink="http://www.w3.org/1999/xlink" x="0px" y="0px" width="48px" height="48px"
	 viewBox="0 0 48 48" style="enable-background:new 0 0 48 48;" xml:space="preserve">
<g id="icon-m-telephony-call-diverted_2_">
	<rect style="fill:none;" width="48" height="48"/>
	<path style="fill:#333333;" d="M46.428,5.826l-25.6,8.229c-0.785,0.252-0.888,0.863-0.228,1.358l8.61,6.45
		c-0.142,0.093-0.273,0.206-0.381,0.35l-8.136,10.861H1.683c-0.825,0-1.5,0.676-1.5,1.5v7.257c0,0.825,0.675,1.5,1.5,1.5h23.267
		c0.496,0.038,1-0.167,1.318-0.591l10.771-14.379c0.107-0.143,0.18-0.301,0.229-0.463l8.611,6.451c0.66,0.495,1.217,0.225,1.238-0.6
		l0.7-26.883C47.839,6.041,47.213,5.574,46.428,5.826z"/>
</g>
</svg>
