<?xml version="1.0" encoding="iso-8859-1"?>
<!-- Generator: Adobe Illustrator 14.0.0, SVG Export Plug-In . SVG Version: 6.00 Build 43363)  -->
<!DOCTYPE svg PUBLIC "-//W3C//DTD SVG 1.1//EN" "http://www.w3.org/Graphics/SVG/1.1/DTD/svg11.dtd">
<svg version="1.1" id="icon-m-settings-accessories-layer"
	 xmlns="http://www.w3.org/2000/svg" xmlns:xlink="http://www.w3.org/1999/xlink" x="0px" y="0px" width="64px" height="64px"
	 viewBox="0 0 64 64" style="enable-background:new 0 0 64 64;" xml:space="preserve">
<g id="icon-m-settings-accessories">
	<rect style="opacity:0;fill:#FFFFFF;" width="64" height="64"/>
	<path style="fill:#FFFFFF;" d="M0,52c0,0,0,3,3,3h58c3,0,3-3,3-3V40H0V52z"/>
	<path style="fill:#FFFFFF;" d="M61,20H47v-8c0-3-3-3-3-3H20c-3,0-3,3-3,3v8H3c0,0-3,0-3,3v11h64V23C64,20,61,20,61,20z M42,20H22
		v-6h20V20z"/>
</g>
</svg>
