<?xml version="1.0" encoding="iso-8859-1"?>
<!-- Generator: Adobe Illustrator 14.0.0, SVG Export Plug-In . SVG Version: 6.00 Build 43363)  -->
<!DOCTYPE svg PUBLIC "-//W3C//DTD SVG 1.1//EN" "http://www.w3.org/Graphics/SVG/1.1/DTD/svg11.dtd">
<svg version="1.1" id="icon-m-toolbar-video-selected-layer"
	 xmlns="http://www.w3.org/2000/svg" xmlns:xlink="http://www.w3.org/1999/xlink" x="0px" y="0px" width="32px" height="32px"
	 viewBox="0 0 32 32" style="enable-background:new 0 0 32 32;" xml:space="preserve">
<g id="icon-m-toolbar-video-selected">
	<rect style="fill:none;" width="32" height="32"/>
	<path style="fill:#63AF45;" d="M22.622,7.799c-4.984,0-9.024,4.041-9.024,9.024s4.04,9.024,9.024,9.024s9.024-4.041,9.024-9.024
		S27.606,7.799,22.622,7.799z M27.544,17.283l-6.889,4.018c-0.433,0.252-0.787,0.049-0.787-0.451v-8.051
		c0-0.5,0.354-0.705,0.787-0.452l6.889,4.019C27.977,16.617,27.977,17.031,27.544,17.283z"/>
	<path style="fill:#63AF45;" d="M10.598,16.823c0-0.083,0.004-0.164,0.006-0.247l-2.315,0.002v-0.016H8.281V6.625h0.007V6.609h7.998
		c0.819-0.51,1.704-0.924,2.638-1.227h-0.187c-0.273,0-0.496-0.664-0.496-0.938V2.469c0-0.272,0.223-0.495,0.496-0.495h1.978
		c0.271,0,0.494,0.223,0.494,0.495v1.977c0,0.111-0.037,0.283-0.099,0.451c0.496-0.062,0.999-0.098,1.511-0.098
		c0.748,0,1.479,0.072,2.19,0.203c-0.086-0.197-0.14-0.422-0.14-0.557V2.469c0-0.272,0.223-0.495,0.495-0.495H26.5V0H0v1.951v0.022
		h1.344c0.271,0,0.494,0.223,0.494,0.495v1.955c0,0.271-0.223,0.936-0.494,0.936H0v0.023v1.227v0.016h5.797v9.938H0v0.016v1.641
		v0.023h1.344c0.271,0,0.494,0.223,0.494,0.494v1.956c0,0.272-0.223,0.494-0.494,0.494H0v0.023v1.563h12.18
		C11.175,21.018,10.598,18.986,10.598,16.823z M11.792,2.469c0-0.272,0.224-0.495,0.496-0.495h1.979
		c0.272,0,0.493,0.223,0.493,0.495v1.977c0,0.273-0.221,0.938-0.493,0.938h-1.979c-0.272,0-0.496-0.664-0.496-0.938V2.469z
		 M5.321,4.424V2.469c0-0.272,0.222-0.495,0.494-0.495h1.978c0.273,0,0.495,0.223,0.495,0.495v1.955
		c0,0.271-0.222,0.936-0.495,0.936H5.815C5.543,5.359,5.321,4.695,5.321,4.424z M8.289,20.692c0,0.272-0.222,0.494-0.495,0.494
		H5.815c-0.272,0-0.494-0.222-0.494-0.494v-1.956c0-0.271,0.222-0.494,0.494-0.494h1.978c0.273,0,0.495,0.223,0.495,0.494V20.692z"
		/>
	<path style="fill:#63AF45;" d="M26.318,5.383c0.062,0.02,0.121,0.041,0.182,0.062V5.383H26.318z"/>
</g>
</svg>
