<?xml version="1.0" encoding="iso-8859-1"?>
<!-- Generator: Adobe Illustrator 14.0.0, SVG Export Plug-In . SVG Version: 6.00 Build 43363)  -->
<!DOCTYPE svg PUBLIC "-//W3C//DTD SVG 1.1//EN" "http://www.w3.org/Graphics/SVG/1.1/DTD/svg11.dtd">
<svg version="1.1" id="icon-m-energy-management-battery8-layer"
	 xmlns="http://www.w3.org/2000/svg" xmlns:xlink="http://www.w3.org/1999/xlink" x="0px" y="0px" width="48px" height="48px"
	 viewBox="0 0 48 48" style="enable-background:new 0 0 48 48;" xml:space="preserve">
<g id="icon-m-energy-management-battery8">
	<rect style="fill:none;" width="48" height="48"/>
	<path style="fill:#333333;" d="M19.09,2.533v2.113h-7.557c-0.774,0-1.409,0.634-1.409,1.408v39.411
		c0,0.776,0.635,1.411,1.409,1.411h24.933c0.774,0,1.408-0.635,1.408-1.411V6.055c0-0.774-0.634-1.408-1.408-1.408H28.91V2.533
		c0-0.774-0.633-1.41-1.408-1.41h-7.003C19.725,1.123,19.09,1.759,19.09,2.533z M33.164,8.916c0.774,0,1.41,0.637,1.41,1.412v32.376
		c0,0.774-0.636,1.409-1.41,1.409H14.839c-0.774,0-1.409-0.635-1.409-1.409V10.328c0-0.775,0.635-1.412,1.409-1.412H33.164z"/>
	<rect x="15.932" y="11.373" style="fill:#333333;" width="16.137" height="30.231"/>
</g>
</svg>
