<?xml version="1.0" encoding="iso-8859-1"?>
<!-- Generator: Adobe Illustrator 14.0.0, SVG Export Plug-In . SVG Version: 6.00 Build 43363)  -->
<!DOCTYPE svg PUBLIC "-//W3C//DTD SVG 1.1//EN" "http://www.w3.org/Graphics/SVG/1.1/DTD/svg11.dtd">
<svg version="1.1" id="icon-m-bluetooth-pda-layer" xmlns="http://www.w3.org/2000/svg" xmlns:xlink="http://www.w3.org/1999/xlink"
	 x="0px" y="0px" width="48px" height="48px" viewBox="0 0 48 48" style="enable-background:new 0 0 48 48;" xml:space="preserve">
<g id="icon-m-bluetooth-pda">
	<rect style="fill:none;" width="48" height="48"/>
	<path style="fill:#333333;" d="M45.604,6.058c-0.444-0.724-1.997-0.594-3.45,0.295L17.054,21.696
		c-1.454,0.888-2.278,2.208-1.835,2.935c0.444,0.727,1.996,0.596,3.449-0.294L43.771,8.995C45.223,8.105,46.049,6.787,45.604,6.058z
		"/>
	<path style="fill:#333333;" d="M30.482,29.559c0,1.704-1.393,3.098-3.096,3.098H9.037c-1.704,0-3.097-1.394-3.097-3.098V8.401
		c0-1.701,1.393-3.097,3.097-3.097h18.35c1.352,0,2.496,0.885,2.915,2.098l3.42-2.089c-0.901-2.308-3.148-3.958-5.767-3.958H8.468
		c-3.406,0-6.193,2.788-6.193,6.194v32.899c0,3.406,2.787,6.194,6.193,6.194h19.487c3.407,0,6.194-2.788,6.194-6.194V21.068
		l-3.667,2.239V29.559z M18.212,44.178c-2.303,0-4.168-1.863-4.168-4.162c0-2.297,1.866-4.16,4.168-4.16
		c2.301,0,4.167,1.863,4.167,4.16C22.38,42.314,20.514,44.178,18.212,44.178z"/>
</g>
</svg>
