<?xml version="1.0" encoding="iso-8859-1"?>
<!-- Generator: Adobe Illustrator 14.0.0, SVG Export Plug-In . SVG Version: 6.00 Build 43363)  -->
<!DOCTYPE svg PUBLIC "-//W3C//DTD SVG 1.1//EN" "http://www.w3.org/Graphics/SVG/1.1/DTD/svg11.dtd">
<svg version="1.1" id="icon-m-toolbar-send-email-layer"
	 xmlns="http://www.w3.org/2000/svg" xmlns:xlink="http://www.w3.org/1999/xlink" x="0px" y="0px" width="32px" height="32px"
	 viewBox="0 0 32 32" style="enable-background:new 0 0 32 32;" xml:space="preserve">
<g id="icon-m-toolbar-send-email">
	<rect style="fill:none;" width="32" height="32"/>
	<path style="fill:#FFFFFF;" d="M29.26,7.74C27.432,5.914,24.863,5,21.555,5c-2.164,0-4.145,0.436-5.934,1.318
		c-1.791,0.879-3.177,2.137-4.15,3.776C10.488,11.741,10,13.674,10,15.904c0,3.57,1.048,6.307,3.147,8.223
		C15.241,26.044,18.07,27,21.635,27c0.885,0,1.896-0.096,3.057-0.276c1.145-0.187,2.09-0.413,2.799-0.673v-2.26
		c-1.959,0.654-3.844,0.979-5.631,0.979c-3.024,0-5.288-0.75-6.804-2.256c-1.516-1.496-2.267-3.746-2.267-6.738
		c0-2.678,0.82-4.78,2.47-6.289c1.638-1.521,3.753-2.28,6.354-2.28c2.476,0,4.395,0.723,5.75,2.165
		c1.355,1.447,2.027,3.473,2.027,6.088c0,1.484-0.197,2.636-0.609,3.45c-0.418,0.825-0.979,1.229-1.697,1.229
		c-0.555,0-0.949-0.166-1.184-0.481c-0.229-0.323-0.348-0.997-0.348-2.03c0-1.695,0.313-4.268,0.947-7.729h-3.895
		c-2.213,0-3.973,0.661-5.297,1.977c-1.315,1.316-1.98,3.125-1.98,5.445c0,1.484,0.387,2.652,1.139,3.523
		c0.762,0.865,1.69,1.3,2.78,1.3c1.633,0,2.92-0.835,3.869-2.486c0.221,0.778,0.642,1.392,1.239,1.821
		c0.595,0.451,1.293,0.665,2.093,0.665c1.722,0,3.088-0.598,4.07-1.782c0.994-1.176,1.48-2.847,1.48-5.018
		C32,12.105,31.089,9.567,29.26,7.74z M22.525,15.746c-0.362,2.914-1.129,4.364-2.307,4.364c-0.629,0-1.074-0.231-1.328-0.711
		c-0.258-0.481-0.384-1.214-0.384-2.21c0-1.607,0.352-2.879,1.041-3.824c0.704-0.953,1.548-1.424,2.521-1.424h0.944L22.525,15.746z"
		/>
	<path style="fill:#FFFFFF;" d="M0,10.986c0,0.723,0.712,1.314,1.582,1.314h5.246V9.672H1.582C0.712,9.672,0,10.264,0,10.986z"/>
	<path style="fill:#FFFFFF;" d="M0,16.26c0,0.723,0.712,1.314,1.582,1.314h5.246v-2.627H1.582C0.712,14.947,0,15.537,0,16.26z"/>
	<path style="fill:#FFFFFF;" d="M0,21.533c0,0.723,0.712,1.314,1.582,1.314h5.246v-2.629H1.582C0.712,20.219,0,20.811,0,21.533z"/>
</g>
</svg>
