<?xml version="1.0" encoding="iso-8859-1"?>
<!-- Generator: Adobe Illustrator 14.0.0, SVG Export Plug-In . SVG Version: 6.00 Build 43363)  -->
<!DOCTYPE svg PUBLIC "-//W3C//DTD SVG 1.1//EN" "http://www.w3.org/Graphics/SVG/1.1/DTD/svg11.dtd">
<svg version="1.1" id="icon-m-content-applet-layer"
	 xmlns="http://www.w3.org/2000/svg" xmlns:xlink="http://www.w3.org/1999/xlink" x="0px" y="0px" width="48px" height="48px"
	 viewBox="0 0 48 48" style="enable-background:new 0 0 48 48;" xml:space="preserve">
<g id="icon-m-content-applet">
	<rect style="fill:none;" width="48" height="48"/>
	<path style="fill:#333333;" d="M35.062,25.73c1.618,0,4.068,2.036,4.068,2.036s5.045,5.444,5.867-1.955V14.11H31.473
		c-5.017-1.123-0.652-5.167-0.652-5.167s1.854-2.232,1.854-3.709c0-2.891-2.88-5.234-6.436-5.234c-3.554,0-6.436,2.344-6.436,5.234
		c0,1.477,0.753,2.807,1.962,3.759c0.475,0.463,3.987,4.067-0.705,5.117H3V48h4.196c6.504-0.801,2.338-5.168,1.804-5.699
		c-1.273-1.025-2.068-2.461-2.068-4.053c0-3.115,3.041-5.645,6.789-5.645c3.749,0,6.788,2.529,6.788,5.645c0,1.592-1.957,4-1.957,4
		S13.374,47.15,20.316,48h24.682v-8.296c-0.774-6.94-5.27-2.562-5.813-2.003c-1.044,1.325-2.504,2.15-4.122,2.15
		c-3.174,0-5.744-3.159-5.744-7.061C29.318,28.893,31.889,25.73,35.062,25.73z"/>
</g>
</svg>
