<?xml version="1.0" encoding="iso-8859-1"?>
<!-- Generator: Adobe Illustrator 14.0.0, SVG Export Plug-In . SVG Version: 6.00 Build 43363)  -->
<!DOCTYPE svg PUBLIC "-//W3C//DTD SVG 1.1//EN" "http://www.w3.org/Graphics/SVG/1.1/DTD/svg11.dtd">
<svg version="1.1" id="icon-s-messaging-smiley-sad-layer"
	 xmlns="http://www.w3.org/2000/svg" xmlns:xlink="http://www.w3.org/1999/xlink" x="0px" y="0px" width="18px" height="18px"
	 viewBox="0 0 18 18" style="enable-background:new 0 0 18 18;" xml:space="preserve">
<g id="icon-s-messaging-smiley-sad">
	<rect style="fill:none;" width="18" height="18"/>
	<path style="fill:#333333;" d="M9,11.087c2.196,0,4.023,1.161,4.418,2.694c0.053-0.201,0.082-0.409,0.082-0.622
		c0-1.831-2.015-3.315-4.5-3.315s-4.5,1.484-4.5,3.315c0,0.213,0.03,0.421,0.082,0.622C4.977,12.248,6.804,11.087,9,11.087z"/>
	<path style="fill:#333333;" d="M9,1.125c4.342,0,7.875,3.533,7.875,7.875c0,4.343-3.533,7.875-7.875,7.875
		c-4.342,0-7.875-3.532-7.875-7.875C1.125,4.658,4.658,1.125,9,1.125 M9,0C4.029,0,0,4.029,0,9s4.029,9,9,9s9-4.029,9-9
		S13.971,0,9,0L9,0z"/>
	<circle style="fill:#333333;" cx="6.047" cy="5.807" r="1.266"/>
	<circle style="fill:#333333;" cx="11.953" cy="5.807" r="1.266"/>
</g>
</svg>
