<?xml version="1.0" encoding="iso-8859-1"?>
<!-- Generator: Adobe Illustrator 14.0.0, SVG Export Plug-In . SVG Version: 6.00 Build 43363)  -->
<!DOCTYPE svg PUBLIC "-//W3C//DTD SVG 1.1//EN" "http://www.w3.org/Graphics/SVG/1.1/DTD/svg11.dtd">
<svg version="1.1" id="icon-m-energy-management-insufficient-power-layer"
	 xmlns="http://www.w3.org/2000/svg" xmlns:xlink="http://www.w3.org/1999/xlink" x="0px" y="0px" width="48px" height="48px"
	 viewBox="0 0 48 48" style="enable-background:new 0 0 48 48;" xml:space="preserve">
<g id="icon-m-energy-management-insufficient-power">
	<rect style="fill:none;" width="48" height="48"/>
	<path style="fill:#333333;" d="M34.5,21C27.045,21,21,27.045,21,34.5S27.045,48,34.5,48S48,41.955,48,34.5S41.955,21,34.5,21z
		 M32.353,25.273c0.335-0.338,0.781-0.523,1.256-0.523h1.913c0.98,0,1.777,0.797,1.777,1.777l-0.49,7.693
		c0.001,0.441-0.182,0.881-0.516,1.215c-0.336,0.338-0.784,0.523-1.26,0.523h-0.936c-0.979,0-1.776-0.798-1.776-1.777l-0.487-7.615
		C31.832,26.062,32.018,25.612,32.353,25.273z M34.5,44.436c-1.758,0-3.188-1.43-3.188-3.188s1.43-3.188,3.188-3.188
		s3.188,1.43,3.188,3.188S36.258,44.436,34.5,44.436z"/>
	<path style="fill:#333333;" d="M19.207,43.568H4.587c-0.752,0-1.372-0.617-1.372-1.369V10.697c0-0.753,0.619-1.371,1.372-1.371
		h17.829c0.753,0,1.372,0.618,1.372,1.371v9.537c0.995-0.768,2.069-1.434,3.212-1.98V6.541c0-0.756-0.616-1.369-1.369-1.369h-7.353
		V3.115c0-0.754-0.616-1.372-1.37-1.372h-6.814c-0.753,0-1.37,0.618-1.37,1.372v2.057H1.371C0.617,5.172,0,5.785,0,6.541v38.344
		c0,0.756,0.617,1.371,1.371,1.371h19.762C20.412,45.424,19.767,44.525,19.207,43.568z"/>
</g>
</svg>
