<?xml version="1.0" encoding="iso-8859-1"?>
<!-- Generator: Adobe Illustrator 14.0.0, SVG Export Plug-In . SVG Version: 6.00 Build 43363)  -->
<!DOCTYPE svg PUBLIC "-//W3C//DTD SVG 1.1//EN" "http://www.w3.org/Graphics/SVG/1.1/DTD/svg11.dtd">
<svg version="1.1" id="icon-m-common-presence-offline-layer"
	 xmlns="http://www.w3.org/2000/svg" xmlns:xlink="http://www.w3.org/1999/xlink" x="0px" y="0px" width="48px" height="48px"
	 viewBox="0 0 48 48" style="enable-background:new 0 0 48 48;" xml:space="preserve">
<g id="icon-m-common-presence-offline">
	<rect style="fill:none;" width="48" height="48"/>
	<path style="fill:#333333;" d="M24.003,0.75C11.161,0.75,0.75,11.17,0.75,24.014c0,12.826,10.411,23.236,23.252,23.236
		c12.829,0,23.247-10.41,23.247-23.236C47.25,11.17,36.832,0.75,24.003,0.75z M34.979,30.686c1.166,1.168,1.166,3.075,0,4.241v0.001
		c-1.167,1.167-3.077,1.167-4.243-0.001l-6.417-6.417l-5.667,5.668c-1.166,1.166-3.185,1.337-4.481,0.375
		c-1.3-0.96-1.406-2.699-0.241-3.867l6.282-6.281l-6.282-6.282c-1.168-1.167-1.168-3.076,0-4.241c1.166-1.167,3.075-1.167,4.241,0
		l6.285,6.281l6.281-6.281c1.168-1.167,3.185-1.336,4.482-0.377c1.299,0.961,1.406,2.701,0.24,3.867l-6.897,6.897L34.979,30.686z"/>
</g>
</svg>
