<?xml version="1.0" encoding="iso-8859-1"?>
<!-- Generator: Adobe Illustrator 14.0.0, SVG Export Plug-In . SVG Version: 6.00 Build 43363)  -->
<!DOCTYPE svg PUBLIC "-//W3C//DTD SVG 1.1//EN" "http://www.w3.org/Graphics/SVG/1.1/DTD/svg11.dtd">
<svg version="1.1" id="icon-m-camera-scene-macro-layer"
	 xmlns="http://www.w3.org/2000/svg" xmlns:xlink="http://www.w3.org/1999/xlink" x="0px" y="0px" width="48px" height="48px"
	 viewBox="0 0 48 48" style="enable-background:new 0 0 48 48;" xml:space="preserve">
<g id="icon-m-camera-scene-macro">
	<rect style="fill:none;" width="48" height="48"/>
	<path style="fill:#333333;" d="M26.384,44.824v-6.75c0.593,0.893,1.05,1.281,1.731,1.723c2.954,1.898,7.161,1.834,10.467,0.943
		c6.852-1.84,8.802-8.34,8.802-14.666c-1.289,0.5-14.005,5.653-19.384,7.723c-0.662,0.258-1.052,0.826-1.616,1.277v-10.5
		c5.654-0.919,9.53-5.773,9.53-11.687c0-2.916-1.053-5.583-2.795-7.651l-3.735,9.588l-5.25-12l-5.25,12l-3.75-9.75
		c-1.727,2.066-3,4.912-3,7.813c0,5.913,4.097,10.768,9.75,11.687v10.5c-0.563-0.481-1.202-0.926-1.885-1.188
		c-5.378-2.071-17.826-7.315-19.115-7.812c0,6.33,1.681,12.91,8.534,14.751c3.306,0.892,7.513,0.96,10.468-0.94
		c0.703-0.453,1.404-0.884,1.999-1.811v6.75H26.384z"/>
</g>
</svg>
