<?xml version="1.0" encoding="iso-8859-1"?>
<!-- Generator: Adobe Illustrator 14.0.0, SVG Export Plug-In . SVG Version: 6.00 Build 43363)  -->
<!DOCTYPE svg PUBLIC "-//W3C//DTD SVG 1.1//EN" "http://www.w3.org/Graphics/SVG/1.1/DTD/svg11.dtd">
<svg version="1.1" id="icon-s-messaging-smiley-wink-layer"
	 xmlns="http://www.w3.org/2000/svg" xmlns:xlink="http://www.w3.org/1999/xlink" x="0px" y="0px" width="18px" height="18px"
	 viewBox="0 0 18 18" style="enable-background:new 0 0 18 18;" xml:space="preserve">
<g id="icon-s-messaging-smiley-wink">
	<rect style="fill:none;" width="18" height="18"/>
	<path style="fill:#333333;" d="M9,12.516"/>
	<circle style="fill:#333333;" cx="11.672" cy="6.414" r="0.984"/>
	<path style="fill:#333333;" d="M8.409,6.74c0.018,0.006,0.028,0.01,0.028,0.01C8.42,6.736,8.402,6.726,8.385,6.713
		C8.129,6.423,6.356,5.254,4.5,5.625l2.184,0.523C5.266,6.322,3.938,8.156,3.938,8.156C5.575,6.505,7.605,6.57,8.18,6.682
		l0.258,0.092C8.438,6.773,8.426,6.761,8.409,6.74z"/>
	<path style="fill:#333333;" d="M9,1.125c4.342,0,7.875,3.533,7.875,7.875c0,4.343-3.533,7.875-7.875,7.875
		c-4.342,0-7.875-3.532-7.875-7.875C1.125,4.658,4.658,1.125,9,1.125 M9,0C4.029,0,0,4.029,0,9s4.029,9,9,9s9-4.029,9-9
		S13.971,0,9,0L9,0z"/>
	<path style="fill:#333333;" d="M13.219,12.375c-3.772,2.096-6.854-0.565-7.943-1.741c-0.328,0.076-0.577,0.241-0.763,0.437
		c0.722,0.857,2.481,2.569,5.024,2.568c0.994,0,2.107-0.261,3.325-0.938l0.369-0.203L13.219,12.375z"/>
	<path style="fill:#333333;" d="M3.375,12.094c0,0,0.563-2.93,3.656-1.83C7.031,10.264,3.375,8.067,3.375,12.094z"/>
</g>
</svg>
