<?xml version="1.0" encoding="iso-8859-1"?>
<!-- Generator: Adobe Illustrator 14.0.0, SVG Export Plug-In . SVG Version: 6.00 Build 43363)  -->
<!DOCTYPE svg PUBLIC "-//W3C//DTD SVG 1.1//EN" "http://www.w3.org/Graphics/SVG/1.1/DTD/svg11.dtd">
<svg version="1.1" id="icon-m-music-video-audio-settings-layer"
	 xmlns="http://www.w3.org/2000/svg" xmlns:xlink="http://www.w3.org/1999/xlink" x="0px" y="0px" width="48px" height="48px"
	 viewBox="0 0 48 48" style="enable-background:new 0 0 48 48;" xml:space="preserve">
<g id="icon-m-music-video-audio-settings_2_">
	<rect x="1" style="fill:none;" width="48" height="48"/>
	<path style="fill:#333333;" d="M36.869,39.859c-5.686,3.146-8.859-3.923-8.859-5.844c0-1.587,0.115-2.395,0.697-1.813l4.307,4.317
		c2.346-0.636,3.808-2.417,4.482-4.479l-4.287-4.291c-1.078-1.082,2.586-1.035,5,0.362c5.355,3.1,3.12,7.155,2.66,7.773l5.951,5.954
		C48.194,39.727,49,37.209,49,34.5C49,27.045,42.955,21,35.5,21S22,27.045,22,34.5S28.045,48,35.5,48
		c2.705,0,5.219-0.804,7.331-2.174L36.869,39.859z"/>
	<path style="fill:#333333;" d="M29.261,12.846v5.785c1.034-0.413,2.117-0.727,3.239-0.928V0.47c0-0.412-0.296-0.589-0.654-0.384
		l-19.78,10.929c-0.354,0.194-0.644,0.692-0.644,1.112v19.881c-1.816-0.652-4.157-0.438-6.306,0.763
		c-3.499,1.935-5.046,5.583-3.542,8.307c1.511,2.729,5.437,3.356,8.929,1.421c2.31-1.281,3.838-3.315,4.113-5.34
		c0.017-0.222,0.039-0.337,0.039-0.502V20.917c0-0.317,0.295-0.906,0.651-1.106l13.304-7.351
		C28.965,12.264,29.261,12.438,29.261,12.846z"/>
</g>
</svg>
