<?xml version="1.0" encoding="iso-8859-1"?>
<!-- Generator: Adobe Illustrator 14.0.0, SVG Export Plug-In . SVG Version: 6.00 Build 43363)  -->
<!DOCTYPE svg PUBLIC "-//W3C//DTD SVG 1.1//EN" "http://www.w3.org/Graphics/SVG/1.1/DTD/svg11.dtd">
<svg version="1.1" id="icon-m-content-radiostation-layer"
	 xmlns="http://www.w3.org/2000/svg" xmlns:xlink="http://www.w3.org/1999/xlink" x="0px" y="0px" width="48px" height="48px"
	 viewBox="0 0 48 48" style="enable-background:new 0 0 48 48;" xml:space="preserve">
<g id="icon-m-content-radiostation_2_">
	<rect style="fill:none;" width="48" height="48"/>
	<path style="fill:#333333;" d="M40.193,4.01c-0.533-0.312-1.295-0.224-1.705,0.197c-0.4,0.42-0.283,1.022,0.264,1.339
		c3.459,2.033,5.621,6.047,5.621,10.475c0,4.421-2.162,8.444-5.621,10.474c-0.547,0.314-0.664,0.908-0.264,1.333
		c0.41,0.423,1.172,0.509,1.705,0.198c4.072-2.396,6.605-6.991,6.605-12.005C46.799,11,44.266,6.405,40.193,4.01"/>
	<path style="fill:#333333;" d="M36.955,10.81c0,0-0.029-0.067-0.051-0.102c-0.256-0.468-0.865-1.323-0.865-1.323
		c-0.653-0.877-1.318-1.553-2.316-2.278c-0.352-0.264-0.746-0.493-1.127-0.72c-0.084-0.049-0.175-0.084-0.269-0.112
		c-0.522-0.22-1.188-0.11-1.563,0.284c-0.328,0.348-0.312,0.814-0.004,1.156c0.084,0.117,0.249,0.243,0.342,0.309
		c0.572,0.407,1.184,0.806,1.709,1.294c0.193,0.185,0.381,0.376,0.564,0.575c1.358,1.631,2.178,3.807,2.178,6.139
		c0,2.307-0.773,4.465-2.112,6.094c-0.686,0.733-1.466,1.331-2.315,1.888c-0.531,0.351-0.673,0.95-0.266,1.383
		c0.416,0.437,1.18,0.548,1.762,0.254c0.401-0.204,0.774-0.406,1.127-0.672c1.105-0.722,1.979-1.79,2.721-2.882h-0.018
		c1.148-1.741,1.799-3.849,1.799-6.064C38.25,14.163,37.787,12.371,36.955,10.81"/>
	<path style="fill:#333333;" d="M9.248,5.546c0.548-0.316,0.666-0.919,0.266-1.339C9.102,3.786,8.34,3.697,7.807,4.01
		C3.735,6.405,1.201,11,1.201,16.021c0,5.014,2.534,9.609,6.606,12.005c0.533,0.311,1.294,0.225,1.706-0.198
		c0.4-0.425,0.282-1.019-0.266-1.333c-3.458-2.029-5.621-6.053-5.621-10.474C3.626,11.593,5.79,7.579,9.248,5.546"/>
	<path style="fill:#333333;" d="M14.252,24.978c0.354,0.264,0.727,0.466,1.128,0.671c0.581,0.295,1.345,0.183,1.76-0.253
		c0.408-0.435,0.265-1.032-0.268-1.384c-0.847-0.557-1.628-1.154-2.313-1.888c-1.338-1.63-2.11-3.788-2.11-6.094
		c0-2.332,0.817-4.509,2.176-6.139c0.183-0.199,0.371-0.391,0.564-0.576c0.526-0.487,1.139-0.885,1.709-1.293
		c0.093-0.066,0.257-0.191,0.342-0.308c0.308-0.342,0.324-0.811-0.003-1.158c-0.376-0.395-1.042-0.503-1.564-0.283
		c-0.094,0.027-0.185,0.062-0.269,0.111c-0.381,0.228-0.775,0.456-1.128,0.721c-0.997,0.726-1.662,1.4-2.315,2.278
		c0,0-0.609,0.856-0.865,1.324c-0.021,0.033-0.05,0.101-0.05,0.101c-0.833,1.561-1.295,3.354-1.295,5.222
		c0,2.215,0.65,4.323,1.799,6.063h-0.019C12.273,23.187,13.146,24.254,14.252,24.978"/>
	<path style="fill:#333333;" d="M28.765,31.551c-2.244-4.989-3.138-10.035-3.489-12.986c0.016-0.129,0.026-0.248,0.039-0.369
		c0.908-0.476,1.529-1.425,1.529-2.52c0-1.572-1.273-2.846-2.844-2.846c-1.571,0-2.844,1.273-2.844,2.846
		c0,1.095,0.62,2.044,1.53,2.52c0.011,0.123,0.024,0.245,0.039,0.377c-0.35,2.936-1.234,7.939-3.46,12.912
		c-2.682,5.996-6.48,10.228-11.333,12.693h4.714c1.506-1.136,2.898-2.458,4.168-3.961h14.372c1.271,1.503,2.662,2.825,4.168,3.961
		h4.715C35.233,41.72,31.444,37.511,28.765,31.551z M24,25.5c0.508,1.977,1.191,4.121,2.111,6.292h-4.223
		C22.807,29.621,23.489,27.477,24,25.5z M18.719,37.689c0.711-1.055,1.374-2.177,1.987-3.37h6.589
		c0.611,1.193,1.275,2.315,1.985,3.37H18.719z"/>
</g>
</svg>
