<?xml version="1.0" encoding="iso-8859-1"?>
<!-- Generator: Adobe Illustrator 14.0.0, SVG Export Plug-In . SVG Version: 6.00 Build 43363)  -->
<!DOCTYPE svg PUBLIC "-//W3C//DTD SVG 1.1//EN" "http://www.w3.org/Graphics/SVG/1.1/DTD/svg11.dtd">
<svg version="1.1" id="icon-m-content-call-layer" xmlns="http://www.w3.org/2000/svg" xmlns:xlink="http://www.w3.org/1999/xlink"
	 x="0px" y="0px" width="48px" height="48px" viewBox="0 0 48 48" style="enable-background:new 0 0 48 48;" xml:space="preserve">
<g id="icon-m-content-call_1_">
	<rect style="fill:none;" width="48" height="48"/>
	<path style="fill:#333333;" d="M23.904,0.742c-12.843,0-23.252,10.419-23.252,23.263c0,12.827,10.41,23.237,23.252,23.237
		c12.832,0,23.248-10.41,23.248-23.237C47.152,11.161,36.736,0.742,23.904,0.742z M37.797,15.378l-6.465,4.786
		c-0.305,0.234-0.688,0.479-1.175,0.479c-0.415,0-0.81-0.183-1.171-0.542l-0.06-0.07c-0.725-0.999-2.357-2.677-3.141-2.182
		c-0.968,0.611-7.467,7.099-8.084,8.07c-0.501,0.797,1.296,2.48,2.193,3.127l0.068,0.056c0.71,0.704,0.731,1.496,0.061,2.354
		l-4.752,6.397c-0.339,0.389-0.735,0.575-1.175,0.575c-0.522,0-0.995-0.272-1.214-0.46l-0.001,0.001
		c-2.017-1.605-4.251-6.383-3.085-9.439c2.525-6.613,13.04-15.959,18.563-18.554c0.6-0.28,1.296-0.423,2.069-0.423
		c2.719,0,6.078,1.802,7.419,3.43c0.117,0.117,0.246,0.309,0.366,0.626C38.466,14.273,38.314,14.919,37.797,15.378z"/>
</g>
</svg>
