<?xml version="1.0" encoding="iso-8859-1"?>
<!-- Generator: Adobe Illustrator 14.0.0, SVG Export Plug-In . SVG Version: 6.00 Build 43363)  -->
<!DOCTYPE svg PUBLIC "-//W3C//DTD SVG 1.1//EN" "http://www.w3.org/Graphics/SVG/1.1/DTD/svg11.dtd">
<svg version="1.1" id="icon-m-common-ovi-layer" xmlns="http://www.w3.org/2000/svg" xmlns:xlink="http://www.w3.org/1999/xlink"
	 x="0px" y="0px" width="48px" height="48px" viewBox="0 0 48 48" style="enable-background:new 0 0 48 48;" xml:space="preserve">
<g id="icon-m-common-ovi">
	<rect style="fill:none;" width="48" height="48"/>
	<path style="fill:#333333;" d="M12.33,20.239c-2.748,0-2.964,3.338-2.964,5.9c0,2.625,0.123,6.642,2.964,6.642
		c2.839,0,2.996-3.584,2.996-6.642C15.325,23.761,14.955,20.239,12.33,20.239z"/>
	<path style="fill:#333333;" d="M44.609,0.75H3.392c-1.453,0-2.642,1.188-2.642,2.642v41.218c0,1.452,1.189,2.641,2.642,2.641
		h41.217c1.453,0,2.641-1.188,2.641-2.641V3.392C47.25,1.938,46.063,0.75,44.609,0.75z M12.33,35.625
		c-6.023,0-8.091-4.142-8.091-9.391c0-5.193,2.811-8.836,8.155-8.836c5.527,0,8.06,3.677,8.06,8.958
		C20.454,31.885,17.89,35.625,12.33,35.625z M30.719,32.969c-0.619,1.638-1.282,2.656-3.452,2.656c-2.169,0-2.832-1.019-3.453-2.656
		l-4.436-15.323h5.16l3.149,13.26l3.338-13.26h4.356L30.719,32.969z M42.307,33.355c0,0.452,0,1.282-0.7,1.777
		c-0.363,0.257-0.921,0.492-1.769,0.492c-0.814,0-1.388-0.238-1.752-0.492c-0.698-0.495-0.698-1.325-0.698-1.777V20.479
		c0,0-0.122,0-0.287,0c-0.471,0-0.861-0.002-1.137-0.371c-0.128-0.175-0.304-0.461-0.304-1.04c0-0.557,0.176-0.869,0.304-1.04
		c0.275-0.372,0.666-0.382,1.137-0.382c0.165,0,0.338-0.001,0.338-0.001h4.868V33.355z M39.884,15.787
		c-1.575,0-2.718-0.807-2.718-2.287c0-1.485,1.111-2.288,2.718-2.288c1.515,0,2.716,0.833,2.716,2.288
		C42.6,14.98,41.46,15.787,39.884,15.787z"/>
</g>
</svg>
