<?xml version="1.0" encoding="iso-8859-1"?>
<!-- Generator: Adobe Illustrator 14.0.0, SVG Export Plug-In . SVG Version: 6.00 Build 43363)  -->
<!DOCTYPE svg PUBLIC "-//W3C//DTD SVG 1.1//EN" "http://www.w3.org/Graphics/SVG/1.1/DTD/svg11.dtd">
<svg version="1.1" id="icon-m-toolbar-newest-on-top-layer"
	 xmlns="http://www.w3.org/2000/svg" xmlns:xlink="http://www.w3.org/1999/xlink" x="0px" y="0px" width="32px" height="32px"
	 viewBox="0 0 32 32" style="enable-background:new 0 0 32 32;" xml:space="preserve">
<g id="icon-m-toolbar-newest-on-top_1_">
	<rect style="fill:none;" width="32" height="32"/>
	<rect x="3.572" y="28.509" style="fill:#FFFFFF;" width="18.6" height="2.991"/>
	<rect x="3.572" y="20.682" style="fill:#FFFFFF;" width="18.6" height="2.992"/>
	<path style="fill:#FFFFFF;" d="M28.409,8.979c-0.338-3.262-3.101-5.812-6.448-5.812h-3.684v-2.05c0-0.549-0.389-0.773-0.864-0.499
		l-6.187,3.572c-0.476,0.273-0.477,0.725-0.003,1.002l6.192,3.623c0.473,0.278,0.861,0.056,0.861-0.494V6.159h3.684
		c1.871,0,3.4,1.481,3.482,3.335c-0.082,1.852-1.611,3.336-3.482,3.336H3.572v2.991h18.389c3.469,0,6.303-2.741,6.467-6.173
		L28.409,8.979z"/>
</g>
</svg>
