<?xml version="1.0" encoding="iso-8859-1"?>
<!-- Generator: Adobe Illustrator 14.0.0, SVG Export Plug-In . SVG Version: 6.00 Build 43363)  -->
<!DOCTYPE svg PUBLIC "-//W3C//DTD SVG 1.1//EN" "http://www.w3.org/Graphics/SVG/1.1/DTD/svg11.dtd">
<svg version="1.1" id="icon-m-toolbar-oldest-on-top-layer"
	 xmlns="http://www.w3.org/2000/svg" xmlns:xlink="http://www.w3.org/1999/xlink" x="0px" y="0px" width="32px" height="32px"
	 viewBox="0 0 32 32" style="enable-background:new 0 0 32 32;" xml:space="preserve">
<g id="icon-m-toolbar-oldest-on-top_1_">
	<rect style="fill:none;" width="32" height="32"/>
	<path style="fill:#FFFFFF;" d="M19.573,3.226h-0.734V1.117c0-0.55-0.389-0.774-0.864-0.5l-6.195,3.577
		c-0.476,0.274-0.477,0.726-0.003,1.005l6.201,3.627c0.474,0.277,0.861,0.055,0.861-0.494V6.221h0.734
		c4.681,0,8.488,3.809,8.488,8.489v5.306c0,4.682-3.808,8.488-8.488,8.488H3.906V31.5h15.667c6.333,0,11.485-5.152,11.485-11.484
		V14.71C31.059,8.377,25.906,3.226,19.573,3.226z"/>
	<rect x="3.905" y="20.682" style="fill:#FFFFFF;" width="18.601" height="2.992"/>
	<rect x="3.905" y="12.828" style="fill:#FFFFFF;" width="18.601" height="2.993"/>
</g>
</svg>
