<?xml version="1.0" encoding="iso-8859-1"?>
<!-- Generator: Adobe Illustrator 14.0.0, SVG Export Plug-In . SVG Version: 6.00 Build 43363)  -->
<!DOCTYPE svg PUBLIC "-//W3C//DTD SVG 1.1//EN" "http://www.w3.org/Graphics/SVG/1.1/DTD/svg11.dtd">
<svg version="1.1" id="icon-m-telephony-keyboard-layer"
	 xmlns="http://www.w3.org/2000/svg" xmlns:xlink="http://www.w3.org/1999/xlink" x="0px" y="0px" width="48px" height="48px"
	 viewBox="0 0 48 48" style="enable-background:new 0 0 48 48;" xml:space="preserve">
<g id="icon-m-telephony-keyboard">
	<rect style="fill:none;" width="48" height="48"/>
	<path style="fill:#333333;" d="M44.878,10.451H3.121c-1.656,0-3.004,1.354-3.004,3.014v21.073c0,1.661,1.348,3.011,3.001,3.011
		h41.76c1.657,0,3-1.35,3.006-3.011V13.465C47.884,11.805,46.539,10.451,44.878,10.451z M32.293,14.357h4.646v4.646h-4.646V14.357z
		 M33.47,21.327v4.646h-4.646v-4.646H33.47z M25.325,14.357h4.646v4.646h-4.646V14.357z M26.403,21.327v4.646h-4.646v-4.646H26.403z
		 M18.26,14.357h4.646v4.646H18.26V14.357z M19.244,21.327v4.646h-4.646v-4.646H19.244z M11.099,14.357h4.646v4.646h-4.646V14.357z
		 M4.035,14.357h4.646v4.646H4.035V14.357z M7.534,21.327h4.646v4.646H7.534V21.327z M38.168,33.811H9.976v-4.646h28.192V33.811z
		 M40.438,25.973h-4.646v-4.646h4.646V25.973z M44.002,19.004h-4.646v-4.646h4.646V19.004z"/>
</g>
</svg>
