<?xml version="1.0" encoding="iso-8859-1"?>
<!-- Generator: Adobe Illustrator 14.0.0, SVG Export Plug-In . SVG Version: 6.00 Build 43363)  -->
<!DOCTYPE svg PUBLIC "-//W3C//DTD SVG 1.1//EN" "http://www.w3.org/Graphics/SVG/1.1/DTD/svg11.dtd">
<svg version="1.1" id="icon-m-energy-management-charging1-layer"
	 xmlns="http://www.w3.org/2000/svg" xmlns:xlink="http://www.w3.org/1999/xlink" x="0px" y="0px" width="48px" height="48px"
	 viewBox="0 0 48 48" style="enable-background:new 0 0 48 48;" xml:space="preserve">
<g id="icon-m-energy-management-charging1">
	<rect style="fill:none;" width="48" height="48"/>
	<path style="fill:#333333;" d="M19.207,43.569H4.587c-0.752,0-1.372-0.618-1.372-1.37V10.697c0-0.752,0.619-1.371,1.372-1.371
		h17.829c0.753,0,1.372,0.619,1.372,1.371v9.535c0.995-0.766,2.069-1.432,3.212-1.979V6.541c0-0.756-0.616-1.371-1.369-1.371h-7.353
		V3.115c0-0.754-0.616-1.372-1.37-1.372h-6.814c-0.753,0-1.37,0.618-1.37,1.372V5.17H1.371C0.617,5.17,0,5.785,0,6.541v38.344
		c0,0.755,0.617,1.373,1.371,1.373h19.762C20.412,45.424,19.767,44.525,19.207,43.569z"/>
	<path style="fill:#333333;" d="M16.745,34.5c0-0.037,0.002-0.073,0.002-0.11H5.802v6.334h12.053
		C17.138,38.783,16.745,36.686,16.745,34.5z"/>
	<path style="fill:#333333;" d="M40.611,37.082v2.758c-0.002,0.922-0.972,1.675-2.154,1.672l-5.836-0.024l0.012-3.048l-5.943-0.023
		c-0.314,0-0.57-0.257-0.569-0.574l0.005-1.047c0-0.312,0.259-0.567,0.572-0.567l5.948,0.021l0.008-3.531l-5.942-0.012
		c-0.315,0-0.568-0.258-0.568-0.572l0.002-1.047c0.002-0.316,0.26-0.571,0.574-0.57l5.943,0.012l0.012-3.04l5.836,0.007
		c1.183,0.004,2.145,0.764,2.143,1.688l-0.01,2.772L48,31.971C46.815,25.726,41.336,21,34.745,21c-7.456,0-13.5,6.045-13.5,13.5
		S27.289,48,34.745,48c6.571,0,12.041-4.699,13.247-10.918H40.611z"/>
</g>
</svg>
