<?xml version="1.0" encoding="iso-8859-1"?>
<!-- Generator: Adobe Illustrator 14.0.0, SVG Export Plug-In . SVG Version: 6.00 Build 43363)  -->
<!DOCTYPE svg PUBLIC "-//W3C//DTD SVG 1.1//EN" "http://www.w3.org/Graphics/SVG/1.1/DTD/svg11.dtd">
<svg version="1.1" id="icon-m-camera-exposure-minus2-layer"
	 xmlns="http://www.w3.org/2000/svg" xmlns:xlink="http://www.w3.org/1999/xlink" x="0px" y="0px" width="32px" height="32px"
	 viewBox="0 0 32 32" style="enable-background:new 0 0 32 32;" xml:space="preserve">
<g id="icon-m-camera-exposure-minus2">
	<g>
		<rect style="fill:none;" width="32" height="32"/>
	</g>
	<g>
		<path style="fill:#FFFFFF;" d="M14.04,18.024H9.667V15.87h4.374V18.024z"/>
		<path style="fill:#FFFFFF;" d="M22.334,21.961H14.85v-1.037c0-2.479,1.507-3.904,3.013-5.167c1.021-0.858,1.701-1.475,1.701-2.478
			c0-1.086-0.535-1.686-1.814-1.686c-0.908,0-1.717,0.26-2.495,0.535v-1.604c1.037-0.309,2.09-0.486,3.159-0.486
			c2.365,0,3.838,0.955,3.838,3.143c0,1.749-0.955,2.688-2.332,3.855c-1.457,1.23-2.413,2.089-2.526,3.369h4.94V21.961z"/>
	</g>
</g>
</svg>
