<?xml version="1.0" encoding="iso-8859-1"?>
<!-- Generator: Adobe Illustrator 14.0.0, SVG Export Plug-In . SVG Version: 6.00 Build 43363)  -->
<!DOCTYPE svg PUBLIC "-//W3C//DTD SVG 1.1//EN" "http://www.w3.org/Graphics/SVG/1.1/DTD/svg11.dtd">
<svg version="1.1" id="icon-m-telephony-call-initiating-layer"
	 xmlns="http://www.w3.org/2000/svg" xmlns:xlink="http://www.w3.org/1999/xlink" x="0px" y="0px" width="48px" height="48px"
	 viewBox="0 0 48 48" style="enable-background:new 0 0 48 48;" xml:space="preserve">
<g id="icon-m-telephony-call-initiating_2_">
	<rect style="fill:none;" width="48" height="48"/>
	<g>
		<path style="fill:#333333;" d="M36.288,9.84c2.856,0,6.415,1.988,7.813,3.454l-8.047,5.954c-1.046-1.313-3.283-3.705-5.696-3.705
			c-0.688,0-1.329,0.184-1.91,0.549c-1.706,1.08-10.852,10.21-11.938,11.92c-1.917,3.041,1.576,6.315,3.171,7.587l-5.956,8.017
			c-1.817-1.714-4.2-6.711-3.114-9.559c3.183-8.338,17.019-20.61,24.02-23.898C35.081,9.947,35.639,9.84,36.288,9.84 M36.288,7.84
			c-0.898,0-1.752,0.154-2.507,0.508c-7.24,3.4-21.619,16.039-25.039,24.996c-1.497,3.924,1.566,10.127,3.985,12.053
			c-0.001,0.006,0.545,0.461,1.185,0.461c0.327,0,0.678-0.119,0.993-0.477l6.521-8.777c0.444-0.568,0.88-1.314-0.019-2.205
			c0,0-4.513-3.246-3.206-5.32c0.912-1.436,9.879-10.388,11.316-11.297c0.265-0.166,0.548-0.239,0.841-0.239
			c2.016,0,4.497,3.43,4.497,3.43c0.382,0.38,0.736,0.519,1.061,0.519c0.439,0,0.823-0.253,1.15-0.505l8.805-6.515
			c1.061-0.941,0.019-2.18,0.012-2.18C44.327,10.37,39.936,7.84,36.288,7.84L36.288,7.84z"/>
	</g>
</g>
</svg>
