<?xml version="1.0" encoding="iso-8859-1"?>
<!-- Generator: Adobe Illustrator 14.0.0, SVG Export Plug-In . SVG Version: 6.00 Build 43363)  -->
<!DOCTYPE svg PUBLIC "-//W3C//DTD SVG 1.1//EN" "http://www.w3.org/Graphics/SVG/1.1/DTD/svg11.dtd">
<svg version="1.1" id="icon-s-transfer-error-layer"
	 xmlns="http://www.w3.org/2000/svg" xmlns:xlink="http://www.w3.org/1999/xlink" x="0px" y="0px" width="18px" height="18px"
	 viewBox="0 0 18 18" style="enable-background:new 0 0 18 18;" xml:space="preserve">
<g id="icon-s-transfer-error_1_">
	<rect style="fill:none;" width="18" height="18"/>
	<rect x="7.593" y="4.075" style="fill:#333333;" width="2.814" height="5.628"/>
	<path style="fill:#333333;" d="M9,13.925c-0.703,0-1.407-0.703-1.407-1.407c0-0.678,0.704-1.407,1.407-1.407
		c0.704,0,1.407,0.704,1.407,1.407C10.407,13.222,9.704,13.925,9,13.925z"/>
	<path style="fill:#333333;" d="M9,0.281C4.192,0.281,0.281,4.192,0.281,9S4.192,17.719,9,17.719S17.719,13.808,17.719,9
		S13.808,0.281,9,0.281z M9,16.226c-3.983,0-7.224-3.242-7.224-7.226c0-3.982,3.241-7.225,7.224-7.225S16.225,5.018,16.225,9
		C16.225,12.983,12.983,16.226,9,16.226z"/>
</g>
</svg>
