<?xml version="1.0" encoding="iso-8859-1"?>
<!-- Generator: Adobe Illustrator 14.0.0, SVG Export Plug-In . SVG Version: 6.00 Build 43363)  -->
<!DOCTYPE svg PUBLIC "-//W3C//DTD SVG 1.1//EN" "http://www.w3.org/Graphics/SVG/1.1/DTD/svg11.dtd">
<svg version="1.1" id="icon-m-startup-help-layer" xmlns="http://www.w3.org/2000/svg" xmlns:xlink="http://www.w3.org/1999/xlink"
	 x="0px" y="0px" width="48px" height="48px" viewBox="0 0 48 48" style="enable-background:new 0 0 48 48;" xml:space="preserve">
<g id="icon-m-startup-help_1_">
	<rect style="fill:none;" width="48" height="48"/>
	<path style="fill:#333333;" d="M24.001,0.75C11.16,0.75,0.75,11.168,0.75,24.014c0,12.827,10.41,23.236,23.251,23.236
		c12.831,0,23.249-10.409,23.249-23.236C47.25,11.168,36.832,0.75,24.001,0.75z M23.255,39.75c-2.228,0-4.003-1.772-4.003-4
		c0-2.227,1.775-4.043,4.003-4.043c2.229,0,4.049,1.816,4.049,4.043C27.304,37.978,25.484,39.75,23.255,39.75z M29.237,23.025
		c-1.993,1.868-2.848,2.844-2.848,4.511v1.668h-6.973v-1.952c0-2.805,1.383-4.473,3.499-6.424c1.545-1.422,2.846-2.641,2.846-4.551
		c0-2.358-1.546-3.617-4.11-3.617c-1.38,0-3.252,0.324-5.084,0.813V9.571c1.912-0.446,4.9-0.813,7.055-0.813
		c5.209,0,9.644,1.746,9.644,7.193C33.267,19.326,31.19,21.155,29.237,23.025z"/>
</g>
</svg>
