<?xml version="1.0" encoding="iso-8859-1"?>
<!-- Generator: Adobe Illustrator 14.0.0, SVG Export Plug-In . SVG Version: 6.00 Build 43363)  -->
<!DOCTYPE svg PUBLIC "-//W3C//DTD SVG 1.1//EN" "http://www.w3.org/Graphics/SVG/1.1/DTD/svg11.dtd">
<svg version="1.1" id="icon-m-common-locked-layer" xmlns="http://www.w3.org/2000/svg" xmlns:xlink="http://www.w3.org/1999/xlink"
	 x="0px" y="0px" width="48px" height="48px" viewBox="0 0 48 48" style="enable-background:new 0 0 48 48;" xml:space="preserve">
<g id="icon-m-common-locked">
	<rect style="fill:none;" width="48" height="48"/>
	<path style="fill:#333333;" d="M37.875,20.268h-1.869C36.004,17.967,36,15.336,36,15.266c0-6.568-5.371-11.889-12-11.891
		c-6.629,0.002-11.999,5.322-12.001,11.891c0,0.071-0.003,2.682-0.005,5.002h-1.869c-0.956,0-1.735,0.756-1.735,1.683v20.987
		c0,0.926,0.779,1.688,1.735,1.688h27.75c0.953,0,1.735-0.756,1.735-1.688V21.95C39.609,21.023,38.828,20.268,37.875,20.268z
		 M15.669,15.266c0.008-4.559,3.73-8.25,8.331-8.255c4.601,0.005,8.324,3.696,8.332,8.255c-0.001,0.07,0.003,2.701,0.005,5.002
		H15.678C15.673,17.947,15.669,15.337,15.669,15.266z M26.384,32.227v7.688h-4.603v-7.589c-1.277-0.759-2.137-2.149-2.137-3.743
		c0-2.406,1.95-4.356,4.356-4.356c2.405,0,4.356,1.95,4.356,4.356C28.356,30.107,27.57,31.448,26.384,32.227z"/>
</g>
</svg>
