<?xml version="1.0" encoding="iso-8859-1"?>
<!-- Generator: Adobe Illustrator 14.0.0, SVG Export Plug-In . SVG Version: 6.00 Build 43363)  -->
<!DOCTYPE svg PUBLIC "-//W3C//DTD SVG 1.1//EN" "http://www.w3.org/Graphics/SVG/1.1/DTD/svg11.dtd">
<svg version="1.1" id="icon-m-content-pending-layer"
	 xmlns="http://www.w3.org/2000/svg" xmlns:xlink="http://www.w3.org/1999/xlink" x="0px" y="0px" width="48px" height="48px"
	 viewBox="0 0 48 48" style="enable-background:new 0 0 48 48;" xml:space="preserve">
<g id="icon-m-content-pending">
	<rect style="fill:none;" width="48" height="48"/>
	<path style="fill:#333333;" d="M23.588,1.145c-12.83,0-23.246,10.41-23.246,23.234c0,12.846,10.416,23.265,23.246,23.265
		c12.843,0,23.253-10.419,23.253-23.265C46.842,11.555,36.432,1.145,23.588,1.145z M27.196,26.73c2.442,1.929,3.97,5.686,3.97,9.788
		H16.02c0-3.849,1.382-7.464,3.616-9.479v-0.006l0.115-0.111c0.923-0.783,1.393-1.602,1.396-2.435
		c0.005-1.181-0.901-2.214-1.663-2.875c-2.173-2.073-3.463-5.563-3.463-9.344h15.146c0,4.101-1.526,7.856-3.982,9.802
		c-0.529,0.551-1.189,1.447-1.168,2.45C26.033,25.273,26.43,26.018,27.196,26.73z"/>
	<path style="fill:#333333;" d="M25.377,29.21c-0.38-0.341-0.577-0.695-0.584-1.054c-0.001-0.021,0.007-0.04,0.008-0.061h-2.428
		c0.001,0.015,0.009,0.029,0.009,0.045c-0.002,0.398-0.235,0.787-0.691,1.161l-0.057,0.052v0.004
		c-1.106,0.961-1.79,2.684-1.79,4.521h7.5C27.343,31.921,26.586,30.13,25.377,29.21z"/>
</g>
</svg>
