<?xml version="1.0" encoding="iso-8859-1"?>
<!-- Generator: Adobe Illustrator 14.0.0, SVG Export Plug-In . SVG Version: 6.00 Build 43363)  -->
<!DOCTYPE svg PUBLIC "-//W3C//DTD SVG 1.1//EN" "http://www.w3.org/Graphics/SVG/1.1/DTD/svg11.dtd">
<svg version="1.1" id="icon-s-status-4g-layer" xmlns="http://www.w3.org/2000/svg" xmlns:xlink="http://www.w3.org/1999/xlink"
	 x="0px" y="0px" width="31px" height="18px" viewBox="0 0 31 18" style="enable-background:new 0 0 31 18;" xml:space="preserve">
<g id="icon-s-status-4g">
	<rect style="fill:none;" width="31" height="18"/>
	<path style="fill:#FFFFFF;" d="M13.08,14.082h-1.814v3.725H7.37v-3.725H0.476v-2.227L7.564,0.121h3.702v11.638h1.814V14.082z
		 M7.37,11.759V4.645l-4.185,7.114H7.37z"/>
	<path style="fill:#FFFFFF;" d="M27.694,16.258C27.017,17.299,25.661,18,24.161,18c-5.273,0-6.072-4.668-6.072-9.193
		C18.089,4.113,19.88,0,25.831,0c1.282,0,2.564,0.146,3.75,0.46v2.299c-1.137-0.315-2.178-0.436-3.387-0.436
		c-3.218,0-3.968,3.267-3.968,6.435c0,3.557,0.146,6.919,2.589,6.919c1.233,0,1.814-1.015,1.814-2.419v-2.686h-2.033V8.25h5.928
		v9.557h-2.347L27.694,16.258z"/>
</g>
</svg>
