<?xml version="1.0" encoding="iso-8859-1"?>
<!-- Generator: Adobe Illustrator 14.0.0, SVG Export Plug-In . SVG Version: 6.00 Build 43363)  -->
<!DOCTYPE svg PUBLIC "-//W3C//DTD SVG 1.1//EN" "http://www.w3.org/Graphics/SVG/1.1/DTD/svg11.dtd">
<svg version="1.1" id="icon-m-email-directory-spam-layer"
	 xmlns="http://www.w3.org/2000/svg" xmlns:xlink="http://www.w3.org/1999/xlink" x="0px" y="0px" width="48px" height="48px"
	 viewBox="0 0 48 48" style="enable-background:new 0 0 48 48;" xml:space="preserve">
<g id="icon-m-email-directory-spam_2_">
	<rect style="fill:none;" width="48" height="48"/>
	<path style="fill:#333333;" d="M26.977,3.824c0-0.825-0.675-1.5-1.5-1.5H1.515c-0.825,0-1.5,0.675-1.5,1.5l0,5.502h26.962V3.824z"
		/>
	<polygon style="fill:#333333;" points="26.33,31.645 29.971,31.645 30.573,28.469 26.932,28.469 	"/>
	<path style="fill:#333333;" d="M46.5,12.438H0.015l-0.002,31.74c0,0.826,0.674,1.5,1.5,1.5H46.5c0.824,0,1.5-0.674,1.5-1.5v-30.24
		C48,13.112,47.324,12.438,46.5,12.438z M13.725,17.818c1.631,0.002,2.936,1.137,2.939,2.548c0,0-0.967,9.204-1.25,9.688
		c-0.276,0.492-0.878,0.832-1.689,0.818c-0.017,0-0.031,0-0.047,0c-0.788,0-1.368-0.338-1.626-0.822
		c-0.272-0.484-1.267-9.705-1.267-9.705C10.789,18.955,12.093,17.82,13.725,17.818z M13.687,39.75
		c-1.771-0.002-3.184-1.439-3.187-3.191c0.003-1.752,1.416-3.189,3.187-3.191c1.769,0.002,3.184,1.439,3.188,3.191
		C16.87,38.311,15.458,39.748,13.687,39.75z M38.08,28.469h-3.459l-0.604,3.176h2.912c0.709,0,1.268,0.586,1.269,1.295
		c-0.001,0.709-0.56,1.295-1.269,1.297h-3.403l-0.671,3.543c-0.184,0.963-1.009,1.645-1.947,1.645c-0.128,0-0.256-0.012-0.385-0.039
		c-0.953-0.191-1.607-1.043-1.605-1.992c-0.002-0.131,0.014-0.262,0.038-0.389l0.524-2.768h-3.642l-0.671,3.541
		c-0.185,0.965-1.01,1.646-1.95,1.646c-0.125,0-0.254-0.012-0.383-0.039c-0.955-0.191-1.605-1.043-1.605-1.992
		c0-0.131,0.013-0.262,0.038-0.389l0.524-2.768h-2.967c-0.709-0.002-1.267-0.588-1.269-1.297c0.001-0.707,0.56-1.295,1.269-1.295
		l3.458-0.002l0.601-3.174h-2.91c-0.708-0.002-1.266-0.588-1.267-1.297c0.001-0.707,0.559-1.295,1.267-1.297h3.4l0.602-3.172
		c0.183-0.967,1.01-1.647,1.947-1.647c0.128,0,0.257,0.013,0.386,0.04c0.951,0.191,1.604,1.043,1.604,1.994
		c0,0.127-0.011,0.257-0.037,0.391l-0.453,2.395h3.641l0.602-3.17c0.183-0.969,1.01-1.649,1.946-1.649
		c0.13,0,0.259,0.013,0.386,0.04c0.953,0.191,1.605,1.043,1.605,1.994c0,0.127-0.013,0.257-0.036,0.391l-0.454,2.395h2.969
		c0.707,0.002,1.268,0.588,1.269,1.297C39.348,27.881,38.787,28.467,38.08,28.469z"/>
</g>
</svg>
