<?xml version="1.0" encoding="iso-8859-1"?>
<!-- Generator: Adobe Illustrator 14.0.0, SVG Export Plug-In . SVG Version: 6.00 Build 43363)  -->
<!DOCTYPE svg PUBLIC "-//W3C//DTD SVG 1.1//EN" "http://www.w3.org/Graphics/SVG/1.1/DTD/svg11.dtd">
<svg version="1.1" id="icon-m-energy-management-battery7-layer"
	 xmlns="http://www.w3.org/2000/svg" xmlns:xlink="http://www.w3.org/1999/xlink" x="0px" y="0px" width="48px" height="48px"
	 viewBox="0 0 48 48" style="enable-background:new 0 0 48 48;" xml:space="preserve">
<g id="icon-m-energy-management-battery7">
	<rect style="fill:none;" width="48" height="48"/>
	<path style="fill:#333333;" d="M19.089,2.532v2.113h-7.555c-0.775,0-1.409,0.636-1.409,1.409v39.41
		c0,0.775,0.634,1.411,1.409,1.411h24.933c0.773,0,1.408-0.636,1.408-1.411V6.055c0-0.773-0.635-1.409-1.408-1.409H28.91V2.532
		c0-0.774-0.635-1.409-1.408-1.409H20.5C19.725,1.123,19.089,1.758,19.089,2.532z M33.164,8.916c0.774,0,1.409,0.637,1.409,1.411
		v32.377c0,0.774-0.635,1.409-1.409,1.409H14.839c-0.775,0-1.409-0.635-1.409-1.409V10.327c0-0.774,0.634-1.411,1.409-1.411H33.164z
		"/>
	<rect x="15.933" y="14.378" style="fill:#333333;" width="16.137" height="27.211"/>
</g>
</svg>
