<?xml version="1.0" encoding="iso-8859-1"?>
<!-- Generator: Adobe Illustrator 14.0.0, SVG Export Plug-In . SVG Version: 6.00 Build 43363)  -->
<!DOCTYPE svg PUBLIC "-//W3C//DTD SVG 1.1//EN" "http://www.w3.org/Graphics/SVG/1.1/DTD/svg11.dtd">
<svg version="1.1" id="icon-m-camera-face-detection-screen-layer"
	 xmlns="http://www.w3.org/2000/svg" xmlns:xlink="http://www.w3.org/1999/xlink" x="0px" y="0px" width="32px" height="32px"
	 viewBox="0 0 32 32" style="enable-background:new 0 0 32 32;" xml:space="preserve">
<g id="icon-m-camera-face-detection-screen">
	<rect style="fill:none;" width="32" height="32"/>
	<path style="fill:#FFFFFF;" d="M8.5,29H3V2.95L8.5,3V0.5H3C1.625,0.5,0.5,1.625,0.5,3v26c0,1.375,1.125,2.5,2.5,2.5h5.5V29z"/>
	<path style="fill:#FFFFFF;" d="M23.5,3L29,2.95V29h-5.5v2.5H29c1.375,0,2.5-1.125,2.5-2.5V3c0-1.375-1.125-2.5-2.5-2.5h-5.5V3z"/>
	<path style="fill:#FFFFFF;" d="M6.5,24h19c0-2.5-3.703-4.206-7.022-4.985c1.341-1.351,2.022-3.6,2.022-5.559
		C20.5,10.402,18.65,8,16,8c-2.65,0-5,2.402-5,5.456c0,1.959,1.002,4.208,2.341,5.559C10.023,19.794,6.5,21.558,6.5,24z"/>
</g>
</svg>
