<?xml version="1.0" encoding="iso-8859-1"?>
<!-- Generator: Adobe Illustrator 14.0.0, SVG Export Plug-In . SVG Version: 6.00 Build 43363)  -->
<!DOCTYPE svg PUBLIC "-//W3C//DTD SVG 1.1//EN" "http://www.w3.org/Graphics/SVG/1.1/DTD/svg11.dtd">
<svg version="1.1" id="icon-m-common-presence-away-layer"
	 xmlns="http://www.w3.org/2000/svg" xmlns:xlink="http://www.w3.org/1999/xlink" x="0px" y="0px" width="48px" height="48px"
	 viewBox="0 0 48 48" style="enable-background:new 0 0 48 48;" xml:space="preserve">
<g id="icon-m-common-presence-away">
	<rect style="fill:none;" width="48" height="48"/>
	<path style="fill:#333333;" d="M24.004,0.75C11.161,0.75,0.75,11.17,0.75,24.014c0,12.825,10.41,23.236,23.253,23.236
		c12.83,0,23.246-10.411,23.246-23.236C47.25,11.17,36.834,0.75,24.004,0.75z M34.822,31.045H23.931
		c-0.843,0-1.621-0.26-2.262-0.691c-1.17-0.658-1.962-1.863-1.962-3.262v-16.25c0-2.097,1.765-3.793,3.942-3.793
		c2.178,0,3.944,1.696,3.944,3.793v12.619h7.23c2.178,0,3.942,1.698,3.942,3.793C38.765,29.35,37,31.045,34.822,31.045z"/>
</g>
</svg>
