<?xml version="1.0" encoding="iso-8859-1"?>
<!-- Generator: Adobe Illustrator 14.0.0, SVG Export Plug-In . SVG Version: 6.00 Build 43363)  -->
<!DOCTYPE svg PUBLIC "-//W3C//DTD SVG 1.1//EN" "http://www.w3.org/Graphics/SVG/1.1/DTD/svg11.dtd">
<svg version="1.1" id="icon-m-common-presence-busy-layer"
	 xmlns="http://www.w3.org/2000/svg" xmlns:xlink="http://www.w3.org/1999/xlink" x="0px" y="0px" width="48px" height="48px"
	 viewBox="0 0 48 48" style="enable-background:new 0 0 48 48;" xml:space="preserve">
<g id="icon-m-common-presence-busy">
	<rect style="fill:none;" width="48" height="48"/>
	<path style="fill:#333333;" d="M24.002,0.75C11.163,0.75,0.75,11.17,0.75,24.014c0,12.827,10.412,23.236,23.252,23.236
		c12.832,0,23.248-10.409,23.248-23.236C47.25,11.17,36.834,0.75,24.002,0.75z M36.851,25.553c0,1.432-1.171,2.601-2.603,2.601
		H13.952c-1.431,0-2.603-1.169-2.603-2.601v-3.049c0-1.431,1.172-2.6,2.603-2.6h20.296c1.432,0,2.603,1.169,2.603,2.6V25.553z"/>
</g>
</svg>
