<?xml version="1.0" encoding="iso-8859-1"?>
<!-- Generator: Adobe Illustrator 14.0.0, SVG Export Plug-In . SVG Version: 6.00 Build 43363)  -->
<!DOCTYPE svg PUBLIC "-//W3C//DTD SVG 1.1//EN" "http://www.w3.org/Graphics/SVG/1.1/DTD/svg11.dtd">
<svg version="1.1" id="icon-m-content-podcast-video-layer"
	 xmlns="http://www.w3.org/2000/svg" xmlns:xlink="http://www.w3.org/1999/xlink" x="0px" y="0px" width="48px" height="48px"
	 viewBox="0 0 48 48" style="enable-background:new 0 0 48 48;" xml:space="preserve">
<g id="icon-m-content-podcast-video_2_">
	<rect style="fill:none;" width="48" height="48"/>
	<path style="fill:#333333;" d="M23.99,41.729c5.171,0,9.362-4.191,9.362-9.362s-4.191-9.363-9.362-9.363s-9.363,4.192-9.363,9.363
		S18.819,41.729,23.99,41.729z M23.99,28.763c1.988,0,3.603,1.616,3.603,3.603s-1.614,3.604-3.603,3.604
		c-1.987,0-3.604-1.617-3.604-3.604S22.003,28.763,23.99,28.763z"/>
	<path style="fill:#333333;" d="M31.281,42.799c-2.031,1.532-4.556,2.443-7.291,2.443s-5.262-0.911-7.292-2.443h-0.001L13.514,48
		h20.973l-3.172-5.182C31.304,42.812,31.293,42.805,31.281,42.799z"/>
	<path style="fill:#333333;" d="M42.75,13.769c-0.334,0-0.668-0.135-0.911-0.399c-0.073-0.079-7.378-7.888-17.241-7.895
		l-0.892,0.003C13.661,5.324,6.235,13.289,6.161,13.369c-0.463,0.502-1.246,0.535-1.748,0.073c-0.503-0.462-0.537-1.243-0.075-1.746
		C4.666,11.337,12.436,3,23.411,3c0.104,0,0.207,0,0.311,0.002L24.596,3c10.976,0.008,18.741,8.341,19.066,8.695
		c0.461,0.504,0.428,1.285-0.075,1.747C43.35,13.661,43.049,13.769,42.75,13.769L42.75,13.769z"/>
	<path style="fill:#333333;" d="M11.624,21.5c-0.265,0-0.533-0.085-0.758-0.261c-0.54-0.419-0.637-1.197-0.217-1.737
		c4.55-5.851,10.614-6.495,13.01-6.502l0.881,0.002c2.38,0.045,8.353,0.767,12.812,6.5c0.42,0.541,0.322,1.318-0.217,1.737
		c-0.54,0.42-1.317,0.322-1.736-0.217c-3.805-4.893-8.88-5.508-10.885-5.546l-0.855-0.001c-2.027,0.005-7.175,0.556-11.057,5.547
		C12.358,21.336,11.993,21.5,11.624,21.5L11.624,21.5z"/>
</g>
</svg>
