<?xml version="1.0" encoding="iso-8859-1"?>
<!-- Generator: Adobe Illustrator 14.0.0, SVG Export Plug-In . SVG Version: 6.00 Build 43363)  -->
<!DOCTYPE svg PUBLIC "-//W3C//DTD SVG 1.1//EN" "http://www.w3.org/Graphics/SVG/1.1/DTD/svg11.dtd">
<svg version="1.1" id="icon-m-common-cellular-layer"
	 xmlns="http://www.w3.org/2000/svg" xmlns:xlink="http://www.w3.org/1999/xlink" x="0px" y="0px" width="48px" height="48px"
	 viewBox="0 0 48 48" style="enable-background:new 0 0 48 48;" xml:space="preserve">
<g id="icon-m-common-cellular">
	<rect style="fill:none;" width="48" height="48"/>
	<path style="fill:#333333;" d="M32.099,10.07c-6.288,2.954-18.775,13.928-21.744,21.707c-1.3,3.406,1.36,8.795,3.46,10.467
		c-0.001,0.007,1.081,0.906,1.891-0.014l5.663-7.623c0.386-0.493,0.764-1.142-0.016-1.914c0,0-3.919-2.819-2.784-4.621
		c0.792-1.246,8.58-9.021,9.827-9.81c1.808-1.137,4.636,2.771,4.636,2.771c0.78,0.777,1.426,0.393,1.92,0.013l7.646-5.657
		c0.921-0.818,0.017-1.893,0.011-1.893C40.923,11.416,35.414,8.516,32.099,10.07z"/>
</g>
</svg>
