<?xml version="1.0" encoding="iso-8859-1"?>
<!-- Generator: Adobe Illustrator 14.0.0, SVG Export Plug-In . SVG Version: 6.00 Build 43363)  -->
<!DOCTYPE svg PUBLIC "-//W3C//DTD SVG 1.1//EN" "http://www.w3.org/Graphics/SVG/1.1/DTD/svg11.dtd">
<svg version="1.1" id="icon-m-common-wlan-layer" xmlns="http://www.w3.org/2000/svg" xmlns:xlink="http://www.w3.org/1999/xlink"
	 x="0px" y="0px" width="47px" height="36px" viewBox="0 0 47 36" style="enable-background:new 0 0 47 36;" xml:space="preserve">
<g id="icon-m-common-wlan_1_">
	<g>
		<g id="_x34_8_local_4_">
			<circle id="local_5_" style="fill:#333333;" cx="23.387" cy="31.461" r="4.5"/>
		</g>
		<g>
			<path style="fill:#333333;" d="M33.468,22.471c-2.558-2.742-6.188-4.467-10.222-4.469c-3.966,0.002-7.545,1.668-10.095,4.328
				c0,0-0.312,0.33-0.312,0.842c0,0.701,0.569,1.268,1.268,1.268c0.402,0,0.746-0.199,0.978-0.492
				c2.086-2.113,4.967-3.439,8.158-3.443h0.005c3.307,0.004,6.28,1.428,8.381,3.674c0.23,0.33,0.593,0.561,1.023,0.561
				c0.701,0,1.269-0.568,1.269-1.27C33.921,23.074,33.468,22.471,33.468,22.471z"/>
			<path style="fill:#333333;" d="M39.499,15.797c-4.167-4.178-9.9-6.793-16.251-6.795c-6.447,0.002-12.275,2.679-16.457,6.968
				c0,0-0.438,0.358-0.438,0.962c0,0.699,0.568,1.268,1.268,1.268c0.384,0,0.716-0.18,0.949-0.45v0.001
				c3.729-3.836,8.928-6.236,14.675-6.246h0.004c5.815,0.01,11.063,2.471,14.8,6.385c0,0,0.332,0.311,0.905,0.311
				c0.7,0,1.268-0.568,1.268-1.268C40.222,16.429,39.91,16.117,39.499,15.797z"/>
			<path style="fill:#333333;" d="M46.198,9.74l0.001-0.002c-0.002-0.003-0.004-0.003-0.006-0.006
				c-0.052-0.062-0.107-0.115-0.17-0.166C40.215,3.672,32.152,0.002,23.245,0C14.322,0.004,6.244,3.682,0.435,9.594
				C0.172,9.828,0,10.156,0,10.534c0,0.7,0.568,1.268,1.269,1.268c0.623,0,0.945-0.408,0.945-0.408
				C7.572,5.93,15.018,2.517,23.242,2.502h0.004c8.294,0.017,15.791,3.486,21.159,9.031c0,0,0.395,0.269,0.827,0.269
				c0.7,0,1.268-0.567,1.268-1.268C46.5,10.229,46.379,9.959,46.198,9.74z"/>
		</g>
	</g>
</g>
</svg>
