<?xml version="1.0" encoding="iso-8859-1"?>
<!-- Generator: Adobe Illustrator 14.0.0, SVG Export Plug-In . SVG Version: 6.00 Build 43363)  -->
<!DOCTYPE svg PUBLIC "-//W3C//DTD SVG 1.1//EN" "http://www.w3.org/Graphics/SVG/1.1/DTD/svg11.dtd">
<svg version="1.1" id="icon-m-status-menu-transfer-active-layer"
	 xmlns="http://www.w3.org/2000/svg" xmlns:xlink="http://www.w3.org/1999/xlink" x="0px" y="0px" width="48px" height="48px"
	 viewBox="0 0 48 48" style="enable-background:new 0 0 48 48;" xml:space="preserve">
<g id="icon-m-status-menu-transfer-active">
	<rect style="fill:none;" width="48" height="48"/>
	<circle style="fill:#010101;" cx="24" cy="23.999" r="23.5"/>
	<path style="fill:#FFFFFF;" d="M26.754,21.41h-9.229l-0.003,5.037c0,0.398-0.473,0.902-0.981,0.443l-7.347-7.605
		c-0.259-0.236-0.256-0.639-0.004-0.871l7.351-7.645c0.431-0.391,0.981-0.004,0.981,0.441v5.156h9.232c0.326,0,0.59,0.26,0.59,0.586
		v3.867C27.345,21.186,27.034,21.41,26.754,21.41z"/>
	<path style="fill:#FFFFFF;" d="M21.246,26.588h9.23l0.003-5.035c0-0.398,0.473-0.9,0.98-0.443l7.348,7.605
		c0.259,0.236,0.255,0.639,0.005,0.873l-7.353,7.643c-0.43,0.389-0.98,0.004-0.98-0.439v-5.158h-9.233
		c-0.326,0-0.589-0.262-0.589-0.586V27.18C20.655,26.812,20.967,26.588,21.246,26.588z"/>
</g>
</svg>
