<?xml version="1.0" encoding="iso-8859-1"?>
<!-- Generator: Adobe Illustrator 14.0.0, SVG Export Plug-In . SVG Version: 6.00 Build 43363)  -->
<!DOCTYPE svg PUBLIC "-//W3C//DTD SVG 1.1//EN" "http://www.w3.org/Graphics/SVG/1.1/DTD/svg11.dtd">
<svg version="1.1" id="icon-m-toolbar-headphones-layer"
	 xmlns="http://www.w3.org/2000/svg" xmlns:xlink="http://www.w3.org/1999/xlink" x="0px" y="0px" width="32px" height="32px"
	 viewBox="0 0 32 32" style="enable-background:new 0 0 32 32;" xml:space="preserve">
<g id="icon-m-toolbar-headphones_1_">
	<rect style="fill:none;" width="32" height="32"/>
	<g>
		<path style="fill:#FFFFFF;" d="M30,18c-0.013-0.002-0.75,0-1,0c-1,0-1,1-1,1v7c0,0,0,1,1,1c0,0,0.987,0.002,1,0c1,0,2-3,2-5
			C32,19.487,31,18,30,18z"/>
		<path style="fill:#FFFFFF;" d="M2,18c0.013-0.002,0.75,0,1,0c1,0,1,1,1,1v7c0,0,0,1-1,1c0,0-0.987,0.002-1,0c-1,0-2-3-2-5
			C0,19.487,1,18,2,18z"/>
		<path style="fill:#FFFFFF;" d="M25.008,27H27V17c0.01-5.902-4-12-11.007-12C9,5,5,10.982,5,17l0,0v10h2V17c0-5,3-10,8.993-10
			C22,7,25,12,25,17L25.008,27z"/>
	</g>
</g>
</svg>
