<?xml version="1.0" encoding="iso-8859-1"?>
<!-- Generator: Adobe Illustrator 14.0.0, SVG Export Plug-In . SVG Version: 6.00 Build 43363)  -->
<!DOCTYPE svg PUBLIC "-//W3C//DTD SVG 1.1//EN" "http://www.w3.org/Graphics/SVG/1.1/DTD/svg11.dtd">
<svg version="1.1" id="icon-m-quicklaunchbar-menu-open-layer"
	 xmlns="http://www.w3.org/2000/svg" xmlns:xlink="http://www.w3.org/1999/xlink" x="0px" y="0px" width="32px" height="32px"
	 viewBox="0 0 32 32" style="enable-background:new 0 0 32 32;" xml:space="preserve">
<g id="icon-m-quicklaunchbar-menu-open_1_">
	<rect style="fill:none;" width="32" height="32"/>
	<g>
		<g>
			<path style="fill:#FFFFFF;" d="M32,10c0,1.1-0.9,2-2,2h-8c-1.1,0-2-0.9-2-2V2.001c0-1.1,0.9-2,2-2h8c1.1,0,2,0.9,2,2V10z"/>
		</g>
		<g>
			<path style="fill:#FFFFFF;" d="M12,30c0,1.1-0.9,2-2,2H2c-1.1,0-2-0.9-2-2v-8c0-1.1,0.9-2,2-2h8c1.1,0,2,0.9,2,2V30z"/>
		</g>
		<g>
			<path style="fill:#FFFFFF;" d="M32,30c0,1.1-0.9,2-2,2h-8c-1.1,0-2-0.9-2-2v-8c0-1.1,0.9-2,2-2h8c1.1,0,2,0.9,2,2V30z"/>
		</g>
		<g>
			<path style="fill:#FFFFFF;" d="M12,10c0,1.1-0.9,2-2,2H2c-1.1,0-2-0.9-2-2V2c0-1.1,0.9-2,2-2h8c1.1,0,2,0.9,2,2V10z"/>
		</g>
	</g>
</g>
</svg>
