<?xml version="1.0" encoding="iso-8859-1"?>
<!-- Generator: Adobe Illustrator 14.0.0, SVG Export Plug-In . SVG Version: 6.00 Build 43363)  -->
<!DOCTYPE svg PUBLIC "-//W3C//DTD SVG 1.1//EN" "http://www.w3.org/Graphics/SVG/1.1/DTD/svg11.dtd">
<svg version="1.1" id="icon-m-bluetooth-video-audio-layer"
	 xmlns="http://www.w3.org/2000/svg" xmlns:xlink="http://www.w3.org/1999/xlink" x="0px" y="0px" width="48px" height="48px"
	 viewBox="0 0 48 48" style="enable-background:new 0 0 48 48;" xml:space="preserve">
<g id="icon-m-bluetooth-video-audio">
	<rect style="fill:none;" width="48" height="48"/>
	<path style="fill:#333333;" d="M3.799,21.001c0.019-0.002,1.37,0,1.37,0s0.684,0,0.684,0.685v11.329c0,0,0,0.685-0.684,0.685
		c0,0-1.352,0.002-1.37,0c-2.054,0-3.424-4.023-3.424-6.699S1.745,21.001,3.799,21.001z"/>
	<path style="fill:#333333;" d="M44.29,21.001c-0.019-0.002-1.37,0-1.37,0s-0.685,0-0.685,0.685v11.329c0,0,0,0.685,0.685,0.685
		c0,0,1.352,0.002,1.37,0c2.054,0,3.424-4.023,3.424-6.699S46.344,21.001,44.29,21.001z"/>
	<path style="fill:#333333;" d="M37.354,18.614v15.085h3.424V18.635l0,0C40.791,9.901,33.232,1.03,24.033,1.03
		c-9.199,0-16.811,8.701-16.811,17.604l0,0l0,0v15.064h3.424V18.614l0,0c0-6.828,6.342-13.922,13.387-13.922
		c7.044,0,13.32,7.094,13.308,13.922H37.354z"/>
</g>
</svg>
