<?xml version="1.0" encoding="iso-8859-1"?>
<!-- Generator: Adobe Illustrator 14.0.0, SVG Export Plug-In . SVG Version: 6.00 Build 43363)  -->
<!DOCTYPE svg PUBLIC "-//W3C//DTD SVG 1.1//EN" "http://www.w3.org/Graphics/SVG/1.1/DTD/svg11.dtd">
<svg version="1.1" id="icon-m-toolbar-directory-move-to-layer"
	 xmlns="http://www.w3.org/2000/svg" xmlns:xlink="http://www.w3.org/1999/xlink" x="0px" y="0px" width="32px" height="32px"
	 viewBox="0 0 32 32" style="enable-background:new 0 0 32 32;" xml:space="preserve">
<g id="icon-m-toolbar-directory-move-to">
	<rect style="fill:none;" width="32" height="32"/>
	<path style="fill:#FFFFFF;" d="M17.717,4.365c0-0.476-0.389-0.865-0.865-0.865H3.035c-0.476,0-0.864,0.39-0.864,0.865L2.17,7.538
		h15.547V4.365z"/>
	<path style="fill:#FFFFFF;" d="M28.975,9.331H24.3L13.865,19.705l2.14,2.141c0.307,0.307,0.203,0.565-0.231,0.574l-7.409-0.013
		l0.004-7.393c0.008-0.435,0.267-0.538,0.574-0.231l2.132,2.132l7.628-7.584H2.17c0,0-0.001,10.888-0.001,10.89v7.415
		c0,0.475,0.389,0.864,0.865,0.864h25.941c0.477,0,0.865-0.39,0.865-0.864V10.196C29.84,9.722,29.451,9.331,28.975,9.331z"/>
</g>
</svg>
