<?xml version="1.0" encoding="iso-8859-1"?>
<!-- Generator: Adobe Illustrator 14.0.0, SVG Export Plug-In . SVG Version: 6.00 Build 43363)  -->
<!DOCTYPE svg PUBLIC "-//W3C//DTD SVG 1.1//EN" "http://www.w3.org/Graphics/SVG/1.1/DTD/svg11.dtd">
<svg version="1.1" id="icon-m-common-contact-unknown-layer"
	 xmlns="http://www.w3.org/2000/svg" xmlns:xlink="http://www.w3.org/1999/xlink" x="0px" y="0px" width="48px" height="48px"
	 viewBox="0 0 48 48" style="enable-background:new 0 0 48 48;" xml:space="preserve">
<g id="icon-m-common-contact-unknown_1_">
	<rect style="fill:none;" width="48" height="48"/>
	<path style="fill:#333333;" d="M11.144,17.422c4.325,0,7.829-3.396,7.829-7.574c0.001-4.192-3.504-7.598-7.829-7.598
		c-4.33,0-7.834,3.405-7.834,7.598C3.31,14.025,6.813,17.422,11.144,17.422z"/>
	<path style="fill:#333333;" d="M16.5,34.5c0-3.9,1.25-7.514,3.368-10.463c-2.011-2.301-5.215-3.797-8.839-3.797
		C4.935,20.24,0,24.451,0,29.648V39.75h17.283C16.775,38.088,16.5,36.325,16.5,34.5z"/>
	<path style="fill:#333333;" d="M34.5,21C27.044,21,21,27.044,21,34.5C21,41.955,27.044,48,34.5,48C41.955,48,48,41.955,48,34.5
		C48,27.044,41.955,21,34.5,21z M33.504,44.809c-1.597,0-2.896-1.3-2.896-2.898c0-1.61,1.3-2.921,2.896-2.921
		c1.613,0,2.926,1.311,2.926,2.921C36.429,43.509,35.117,44.809,33.504,44.809z M37.577,33.461l-0.144,0.137
		c-1.203,1.131-1.551,1.574-1.551,2.343v1.496h-5.177v-1.668c0-1.974,1.067-3.119,2.256-4.213c0.957-0.883,1.544-1.469,1.544-2.36
		c0-1.105-0.66-1.666-1.961-1.666c-0.729,0-1.792,0.171-2.916,0.47L29,28.166v-3.385l0.387-0.09c1.25-0.29,3.074-0.5,4.338-0.5
		c4.047,0,6.275,1.708,6.275,4.81C40,31.151,38.713,32.378,37.577,33.461z"/>
</g>
</svg>
