<?xml version="1.0" encoding="iso-8859-1"?>
<!-- Generator: Adobe Illustrator 14.0.0, SVG Export Plug-In . SVG Version: 6.00 Build 43363)  -->
<!DOCTYPE svg PUBLIC "-//W3C//DTD SVG 1.1//EN" "http://www.w3.org/Graphics/SVG/1.1/DTD/svg11.dtd">
<svg version="1.1" id="icon-s-status-powersave4-layer"
	 xmlns="http://www.w3.org/2000/svg" xmlns:xlink="http://www.w3.org/1999/xlink" x="0px" y="0px" width="29px" height="18px"
	 viewBox="0 0 29 18" style="enable-background:new 0 0 29 18;" xml:space="preserve">
<g id="icon-s-status-powersave4">
	<rect style="fill:none;" width="29" height="18"/>
	<rect style="fill:none;" width="29" height="18"/>
	<g>
		<rect style="fill:none;" width="29" height="18"/>
		<path style="fill:#FFFFFF;" d="M27,11.9l2,0.1V5h-2V0H0v18h27V11.9z M2,1.9L25,2v14H2V1.9z"/>
	</g>
	<g>
		<path style="fill:#FFFFFF;" d="M10.622,9c0-1.781,1.228-3.265,2.878-3.683V4H4v10h9.5v-1.318C11.85,12.264,10.622,10.779,10.622,9
			z"/>
		<path style="fill:#FFFFFF;" d="M13.5,10.09V7.909C13.396,8.256,13.336,8.62,13.336,9S13.396,9.744,13.5,10.09z"/>
		<path style="fill:#FFFFFF;" d="M15.79,5.442c-0.422-0.162-0.877-0.254-1.357-0.254c-0.323,0-0.633,0.053-0.933,0.129v2.592
			C13.84,6.774,14.691,5.862,15.79,5.442z"/>
		<path style="fill:#FFFFFF;" d="M13.5,10.09v2.592c0.3,0.076,0.609,0.129,0.933,0.129c0.48,0,0.936-0.091,1.357-0.253
			C14.691,12.138,13.84,11.225,13.5,10.09z"/>
	</g>
</g>
</svg>
