<?xml version="1.0" encoding="iso-8859-1"?>
<!-- Generator: Adobe Illustrator 14.0.0, SVG Export Plug-In . SVG Version: 6.00 Build 43363)  -->
<!DOCTYPE svg PUBLIC "-//W3C//DTD SVG 1.1//EN" "http://www.w3.org/Graphics/SVG/1.1/DTD/svg11.dtd">
<svg version="1.1" id="icon-m-toolbar-mediacontrol-forward-layer"
	 xmlns="http://www.w3.org/2000/svg" xmlns:xlink="http://www.w3.org/1999/xlink" x="0px" y="0px" width="32px" height="32px"
	 viewBox="0 0 32 32" style="enable-background:new 0 0 32 32;" xml:space="preserve">
<g id="icon-m-toolbar-mediacontrol-forward_1_">
	<rect style="fill:none;" width="32" height="32"/>
	<g>
		<path style="fill:#FFFFFF;" d="M0,23.566c0,1.1,0.782,1.554,1.737,1.009l11.771-6.721c0.955-0.545,1.737-0.091,1.737,1.009v4.703
			c0,1.1,0.782,1.554,1.737,1.009l13.282-7.584c0.956-0.545,0.956-1.438,0-1.982L16.981,7.426c-0.955-0.545-1.737-0.091-1.737,1.009
			v4.701c0,1.1-0.782,1.554-1.737,1.009L1.737,7.426C0.782,6.881,0,7.335,0,8.435V23.566z"/>
	</g>
</g>
</svg>
