<?xml version="1.0" encoding="iso-8859-1"?>
<!-- Generator: Adobe Illustrator 14.0.0, SVG Export Plug-In . SVG Version: 6.00 Build 43363)  -->
<!DOCTYPE svg PUBLIC "-//W3C//DTD SVG 1.1//EN" "http://www.w3.org/Graphics/SVG/1.1/DTD/svg11.dtd">
<svg version="1.1" id="icon-m-content-recently-added-layer"
	 xmlns="http://www.w3.org/2000/svg" xmlns:xlink="http://www.w3.org/1999/xlink" x="0px" y="0px" width="48px" height="48px"
	 viewBox="0 0 48 48" style="enable-background:new 0 0 48 48;" xml:space="preserve">
<g id="icon-m-content-recently-added">
	<rect style="fill:none;" width="48" height="48"/>
	<path style="fill:#333333;" d="M18.864,17.231c-0.223,1.042-1.124,1.784-2.194,1.784c-1.24,0-2.25-1.01-2.25-2.248
		c0-0.189,0.025-0.377,0.074-0.561l-4.94-6.221l2.105-1.686l4.941,6.22c0.39-0.017,0.77,0.074,1.124,0.266l4.648-2.164l1.135,2.45
		L18.864,17.231z"/>
	<path style="fill:#333333;" d="M14,31.435C7.067,30.139,1.801,24.053,1.801,16.75c0-8.242,6.706-14.948,14.949-14.948
		c8.158,0,14.801,6.572,14.936,14.698h1.802C33.352,7.367,25.916,0,16.75,0C7.499,0,0,7.5,0,16.75c0,8.312,6.061,15.19,14,16.506
		V31.435z"/>
	<path style="fill:#333333;" d="M42,35.596l-8.842,0.062V44.5h-6.316v-8.842L18,35.602v-6.26h8.842V20.5h6.316v8.842H42V35.596z"/>
</g>
</svg>
