<?xml version="1.0" encoding="iso-8859-1"?>
<!-- Generator: Adobe Illustrator 14.0.0, SVG Export Plug-In . SVG Version: 6.00 Build 43363)  -->
<!DOCTYPE svg PUBLIC "-//W3C//DTD SVG 1.1//EN" "http://www.w3.org/Graphics/SVG/1.1/DTD/svg11.dtd">
<svg version="1.1" id="icon-m-common-presence-unknown-layer"
	 xmlns="http://www.w3.org/2000/svg" xmlns:xlink="http://www.w3.org/1999/xlink" x="0px" y="0px" width="48px" height="48px"
	 viewBox="0 0 48 48" style="enable-background:new 0 0 48 48;" xml:space="preserve">
<g id="icon-m-common-presence-unknown">
	<rect style="fill:none;" width="48" height="48"/>
	<path style="fill:#333333;" d="M13.287,9.1c2.144-1.484,4.61-2.533,7.271-3.02V1.518c-3.897,0.566-7.482,2.1-10.502,4.352
		L13.287,9.1z"/>
	<path style="fill:#333333;" d="M5.496,21.144c0.488-2.661,1.535-5.126,3.02-7.271l-3.231-3.23c-2.25,3.02-3.784,6.604-4.352,10.501
		H5.496z"/>
	<path style="fill:#333333;" d="M27.309,1.516v4.563c2.661,0.486,5.128,1.535,7.272,3.021l3.229-3.229
		C34.791,3.616,31.205,2.084,27.309,1.516z"/>
	<path style="fill:#333333;" d="M8.51,35.169c-1.486-2.145-2.533-4.612-3.018-7.275H0.93c0.565,3.898,2.098,7.485,4.351,10.505
		L8.51,35.169z"/>
	<path style="fill:#333333;" d="M39.353,13.873c1.484,2.143,2.532,4.609,3.019,7.271h4.564c-0.569-3.897-2.104-7.481-4.354-10.501
		L39.353,13.873z"/>
	<path style="fill:#333333;" d="M42.375,27.894c-0.484,2.663-1.531,5.131-3.018,7.276l3.229,3.229
		c2.253-3.021,3.785-6.606,4.351-10.505H42.375z"/>
	<path style="fill:#333333;" d="M20.559,42.959c-2.662-0.486-5.129-1.533-7.274-3.018l-3.231,3.229
		c3.021,2.251,6.606,3.784,10.505,4.351V42.959z"/>
	<path style="fill:#333333;" d="M34.582,39.941c-2.144,1.485-4.611,2.531-7.273,3.018v4.563c3.898-0.566,7.484-2.1,10.504-4.351
		L34.582,39.941z"/>
</g>
</svg>
