<?xml version="1.0" encoding="iso-8859-1"?>
<!-- Generator: Adobe Illustrator 14.0.0, SVG Export Plug-In . SVG Version: 6.00 Build 43363)  -->
<!DOCTYPE svg PUBLIC "-//W3C//DTD SVG 1.1//EN" "http://www.w3.org/Graphics/SVG/1.1/DTD/svg11.dtd">
<svg version="1.1" id="icon-m-telephony-gtalk-layer"
	 xmlns="http://www.w3.org/2000/svg" xmlns:xlink="http://www.w3.org/1999/xlink" x="0px" y="0px" width="48px" height="48px"
	 viewBox="0 0 48 48" style="enable-background:new 0 0 48 48;" xml:space="preserve">
<g id="icon-m-telephony-gtalk">
	<rect style="fill:none;" width="48" height="48"/>
	<path style="fill:#333333;" d="M23.998,3.334C10.744,3.334,0,11.087,0,20.65c0,7.841,7.223,14.461,17.127,16.594
		c-0.451,2.203-1.58,5.496-4.396,7.422c0,0,10.568-0.625,13.523-6.564c0.008,0-1.816-1.238-1.816-1.238
		c-1.154,6.146-9.668,6.548-9.668,6.548c3.283-3.285,3.172-7.201,3.172-7.201C9.051,34.232,2.559,28.018,2.559,20.65
		c0-8.955,9.6-16.221,21.438-16.221c11.844,0,21.443,7.266,21.443,16.221c0,4.142-1.807,7.793-4.936,10.678
		c-2.066,1.902-4.48,3.39-4.48,3.39s2.619-0.448,5.223-2.312C45.428,29.416,48,25.331,48,20.65C48,11.087,37.254,3.334,23.998,3.334
		z"/>
	<path style="fill:#333333;" d="M24.172,5.962c-0.389,0-0.777,0.013-1.158,0.029c8.896,1.124,15.922,6.396,17.092,13.702
		c0.74,4.646-1.031,9.25-4.502,12.974c4.893-2.681,8.076-7.03,8.076-11.949C43.68,12.568,34.945,5.962,24.172,5.962z"/>
	<path style="fill:#333333;" d="M13.619,26.88c-0.854,0.698-3.174,1.181-4.207,0.149c-0.676-0.678-1-1.635-1-2.853v-5.471H7.039
		v-1.388H8.41v-3.928h2.352v3.928h2.371v1.388h-2.371v5.039c0.006,1.037-0.266,2.337,1.199,2.337c0.311,0,0.859-0.314,0.859-0.314
		L13.619,26.88z"/>
	<path style="fill:#333333;" d="M20.266,26.902c-0.703,0.699-1.402,1.104-2.592,1.104c-0.979,0-1.793-0.304-2.436-0.918
		c-0.646-0.613-0.971-1.388-0.971-2.324c0-1.291,0.504-2.473,1.627-3.101c0.633-0.353,1.727-0.722,4.055-1.257l0,0v-0.278
		c0-1.112-0.072-1.919-1.814-1.75c-0.723,0.067-2.014,1.277-2.014,1.277l-1.311-1.312c1.564-1.566,3.035-1.844,3.691-1.885
		c1.311-0.082,2.281,0.301,2.906,0.898c0.623,0.597,0.934,1.521,0.934,2.77v4.596c0,0.773,0.146,1.459,1.033,1.166l0.635,1.144
		c-0.693,0.694-1.162,0.854-1.748,0.854C20.754,27.887,20.266,26.902,20.266,26.902z M19.949,25.116v-2.872
		c0,0-1.48,0.204-1.963,0.398c-0.791,0.319-1.307,1.043-1.307,1.773C16.68,26.336,18.779,26.285,19.949,25.116z"/>
	<path style="fill:#333333;" d="M25.27,27.756V11.753h2.352v16.003H25.27z"/>
	<polygon style="fill:#333333;" points="38.832,26.451 35.119,22.105 39.039,18.312 37.242,16.516 32.361,22.105 32.361,11.753 
		30.012,11.753 30.012,27.756 32.361,27.756 32.361,22.559 36.861,28.244 	"/>
</g>
</svg>
