<?xml version="1.0" encoding="iso-8859-1"?>
<!-- Generator: Adobe Illustrator 14.0.0, SVG Export Plug-In . SVG Version: 6.00 Build 43363)  -->
<!DOCTYPE svg PUBLIC "-//W3C//DTD SVG 1.1//EN" "http://www.w3.org/Graphics/SVG/1.1/DTD/svg11.dtd">
<svg version="1.1" id="icon-m-energy-management-charging7-layer"
	 xmlns="http://www.w3.org/2000/svg" xmlns:xlink="http://www.w3.org/1999/xlink" x="0px" y="0px" width="48px" height="48px"
	 viewBox="0 0 48 48" style="enable-background:new 0 0 48 48;" xml:space="preserve">
<g id="icon-m-energy-management-charging7">
	<rect style="fill:none;" width="48" height="48"/>
	<path style="fill:#333333;" d="M19.207,43.569H4.587c-0.752,0-1.372-0.618-1.372-1.37v-31.5c0-0.754,0.619-1.372,1.372-1.372
		h17.829c0.753,0,1.372,0.618,1.372,1.372v9.535c0.995-0.766,2.069-1.433,3.212-1.979V6.543c0-0.756-0.616-1.371-1.369-1.371h-7.353
		V3.116c0-0.755-0.616-1.372-1.37-1.372h-6.814c-0.753,0-1.37,0.617-1.37,1.372v2.056H1.371C0.617,5.172,0,5.787,0,6.543v38.342
		c0,0.758,0.617,1.373,1.371,1.373h19.762C20.412,45.425,19.767,44.525,19.207,43.569z"/>
	<path style="fill:#333333;" d="M16.745,34.5c0-4.609,1.744-8.817,4.604-12.004v-7.104H5.802v25.334h12.053
		C17.138,38.784,16.745,36.687,16.745,34.5z"/>
	<path style="fill:#333333;" d="M40.611,37.082v2.758c-0.002,0.923-0.972,1.678-2.154,1.672l-5.836-0.023l0.012-3.05l-5.943-0.021
		c-0.314,0-0.57-0.258-0.569-0.574l0.005-1.047c0-0.314,0.259-0.569,0.572-0.569l5.948,0.022l0.008-3.532l-5.942-0.011
		c-0.315-0.001-0.568-0.258-0.568-0.573l0.002-1.048c0.002-0.314,0.26-0.571,0.574-0.568l5.943,0.01l0.012-3.038l5.836,0.007
		c1.183,0.002,2.145,0.764,2.143,1.688l-0.01,2.771L48,31.972C46.815,25.728,41.336,21,34.745,21c-7.456,0-13.5,6.044-13.5,13.5
		c0,7.455,6.044,13.5,13.5,13.5c6.571,0,12.041-4.697,13.247-10.918H40.611z"/>
</g>
</svg>
