<?xml version="1.0" encoding="iso-8859-1"?>
<!-- Generator: Adobe Illustrator 14.0.0, SVG Export Plug-In . SVG Version: 6.00 Build 43363)  -->
<!DOCTYPE svg PUBLIC "-//W3C//DTD SVG 1.1//EN" "http://www.w3.org/Graphics/SVG/1.1/DTD/svg11.dtd">
<svg version="1.1" id="icon-m-energy-management-powersave1-layer"
	 xmlns="http://www.w3.org/2000/svg" xmlns:xlink="http://www.w3.org/1999/xlink" x="0px" y="0px" width="48px" height="48px"
	 viewBox="0 0 48 48" style="enable-background:new 0 0 48 48;" xml:space="preserve">
<g id="icon-m-energy-management-powersave1">
	<rect style="fill:none;" width="48" height="48"/>
	<path style="fill:#333333;" d="M19.207,43.569H4.588c-0.752,0-1.372-0.618-1.372-1.37V10.697c0-0.752,0.619-1.371,1.372-1.371
		h17.83c0.753,0,1.371,0.619,1.371,1.371v9.535c0.995-0.766,2.069-1.432,3.211-1.979V6.541c0-0.756-0.615-1.371-1.369-1.371h-7.353
		V3.115c0-0.754-0.616-1.372-1.37-1.372h-6.814c-0.753,0-1.37,0.618-1.37,1.372V5.17H1.372C0.617,5.17,0,5.785,0,6.541v38.344
		c0,0.755,0.617,1.373,1.372,1.373h19.762C20.413,45.424,19.768,44.525,19.207,43.569z"/>
	<path style="fill:#333333;" d="M16.746,34.5c0-0.037,0.003-0.073,0.003-0.11H5.803v6.334h12.053
		C17.139,38.783,16.746,36.686,16.746,34.5z"/>
	<path style="fill:#333333;" d="M34.5,21C27.045,21,21,27.045,21,34.5S27.045,48,34.5,48C41.956,48,48,41.955,48,34.5
		S41.956,21,34.5,21z M40.381,43.543c-0.789,0.215-1.619,0.332-2.476,0.332c-5.179,0-9.285-4.196-9.285-9.375
		c0-5.178,4.106-9.375,9.285-9.375c0.856,0,1.687,0.117,2.476,0.332c-3.976,1.087-6.76,4.723-6.76,9.043
		S36.405,42.455,40.381,43.543z"/>
</g>
</svg>
