<?xml version="1.0" encoding="iso-8859-1"?>
<!-- Generator: Adobe Illustrator 14.0.0, SVG Export Plug-In . SVG Version: 6.00 Build 43363)  -->
<!DOCTYPE svg PUBLIC "-//W3C//DTD SVG 1.1//EN" "http://www.w3.org/Graphics/SVG/1.1/DTD/svg11.dtd">
<svg version="1.1" id="icon-m-toolbar-alphabetic-order-layer"
	 xmlns="http://www.w3.org/2000/svg" xmlns:xlink="http://www.w3.org/1999/xlink" x="0px" y="0px" width="33px" height="32px"
	 viewBox="0 0 33 32" style="enable-background:new 0 0 33 32;" xml:space="preserve">
<g id="icon-m-toolbar-alphabetic-order_1_">
	<rect x="1" style="fill:none;" width="32" height="32"/>
	<path style="fill:#FFFFFF;" d="M25.738,9.246h2.565c0.63,0,0.888-0.445,0.573-0.991L24.775,1.15
		c-0.314-0.546-0.833-0.547-1.151-0.004l-4.16,7.111C19.145,8.802,19.4,9.246,20.03,9.246h2.272v22.472h3.436V9.246z"/>
	<path style="fill:#FFFFFF;" d="M15.374,13.447h-3.059l-0.629-2.641H8.223l-0.646,2.641H4.972L8.539,0.718h3.497L15.374,13.447z
		 M11.336,9.129l-1.364-5.98l-1.399,5.98H11.336z"/>
	<path style="fill:#FFFFFF;" d="M14.133,20.269L9.5,30.007h4.563v1.679H6.178v-1.312l4.632-9.737H6.457v-1.68h7.676V20.269z"/>
</g>
</svg>
