<?xml version="1.0" encoding="iso-8859-1"?>
<!-- Generator: Adobe Illustrator 14.0.0, SVG Export Plug-In . SVG Version: 6.00 Build 43363)  -->
<!DOCTYPE svg PUBLIC "-//W3C//DTD SVG 1.1//EN" "http://www.w3.org/Graphics/SVG/1.1/DTD/svg11.dtd">
<svg version="1.1" id="icon-m-camera-resolution-106m-layer"
	 xmlns="http://www.w3.org/2000/svg" xmlns:xlink="http://www.w3.org/1999/xlink" x="0px" y="0px" width="32px" height="32px"
	 viewBox="0 0 32 32" style="enable-background:new 0 0 32 32;" xml:space="preserve">
<g id="icon-m-camera-resolution-106m">
	<rect style="fill:none;" width="32" height="32"/>
	<path style="fill:#FFFFFF;" d="M8.757,27.925H4.446v-0.824H5.89v-4.893l-1.443,0.31v-0.807l2.136-0.666h0.816v6.056h1.359V27.925z"
		/>
	<path style="fill:#FFFFFF;" d="M11.57,27.99c-2.127,0-2.306-1.809-2.306-3.562c0-1.584,0.253-3.402,2.343-3.402
		c2.062,0,2.287,1.8,2.287,3.402C13.895,26.2,13.679,27.99,11.57,27.99z M11.57,21.88c-0.74,0-0.787,0.993-0.787,2.549
		c0,1.81,0.075,2.709,0.787,2.709c0.703,0,0.769-0.899,0.769-2.709C12.339,22.863,12.302,21.88,11.57,21.88z"/>
	<path style="fill:#FFFFFF;" d="M15.086,28c-0.459,0-0.825-0.365-0.825-0.824c0-0.46,0.365-0.835,0.825-0.835
		s0.834,0.375,0.834,0.835C15.921,27.635,15.546,28,15.086,28z"/>
	<path style="fill:#FFFFFF;" d="M20.345,22.021c-0.337-0.065-0.618-0.094-0.918-0.094c-1.031,0-1.425,0.806-1.528,1.817
		c0.3-0.262,0.703-0.394,1.229-0.394c1.35,0,1.836,0.984,1.836,2.203c0,1.341-0.665,2.437-2.343,2.437
		c-2.006,0-2.287-1.733-2.287-3.243c0-1.79,0.674-3.721,2.943-3.721c0.366,0,0.759,0.028,1.068,0.075V22.021z M18.677,24.251
		c-0.601,0-0.788,0.571-0.788,1.19c0,0.806,0.047,1.696,0.741,1.696c0.702,0,0.778-0.693,0.778-1.556
		C19.408,24.879,19.295,24.251,18.677,24.251z"/>
	<path style="fill:#FFFFFF;" d="M27.554,27.925h-1.509v-4.527l-1.19,2.307h-0.563l-1.171-2.307v4.527h-1.546v-6.823h1.35
		l1.649,3.225l1.649-3.225h1.331V27.925z"/>
	<path style="fill:#FFFFFF;" d="M23.33,18.659V4C15.233,4,8.67,10.563,8.67,18.659H23.33z"/>
</g>
</svg>
