<?xml version="1.0" encoding="iso-8859-1"?>
<!-- Generator: Adobe Illustrator 14.0.0, SVG Export Plug-In . SVG Version: 6.00 Build 43363)  -->
<!DOCTYPE svg PUBLIC "-//W3C//DTD SVG 1.1//EN" "http://www.w3.org/Graphics/SVG/1.1/DTD/svg11.dtd">
<svg version="1.1" id="icon-s-gallery-metadata-layer"
	 xmlns="http://www.w3.org/2000/svg" xmlns:xlink="http://www.w3.org/1999/xlink" x="0px" y="0px" width="32px" height="18px"
	 viewBox="0 0 32 18" style="enable-background:new 0 0 32 18;" xml:space="preserve">
<g id="icon-s-gallery-metadata_2_">
	<rect style="fill:none;" width="32" height="18"/>
	<path style="fill:#333333;" d="M20.634,12.286c0,1.83,0.837,1.83,1.282,1.83c0.938,0,2.014-0.315,2.014-2.78v-1.72h-0.225
		C20.984,9.616,20.634,11.044,20.634,12.286z"/>
	<path style="fill:#333333;" d="M0,0v18h32V0H0z M14.773,5.73L8.492,7.986l6.281,2.253v4.253L3.252,9.774V6.196L14.773,1.5V5.73z
		 M28.748,16.35H25.47l-0.286-1.073c-0.932,0.841-2.027,1.224-3.461,1.224c-2.787,0-4.519-1.655-4.519-4.318
		c0-4.316,4.024-4.629,6.726-4.697V7.186c0-0.906-0.258-1.366-1.668-1.366c-0.836,0-1.868,0.187-3.07,0.556l-0.862,0.266V3.142
		l0.506-0.127c1.571-0.396,3.093-0.604,4.399-0.604c3.556,0,5.514,1.71,5.514,4.819V16.35z"/>
</g>
</svg>
