<?xml version="1.0" encoding="iso-8859-1"?>
<!-- Generator: Adobe Illustrator 14.0.0, SVG Export Plug-In . SVG Version: 6.00 Build 43363)  -->
<!DOCTYPE svg PUBLIC "-//W3C//DTD SVG 1.1//EN" "http://www.w3.org/Graphics/SVG/1.1/DTD/svg11.dtd">
<svg version="1.1" id="icon-m-telephony-microphone-off-layer"
	 xmlns="http://www.w3.org/2000/svg" xmlns:xlink="http://www.w3.org/1999/xlink" x="0px" y="0px" width="48px" height="48px"
	 viewBox="0 0 48 48" style="enable-background:new 0 0 48 48;" xml:space="preserve">
<g id="icon-m-telephony-microphone-off_2_">
	<rect style="fill:none;" width="48" height="48"/>
	<path style="fill:#333333;" d="M46.607,15.318c0.856-0.852,0.857-2.241,0-3.096L35.781,1.385c-0.855-0.848-2.246-0.848-3.102,0.002
		L21.455,12.615l13.938,13.92L46.607,15.318z M37.486,20.589l-2.65,2.647L24.759,13.164l2.652-2.65L37.486,20.589z"/>
	<polygon style="fill:#333333;" points="7.66,43.34 3.757,47.249 0.75,44.242 4.649,40.329 	"/>
	<polygon style="fill:#333333;" points="16.555,25.402 22.6,31.442 11.46,41.483 6.514,36.537 	"/>
	<path style="fill:#333333;" d="M7.708,5.245L5.226,7.724l35.063,35.03l2.485-2.484L7.708,5.245z"/>
</g>
</svg>
