<?xml version="1.0" encoding="iso-8859-1"?>
<!-- Generator: Adobe Illustrator 14.0.0, SVG Export Plug-In . SVG Version: 6.00 Build 43363)  -->
<!DOCTYPE svg PUBLIC "-//W3C//DTD SVG 1.1//EN" "http://www.w3.org/Graphics/SVG/1.1/DTD/svg11.dtd">
<svg version="1.1" id="icon-m-content-task-layer" xmlns="http://www.w3.org/2000/svg" xmlns:xlink="http://www.w3.org/1999/xlink"
	 x="0px" y="0px" width="48px" height="48px" viewBox="0 0 48 48" style="enable-background:new 0 0 48 48;" xml:space="preserve">
<g id="icon-m-content-task_2_">
	<rect style="fill:none;" width="48" height="48"/>
	<path style="fill:#333333;" d="M47.963,11.074c-0.075-0.225-0.295-0.375-0.541-0.371c-14.031,0.271-24.401,13.961-26.515,16.929
		l-6.901-6.921c-0.209-0.211-0.562-0.222-0.785-0.018l-4.169,3.751c-0.108,0.102-0.17,0.237-0.175,0.383
		c-0.003,0.149,0.054,0.284,0.16,0.39l12.5,12.252c0.104,0.105,0.251,0.161,0.399,0.161c0.015,0,0.031-0.002,0.047-0.003
		c0.165-0.013,0.317-0.099,0.41-0.227c6.047-8.356,12.396-14.791,17.226-19.135c4.834-4.342,8.129-6.575,8.134-6.584
		C47.954,11.547,48.039,11.299,47.963,11.074z"/>
	<path style="fill:#333333;" d="M36.867,26.129v13.953c0,0.821-0.677,1.495-1.504,1.495H6.028c-0.829,0-1.506-0.674-1.506-1.495
		V7.917c0-0.823,0.678-1.496,1.506-1.496h29.335c0.827,0,1.504,0.673,1.504,1.496v0.262c1.432-0.731,2.938-1.361,4.512-1.849v-2.9
		c0-0.821-0.677-1.494-1.504-1.494H1.513c-0.828,0-1.504,0.673-1.504,1.494v41.139c0,0.822,0.677,1.496,1.504,1.496h38.362
		c0.827,0,1.504-0.505,1.504-1.121V21.989c-0.445,0.39-0.904,0.793-1.383,1.222C39.013,24.098,37.961,25.073,36.867,26.129z"/>
</g>
</svg>
