<?xml version="1.0" encoding="iso-8859-1"?>
<!-- Generator: Adobe Illustrator 14.0.0, SVG Export Plug-In . SVG Version: 6.00 Build 43363)  -->
<!DOCTYPE svg PUBLIC "-//W3C//DTD SVG 1.1//EN" "http://www.w3.org/Graphics/SVG/1.1/DTD/svg11.dtd">
<svg version="1.1" id="icon-m-content-playlist-layer"
	 xmlns="http://www.w3.org/2000/svg" xmlns:xlink="http://www.w3.org/1999/xlink" x="0px" y="0px" width="48px" height="48px"
	 viewBox="0 0 48 48" style="enable-background:new 0 0 48 48;" xml:space="preserve">
<g id="icon-m-content-playlist_2_">
	<rect y="-1" style="fill:none;" width="48" height="48"/>
	<path style="fill:#333333;" d="M7.121,11.079c-0.927,0-1.678-0.751-1.678-1.677c0-0.928,0.751-1.678,1.678-1.678
		s1.677,0.75,1.677,1.678C8.798,10.328,8.047,11.079,7.121,11.079"/>
	<rect x="12.268" y="8.277" style="fill:#333333;" width="18.203" height="2.25"/>
	<path style="fill:#333333;" d="M7.121,17.672c-0.927,0-1.678-0.752-1.678-1.678c0-0.928,0.751-1.676,1.678-1.676
		s1.677,0.748,1.677,1.676C8.798,16.92,8.047,17.672,7.121,17.672"/>
	<rect x="12.268" y="14.869" style="fill:#333333;" width="18.203" height="2.25"/>
	<path style="fill:#333333;" d="M7.121,24.264c-0.927,0-1.678-0.751-1.678-1.678s0.751-1.677,1.678-1.677s1.677,0.75,1.677,1.677
		S8.047,24.264,7.121,24.264"/>
	<rect x="12.268" y="21.461" style="fill:#333333;" width="16.736" height="2.25"/>
	<path style="fill:#333333;" d="M7.121,30.855c-0.927,0-1.678-0.75-1.678-1.677c0-0.928,0.751-1.678,1.678-1.678
		s1.677,0.75,1.677,1.678C8.798,30.105,8.047,30.855,7.121,30.855"/>
	<rect x="12.268" y="28.053" style="fill:#333333;" width="16.736" height="2.25"/>
	<path style="fill:#333333;" d="M45.796,33.773c-1.243-0.461-2.851-0.314-4.332,0.514c-2.404,1.338-3.474,3.848-2.434,5.724
		c1.036,1.874,3.739,2.302,6.138,0.97c1.589-0.878,2.608-2.281,2.805-3.672C47.989,37.141,48,37.078,48,36.963v-2.805V17.323
		c0-0.282-0.205-0.405-0.451-0.266l-13.603,7.517c-0.244,0.136-0.442,0.475-0.442,0.766v13.673c-1.25-0.446-2.86-0.301-4.34,0.526
		c-2.404,1.328-3.469,3.84-2.434,5.712c1.039,1.877,3.738,2.31,6.139,0.976c1.592-0.881,2.641-2.282,2.83-3.67
		c0.012-0.153,0.027-0.232,0.027-0.346V31.386c0-0.22,0.203-0.625,0.448-0.762l9.148-5.056c0.245-0.137,0.448-0.016,0.448,0.264
		v8.755"/>
	<path style="fill:#333333;" d="M22.517,40.429c0.265-0.622,0.61-1.212,1.01-1.771h-6.386H1.95V0.951h17.148h15.191v18.292
		l1.951-1.077V0.342C36.24-0.396,35.635-1,34.897-1H19.098H1.343H1.341C0.604-1,0-0.396,0,0.342v0.001v38.923
		c0,0.737,0.604,1.343,1.343,1.343h15.798h5.311C22.476,40.549,22.492,40.487,22.517,40.429z"/>
</g>
</svg>
