<?xml version="1.0" encoding="iso-8859-1"?>
<!-- Generator: Adobe Illustrator 14.0.0, SVG Export Plug-In . SVG Version: 6.00 Build 43363)  -->
<!DOCTYPE svg PUBLIC "-//W3C//DTD SVG 1.1//EN" "http://www.w3.org/Graphics/SVG/1.1/DTD/svg11.dtd">
<svg version="1.1" id="icon-m-content-ovi-music-layer"
	 xmlns="http://www.w3.org/2000/svg" xmlns:xlink="http://www.w3.org/1999/xlink" x="0px" y="0px" width="48px" height="48px"
	 viewBox="0 0 48 48" style="enable-background:new 0 0 48 48;" xml:space="preserve">
<g id="icon-m-content-ovi-music">
	<rect style="fill:none;" width="48" height="48"/>
	<path style="fill:#333333;" d="M41.507,10.87v26.26C45.447,34.104,48,29.363,48,24.004S45.447,13.896,41.507,10.87z"/>
	<path style="fill:#333333;" d="M35.664,4.865H1.426C0.641,4.865,0,5.507,0,6.291v35.418c0,0.784,0.641,1.426,1.426,1.426h34.238
		c0.785,0,1.427-0.642,1.427-1.426V6.291C37.091,5.507,36.449,4.865,35.664,4.865z M28.178,18.274
		c-2.501-1.392-5.288-2.333-8.254-2.7v17.587c0.077,2.232-1.904,4.346-4.717,4.837c-3.019,0.532-5.811-0.995-6.241-3.403
		c-0.415-2.417,1.679-4.809,4.699-5.342c1.264-0.219,2.478-0.059,3.505,0.349V9.896c3.997,0,7.745,1.044,11.008,2.861V18.274z"/>
</g>
</svg>
