<?xml version="1.0" encoding="iso-8859-1"?>
<!-- Generator: Adobe Illustrator 14.0.0, SVG Export Plug-In . SVG Version: 6.00 Build 43363)  -->
<!DOCTYPE svg PUBLIC "-//W3C//DTD SVG 1.1//EN" "http://www.w3.org/Graphics/SVG/1.1/DTD/svg11.dtd">
<svg version="1.1" id="icon-m-common-applications-layer"
	 xmlns="http://www.w3.org/2000/svg" xmlns:xlink="http://www.w3.org/1999/xlink" x="0px" y="0px" width="48px" height="48px"
	 viewBox="0 0 48 48" style="enable-background:new 0 0 48 48;" xml:space="preserve">
<g id="icon-m-common-applications">
	<rect style="fill:none;" width="48" height="48"/>
	<path style="fill:#333333;" d="M21.742,4.452c0-0.033,0.001-0.072,0.001-0.116c-0.009-0.398-0.032-1.338-0.664-2.383
		c-0.538-0.938-1.731-1.766-3.234-1.923c-0.028-0.004-0.057-0.003-0.083-0.004c-0.179-0.016-0.362-0.029-0.548-0.025h-5.306v0.005
		H6.676C4.852-0.043,3.377,0.89,2.763,1.965C2.125,3.016,2.107,3.956,2.095,4.344c0,0.047,0.001,0.087,0.001,0.118l0.031,10.671
		c-0.002,0.033-0.002,0.073-0.002,0.117c0.009,0.4,0.031,1.339,0.664,2.382c0.611,1.066,2.069,1.989,3.865,1.954h10.514
		c0.042,0,0.086,0.002,0.128,0.002c0.147,0,0.288-0.017,0.428-0.027c0.054-0.005,0.11-0.005,0.163-0.014
		c0.096-0.01,0.189-0.031,0.283-0.047c1.36-0.234,2.436-1.006,2.936-1.88c0.637-1.051,0.659-1.991,0.668-2.381
		c-0.001-0.045-0.003-0.084-0.003-0.114L21.742,4.452z"/>
	<path style="fill:#333333;" d="M26.289,19.586c0,0.03-0.002,0.066-0.002,0.105c0.008,0.371,0.023,1.3,0.636,2.35
		c0.575,1.061,2.009,2.024,3.788,2.002h0.004h10.608c0.044,0,0.087,0.002,0.13,0.002c1.768,0,3.188-0.92,3.787-1.969
		c0.635-1.051,0.656-1.996,0.664-2.379c0-0.067-0.002-0.111-0.002-0.132l-0.029-10.7c-0.003-0.039-0.002-0.077-0.008-0.143
		c-0.012-0.352-0.074-1.143-0.537-2.062c-0.498-1.089-1.957-2.271-3.854-2.213c-0.045,0-0.104,0-0.18,0.004H30.837
		c-1.823-0.049-3.298,0.887-3.913,1.96c-0.637,1.05-0.658,1.994-0.668,2.382c0,0.047,0.002,0.087,0.004,0.119L26.289,19.586z
		 M29.658,8.793c0,0,0-0.005,0-0.019c0-0.094,0.047-0.423,0.152-0.567c0.141-0.14,0.105-0.311,1.026-0.356H41.4l0.063-0.006h0.012
		c0.756,0.06,0.646,0.154,0.836,0.383c0.064,0.122,0.115,0.295,0.138,0.433c0.023,0.134,0.023,0.212,0.023,0.212l0.03,10.76
		c0,0.054,0,0.063,0,0.063c0.012,0.044-0.035,0.425-0.152,0.587c-0.141,0.139-0.105,0.312-1.027,0.356h-10.5c0,0-0.014,0-0.018,0
		c-0.018,0-0.025,0-0.025,0c-0.859-0.048-0.791-0.191-0.938-0.342c-0.102-0.146-0.15-0.459-0.156-0.569l0.003-0.036l-0.03-10.891
		V8.793z"/>
	<path style="fill:#333333;" d="M45.873,32.76c-0.009-0.372-0.025-1.3-0.627-2.35c-0.57-1.071-2.03-2.06-3.83-2.01
		c-0.021,0-0.057,0-0.11,0.004H30.838c-1.824-0.051-3.3,0.884-3.912,1.961c-0.639,1.051-0.658,1.996-0.67,2.385
		c0,0.047,0.002,0.087,0.004,0.119l0.029,10.678c-0.002,0.035-0.002,0.076-0.002,0.125c0.008,0.404,0.031,1.34,0.654,2.379
		c0.6,1.064,2.053,1.994,3.834,1.947h10.548c0.044,0,0.089,0.002,0.134,0.002c1.768,0,3.187-0.92,3.786-1.971
		c0.632-1.055,0.653-1.995,0.661-2.379c0-0.068,0-0.114,0-0.131l-0.031-10.645C45.873,32.853,45.873,32.812,45.873,32.76z
		 M42.349,44.24c-0.138,0.141-0.104,0.311-1.025,0.356v0.001H30.834c-0.031,0-0.051,0-0.059,0c-0.863-0.048-0.801-0.195-0.939-0.324
		c-0.1-0.137-0.147-0.462-0.152-0.57c0.002-0.017,0.002-0.027,0.002-0.027v-0.027L29.659,32.76l-0.004-0.043
		c0.005-0.109,0.054-0.414,0.157-0.557c0.139-0.14,0.104-0.311,1.025-0.357h10.57h0.016c0.822,0.051,0.748,0.182,0.893,0.332
		c0.119,0.175,0.166,0.578,0.156,0.625v0.005l-0.002,0.032l0.031,10.787c0.004,0.056,0.004,0.066,0.004,0.066
		C42.514,43.692,42.469,44.076,42.349,44.24z"/>
	<path style="fill:#333333;" d="M17.18,28.402H6.679c-1.828-0.049-3.302,0.891-3.915,1.968c-0.637,1.052-0.657,1.993-0.667,2.382
		c0,0.042,0.001,0.08,0.003,0.111l0.029,10.66c-0.001,0.038-0.003,0.093-0.003,0.158c0.011,0.416,0.036,1.356,0.671,2.396
		c0.591,1.021,1.958,1.896,3.644,1.919l0.004,0.002h10.72c0.043,0,0.089,0,0.133,0c1.717,0,3.119-0.869,3.727-1.904
		c0.642-1.037,0.674-1.984,0.681-2.407c0-0.052-0.002-0.097-0.002-0.13l0.009-10.674c0.003-0.046,0.004-0.105,0.004-0.182
		c-0.007-0.439-0.044-1.385-0.693-2.41c-0.633-1.046-2.096-1.908-3.854-1.889 M18.305,43.688c0,0-0.041,0.438-0.151,0.581
		c-0.126,0.12-0.086,0.284-0.99,0.331H6.74c-0.04-0.003-0.069-0.003-0.086-0.003c-0.006,0-0.011,0-0.011,0
		c-0.888-0.046-0.838-0.204-0.967-0.327c-0.101-0.135-0.154-0.465-0.152-0.569c0.001-0.019,0.001-0.019,0.001-0.019l0.001-0.036
		L5.499,32.771l-0.002-0.04c0.001-0.1,0.049-0.422,0.157-0.568c0.139-0.142,0.104-0.313,1.024-0.357h10.481
		c0.91,0.053,0.895,0.226,1.015,0.338c0.101,0.137,0.145,0.561,0.145,0.561L18.305,43.688z"/>
</g>
</svg>
