<?xml version="1.0" encoding="iso-8859-1"?>
<!-- Generator: Adobe Illustrator 14.0.0, SVG Export Plug-In . SVG Version: 6.00 Build 43363)  -->
<!DOCTYPE svg PUBLIC "-//W3C//DTD SVG 1.1//EN" "http://www.w3.org/Graphics/SVG/1.1/DTD/svg11.dtd">
<svg version="1.1" id="icon-m-camera-whitebalance-tungsten-screen-layer"
	 xmlns="http://www.w3.org/2000/svg" xmlns:xlink="http://www.w3.org/1999/xlink" x="0px" y="0px" width="32px" height="32px"
	 viewBox="0 0 32 32" style="enable-background:new 0 0 32 32;" xml:space="preserve">
<g id="icon-m-camera-whitebalance-tungsten-screen">
	<rect style="fill:none;" width="32" height="32"/>
	<path style="fill:#FFFFFF;" d="M20.174,26.844c0,0.552-0.447,1-1,1h-6.348c-0.551,0-1-0.448-1-1l0,0c0-0.554,0.449-1,1-1h6.348
		C19.727,25.844,20.174,26.29,20.174,26.844L20.174,26.844z"/>
	<path style="fill:#FFFFFF;" d="M20.174,30.427c0,0.553-0.447,1-1,1h-6.348c-0.551,0-1-0.447-1-1l0,0c0-0.552,0.449-1,1-1h6.348
		C19.727,29.427,20.174,29.875,20.174,30.427L20.174,30.427z"/>
	<path style="fill:#FFFFFF;" d="M17.867,24.278h-3.733c-1.908,0-3.46-1.579-3.46-3.523v0.59c0-1.13-0.878-2.168-1.991-3.482
		c-1.608-1.897-3.607-4.253-3.607-8.019c0-4.458,4.176-9.271,10.924-9.271c6.748,0,10.923,4.813,10.923,9.271
		c0,3.767-1.998,6.121-3.605,8.015c-1.117,1.321-1.992,2.36-1.992,3.486v-0.59C21.326,22.699,19.773,24.278,17.867,24.278
		L17.867,24.278z M16,2.751c-5.403,0-8.748,3.682-8.748,7.093c0,2.965,1.57,4.816,3.089,6.605c1.293,1.53,2.51,2.969,2.51,4.896
		v-0.59c0,0.742,0.576,1.347,1.283,1.347h3.733c0.705,0,1.281-0.604,1.281-1.347v0.59c0-1.923,1.213-3.36,2.5-4.883
		c1.529-1.802,3.1-3.65,3.1-6.618C24.748,6.433,21.404,2.751,16,2.751L16,2.751z"/>
</g>
</svg>
