<?xml version="1.0" encoding="iso-8859-1"?>
<!-- Generator: Adobe Illustrator 14.0.0, SVG Export Plug-In . SVG Version: 6.00 Build 43363)  -->
<!DOCTYPE svg PUBLIC "-//W3C//DTD SVG 1.1//EN" "http://www.w3.org/Graphics/SVG/1.1/DTD/svg11.dtd">
<svg version="1.1" id="icon-m-calendar-public-layer"
	 xmlns="http://www.w3.org/2000/svg" xmlns:xlink="http://www.w3.org/1999/xlink" x="0px" y="0px" width="48px" height="48px"
	 viewBox="0 0 48 48" style="enable-background:new 0 0 48 48;" xml:space="preserve">
<g id="icon-m-calendar-public">
	<rect style="fill:none;" width="48" height="48"/>
	<path style="fill:#333333;" d="M8.638,7.623h0.323c0.724,0,1.315-0.596,1.315-1.32V1.32C10.276,0.595,9.685,0,8.961,0H8.638
		C7.914,0,7.322,0.595,7.322,1.32v4.982C7.322,7.027,7.914,7.623,8.638,7.623z"/>
	<path style="fill:#333333;" d="M25.035,7.623h0.322c0.725,0,1.315-0.596,1.315-1.32V1.32c0-0.726-0.591-1.32-1.315-1.32h-0.322
		c-0.725,0-1.317,0.595-1.317,1.32v4.982C23.718,7.027,24.311,7.623,25.035,7.623z"/>
	<path style="fill:#333333;" d="M33.795,6.148h-4.413c-0.243,2.219-2.087,3.945-4.329,3.945s-4.086-1.727-4.329-3.945h-7.739
		c-0.242,2.219-2.087,3.945-4.328,3.945c-2.242,0-4.086-1.727-4.33-3.945h-4.31v6.549h33.779V6.148z"/>
	<path style="fill:#333333;" d="M16.5,34.5c0-2.308,0.441-4.513,1.236-6.543v-2.928h1.466c0.335-0.539,0.699-1.059,1.087-1.559
		h-2.554v-5.775h5.871v2.488c0.502-0.383,1.024-0.743,1.566-1.072v-1.416h2.89c1.778-0.684,3.69-1.094,5.687-1.176v-1.283H0.016
		L0,39.203c0,0.695,0.569,1.264,1.266,1.264h16.255C16.862,38.6,16.5,36.593,16.5,34.5z M8.667,38.011H2.799v-5.712h5.869V38.011z
		 M8.667,30.742H2.799v-5.713h5.869V30.742z M8.667,23.471H2.799v-5.775h5.869V23.471z M16.17,38.011h-5.937v-5.712h5.937V38.011z
		 M10.267,30.742v-5.713h5.87v5.713H10.267z M16.17,23.471h-5.937v-5.775h5.937V23.471z"/>
	<path style="fill:#333333;" d="M34.5,21C27.045,21,21,27.045,21,34.5S27.045,48,34.5,48S48,41.955,48,34.5S41.955,21,34.5,21z
		 M29.717,27.257c1.828,0,3.314,1.45,3.314,3.233c0,1.776-1.486,3.223-3.314,3.223c-1.83,0-3.318-1.446-3.318-3.223
		C26.398,28.707,27.887,27.257,29.717,27.257z M34.162,41.743h-8.953V37.61c0-2.142,2.003-3.884,4.466-3.884
		c2.484,0,4.487,1.742,4.487,3.884V41.743z M39.345,27.257c1.828,0,3.315,1.45,3.315,3.233c0,1.776-1.487,3.223-3.315,3.223
		c-1.829,0-3.317-1.446-3.317-3.223C36.027,28.707,37.516,27.257,39.345,27.257z M43.791,41.743h-8.953V37.61
		c0-2.142,2.003-3.884,4.466-3.884c2.483,0,4.487,1.742,4.487,3.884V41.743z"/>
</g>
</svg>
