<?xml version="1.0" encoding="iso-8859-1"?>
<!-- Generator: Adobe Illustrator 14.0.0, SVG Export Plug-In . SVG Version: 6.00 Build 43363)  -->
<!DOCTYPE svg PUBLIC "-//W3C//DTD SVG 1.1//EN" "http://www.w3.org/Graphics/SVG/1.1/DTD/svg11.dtd">
<svg version="1.1" id="icon-s-status-presence-unknown-layer"
	 xmlns="http://www.w3.org/2000/svg" xmlns:xlink="http://www.w3.org/1999/xlink" x="0px" y="0px" width="18px" height="18px"
	 viewBox="0 0 18 18" style="enable-background:new 0 0 18 18;" xml:space="preserve">
<g id="icon-s-status-presence-unknown_2_">
	<rect style="fill:none;" width="18" height="18"/>
	<path style="fill:#FFFFFF;" d="M7.5,0.129c-3.931,0.66-6.999,3.865-7.441,7.868H3.09C3.485,5.661,5.237,3.801,7.5,3.211V0.129z"/>
	<path style="fill:#FFFFFF;" d="M10.5,0.129v3.082c2.263,0.59,4.016,2.45,4.41,4.786h3.031C17.498,3.994,14.432,0.789,10.5,0.129z"
		/>
	<path style="fill:#FFFFFF;" d="M7.5,14.788c-1.93-0.501-3.489-1.929-4.15-3.791H0.23c0.802,3.528,3.672,6.267,7.27,6.872V14.788z"
		/>
	<path style="fill:#FFFFFF;" d="M14.65,10.997c-0.662,1.862-2.221,3.29-4.15,3.791v3.081c3.598-0.605,6.468-3.344,7.27-6.872H14.65z
		"/>
</g>
</svg>
