<?xml version="1.0" encoding="iso-8859-1"?>
<!-- Generator: Adobe Illustrator 14.0.0, SVG Export Plug-In . SVG Version: 6.00 Build 43363)  -->
<!DOCTYPE svg PUBLIC "-//W3C//DTD SVG 1.1//EN" "http://www.w3.org/Graphics/SVG/1.1/DTD/svg11.dtd">
<svg version="1.1" id="icon-m-settings-sound-feedback-layer"
	 xmlns="http://www.w3.org/2000/svg" xmlns:xlink="http://www.w3.org/1999/xlink" x="0px" y="0px" width="48px" height="48px"
	 viewBox="0 0 48 48" style="enable-background:new 0 0 48 48;" xml:space="preserve">
<g id="icon-m-settings-sound-feedback">
	<rect style="fill:none;" width="48" height="48"/>
	<path style="fill:#333333;" d="M31.566,11.172c-0.764,0.498-0.979,1.52-0.482,2.283c0.035,0.054,3.533,5.48,3.51,10.145v0.809
		c0.023,4.637-3.475,10.084-3.51,10.138c-0.496,0.765-0.279,1.786,0.484,2.282c0.277,0.181,0.59,0.268,0.897,0.268
		c0.539,0,1.067-0.265,1.384-0.75c0.166-0.256,4.073-6.318,4.044-11.945v-0.793c0.029-5.635-3.878-11.697-4.044-11.953
		C33.352,10.891,32.33,10.676,31.566,11.172z"/>
	<path style="fill:#333333;" d="M41.139,4.811c-0.645-0.641-1.686-0.639-2.33,0.005c-0.643,0.644-0.641,1.688,0.002,2.333
		c0.057,0.058,5.754,5.891,5.89,16.602v0.479c-0.136,10.717-5.817,16.549-5.89,16.623c-0.646,0.643-0.647,1.687-0.005,2.332
		c0.323,0.323,0.746,0.486,1.169,0.486c0.421,0,0.843-0.161,1.164-0.48c0.274-0.273,6.709-6.816,6.861-18.939v-0.521
		C47.848,11.626,41.413,5.083,41.139,4.811z"/>
	<path style="fill:#333333;" d="M14.686,7.869C7.396,7.873,1.467,13.656,1.262,20.875c-0.006,0.279,0.1,0.544,0.297,0.739
		l0.019,0.019c0.187,0.184,0.435,0.287,0.699,0.287h2.478c0.536,0,0.975-0.424,0.992-0.961c0.167-4.782,4.097-8.613,8.942-8.621
		c4.946,0.008,8.946,3.996,8.954,8.92c-0.004,1.54-0.431,2.629-1.13,4.462c-0.608,1.427-0.866,1.481-1.827,2.321
		c-1.407,0.869-2.688,2.096-3.373,3.836c-0.251,0.652-0.353,1.407-0.43,2.055c-0.034,0.322-0.059,0.607-0.076,0.815
		c-0.006,0.103-0.011,0.185-0.017,0.241c0,0,0,0.01,0,0.014c-0.001,0.018-0.003,0.033-0.006,0.051
		c-0.084,0.868-0.477,1.687-1.195,2.285c-0.26,0.236-0.995,0.49-1.633,0.598c-0.514,0.095-0.944,0.123-1.094,0.134
		c-0.031-0.003-0.068-0.006-0.115-0.006c-1.165,0.003-2.267,0.829-2.296,2.119c0.03,1.292,1.135,2.116,2.296,2.122
		c0,0,0.039,0.006,0.209,0.007c0.039,0,0.08,0,0.122-0.003c0.101,0.003,0.201,0.003,0.3,0.003c1.718,0,3.474-0.569,4.902-1.751
		c1.705-1.418,2.627-3.43,2.722-5.475c0-0.023,0.007-0.321,0.044-0.701c0.031-0.368,0.116-0.833,0.177-0.973
		c0.267-0.693,0.958-1.303,1.792-1.819c0.125-0.074,0.649-0.417,0.664-0.425c1.218-0.845,2.303-2.066,3.006-3.89
		c0.914-1.81,1.435-3.855,1.435-6.022C28.118,13.86,22.104,7.873,14.689,7.869"/>
	<path style="fill:#333333;" d="M14.718,27.177c0-1.927-1.564-3.483-3.493-3.483c-1.926,0-3.492,1.557-3.493,3.483
		c0.001,1.925,1.567,3.481,3.493,3.481C13.154,30.658,14.718,29.102,14.718,27.177z"/>
</g>
</svg>
