<?xml version="1.0" encoding="iso-8859-1"?>
<!-- Generator: Adobe Illustrator 14.0.0, SVG Export Plug-In . SVG Version: 6.00 Build 43363)  -->
<!DOCTYPE svg PUBLIC "-//W3C//DTD SVG 1.1//EN" "http://www.w3.org/Graphics/SVG/1.1/DTD/svg11.dtd">
<svg version="1.1" id="icon-s-messaging-smiley-evil-layer"
	 xmlns="http://www.w3.org/2000/svg" xmlns:xlink="http://www.w3.org/1999/xlink" x="0px" y="0px" width="18px" height="18px"
	 viewBox="0 0 18 18" style="enable-background:new 0 0 18 18;" xml:space="preserve">
<g id="icon-s-messaging-smiley-evil">
	<rect style="fill:none;" width="18" height="18"/>
	<g>
		<circle style="fill:#FFCD0A;" cx="9" cy="9" r="8.5"/>
		<path style="fill:#040505;" d="M7.184,5.812c-0.307,0-0.616,0.096-0.88,0.296c-0.644,0.487-0.77,1.404-0.283,2.047
			c0.287,0.38,0.724,0.579,1.166,0.579c0.307,0,0.616-0.096,0.88-0.295C8.71,7.951,8.837,7.035,8.35,6.392
			C8.062,6.012,7.625,5.812,7.184,5.812L7.184,5.812z"/>
		<path style="fill:#FFFFFF;" d="M7.184,6.285c0.313,0,0.601,0.143,0.79,0.392c0.328,0.435,0.242,1.058-0.191,1.386
			c-0.173,0.131-0.379,0.2-0.596,0.2c-0.313,0-0.601-0.144-0.79-0.393C6.237,7.66,6.169,7.4,6.206,7.139
			c0.036-0.263,0.172-0.494,0.382-0.652C6.761,6.354,6.967,6.285,7.184,6.285"/>
		<path style="fill:#040505;" d="M5.321,5.122C5.14,4.997,5.094,4.751,5.218,4.57c0.124-0.183,0.372-0.229,0.553-0.105l3.071,2.09
			c0,0,0.001,0.001,0.002,0.001c0.18,0.124,0.227,0.373,0.103,0.553C8.824,7.291,8.576,7.337,8.394,7.214L5.323,5.123
			C5.322,5.123,5.321,5.122,5.321,5.122L5.321,5.122z"/>
		<path style="fill:#040505;" d="M10.726,5.812c-0.308,0-0.617,0.096-0.881,0.296c-0.644,0.487-0.77,1.404-0.282,2.047
			c0.287,0.38,0.724,0.579,1.166,0.579c0.307,0,0.616-0.096,0.88-0.295c0.644-0.488,0.771-1.404,0.283-2.048
			C11.604,6.012,11.167,5.812,10.726,5.812L10.726,5.812z"/>
		<path style="fill:#FFFFFF;" d="M10.726,6.285c0.312,0,0.601,0.143,0.79,0.392c0.328,0.435,0.242,1.058-0.191,1.386
			c-0.174,0.131-0.379,0.2-0.596,0.2c-0.313,0-0.602-0.144-0.79-0.393C9.779,7.66,9.711,7.4,9.747,7.139
			c0.036-0.263,0.172-0.494,0.383-0.652C10.303,6.354,10.509,6.285,10.726,6.285"/>
		<path style="fill:#040505;" d="M12.68,5.068c0.18-0.124,0.227-0.369,0.103-0.551c-0.123-0.184-0.371-0.229-0.554-0.106
			l-3.071,2.09c0,0.001,0,0.001-0.001,0.001C8.976,6.627,8.929,6.875,9.053,7.055c0.124,0.182,0.372,0.229,0.553,0.106l3.072-2.091
			C12.678,5.069,12.679,5.068,12.68,5.068L12.68,5.068z"/>
		<path style="fill:#333333;" d="M9.659,11.814"/>
		<path style="fill:#040505;" d="M9.089,11.507c-2.743,0-5.021-1.751-5.489-4.36C3.542,7.469,3.511,7.799,3.511,8.136
			c0,3.081,2.497,5.114,5.578,5.114s5.578-2.033,5.578-5.114c0-0.337-0.032-0.667-0.09-0.989
			C14.11,9.756,11.832,11.507,9.089,11.507z"/>
	</g>
</g>
</svg>
