<?xml version="1.0" encoding="iso-8859-1"?>
<!-- Generator: Adobe Illustrator 14.0.0, SVG Export Plug-In . SVG Version: 6.00 Build 43363)  -->
<!DOCTYPE svg PUBLIC "-//W3C//DTD SVG 1.1//EN" "http://www.w3.org/Graphics/SVG/1.1/DTD/svg11.dtd">
<svg version="1.1" id="icon-l-gallery-layer" xmlns="http://www.w3.org/2000/svg" xmlns:xlink="http://www.w3.org/1999/xlink"
	 x="0px" y="0px" width="80px" height="81px" viewBox="0 0 80 81" style="enable-background:new 0 0 80 81;" xml:space="preserve">
<g id="icon-l-gallery_1_">
	<path style="fill:#00A69C;" d="M25.447,49.189c-0.149,0.312-0.464,0.535-0.834,0.535h-3.708c-0.511,0-0.927-0.416-0.927-0.926
		v-3.668c0-0.508,0.416-0.928,0.927-0.928h3.708c0.371,0,0.685,0.223,0.834,0.535l0.08-22.314h0.014v-0.033h26.382v8.234h5.435
		v-8.201h2.329v-2.33H57.19c-0.511,0-0.929-1.244-0.929-1.758v-3.709c0-0.508,0.418-0.928,0.929-0.928h2.497V10H10v3.656v0.043h2.52
		c0.509,0,0.927,0.42,0.927,0.928v3.668c0,0.508-0.418,1.756-0.927,1.756H10v0.043v2.297v0.033h10.869v18.631H10v0.029v3.076v0.043
		h2.52c0.509,0,0.927,0.42,0.927,0.928v3.668c0,0.51-0.418,0.926-0.927,0.926H10v0.045v2.93h15.447V49.189z M44.205,14.627
		c0-0.508,0.418-0.928,0.928-0.928h3.71c0.509,0,0.927,0.42,0.927,0.928v3.709c0,0.514-0.418,1.758-0.927,1.758h-3.71
		c-0.51,0-0.928-1.244-0.928-1.758V14.627z M32.11,14.627c0-0.508,0.419-0.928,0.929-0.928h3.71c0.51,0,0.925,0.42,0.925,0.928
		v3.709c0,0.514-0.416,1.758-0.925,1.758h-3.71c-0.51,0-0.929-1.244-0.929-1.758V14.627z M19.978,18.295v-3.668
		c0-0.508,0.416-0.928,0.927-0.928h3.708c0.512,0,0.929,0.42,0.929,0.928v3.668c0,0.508-0.417,1.756-0.929,1.756h-3.708
		C20.394,20.051,19.978,18.803,19.978,18.295z M52.018,46.643c0-1.229,0.988-2.221,2.205-2.221c0.283,0,0.551,0.055,0.797,0.158
		c0.355-1.574,1.443-2.717,2.729-2.717c1.287,0,2.373,1.143,2.729,2.717c0.25-0.104,0.516-0.158,0.797-0.158
		c1.222,0,2.207,0.992,2.207,2.221c0,1.225-0.985,2.217-2.207,2.217c-0.556,0-1.061-0.219-1.45-0.557
		c-0.521,0.736-1.257,1.203-2.075,1.203s-1.553-0.467-2.073-1.203c-0.39,0.338-0.894,0.557-1.452,0.557
		C53.006,48.859,52.018,47.867,52.018,46.643z M63.138,63.996H36.549c6.158-23.094,12.799-14.197,16.088-6.592
		C58.115,45.281,63.138,63.996,63.138,63.996z M29.688,35.691V70H70V35.691H29.688z M33.119,66.568V39.037l33.45-0.027v27.559
		H33.119z"/>
	<rect style="fill:none;" width="80" height="80.002"/>
</g>
</svg>
