<?xml version="1.0" encoding="iso-8859-1"?>
<!-- Generator: Adobe Illustrator 14.0.0, SVG Export Plug-In . SVG Version: 6.00 Build 43363)  -->
<!DOCTYPE svg PUBLIC "-//W3C//DTD SVG 1.1//EN" "http://www.w3.org/Graphics/SVG/1.1/DTD/svg11.dtd">
<svg version="1.1" id="icon-m-common-favorite-unmark-layer"
	 xmlns="http://www.w3.org/2000/svg" xmlns:xlink="http://www.w3.org/1999/xlink" x="0px" y="0px" width="48px" height="48px"
	 viewBox="0 0 48 48" style="enable-background:new 0 0 48 48;" xml:space="preserve">
<g id="icon-m-common-favorite-unmark">
	<rect style="fill:none;" width="48" height="48"/>
	<path style="fill:#333333;" d="M46.896,18.141H31.416c-0.838,0-1.745-0.651-2.01-1.445L24.485,2.03
		c-0.267-0.796-0.703-0.796-0.97,0l-4.925,14.665c-0.267,0.794-1.172,1.445-2.011,1.445H1.105c-0.842,0-0.975,0.409-0.301,0.912
		l12.378,9.2c0.676,0.499,1.006,1.561,0.739,2.357l-5.08,15.128c-0.268,0.795,0.084,1.066,0.783,0.603l13.105-8.73
		c0.7-0.465,1.842-0.465,2.541,0l13.101,8.73c0.698,0.464,1.053,0.192,0.785-0.603l-5.08-15.128
		c-0.266-0.797,0.066-1.858,0.741-2.357l12.379-9.2C47.869,18.55,47.735,18.141,46.896,18.141z M33.699,26.748
		c-1.32,0.977-1.924,2.894-1.4,4.457l3.82,11.381l-9.809-6.536c-0.645-0.429-1.463-0.663-2.31-0.663
		c-0.846,0-1.666,0.234-2.308,0.661l-9.814,6.538l3.821-11.379c0.524-1.568-0.079-3.485-1.403-4.463l-9.052-6.728l11.336-0.001
		c1.637,0,3.266-1.17,3.788-2.723L24,6.479l3.628,10.813c0.519,1.553,2.147,2.725,3.788,2.725h11.341L33.699,26.748z"/>
</g>
</svg>
