<?xml version="1.0" encoding="iso-8859-1"?>
<!-- Generator: Adobe Illustrator 14.0.0, SVG Export Plug-In . SVG Version: 6.00 Build 43363)  -->
<!DOCTYPE svg PUBLIC "-//W3C//DTD SVG 1.1//EN" "http://www.w3.org/Graphics/SVG/1.1/DTD/svg11.dtd">
<svg version="1.1" id="icon-m-content-extension-layer"
	 xmlns="http://www.w3.org/2000/svg" xmlns:xlink="http://www.w3.org/1999/xlink" x="0px" y="0px" width="48px" height="48px"
	 viewBox="0 0 48 48" style="enable-background:new 0 0 48 48;" xml:space="preserve">
<g id="icon-m-content-extension">
	<rect style="fill:none;" width="48" height="48"/>
	<path style="fill:#333333;" d="M41.111,17.34l-7.459,0.012L33.633,3.15c0-0.909-0.631-1.652-1.398-1.65l-2.561,0.004
		c-0.768,0.001-1.396,0.746-1.396,1.656l0.019,14.201l-8.611,0.012l-0.021-14.2c-0.001-0.909-0.63-1.652-1.397-1.651l-2.562,0.005
		c-0.768,0.001-1.396,0.745-1.395,1.655l0.02,14.201L6.87,17.394l0.02,16.893c0.004,3.422,1.856,6.218,4.116,6.214L19,40.496V46.5
		h10v-6.01l8.029-0.006c2.26-0.004,4.105-2.83,4.102-6.252L41.111,17.34z"/>
</g>
</svg>
