<?xml version="1.0" encoding="iso-8859-1"?>
<!-- Generator: Adobe Illustrator 14.0.0, SVG Export Plug-In . SVG Version: 6.00 Build 43363)  -->
<!DOCTYPE svg PUBLIC "-//W3C//DTD SVG 1.1//EN" "http://www.w3.org/Graphics/SVG/1.1/DTD/svg11.dtd">
<svg version="1.1" id="icon-m-telephony-video-call-off-layer"
	 xmlns="http://www.w3.org/2000/svg" xmlns:xlink="http://www.w3.org/1999/xlink" x="0px" y="0px" width="48px" height="48px"
	 viewBox="0 0 48 48" style="enable-background:new 0 0 48 48;" xml:space="preserve">
<g id="icon-m-telephony-video-call-off_1_">
	<rect style="fill:none;" width="48" height="48"/>
	<path style="fill:#333333;" d="M32.189,41.205c-2.55,0.967-5.305,1.512-8.189,1.512c-5.24,0-10.078-1.746-13.97-4.684
		C5.841,40.493,3.184,44.044,3.106,48h35.878L32.189,41.205z"/>
	<path style="fill:#333333;" d="M21.454,12.438c0.796-0.288,1.651-0.454,2.546-0.454c4.137,0,7.5,3.363,7.5,7.496
		c0,0.896-0.166,1.752-0.455,2.549l8.793,8.794c2.292-3.194,3.646-7.108,3.646-11.34C43.483,8.721,34.76,0,24,0
		c-4.232,0-8.146,1.353-11.34,3.645L21.454,12.438z"/>
	<path style="fill:#333333;" d="M5.233,14.248c-0.464,1.666-0.717,3.421-0.717,5.235c0,10.762,8.723,19.483,19.484,19.483
		c1.814,0,3.567-0.254,5.234-0.719L5.233,14.248z"/>
	
		<rect x="-8.06" y="22.11" transform="matrix(0.7071 0.7071 -0.7071 0.7071 23.9849 -9.9349)" style="fill:#333333;" width="64.09" height="3.75"/>
</g>
</svg>
