<?xml version="1.0" encoding="iso-8859-1"?>
<!-- Generator: Adobe Illustrator 14.0.0, SVG Export Plug-In . SVG Version: 6.00 Build 43363)  -->
<!DOCTYPE svg PUBLIC "-//W3C//DTD SVG 1.1//EN" "http://www.w3.org/Graphics/SVG/1.1/DTD/svg11.dtd">
<svg version="1.1" id="icon-m-toolbar-stop-layer" xmlns="http://www.w3.org/2000/svg" xmlns:xlink="http://www.w3.org/1999/xlink"
	 x="0px" y="0px" width="32px" height="32px" viewBox="0 0 32 32" style="enable-background:new 0 0 32 32;" xml:space="preserve">
<g id="icon-m-toolbar-stop">
	<rect style="fill:none;" width="32" height="32"/>
	<path style="fill:#FFFFFF;" d="M26.209,5.816c-5.605-5.621-14.725-5.621-20.362,0c-5.641,5.628-5.666,14.74-0.058,20.365
		c5.608,5.625,14.725,5.625,20.368-0.002C31.793,20.556,31.818,11.442,26.209,5.816z M23.07,20.243c0.777,0.777,0.777,2.051,0,2.828
		c-0.777,0.778-2.051,0.778-2.828,0L16,18.83l-4.243,4.241c-0.778,0.778-2.05,0.778-2.828,0c-0.778-0.777-0.778-2.051,0-2.828
		L13.171,16l-4.243-4.242c-0.778-0.777-0.778-2.051,0-2.828c0.778-0.778,2.05-0.778,2.828,0L16,13.172l4.243-4.242
		c0.778-0.778,2.051-0.778,2.828,0c0.778,0.777,0.778,2.051,0,2.828L18.828,16L23.07,20.243z"/>
</g>
</svg>
