<?xml version="1.0" encoding="iso-8859-1"?>
<!-- Generator: Adobe Illustrator 14.0.0, SVG Export Plug-In . SVG Version: 6.00 Build 43363)  -->
<!DOCTYPE svg PUBLIC "-//W3C//DTD SVG 1.1//EN" "http://www.w3.org/Graphics/SVG/1.1/DTD/svg11.dtd">
<svg version="1.1" id="icon-m-energy-management-charging8-layer"
	 xmlns="http://www.w3.org/2000/svg" xmlns:xlink="http://www.w3.org/1999/xlink" x="0px" y="0px" width="48px" height="48px"
	 viewBox="0 0 48 48" style="enable-background:new 0 0 48 48;" xml:space="preserve">
<g id="icon-m-energy-management-charging8">
	<rect style="fill:none;" width="48" height="48"/>
	<path style="fill:#333333;" d="M19.207,43.568H4.587c-0.752,0-1.372-0.617-1.372-1.369V10.697c0-0.753,0.619-1.372,1.372-1.372
		h17.829c0.753,0,1.372,0.619,1.372,1.372v9.537c0.995-0.768,2.069-1.434,3.212-1.98V6.541c0-0.756-0.616-1.369-1.369-1.369h-7.353
		V3.115c0-0.755-0.616-1.373-1.37-1.373h-6.814c-0.753,0-1.37,0.618-1.37,1.373v2.057H1.371C0.617,5.172,0,5.785,0,6.541v38.344
		c0,0.756,0.617,1.371,1.371,1.371h19.762C20.412,45.424,19.767,44.525,19.207,43.568z"/>
	<path style="fill:#333333;" d="M16.745,34.498c0-4.608,1.744-8.816,4.604-12.005V12.225H5.802v28.498h12.053
		C17.138,38.783,16.745,36.686,16.745,34.498z"/>
	<path style="fill:#333333;" d="M40.611,37.082v2.756c-0.002,0.924-0.972,1.678-2.154,1.674l-5.836-0.023l0.012-3.05l-5.943-0.022
		c-0.314,0-0.57-0.258-0.569-0.574l0.005-1.047c0-0.312,0.259-0.569,0.572-0.567l5.948,0.021l0.008-3.532l-5.942-0.01
		c-0.315-0.002-0.568-0.26-0.568-0.574l0.002-1.047c0.002-0.316,0.26-0.571,0.574-0.57l5.943,0.011l0.012-3.039l5.836,0.006
		c1.183,0.005,2.145,0.765,2.143,1.688l-0.01,2.773L48,31.971c-1.185-6.246-6.664-10.973-13.255-10.973
		c-7.456,0-13.5,6.045-13.5,13.5c0,7.457,6.044,13.5,13.5,13.5c6.571,0,12.041-4.697,13.247-10.916H40.611z"/>
</g>
</svg>
