<?xml version="1.0" encoding="iso-8859-1"?>
<!-- Generator: Adobe Illustrator 14.0.0, SVG Export Plug-In . SVG Version: 6.00 Build 43363)  -->
<!DOCTYPE svg PUBLIC "-//W3C//DTD SVG 1.1//EN" "http://www.w3.org/Graphics/SVG/1.1/DTD/svg11.dtd">
<svg version="1.1" id="icon-m-common-packetdata-strength0-layer"
	 xmlns="http://www.w3.org/2000/svg" xmlns:xlink="http://www.w3.org/1999/xlink" x="0px" y="0px" width="48px" height="48px"
	 viewBox="0 0 48 48" style="enable-background:new 0 0 48 48;" xml:space="preserve">
<g id="icon-m-common-packetdata-strength0">
	<rect style="fill:none;" width="48" height="48"/>
	<g>
		<path style="fill:#333333;" d="M22,30.89c1.807-1,2.043-2.768,2.043-3.789c0-0.209-0.054-0.589-0.043-1.211H0l10,9
			c0,0,0-3.184,0-4H22z"/>
		<path style="fill:#333333;" d="M8.474,16.89c-0.497,0.192-2.557,1.581-2.557,4.545c0,0,0.083,0.081,0.083,0.455h24l-10-9
			c0,0,0,3.19,0,4H8.474z"/>
	</g>
	<g>
		<rect x="35" y="37.89" style="opacity:0.3;fill:#333333;" width="13" height="4"/>
		<rect x="35" y="29.89" style="opacity:0.3;fill:#333333;" width="13" height="4"/>
		<rect x="35" y="21.89" style="opacity:0.3;fill:#333333;" width="13" height="4"/>
		<rect x="35" y="13.89" style="opacity:0.3;fill:#333333;" width="13" height="4"/>
		<rect x="35" y="5.89" style="opacity:0.3;fill:#333333;" width="13" height="4"/>
	</g>
</g>
</svg>
