<?xml version="1.0" encoding="iso-8859-1"?>
<!-- Generator: Adobe Illustrator 14.0.0, SVG Export Plug-In . SVG Version: 6.00 Build 43363)  -->
<!DOCTYPE svg PUBLIC "-//W3C//DTD SVG 1.1//EN" "http://www.w3.org/Graphics/SVG/1.1/DTD/svg11.dtd">
<svg version="1.1" id="icon-s-common-gtalk-layer" xmlns="http://www.w3.org/2000/svg" xmlns:xlink="http://www.w3.org/1999/xlink"
	 x="0px" y="0px" width="21px" height="18px" viewBox="0 0 21 18" style="enable-background:new 0 0 21 18;" xml:space="preserve">
<g id="icon-s-common-gtalk">
	<rect style="fill:none;" width="21" height="18"/>
	<g>
		<path style="fill:#FFFFFF;" d="M10.5,1c4.508,0,8.41,2.227,9.277,5.292c0.116,0.412,0.175,0.833,0.175,1.251
			c0,0.176-0.013,0.365-0.039,0.568l-0.009,0.052l-0.02,0.107c-0.022,0.136-0.048,0.273-0.082,0.409
			c-0.018,0.056-0.033,0.113-0.047,0.169c-0.698,2.34-3.174,4.233-6.443,4.937l-2.012,0.375l-0.49,0.092l-0.222,0.446
			c-0.442,0.887-1.507,1.459-2.582,1.813c0.235-0.54,0.384-1.075,0.479-1.544l0.196-0.968L7.717,13.79
			c-3.31-0.712-5.792-2.617-6.47-4.949c-0.01-0.039-0.022-0.077-0.043-0.145c-0.038-0.14-0.065-0.282-0.086-0.411L1.102,8.191
			L1.091,8.119C1.062,7.895,1.049,7.711,1.049,7.542c0-0.421,0.059-0.841,0.176-1.249C2.093,3.226,5.994,1,10.5,1 M10.5,0
			C5.449,0,1.235,2.585,0.263,6.021c-0.141,0.49-0.214,1-0.214,1.521c0,0.237,0.021,0.473,0.05,0.703
			c0.008,0.065,0.021,0.126,0.03,0.19c0.029,0.176,0.063,0.35,0.109,0.521C0.251,9.003,0.268,9.05,0.28,9.098
			c0.789,2.711,3.587,4.887,7.227,5.67C7.313,15.729,6.819,17.161,5.593,18c0,0,4.604-0.271,5.892-2.857l2.012-0.375
			c3.639-0.783,6.438-2.959,7.229-5.67c0.01-0.047,0.023-0.095,0.039-0.142c0.045-0.173,0.078-0.347,0.107-0.521
			c0.01-0.063,0.024-0.125,0.033-0.189c0.029-0.231,0.048-0.466,0.048-0.703c0-0.521-0.073-1.028-0.212-1.521
			C19.768,2.585,15.551,0,10.5,0L10.5,0z"/>
	</g>
</g>
</svg>
