<?xml version="1.0" encoding="iso-8859-1"?>
<!-- Generator: Adobe Illustrator 14.0.0, SVG Export Plug-In . SVG Version: 6.00 Build 43363)  -->
<!DOCTYPE svg PUBLIC "-//W3C//DTD SVG 1.1//EN" "http://www.w3.org/Graphics/SVG/1.1/DTD/svg11.dtd">
<svg version="1.1" id="icon-l-music-layer" xmlns="http://www.w3.org/2000/svg" xmlns:xlink="http://www.w3.org/1999/xlink" x="0px"
	 y="0px" width="80px" height="81px" viewBox="0 0 80 81" style="enable-background:new 0 0 80 81;" xml:space="preserve">
<g id="icon-l-music_1_">
	<path style="fill:#EC297B;" d="M57.831,43.664c-2.571-0.946-5.889-0.644-8.954,1.062c-4.969,2.771-7.18,7.95-5.028,11.83
		c2.142,3.869,7.729,4.758,12.685,2.003c3.285-1.812,5.391-4.712,5.797-7.591c0.035-0.344,0.056-0.48,0.056-0.714v-5.79V9.666
		c0-0.584-0.42-0.836-0.93-0.544L33.343,24.655c-0.505,0.276-0.915,0.984-0.915,1.581v28.258c-2.583-0.927-5.91-0.623-8.964,1.084
		c-4.973,2.75-7.172,7.936-5.034,11.807c2.148,3.879,7.727,4.771,12.69,2.021c3.284-1.822,5.456-4.717,5.846-7.592
		c0.024-0.314,0.056-0.48,0.056-0.715V38.729c0-0.45,0.421-1.286,0.926-1.572l18.909-10.449c0.505-0.277,0.925-0.03,0.925,0.549
		v18.088"/>
	<rect style="fill:none;" width="80" height="80"/>
</g>
</svg>
