<?xml version="1.0" encoding="iso-8859-1"?>
<!-- Generator: Adobe Illustrator 14.0.0, SVG Export Plug-In . SVG Version: 6.00 Build 43363)  -->
<!DOCTYPE svg PUBLIC "-//W3C//DTD SVG 1.1//EN" "http://www.w3.org/Graphics/SVG/1.1/DTD/svg11.dtd">
<svg version="1.1" id="icon-m-image-edit-color-layer"
	 xmlns="http://www.w3.org/2000/svg" xmlns:xlink="http://www.w3.org/1999/xlink" x="0px" y="0px" width="48px" height="48px"
	 viewBox="0 0 48 48" style="enable-background:new 0 0 48 48;" xml:space="preserve">
<g id="icon-m-image-edit-color">
	<rect style="fill:none;" width="48" height="48"/>
	<path style="fill:#333333;" d="M18.851,36.383c1.508-1.041,3.15-1.624,4.884-1.733l0.223-0.481l2.5-4.343
		c1.006-1.749,2.219-3.557,3.605-5.374c1.973-2.586,4.808-5.778,7.438-8.381c-3.127-5.203-10.3-8.843-18.655-8.843
		c-3.658,0-7.342,0.696-10.672,2.185c-1.791,0.799-3.567,1.728-5.11,2.947c-1.165,0.92-2.779,2.653-2.464,4.289
		c0.172,0.896,0.581,1.48,1.343,1.941c1.329,0.802,2.818,1.08,4.338,1.309c2.931,0.441,5.884,1.258,6.527,4.608
		c0.625,3.252-3.923,5.247-2.531,8.548c1.352,3.207,5.251,3.516,8.321,3.529C18.684,36.52,18.761,36.445,18.851,36.383z
		 M29.169,12.923c1.863,0.083,3.305,1.659,3.222,3.521s-1.659,3.306-3.523,3.222c-1.86-0.083-3.303-1.659-3.22-3.521
		C25.73,14.283,27.307,12.84,29.169,12.923z M19.752,10.145c1.862,0.082,3.305,1.658,3.221,3.521
		c-0.083,1.863-1.659,3.306-3.522,3.223c-1.862-0.083-3.304-1.66-3.221-3.523C16.313,11.503,17.89,10.061,19.752,10.145z
		 M10.035,18.096c-1.863-0.084-3.304-1.659-3.221-3.521c0.083-1.861,1.66-3.304,3.521-3.222c1.863,0.083,3.304,1.659,3.222,3.522
		C13.473,16.736,11.896,18.179,10.035,18.096z M20.205,24.146c2.233,0,4.043,1.81,4.043,4.043s-1.81,4.042-4.043,4.042
		s-4.043-1.809-4.043-4.042S17.972,24.146,20.205,24.146z"/>
	<path style="fill:#333333;" d="M46.155,15.254c-1.22-0.918-8.959,6.929-12.916,12.114c-1.262,1.654-2.347,3.281-3.199,4.763
		l3.864,2.907c1.204-1.216,2.489-2.692,3.752-4.346C41.612,25.505,47.375,16.171,46.155,15.254z"/>
	<polygon style="fill:#333333;" points="25.967,38.979 28.457,40.854 32.655,36.754 28.805,33.856 	"/>
	<path style="fill:#333333;" d="M22.852,39.787h-0.089c-0.713,0.045-1.36,0.283-2.019,0.738c-0.649,0.448-1.126,1.034-1.4,1.655
		l-0.24,0.651c-0.314,0.705-0.87,1.378-1.599,1.937c-1.047,0.8-2.243,1.165-3.255,1.084c1.175,1.188,4.791,1.542,7.215,1.347
		c0.647-0.033,1.231-0.103,1.691-0.205c2.453-0.544,4.083-2.565,3.645-4.519c-0.352-1.56-1.917-2.602-3.784-2.681h-0.003"/>
</g>
</svg>
