<?xml version="1.0" encoding="iso-8859-1"?>
<!-- Generator: Adobe Illustrator 14.0.0, SVG Export Plug-In . SVG Version: 6.00 Build 43363)  -->
<!DOCTYPE svg PUBLIC "-//W3C//DTD SVG 1.1//EN" "http://www.w3.org/Graphics/SVG/1.1/DTD/svg11.dtd">
<svg version="1.1" id="icon-m-camera-video-priority-layer"
	 xmlns="http://www.w3.org/2000/svg" xmlns:xlink="http://www.w3.org/1999/xlink" x="0px" y="0px" width="48px" height="48px"
	 viewBox="0 0 48 48" style="enable-background:new 0 0 48 48;" xml:space="preserve">
<g id="icon-m-camera-video-priority">
	<rect style="fill:none;" width="48" height="48"/>
	<path style="fill:#333333;" d="M28.039,12.313C23.494,14.445,14.466,22.38,12.32,28.005c-0.939,2.462,0.983,6.356,2.502,7.563
		c-0.001,0.009,0.782,0.656,1.368-0.008l4.091-5.511c0.28-0.357,0.553-0.825-0.01-1.384c0,0-2.833-2.037-2.013-3.341
		c0.572-0.899,6.202-6.522,7.104-7.091c1.308-0.822,3.352,2.004,3.352,2.004c0.564,0.562,1.03,0.28,1.389,0.008l5.525-4.089
		c0.668-0.592,0.013-1.369,0.009-1.369C34.42,13.285,30.438,11.188,28.039,12.313z"/>
	<path style="fill:#333333;" d="M24.002,0.677C11.161,0.678,0.751,11.094,0.75,23.94C0.751,36.77,11.161,47.175,24.002,47.177
		C36.602,47.175,47.248,36.221,47.25,23.94C47.248,11.094,36.838,0.678,24.002,0.677z M36.269,39.276l0.081,0.082
		c-3.384,2.711-7.674,4.341-12.347,4.348C13.079,43.688,4.24,34.85,4.219,23.94c0.01-4.679,1.639-8.974,4.354-12.36 M11.654,8.498
		c3.385-2.714,7.674-4.343,12.349-4.35V4.146C34.916,4.166,43.76,13.011,43.78,23.94c-0.009,4.667-1.637,8.955-4.349,12.337
		l-0.27-0.27l-6.241-6.242l0,0"/>
</g>
</svg>
