<?xml version="1.0" encoding="iso-8859-1"?>
<!-- Generator: Adobe Illustrator 14.0.0, SVG Export Plug-In . SVG Version: 6.00 Build 43363)  -->
<!DOCTYPE svg PUBLIC "-//W3C//DTD SVG 1.1//EN" "http://www.w3.org/Graphics/SVG/1.1/DTD/svg11.dtd">
<svg version="1.1" id="icon-m-help-associative-browsing-layer"
	 xmlns="http://www.w3.org/2000/svg" xmlns:xlink="http://www.w3.org/1999/xlink" x="0px" y="0px" width="48px" height="48px"
	 viewBox="0 0 48 48" style="enable-background:new 0 0 48 48;" xml:space="preserve">
<g id="icon-m-help-associative-browsing_1_">
	<rect style="fill:none;" width="48" height="48"/>
	<path style="fill:#333333;" d="M41.918,19.972c-2.293,0-4.217,1.351-4.82,3.195h-8.189c-0.16-0.91-0.489-1.759-0.96-2.518
		l3.948-5.172c0.539,0.171,1.115,0.271,1.722,0.271c2.772,0,5.018-1.977,5.018-4.417c0-2.438-2.245-4.416-5.018-4.416
		s-5.021,1.978-5.021,4.416c0,1.151,0.506,2.195,1.324,2.98l-3.495,4.581c-1.26-1.048-2.882-1.679-4.656-1.679
		c-1.282,0-2.484,0.332-3.53,0.91l-6.048-6.146c0.87-0.796,1.409-1.874,1.409-3.063c0-2.438-2.249-4.415-5.021-4.415
		c-2.771,0-5.022,1.978-5.022,4.415c0,2.44,2.251,4.418,5.022,4.418c0.538,0,1.057-0.076,1.541-0.215l6.319,6.418
		c-1.191,1.279-1.923,2.981-1.923,4.855c0,1.085,0.249,2.109,0.685,3.031L9.05,31.141c-0.833-0.539-1.856-0.861-2.97-0.861
		c-2.775,0-5.021,1.976-5.021,4.418c0,2.441,2.246,4.418,5.021,4.418c2.772,0,5.019-1.977,5.019-4.418
		c0-0.663-0.171-1.289-0.466-1.854l5.858-3.539c1.32,1.391,3.195,2.267,5.28,2.267c1.629,0,3.125-0.538,4.335-1.436l4.497,5.899
		c-0.859,0.793-1.392,1.865-1.392,3.047c0,2.441,2.25,4.419,5.021,4.419c2.773,0,5.02-1.978,5.02-4.419
		c0-2.439-2.246-4.418-5.02-4.418c-0.57,0-1.116,0.089-1.626,0.242l-4.89-6.413c0.627-0.89,1.051-1.927,1.219-3.048h8.114
		c0.536,1.93,2.508,3.363,4.868,3.363c2.771,0,5.023-1.979,5.023-4.418S44.688,19.972,41.918,19.972z"/>
</g>
</svg>
