<?xml version="1.0" encoding="iso-8859-1"?>
<!-- Generator: Adobe Illustrator 14.0.0, SVG Export Plug-In . SVG Version: 6.00 Build 43363)  -->
<!DOCTYPE svg PUBLIC "-//W3C//DTD SVG 1.1//EN" "http://www.w3.org/Graphics/SVG/1.1/DTD/svg11.dtd">
<svg version="1.1" id="icon-m-common-undo-layer" xmlns="http://www.w3.org/2000/svg" xmlns:xlink="http://www.w3.org/1999/xlink"
	 x="0px" y="0px" width="48px" height="48px" viewBox="0 0 48 48" style="enable-background:new 0 0 48 48;" xml:space="preserve">
<g id="icon-m-common-undo_2_">
	<rect style="fill:none;" width="48" height="48"/>
	<path style="fill:#333333;" d="M40.447,6.77H17.386l-0.003,0.01c-1.9-0.075-3.828,0.555-5.344,1.92l-4.146,3.73L3.728,7.882
		C3.511,7.645,3.283,7.71,3.215,8.02L0.012,23.105c-0.064,0.315,0.138,0.538,0.456,0.502l15.31-1.865
		c0.315-0.042,0.4-0.262,0.183-0.5l-4.244-4.634l2.572-2.314h0.004c1.323-1.149,3.039-1.858,4.921-1.858l21.233-0.001
		c1.023,0,1.888,0.866,1.888,1.889v19.355c0,1.022-0.864,1.889-1.888,1.889H14.247v5.663h26.201c4.154,0,7.553-3.398,7.553-7.552
		V14.323C48,10.169,44.602,6.77,40.447,6.77z"/>
</g>
</svg>
