<?xml version="1.0" encoding="iso-8859-1"?>
<!-- Generator: Adobe Illustrator 14.0.0, SVG Export Plug-In . SVG Version: 6.00 Build 43363)  -->
<!DOCTYPE svg PUBLIC "-//W3C//DTD SVG 1.1//EN" "http://www.w3.org/Graphics/SVG/1.1/DTD/svg11.dtd">
<svg version="1.1" id="icon-m-common-volume-layer" xmlns="http://www.w3.org/2000/svg" xmlns:xlink="http://www.w3.org/1999/xlink"
	 x="0px" y="0px" width="48px" height="48px" viewBox="0 0 48 48" style="enable-background:new 0 0 48 48;" xml:space="preserve">
<g id="icon-m-common-volume">
	<rect style="fill:none;" width="48" height="48"/>
	<path style="fill:#333333;" d="M25.432,7.323h-0.645c-0.15,0-0.368,0.081-0.487,0.177l-11.162,9.244H0v14.418h13.025L24.327,40.5
		c0.119,0.102,0.337,0.178,0.487,0.178h0.645c0.144,0,0.266-0.143,0.266-0.314L25.697,7.639C25.697,7.465,25.574,7.323,25.432,7.323
		z"/>
	<path style="fill:#333333;" d="M41.381,7.873c-0.534-0.404-1.295-0.289-1.708,0.255c-0.4,0.542-0.283,1.321,0.264,1.729
		c3.468,2.627,5.634,7.813,5.634,13.534c0,5.711-2.166,10.91-5.634,13.533c-0.547,0.405-0.664,1.172-0.264,1.722
		c0.413,0.545,1.174,0.657,1.708,0.256C45.461,35.809,48,29.869,48,23.392C48,16.904,45.461,10.967,41.381,7.873z"/>
	<path style="fill:#333333;" d="M37.881,16.742c0,0-0.029-0.088-0.051-0.131c-0.256-0.605-0.867-1.71-0.867-1.71
		c-0.654-1.136-1.321-2.007-2.319-2.944c-0.354-0.343-0.749-0.638-1.13-0.932c-0.084-0.063-0.175-0.107-0.27-0.145
		c-0.523-0.283-1.189-0.143-1.566,0.367c-0.328,0.449-0.312,1.053-0.004,1.496c0.084,0.15,0.25,0.311,0.343,0.396
		c0.572,0.528,1.187,1.041,1.712,1.673c0.194,0.239,0.382,0.485,0.565,0.745c1.362,2.104,2.182,4.916,2.182,7.93
		c0,2.979-0.775,5.767-2.115,7.872c-0.688,0.948-1.47,1.719-2.319,2.438c-0.532,0.453-0.675,1.228-0.267,1.787
		c0.417,0.564,1.181,0.709,1.764,0.328c0.402-0.264,0.776-0.525,1.13-0.868c1.108-0.933,1.983-2.312,2.726-3.724h-0.019
		c1.151-2.249,1.803-4.972,1.803-7.834C39.178,21.074,38.714,18.758,37.881,16.742z"/>
</g>
</svg>
