<?xml version="1.0" encoding="iso-8859-1"?>
<!-- Generator: Adobe Illustrator 14.0.0, SVG Export Plug-In . SVG Version: 6.00 Build 43363)  -->
<!DOCTYPE svg PUBLIC "-//W3C//DTD SVG 1.1//EN" "http://www.w3.org/Graphics/SVG/1.1/DTD/svg11.dtd">
<svg version="1.1" id="icon-l-extras-layer" xmlns="http://www.w3.org/2000/svg" xmlns:xlink="http://www.w3.org/1999/xlink"
	 x="0px" y="0px" width="80px" height="81px" viewBox="0 0 80 81" style="enable-background:new 0 0 80 81;" xml:space="preserve">
<g id="icon-l-extras_1_">
	<path style="fill:#63C0CF;" d="M54.889,18.486h-8.486V10h8.486V18.486z M60.42,42.848H41.867v-5.4c0-0.514-0.422-0.938-0.938-0.938
		H32.17V25.832h10.361V13.359H30.06v10.092H18.643c-0.518,0-0.939,0.418-0.939,0.938v12.59c0,0.516,0.422,0.938,0.939,0.938h2.658
		v18.225c0,0.512,0.422,0.934,0.938,0.934h12.903v11.049c0,1.031,0.845,1.877,1.877,1.877H60.42c1.031,0,1.877-0.846,1.877-1.877
		V44.721C62.297,43.688,61.451,42.848,60.42,42.848z"/>
	<rect style="fill:none;" width="80" height="80.002"/>
</g>
</svg>
