<?xml version="1.0" encoding="iso-8859-1"?>
<!-- Generator: Adobe Illustrator 14.0.0, SVG Export Plug-In . SVG Version: 6.00 Build 43363)  -->
<!DOCTYPE svg PUBLIC "-//W3C//DTD SVG 1.1//EN" "http://www.w3.org/Graphics/SVG/1.1/DTD/svg11.dtd">
<svg version="1.1" id="icon-l-help-layer" xmlns="http://www.w3.org/2000/svg" xmlns:xlink="http://www.w3.org/1999/xlink" x="0px"
	 y="0px" width="80px" height="81px" viewBox="0 0 80 81" style="enable-background:new 0 0 80 81;" xml:space="preserve">
<g id="icon-l-help_1_">
	<linearGradient id="SVGID_1_" gradientUnits="userSpaceOnUse" x1="39.9995" y1="14.9502" x2="39.9995" y2="253.9801">
		<stop  offset="0" style="stop-color:#FFFFFF"/>
		<stop  offset="1" style="stop-color:#B2B2C9"/>
	</linearGradient>
	<path style="fill:url(#SVGID_1_);" d="M40,10c-16.57,0-30,13.434-30,30c0,16.567,13.43,30,30,30c16.568,0,30-13.433,30-30
		C70,23.434,56.568,10,40,10z M40,64.375c-13.441,0-24.375-10.936-24.375-24.375S26.559,15.625,40,15.625
		c13.439,0,24.375,10.936,24.375,24.375S53.439,64.375,40,64.375z M42.697,52.982c0,2.516-2.057,4.516-4.576,4.516
		c-2.515,0-4.521-2-4.521-4.516s2.006-4.566,4.521-4.566C40.641,48.416,42.697,50.467,42.697,52.982z M49.428,30.623
		c0,3.812-2.345,5.879-4.55,7.989c-2.25,2.11-3.215,3.211-3.215,5.095v1.883h-7.875v-2.203c0-3.169,1.561-5.053,3.951-7.256
		c1.745-1.604,3.214-2.98,3.214-5.14c0-2.662-1.745-4.084-4.641-4.084c-1.56,0-3.672,0.367-5.741,0.919V23.42
		c2.158-0.506,5.533-0.922,7.968-0.922C44.421,22.498,49.428,24.473,49.428,30.623z"/>
	<rect style="fill:none;" width="80" height="80.001"/>
</g>
</svg>
