<?xml version="1.0" encoding="iso-8859-1"?>
<!-- Generator: Adobe Illustrator 14.0.0, SVG Export Plug-In . SVG Version: 6.00 Build 43363)  -->
<!DOCTYPE svg PUBLIC "-//W3C//DTD SVG 1.1//EN" "http://www.w3.org/Graphics/SVG/1.1/DTD/svg11.dtd">
<svg version="1.1" id="icon-m-content-excel-layer" xmlns="http://www.w3.org/2000/svg" xmlns:xlink="http://www.w3.org/1999/xlink"
	 x="0px" y="0px" width="48px" height="48px" viewBox="0 0 48 48" style="enable-background:new 0 0 48 48;" xml:space="preserve">
<g id="icon-m-content-excel_2_">
	<rect style="fill:none;" width="48" height="48"/>
	<polygon style="fill:#333333;" points="29,0.27 29,16.677 44.904,16.677 44.904,16.171 	"/>
	<path style="fill:#333333;" d="M28.614,20.547c-1.921,0-3.483-1.562-3.483-3.482V0H4.646c-0.851,0-1.55,0.697-1.55,1.549v44.902
		c0,0.853,0.699,1.549,1.55,1.549h38.711c0.85,0,1.548-0.696,1.548-1.549V20.547H28.614z M25.562,23.237
		c1.344-0.68,3.22,0.333,4.182,2.237c0.957,1.926,0.646,4.031-0.707,4.706c-1.345,0.667-3.221-0.333-4.184-2.246
		C23.896,26.007,24.207,23.901,25.562,23.237z M13.208,43.943c-2.108,0-3.819-1.51-3.819-3.376c0-1.868,1.71-3.374,3.819-3.374
		c2.11,0,3.815,1.506,3.815,3.374C17.023,42.434,15.319,43.943,13.208,43.943z M31.213,39.961c-0.6,0.057-1.106-0.093-1.625-0.37
		c-0.67-0.358-0.951-0.896-1.4-1.474c-0.295-0.379-0.598-0.747-0.869-1.146c-0.265-0.389-0.487-0.822-0.891-1.076
		c-1-0.631-2.446-0.305-3.519-0.09c-0.547,0.11-1.113,0.224-1.664,0.277c-0.687,0.064-1.31,0.097-1.905,0.097
		c-1.925,0-3.484-0.336-4.766-1.026c-1.597-0.871-2.872-2.077-3.9-3.686c-1.047-1.641-1.709-3.046-2.083-4.422
		c-0.39-1.445-0.553-2.713-0.484-3.768c0.004-0.142,0.018-0.272,0.042-0.428c0.245-1.607,1.619-2.565,3.452-2.407
		c2.57,0.236,4.467,1.24,5.488,2.903c0.602,0.996,0.918,1.934,1.026,3.042c0.022,0.222,0.04,0.445,0.058,0.669
		c0.066,0.83,0.127,1.613,0.42,2.338c0.348,0.858,0.985,1.597,1.798,2.044c0.799,0.44,1.717,0.492,2.61,0.493
		c0.922,0.002,1.577-0.048,2.584-0.13c0.472-0.038,1.056-0.12,1.522-0.104c1.348,0.047,2.682,0.449,3.688,1.375
		c0.777,0.715,1.392,1.63,1.746,2.625c0.063,0.176,0.118,0.354,0.162,0.536C33.008,37.469,32.896,39.8,31.213,39.961z"/>
</g>
</svg>
