<?xml version="1.0" encoding="iso-8859-1"?>
<!-- Generator: Adobe Illustrator 14.0.0, SVG Export Plug-In . SVG Version: 6.00 Build 43363)  -->
<!DOCTYPE svg PUBLIC "-//W3C//DTD SVG 1.1//EN" "http://www.w3.org/Graphics/SVG/1.1/DTD/svg11.dtd">
<svg version="1.1" id="icon-s-settings-layer" xmlns="http://www.w3.org/2000/svg" xmlns:xlink="http://www.w3.org/1999/xlink"
	 x="0px" y="0px" width="18px" height="18px" viewBox="0 0 18 18" style="enable-background:new 0 0 18 18;" xml:space="preserve">
<g id="icon-s-settings_1_">
	<rect style="fill:none;" width="18" height="18"/>
	<path style="fill:#333333;" d="M17.728,14.549l-7.439-7.445c0.366-0.492,2.153-3.734-2.127-6.211
		C6.233-0.223,3.305-0.261,4.166,0.602l3.427,3.43C7.052,5.68,5.885,7.103,4.011,7.611L0.569,4.162
		C0.104,3.695,0.011,4.341,0.011,5.608c0,1.535,2.538,7.185,7.081,4.671l7.451,7.459c0.352,0.349,0.92,0.349,1.273,0l1.91-1.913
		C18.077,15.472,18.077,14.9,17.728,14.549z"/>
</g>
</svg>
