<?xml version="1.0" encoding="iso-8859-1"?>
<!-- Generator: Adobe Illustrator 14.0.0, SVG Export Plug-In . SVG Version: 6.00 Build 43363)  -->
<!DOCTYPE svg PUBLIC "-//W3C//DTD SVG 1.1//EN" "http://www.w3.org/Graphics/SVG/1.1/DTD/svg11.dtd">
<svg version="1.1" id="icon-m-content-debian-layer"
	 xmlns="http://www.w3.org/2000/svg" xmlns:xlink="http://www.w3.org/1999/xlink" x="0px" y="0px" width="48px" height="48px"
	 viewBox="0 0 48 48" style="enable-background:new 0 0 48 48;" xml:space="preserve">
<g id="icon-m-content-debian">
	<rect style="fill-rule:evenodd;clip-rule:evenodd;fill:none;" width="48" height="48"/>
	<path style="fill-rule:evenodd;clip-rule:evenodd;fill:#333333;" d="M24,0L0,24l24,24l24-24L24,0z M27.271,30.053
		c-2.422-0.021-4.613-1.006-6.095-2.703c-1.405-1.609-2.021-3.734-1.734-5.984c0.37-2.923,2.745-5.246,5.646-5.524
		c2.689-0.257,4.904,1.036,5.715,3.25c0.568,1.547,0.417,3.116-0.414,4.306c-0.85,1.219-2.276,1.848-3.9,1.67
		c-0.229-0.025-0.41-0.203-0.439-0.432c-0.03-0.229,0.1-0.448,0.314-0.531c1.191-0.461,2.271-0.976,2.391-2.182
		c0.141-1.381-0.941-2.936-2.185-3.141c-2.507-0.416-4.06,1.518-4.185,3.332c-0.138,2.08,1.333,3.969,2.836,4.594
		c0.631,0.264,1.305,0.396,2.002,0.396c2.232,0,4.297-1.357,5.184-2.7c0.801-1.206,1.224-3.296,1.007-4.968
		c-0.53-4.079-3.7-6.8-8.075-6.932c-6.076-0.17-10.819,4.416-10.859,10.553c-0.018,2.458,0.544,4.744,1.67,6.797
		c2.066,3.748,5.008,6.187,9.26,7.676c0.233,0.081,0.372,0.321,0.326,0.564c-0.046,0.236-0.252,0.406-0.491,0.406
		c-0.007,0-0.014,0-0.021,0c-7.613-0.314-13.115-5.855-13.69-13.785C10.95,16.73,16.127,10.213,23.575,9.558
		c6.946-0.613,12.301,3.674,12.889,9.983c0.267,2.863-0.587,5.539-2.405,7.535C32.311,28.996,29.9,30.053,27.271,30.053z"/>
</g>
</svg>
