<?xml version="1.0" encoding="iso-8859-1"?>
<!-- Generator: Adobe Illustrator 14.0.0, SVG Export Plug-In . SVG Version: 6.00 Build 43363)  -->
<!DOCTYPE svg PUBLIC "-//W3C//DTD SVG 1.1//EN" "http://www.w3.org/Graphics/SVG/1.1/DTD/svg11.dtd">
<svg version="1.1" id="icon-m-common-alarm-screen-layer"
	 xmlns="http://www.w3.org/2000/svg" xmlns:xlink="http://www.w3.org/1999/xlink" x="0px" y="0px" width="48px" height="48px"
	 viewBox="0 0 48 48" style="enable-background:new 0 0 48 48;" xml:space="preserve">
<g id="icon-m-common-alarm-screen">
	<rect style="fill:none;" width="48" height="48"/>
	<path style="fill:#FFFFFF;" d="M44.547,15.932c-1.265-1.288-2.599-1.589-4.269-2.23c-4.016-1.542-7.975-3.812-11.319-6.524
		c-2.246-1.822-4.322-3.312-7.083-4.387C16.028,0.515,9.859,1.139,5.245,5.561l-0.06,0.059c-4.422,4.615-5.047,10.783-2.771,16.633
		c1.076,2.76,2.565,4.836,4.388,7.082c2.711,3.346,4.982,7.304,6.523,11.319c0.642,1.67,0.942,3.003,2.229,4.269
		c0.875,0.859,0.917,0.916,1.784,1.781c0.578,0.578,1.726,0.777,2.305,0.2L33.057,33.49l0.059-0.059L46.528,20.02
		c0.579-0.579,0.378-1.727-0.2-2.305C45.462,16.848,45.405,16.805,44.547,15.932z"/>
	<path style="fill:#FFFFFF;" d="M31.358,39.821c1.253,2.083,3.528,3.481,6.134,3.481c3.954,0,7.16-3.205,7.16-7.16
		c0-2.607-1.397-4.882-3.48-6.134L31.358,39.821z"/>
</g>
</svg>
