<?xml version="1.0" encoding="iso-8859-1"?>
<!-- Generator: Adobe Illustrator 14.0.0, SVG Export Plug-In . SVG Version: 6.00 Build 43363)  -->
<!DOCTYPE svg PUBLIC "-//W3C//DTD SVG 1.1//EN" "http://www.w3.org/Graphics/SVG/1.1/DTD/svg11.dtd">
<svg version="1.1" id="icon-m-camera-location-layer"
	 xmlns="http://www.w3.org/2000/svg" xmlns:xlink="http://www.w3.org/1999/xlink" x="0px" y="0px" width="32px" height="32px"
	 viewBox="0 0 32 32" style="enable-background:new 0 0 32 32;" xml:space="preserve">
<g id="icon-m-camera-location">
	<rect style="fill:none;" width="32" height="32"/>
	<path style="fill:#FFFFFF;" d="M16,0.049c-5.241,0.06-9.471,3.875-9.471,8.58c0,1.503,0.433,2.914,1.19,4.143h0
		c0.252,0.409,1.681,2.448,2.001,2.813c3.293,4.705,4.917,10.232,6.209,16.366h0.141c1.292-6.134,2.916-11.661,6.209-16.366
		c0.32-0.365,1.749-2.404,2.001-2.813l0.001-0.001c0.757-1.229,1.189-2.64,1.189-4.143C25.471,3.924,21.241,0.108,16,0.049z
		 M16.178,11.597c-1.711,0-3.097-1.382-3.097-3.088s1.386-3.088,3.097-3.088c1.709,0,3.097,1.382,3.097,3.088
		S17.887,11.597,16.178,11.597z"/>
</g>
</svg>
