<?xml version="1.0" encoding="iso-8859-1"?>
<!-- Generator: Adobe Illustrator 14.0.0, SVG Export Plug-In . SVG Version: 6.00 Build 43363)  -->
<!DOCTYPE svg PUBLIC "-//W3C//DTD SVG 1.1//EN" "http://www.w3.org/Graphics/SVG/1.1/DTD/svg11.dtd">
<svg version="1.1" id="icon-m-content-playlist-auto-layer"
	 xmlns="http://www.w3.org/2000/svg" xmlns:xlink="http://www.w3.org/1999/xlink" x="0px" y="0px" width="48px" height="49px"
	 viewBox="0 0 48 49" style="enable-background:new 0 0 48 49;" xml:space="preserve">
<g id="icon-m-content-playlist-auto_2_">
	<rect style="fill:none;" width="48" height="48"/>
	<path style="fill:#333333;" d="M33.992,0H10.884c-0.691,0-1.27,0.565-1.27,1.258L9.612,23.717
		c-1.676-0.602-3.834-0.404-5.817,0.703c-3.226,1.784-4.653,5.148-3.266,7.66c1.394,2.518,5.014,3.097,8.234,1.313
		c2.131-1.183,3.54-3.061,3.794-4.927c0.015-0.205,0.036-0.311,0.036-0.463l0.009-18.092c0-0.691,0.578-1.257,1.27-1.257h20.12
		c0.692,0,1.258-0.566,1.258-1.259V1.258C35.25,0.565,34.685,0,33.992,0z"/>
	<rect x="16.81" y="12.426" style="fill:#333333;" width="16.972" height="3.771"/>
	<rect x="16.81" y="19.971" style="fill:#333333;" width="16.972" height="3.771"/>
	<path style="fill:#333333;" d="M41.711,27.881h-4.695l-6.044,20.25h3.41l1.344-4.645h6.772l1.346,4.645h3.801L41.711,27.881z
		 M36.377,40.921l2.765-10.007l2.74,10.052L36.377,40.921z"/>
</g>
</svg>
