<?xml version="1.0" encoding="iso-8859-1"?>
<!-- Generator: Adobe Illustrator 14.0.0, SVG Export Plug-In . SVG Version: 6.00 Build 43363)  -->
<!DOCTYPE svg PUBLIC "-//W3C//DTD SVG 1.1//EN" "http://www.w3.org/Graphics/SVG/1.1/DTD/svg11.dtd">
<svg version="1.1" id="icon-m-toolbar-favorite-unmark-layer"
	 xmlns="http://www.w3.org/2000/svg" xmlns:xlink="http://www.w3.org/1999/xlink" x="0px" y="0px" width="32px" height="32px"
	 viewBox="0 0 32 32" style="enable-background:new 0 0 32 32;" xml:space="preserve">
<g id="icon-m-toolbar-favorite-unmark_1_">
	<rect style="fill:none;" width="32" height="32"/>
	<path style="fill:#FFFFFF;" d="M25.333,31.02L25.333,31.02c-0.277,0-0.572-0.101-0.867-0.296l-8.183-5.455
		c-0.037-0.022-0.135-0.062-0.282-0.062c-0.149,0-0.248,0.04-0.284,0.062l-8.184,5.455c-0.681,0.451-1.399,0.354-1.766-0.157
		c-0.168-0.234-0.324-0.647-0.111-1.281l3.174-9.45c0.038-0.116-0.038-0.364-0.138-0.439l-7.733-5.747
		c-0.769-0.57-0.666-1.19-0.587-1.432c0.08-0.24,0.369-0.799,1.325-0.799h9.666c0.127,0,0.342-0.154,0.382-0.274l3.077-9.16
		c0.301-0.904,0.923-1.001,1.177-1.001c0.252,0,0.873,0.097,1.177,1l3.073,9.16c0.042,0.121,0.256,0.275,0.383,0.275h9.669
		c0.956,0,1.245,0.559,1.323,0.799c0.08,0.241,0.183,0.861-0.586,1.432l-7.733,5.747c-0.099,0.075-0.177,0.323-0.137,0.44
		l3.173,9.449c0.212,0.635,0.057,1.047-0.113,1.283C26.023,30.854,25.696,31.02,25.333,31.02L25.333,31.02z M16.001,23.361
		c0.479,0,0.942,0.132,1.305,0.373l6.73,4.485l-2.615-7.797c-0.293-0.878,0.043-1.956,0.787-2.507l6.259-4.652l-7.833-0.001
		c-0.922,0-1.838-0.659-2.131-1.534l-2.502-7.454l-2.505,7.454c-0.293,0.875-1.209,1.534-2.131,1.534h-7.83l6.258,4.653
		c0.743,0.553,1.083,1.629,0.788,2.507l-2.618,7.796l6.734-4.484C15.057,23.493,15.52,23.361,16.001,23.361L16.001,23.361z"/>
</g>
</svg>
