<?xml version="1.0" encoding="iso-8859-1"?>
<!-- Generator: Adobe Illustrator 14.0.0, SVG Export Plug-In . SVG Version: 6.00 Build 43363)  -->
<!DOCTYPE svg PUBLIC "-//W3C//DTD SVG 1.1//EN" "http://www.w3.org/Graphics/SVG/1.1/DTD/svg11.dtd">
<svg version="1.1" id="icon-m-gallery-image-edit-layer"
	 xmlns="http://www.w3.org/2000/svg" xmlns:xlink="http://www.w3.org/1999/xlink" x="0px" y="0px" width="48px" height="48px"
	 viewBox="0 0 48 48" style="enable-background:new 0 0 48 48;" xml:space="preserve">
<g id="icon-m-gallery-image-edit_1_">
	<rect style="fill:none;" width="48" height="48"/>
	<path style="fill:#333333;" d="M6.751,40.905h24.286c0,0-4.746-16.655-9.752-5.575C18.279,28.381,12.381,19.795,6.751,40.905z"/>
	<path style="fill:#333333;" d="M34.234,27.359v16.243H3.311V18.859H19.52l1.134-3.373H0v31.49h37.547V24.226l-2.406,2.388
		C34.882,26.873,34.565,27.121,34.234,27.359z"/>
	<path style="fill:#333333;" d="M47.773,6.748L42.289,1.25c-0.307-0.303-0.801-0.303-1.105,0L25.422,16.86
		c-0.301,0.304-0.661,0.885-0.798,1.292l-2.814,8.446c-0.134,0.406,0.087,0.628,0.496,0.493l8.435-2.814
		c0.404-0.135,0.985-0.494,1.289-0.799L47.771,7.852C48.076,7.549,48.076,7.052,47.773,6.748z M30.457,22.377l-3.365,1.124
		l-1.693-1.694l1.123-3.372l1.493-1.494l3.901,3.976L30.457,22.377z"/>
</g>
</svg>
