<?xml version="1.0" encoding="iso-8859-1"?>
<!-- Generator: Adobe Illustrator 14.0.0, SVG Export Plug-In . SVG Version: 6.00 Build 43363)  -->
<!DOCTYPE svg PUBLIC "-//W3C//DTD SVG 1.1//EN" "http://www.w3.org/Graphics/SVG/1.1/DTD/svg11.dtd">
<svg version="1.1" id="icon-m-common-help-layer" xmlns="http://www.w3.org/2000/svg" xmlns:xlink="http://www.w3.org/1999/xlink"
	 x="0px" y="0px" width="48px" height="48px" viewBox="0 0 48 48" style="enable-background:new 0 0 48 48;" xml:space="preserve">
<g id="icon-m-common-help">
	<rect style="fill:none;" width="48" height="48"/>
	<path style="fill:#333333;" d="M23.606,36.992c-1.868,0-3.356-1.486-3.356-3.354c0-1.866,1.488-3.389,3.356-3.389
		c1.87,0,3.394,1.522,3.394,3.389C27,35.506,25.477,36.992,23.606,36.992z M28.622,22.97c-1.671,1.566-2.388,2.385-2.388,3.782
		v1.398h-5.846v-1.637c0-2.352,1.16-3.75,2.934-5.386c1.295-1.192,2.387-2.214,2.387-3.815c0-1.977-1.297-3.032-3.446-3.032
		c-1.157,0-2.727,0.271-4.263,0.682v-3.272c1.603-0.373,4.108-0.682,5.915-0.682c4.367,0,8.085,1.464,8.085,6.031
		C32,19.868,30.26,21.402,28.622,22.97z"/>
	<path style="fill:#333333;" d="M24,0.75C11.18,0.75,0.75,11.18,0.75,24S11.18,47.25,24,47.25c12.82,0,23.25-10.43,23.25-23.25
		S36.82,0.75,24,0.75z M24,43.264C13.378,43.264,4.735,34.621,4.735,24C4.735,13.377,13.378,4.736,24,4.736S43.264,13.377,43.264,24
		C43.264,34.621,34.622,43.264,24,43.264z"/>
</g>
</svg>
