<?xml version="1.0" encoding="iso-8859-1"?>
<!-- Generator: Adobe Illustrator 14.0.0, SVG Export Plug-In . SVG Version: 6.00 Build 43363)  -->
<!DOCTYPE svg PUBLIC "-//W3C//DTD SVG 1.1//EN" "http://www.w3.org/Graphics/SVG/1.1/DTD/svg11.dtd">
<svg version="1.1" id="icon-m-transfer-content-layer"
	 xmlns="http://www.w3.org/2000/svg" xmlns:xlink="http://www.w3.org/1999/xlink" x="0px" y="0px" width="48px" height="48px"
	 viewBox="0 0 48 48" style="enable-background:new 0 0 48 48;" xml:space="preserve">
<g id="icon-m-transfer-content">
	<rect style="fill:none;" width="48" height="48"/>
	<path style="fill:#333333;" d="M26.66,21.5h-8.913l-0.003,4.863c0,0.385-0.456,0.871-0.947,0.428l-7.095-7.343
		c-0.25-0.228-0.247-0.618-0.004-0.843l7.099-7.381c0.416-0.377,0.947-0.004,0.947,0.426v4.979l8.916,0.001
		c0.314-0.001,0.569,0.251,0.569,0.566v3.734C27.23,21.283,26.93,21.5,26.66,21.5z"/>
	<path style="fill:#333333;" d="M21.341,26.5h8.913l0.003-4.863c0-0.385,0.456-0.87,0.946-0.427l7.096,7.343
		c0.25,0.228,0.246,0.617,0.004,0.844l-7.1,7.38c-0.415,0.375-0.946,0.004-0.946-0.426v-4.979h-8.916
		c-0.315,0-0.57-0.253-0.57-0.567V27.07C20.77,26.717,21.071,26.5,21.341,26.5z"/>
	<path style="fill:#333333;" d="M47.25,24.001C47.25,36.82,36.82,47.25,24,47.25c-12.821,0-23.25-10.43-23.25-23.249
		C0.75,11.181,11.179,0.75,24,0.75C36.82,0.75,47.25,11.181,47.25,24.001L47.25,24.001z M4.735,24.001
		c0,10.623,8.643,19.265,19.265,19.265c10.621,0,19.264-8.642,19.264-19.265c0-10.622-8.643-19.265-19.264-19.265
		C13.378,4.736,4.735,13.379,4.735,24.001L4.735,24.001z"/>
</g>
</svg>
