<?xml version="1.0" encoding="iso-8859-1"?>
<!-- Generator: Adobe Illustrator 14.0.0, SVG Export Plug-In . SVG Version: 6.00 Build 43363)  -->
<!DOCTYPE svg PUBLIC "-//W3C//DTD SVG 1.1//EN" "http://www.w3.org/Graphics/SVG/1.1/DTD/svg11.dtd">
<svg version="1.1" id="icon-m-transfer-pause-layer"
	 xmlns="http://www.w3.org/2000/svg" xmlns:xlink="http://www.w3.org/1999/xlink" x="0px" y="0px" width="48px" height="48px"
	 viewBox="0 0 48 48" style="enable-background:new 0 0 48 48;" xml:space="preserve">
<g id="icon-m-transfer-pause">
	<rect style="fill:none;" width="48" height="48"/>
	<path style="fill:#333333;" d="M21.256,34.172h-6.751V13.828h6.751V34.172z M33.494,34.172h-6.75V13.828h6.75V34.172z"/>
	<path style="fill:#333333;" d="M24,47.25C11.18,47.25,0.75,36.82,0.75,24S11.18,0.75,24,0.75c12.82,0,23.25,10.43,23.25,23.25
		S36.82,47.25,24,47.25L24,47.25z M24,4.736C13.378,4.736,4.736,13.379,4.736,24S13.378,43.264,24,43.264S43.264,34.621,43.264,24
		S34.623,4.736,24,4.736L24,4.736z"/>
</g>
</svg>
