<?xml version="1.0" encoding="iso-8859-1"?>
<!-- Generator: Adobe Illustrator 14.0.0, SVG Export Plug-In . SVG Version: 6.00 Build 43363)  -->
<!DOCTYPE svg PUBLIC "-//W3C//DTD SVG 1.1//EN" "http://www.w3.org/Graphics/SVG/1.1/DTD/svg11.dtd">
<svg version="1.1" id="icon-m-content-favourites-layer"
	 xmlns="http://www.w3.org/2000/svg" xmlns:xlink="http://www.w3.org/1999/xlink" x="0px" y="0px" width="48px" height="48px"
	 viewBox="0 0 48 48" style="enable-background:new 0 0 48 48;" xml:space="preserve">
<g id="icon-m-content-favourites">
	<rect style="fill:none;" width="48" height="48"/>
	<path style="fill:#333333;" d="M38.258,46.488L38.258,46.488c-0.342,0-0.692-0.123-1.072-0.376l-12.502-8.331
		c-0.325-0.217-1.041-0.217-1.367,0l-12.505,8.331c-0.838,0.556-1.65,0.46-2.071-0.126c-0.285-0.396-0.321-0.917-0.109-1.549
		l4.847-14.435c0.124-0.366-0.059-0.95-0.367-1.178l-11.814-8.78c-0.902-0.674-0.848-1.344-0.735-1.682
		c0.112-0.34,0.469-0.909,1.592-0.909h14.766c0.389,0,0.891-0.36,1.014-0.729l4.701-13.993C22.989,1.67,23.643,1.512,24,1.512
		c0.358,0,1.012,0.158,1.367,1.221l4.696,13.994c0.123,0.369,0.625,0.729,1.013,0.729H45.85c1.12,0,1.477,0.568,1.589,0.908
		c0.112,0.339,0.167,1.009-0.732,1.681l-11.813,8.779c-0.312,0.229-0.494,0.814-0.372,1.182l4.847,14.434
		c0.213,0.631,0.176,1.151-0.109,1.549C39.029,46.307,38.664,46.488,38.258,46.488L38.258,46.488z M24,35.7
		c0.645,0,1.263,0.175,1.74,0.491l11.395,7.594l-4.424-13.174c-0.383-1.147,0.076-2.605,1.045-3.321l10.664-7.925H31.076
		c-1.203,0-2.443-0.895-2.822-2.033L24,4.656l-4.258,12.677c-0.382,1.138-1.622,2.03-2.823,2.03H3.58l10.667,7.928
		c0.967,0.715,1.425,2.174,1.04,3.32l-4.424,13.173l11.396-7.591C22.738,35.875,23.355,35.7,24,35.7L24,35.7z"/>
</g>
</svg>
