<?xml version="1.0" encoding="iso-8859-1"?>
<!-- Generator: Adobe Illustrator 14.0.0, SVG Export Plug-In . SVG Version: 6.00 Build 43363)  -->
<!DOCTYPE svg PUBLIC "-//W3C//DTD SVG 1.1//EN" "http://www.w3.org/Graphics/SVG/1.1/DTD/svg11.dtd">
<svg version="1.1" id="icon-m-transfer-error-layer"
	 xmlns="http://www.w3.org/2000/svg" xmlns:xlink="http://www.w3.org/1999/xlink" x="0px" y="0px" width="48px" height="48px"
	 viewBox="0 0 48 48" style="enable-background:new 0 0 48 48;" xml:space="preserve">
<g id="icon-m-transfer-error">
	<rect style="fill:none;" width="48" height="48"/>
	<path style="fill:#333333;" d="M24.002,29.323c-2.155,0-3.908,1.752-3.908,3.907c0,2.154,1.753,3.909,3.908,3.909
		c2.152,0,3.904-1.755,3.904-3.909C27.906,31.075,26.154,29.323,24.002,29.323z"/>
	<path style="fill:#333333;" d="M23.401,26.426h1.392c1.15,0,2.085-0.938,2.085-2.065l0.727-11.413c0-1.15-0.936-2.087-2.086-2.087
		h-2.845c-1.15,0-2.086,0.937-2.085,2.109l0.726,11.367C21.315,25.488,22.251,26.426,23.401,26.426z"/>
	<path style="fill:#333333;" d="M24,0.75C11.18,0.75,0.75,11.18,0.75,24S11.18,47.25,24,47.25c12.82,0,23.25-10.43,23.25-23.25
		S36.82,0.75,24,0.75z M24,43.264C13.378,43.264,4.736,34.621,4.736,24C4.736,13.377,13.378,4.734,24,4.734S43.264,13.377,43.264,24
		C43.264,34.621,34.623,43.264,24,43.264z"/>
</g>
</svg>
