<?xml version="1.0" encoding="iso-8859-1"?>
<!-- Generator: Adobe Illustrator 14.0.0, SVG Export Plug-In . SVG Version: 6.00 Build 43363)  -->
<!DOCTYPE svg PUBLIC "-//W3C//DTD SVG 1.1//EN" "http://www.w3.org/Graphics/SVG/1.1/DTD/svg11.dtd">
<svg version="1.1" id="icon-m-calendar-add-from-service-layer"
	 xmlns="http://www.w3.org/2000/svg" xmlns:xlink="http://www.w3.org/1999/xlink" x="0px" y="0px" width="48px" height="48px"
	 viewBox="0 0 48 48" style="enable-background:new 0 0 48 48;" xml:space="preserve">
<g id="icon-m-calendar-add-from-service">
	<rect style="fill:none;" width="48" height="48"/>
	<path style="fill:#333333;" d="M15.777,21.896c-0.582-0.612-0.654-0.724-1.462-1.196c-0.693-0.408-0.653-0.607-1.518-0.809
		c-1.48-0.34-1.804,0.229-2.279,1.35c-0.131,0.306-0.407,0.531-0.484,0.863c-0.333,1.438,0.833,2.345,1.604,3.299
		c0.868,1.07,0.479,2.004,0.233,3.262c-0.235,1.19-0.058,2.398,0.512,3.505c0.152,0.294,0.52,1.038,0.929,1.041
		c0.729,0.001,0.356-0.862,0.406-1.339c0.148-1.434,1.171-2.523,1.952-3.668c0.337-0.492,1.104-0.842,1.327-1.471
		c0.127-0.357-0.123-0.854-0.013-1.218c0.074-0.248,0.44-0.52,0.483-0.693c0.159-0.638,0.384-1.229-0.098-1.812
		C16.971,22.525,16.155,22.294,15.777,21.896z"/>
	<path style="fill:#333333;" d="M16.656,36.75c-8.072-1.467-14.222-8.512-14.222-17c0-0.064,0.009-0.127,0.009-0.191
		c1.377,1.105,4.877,1.955,5.027,0.133c0.069-0.855-1.499-1.883-1.088-3.037c0.367-1.023,2.002-0.838,2.935-1.273
		c2.041-0.945,2.606-3.699,4.646-4.609c1.829-0.814,4.078,0.135,5.788-1.172c-1.341-1.009-3.712-2.424-5.56-2.073
		c-1.873,0.354-2.6,2.353-4.882,1.679C8.44,8.948,8.073,7.982,6.935,8.327c-0.104,0.032-0.202,0.091-0.3,0.146
		c3.179-3.689,7.874-6.04,13.115-6.04c3.123,0,6.047,0.846,8.58,2.295c-0.709,0.059-1.643-0.192-2.238,0.098
		c-0.048,0.023-0.838,1.312-0.854,1.335c-0.479,0.619-1.094,0.386-1.191,1.378c1.285,0.344,3.839,1.414,3.027,3.287
		c-0.839,1.933-3.178-0.078-4.681,0.604c-0.902,0.41-2.545,2.594-2.632,3.656c-0.183,2.22,1.837,2.102,3.255,3.246
		c0.486,0.393,0.826,0.936,1.146,1.456l0,0c2.16-1.522,4.665-2.571,7.375-3.022c0.001,0,0.002,0,0.003,0
		c-1.315-1.566-3.535-3.289-3.105-4.366c0.655-1.645,1.272-0.431,2.226-0.098c1.33,0.464,2.904,0.457,3.751,1.167
		c0.995,0.834,1.444,2.283,2.342,3.058c0.009,0.044,0.011,0.089,0.02,0.134c0.864,0.109,1.708,0.282,2.53,0.51
		c0.004,0.002,0.007,0.002,0.01,0.003C38.047,7.486,29.781,0,19.75,0C8.841,0,0,8.842,0,19.75c0,10.031,7.485,18.294,17.172,19.56
		C16.941,38.478,16.766,37.625,16.656,36.75z"/>
	<path style="fill:none;" d="M34.5,23.314c-6.168,0-11.186,5.018-11.186,11.186c0,6.166,5.018,11.186,11.186,11.186
		s11.186-5.02,11.186-11.186C45.686,28.332,40.668,23.314,34.5,23.314z"/>
	<path style="fill:#333333;" d="M42.6,36.65h-5.881v5.951h-4.402V36.65H26.4v-4.369h5.914v-5.883h4.402v5.883H42.6V36.65z"/>
	<path style="fill:#333333;" d="M34.5,21C27.057,21,21,27.057,21,34.5C21,41.944,27.057,48,34.5,48C41.944,48,48,41.944,48,34.5
		C48,27.057,41.944,21,34.5,21z M34.5,45.686c-6.168,0-11.186-5.02-11.186-11.186c0-6.168,5.018-11.186,11.186-11.186
		S45.686,28.332,45.686,34.5C45.686,40.666,40.668,45.686,34.5,45.686z"/>
</g>
</svg>
