<?xml version="1.0" encoding="iso-8859-1"?>
<!-- Generator: Adobe Illustrator 14.0.0, SVG Export Plug-In . SVG Version: 6.00 Build 43363)  -->
<!DOCTYPE svg PUBLIC "-//W3C//DTD SVG 1.1//EN" "http://www.w3.org/Graphics/SVG/1.1/DTD/svg11.dtd">
<svg version="1.1" id="icon-m-camera-exposure-plus03-layer"
	 xmlns="http://www.w3.org/2000/svg" xmlns:xlink="http://www.w3.org/1999/xlink" x="0px" y="0px" width="32px" height="32px"
	 viewBox="0 0 32 32" style="enable-background:new 0 0 32 32;" xml:space="preserve">
<g id="icon-m-camera-exposure-plus03">
	<g>
		<rect style="fill:none;" width="32" height="32"/>
	</g>
	<g>
		<path style="fill:#FFFFFF;" d="M9.527,17.15h-2.77v2.802H4.685V17.15H1.898v-2.058h2.786v-2.771h2.073v2.771h2.77V17.15z"/>
		<path style="fill:#FFFFFF;" d="M14.469,22.01c-3.677,0-3.984-3.127-3.984-6.156c0-2.737,0.438-5.879,4.049-5.879
			c3.564,0,3.953,3.109,3.953,5.879C18.486,18.916,18.113,22.01,14.469,22.01z M14.469,11.448c-1.279,0-1.36,1.717-1.36,4.405
			c0,3.127,0.129,4.682,1.36,4.682c1.215,0,1.328-1.555,1.328-4.682C15.797,13.148,15.732,11.448,14.469,11.448z"/>
		<path style="fill:#FFFFFF;" d="M20.544,22.025c-0.794,0-1.425-0.631-1.425-1.426c0-0.793,0.631-1.441,1.425-1.441
			s1.441,0.648,1.441,1.441C21.985,21.395,21.338,22.025,20.544,22.025z"/>
		<path style="fill:#FFFFFF;" d="M25.533,11.529c-0.745,0-1.522,0.193-2.3,0.404v-1.57c0.842-0.211,1.83-0.389,2.834-0.389
			c2.22,0,3.823,0.744,3.823,2.932c0,1.377-0.762,2.316-2.139,2.736c1.523,0.276,2.35,1.313,2.35,2.754
			c0,2.592-1.637,3.629-4.504,3.629c-0.955,0-1.798-0.129-2.721-0.373v-1.57c0.972,0.227,1.733,0.389,2.462,0.389
			c1.49,0,2.073-0.713,2.073-2.025c0-1.732-1.004-2.041-3.498-2.041v-1.49c2.396,0,3.352-0.259,3.352-1.83
			C27.266,12.031,26.684,11.529,25.533,11.529z"/>
	</g>
</g>
</svg>
