<?xml version="1.0" encoding="iso-8859-1"?>
<!-- Generator: Adobe Illustrator 14.0.0, SVG Export Plug-In . SVG Version: 6.00 Build 43363)  -->
<!DOCTYPE svg PUBLIC "-//W3C//DTD SVG 1.1//EN" "http://www.w3.org/Graphics/SVG/1.1/DTD/svg11.dtd">
<svg version="1.1" id="icon-m-common-save-as-layer"
	 xmlns="http://www.w3.org/2000/svg" xmlns:xlink="http://www.w3.org/1999/xlink" x="0px" y="0px" width="48px" height="48px"
	 viewBox="0 0 48 48" style="enable-background:new 0 0 48 48;" xml:space="preserve">
<g id="icon-m-common-save-as">
	<rect style="fill:none;" width="48" height="48"/>
	<path style="fill:#333333;" d="M22.866,27.114l-0.152,0.399l-0.192-0.203l-2.051,5.391c-0.114,0.299,0.047,0.468,0.359,0.378
		l5.605-1.614l-0.189-0.201l0.416-0.119L22.866,27.114z"/>
	<path style="fill:#333333;" d="M18.167,12.896h4.165c0.357,0,0.646-0.292,0.646-0.646V7.125h-5.454v5.125
		C17.524,12.604,17.814,12.896,18.167,12.896z"/>
	<path style="fill:#333333;" d="M18.174,30.809h-6.939v2.572h6.65c-0.186-0.687-0.153-1.428,0.125-2.141
		C18.064,31.098,18.12,30.952,18.174,30.809z"/>
	<path style="fill:#333333;" d="M19.615,27.021c0.285-0.746,0.56-1.5,0.838-2.251h-9.299v2.573h8.34
		C19.533,27.237,19.575,27.131,19.615,27.021z"/>
	<path style="fill:#333333;" d="M32.498,31.596c-0.561,0.416-0.966,0.986-1.533,1.39c-0.405,0.29-0.921,0.37-1.396,0.509
		c-0.396,0.115-0.791,0.227-1.187,0.341v1.81c0,0.709-0.583,1.285-1.292,1.285H8.205c-0.708,0-1.292-0.576-1.292-1.285V22.352
		c0-0.707,0.584-1.287,1.292-1.287h15.249c0.038-0.043,0.073-0.082,0.112-0.126c0.61-0.686,1.367-1.276,2.042-1.896
		c1.691-1.55,3.381-3.1,5.072-4.647c1.289-1.183,2.576-2.364,3.865-3.547V8.49c0-0.707-0.58-1.285-1.292-1.285h-6.314v8.367
		c0,0.355-0.288,0.644-0.644,0.644H9c-0.355,0-0.643-0.288-0.643-0.644V7.205H2.042c-0.713,0-1.292,0.578-1.292,1.285v31.098
		c0,0.707,0.579,1.287,1.292,1.287h31.211c0.712,0,1.292-0.58,1.292-1.287v-9.867c-0.455,0.418-0.91,0.836-1.368,1.256
		C32.956,31.18,32.74,31.415,32.498,31.596z"/>
	<path style="fill:#333333;" d="M47.1,13.286l-4.611-4.813c-0.255-0.262-0.744-0.221-1.089,0.092L24.855,23.798l5.497,5.839
		l16.581-15.293C47.277,14.027,47.353,13.551,47.1,13.286z"/>
</g>
</svg>
