<?xml version="1.0" encoding="iso-8859-1"?>
<!-- Generator: Adobe Illustrator 14.0.0, SVG Export Plug-In . SVG Version: 6.00 Build 43363)  -->
<!DOCTYPE svg PUBLIC "-//W3C//DTD SVG 1.1//EN" "http://www.w3.org/Graphics/SVG/1.1/DTD/svg11.dtd">
<svg version="1.1" id="icon-m-camera-resolution-83m-layer"
	 xmlns="http://www.w3.org/2000/svg" xmlns:xlink="http://www.w3.org/1999/xlink" x="0px" y="0px" width="32px" height="32px"
	 viewBox="0 0 32 32" style="enable-background:new 0 0 32 32;" xml:space="preserve">
<g id="icon-m-camera-resolution-83m">
	<rect style="fill:none;" width="32" height="32"/>
	<path style="fill:#FFFFFF;" d="M9.208,21.026c1.294,0,2.25,0.581,2.25,1.763c0,0.73-0.319,1.293-1.05,1.574
		c0.806,0.234,1.172,0.919,1.172,1.706c0,1.265-0.938,1.921-2.399,1.921c-1.434,0-2.362-0.665-2.362-1.921
		c0-0.778,0.356-1.49,1.162-1.706c-0.732-0.281-1.041-0.844-1.041-1.574C6.939,21.607,7.905,21.026,9.208,21.026z M9.189,24.804
		c-0.609,0-0.853,0.487-0.853,1.134c0,0.647,0.215,1.2,0.853,1.2c0.656,0,0.871-0.524,0.871-1.2
		C10.061,25.301,9.771,24.804,9.189,24.804z M9.189,21.88c-0.572,0-0.759,0.468-0.759,1.05c0,0.571,0.215,1.049,0.759,1.049
		c0.553,0,0.778-0.469,0.778-1.049C9.967,22.311,9.771,21.88,9.189,21.88z"/>
	<path style="fill:#FFFFFF;" d="M12.715,28c-0.459,0-0.825-0.365-0.825-0.824c0-0.46,0.366-0.835,0.825-0.835
		c0.459,0,0.834,0.375,0.834,0.835C13.549,27.635,13.174,28,12.715,28z"/>
	<path style="fill:#FFFFFF;" d="M15.602,21.927c-0.431,0-0.881,0.112-1.332,0.234v-0.909c0.488-0.122,1.06-0.226,1.641-0.226
		c1.284,0,2.212,0.432,2.212,1.696c0,0.797-0.44,1.341-1.237,1.584c0.882,0.16,1.359,0.76,1.359,1.594c0,1.5-0.946,2.1-2.606,2.1
		c-0.553,0-1.04-0.075-1.575-0.216v-0.909c0.563,0.132,1.003,0.226,1.425,0.226c0.862,0,1.2-0.413,1.2-1.172
		c0-1.003-0.581-1.182-2.024-1.182v-0.862c1.387,0,1.94-0.149,1.94-1.059C16.604,22.217,16.267,21.927,15.602,21.927z"/>
	<path style="fill:#FFFFFF;" d="M25.182,27.925h-1.509v-4.527l-1.19,2.307H21.92l-1.172-2.307v4.527h-1.546v-6.823h1.35l1.649,3.225
		l1.649-3.225h1.331V27.925z"/>
	<path style="fill:#FFFFFF;" d="M23.33,18.659V4C15.233,4,8.67,10.563,8.67,18.659H23.33z"/>
</g>
</svg>
