<?xml version="1.0" encoding="iso-8859-1"?>
<!-- Generator: Adobe Illustrator 14.0.0, SVG Export Plug-In . SVG Version: 6.00 Build 43363)  -->
<!DOCTYPE svg PUBLIC "-//W3C//DTD SVG 1.1//EN" "http://www.w3.org/Graphics/SVG/1.1/DTD/svg11.dtd">
<svg version="1.1" id="icon-m-camera-iso-200-layer"
	 xmlns="http://www.w3.org/2000/svg" xmlns:xlink="http://www.w3.org/1999/xlink" x="0px" y="0px" width="32px" height="32px"
	 viewBox="0 0 32 32" style="enable-background:new 0 0 32 32;" xml:space="preserve">
<g id="icon-m-camera-iso-200">
	<rect style="fill:none;" width="32" height="32"/>
	<path style="fill:#FFFFFF;" d="M7.956,4.944v12.549h16.089V4.944H7.956z M11.616,7.922h-0.695v6.207h0.695v1.112H8.314v-1.112H9.01
		V7.922H8.314V6.809h3.301V7.922z M13.863,15.334c-0.648,0-1.32-0.081-1.946-0.231v-1.147c0.591,0.15,1.193,0.267,1.818,0.267
		c0.915,0,1.355-0.429,1.355-1.112c0-0.717-0.417-0.984-1.529-1.609c-0.949-0.532-1.633-1.17-1.633-2.432
		c0-1.587,1.204-2.352,2.872-2.352c0.591,0,1.182,0.058,1.772,0.174v1.123c-0.533-0.115-0.95-0.186-1.517-0.186
		c-0.753,0-1.205,0.348-1.205,0.974c0,0.672,0.486,0.984,1.332,1.425c1.123,0.59,1.83,1.263,1.83,2.502
		C17.014,14.569,15.751,15.334,13.863,15.334z M20.582,15.334c-2.815,0-3.268-2.433-3.268-4.425c0-1.98,0.521-4.192,3.268-4.192
		c2.744,0,3.254,2.212,3.254,4.192C23.836,12.914,23.396,15.334,20.582,15.334z"/>
	<path style="fill:#FFFFFF;" d="M20.582,7.828c-1.193,0-1.286,1.506-1.286,3.081s0.139,3.313,1.286,3.313
		c1.192,0,1.273-1.714,1.273-3.313C21.855,9.334,21.74,7.828,20.582,7.828z"/>
	<path style="fill:#FFFFFF;" d="M12.547,26.975H7.196v-0.741c0-1.772,1.077-2.791,2.154-3.694c0.729-0.613,1.216-1.054,1.216-1.772
		c0-0.775-0.382-1.204-1.297-1.204c-0.648,0-1.228,0.186-1.784,0.383v-1.147c0.741-0.22,1.494-0.347,2.258-0.347
		c1.691,0,2.745,0.683,2.745,2.246c0,1.251-0.684,1.923-1.668,2.757c-1.042,0.88-1.726,1.494-1.807,2.409h3.532V26.975z"/>
	<path style="fill:#FFFFFF;" d="M16.231,27.056c-2.629,0-2.849-2.235-2.849-4.401c0-1.957,0.313-4.203,2.896-4.203
		c2.548,0,2.826,2.223,2.826,4.203C19.104,24.844,18.837,27.056,16.231,27.056z M16.231,19.505c-0.915,0-0.973,1.228-0.973,3.149
		c0,2.236,0.093,3.348,0.973,3.348c0.869,0,0.95-1.111,0.95-3.348C17.181,20.721,17.135,19.505,16.231,19.505z"/>
	<path style="fill:#FFFFFF;" d="M22.486,27.056c-2.629,0-2.85-2.235-2.85-4.401c0-1.957,0.313-4.203,2.896-4.203
		c2.548,0,2.826,2.223,2.826,4.203C25.358,24.844,25.092,27.056,22.486,27.056z M22.486,19.505c-0.915,0-0.973,1.228-0.973,3.149
		c0,2.236,0.092,3.348,0.973,3.348c0.868,0,0.949-1.111,0.949-3.348C23.436,20.721,23.39,19.505,22.486,19.505z"/>
</g>
</svg>
