<?xml version="1.0" encoding="iso-8859-1"?>
<!-- Generator: Adobe Illustrator 14.0.0, SVG Export Plug-In . SVG Version: 6.00 Build 43363)  -->
<!DOCTYPE svg PUBLIC "-//W3C//DTD SVG 1.1//EN" "http://www.w3.org/Graphics/SVG/1.1/DTD/svg11.dtd">
<svg version="1.1" id="icon-m-settings-personalize-layer"
	 xmlns="http://www.w3.org/2000/svg" xmlns:xlink="http://www.w3.org/1999/xlink" x="0px" y="0px" width="64px" height="64px"
	 viewBox="0 0 64 64" style="enable-background:new 0 0 64 64;" xml:space="preserve">
<g id="icon-m-settings-personalize">
	<rect style="opacity:0;fill:#FFFFFF;" width="64" height="64"/>
	<path style="fill:#FFFFFF;" d="M53.998,17.853v-0.025c-5.469-4.547-13.911-7.936-22.676-7.936
		c-22.775,0-40.998,20.013-17.006,21.542c4.989,0.315,7.936,2.737,7.936,5.668c0,2.236-2.036,4.102-3.101,5.369
		c-5.968,7.102,6.733,11.637,17.841,11.637c3.395,0,6.593-0.287,9.649-1.3c7.407-1.95,13.299-8.671,14.231-17.245
		C61.646,28.478,58.836,21.904,53.998,17.853z M16.008,26.5c-2.183-0.182-3.811-2.104-3.627-4.286
		c0.181-2.183,2.104-3.811,4.284-3.632c2.177,0.184,3.806,2.108,3.624,4.292C20.106,25.058,18.183,26.682,16.008,26.5z
		 M31.968,22.163c-2.173,0-3.934-1.761-3.934-3.933c0-2.173,1.761-3.935,3.934-3.935s3.935,1.762,3.935,3.935
		C35.902,20.402,34.141,22.163,31.968,22.163z M46.93,27.268c-2.172,0-3.934-1.761-3.934-3.934c0-2.172,1.762-3.934,3.934-3.934
		s3.934,1.762,3.934,3.934C50.863,25.507,49.102,27.268,46.93,27.268z M50.898,42.668c-2.174,0-3.934-1.762-3.934-3.933
		c0-2.174,1.76-3.935,3.934-3.935c2.17,0,3.934,1.761,3.934,3.935C54.832,40.906,53.068,42.668,50.898,42.668z"/>
</g>
</svg>
