<?xml version="1.0" encoding="iso-8859-1"?>
<!-- Generator: Adobe Illustrator 14.0.0, SVG Export Plug-In . SVG Version: 6.00 Build 43363)  -->
<!DOCTYPE svg PUBLIC "-//W3C//DTD SVG 1.1//EN" "http://www.w3.org/Graphics/SVG/1.1/DTD/svg11.dtd">
<svg version="1.1" id="icon-m-common-presence-online-layer"
	 xmlns="http://www.w3.org/2000/svg" xmlns:xlink="http://www.w3.org/1999/xlink" x="0px" y="0px" width="48px" height="48px"
	 viewBox="0 0 48 48" style="enable-background:new 0 0 48 48;" xml:space="preserve">
<g id="icon-m-common-presence-online">
	<rect style="fill:none;" width="48" height="48"/>
	<path style="fill:#333333;" d="M24.004,0.75C11.161,0.75,0.75,11.17,0.75,24.015c0,12.825,10.41,23.235,23.253,23.235
		c12.83,0,23.246-10.41,23.246-23.235C47.25,11.17,36.834,0.75,24.004,0.75z M40.203,15.394L40.203,15.394l-0.004,0.003
		c-0.004,0.004-0.008,0.006-0.01,0.009v-0.002l-0.008,0.005c-0.005,0.005-0.014,0.01-0.021,0.017
		c-0.021,0.014-0.046,0.032-0.081,0.058c-0.071,0.053-0.176,0.129-0.313,0.229c-0.275,0.203-0.676,0.506-1.186,0.908
		c-1.016,0.807-2.466,2.006-4.19,3.6c-3.45,3.18-7.985,7.892-12.303,14.012c-0.133,0.184-0.339,0.305-0.579,0.322l-0.033,0.002
		l-0.021-0.373l0,0v0.373c-0.204,0-0.402-0.078-0.551-0.229l-8.966-9.008c-0.137-0.139-0.22-0.33-0.224-0.527
		c0,0-0.003-0.021,0.002-0.059c-0.002-0.013,0-0.031,0.005-0.051c0.022-0.178,0.102-0.348,0.24-0.471l2.985-2.757
		c0.15-0.142,0.341-0.211,0.534-0.211c0.2-0.003,0.404,0.079,0.555,0.237l4.637,4.764c5.949-8.281,15.032-12.14,18.996-12.233
		c0.007,0,0.01-0.003,0.068-0.007c0.331,0,0.63,0.213,0.736,0.533c0.028,0.08,0.041,0.163,0.038,0.239
		C40.512,15.019,40.398,15.246,40.203,15.394z"/>
</g>
</svg>
