<?xml version="1.0" encoding="iso-8859-1"?>
<!-- Generator: Adobe Illustrator 14.0.0, SVG Export Plug-In . SVG Version: 6.00 Build 43363)  -->
<!DOCTYPE svg PUBLIC "-//W3C//DTD SVG 1.1//EN" "http://www.w3.org/Graphics/SVG/1.1/DTD/svg11.dtd">
<svg version="1.1" id="icon-m-camera-resolution-12m-layer"
	 xmlns="http://www.w3.org/2000/svg" xmlns:xlink="http://www.w3.org/1999/xlink" x="0px" y="0px" width="32px" height="32px"
	 viewBox="0 0 32 32" style="enable-background:new 0 0 32 32;" xml:space="preserve">
<g id="icon-m-camera-resolution-12m">
	<rect style="fill:none;" width="32" height="32"/>
	<path style="fill:#FFFFFF;" d="M12.278,28H7.966v-0.824H9.41v-4.893l-1.444,0.309v-0.806l2.137-0.666h0.815v6.056h1.359V28z"/>
	<path style="fill:#FFFFFF;" d="M17.172,28h-4.331v-0.6c0-1.435,0.872-2.259,1.743-2.99c0.59-0.497,0.984-0.854,0.984-1.434
		c0-0.628-0.309-0.975-1.05-0.975c-0.524,0-0.993,0.149-1.443,0.309v-0.928c0.6-0.178,1.209-0.281,1.828-0.281
		c1.368,0,2.222,0.553,2.222,1.818c0,1.012-0.553,1.556-1.35,2.23c-0.843,0.713-1.396,1.209-1.462,1.95h2.859V28z"/>
	<path style="fill:#FFFFFF;" d="M24.033,28h-1.509v-4.527l-1.19,2.306h-0.563L19.6,23.473V28h-1.546v-6.823h1.35l1.649,3.224
		l1.65-3.224h1.33V28z"/>
	<path style="fill:#FFFFFF;" d="M23.33,18.659V4C15.233,4,8.67,10.563,8.67,18.659H23.33z"/>
</g>
</svg>
