<?xml version="1.0" encoding="iso-8859-1"?>
<!-- Generator: Adobe Illustrator 14.0.0, SVG Export Plug-In . SVG Version: 6.00 Build 43363)  -->
<!DOCTYPE svg PUBLIC "-//W3C//DTD SVG 1.1//EN" "http://www.w3.org/Graphics/SVG/1.1/DTD/svg11.dtd">
<svg version="1.1" id="icon-s-telephony-call-received-layer"
	 xmlns="http://www.w3.org/2000/svg" xmlns:xlink="http://www.w3.org/1999/xlink" x="0px" y="0px" width="18px" height="18px"
	 viewBox="0 0 18 18" style="enable-background:new 0 0 18 18;" xml:space="preserve">
<g id="icon-s-telephony-call-received">
	<rect style="fill:none;" width="18" height="18"/>
	<path style="fill:#FFFFFF;" d="M16.591,9.567h-5.119V1.034h-0.016c-0.026-0.299-0.275-0.535-0.579-0.535H7.091
		c-0.304,0-0.554,0.236-0.579,0.535H6.511v0.022C6.51,1.064,6.508,1.074,6.508,1.083v0.669c0,0.01,0.002,0.02,0.003,0.029
		l0.003,7.786H1.409c-0.321,0-0.398,0.186-0.171,0.413l7.349,7.35c0.227,0.226,0.598,0.226,0.826,0l7.349-7.35
		C16.989,9.753,16.911,9.567,16.591,9.567z"/>
</g>
</svg>
