<?xml version="1.0" encoding="iso-8859-1"?>
<!-- Generator: Adobe Illustrator 14.0.0, SVG Export Plug-In . SVG Version: 6.00 Build 43363)  -->
<!DOCTYPE svg PUBLIC "-//W3C//DTD SVG 1.1//EN" "http://www.w3.org/Graphics/SVG/1.1/DTD/svg11.dtd">
<svg version="1.1" id="icon-m-energy-management-battery5-layer"
	 xmlns="http://www.w3.org/2000/svg" xmlns:xlink="http://www.w3.org/1999/xlink" x="0px" y="0px" width="48px" height="48px"
	 viewBox="0 0 48 48" style="enable-background:new 0 0 48 48;" xml:space="preserve">
<g id="icon-m-energy-management-battery5">
	<rect style="fill:none;" width="48" height="48"/>
	<path style="fill:#333333;" d="M19.09,2.533v2.113h-7.555c-0.775,0-1.41,0.635-1.41,1.408v39.412c0,0.774,0.635,1.408,1.41,1.408
		h24.932c0.774,0,1.408-0.634,1.408-1.408V6.055c0-0.773-0.634-1.408-1.408-1.408h-7.556V2.533c0-0.775-0.636-1.41-1.409-1.41H20.5
		C19.726,1.123,19.09,1.758,19.09,2.533z M33.164,8.919c0.777,0,1.41,0.634,1.41,1.409v32.375c0,0.775-0.633,1.41-1.41,1.41H14.84
		c-0.774,0-1.408-0.635-1.408-1.41V10.328c0-0.775,0.634-1.409,1.408-1.409H33.164z"/>
	<rect x="15.934" y="23.448" style="fill:#333333;" width="16.136" height="18.14"/>
</g>
</svg>
