<?xml version="1.0" encoding="iso-8859-1"?>
<!-- Generator: Adobe Illustrator 14.0.0, SVG Export Plug-In . SVG Version: 6.00 Build 43363)  -->
<!DOCTYPE svg PUBLIC "-//W3C//DTD SVG 1.1//EN" "http://www.w3.org/Graphics/SVG/1.1/DTD/svg11.dtd">
<svg version="1.1" id="icon-s-status-cangjie-layer"
	 xmlns="http://www.w3.org/2000/svg" xmlns:xlink="http://www.w3.org/1999/xlink" x="0px" y="0px" width="33px" height="16px"
	 viewBox="0 0 33 16" style="enable-background:new 0 0 33 16;" xml:space="preserve">
<g id="icon-s-status-cangjie">
	<rect style="fill:none;" width="33" height="16"/>
	<path style="fill:#FFFFFF;" d="M1.499,7.812C1.176,7.371,0.853,7.064,0.224,6.691c1.768-0.816,3.791-2.261,5.083-3.705
		c1.19-1.31,1.581-1.973,1.853-2.941C7.55,0.197,8.519,0.453,8.978,0.521c0.323,0.052,0.408,0.238,0.051,0.392
		C8.91,0.963,8.791,1.031,8.689,1.115c0.612,0.952,1.598,2.023,2.822,2.924c1.241,0.901,2.838,1.53,4.47,1.751
		c-0.544,0.578-0.765,0.867-1.088,1.649c-2.108-0.885-3.025-1.428-4.215-2.482c-1.479-1.309-2.21-2.022-2.839-2.89
		C6.445,3.853,4.405,5.756,1.499,7.812z M12.071,15.36c-1.292,0.153-5.745,0.204-6.68,0.119c-1.275-0.136-1.462-0.289-1.462-1.989
		V8.493c0-0.952-0.051-1.564-0.136-1.955c0.833,0.067,2.533,0.103,4.045,0.103c1.598,0,3.434-0.035,4.284-0.103l-0.357,4.113
		c-0.085,1.021-0.527,1.479-2.788,1.751c-0.136-0.441-0.425-1.07-0.68-1.479c1.088,0.051,1.989-0.204,2.04-0.629l0.289-2.414H5.34
		v5.235c0,0.833,0.272,1.054,0.935,1.122c1.224,0.102,4.454,0.068,5.439-0.152c0.714-0.137,0.918-0.375,1.309-1.955
		c0.459,0.595,0.934,0.85,1.495,0.951C13.822,15.003,13.635,15.207,12.071,15.36z"/>
	<path style="fill:#FFFFFF;" d="M24.329,6.13v1.377c-0.578-0.102-2.244-0.153-3.332-0.153c-1.071,0-2.431,0.052-2.991,0.153V6.13
		c0.492,0.052,1.529,0.103,2.481,0.118V4.057c-1.31,0-2.073,0.033-2.839,0.102V2.832c0.782,0.086,1.529,0.137,2.839,0.137
		c0-1.955,0-2.142-0.051-2.432c0.374,0.052,1.036,0.103,1.478,0.103c0.205,0,0.223,0.051,0.053,0.204
		c-0.103,0.051-0.17,0.255-0.17,0.561v1.564c1.223-0.018,2.141-0.051,2.855-0.137v1.326c-0.715-0.051-1.633-0.085-2.855-0.102v2.191
		C22.782,6.232,23.887,6.182,24.329,6.13z M19.654,13.456v1.292h-1.394c0.085-0.611,0.118-1.02,0.118-1.632V9.887
		c0-0.441,0-0.714-0.051-0.969c0.442,0.034,1.004,0.051,2.618,0.051c1.632,0,2.481-0.017,2.906-0.051
		c-0.034,0.204-0.051,0.476-0.051,0.969v2.873c0,0.595,0.034,1.07,0.119,1.613h-1.36v-0.917H19.654z M22.561,12.453V9.988h-2.906
		v2.465H22.561z M29.241,7.848c-0.051,1.121-0.153,2.379-0.323,3.552c-0.271,1.904-2.073,3.587-4.538,4.556
		c-0.237-0.373-0.595-0.663-1.071-0.918c2.584-0.951,3.995-2.107,4.386-4.012c0.204-1.003,0.272-2.94,0.187-4.198
		c0.477,0.102,1.156,0.204,1.479,0.222c0.187,0.016,0.222,0.084,0.067,0.203C29.326,7.337,29.258,7.575,29.241,7.848z M25.145,2.867
		V1.438c0.85,0.103,2.057,0.136,3.654,0.136c1.599,0,3.043-0.033,3.893-0.136v1.429C31.91,2.766,30.618,2.73,29.156,2.73
		c-0.188,0.646-0.374,1.445-0.492,2.125c1.547-0.018,2.617-0.051,3.297-0.103c-0.068,0.408-0.085,1.003-0.085,2.091v3.145
		c0,0.799,0,1.48,0.068,2.16h-1.429V5.978h-3.909v6.255h-1.411c0.086-0.697,0.086-1.343,0.086-2.142V6.844
		c0-1.274-0.018-1.665-0.086-2.091c0.392,0.034,1.275,0.085,2.108,0.085c0.187-0.577,0.323-1.394,0.407-2.107
		C26.641,2.748,25.773,2.781,25.145,2.867z M31.758,15.836c-0.766-0.884-2.074-2.006-3.077-2.72l0.815-0.951
		c0.936,0.611,2.396,1.683,3.281,2.481L31.758,15.836z"/>
</g>
</svg>
