<?xml version="1.0" encoding="iso-8859-1"?>
<!-- Generator: Adobe Illustrator 14.0.0, SVG Export Plug-In . SVG Version: 6.00 Build 43363)  -->
<!DOCTYPE svg PUBLIC "-//W3C//DTD SVG 1.1//EN" "http://www.w3.org/Graphics/SVG/1.1/DTD/svg11.dtd">
<svg version="1.1" id="icon-m-messaging-smiley-sad-layer"
	 xmlns="http://www.w3.org/2000/svg" xmlns:xlink="http://www.w3.org/1999/xlink" x="0px" y="0px" width="48px" height="48px"
	 viewBox="0 0 48 48" style="enable-background:new 0 0 48 48;" xml:space="preserve">
<g id="icon-m-messaging-smiley-sad">
	<rect style="fill:none;" width="48" height="48"/>
	<path style="fill:#333333;" d="M24,29.565c5.857,0,10.728,3.095,11.781,7.185C35.92,36.213,36,35.66,36,35.092
		c0-4.883-5.373-8.842-12-8.842c-6.627,0-12,3.959-12,8.842c0,0.568,0.08,1.121,0.218,1.658C13.272,32.66,18.143,29.565,24,29.565z"
		/>
	<path style="fill:#333333;" d="M24,3c11.58,0,21,9.42,21,21s-9.42,21-21,21C12.42,45,3,35.58,3,24S12.42,3,24,3 M24,0
		C10.745,0,0,10.745,0,24s10.745,24,24,24s24-10.745,24-24S37.255,0,24,0L24,0z"/>
	<circle style="fill:#333333;" cx="16.125" cy="15.486" r="3.375"/>
	<circle style="fill:#333333;" cx="31.875" cy="15.486" r="3.375"/>
</g>
</svg>
