<?xml version="1.0" encoding="iso-8859-1"?>
<!-- Generator: Adobe Illustrator 14.0.0, SVG Export Plug-In . SVG Version: 6.00 Build 43363)  -->
<!DOCTYPE svg PUBLIC "-//W3C//DTD SVG 1.1//EN" "http://www.w3.org/Graphics/SVG/1.1/DTD/svg11.dtd">
<svg version="1.1" id="icon-m-status-menu-carkit-layer"
	 xmlns="http://www.w3.org/2000/svg" xmlns:xlink="http://www.w3.org/1999/xlink" x="0px" y="0px" width="48px" height="48px"
	 viewBox="0 0 48 48" style="enable-background:new 0 0 48 48;" xml:space="preserve">
<g id="icon-m-status-menu-carkit_1_">
	<rect style="fill:none;" width="48" height="48"/>
	<polygon style="fill:#333333;" points="19.5,24 16.5,28.5 33,28.5 30,24 	"/>
	<path style="fill:#333333;" d="M45.75,17.25h-6C39.217,9.988,32.34,4.5,24,4.5S8.782,9.988,8.25,17.25h-6c-1.5,0-1.5,1.5-1.5,1.5
		V42c0,0,0,1.5,1.5,1.5h43.5c0,0,1.5,0,1.5-1.5V18.75C47.25,18.75,47.25,17.25,45.75,17.25z M24,8.25c6.245,0,11.456,3.818,12,9H12
		C12.543,12.068,17.753,8.25,24,8.25z M12.771,40.65c-1.888,0-3.418-1.53-3.418-3.417s1.53-3.417,3.418-3.417
		c1.89,0,3.416,1.53,3.416,3.417S14.661,40.65,12.771,40.65z M35.127,40.609c-1.889,0-3.417-1.512-3.417-3.376
		s1.528-3.376,3.417-3.376c1.89,0,3.417,1.512,3.417,3.376S37.017,40.609,35.127,40.609z M42.75,36c0,0,0,1.5-1.5,1.5h-1.5
		c-0.031-2.67-1.787-5.25-4.5-5.25c-2.712,0-5.219,2.58-5.25,5.25H18c-0.032-2.67-2.539-5.25-5.25-5.25c-2.71,0-4.468,2.58-4.5,5.25
		h-1.5c-1.5,0-1.5-1.5-1.5-1.5v-6c0-1.5,1.5-1.5,1.5-1.5H12l6-7.5h14.25l5.25,7.5h3.75c1.5,0,1.5,1.5,1.5,1.5V36z"/>
</g>
</svg>
