<?xml version="1.0" encoding="iso-8859-1"?>
<!-- Generator: Adobe Illustrator 14.0.0, SVG Export Plug-In . SVG Version: 6.00 Build 43363)  -->
<!DOCTYPE svg PUBLIC "-//W3C//DTD SVG 1.1//EN" "http://www.w3.org/Graphics/SVG/1.1/DTD/svg11.dtd">
<svg version="1.1" id="icon-m-toolbar-addressbook-layer"
	 xmlns="http://www.w3.org/2000/svg" xmlns:xlink="http://www.w3.org/1999/xlink" x="0px" y="0px" width="32px" height="32px"
	 viewBox="0 0 32 32" style="enable-background:new 0 0 32 32;" xml:space="preserve">
<g id="icon-m-toolbar-addressbook_1_">
	<rect style="fill:none;" width="32" height="32"/>
	<path style="fill:#FFFFFF;" d="M6.154,23.762V23.5c0-0.584-0.48-1.062-1.066-1.062H1.065C0.478,22.438,0,22.916,0,23.5v0.262
		c0,0.585,0.478,1.063,1.065,1.063h4.022C5.674,24.825,6.154,24.347,6.154,23.762z"/>
	<path style="fill:#FFFFFF;" d="M1.065,9.086h4.022c0.586,0,1.066-0.478,1.066-1.062V7.764c0-0.584-0.48-1.062-1.066-1.062H1.065
		C0.478,6.701,0,7.18,0,7.764v0.261C0,8.608,0.478,9.086,1.065,9.086z"/>
	<path style="fill:#FFFFFF;" d="M31,0.525H5.038v3.298c2.243,0.253,3.986,2.116,3.986,4.383s-1.743,4.13-3.986,4.384v6.863
		c2.243,0.251,3.986,2.117,3.986,4.381c0,2.268-1.743,4.131-3.986,4.385v3.256H31c0.551,0,1-0.449,1-0.999v-3.221V4.746V1.525
		C32,0.975,31.551,0.525,31,0.525z M20.48,5.694c2.129,0,3.856,1.78,3.856,3.976c0,2.199-1.728,3.98-3.856,3.98
		c-2.136,0-3.862-1.781-3.862-3.98C16.619,7.475,18.345,5.694,20.48,5.694z M27.227,25.899h-13.5v-3.769
		c0-3.9,3.555-5.973,6.754-5.973c3.191,0,6.746,2.072,6.746,5.973V25.899z"/>
</g>
</svg>
