<?xml version="1.0" encoding="iso-8859-1"?>
<!-- Generator: Adobe Illustrator 14.0.0, SVG Export Plug-In . SVG Version: 6.00 Build 43363)  -->
<!DOCTYPE svg PUBLIC "-//W3C//DTD SVG 1.1//EN" "http://www.w3.org/Graphics/SVG/1.1/DTD/svg11.dtd">
<svg version="1.1" id="icon-s-common-presence-unknown-layer"
	 xmlns="http://www.w3.org/2000/svg" xmlns:xlink="http://www.w3.org/1999/xlink" x="0px" y="0px" width="18px" height="18px"
	 viewBox="0 0 18 18" style="enable-background:new 0 0 18 18;" xml:space="preserve">
<g id="icon-s-common-presence-unknown">
	<rect style="fill:none;" width="18" height="18"/>
	<g>
		<circle style="fill:#FFFFFF;" cx="8.833" cy="8.79" r="8.75"/>
		<path style="fill:#333333;" d="M7.148,0.278c-3.664,0.615-6.521,3.601-6.935,7.33h2.823c0.368-2.176,2.001-3.909,4.111-4.459
			V0.278z"/>
		<path style="fill:#333333;" d="M10.528,0.278v2.871c2.108,0.55,3.742,2.283,4.109,4.459h2.823
			C17.047,3.879,14.191,0.894,10.528,0.278z"/>
		<path style="fill:#333333;" d="M7.148,14.477c-1.799-0.466-3.252-1.797-3.869-3.531H0.375c0.746,3.287,3.421,5.838,6.773,6.401
			V14.477z"/>
		<path style="fill:#333333;" d="M14.396,10.901c-0.617,1.734-2.07,3.063-3.868,3.531v2.87c3.353-0.563,6.025-3.115,6.773-6.401
			H14.396z"/>
	</g>
</g>
</svg>
