<?xml version="1.0" encoding="iso-8859-1"?>
<!-- Generator: Adobe Illustrator 14.0.0, SVG Export Plug-In . SVG Version: 6.00 Build 43363)  -->
<!DOCTYPE svg PUBLIC "-//W3C//DTD SVG 1.1//EN" "http://www.w3.org/Graphics/SVG/1.1/DTD/svg11.dtd">
<svg version="1.1" id="icon-m-framework-close-layer"
	 xmlns="http://www.w3.org/2000/svg" xmlns:xlink="http://www.w3.org/1999/xlink" x="0px" y="0px" width="32px" height="32px"
	 viewBox="0 0 32 32" style="enable-background:new 0 0 32 32;" xml:space="preserve">
<g id="icon-m-framework-close_1_">
	<rect style="fill:none;" width="32" height="32"/>
	<path style="fill:#FFFFFF;" d="M26.209,5.816c-5.605-5.621-14.725-5.621-20.362,0c-5.641,5.628-5.666,14.74-0.058,20.365
		c5.608,5.625,14.725,5.625,20.368-0.002C31.793,20.556,31.818,11.442,26.209,5.816z M23.877,20.011
		c0.516,0.517,0.798,1.202,0.795,1.93c-0.002,0.729-0.289,1.414-0.807,1.927c-0.508,0.512-1.191,0.797-1.92,0.797
		c-0.726,0-1.409-0.285-1.926-0.803l-4.022-4.014l-4.02,4.016c-0.983,0.989-2.866,0.989-3.853-0.002
		c-0.511-0.509-0.795-1.189-0.797-1.917s0.28-1.413,0.794-1.93L12.148,16l-4.025-4.017c-0.513-0.508-0.797-1.188-0.8-1.916
		C7.321,9.336,7.605,8.648,8.121,8.131c0.984-0.984,2.866-0.986,3.855-0.002l4.023,4.02l4.022-4.018c0.991-0.985,2.86-0.985,3.847,0
		c0.516,0.515,0.801,1.199,0.804,1.925c0.003,0.731-0.279,1.417-0.795,1.931l-4.023,4.012L23.877,20.011z"/>
</g>
</svg>
