<?xml version="1.0" encoding="iso-8859-1"?>
<!-- Generator: Adobe Illustrator 14.0.0, SVG Export Plug-In . SVG Version: 6.00 Build 43363)  -->
<!DOCTYPE svg PUBLIC "-//W3C//DTD SVG 1.1//EN" "http://www.w3.org/Graphics/SVG/1.1/DTD/svg11.dtd">
<svg version="1.1" id="icon-m-common-list-layer" xmlns="http://www.w3.org/2000/svg" xmlns:xlink="http://www.w3.org/1999/xlink"
	 x="0px" y="0px" width="48px" height="48px" viewBox="0 0 48 48" style="enable-background:new 0 0 48 48;" xml:space="preserve">
<g id="icon-m-common-list">
	<rect style="fill:none;" width="48" height="48"/>
	<path style="fill:#333333;" d="M7.499,14.25C5.567,14.25,4,12.684,4,10.748C4,8.814,5.567,7.25,7.499,7.25
		C9.434,7.25,11,8.814,11,10.748C11,12.684,9.434,14.25,7.499,14.25"/>
	<path style="fill:#333333;" d="M44,11.25c0,1.1-0.9,2-2,2H18c-1.1,0-2-0.9-2-2v-1c0-1.1,0.9-2,2-2h24c1.1,0,2,0.9,2,2V11.25z"/>
	<path style="fill:#333333;" d="M7.499,27.5C5.567,27.5,4,25.934,4,23.998C4,22.064,5.567,20.5,7.499,20.5
		C9.434,20.5,11,22.064,11,23.998C11,25.934,9.434,27.5,7.499,27.5"/>
	<path style="fill:#333333;" d="M44,24.5c0,1.1-0.9,2-2,2H18c-1.1,0-2-0.9-2-2v-1c0-1.1,0.9-2,2-2h24c1.1,0,2,0.9,2,2V24.5z"/>
	<path style="fill:#333333;" d="M7.499,40.75C5.567,40.75,4,39.184,4,37.248c0-1.934,1.567-3.498,3.499-3.498
		c1.936,0,3.501,1.564,3.501,3.498C11,39.184,9.434,40.75,7.499,40.75"/>
	<path style="fill:#333333;" d="M44,37.75c0,1.1-0.9,2-2,2H18c-1.1,0-2-0.9-2-2v-1c0-1.1,0.9-2,2-2h24c1.1,0,2,0.9,2,2V37.75z"/>
</g>
</svg>
