<?xml version="1.0" encoding="iso-8859-1"?>
<!-- Generator: Adobe Illustrator 14.0.0, SVG Export Plug-In . SVG Version: 6.00 Build 43363)  -->
<!DOCTYPE svg PUBLIC "-//W3C//DTD SVG 1.1//EN" "http://www.w3.org/Graphics/SVG/1.1/DTD/svg11.dtd">
<svg version="1.1" id="icon-m-common-newest-on-top-layer"
	 xmlns="http://www.w3.org/2000/svg" xmlns:xlink="http://www.w3.org/1999/xlink" x="0px" y="0px" width="48px" height="48px"
	 viewBox="0 0 48 48" style="enable-background:new 0 0 48 48;" xml:space="preserve">
<g id="icon-m-common-newest-on-top">
	<rect style="fill:none;" width="48" height="48"/>
	<rect x="3.647" y="42.779" style="fill:#333333;" width="28.781" height="4.5"/>
	<rect x="3.609" y="30.987" style="fill:#333333;" width="28.781" height="4.5"/>
	<path style="fill:#333333;" d="M41.275,13.41c-0.507-4.904-4.662-8.741-9.697-8.741h-5.54V1.586c0-0.824-0.584-1.162-1.299-0.75
		l-9.304,5.373c-0.715,0.411-0.717,1.09-0.004,1.507l9.313,5.448c0.712,0.417,1.295,0.083,1.295-0.743V9.169h5.54
		c2.815,0,5.114,2.229,5.238,5.017c-0.124,2.784-2.423,5.014-5.238,5.014H3.609v4.5h27.969c5.218,0,9.479-4.123,9.727-9.28
		L41.275,13.41z"/>
</g>
</svg>
