<?xml version="1.0" encoding="iso-8859-1"?>
<!-- Generator: Adobe Illustrator 14.0.0, SVG Export Plug-In . SVG Version: 6.00 Build 43363)  -->
<!DOCTYPE svg PUBLIC "-//W3C//DTD SVG 1.1//EN" "http://www.w3.org/Graphics/SVG/1.1/DTD/svg11.dtd">
<svg version="1.1" id="icon-m-content-videos-layer"
	 xmlns="http://www.w3.org/2000/svg" xmlns:xlink="http://www.w3.org/1999/xlink" x="0px" y="0px" width="48px" height="48px"
	 viewBox="0 0 48 48" style="enable-background:new 0 0 48 48;" xml:space="preserve">
<g id="icon-m-content-videos">
	<rect style="fill:none;" width="48" height="48"/>
	<path style="fill:#333333;" d="M34.231,16.288c-7.5,0-13.579,6.079-13.579,13.579c0,7.499,6.079,13.579,13.579,13.579
		s13.578-6.08,13.578-13.579C47.811,22.367,41.731,16.288,34.231,16.288z M41.639,30.56l-10.366,6.045
		c-0.651,0.379-1.185,0.074-1.185-0.682V23.81c0-0.752,0.532-1.061,1.185-0.68l10.366,6.049
		C42.289,29.558,42.289,30.179,41.639,30.56z M16.138,29.867c0-0.125,0.006-0.247,0.01-0.372l-3.483,0.004v-0.023h-0.013V14.521
		h0.013v-0.023h12.033c1.232-0.768,2.565-1.389,3.969-1.846h-0.278c-0.412,0-0.746-1-0.746-1.409V8.265
		c0-0.408,0.334-0.742,0.746-0.742h2.977c0.407,0,0.742,0.334,0.742,0.742v2.978c0,0.166-0.056,0.427-0.146,0.679
		c0.744-0.092,1.502-0.148,2.272-0.148c1.124,0,2.225,0.109,3.296,0.31c-0.13-0.299-0.21-0.638-0.21-0.839V8.267
		c0-0.41,0.335-0.744,0.745-0.744h2.004V4.554H0.19v2.935v0.034h2.021c0.406,0,0.742,0.334,0.742,0.744v2.942
		c0,0.407-0.336,1.407-0.742,1.407H0.19v0.035v1.846v0.023h8.724v14.953H0.19v0.025v2.469v0.034h2.021
		c0.406,0,0.742,0.337,0.742,0.743v2.943c0,0.408-0.336,0.744-0.742,0.744H0.19v0.035v2.354h18.327
		C17.005,36.179,16.138,33.122,16.138,29.867z M17.935,8.267c0-0.41,0.337-0.744,0.744-0.744h2.979c0.41,0,0.743,0.334,0.743,0.744
		v2.977c0,0.408-0.333,1.41-0.743,1.41h-2.979c-0.407,0-0.744-1.002-0.744-1.41V8.267z M8.198,11.209V8.267
		c0-0.41,0.333-0.744,0.742-0.744h2.975c0.413,0,0.749,0.334,0.749,0.744v2.942c0,0.407-0.336,1.407-0.749,1.407H8.94
		C8.531,12.616,8.198,11.616,8.198,11.209z M12.664,35.688c0,0.408-0.336,0.744-0.749,0.744H8.94c-0.409,0-0.742-0.336-0.742-0.744
		v-2.943c0-0.406,0.333-0.743,0.742-0.743h2.975c0.413,0,0.749,0.337,0.749,0.743V35.688z M40.066,12.651v0.093
		c-0.09-0.03-0.18-0.063-0.272-0.093H40.066z"/>
</g>
</svg>
