<?xml version="1.0" encoding="iso-8859-1"?>
<!-- Generator: Adobe Illustrator 14.0.0, SVG Export Plug-In . SVG Version: 6.00 Build 43363)  -->
<!DOCTYPE svg PUBLIC "-//W3C//DTD SVG 1.1//EN" "http://www.w3.org/Graphics/SVG/1.1/DTD/svg11.dtd">
<svg version="1.1" id="icon-m-camera-video-screen-layer"
	 xmlns="http://www.w3.org/2000/svg" xmlns:xlink="http://www.w3.org/1999/xlink" x="0px" y="0px" width="32px" height="32px"
	 viewBox="0 0 32 32" style="enable-background:new 0 0 32 32;" xml:space="preserve">
<g id="icon-m-camera-video-screen">
	<rect style="fill:none;" width="32" height="32"/>
	<path style="fill:#FFFFFF;" d="M30.59,9.025l-4,1c0,0-0.5,0-0.5,1v0.5h-3.5v-1.5c0-0.465-0.537-1-1-1h-16c-0.5,0-0.5,0.5-0.5,0.5
		l-4-1c0,0-0.5,0.035-0.5,0.5v4.5c0,0.5,0.5,0.5,0.5,0.5l4-1v9.5c0,1,1.5,0.949,1.5,0.949h14.5c1,0,1.5-0.949,1.5-0.949v-6.051h3.5
		v0.551c0,1,1,1.5,1,1.5l3.5,0.5c0,0,1,0,1-0.5v-9C31.59,9.025,30.59,9.025,30.59,9.025z"/>
</g>
</svg>
