<?xml version="1.0" encoding="iso-8859-1"?>
<!-- Generator: Adobe Illustrator 14.0.0, SVG Export Plug-In . SVG Version: 6.00 Build 43363)  -->
<!DOCTYPE svg PUBLIC "-//W3C//DTD SVG 1.1//EN" "http://www.w3.org/Graphics/SVG/1.1/DTD/svg11.dtd">
<svg version="1.1" id="icon-m-camera-video-fine-resolution-layer"
	 xmlns="http://www.w3.org/2000/svg" xmlns:xlink="http://www.w3.org/1999/xlink" x="0px" y="0px" width="32px" height="32px"
	 viewBox="0 0 32 32" style="enable-background:new 0 0 32 32;" xml:space="preserve">
<g id="icon-m-camera-video-fine-resolution">
	<rect style="fill:none;" width="32" height="32"/>
	<polygon style="fill:#FFFFFF;" points="27.25,27.25 27.25,14.443 24.688,14.443 24.688,17.004 22.127,17.004 22.127,19.566 
		19.565,19.566 19.565,22.127 17.004,22.127 17.004,24.688 14.443,24.688 14.443,27.25 	"/>
	<path style="fill:#FFFFFF;" d="M14.895,20.018h2.562v-2.561h2.562v-1.061l-9.439,0.01v-0.011h-0.005V9.408h0.005V9.397h9.894v5.497
		h2.038V9.408h0.873V8.535h-0.937c-0.191,0-0.348-0.468-0.348-0.659V6.485c0-0.191,0.156-0.348,0.348-0.348h0.937V4.75H4.75v1.371
		v0.017h0.945c0.191,0,0.348,0.156,0.348,0.348V7.86c0,0.19-0.157,0.658-0.348,0.658H4.75v0.017v0.862v0.011h4.076v6.987H4.75v0.011
		v1.154v0.016h0.945c0.191,0,0.348,0.157,0.348,0.348V19.3c0,0.19-0.157,0.347-0.348,0.347H4.75v0.017v1.1h10.145V20.018z
		 M17.577,6.485c0-0.191,0.156-0.348,0.349-0.348h1.391c0.19,0,0.348,0.156,0.348,0.348v1.391c0,0.191-0.157,0.659-0.348,0.659
		h-1.391c-0.192,0-0.349-0.468-0.349-0.659V6.485z M13.041,6.485c0-0.191,0.158-0.348,0.349-0.348h1.391
		c0.191,0,0.348,0.156,0.348,0.348v1.391c0,0.191-0.156,0.659-0.348,0.659h-1.391c-0.191,0-0.349-0.468-0.349-0.659V6.485z
		 M8.492,7.86V6.485c0-0.191,0.156-0.348,0.347-0.348h1.391c0.192,0,0.348,0.156,0.348,0.348V7.86c0,0.19-0.156,0.658-0.348,0.658
		H8.839C8.647,8.519,8.492,8.051,8.492,7.86z M10.578,19.3c0,0.19-0.156,0.347-0.348,0.347H8.839c-0.191,0-0.347-0.156-0.347-0.347
		v-1.376c0-0.19,0.156-0.348,0.347-0.348h1.391c0.192,0,0.348,0.157,0.348,0.348V19.3z M13.041,19.3v-1.392
		c0-0.191,0.158-0.348,0.349-0.348h1.391c0.191,0,0.348,0.156,0.348,0.348V19.3c0,0.19-0.156,0.347-0.348,0.347h-1.391
		C13.198,19.646,13.041,19.49,13.041,19.3z"/>
	<path style="fill:none;" d="M23.739,8.037c0.046,0.015,0.091,0.031,0.136,0.046V8.037H23.739z"/>
</g>
</svg>
