<?xml version="1.0" encoding="iso-8859-1"?>
<!-- Generator: Adobe Illustrator 14.0.0, SVG Export Plug-In . SVG Version: 6.00 Build 43363)  -->
<!DOCTYPE svg PUBLIC "-//W3C//DTD SVG 1.1//EN" "http://www.w3.org/Graphics/SVG/1.1/DTD/svg11.dtd">
<svg version="1.1" id="icon-s-status-beep-layer" xmlns="http://www.w3.org/2000/svg" xmlns:xlink="http://www.w3.org/1999/xlink"
	 x="0px" y="0px" width="18px" height="18px" viewBox="0 0 18 18" style="enable-background:new 0 0 18 18;" xml:space="preserve">
<g id="icon-s-status-beep">
	<rect style="fill:none;" width="18" height="18"/>
	<path style="fill:#FFFFFF;" d="M8.265,4.942l0.007,8.116l-2.724-2.314l-0.291-0.246H4.88H1.373V7.469H4.92h0.378l0.292-0.247
		L8.265,4.942 M9.221,3H8.995c-0.052,0-0.128,0.029-0.17,0.064L4.92,6.39H0.323v5.188H4.88l3.954,3.36
		C8.876,14.973,8.952,15,9.005,15H9.23c0.051,0,0.093-0.051,0.093-0.113L9.314,3.113C9.314,3.051,9.271,3,9.221,3L9.221,3z"/>
	<rect x="16" y="7.859" style="fill:#FFFFFF;" width="2" height="2"/>
	<rect x="12" y="7.859" style="fill:#FFFFFF;" width="2" height="2"/>
</g>
</svg>
