<?xml version="1.0" encoding="iso-8859-1"?>
<!-- Generator: Adobe Illustrator 14.0.0, SVG Export Plug-In . SVG Version: 6.00 Build 43363)  -->
<!DOCTYPE svg PUBLIC "-//W3C//DTD SVG 1.1//EN" "http://www.w3.org/Graphics/SVG/1.1/DTD/svg11.dtd">
<svg version="1.1" id="icon-m-music-video-shuffle-off-layer"
	 xmlns="http://www.w3.org/2000/svg" xmlns:xlink="http://www.w3.org/1999/xlink" x="0px" y="0px" width="48px" height="48px"
	 viewBox="0 0 48 48" style="enable-background:new 0 0 48 48;" xml:space="preserve">
<g id="icon-m-music-video-shuffle-off_2_">
	<rect style="fill:none;" width="48" height="48"/>
	<path style="fill:#333333;" d="M13.268,11.459l0.272,0.009c1.178,0.042,2.268,0.542,3.07,1.407l0.061,0.064l0.007,0.01l0.028,0.031
		c0.138,0.158,0.247,0.299,0.335,0.43l0.029,0.041l0.031,0.041l0.286,0.367l-3.003,3.867c-1.262-1.048-2.844-1.653-4.514-1.699
		H9.849H9.828H1.5v-4.568H13.268 M13.593,9.959H0v7.568h9.828c1.793,0.049,3.382,0.895,4.43,2.2h0.003l0.233,0.302l4.793-6.17
		l-1.001-1.287c-0.137-0.202-0.289-0.395-0.449-0.577l-0.115-0.149l-0.012,0.01c-1.033-1.116-2.49-1.828-4.117-1.887V9.959
		L13.593,9.959z"/>
	<path style="fill:#333333;" d="M41.391,29.402l4.481,4.449l-4.481,4.45v-0.694v-1.5h-1.5h-7.287v-0.043l-1.537,0.038l-0.072,0.003
		h-0.001c-1.246-0.006-2.415-0.537-3.246-1.467l-0.148-0.19l-0.239-0.308l3.086-3.971c1.127,0.813,2.463,1.287,3.891,1.367
		l0.041,0.002h0.041h5.473h1.5v-1.5V29.402 M39.891,25.799v4.24h-5.473c-1.67-0.093-3.145-0.876-4.16-2.072l-4.797,6.174
		l0.953,1.227v0.028h0.009c1.081,1.346,2.733,2.21,4.595,2.21c0.028,0,0.058-0.002,0.086-0.004v0.006h8.787v4.297L48,33.852
		L39.891,25.799L39.891,25.799z"/>
	<path style="fill:#333333;" d="M41.391,9.699l4.481,4.449l-4.481,4.45v-0.638v-1.5h-1.5h-5.473h-0.041l-0.041,0.003
		c-2.063,0.113-3.998,1.096-5.308,2.696l-0.013,0.014l-0.011,0.016L17.102,34.508l-0.031,0.041l-0.029,0.042
		c-0.087,0.13-0.198,0.271-0.335,0.43l-0.025,0.028l-0.071,0.077c-0.802,0.865-1.892,1.364-3.07,1.407l-0.233,0.01H1.5v-4.57h8.328
		h0.021H9.87c1.92-0.053,3.727-0.846,5.06-2.2h0.066l0.45-0.579l12.153-15.64l0.094-0.129c0.839-0.974,2.04-1.53,3.298-1.531
		l0.056,0.003l0.021,0.001l1.537,0.034v-0.038h7.287h1.5v-1.5V9.699 M39.891,6.096v4.298h-8.787v0.005
		c-0.028-0.001-0.058-0.004-0.086-0.004c-1.861,0-3.514,0.865-4.595,2.211h-0.009v0.027l-12.153,15.64h-0.003
		c-1.048,1.307-2.637,2.151-4.43,2.2H0v7.57h13.593v-0.011c1.626-0.06,3.083-0.771,4.117-1.887l0.012,0.009l0.115-0.148
		c0.16-0.184,0.313-0.375,0.449-0.578L30.189,20.11c1.016-1.241,2.523-2.054,4.229-2.149h5.473v4.241L48,14.148L39.891,6.096
		L39.891,6.096z"/>
</g>
</svg>
