<?xml version="1.0" encoding="iso-8859-1"?>
<!-- Generator: Adobe Illustrator 14.0.0, SVG Export Plug-In . SVG Version: 6.00 Build 43363)  -->
<!DOCTYPE svg PUBLIC "-//W3C//DTD SVG 1.1//EN" "http://www.w3.org/Graphics/SVG/1.1/DTD/svg11.dtd">
<svg version="1.1" id="icon-s-status-call-initiating2-layer"
	 xmlns="http://www.w3.org/2000/svg" xmlns:xlink="http://www.w3.org/1999/xlink" x="0px" y="0px" width="18px" height="18px"
	 viewBox="0 0 18 18" style="enable-background:new 0 0 18 18;" xml:space="preserve">
<g id="icon-s-status-call-initiating2_1_">
	<rect style="fill:none;" width="18" height="18"/>
	<path style="opacity:0.5;fill:#FFFFFF;" d="M9.234,0.002L8.764,0C1.566,0,0,3.162,0,8.987c0,5.84,1.61,9.012,8.764,9.012L9.234,18
		C16.434,18,18,14.84,18,9.014C18,3.173,16.39,0.002,9.234,0.002z M12.834,6.686c-0.13,0.1-0.281,0.2-0.454,0.2
		c-0.128,0-0.267-0.056-0.418-0.206c0,0-0.979-1.354-1.775-1.354c-0.115,0-0.227,0.029-0.331,0.094
		C9.29,5.779,5.751,9.312,5.391,9.879c-0.515,0.818,1.266,2.1,1.266,2.1c0.354,0.352,0.182,0.646,0.007,0.871l-2.572,3.462
		C3.966,16.453,3.828,16.5,3.699,16.5c-0.252,0-0.467-0.18-0.467-0.183c-0.954-0.759-2.163-3.206-1.572-4.755
		c1.35-3.534,7.022-8.52,9.879-9.863C11.836,1.561,12.172,1.5,12.525,1.5c1.439,0,3.173,0.998,3.787,1.757
		c0.003,0,0.414,0.487-0.004,0.858L12.834,6.686z"/>
</g>
</svg>
