<?xml version="1.0" encoding="iso-8859-1"?>
<!-- Generator: Adobe Illustrator 14.0.0, SVG Export Plug-In . SVG Version: 6.00 Build 43363)  -->
<!DOCTYPE svg PUBLIC "-//W3C//DTD SVG 1.1//EN" "http://www.w3.org/Graphics/SVG/1.1/DTD/svg11.dtd">
<svg version="1.1" id="icon-m-camera-video-record-layer"
	 xmlns="http://www.w3.org/2000/svg" xmlns:xlink="http://www.w3.org/1999/xlink" x="0px" y="0px" width="48px" height="48px"
	 viewBox="0 0 48 48" style="enable-background:new 0 0 48 48;" xml:space="preserve">
<g id="icon-m-camera-video-record">
	<rect style="fill:none;" width="48" height="48"/>
	<path style="fill:#ED1D37;" d="M12,18.75v4.5c1.5,0,3-1.498,3-2.25C15,19.5,13.5,18.75,12,18.75z"/>
	<path style="fill:#ED1D37;" d="M23.863,0.852c-12.819,0-23.114,10.43-23.114,23.25S11.044,47.25,23.863,47.25
		c12.821,0,23.385-10.328,23.385-23.148S36.684,0.852,23.863,0.852z M15.749,32.25l-3-6.75l0,0H12v6.75H9V16.425l4.5,0.075
		c1.616,0,2.865,0.15,3.679,0.909c0.828,0.774,1.244,1.938,1.244,3.454c0,1.103-0.269,2.063-0.8,2.851
		c-0.393,0.587-0.918,1.048-1.572,1.383l3.45,7.153H15.749z M29.248,32.25H21V16.425l8.248,0.075v3H24v2.925l4.5,0.075v3H24v3.675
		l5.248,0.075V32.25z M39,19.5c0,0-1.5-0.75-2.779-0.514c-0.805,0.149-1.393,0.328-1.802,1.039
		c-0.476,0.818-0.671,2.241-0.671,3.975c0,1.894,0.208,3.178,0.701,4.076c0.428,0.775,1.023,1.139,1.867,1.139
		c0.541,0,1.109-0.089,1.688-0.263L39,28.5v3l-0.594,0.258c-0.797,0.222-1.605,0.332-2.402,0.332c-1.961,0-3.469-0.697-4.484-2.068
		C30.547,28.695,30,26.766,30,24c0-2.473,0.57-4.457,1.539-5.783c1.022-1.396,2.533-2.104,4.498-2.104
		C36.904,16.113,39,16.5,39,16.5V19.5z"/>
</g>
</svg>
