<?xml version="1.0" encoding="iso-8859-1"?>
<!-- Generator: Adobe Illustrator 14.0.0, SVG Export Plug-In . SVG Version: 6.00 Build 43363)  -->
<!DOCTYPE svg PUBLIC "-//W3C//DTD SVG 1.1//EN" "http://www.w3.org/Graphics/SVG/1.1/DTD/svg11.dtd">
<svg version="1.1" id="icon-s-common-skype-layer" xmlns="http://www.w3.org/2000/svg" xmlns:xlink="http://www.w3.org/1999/xlink"
	 x="0px" y="0px" width="18px" height="18px" viewBox="0 0 18 18" style="enable-background:new 0 0 18 18;" xml:space="preserve">
<g id="icon-s-common-skype">
	<rect style="fill:none;" width="18" height="18"/>
	<path style="fill:#FFFFFF;" d="M17.365,10.91c0.127-0.585,0.195-1.192,0.195-1.816c0-4.675-3.791-8.465-8.465-8.465
		c-0.494,0-0.978,0.044-1.448,0.124C6.892,0.276,5.996,0,5.036,0c-2.711,0-4.91,2.197-4.91,4.909c0,0.904,0.247,1.755,0.675,2.482
		C0.689,7.942,0.63,8.511,0.63,9.094c0,4.676,3.79,8.467,8.466,8.467c0.527,0,1.047-0.05,1.549-0.145
		C11.336,17.788,12.127,18,12.967,18c2.712,0,4.908-2.198,4.908-4.909C17.875,12.309,17.691,11.566,17.365,10.91z M13.438,13.141
		c-0.394,0.553-0.972,0.992-1.722,1.305c-0.741,0.309-1.633,0.465-2.645,0.465c-1.216,0-2.235-0.215-3.031-0.635
		c-0.567-0.309-1.037-0.725-1.394-1.237c-0.359-0.521-0.542-1.034-0.542-1.529c0-0.311,0.119-0.579,0.352-0.8
		c0.233-0.218,0.53-0.329,0.885-0.329c0.291,0,0.542,0.088,0.746,0.261c0.195,0.166,0.362,0.409,0.496,0.727
		C6.735,11.71,6.898,12,7.071,12.229c0.166,0.219,0.405,0.403,0.71,0.549c0.307,0.145,0.72,0.219,1.229,0.219
		c0.7,0,1.274-0.148,1.706-0.444c0.423-0.288,0.627-0.634,0.627-1.056c0-0.335-0.106-0.598-0.327-0.805
		c-0.23-0.215-0.533-0.383-0.902-0.498C9.729,10.075,9.205,9.945,8.56,9.809C7.68,9.619,6.934,9.396,6.339,9.144
		C5.732,8.886,5.243,8.527,4.885,8.08C4.521,7.625,4.337,7.055,4.337,6.383c0-0.639,0.193-1.217,0.575-1.713
		C5.29,4.177,5.843,3.793,6.556,3.529c0.702-0.261,1.537-0.393,2.483-0.393c0.756,0,1.42,0.089,1.976,0.262
		c0.559,0.172,1.028,0.408,1.397,0.695c0.373,0.291,0.65,0.604,0.824,0.925C13.412,5.348,13.5,5.672,13.5,5.984
		c0,0.304-0.117,0.577-0.348,0.817c-0.23,0.241-0.523,0.363-0.869,0.363c-0.312,0-0.559-0.076-0.729-0.229
		c-0.158-0.14-0.322-0.357-0.507-0.671c-0.211-0.401-0.467-0.719-0.76-0.939C10.006,5.11,9.53,5,8.876,5
		c-0.605,0-1.1,0.121-1.466,0.363C7.058,5.593,6.887,5.859,6.887,6.174c0,0.193,0.055,0.354,0.168,0.492
		c0.12,0.146,0.29,0.276,0.504,0.383C7.781,7.161,8.01,7.25,8.24,7.313c0.235,0.065,0.63,0.163,1.171,0.289
		c0.686,0.146,1.315,0.311,1.872,0.488c0.563,0.18,1.051,0.402,1.447,0.661c0.406,0.265,0.727,0.603,0.955,1.009
		c0.229,0.405,0.344,0.907,0.344,1.489C14.029,11.948,13.83,12.582,13.438,13.141z"/>
</g>
</svg>
