<?xml version="1.0" encoding="iso-8859-1"?>
<!-- Generator: Adobe Illustrator 14.0.0, SVG Export Plug-In . SVG Version: 6.00 Build 43363)  -->
<!DOCTYPE svg PUBLIC "-//W3C//DTD SVG 1.1//EN" "http://www.w3.org/Graphics/SVG/1.1/DTD/svg11.dtd">
<svg version="1.1" id="icon-m-camera-whitebalance-fluorescent-selected-layer"
	 xmlns="http://www.w3.org/2000/svg" xmlns:xlink="http://www.w3.org/1999/xlink" x="0px" y="0px" width="48px" height="48px"
	 viewBox="0 0 48 48" style="enable-background:new 0 0 48 48;" xml:space="preserve">
<g id="icon-m-camera-whitebalance-fluorescent-selected">
	<rect style="fill:none;" width="48" height="48"/>
	<path style="fill:#63AF45;" d="M6.75,17.25c-0.721,0-1.5,0.779-1.5,1.5v10.5c0,0.721,0.779,1.5,1.5,1.5h34.5
		c0.722,0,1.5-0.779,1.5-1.5v-10.5c0-0.721-0.778-1.5-1.5-1.5H6.75z M39.75,27.75H8.25v-7.574l31.5,0.074V27.75z"/>
	<path style="fill:#63AF45;" d="M44.25,18.75c0-1.688,3-1.688,3,0v10.5c0,1.688-3,1.5-3,0V18.75z"/>
	<path style="fill:#63AF45;" d="M0.75,18.75c0-1.5,3-1.5,3,0v10.5c0,1.688-3,1.688-3,0V18.75z"/>
</g>
</svg>
