<?xml version="1.0" encoding="iso-8859-1"?>
<!-- Generator: Adobe Illustrator 14.0.0, SVG Export Plug-In . SVG Version: 6.00 Build 43363)  -->
<!DOCTYPE svg PUBLIC "-//W3C//DTD SVG 1.1//EN" "http://www.w3.org/Graphics/SVG/1.1/DTD/svg11.dtd">
<svg version="1.1" id="icon-s-addressbook-layer" xmlns="http://www.w3.org/2000/svg" xmlns:xlink="http://www.w3.org/1999/xlink"
	 x="0px" y="0px" width="20px" height="18px" viewBox="0 0 20 18" style="enable-background:new 0 0 20 18;" xml:space="preserve">
<g id="icon-s-addressbook">
	<rect style="fill:none;" width="20" height="18"/>
	<path style="fill:#333333;" d="M17.412,0H3.647v3.176H0.47v3.177l3.177-0.005v5.299H0.47v3.177l3.177-0.004V18h13.765
		c0,0,2.117,0,2.117-2.117V2.117C19.529,0,17.412,0,17.412,0z M12.117,2.117c2.118,0,3.283,1.166,3.283,3.283
		s-1.165,3.282-3.283,3.282C10,8.683,8.835,7.518,8.835,5.4S10,2.117,12.117,2.117z M16.353,15.883H7.882v-2.117
		c0,0,0-4.236,4.235-4.236s4.235,4.236,4.235,4.236V15.883z"/>
</g>
</svg>
