<?xml version="1.0" encoding="iso-8859-1"?>
<!-- Generator: Adobe Illustrator 14.0.0, SVG Export Plug-In . SVG Version: 6.00 Build 43363)  -->
<!DOCTYPE svg PUBLIC "-//W3C//DTD SVG 1.1//EN" "http://www.w3.org/Graphics/SVG/1.1/DTD/svg11.dtd">
<svg version="1.1" id="icon-m-clock-alarm-create-layer"
	 xmlns="http://www.w3.org/2000/svg" xmlns:xlink="http://www.w3.org/1999/xlink" x="0px" y="0px" width="48px" height="48px"
	 viewBox="0 0 48 48" style="enable-background:new 0 0 48 48;" xml:space="preserve">
<g id="icon-m-clock-alarm-create">
	<rect style="fill:none;" width="48" height="48"/>
	<path style="fill:#333333;" d="M3.067,26.453c0,2.787,2.26,5.047,5.047,5.047c1.837,0,3.441-0.986,4.323-2.453L5.521,22.13
		C4.053,23.012,3.067,24.615,3.067,26.453z"/>
	<path style="fill:#333333;" d="M30.678,16.842c0.547-0.116,1.1-0.215,1.666-0.277c0.176-0.357,0.343-0.727,0.496-1.119
		c1.605-4.124,1.164-8.472-1.953-11.725L30.846,3.68c-3.253-3.118-7.601-3.559-11.723-1.953c-1.946,0.757-3.41,1.808-4.994,3.092
		c-2.357,1.912-5.147,3.513-7.979,4.6C4.973,9.87,4.033,10.082,3.142,10.99c-0.605,0.615-0.646,0.646-1.256,1.257
		c-0.408,0.407-0.549,1.217-0.142,1.624l9.456,9.456l0.041,0.04l5.936,5.936C18.971,23.005,24.185,18.135,30.678,16.842z"/>
	<path style="fill:#333333;" d="M33.75,20.625c-7.455,0-13.5,6.043-13.5,13.5c0,7.455,6.045,13.5,13.5,13.5s13.5-6.045,13.5-13.5
		C47.25,26.668,41.205,20.625,33.75,20.625z M41.85,36.275h-5.881v5.95h-4.403v-5.95H25.65v-4.37h5.915v-5.88h4.403v5.88h5.881
		V36.275z"/>
</g>
</svg>
