<?xml version="1.0" encoding="iso-8859-1"?>
<!-- Generator: Adobe Illustrator 14.0.0, SVG Export Plug-In . SVG Version: 6.00 Build 43363)  -->
<!DOCTYPE svg PUBLIC "-//W3C//DTD SVG 1.1//EN" "http://www.w3.org/Graphics/SVG/1.1/DTD/svg11.dtd">
<svg version="1.1" id="icon-m-toolbar-refresh3-layer"
	 xmlns="http://www.w3.org/2000/svg" xmlns:xlink="http://www.w3.org/1999/xlink" x="0px" y="0px" width="32px" height="32px"
	 viewBox="0 0 32 32" style="enable-background:new 0 0 32 32;" xml:space="preserve">
<g id="icon-m-toolbar-refresh3">
	<rect style="fill:none;" width="32" height="32"/>
	<path style="fill:#FFFFFF;" d="M5.818,26.182c5.624,5.624,14.741,5.624,20.365,0.001c5.623-5.623,5.624-14.74,0-20.364
		c-5.624-5.625-14.742-5.623-20.365,0C0.194,11.441,0.194,20.559,5.818,26.182z M24.677,17.414c0.08,0.081,0.131,0.19,0.136,0.312
		l0.28,7.356c0.005,0.128-0.043,0.252-0.132,0.342c-0.089,0.094-0.212,0.143-0.34,0.141c-0.12-0.003-0.291-0.051-0.376-0.137
		l-2.074-2.074c-3.657,3.44-9.436,3.374-13.014-0.198c-1.296-1.296-2.174-2.93-2.54-4.727c-0.028-0.136,0.007-0.278,0.096-0.386
		c0.087-0.108,0.219-0.171,0.359-0.171l2.974-0.002c0.204,0.001,0.383,0.133,0.443,0.327c0.267,0.862,0.726,1.624,1.363,2.263
		c2.09,2.083,5.45,2.15,7.622,0.197l-2.811-2.81c-0.088-0.089-0.137-0.207-0.136-0.33c0-0.126,0.051-0.273,0.142-0.362
		c0.091-0.088,0.214-0.162,0.34-0.155l7.356,0.279C24.487,17.284,24.597,17.334,24.677,17.414z M7.229,7.098l2.407,2.407
		c3.657-3.182,9.277-3.024,12.737,0.434c0,0,0,0,0.001,0.001c1.108,1.11,1.926,2.49,2.362,3.986c0.04,0.141,0.012,0.293-0.075,0.408
		c-0.088,0.117-0.226,0.187-0.371,0.186l-3.073,0.001c-0.182,0-0.346-0.106-0.422-0.271c-0.281-0.613-0.656-1.157-1.115-1.619
		c-2.012-2.006-5.15-2.157-7.341-0.424l2.473,2.473c0.085,0.086,0.133,0.201,0.136,0.32c0.002,0.128-0.048,0.277-0.14,0.367
		c-0.09,0.089-0.213,0.162-0.341,0.159l-7.355-0.281c-0.242-0.01-0.437-0.204-0.447-0.446L6.384,7.443
		C6.379,7.314,6.427,7.19,6.517,7.099c0.09-0.09,0.213-0.14,0.341-0.137C6.978,6.965,7.145,7.014,7.229,7.098z"/>
</g>
</svg>
