<?xml version="1.0" encoding="iso-8859-1"?>
<!-- Generator: Adobe Illustrator 14.0.0, SVG Export Plug-In . SVG Version: 6.00 Build 43363)  -->
<!DOCTYPE svg PUBLIC "-//W3C//DTD SVG 1.1//EN" "http://www.w3.org/Graphics/SVG/1.1/DTD/svg11.dtd">
<svg version="1.1" id="icon-m-music-video-dlna-device-layer"
	 xmlns="http://www.w3.org/2000/svg" xmlns:xlink="http://www.w3.org/1999/xlink" x="0px" y="0px" width="48px" height="48px"
	 viewBox="0 0 48 48" style="enable-background:new 0 0 48 48;" xml:space="preserve">
<g id="icon-m-music-video-dlna-device">
	<path style="fill:#333333;" d="M33.387,35.777c-0.074,0.002-1.408-0.064-2.217,0.822c-0.039,0.039-0.071,0.066-0.101,0.096
		c-0.636,0.785-1.608,1.287-2.696,1.287c-1.922,0-3.474-1.561-3.474-3.482c0-1.924,1.552-3.482,3.474-3.482
		c1.104,0,2.091,0.518,2.721,1.322c0.026,0.023,0.047,0.041,0.076,0.071c0.686,0.755,1.768,0.776,2.109,0.813H48
		C47.356,26.367,41.59,21,34.564,21c-4.349,0-8.207,2.064-10.675,5.258h8.644c0.073-0.002,1.407,0.064,2.215-0.821
		c0.041-0.04,0.072-0.067,0.102-0.097c0.636-0.785,1.609-1.287,2.697-1.287c1.921,0,3.473,1.561,3.473,3.483
		s-1.552,3.481-3.473,3.481c-1.105,0-2.091-0.518-2.721-1.322c-0.026-0.023-0.047-0.041-0.078-0.07
		c-0.685-0.755-1.767-0.777-2.108-0.813H22.333c-0.806,1.731-1.269,3.654-1.269,5.688c0,2.035,0.463,3.957,1.269,5.687h10.2
		c0.073-0.003,1.407,0.063,2.215-0.821c0.041-0.04,0.072-0.067,0.102-0.098c0.636-0.784,1.609-1.285,2.697-1.285
		c1.921,0,3.473,1.559,3.473,3.482s-1.552,3.482-3.473,3.482c-1.105,0-2.091-0.52-2.721-1.322c-0.026-0.024-0.047-0.041-0.078-0.072
		c-0.685-0.754-1.767-0.775-2.108-0.813h-8.752c2.47,3.194,6.327,5.26,10.677,5.26C41.589,48,47.355,42.634,48,35.777H33.387z"/>
	<rect style="fill:none;" width="48" height="48"/>
	<path style="fill:#333333;" d="M21.268,0.023H4.8c-2.656,0-4.8,2.014-4.8,4.5v32.391c0,2.463,2.145,4.494,4.8,4.494h13.112
		c-0.888-2.129-1.38-4.462-1.38-6.908c0-2.914,0.701-5.666,1.936-8.104H3.676V3.701h18.716v17.521
		c1.107-1.014,2.342-1.889,3.676-2.604V4.523C26.068,2.037,23.922,0.023,21.268,0.023z M10.41,30.908c0-0.826,0.675-1.5,1.5-1.5
		h2.25c0.825,0,1.5,0.674,1.5,1.5v2.244c0,0.824-0.675,1.5-1.5,1.5h-2.25c-0.825,0-1.5-0.676-1.5-1.5V30.908z"/>
</g>
</svg>
