<?xml version="1.0" encoding="iso-8859-1"?>
<!-- Generator: Adobe Illustrator 14.0.0, SVG Export Plug-In . SVG Version: 6.00 Build 43363)  -->
<!DOCTYPE svg PUBLIC "-//W3C//DTD SVG 1.1//EN" "http://www.w3.org/Graphics/SVG/1.1/DTD/svg11.dtd">
<svg version="1.1" id="icon-l-notes-layer" xmlns="http://www.w3.org/2000/svg" xmlns:xlink="http://www.w3.org/1999/xlink" x="0px"
	 y="0px" width="80px" height="81px" viewBox="0 0 80 81" style="enable-background:new 0 0 80 81;" xml:space="preserve">
<g id="icon-l-notes_1_">
	<path style="fill:#63C0CF;" d="M27.885,51.303l0.12,0.052h-0.142L27.885,51.303z M57.947,62.248l0.378-0.154l-9.916-4.135
		c-1.062-0.441-2.291,0.065-2.734,1.125L41.541,69L57.947,62.248z M68.109,38.623L60.337,57.27l-9.916-4.134
		c-3.725-1.554-8.019,0.214-9.571,3.938l-4.134,9.916L19.762,59.92c-1.062-0.442-1.568-1.674-1.126-2.736l13.92-33.385
		c0.442-1.06,1.673-1.567,2.734-1.125L66.985,35.89C68.048,36.332,68.554,37.561,68.109,38.623z M45.671,46.259l-13.51-5.634
		l-2.013,4.826l13.511,5.631L45.671,46.259z M60.711,40.067L36.587,30.012l-2.012,4.826l24.124,10.056L60.711,40.067z
		 M50.249,12.934c0-1.061-0.869-1.934-1.932-1.934H13.661c-1.063,0-1.932,0.873-1.932,1.934v38.421h2.543l12.492-29.969
		c1.305-3.125,4.336-5.145,7.726-5.145c1.11,0,2.191,0.216,3.217,0.644l12.542,5.229V12.934z"/>
	<rect style="fill:none;" width="80" height="80"/>
</g>
</svg>
