<?xml version="1.0" encoding="iso-8859-1"?>
<!-- Generator: Adobe Illustrator 14.0.0, SVG Export Plug-In . SVG Version: 6.00 Build 43363)  -->
<!DOCTYPE svg PUBLIC "-//W3C//DTD SVG 1.1//EN" "http://www.w3.org/Graphics/SVG/1.1/DTD/svg11.dtd">
<svg version="1.1" id="icon-m-toolbar-clock-layer" xmlns="http://www.w3.org/2000/svg" xmlns:xlink="http://www.w3.org/1999/xlink"
	 x="0px" y="0px" width="32px" height="32px" viewBox="0 0 32 32" style="enable-background:new 0 0 32 32;" xml:space="preserve">
<g id="icon-m-toolbar-clock">
	<rect style="fill:none;" width="32" height="32"/>
	<g>
		<g>
			<path style="fill:#FFFFFF;" d="M17.955,16.445c-0.205,0.965-1.04,1.65-2.03,1.65c-1.147,0-2.081-0.934-2.081-2.08
				c0-0.175,0.023-0.35,0.068-0.52L9.34,9.741l1.948-1.561l4.572,5.755c0.361-0.014,0.713,0.07,1.039,0.247l4.302-2.003l1.051,2.269
				L17.955,16.445z"/>
		</g>
	</g>
	<path style="fill:#FFFFFF;" d="M16,3.406c6.944,0,12.594,5.65,12.594,12.594S22.944,28.594,16,28.594S3.406,22.943,3.406,16
		S9.056,3.406,16,3.406 M16,0.5C7.439,0.5,0.5,7.439,0.5,16c0,8.56,6.939,15.5,15.5,15.5S31.5,24.56,31.5,16
		C31.5,7.439,24.561,0.5,16,0.5L16,0.5z"/>
</g>
</svg>
