<?xml version="1.0" encoding="iso-8859-1"?>
<!-- Generator: Adobe Illustrator 14.0.0, SVG Export Plug-In . SVG Version: 6.00 Build 43363)  -->
<!DOCTYPE svg PUBLIC "-//W3C//DTD SVG 1.1//EN" "http://www.w3.org/Graphics/SVG/1.1/DTD/svg11.dtd">
<svg version="1.1" id="icon-m-bluetooth-laptop-layer"
	 xmlns="http://www.w3.org/2000/svg" xmlns:xlink="http://www.w3.org/1999/xlink" x="0px" y="0px" width="48px" height="48px"
	 viewBox="0 0 48 48" style="enable-background:new 0 0 48 48;" xml:space="preserve">
<g id="icon-m-bluetooth-laptop">
	<rect style="fill:none;" width="48" height="48"/>
	<path style="fill:#333333;" d="M47.153,38.303l-4.223-7.291c-0.283-0.734-1.112-1.34-1.905-1.429
		c0.784-0.075,1.406-0.73,1.406-1.527V9.794c0-0.849-0.7-1.544-1.554-1.544H7.05c-0.854,0-1.553,0.695-1.553,1.544v18.262
		c0,0.81,0.639,1.473,1.44,1.531c-0.783,0.103-1.59,0.702-1.868,1.425l-4.222,7.291C0.541,39.1,0.983,39.75,1.833,39.75h44.333
		C47.015,39.75,47.46,39.1,47.153,38.303z M8.897,11.049h30v15.75h-30V11.049z M16.731,36.556l1.723-3.75h10.805l1.723,3.75H16.731z
		"/>
</g>
</svg>
