<?xml version="1.0" encoding="iso-8859-1"?>
<!-- Generator: Adobe Illustrator 14.0.0, SVG Export Plug-In . SVG Version: 6.00 Build 43363)  -->
<!DOCTYPE svg PUBLIC "-//W3C//DTD SVG 1.1//EN" "http://www.w3.org/Graphics/SVG/1.1/DTD/svg11.dtd">
<svg version="1.1" id="icon-m-toolbar-volume-off-layer"
	 xmlns="http://www.w3.org/2000/svg" xmlns:xlink="http://www.w3.org/1999/xlink" x="0px" y="0px" width="32px" height="32px"
	 viewBox="0 0 32 32" style="enable-background:new 0 0 32 32;" xml:space="preserve">
<g id="icon-m-toolbar-volume-off_1_">
	<rect style="fill:none;" width="32" height="32"/>
	
		<rect x="13.118" y="1.61" transform="matrix(0.7071 -0.7071 0.7071 0.7071 -7.1779 14.6691)" style="fill:#FFFFFF;" width="2" height="28.779"/>
	<path style="fill:#FFFFFF;" d="M15.134,8.48l0.013,15.04l-5.189-4.288l-0.555-0.457H8.684H2v-5.611h6.759h0.721l0.555-0.461
		L15.134,8.48 M16.954,4.883h-0.43c-0.1,0-0.246,0.054-0.325,0.117l-7.441,6.164H0v9.611h8.684L16.218,27
		c0.079,0.068,0.225,0.119,0.325,0.119h0.43c0.096,0,0.178-0.095,0.178-0.21l-0.02-21.815C17.131,4.978,17.05,4.883,16.954,4.883
		L16.954,4.883z"/>
</g>
</svg>
