<?xml version="1.0" encoding="iso-8859-1"?>
<!-- Generator: Adobe Illustrator 14.0.0, SVG Export Plug-In . SVG Version: 6.00 Build 43363)  -->
<!DOCTYPE svg PUBLIC "-//W3C//DTD SVG 1.1//EN" "http://www.w3.org/Graphics/SVG/1.1/DTD/svg11.dtd">
<svg version="1.1" id="icon-m-status-menu-presence-busy-layer"
	 xmlns="http://www.w3.org/2000/svg" xmlns:xlink="http://www.w3.org/1999/xlink" x="0px" y="0px" width="48px" height="48px"
	 viewBox="0 0 48 48" style="enable-background:new 0 0 48 48;" xml:space="preserve">
<g id="icon-m-status-menu-presence-busy">
	<rect style="fill:none;" width="48" height="48"/>
	<circle style="fill:#FFFFFF;" cx="24" cy="24" r="15"/>
	<path style="fill:#EC2227;" d="M24,5.92c-9.941,0-18,8.059-18,18s8.059,18,18,18c9.941,0,18-8.059,18-18S33.941,5.92,24,5.92z
		 M34.328,28.74H13.674c-2.02,0-3.674-1.648-3.674-3.668v-2.305c0-2.02,1.654-3.672,3.674-3.672h20.654
		c2.02,0,3.672,1.652,3.672,3.672v2.305C38,27.092,36.348,28.74,34.328,28.74z"/>
</g>
</svg>
