<?xml version="1.0" encoding="iso-8859-1"?>
<!-- Generator: Adobe Illustrator 14.0.0, SVG Export Plug-In . SVG Version: 6.00 Build 43363)  -->
<!DOCTYPE svg PUBLIC "-//W3C//DTD SVG 1.1//EN" "http://www.w3.org/Graphics/SVG/1.1/DTD/svg11.dtd">
<svg version="1.1" id="icon-m-camera-postcapture-view-disabled-screen-layer"
	 xmlns="http://www.w3.org/2000/svg" xmlns:xlink="http://www.w3.org/1999/xlink" x="0px" y="0px" width="32px" height="32px"
	 viewBox="0 0 32 32" style="enable-background:new 0 0 32 32;" xml:space="preserve">
<g id="icon-m-camera-postcapture-view-disabled-screen">
	<rect style="fill:none;" width="32" height="32"/>
	<path style="fill:#FFFFFF;" d="M15.841,10.458c0.251,0,0.477-0.098,0.652-0.25c0.232,0.331,0.563,0.539,0.932,0.539
		c0.366,0,0.698-0.208,0.933-0.539c0.173,0.152,0.4,0.25,0.65,0.25c0.548,0,0.99-0.446,0.99-0.996c0-0.551-0.442-0.997-0.99-0.997
		c-0.127,0-0.246,0.025-0.357,0.07c-0.16-0.706-0.648-1.22-1.226-1.22c-0.578,0-1.066,0.514-1.226,1.22
		c-0.111-0.045-0.231-0.07-0.358-0.07c-0.547,0-0.992,0.446-0.992,0.997C14.85,10.012,15.294,10.458,15.841,10.458z"/>
	<path style="fill:#FFFFFF;" d="M17.952,13.645c-0.803-0.896-1.789-1.032-2.799,1.201c-1.43-3.308-4.349-7.44-7.029,2.607h5.625
		C14.642,15.716,16.13,14.384,17.952,13.645z"/>
	<path style="fill:#FFFFFF;" d="M6.25,6.25h19.5v8.25c1.125,0.75,1.875,1.875,1.875,1.875V5.125c0,0,0-0.75-0.75-0.75H5.125
		c-0.75,0-0.75,0.75-0.75,0.75v15c0,0.75,0.75,0.75,0.75,0.75H13C13,19.75,13.375,19,13.375,19H6.25V6.25z"/>
	<path style="fill:#FFFFFF;" d="M21.625,14.582V13.57h1.125v-1.5h-3.375v1.5H20.5v1.01c-3.304,0.325-6.02,3.118-6.02,6.506
		c0,3.605,2.933,6.539,6.539,6.539c3.604,0,6.54-2.934,6.54-6.539C27.559,17.707,24.916,14.918,21.625,14.582z M16.348,21.086
		c0-2.574,2.096-4.671,4.671-4.671c0.642,0,1.254,0.131,1.812,0.366l-5.346,7.35C16.778,23.312,16.348,22.25,16.348,21.086z
		 M21.019,25.757c-0.735,0-1.43-0.176-2.05-0.48l5.404-7.432c0.813,0.841,1.316,1.982,1.316,3.241
		C25.689,23.662,23.594,25.757,21.019,25.757z"/>
</g>
</svg>
