<?xml version="1.0" encoding="iso-8859-1"?>
<!-- Generator: Adobe Illustrator 14.0.0, SVG Export Plug-In . SVG Version: 6.00 Build 43363)  -->
<!DOCTYPE svg PUBLIC "-//W3C//DTD SVG 1.1//EN" "http://www.w3.org/Graphics/SVG/1.1/DTD/svg11.dtd">
<svg version="1.1" id="icon-l-calendar-reminder-layer"
	 xmlns="http://www.w3.org/2000/svg" xmlns:xlink="http://www.w3.org/1999/xlink" x="0px" y="0px" width="83px" height="87px"
	 viewBox="0 0 83 87" style="enable-background:new 0 0 83 87;" xml:space="preserve">
<g id="icon-l-calendar-reminder">
	<rect style="fill:none;" width="82.968" height="82.967"/>
	<rect x="8.802" y="51.303" style="fill:none;" width="12.02" height="11.699"/>
	<rect x="24.029" y="66.191" style="fill:none;" width="12.158" height="11.699"/>
	<rect x="8.802" y="66.191" style="fill:none;" width="12.02" height="11.699"/>
	<rect x="39.395" y="36.281" style="fill:none;" width="12.023" height="11.83"/>
	<rect x="54.626" y="36.281" style="fill:none;" width="11.895" height="11.83"/>
	<rect x="8.802" y="36.281" style="fill:none;" width="12.02" height="11.83"/>
	<rect x="24.097" y="51.303" style="fill:none;" width="12.022" height="11.699"/>
	<rect x="24.029" y="36.281" style="fill:none;" width="12.158" height="11.83"/>
	<path style="fill:#333333;" d="M20.762,15.653h0.662c1.482,0,2.692-1.22,2.692-2.706V2.746c0-1.488-1.21-2.705-2.692-2.705h-0.662
		c-1.481,0-2.694,1.217-2.694,2.705v10.201C18.067,14.434,19.28,15.653,20.762,15.653z"/>
	<path style="fill:#333333;" d="M54.343,15.653h0.662c1.482,0,2.695-1.22,2.695-2.706V2.746c0-1.488-1.213-2.705-2.695-2.705h-0.662
		c-1.481,0-2.693,1.217-2.693,2.705v10.201C51.649,14.434,52.861,15.653,54.343,15.653z"/>
	<path style="fill:#333333;" d="M72.287,12.631h-9.039c-0.497,4.549-4.276,8.082-8.867,8.082s-8.368-3.533-8.866-8.082H29.666
		c-0.498,4.549-4.276,8.082-8.867,8.082c-4.592,0-8.367-3.533-8.868-8.082H3.104v13.414h69.184V12.631z"/>
	<path style="fill:#333333;" d="M68.714,82.924h0.869c1.426,0,2.592-1.166,2.592-2.594v-0.867L68.714,82.924z"/>
	<path style="fill:#333333;" d="M66.585,51.303v4.443c0.145,0.115,0.291,0.23,0.434,0.344c1.501,1.221,3.324,2.277,5.164,3.023
		l0.008-27.866H3.104L3.07,80.33c0,1.428,1.166,2.594,2.593,2.594h41.659c-0.72-1.586-1.65-3.129-2.706-4.43
		c-0.16-0.197-0.321-0.398-0.482-0.604h-4.738V51.303H66.585z M54.626,36.281h11.895v11.83H54.626V36.281z M20.822,77.891H8.802
		V66.191h12.02V77.891z M20.822,63.002H8.802V51.303h12.02V63.002z M20.822,48.111H8.802v-11.83h12.02V48.111z M36.188,77.891
		H24.029V66.191h12.158V77.891z M24.097,63.002V51.303H36.12v11.699H24.097z M36.188,48.111H24.029v-11.83h12.158V48.111z
		 M39.395,36.281h12.023v11.83H39.395V36.281z"/>
	<path style="fill:#333333;" d="M73.058,66.266c-0.795-0.809-1.637-0.998-2.688-1.402c-2.53-0.973-5.024-2.402-7.132-4.111
		c-1.416-1.148-2.725-2.088-4.463-2.766c-3.686-1.432-7.572-1.039-10.48,1.746l-0.037,0.037c-2.785,2.908-3.18,6.795-1.745,10.48
		c0.677,1.738,1.616,3.047,2.765,4.463c1.709,2.107,3.14,4.602,4.11,7.131c0.405,1.053,0.593,1.895,1.405,2.689
		c0.551,0.541,0.578,0.58,1.123,1.123c0.364,0.363,1.088,0.49,1.453,0.127l8.451-8.451l0.036-0.037l8.452-8.451
		c0.364-0.365,0.238-1.088-0.127-1.453C73.636,66.846,73.6,66.818,73.058,66.266z"/>
	<path style="fill:#333333;" d="M64.749,81.32c0.789,1.313,2.223,2.193,3.864,2.193c2.491,0,4.511-2.02,4.512-4.512
		c-0.001-1.645-0.881-3.076-2.192-3.863L64.749,81.32z"/>
</g>
</svg>
