<?xml version="1.0" encoding="iso-8859-1"?>
<!-- Generator: Adobe Illustrator 14.0.0, SVG Export Plug-In . SVG Version: 6.00 Build 43363)  -->
<!DOCTYPE svg PUBLIC "-//W3C//DTD SVG 1.1//EN" "http://www.w3.org/Graphics/SVG/1.1/DTD/svg11.dtd">
<svg version="1.1" id="icon-m-camera-exposure-plus17-layer"
	 xmlns="http://www.w3.org/2000/svg" xmlns:xlink="http://www.w3.org/1999/xlink" x="0px" y="0px" width="32px" height="32px"
	 viewBox="0 0 32 32" style="enable-background:new 0 0 32 32;" xml:space="preserve">
<g id="icon-m-camera-exposure-plus17">
	<g>
		<rect style="fill:none;" width="32" height="32"/>
	</g>
	<g>
		<path style="fill:#FFFFFF;" d="M9.447,17.134h-2.77v2.802H4.604v-2.802H1.818v-2.058h2.786v-2.77h2.073v2.77h2.77V17.134z"/>
		<path style="fill:#FFFFFF;" d="M18.275,21.88h-7.451v-1.425h2.494V12l-2.494,0.533v-1.393l3.693-1.15h1.409v10.465h2.348V21.88z"
			/>
		<path style="fill:#FFFFFF;" d="M20.463,22.01c-0.793,0-1.425-0.633-1.425-1.426s0.632-1.441,1.425-1.441
			c0.795,0,1.441,0.648,1.441,1.441S21.258,22.01,20.463,22.01z"/>
		<path style="fill:#FFFFFF;" d="M30.182,11.367c-1.879,3.207-3.012,6.415-3.125,10.513h-2.77c0.096-3.758,1.44-7.419,3.142-10.188
			h-4.714v-1.604h7.467V11.367z"/>
	</g>
</g>
</svg>
