<?xml version="1.0" encoding="iso-8859-1"?>
<!-- Generator: Adobe Illustrator 14.0.0, SVG Export Plug-In . SVG Version: 6.00 Build 43363)  -->
<!DOCTYPE svg PUBLIC "-//W3C//DTD SVG 1.1//EN" "http://www.w3.org/Graphics/SVG/1.1/DTD/svg11.dtd">
<svg version="1.1" id="icon-m-messaging-smiley-worried-layer"
	 xmlns="http://www.w3.org/2000/svg" xmlns:xlink="http://www.w3.org/1999/xlink" x="0px" y="0px" width="48px" height="48px"
	 viewBox="0 0 48 48" style="enable-background:new 0 0 48 48;" xml:space="preserve">
<g id="icon-m-messaging-smiley-worried">
	<rect style="fill:none;" width="48" height="48"/>
	<path style="fill:#333333;" d="M36.607,16.125c-0.508,0-0.969-0.345-1.093-0.859c-0.294-1.213-0.958-2.051-1.975-2.492
		c-1.196-0.52-2.511-0.337-2.899-0.184c-0.324,0.352-0.848,0.469-1.305,0.256c-0.563-0.262-0.806-0.932-0.543-1.494
		c0.531-1.14,2.648-1.242,3.694-1.14c2.682,0.267,4.581,1.916,5.214,4.522c0.146,0.604-0.225,1.213-0.828,1.359
		C36.784,16.115,36.695,16.125,36.607,16.125L36.607,16.125z"/>
	<path style="fill:#333333;" d="M11.393,16.125c0.507,0,0.968-0.345,1.092-0.859c0.294-1.213,0.958-2.051,1.974-2.492
		c1.197-0.52,2.512-0.337,2.9-0.184c0.323,0.352,0.848,0.469,1.304,0.256c0.563-0.262,0.806-0.932,0.543-1.494
		c-0.532-1.14-2.649-1.242-3.694-1.14c-2.681,0.267-4.582,1.916-5.213,4.522c-0.146,0.604,0.224,1.213,0.828,1.359
		C11.216,16.115,11.305,16.125,11.393,16.125L11.393,16.125z"/>
	<path style="fill:#333333;" d="M29.621,18c0.831,0,1.596,0.38,2.097,1.042c0.873,1.153,0.646,2.802-0.509,3.676
		c-0.46,0.349-1.008,0.532-1.582,0.532c-0.831,0-1.594-0.379-2.094-1.039c-0.424-0.56-0.604-1.25-0.509-1.945
		c0.097-0.694,0.457-1.31,1.016-1.732C28.5,18.185,29.047,18,29.621,18 M29.621,16.5c-0.867,0-1.741,0.273-2.486,0.836
		c-1.816,1.376-2.174,3.963-0.798,5.78c0.811,1.07,2.043,1.634,3.29,1.634c0.867,0,1.742-0.272,2.487-0.836
		c1.816-1.376,2.175-3.961,0.8-5.777C32.102,17.064,30.869,16.5,29.621,16.5L29.621,16.5z"/>
	<path style="fill:#333333;" d="M18.371,18c0.831,0,1.595,0.38,2.097,1.042c0.873,1.153,0.645,2.802-0.509,3.676
		c-0.46,0.349-1.008,0.532-1.582,0.532c-0.831,0-1.594-0.379-2.094-1.039c-0.423-0.56-0.604-1.25-0.508-1.945
		c0.096-0.694,0.457-1.31,1.016-1.732C17.25,18.185,17.797,18,18.371,18 M18.371,16.5c-0.867,0-1.741,0.273-2.486,0.836
		c-1.817,1.376-2.174,3.963-0.798,5.78c0.811,1.07,2.043,1.634,3.29,1.634c0.868,0,1.743-0.272,2.487-0.836
		c1.816-1.376,2.174-3.961,0.799-5.777C20.852,17.064,19.619,16.5,18.371,16.5L18.371,16.5z"/>
	<path style="fill:#333333;" d="M24,3c11.58,0,21,9.42,21,21s-9.42,21-21,21C12.42,45,3,35.58,3,24S12.42,3,24,3 M24,0
		C10.745,0,0,10.745,0,24s10.745,24,24,24s24-10.745,24-24S37.255,0,24,0L24,0z"/>
	<path style="fill:#333333;" d="M36.559,33.789c-0.078-0.078-5.28-5.156-12.168-5.197h-0.002h-0.001
		c-5.128,0.03-9.304,2.842-11.144,4.313c-0.604,0.437-2.882,2.272-0.332,3.561c0,0,2.157,1.015,3.936-2.331
		c0,0,0.95-2.272,3.137-3.348l-0.067,0.021c1.353-0.459,2.858-0.768,4.471-0.763c6.176-0.018,10.82,4.516,11.109,4.805
		c0.293,0.293,0.768,0.293,1.061,0S36.852,34.082,36.559,33.789z"/>
</g>
</svg>
