<?xml version="1.0" encoding="iso-8859-1"?>
<!-- Generator: Adobe Illustrator 14.0.0, SVG Export Plug-In . SVG Version: 6.00 Build 43363)  -->
<!DOCTYPE svg PUBLIC "-//W3C//DTD SVG 1.1//EN" "http://www.w3.org/Graphics/SVG/1.1/DTD/svg11.dtd">
<svg version="1.1" id="icon-s-status-45g-layer" xmlns="http://www.w3.org/2000/svg" xmlns:xlink="http://www.w3.org/1999/xlink"
	 x="0px" y="0px" width="31px" height="18px" viewBox="0 0 31 18" style="enable-background:new 0 0 31 18;" xml:space="preserve">
<g id="icon-s-status-45g">
	<rect style="fill:none;" width="31" height="18"/>
	<path style="fill:#FFFFFF;" d="M13.088,14.054h-1.827v3.751H7.34v-3.751H0.398v-2.239L7.535,0h3.727v11.717h1.827V14.054z
		 M7.34,11.717V4.555l-4.213,7.162H7.34z"/>
	<path style="fill:#FFFFFF;" d="M16.061,18c-1.193,0-2.143-0.95-2.143-2.144s0.95-2.168,2.143-2.168s2.168,0.975,2.168,2.168
		S17.254,18,16.061,18z"/>
	<path style="fill:#FFFFFF;" d="M24.002,6.432c0.316-0.05,0.705-0.05,1.07-0.05c3.436,0,5.529,1.875,5.529,5.603
		c0,4.043-2.07,6.016-6.6,6.016c-1.438,0-2.875-0.219-4.166-0.535v-2.388c1.219,0.316,2.314,0.585,3.459,0.585
		c2.338,0,3.264-1.17,3.264-3.557c0-2.07-1.072-3.313-3.58-3.313c-0.779,0-1.826,0.025-2.582,0.121V0.073h9.523v2.339h-5.918V6.432z
		"/>
</g>
</svg>
