<?xml version="1.0" encoding="iso-8859-1"?>
<!-- Generator: Adobe Illustrator 14.0.0, SVG Export Plug-In . SVG Version: 6.00 Build 43363)  -->
<!DOCTYPE svg PUBLIC "-//W3C//DTD SVG 1.1//EN" "http://www.w3.org/Graphics/SVG/1.1/DTD/svg11.dtd">
<svg version="1.1" id="icon-m-content-third-party-update-layer"
	 xmlns="http://www.w3.org/2000/svg" xmlns:xlink="http://www.w3.org/1999/xlink" x="0px" y="0px" width="49px" height="48px"
	 viewBox="0 0 49 48" style="enable-background:new 0 0 49 48;" xml:space="preserve">
<g id="icon-m-content-third-party-update">
	<rect x="0.5" style="fill:none;" width="48" height="48"/>
	<path style="fill:#333333;" d="M34.3,25.376c-0.369,0-0.836-0.438-0.411-0.909l7.058-6.82c0.22-0.24,0.595-0.236,0.812-0.003
		l7.094,6.823c0.36,0.399,0.003,0.909-0.409,0.909H34.3z"/>
	<path style="fill:#333333;" d="M35.5,25.18v-2.227l-2.73-0.522c-0.212-1.122-0.648-2.162-1.252-3.082l1.523-2.244l-1.574-1.578
		l-2.211,1.511c-0.94-0.65-2.022-1.115-3.185-1.34l-0.507-2.675h-2.224l-0.513,2.684c-1.148,0.227-2.212,0.684-3.142,1.324
		l-2.273-1.547l-1.57,1.574l1.561,2.31c-0.602,0.915-1.032,1.955-1.242,3.076l-2.662,0.51v2.227l2.68,0.512
		c0.23,1.136,0.684,2.188,1.313,3.11l-1.561,2.297l1.574,1.575l2.312-1.575l-0.033-0.03c0.906,0.608,1.937,1.043,3.05,1.259
		l0.504,2.65h2.224l0.498-2.643c1.111-0.211,2.145-0.643,3.053-1.245l2.262,1.539l1.57-1.575l-1.517-2.235
		c0.636-0.929,1.096-1.991,1.323-3.136v0.022L35.5,25.18z M24.515,28.746c-2.597,0-4.705-2.107-4.705-4.713
		c0-2.604,2.107-4.715,4.705-4.715c2.6,0,4.705,2.11,4.705,4.715C29.22,26.639,27.115,28.746,24.515,28.746z"/>
	<path style="fill:#333333;" d="M14.7,22.938c0.37,0,0.836,0.438,0.41,0.909l-7.056,6.82c-0.22,0.241-0.594,0.237-0.811,0.004
		l-7.094-6.824c-0.36-0.398-0.003-0.909,0.409-0.909H14.7z"/>
	<path style="fill:#333333;" d="M9.661,24.001c0-8.171,6.648-14.818,14.819-14.818c3.91,0,7.604,1.521,10.4,4.28l0.349,0.344
		l2.986-2.91l-0.361-0.357c-3.586-3.564-8.336-5.526-13.374-5.526c-10.47,0-18.988,8.519-18.988,18.988"/>
	<path style="fill:#333333;" d="M39.297,24.001c0,8.171-6.646,14.818-14.817,14.818c-3.655,0-7.177-1.364-9.916-3.84l-0.359-0.323
		l-2.895,2.991l0.379,0.347c3.52,3.221,8.062,4.994,12.791,4.994c10.47,0,18.987-8.518,18.987-18.987"/>
</g>
</svg>
