<?xml version="1.0" encoding="iso-8859-1"?>
<!-- Generator: Adobe Illustrator 14.0.0, SVG Export Plug-In . SVG Version: 6.00 Build 43363)  -->
<!DOCTYPE svg PUBLIC "-//W3C//DTD SVG 1.1//EN" "http://www.w3.org/Graphics/SVG/1.1/DTD/svg11.dtd">
<svg version="1.1" id="icon-m-telephony-call-end-layer"
	 xmlns="http://www.w3.org/2000/svg" xmlns:xlink="http://www.w3.org/1999/xlink" x="0px" y="0px" width="48px" height="48px"
	 viewBox="0 0 48 48" style="enable-background:new 0 0 48 48;" xml:space="preserve">
<g id="icon-m-telephony-call-end_2_">
	<rect style="fill:none;" width="48" height="48"/>
	<path style="fill:#EC2227;" d="M17.161,38.729c0,0-0.645-3.947,1.078-4.339c1.193-0.27,10.319-0.264,11.514,0.009
		c1.726,0.394,1.092,4.342,1.092,4.342L17.161,38.729z"/>
	<path style="fill:#EC2227;" d="M41.785,26.179c-7.578-2.734-26.817-3.973-35.629-0.03c-3.86,1.728-6.097,8.326-5.745,11.42
		c-0.008,0.006,0.143,1.63,1.56,1.54l10.895-1.606c0.721-0.09,1.562-0.312,1.557-1.586c0,0-0.903-5.523,1.506-6.069
		c1.671-0.373,14.432-0.362,16.102,0.011c2.412,0.555,1.528,6.078,1.528,6.078c0.003,1.276,0.847,1.49,1.563,1.581l10.909,1.634
		c1.425,0.085,1.565-1.54,1.56-1.545C47.918,34.519,45.779,27.623,41.785,26.179z"/>
</g>
</svg>
