<?xml version="1.0" encoding="iso-8859-1"?>
<!-- Generator: Adobe Illustrator 14.0.0, SVG Export Plug-In . SVG Version: 6.00 Build 43363)  -->
<!DOCTYPE svg PUBLIC "-//W3C//DTD SVG 1.1//EN" "http://www.w3.org/Graphics/SVG/1.1/DTD/svg11.dtd">
<svg version="1.1" id="icon-m-status-menu-presence-online-layer"
	 xmlns="http://www.w3.org/2000/svg" xmlns:xlink="http://www.w3.org/1999/xlink" x="0px" y="0px" width="48px" height="48px"
	 viewBox="0 0 48 48" style="enable-background:new 0 0 48 48;" xml:space="preserve">
<g id="icon-m-status-menu-presence-online">
	<rect style="fill:none;" width="48" height="48"/>
	<path style="fill:#079247;" d="M37.537,17.69c-3.482,3.212-8.67,8.504-13.602,15.489c-0.154,0.221-0.364,0.387-0.61,0.481v0.099
		l-0.952-0.077c-0.191-0.066-0.366-0.176-0.514-0.323l-9.965-10.017c-0.242-0.242-0.386-0.577-0.393-0.921l0.009-0.2
		c0.043-0.32,0.193-0.612,0.426-0.827l3.316-3.064c0.523-0.486,1.427-0.461,1.911,0.056l4.738,4.862
		c4.436-5.955,10.311-9.843,15.116-11.809C33.736,7.997,29.121,5.839,24,5.839c-9.925,0-18,8.075-18,18s8.075,18,18,18
		c9.926,0,18-8.075,18-18c0-2.995-0.744-5.812-2.043-8.298C39.154,16.227,38.347,16.944,37.537,17.69z"/>
</g>
</svg>
