<?xml version="1.0" encoding="iso-8859-1"?>
<!-- Generator: Adobe Illustrator 14.0.0, SVG Export Plug-In . SVG Version: 6.00 Build 43363)  -->
<!DOCTYPE svg PUBLIC "-//W3C//DTD SVG 1.1//EN" "http://www.w3.org/Graphics/SVG/1.1/DTD/svg11.dtd">
<svg version="1.1" id="icon-m-music-video-now-playing5-layer"
	 xmlns="http://www.w3.org/2000/svg" xmlns:xlink="http://www.w3.org/1999/xlink" x="0px" y="0px" width="48px" height="48px"
	 viewBox="0 0 48 48" style="enable-background:new 0 0 48 48;" xml:space="preserve">
<g id="icon-m-music-video-now-playing5">
	<polygon style="fill:none;" points="48,48 0,47.907 0,0 48,0 	"/>
	<g>
		<path style="fill:#333333;" d="M17.415,16.258c0-1.1,0.782-1.554,1.737-1.009l13.527,7.723c0.956,0.545,0.956,1.438,0,1.982
			l-13.527,7.725c-0.955,0.545-1.737,0.091-1.737-1.009V16.258z"/>
	</g>
	<path style="fill:#333333;" d="M4.906,24C4.905,34.547,13.454,43.095,24,43.095c10.545,0,19.094-8.549,19.094-19.093
		c0-10.545-8.549-19.094-19.094-19.094c-1.854,0-3.646,0.27-5.343,0.763l0,3.134C20.328,8.216,22.127,7.891,24,7.891
		c8.882,0,16.11,7.227,16.11,16.109c0,8.882-7.228,16.11-16.11,16.11S7.889,32.882,7.889,24c0-4.104,1.55-7.851,4.088-10.698
		l3.099,3.098l0.001-8.353H6.721l3.139,3.139C6.786,14.573,4.905,19.066,4.906,24z"/>
</g>
</svg>
