<?xml version="1.0" encoding="iso-8859-1"?>
<!-- Generator: Adobe Illustrator 14.0.0, SVG Export Plug-In . SVG Version: 6.00 Build 43363)  -->
<!DOCTYPE svg PUBLIC "-//W3C//DTD SVG 1.1//EN" "http://www.w3.org/Graphics/SVG/1.1/DTD/svg11.dtd">
<svg version="1.1" id="icon-m-common-directory-new-content-layer"
	 xmlns="http://www.w3.org/2000/svg" xmlns:xlink="http://www.w3.org/1999/xlink" x="0px" y="0px" width="48px" height="48px"
	 viewBox="0 0 48 48" style="enable-background:new 0 0 48 48;" xml:space="preserve">
<g id="icon-m-common-directory-new-content_1_">
	<rect style="fill:none;" width="48" height="48"/>
	<path style="fill:#333333;" d="M34.5,31.5c-9.926,0-18.001-8.074-18.001-18c0-0.357,0.014-0.711,0.035-1.063H0.015L0.012,44.179
		c0,0.824,0.674,1.5,1.5,1.5H46.5c0.824,0,1.5-0.676,1.5-1.5V25.387C44.699,29.131,39.872,31.5,34.5,31.5z"/>
	<path style="fill:#333333;" d="M20.405,2.324H1.515c-0.825,0-1.5,0.674-1.5,1.5l0,5.502h16.979
		C17.612,6.73,18.795,4.351,20.405,2.324z"/>
	<path style="fill:#333333;" d="M34.5,0c-7.457,0-13.501,6.043-13.501,13.5c0,7.455,6.044,13.5,13.501,13.5
		C41.955,27,48,20.955,48,13.5C48,6.043,41.955,0,34.5,0z M43.125,16.594l-2.014,3.252l-4.7-2.912v5.528h-3.823v-5.528l-4.701,2.912
		l-2.012-3.252l4.994-3.094l-4.994-3.096l2.012-3.251l4.701,2.913v-5.53h3.823v5.53l4.7-2.911l2.014,3.249L38.13,13.5L43.125,16.594
		z"/>
</g>
</svg>
