<?xml version="1.0" encoding="iso-8859-1"?>
<!-- Generator: Adobe Illustrator 14.0.0, SVG Export Plug-In . SVG Version: 6.00 Build 43363)  -->
<!DOCTYPE svg PUBLIC "-//W3C//DTD SVG 1.1//EN" "http://www.w3.org/Graphics/SVG/1.1/DTD/svg11.dtd">
<svg version="1.1" id="icon-m-content-note-layer" xmlns="http://www.w3.org/2000/svg" xmlns:xlink="http://www.w3.org/1999/xlink"
	 x="0px" y="0px" width="48px" height="48px" viewBox="0 0 48 48" style="enable-background:new 0 0 48 48;" xml:space="preserve">
<g id="icon-m-content-note_2_">
	<rect style="fill:none;" width="48" height="48"/>
	<path style="fill:#333333;" d="M45.102,1.736C45.102,0.781,44.32,0,43.365,0h-5.767v2.658c0,1.014-0.83,1.844-1.844,1.844h-1.076
		c-1.015,0-1.845-0.83-1.845-1.844V0h-6.451v2.658c0,1.014-0.831,1.844-1.845,1.844h-1.076c-1.014,0-1.845-0.83-1.845-1.844V0
		h-6.452v2.658c0,1.014-0.83,1.844-1.844,1.844h-1.076c-1.014,0-1.844-0.83-1.844-1.844V0H4.635C3.68,0,2.899,0.781,2.899,1.736
		v44.526C2.899,47.219,3.68,48,4.635,48h38.73c0.955,0,1.736-0.781,1.736-1.737V1.736z M9.644,11.722h28.476v4.567H9.644V11.722z
		 M9.644,21.465h28.476v4.566H9.644V21.465z M9.644,31.206h14.237v4.565H9.644V31.206z"/>
</g>
</svg>
