<?xml version="1.0" encoding="iso-8859-1"?>
<!-- Generator: Adobe Illustrator 14.0.0, SVG Export Plug-In . SVG Version: 6.00 Build 43363)  -->
<!DOCTYPE svg PUBLIC "-//W3C//DTD SVG 1.1//EN" "http://www.w3.org/Graphics/SVG/1.1/DTD/svg11.dtd">
<svg version="1.1" id="icon-m-music-video-now-playing7-layer"
	 xmlns="http://www.w3.org/2000/svg" xmlns:xlink="http://www.w3.org/1999/xlink" x="0px" y="0px" width="48px" height="48px"
	 viewBox="0 0 48 48" style="enable-background:new 0 0 48 48;" xml:space="preserve">
<g id="icon-m-music-video-now-playing7">
	<polygon style="fill:none;" points="48,48 0,47.907 0,0 48,0 	"/>
	<g>
		<path style="fill:#333333;" d="M17.415,16.258c0-1.1,0.782-1.554,1.737-1.009l13.527,7.723c0.956,0.545,0.956,1.438,0,1.982
			l-13.527,7.725c-0.955,0.545-1.737,0.091-1.737-1.009V16.258z"/>
	</g>
	<path style="fill:#333333;" d="M24.001,4.907C13.454,4.906,4.905,13.455,4.906,24.001c0,10.546,8.549,19.095,19.093,19.095
		s19.094-8.549,19.094-19.095c0-1.854-0.269-3.646-0.763-5.344l-3.135-0.001c0.589,1.673,0.914,3.472,0.915,5.346
		c0,8.883-7.228,16.109-16.11,16.109c-8.882,0-16.109-7.228-16.11-16.11S15.118,7.89,24,7.89c4.104,0,7.852,1.55,10.699,4.088
		l-3.099,3.099l8.354,0.002V6.723l-3.14,3.139C33.428,6.787,28.935,4.906,24.001,4.907z"/>
</g>
</svg>
