<?xml version="1.0" encoding="iso-8859-1"?>
<!-- Generator: Adobe Illustrator 14.0.0, SVG Export Plug-In . SVG Version: 6.00 Build 43363)  -->
<!DOCTYPE svg PUBLIC "-//W3C//DTD SVG 1.1//EN" "http://www.w3.org/Graphics/SVG/1.1/DTD/svg11.dtd">
<svg version="1.1" id="icon-m-content-video-layer" xmlns="http://www.w3.org/2000/svg" xmlns:xlink="http://www.w3.org/1999/xlink"
	 x="0px" y="0px" width="48px" height="48px" viewBox="0 0 48 48" style="enable-background:new 0 0 48 48;" xml:space="preserve">
<g id="icon-m-content-video_2_">
	<rect style="fill:none;" width="48" height="48"/>
	<path style="fill:#333333;" d="M45.588,6.575H48V3H0v3.532v0.043h2.434c0.492,0,0.895,0.402,0.895,0.895v3.543
		c0,0.491-0.403,1.694-0.895,1.694H0v0.043v2.221V15h10.5v18H0v0.029V36v0.043h2.434c0.492,0,0.895,0.403,0.895,0.895v3.543
		c0,0.492-0.403,0.895-0.895,0.895H0v0.043v2.832h48v-2.875h-2.412c-0.494,0-0.896-0.402-0.896-0.895v-3.583
		c0-0.494,0.402-0.897,0.896-0.897H48v-3h-2.25V15H48v-2.25h-2.412c-0.494,0-0.896-1.203-0.896-1.697V7.47
		C44.691,6.978,45.094,6.575,45.588,6.575z M33.043,7.47c0-0.492,0.404-0.895,0.897-0.895h3.583c0.492,0,0.896,0.402,0.896,0.895
		v3.583c0,0.494-0.403,1.697-0.896,1.697H33.94c-0.493,0-0.897-1.203-0.897-1.697V7.47z M21.359,7.47
		c0-0.492,0.405-0.895,0.897-0.895h3.584c0.492,0,0.895,0.402,0.895,0.895v3.583c0,0.494-0.402,1.697-0.895,1.697h-3.584
		c-0.492,0-0.897-1.203-0.897-1.697V7.47z M15.014,40.48c0,0.492-0.403,0.895-0.896,0.895h-3.583c-0.493,0-0.895-0.402-0.895-0.895
		v-3.543c0-0.491,0.402-0.895,0.895-0.895h3.583c0.494,0,0.896,0.403,0.896,0.895V40.48z M15.014,11.013
		c0,0.491-0.403,1.694-0.896,1.694h-3.583c-0.493,0-0.895-1.203-0.895-1.694V7.47c0-0.492,0.402-0.895,0.895-0.895h3.583
		c0.494,0,0.896,0.402,0.896,0.895V11.013z M26.734,40.48c0,0.492-0.402,0.895-0.895,0.895h-3.584c-0.492,0-0.897-0.402-0.897-0.895
		v-3.583c0-0.494,0.405-0.897,0.897-0.897h3.584c0.492,0,0.895,0.403,0.895,0.897V40.48z M38.419,40.48
		c0,0.492-0.403,0.895-0.896,0.895H33.94c-0.493,0-0.897-0.402-0.897-0.895v-3.583c0-0.494,0.404-0.897,0.897-0.897h3.583
		c0.492,0,0.896,0.403,0.896,0.897V40.48z M40.5,33l-25.486,0.029V33H15V15h0.014v-0.029H40.5V33z"/>
</g>
</svg>
