<?xml version="1.0" encoding="iso-8859-1"?>
<!-- Generator: Adobe Illustrator 14.0.0, SVG Export Plug-In . SVG Version: 6.00 Build 43363)  -->
<!DOCTYPE svg PUBLIC "-//W3C//DTD SVG 1.1//EN" "http://www.w3.org/Graphics/SVG/1.1/DTD/svg11.dtd">
<svg version="1.1" id="Icon-m-toolbar-score-muted-layer"
	 xmlns="http://www.w3.org/2000/svg" xmlns:xlink="http://www.w3.org/1999/xlink" x="0px" y="0px" width="32px" height="32px"
	 viewBox="0 0 32 32" style="enable-background:new 0 0 32 32;" xml:space="preserve">
<g id="Icon-m-toolbar-score-muted">
	<g id="Icon-m-toolbar-original-score_1_">
		<rect style="fill:none;" width="32" height="32"/>
		<path style="fill:#FFFFFF;" d="M15.878,21.547v-4.959l-8.58,0.01v-0.015H7.292v-8.75h0.006V7.818h12.39v1.369l3.646-2.014V6.739
			H22.16c-0.24,0-0.436-0.585-0.436-0.825V4.173c0-0.239,0.195-0.435,0.436-0.435h1.173V2H0v1.717v0.021h1.183
			c0.239,0,0.435,0.195,0.435,0.435v1.722c0,0.239-0.196,0.824-0.435,0.824H0v0.021v1.079v0.015h5.104v8.75H0v0.015v1.443v0.021
			h1.183c0.239,0,0.435,0.195,0.435,0.435v1.723c0,0.239-0.196,0.435-0.435,0.435H0v0.021v1.376h14.093
			C14.67,21.8,15.272,21.629,15.878,21.547z M16.062,4.173c0-0.239,0.196-0.435,0.436-0.435h1.742c0.239,0,0.436,0.195,0.436,0.435
			v1.741c0,0.24-0.196,0.825-0.436,0.825h-1.742c-0.24,0-0.436-0.585-0.436-0.825V4.173z M10.383,4.173
			c0-0.239,0.196-0.435,0.436-0.435h1.742c0.24,0,0.435,0.195,0.435,0.435v1.741c0,0.24-0.195,0.825-0.435,0.825h-1.742
			c-0.239,0-0.436-0.585-0.436-0.825V4.173z M4.686,5.895V4.173c0-0.239,0.195-0.435,0.435-0.435h1.742
			c0.24,0,0.436,0.195,0.436,0.435v1.722c0,0.239-0.196,0.824-0.436,0.824H5.12C4.881,6.719,4.686,6.134,4.686,5.895z M7.298,20.22
			c0,0.239-0.196,0.435-0.436,0.435H5.12c-0.239,0-0.435-0.195-0.435-0.435v-1.723c0-0.239,0.195-0.435,0.435-0.435h1.742
			c0.24,0,0.436,0.195,0.436,0.435V20.22z M12.561,20.654h-1.742c-0.239,0-0.436-0.195-0.436-0.435v-1.742
			c0-0.24,0.196-0.437,0.436-0.437h1.742c0.24,0,0.435,0.196,0.435,0.437v1.742C12.996,20.459,12.8,20.654,12.561,20.654z"/>
		<g>
			<path style="fill:#FFFFFF;" d="M17.878,18.879v5.477c-0.987-0.354-2.259-0.238-3.427,0.414c-1.902,1.051-2.743,3.034-1.925,4.514
				c0.821,1.484,2.955,1.824,4.853,0.773c1.255-0.696,2.085-1.803,2.234-2.902c0.01-0.121,0.021-0.183,0.021-0.272v-6.405
				L17.878,18.879z"/>
			<path style="fill:#FFFFFF;" d="M24.051,15.482l3.168-1.751c0.193-0.106,0.354-0.012,0.354,0.21v4.744l1.761,1.602V7.215
				c0-0.224-0.16-0.32-0.355-0.209l-8.861,4.896L24.051,15.482z"/>
			<path style="fill:#FFFFFF;" d="M22.165,22.779c-0.323,0.797-0.322,1.641,0.08,2.365c0.673,1.215,2.235,1.645,3.821,1.184
				L22.165,22.779z"/>
		</g>
		<polygon style="fill:#FFFFFF;" points="29.72,26.947 13.162,11.885 14.957,9.912 31.514,24.975 29.72,26.947 		"/>
	</g>
</g>
</svg>
