<?xml version="1.0" encoding="iso-8859-1"?>
<!-- Generator: Adobe Illustrator 14.0.0, SVG Export Plug-In . SVG Version: 6.00 Build 43363)  -->
<!DOCTYPE svg PUBLIC "-//W3C//DTD SVG 1.1//EN" "http://www.w3.org/Graphics/SVG/1.1/DTD/svg11.dtd">
<svg version="1.1" id="icon-m-transfer-add-service-layer"
	 xmlns="http://www.w3.org/2000/svg" xmlns:xlink="http://www.w3.org/1999/xlink" x="0px" y="0px" width="48px" height="48px"
	 viewBox="0 0 48 48" style="enable-background:new 0 0 48 48;" xml:space="preserve">
<g id="icon-m-transfer-add-service">
	<rect style="fill:none;" width="48" height="48"/>
	<path style="fill:#333333;" d="M36.5,26.5h-10v10h-5v-10h-10v-5h10v-10h5v10h10V26.5z"/>
	<path style="fill:#333333;" d="M24,0.75C11.18,0.75,0.75,11.18,0.75,24S11.18,47.25,24,47.25c12.82,0,23.25-10.43,23.25-23.25
		S36.82,0.75,24,0.75z M24,43.264C13.378,43.264,4.735,34.621,4.735,24C4.735,13.377,13.378,4.736,24,4.736S43.264,13.377,43.264,24
		C43.264,34.621,34.622,43.264,24,43.264z"/>
</g>
</svg>
