<?xml version="1.0" encoding="iso-8859-1"?>
<!-- Generator: Adobe Illustrator 14.0.0, SVG Export Plug-In . SVG Version: 6.00 Build 43363)  -->
<!DOCTYPE svg PUBLIC "-//W3C//DTD SVG 1.1//EN" "http://www.w3.org/Graphics/SVG/1.1/DTD/svg11.dtd">
<svg version="1.1" id="icon-l-backup-layer" xmlns="http://www.w3.org/2000/svg" xmlns:xlink="http://www.w3.org/1999/xlink"
	 x="0px" y="0px" width="80px" height="81px" viewBox="0 0 80 81" style="enable-background:new 0 0 80 81;" xml:space="preserve">
<g id="icon-l-backup_1_">
	<path style="fill:#349FD9;" d="M11,13.898c0,11.568,0,42.562,0,52.199C11,69,13.9,69,13.9,69h52.2c0,0,2.9,0,2.9-2.902
		c0-11.566,0-42.562,0-52.199C69,11,66.1,11,66.1,11H13.9C13.9,11,11,11,11,13.898z M64.65,54.498H58.85V47.25h5.801V54.498z
		 M64.65,32.748H58.85v-7.25h5.801V32.748z M16.799,16.799H61.75V22.6h-5.8v13.049h5.8v8.699h-5.8v13.051h5.8v5.801H16.799V16.799z
		 M45.303,35.9l4.102-4.104c4.102,4.104,4.102,12.303,0,16.404L45.303,44.1C47.354,42.049,47.354,37.949,45.303,35.9z
		 M45.303,27.695l-4.102,4.102c-2.049-2.049-6.15-2.049-8.202,0l-4.103-4.102C33,23.596,41.201,23.594,45.303,27.695z
		 M41.201,48.201l4.102,4.102c-4.102,4.1-12.304,4.1-16.405,0l4.101-4.102C35.05,50.252,39.15,50.252,41.201,48.201z M28.898,44.1
		l-4.102,4.102c-4.101-4.102-4.101-12.301,0-16.404l4.1,4.104C26.848,37.949,26.848,42.051,28.898,44.1z"/>
	<rect style="fill:none;" width="80" height="80"/>
</g>
</svg>
