<?xml version="1.0" encoding="iso-8859-1"?>
<!-- Generator: Adobe Illustrator 14.0.0, SVG Export Plug-In . SVG Version: 6.00 Build 43363)  -->
<!DOCTYPE svg PUBLIC "-//W3C//DTD SVG 1.1//EN" "http://www.w3.org/Graphics/SVG/1.1/DTD/svg11.dtd">
<svg version="1.1" id="icon-m-telephony-cellular-layer"
	 xmlns="http://www.w3.org/2000/svg" xmlns:xlink="http://www.w3.org/1999/xlink" x="0px" y="0px" width="48px" height="48px"
	 viewBox="0 0 48 48" style="enable-background:new 0 0 48 48;" xml:space="preserve">
<g id="icon-m-telephony-cellular">
	<rect style="fill:none;" width="48" height="48"/>
	<path style="fill:#333333;" d="M33.782,8.348c-7.241,3.4-21.62,16.039-25.039,24.996c-1.497,3.924,1.566,10.127,3.985,12.053
		c-0.002,0.009,1.245,1.043,2.177-0.016l6.521-8.777c0.444-0.568,0.88-1.314-0.019-2.205c0,0-4.512-3.246-3.206-5.32
		c0.912-1.436,9.88-10.388,11.315-11.297c2.082-1.309,5.339,3.191,5.339,3.191c0.899,0.895,1.642,0.451,2.211,0.014l8.804-6.515
		c1.061-0.94,0.02-2.18,0.012-2.18C43.943,9.896,37.602,6.557,33.782,8.348z"/>
</g>
</svg>
