<?xml version="1.0" encoding="iso-8859-1"?>
<!-- Generator: Adobe Illustrator 14.0.0, SVG Export Plug-In . SVG Version: 6.00 Build 43363)  -->
<!DOCTYPE svg PUBLIC "-//W3C//DTD SVG 1.1//EN" "http://www.w3.org/Graphics/SVG/1.1/DTD/svg11.dtd">
<svg version="1.1" id="icon-m-content-playlist-audio-layer"
	 xmlns="http://www.w3.org/2000/svg" xmlns:xlink="http://www.w3.org/1999/xlink" x="0px" y="0px" width="48px" height="49px"
	 viewBox="0 0 48 49" style="enable-background:new 0 0 48 49;" xml:space="preserve">
<g id="icon-m-content-playlist-audio_1_">
	<rect style="fill:none;" width="48" height="48"/>
	<path style="fill:#333333;" d="M7.121,12.079c-0.926,0-1.678-0.751-1.678-1.677c0-0.928,0.751-1.678,1.678-1.678
		c0.927,0,1.678,0.75,1.678,1.678C8.798,11.328,8.048,12.079,7.121,12.079"/>
	<rect x="12.268" y="9.277" style="fill:#333333;" width="18.203" height="2.25"/>
	<path style="fill:#333333;" d="M7.121,18.672c-0.926,0-1.678-0.752-1.678-1.678c0-0.928,0.751-1.677,1.678-1.677
		c0.927,0,1.678,0.749,1.678,1.677C8.798,17.92,8.048,18.672,7.121,18.672"/>
	<rect x="12.268" y="15.869" style="fill:#333333;" width="18.203" height="2.25"/>
	<path style="fill:#333333;" d="M7.121,25.264c-0.926,0-1.678-0.751-1.678-1.678s0.751-1.677,1.678-1.677
		c0.927,0,1.678,0.75,1.678,1.677S8.048,25.264,7.121,25.264"/>
	<rect x="12.268" y="22.461" style="fill:#333333;" width="16.736" height="2.25"/>
	<path style="fill:#333333;" d="M7.121,31.855c-0.926,0-1.678-0.751-1.678-1.678s0.751-1.677,1.678-1.677
		c0.927,0,1.678,0.75,1.678,1.677S8.048,31.855,7.121,31.855"/>
	<rect x="12.268" y="29.053" style="fill:#333333;" width="16.736" height="2.25"/>
	<path style="fill:#333333;" d="M45.796,34.773c-1.243-0.461-2.851-0.313-4.332,0.514c-2.404,1.338-3.474,3.847-2.434,5.724
		c1.036,1.873,3.739,2.302,6.138,0.97c1.589-0.878,2.608-2.282,2.805-3.672C47.989,38.141,48,38.078,48,37.963v-2.806V18.323
		c0-0.282-0.204-0.405-0.451-0.266l-13.602,7.517c-0.245,0.136-0.443,0.475-0.443,0.764v13.675c-1.25-0.447-2.86-0.3-4.338,0.526
		c-2.406,1.327-3.471,3.84-2.436,5.712c1.039,1.877,3.738,2.31,6.139,0.976c1.592-0.881,2.641-2.283,2.83-3.67
		c0.012-0.154,0.027-0.233,0.027-0.346V32.386c0-0.22,0.203-0.626,0.448-0.762l9.148-5.056c0.245-0.138,0.448-0.016,0.448,0.264
		v8.756"/>
	<path style="fill:#333333;" d="M22.517,41.428c0.265-0.621,0.61-1.212,1.01-1.771h-6.386H1.95V1.95h17.148H34.29v18.293l1.95-1.078
		V1.342C36.24,0.604,35.635,0,34.897,0H19.098H1.343H1.341C0.604,0,0,0.604,0,1.342v0.001v38.923c0,0.737,0.604,1.342,1.343,1.342
		h15.799h5.31C22.476,41.548,22.492,41.487,22.517,41.428z"/>
</g>
</svg>
