<?xml version="1.0" encoding="iso-8859-1"?>
<!-- Generator: Adobe Illustrator 14.0.0, SVG Export Plug-In . SVG Version: 6.00 Build 43363)  -->
<!DOCTYPE svg PUBLIC "-//W3C//DTD SVG 1.1//EN" "http://www.w3.org/Graphics/SVG/1.1/DTD/svg11.dtd">
<svg version="1.1" id="icon-m-common-bold-layer" xmlns="http://www.w3.org/2000/svg" xmlns:xlink="http://www.w3.org/1999/xlink"
	 x="0px" y="0px" width="48px" height="48px" viewBox="0 0 48 48" style="enable-background:new 0 0 48 48;" xml:space="preserve">
<g id="icon-m-common-bold">
	<rect style="fill:none;" width="48" height="48"/>
	<path style="fill:#333333;" d="M15.659,36V12h9.033c4.253,0,7.153,1.549,7.153,5.803c0,2.702-1.482,4.615-4.221,5.538
		c3.363,0.759,4.715,2.736,4.715,5.901c0,4.944-3.461,6.758-8.274,6.758H15.659z M22.945,22.021c2.406,0,3.428-1.088,3.428-3.659
		c0-2.274-0.988-3.197-3.033-3.197h-2.242v6.856H22.945z M23.077,32.835c2.67,0,3.626-1.12,3.626-3.857
		c0-2.702-1.188-3.923-3.693-3.923h-1.912v7.78H23.077z"/>
</g>
</svg>
