<?xml version="1.0" encoding="iso-8859-1"?>
<!-- Generator: Adobe Illustrator 14.0.0, SVG Export Plug-In . SVG Version: 6.00 Build 43363)  -->
<!DOCTYPE svg PUBLIC "-//W3C//DTD SVG 1.1//EN" "http://www.w3.org/Graphics/SVG/1.1/DTD/svg11.dtd">
<svg version="1.1" id="icon-m-toolbar-favorite-mark-layer"
	 xmlns="http://www.w3.org/2000/svg" xmlns:xlink="http://www.w3.org/1999/xlink" x="0px" y="0px" width="32px" height="32px"
	 viewBox="0 0 32 32" style="enable-background:new 0 0 32 32;" xml:space="preserve">
<g id="icon-m-toolbar-favorite-mark_1_">
	<rect style="fill:none;" width="32" height="32"/>
	<path style="fill:#FFFFFF;" d="M31.396,12.717c0.445-0.334,0.357-0.605-0.201-0.605H20.922c-0.556,0-1.158-0.433-1.334-0.959
		l-3.266-9.734c-0.177-0.527-0.467-0.527-0.644,0l-3.269,9.734c-0.176,0.526-0.777,0.959-1.334,0.959H0.804
		c-0.558,0-0.647,0.271-0.199,0.605l8.215,6.105c0.448,0.332,0.668,1.036,0.491,1.564L5.94,30.428
		c-0.178,0.527,0.055,0.708,0.52,0.399l8.697-5.794c0.464-0.309,1.223-0.309,1.687,0l8.694,5.794
		c0.465,0.309,0.699,0.128,0.521-0.399l-3.371-10.041c-0.176-0.528,0.045-1.232,0.492-1.564L31.396,12.717z"/>
</g>
</svg>
