<?xml version="1.0" encoding="iso-8859-1"?>
<!-- Generator: Adobe Illustrator 14.0.0, SVG Export Plug-In . SVG Version: 6.00 Build 43363)  -->
<!DOCTYPE svg PUBLIC "-//W3C//DTD SVG 1.1//EN" "http://www.w3.org/Graphics/SVG/1.1/DTD/svg11.dtd">
<svg version="1.1" id="icon-m-camera-flash-red-eye-selected-layer"
	 xmlns="http://www.w3.org/2000/svg" xmlns:xlink="http://www.w3.org/1999/xlink" x="0px" y="0px" width="48px" height="48px"
	 viewBox="0 0 48 48" style="enable-background:new 0 0 48 48;" xml:space="preserve">
<g id="icon-m-camera-flash-red-eye-selected">
	<rect style="fill:none;" width="48" height="48"/>
	<path style="fill:#63AF45;" d="M42.711,13.495l0.02-0.05l-0.217-0.323h-0.039c-0.084-0.089-0.211-0.22-0.352-0.37
		c-0.396-0.425-9.857-10.415-20.381-10.415c-10.526,0-19.986,9.99-20.385,10.417c-0.247,0.264-0.453,0.48-0.453,0.48l-0.171,0.171
		l0.065,0.156v0.107l0.103,0.105c0.001,0.001,0.211,0.216,0.457,0.478C1.756,14.68,11.216,24.67,21.742,24.67
		c10.523,0,19.984-9.99,20.381-10.416l0.353-0.372h0.045l0.213-0.335L42.711,13.495z M6.915,13.37
		c0.071-0.076,7.21-7.609,14.828-7.609c7.617,0,14.754,7.533,14.824,7.608l0.124,0.133c-0.038,0.041-0.079,0.085-0.123,0.131
		c-0.071,0.076-7.203,7.613-14.825,7.613c-7.618,0-14.757-7.537-14.828-7.611l-0.123-0.133C6.83,13.461,6.871,13.416,6.915,13.37z"
		/>
	<path style="fill:#63AF45;" d="M22.492,7.775v7.235h-6.333c0.666,2.458,2.91,4.271,5.584,4.271c3.194,0,5.787-2.586,5.787-5.777
		C27.529,10.564,25.332,8.144,22.492,7.775z"/>
	<path style="fill:#63AF45;" d="M41.316,27h-4.695l-6.043,20.25h3.41l1.343-4.646h6.773l1.345,4.646h3.801L41.316,27z M35.982,40.04
		l2.765-10.007l2.741,10.053L35.982,40.04z"/>
</g>
</svg>
