<?xml version="1.0" encoding="UTF-8" standalone="no"?>
<!-- Generator: Adobe Illustrator 14.0.0, SVG Export Plug-In . SVG Version: 6.00 Build 43363)  -->

<svg
   xmlns:dc="http://purl.org/dc/elements/1.1/"
   xmlns:cc="http://creativecommons.org/ns#"
   xmlns:rdf="http://www.w3.org/1999/02/22-rdf-syntax-ns#"
   xmlns:svg="http://www.w3.org/2000/svg"
   xmlns="http://www.w3.org/2000/svg"
   xmlns:xlink="http://www.w3.org/1999/xlink"
   xmlns:sodipodi="http://sodipodi.sourceforge.net/DTD/sodipodi-0.dtd"
   xmlns:inkscape="http://www.inkscape.org/namespaces/inkscape"
   version="1.1"
   id="icon-l-default-application-layer"
   x="0px"
   y="0px"
   width="80px"
   height="81px"
   viewBox="0 0 80 81"
   style="enable-background:new 0 0 80 81;"
   xml:space="preserve"
   inkscape:version="0.47 r22583"
   sodipodi:docname="icon-l-meegotouchtheme-devel.svg"><metadata
   id="metadata3348"><rdf:RDF><cc:Work
       rdf:about=""><dc:format>image/svg+xml</dc:format><dc:type
         rdf:resource="http://purl.org/dc/dcmitype/StillImage" /><dc:title></dc:title></cc:Work></rdf:RDF></metadata><defs
   id="defs3346"><linearGradient
     inkscape:collect="always"
     id="linearGradient5695"><stop
       style="stop-color:#2e3436;stop-opacity:1"
       offset="0"
       id="stop5697" /><stop
       style="stop-color:#0c0e0e;stop-opacity:1"
       offset="1"
       id="stop5699" /></linearGradient><inkscape:perspective
     sodipodi:type="inkscape:persp3d"
     inkscape:vp_x="0 : 40.5 : 1"
     inkscape:vp_y="0 : 1000 : 0"
     inkscape:vp_z="80 : 40.5 : 1"
     inkscape:persp3d-origin="40 : 27 : 1"
     id="perspective3350" /><inkscape:perspective
     id="perspective4571"
     inkscape:persp3d-origin="0.5 : 0.33333333 : 1"
     inkscape:vp_z="1 : 0.5 : 1"
     inkscape:vp_y="0 : 1000 : 0"
     inkscape:vp_x="0 : 0.5 : 1"
     sodipodi:type="inkscape:persp3d" /><linearGradient
     inkscape:collect="always"
     id="linearGradient4633"><stop
       style="stop-color:#ffffff;stop-opacity:1;"
       offset="0"
       id="stop4635" /><stop
       style="stop-color:#ffffff;stop-opacity:0;"
       offset="1"
       id="stop4637" /></linearGradient><linearGradient
     id="linearGradient4586"><stop
       style="stop-color:#888a85;stop-opacity:1"
       offset="0"
       id="stop4588" /><stop
       style="stop-color:#2e3436;stop-opacity:1"
       offset="1"
       id="stop4590" /></linearGradient><linearGradient
     id="linearGradient3697"><stop
       style="stop-color:#babdb6;stop-opacity:1"
       offset="0"
       id="stop3699" /><stop
       style="stop-color:#555753;stop-opacity:1"
       offset="1"
       id="stop3701" /></linearGradient><linearGradient
     id="linearGradient4596"><stop
       style="stop-color:#75507b;stop-opacity:1;"
       offset="0"
       id="stop4598" /><stop
       style="stop-color:#543958;stop-opacity:1;"
       offset="1"
       id="stop4600" /></linearGradient><linearGradient
     inkscape:collect="always"
     id="linearGradient3518"><stop
       style="stop-color:#ffffff;stop-opacity:1;"
       offset="0"
       id="stop3520" /><stop
       style="stop-color:#ffffff;stop-opacity:0;"
       offset="1"
       id="stop3522" /></linearGradient><linearGradient
     id="linearGradient3689"><stop
       id="stop3691"
       offset="0"
       style="stop-color:#555753;stop-opacity:1" /><stop
       id="stop3693"
       offset="1"
       style="stop-color:#888a85;stop-opacity:1" /></linearGradient><linearGradient
     id="linearGradient3550"><stop
       id="stop3552"
       offset="0"
       style="stop-color:#8b8b8b;stop-opacity:1;" /><stop
       id="stop3554"
       offset="1"
       style="stop-color:#a9a9a9;stop-opacity:1;" /></linearGradient><linearGradient
     id="linearGradient3560"><stop
       style="stop-color:#f0f0f0;stop-opacity:1;"
       offset="0"
       id="stop3562" /><stop
       style="stop-color:#c9c9c9;stop-opacity:1;"
       offset="1"
       id="stop3564" /></linearGradient><linearGradient
     id="linearGradient3536"><stop
       style="stop-color:#b0b0b0;stop-opacity:1;"
       offset="0"
       id="stop3538" /><stop
       style="stop-color:#757575;stop-opacity:1;"
       offset="1"
       id="stop3540" /></linearGradient><linearGradient
     id="linearGradient3508"><stop
       style="stop-color:#b0b0b0;stop-opacity:1;"
       offset="0"
       id="stop3510" /><stop
       style="stop-color:#939393;stop-opacity:1;"
       offset="1"
       id="stop3512" /></linearGradient><linearGradient
     id="linearGradient3568"><stop
       style="stop-color:#d6d6d6;stop-opacity:1;"
       offset="0"
       id="stop3570" /><stop
       style="stop-color:#f0f0f0;stop-opacity:1;"
       offset="1"
       id="stop3572" /></linearGradient><linearGradient
     id="linearGradient5048"><stop
       style="stop-color:black;stop-opacity:0;"
       offset="0"
       id="stop5050" /><stop
       id="stop5056"
       offset="0.5"
       style="stop-color:black;stop-opacity:1;" /><stop
       style="stop-color:black;stop-opacity:0;"
       offset="1"
       id="stop5052" /></linearGradient><linearGradient
     inkscape:collect="always"
     id="linearGradient5060"><stop
       style="stop-color:black;stop-opacity:1;"
       offset="0"
       id="stop5062" /><stop
       style="stop-color:black;stop-opacity:0;"
       offset="1"
       id="stop5064" /></linearGradient><radialGradient
     inkscape:collect="always"
     xlink:href="#linearGradient5060"
     id="radialGradient6719"
     gradientUnits="userSpaceOnUse"
     gradientTransform="matrix(-2.774389,0,0,1.969706,112.7623,-872.8854)"
     cx="605.71429"
     cy="486.64789"
     fx="605.71429"
     fy="486.64789"
     r="117.14286" /><linearGradient
     inkscape:collect="always"
     xlink:href="#linearGradient5048"
     id="linearGradient4885"
     gradientUnits="userSpaceOnUse"
     gradientTransform="matrix(2.774389,0,0,1.969706,-1892.179,-872.8854)"
     x1="302.85715"
     y1="366.64789"
     x2="302.85715"
     y2="609.50507" /><radialGradient
     inkscape:collect="always"
     xlink:href="#linearGradient5060"
     id="radialGradient4887"
     gradientUnits="userSpaceOnUse"
     gradientTransform="matrix(2.774389,0,0,1.969706,-1891.633,-872.8854)"
     cx="605.71429"
     cy="486.64789"
     fx="605.71429"
     fy="486.64789"
     r="117.14286" /><radialGradient
     inkscape:collect="always"
     xlink:href="#linearGradient5060"
     id="radialGradient4889"
     gradientUnits="userSpaceOnUse"
     gradientTransform="matrix(-2.774389,0,0,1.969706,112.7623,-872.8854)"
     cx="605.71429"
     cy="486.64789"
     fx="605.71429"
     fy="486.64789"
     r="117.14286" /><linearGradient
     inkscape:collect="always"
     xlink:href="#linearGradient3568"
     id="linearGradient4891"
     gradientUnits="userSpaceOnUse"
     gradientTransform="translate(42.835812,10.943723)"
     x1="14.883313"
     y1="27.847456"
     x2="13.400961"
     y2="20.069281" /><linearGradient
     inkscape:collect="always"
     xlink:href="#linearGradient3508"
     id="linearGradient4893"
     gradientUnits="userSpaceOnUse"
     gradientTransform="translate(42.835812,10.943723)"
     x1="16.940231"
     y1="27.853085"
     x2="16.940231"
     y2="24.135145" /><linearGradient
     inkscape:collect="always"
     xlink:href="#linearGradient3518"
     id="linearGradient4895"
     gradientUnits="userSpaceOnUse"
     gradientTransform="translate(42.835812,10.943723)"
     x1="17.456696"
     y1="37.661667"
     x2="17.456696"
     y2="27.231844" /><radialGradient
     inkscape:collect="always"
     xlink:href="#linearGradient3536"
     id="radialGradient4897"
     gradientUnits="userSpaceOnUse"
     gradientTransform="matrix(1,0,0,0.860061,0,3.25376)"
     cx="18.163805"
     cy="22.531874"
     fx="18.163805"
     fy="22.531874"
     r="2.8422911" /><radialGradient
     inkscape:collect="always"
     xlink:href="#linearGradient3560"
     id="radialGradient4899"
     gradientUnits="userSpaceOnUse"
     gradientTransform="matrix(1.802725,0,0,1.503342,32.471825,5.2793574)"
     cx="12.91097"
     cy="13.001998"
     fx="12.91097"
     fy="13.001998"
     r="7.4889512" /><radialGradient
     inkscape:collect="always"
     xlink:href="#linearGradient3550"
     id="radialGradient4901"
     gradientUnits="userSpaceOnUse"
     gradientTransform="matrix(1.208333,0,0,0.636493,39.273832,16.620355)"
     cx="17.097467"
     cy="19.777185"
     fx="17.097467"
     fy="19.777185"
     r="4.5473714" /><linearGradient
     inkscape:collect="always"
     xlink:href="#linearGradient3689"
     id="linearGradient4903"
     gradientUnits="userSpaceOnUse"
     gradientTransform="translate(42.835812,10.943723)"
     x1="14.883313"
     y1="27.847456"
     x2="13.400961"
     y2="20.069281" /><linearGradient
     inkscape:collect="always"
     xlink:href="#linearGradient3518"
     id="linearGradient4905"
     gradientUnits="userSpaceOnUse"
     gradientTransform="matrix(1.0997026,0,0,1,41.017218,10.912473)"
     x1="17.456696"
     y1="37.661667"
     x2="17.456696"
     y2="27.231844" /><radialGradient
     inkscape:collect="always"
     xlink:href="#linearGradient3697"
     id="radialGradient4909"
     gradientUnits="userSpaceOnUse"
     gradientTransform="matrix(1,0,0,0.833928,28.958805,21.514116)"
     cx="27.8486"
     cy="4.607163"
     fx="27.8486"
     fy="4.607163"
     r="7.4889512" /><radialGradient
     inkscape:collect="always"
     xlink:href="#linearGradient4586"
     id="radialGradient4911"
     gradientUnits="userSpaceOnUse"
     gradientTransform="matrix(2.132075,0,0,1.021136,-6.1065565,17.16894)"
     cx="30.974438"
     cy="12.172572"
     fx="30.974438"
     fy="12.172572"
     r="4.890574" /><linearGradient
     inkscape:collect="always"
     xlink:href="#linearGradient4633"
     id="linearGradient4913"
     gradientUnits="userSpaceOnUse"
     gradientTransform="translate(28.958805,19.974502)"
     x1="31.643028"
     y1="13.616933"
     x2="31.643028"
     y2="9.6384754" /><linearGradient
     inkscape:collect="always"
     xlink:href="#linearGradient4633"
     id="linearGradient4915"
     gradientUnits="userSpaceOnUse"
     gradientTransform="translate(28.958805,19.974502)"
     x1="31.643028"
     y1="13.616933"
     x2="31.643028"
     y2="9.6384754" /><linearGradient
     inkscape:collect="always"
     xlink:href="#linearGradient5695"
     id="linearGradient5701"
     x1="66.730659"
     y1="74.758789"
     x2="72.846008"
     y2="77.735107"
     gradientUnits="userSpaceOnUse"
     gradientTransform="matrix(1.7471429,-0.97339186,0,2,-78.4005,-36.5)" /></defs><sodipodi:namedview
   pagecolor="#ffffff"
   bordercolor="#666666"
   borderopacity="1"
   objecttolerance="10"
   gridtolerance="10"
   guidetolerance="10"
   inkscape:pageopacity="0"
   inkscape:pageshadow="2"
   inkscape:window-width="1072"
   inkscape:window-height="969"
   id="namedview3344"
   showgrid="false"
   inkscape:zoom="1"
   inkscape:cx="51.198905"
   inkscape:cy="50.041605"
   inkscape:window-x="606"
   inkscape:window-y="277"
   inkscape:window-maximized="0"
   inkscape:current-layer="g4861"
   inkscape:snap-bbox="true"
   inkscape:bbox-nodes="true"
   inkscape:snap-bbox-edge-midpoints="false"
   inkscape:bbox-paths="false"
   inkscape:snap-bbox-midpoints="false"
   inkscape:snap-nodes="false"
   inkscape:snap-global="false"><inkscape:grid
     type="xygrid"
     id="grid4857" /></sodipodi:namedview>
<g
   id="icon-l-default-application">
	
	<rect
   style="fill:none"
   width="80"
   height="80"
   id="rect3342"
   x="20"
   y="18" />
<g
   id="g4861"
   transform="matrix(2,0,0,2,-78.400499,-38.5)"><g
     id="g6707"
     transform="matrix(0.01518738,0,0,0.02086758,72.470681,48.261987)"><rect
       y="-150.69685"
       x="-1559.2523"
       height="478.35718"
       width="1339.6335"
       id="rect6709"
       style="opacity:0.40206185;color:#000000;fill:url(#linearGradient4885);fill-opacity:1;fill-rule:nonzero;stroke:none;stroke-width:1;marker:none;visibility:visible;display:inline;overflow:visible" /><path
       sodipodi:nodetypes="cccc"
       id="path6711"
       d="m -219.61876,-150.68038 c 0,0 0,478.33079 0,478.33079 142.874166,0.90045 345.40022,-107.16966 345.40014,-239.196175 0,-132.026537 -159.436816,-239.134595 -345.40014,-239.134615 z"
       style="opacity:0.40206185;color:#000000;fill:url(#radialGradient4887);fill-opacity:1;fill-rule:nonzero;stroke:none;stroke-width:1;marker:none;visibility:visible;display:inline;overflow:visible" /><path
       style="opacity:0.40206185;color:#000000;fill:url(#radialGradient4889);fill-opacity:1;fill-rule:nonzero;stroke:none;stroke-width:1;marker:none;visibility:visible;display:inline;overflow:visible"
       d="m -1559.2523,-150.68038 c 0,0 0,478.33079 0,478.33079 -142.8742,0.90045 -345.4002,-107.16966 -345.4002,-239.196175 0,-132.026537 159.4368,-239.134595 345.4002,-239.134615 z"
       id="path6713"
       sodipodi:nodetypes="cccc" /></g><path
     sodipodi:nodetypes="ccccccccc"
     id="path3627"
     d="m 58.043479,26.063261 3.702495,0 c 4.286457,0 9.54711,1.317516 9.54711,1.856155 l 0,22.627415 c 0,0.538639 -0.436877,0.972272 -0.979546,0.972272 l -20.837621,0 c -0.542668,0 -0.979546,-0.433633 -0.979546,-0.972272 l 0,-22.627415 c 0,-0.538639 5.171678,-1.856155 9.547108,-1.856155 z"
     style="color:#000000;fill:url(#linearGradient4891);fill-opacity:1;fill-rule:evenodd;stroke:#949494;stroke-width:0.50000006;stroke-linecap:butt;stroke-linejoin:miter;stroke-miterlimit:4;stroke-opacity:1;stroke-dashoffset:0;marker:none;visibility:visible;display:inline;overflow:visible" /><path
     style="opacity:0.61988304;color:#000000;fill:none;stroke:#ffffff;stroke-width:0.5;stroke-linecap:butt;stroke-linejoin:round;stroke-miterlimit:4;stroke-opacity:1;stroke-dasharray:none;stroke-dashoffset:0;marker:none;visibility:visible;display:inline;overflow:visible"
     d="m 58.200928,26.924772 3.387609,0 c 3.921907,0 8.735157,1.521517 8.735157,1.521517 l 0,22.06952 c 0,0 -20.857921,0 -20.857921,0 l 0,-22.06952 c 0,0 4.731843,-1.521517 8.735155,-1.521517 z"
     id="path3629"
     sodipodi:nodetypes="ccccccc" /><path
     id="path3631"
     d="m 60.248278,31.36656 -3.005203,6.805903 0,12.285981 3.18198,2.828427 2.916816,-2.828427 0,-12.462757 -3.093593,-6.629127 z"
     style="color:#000000;fill:url(#linearGradient4893);fill-opacity:1;fill-rule:evenodd;stroke:#949494;stroke-width:0.5;stroke-linecap:butt;stroke-linejoin:miter;stroke-miterlimit:4;stroke-opacity:1;stroke-dasharray:none;stroke-dashoffset:0;marker:none;visibility:visible;display:inline;overflow:visible" /><path
     sodipodi:nodetypes="ccccccc"
     style="opacity:0.46783627;color:#000000;fill:none;stroke:url(#linearGradient4895);stroke-width:0.49999988;stroke-linecap:butt;stroke-linejoin:miter;stroke-miterlimit:4;stroke-opacity:1;stroke-dasharray:none;stroke-dashoffset:0;marker:none;visibility:visible;display:inline;overflow:visible"
     d="m 60.260382,34.368826 -2.005223,4.41126 0,11.04807 2.133576,2.053647 1.941047,-2.053647 0,-11.176423 -2.0694,-4.282907 z"
     id="path3633" /><path
     transform="translate(41.951922,9.706277)"
     d="m 20.506096,23.251263 c 0,1.073941 -1.048679,1.944543 -2.342291,1.944543 -1.293612,0 -2.342291,-0.870602 -2.342291,-1.944543 0,-1.073942 1.048679,-1.944544 2.342291,-1.944544 1.293612,0 2.342291,0.870602 2.342291,1.944544 z"
     sodipodi:ry="1.9445436"
     sodipodi:rx="2.3422911"
     sodipodi:cy="23.251263"
     sodipodi:cx="18.163805"
     id="path3635"
     style="color:#000000;fill:url(#radialGradient4897);fill-opacity:1;fill-rule:evenodd;stroke:#949494;stroke-width:0.5;stroke-linecap:butt;stroke-linejoin:miter;stroke-miterlimit:4;stroke-opacity:1;stroke-dasharray:none;stroke-dashoffset:0;marker:none;visibility:visible;display:inline;overflow:visible"
     sodipodi:type="arc" /><path
     sodipodi:nodetypes="cczcczcc"
     id="path3637"
     d="m 59.894726,31.189785 -5.038136,3.800699 c 0,0 -1.856154,-5.566888 -1.856154,-8.043339 10e-7,-2.474874 1.325825,-3.447145 2.740038,-3.447145 0,0 8.396893,0 8.396893,0 0.956577,0 2.629553,0.397747 2.828427,3.270369 0.198874,2.872621 -2.032932,8.220115 -2.032932,8.220115 l -5.038136,-3.800699 z"
     style="color:#000000;fill:url(#radialGradient4899);fill-opacity:1;fill-rule:evenodd;stroke:#949494;stroke-width:0.5;stroke-linecap:butt;stroke-linejoin:miter;stroke-miterlimit:4;stroke-opacity:1;stroke-dasharray:none;stroke-dashoffset:0;marker:none;visibility:visible;display:inline;overflow:visible" /><path
     sodipodi:nodetypes="csccscc"
     id="path3639"
     d="m 56.752597,25.886481 c 0,0 -1.815644,0.487978 -1.495236,1.659123 0.320407,1.171146 2.776867,3.025458 2.776867,3.025458 l 4.592511,0 c 0,0 2.10935,-1.561526 2.349657,-2.732671 0.240306,-1.171146 -1.388434,-1.95191 -1.388434,-1.95191 l -6.835365,0 z"
     style="color:#000000;fill:#ffffff;fill-opacity:1;fill-rule:evenodd;stroke:none;stroke-width:1;marker:none;visibility:visible;display:inline;overflow:visible" /><path
     style="color:#000000;fill:url(#radialGradient4901);fill-opacity:1;fill-rule:evenodd;stroke:none;stroke-width:1;marker:none;visibility:visible;display:inline;overflow:visible"
     d="m 56.575821,24.914213 c 0,0 -1.815644,0.487978 -1.495236,1.659123 0.320407,1.171146 2.776867,3.025459 2.776867,3.025459 l 4.592511,0 c 0,0 2.10935,-1.561527 2.349657,-2.732672 0.240306,-1.171146 -1.388434,-1.95191 -1.388434,-1.95191 l -6.835365,0 z"
     id="path3641"
     sodipodi:nodetypes="csccscc" /><path
     style="color:#000000;fill:url(#linearGradient4903);fill-opacity:1;fill-rule:evenodd;stroke:#2e3436;stroke-width:0.50000005999999997;stroke-linecap:butt;stroke-linejoin:miter;stroke-miterlimit:4;stroke-opacity:1;stroke-dashoffset:0;marker:none;visibility:visible;display:inline;overflow:visible"
     d="m 58.043479,26.063261 3.702495,0 c 4.286457,0 9.54711,1.317516 9.54711,1.856155 l 0,22.627415 c 0,0.538639 -0.436877,0.972272 -0.979546,0.972272 l -20.837621,0 c -0.542668,0 -0.979546,-0.433633 -0.979546,-0.972272 l 0,-22.627415 c 0,-0.538639 5.171678,-1.856155 9.547108,-1.856155 z"
     id="path3645"
     sodipodi:nodetypes="ccccccccc" /><path
     sodipodi:nodetypes="ccccccc"
     id="path3647"
     d="m 58.200928,26.924772 3.387609,0 c 3.921907,0 8.735157,1.521517 8.735157,1.521517 l 0,22.06952 c 0,0 -20.857921,0 -20.857921,0 l 0,-22.06952 c 0,0 4.731843,-1.521517 8.735155,-1.521517 z"
     style="opacity:0.26315792;color:#000000;fill:none;stroke:#ffffff;stroke-width:0.5;stroke-linecap:butt;stroke-linejoin:round;stroke-miterlimit:4;stroke-opacity:1;stroke-dasharray:none;stroke-dashoffset:0;marker:none;visibility:visible;display:inline;overflow:visible" /><path
     sodipodi:nodetypes="ccccccc"
     style="color:#000000;fill:#edd400;fill-opacity:1;fill-rule:evenodd;stroke:#c4a000;stroke-width:0.5;stroke-linecap:butt;stroke-linejoin:miter;stroke-miterlimit:4;stroke-opacity:1;stroke-dasharray:none;stroke-dashoffset:0;marker:none;visibility:visible;display:inline;overflow:visible"
     d="m 60.151808,31.33531 c 0,0 -3.189986,4.930903 -3.189986,6.805903 l 0,12.285981 3.377632,2.828427 3.096164,-2.828427 0,-12.462757 c 0,-1.75 -3.28381,-6.629127 -3.28381,-6.629127 z"
     id="path3649" /><path
     sodipodi:type="arc"
     style="color:#000000;fill:#edd400;fill-opacity:1;fill-rule:evenodd;stroke:#c4a000;stroke-width:0.5;stroke-linecap:butt;stroke-linejoin:miter;stroke-miterlimit:4;stroke-opacity:1;stroke-dasharray:none;stroke-dashoffset:0;marker:none;visibility:visible;display:inline;overflow:visible"
     id="path3653"
     sodipodi:cx="18.163805"
     sodipodi:cy="23.251263"
     sodipodi:rx="2.3422911"
     sodipodi:ry="1.9445436"
     d="m 20.506096,23.251263 a 2.3422911,1.9445436 0 1 1 -4.684582,0 2.3422911,1.9445436 0 1 1 4.684582,0 z"
     transform="translate(42.045672,9.675027)" /><path
     style="opacity:0.74122807000000002;fill:url(#linearGradient5701);fill-opacity:1;stroke:none"
     d="m 41,24.375 -1.75,1.8125 c 2.343596,-0.02176 3.430517,0.663565 7.4375,3.1875 1.087582,-2.381797 0.500548,-2.08421 0.75,-3.125 C 44.88142,25.829316 45.407053,22.636216 41,24.375 z m 5.125,5.8125 -10.90625,5.75 c -0.497288,2.071916 -0.183245,4.382951 -0.25,6.5625 L 48.4375,34.9375 c -0.595165,-1.583333 -1.384208,-3.166667 -2.3125,-4.75 z M 49,40.25 l -13.9375,8.375 0,6.0625 L 49,47.125 49,40.25 z m 0,12.0625 -14.0625,8.375 -0.03125,1.875 2.9375,2.40625 L 49,58.625 49,52.3125 z"
     transform="matrix(0.5,0,0,0.5,39.200249,19.25)"
     id="rect5693"
     sodipodi:nodetypes="ccccccccccccccccccccc" /><path
     style="color:#000000;fill:url(#radialGradient4909);fill-opacity:1;fill-rule:evenodd;stroke:#2e3436;stroke-width:0.50000005999999997;stroke-linecap:butt;stroke-linejoin:miter;stroke-miterlimit:4;stroke-opacity:1;stroke-dasharray:none;stroke-dashoffset:0;marker:none;visibility:visible;display:inline;overflow:visible"
     d="m 59.894726,31.189785 -5.038136,3.800699 c 0,0 -1.856154,-5.566888 -1.856154,-8.043339 10e-7,-2.474874 1.325825,-3.447145 2.740038,-3.447145 0,0 8.396893,0 8.396893,0 0.956577,0 2.629553,0.397747 2.828427,3.270369 0.198874,2.872621 -2.032932,8.220115 -2.032932,8.220115 l -5.038136,-3.800699 z"
     id="path3655"
     sodipodi:nodetypes="cczcczcc" /><path
     id="path3651"
     d="m 60.179063,34.337576 -2.205149,4.41126 0,11.04807 2.346298,2.053647 2.134575,-2.053647 0,-11.176423 -2.275724,-4.282907 z"
     style="opacity:0.53508772;color:#000000;fill:none;stroke:url(#linearGradient4905);stroke-width:0.49999990999999999;stroke-linecap:butt;stroke-linejoin:miter;stroke-miterlimit:4;stroke-opacity:1;stroke-dasharray:none;stroke-dashoffset:0;marker:none;visibility:visible;display:inline;overflow:visible"
     sodipodi:nodetypes="ccccccc" /><path
     style="opacity:0.33333333;color:#000000;fill:#ffffff;fill-opacity:1;fill-rule:evenodd;stroke:none;stroke-width:1;marker:none;visibility:visible;display:inline;overflow:visible"
     d="m 56.752597,25.886481 c 0,0 -1.815644,0.487978 -1.495236,1.659123 0.320407,1.171146 2.276867,3.025458 2.776867,3.025458 l 4.592511,0 c 0.75,-0.0625 2.10935,-1.561526 2.349657,-2.732671 0.240306,-1.171146 -1.388434,-1.95191 -1.388434,-1.95191 l -6.835365,0 z"
     id="path3657"
     sodipodi:nodetypes="csccscc" /><path
     sodipodi:nodetypes="csccscc"
     id="path3659"
     d="m 56.575821,24.914213 c -0.5,0 -1.815644,0.487978 -1.495236,1.659123 0.320407,1.171146 1.899637,3.025459 2.776867,3.025459 l 4.592511,0 c 0.690335,0 2.10935,-1.561527 2.349657,-2.732672 0.240306,-1.171146 -0.888434,-1.95191 -1.388434,-1.95191 l -6.835365,0 z"
     style="color:#000000;fill:url(#radialGradient4911);fill-opacity:1;fill-rule:evenodd;stroke:none;stroke-width:1;marker:none;visibility:visible;display:inline;overflow:visible" /><path
     id="path4609"
     d="m 59.983116,30.542036 4.684583,3.535534 1.237436,-3.447145 -1.502601,2.474873 -4.419418,-2.563262 z"
     style="opacity:0.28654971;color:#000000;fill:url(#linearGradient4913);fill-opacity:1;fill-rule:evenodd;stroke:none;stroke-width:1;marker:none;visibility:visible;display:inline;overflow:visible" /><path
     sodipodi:nodetypes="ccccc"
     style="opacity:0.28654971;color:#000000;fill:url(#linearGradient4915);fill-opacity:1;fill-rule:evenodd;stroke:none;stroke-width:1;marker:none;visibility:visible;display:inline;overflow:visible"
     d="m 59.629562,30.718813 -4.419418,3.358757 -1.502601,-6.629123 2.032931,5.391686 3.889088,-2.12132 z"
     id="path4611" /></g></g>
</svg>