<?xml version="1.0" encoding="iso-8859-1"?>
<!-- Generator: Adobe Illustrator 14.0.0, SVG Export Plug-In . SVG Version: 6.00 Build 43363)  -->
<!DOCTYPE svg PUBLIC "-//W3C//DTD SVG 1.1//EN" "http://www.w3.org/Graphics/SVG/1.1/DTD/svg11.dtd">
<svg version="1.1" id="icon-m-common-location-layer"
	 xmlns="http://www.w3.org/2000/svg" xmlns:xlink="http://www.w3.org/1999/xlink" x="0px" y="0px" width="48px" height="48px"
	 viewBox="0 0 48 48" style="enable-background:new 0 0 48 48;" xml:space="preserve">
<g id="icon-m-common-location_1_">
	<rect style="fill:none;" width="48" height="48"/>
	<path style="fill:#333333;" d="M24,0.073C16.138,0.162,9.794,5.886,9.794,12.943c0,2.254,0.649,4.371,1.785,6.214h0
		c0.377,0.613,2.52,3.673,3,4.22c4.94,7.059,7.376,15.35,9.313,24.551h0.211c1.938-9.201,4.374-17.492,9.314-24.551
		c0.48-0.547,2.622-3.606,3.001-4.219l0.001-0.001c1.136-1.843,1.784-3.96,1.784-6.214C38.205,5.886,31.861,0.162,24,0.073z
		 M24.267,17.396c-2.566,0-4.645-2.073-4.645-4.632s2.079-4.633,4.645-4.633c2.564,0,4.646,2.074,4.646,4.633
		S26.831,17.396,24.267,17.396z"/>
</g>
</svg>
