<?xml version="1.0" encoding="iso-8859-1"?>
<!-- Generator: Adobe Illustrator 14.0.0, SVG Export Plug-In . SVG Version: 6.00 Build 43363)  -->
<!DOCTYPE svg PUBLIC "-//W3C//DTD SVG 1.1//EN" "http://www.w3.org/Graphics/SVG/1.1/DTD/svg11.dtd">
<svg version="1.1" id="icon-m-image-edit-add-text-layer"
	 xmlns="http://www.w3.org/2000/svg" xmlns:xlink="http://www.w3.org/1999/xlink" x="0px" y="0px" width="48px" height="48px"
	 viewBox="0 0 48 48" style="enable-background:new 0 0 48 48;" xml:space="preserve">
<g id="icon-m-image-edit-add-text">
	<rect style="fill:none;" width="48" height="48"/>
	<path style="fill:#333333;" d="M34.5,21C27.045,21,21,27.045,21,34.5C21,41.956,27.045,48,34.5,48S48,41.956,48,34.5
		C48,27.045,41.955,21,34.5,21z M42.6,36.65h-5.883v5.95h-4.401v-5.95H26.4v-4.368h5.915V26.4h4.401v5.882H42.6V36.65z"/>
	<path style="fill:#333333;" d="M6.357,4.871c-1.614,0-3.384,0.283-5.025,0.692v2.462c1.255-0.385,2.641-0.692,3.873-0.692
		c1.769,0,2.769,0.59,2.769,2.41v1.128C3.538,10.948,0,11.46,0,15.666c0,2.82,1.742,4.333,4.563,4.333
		c1.975,0,3.308-0.666,4.488-2.282l0.565,2.104h2.486V9.795C12.101,6.128,9.588,4.871,6.357,4.871z M7.974,14.922
		c0,1.641-0.668,2.744-2.205,2.744c-1.206,0-1.693-0.847-1.693-2.077c0-1.923,1.229-2.666,2.949-2.666h0.949V14.922z"/>
	<path style="fill:#333333;" d="M28.123,12.153c0-3.692-1-7.282-5.077-7.282c-1.435,0-2.588,0.359-3.666,1.385V0h-4.128v19.613
		c1.87,0.258,3.487,0.334,5.64,0.334C25.662,19.947,28.123,17.05,28.123,12.153z M20.893,17.691c-0.487,0-1.101-0.076-1.512-0.128
		v-5.41c0-2.41,0.103-4.82,2.308-4.82c1.974,0,2.179,2.819,2.179,4.794C23.868,15.051,23.432,17.691,20.893,17.691z"/>
</g>
</svg>
