<?xml version="1.0" encoding="iso-8859-1"?>
<!-- Generator: Adobe Illustrator 14.0.0, SVG Export Plug-In . SVG Version: 6.00 Build 43363)  -->
<!DOCTYPE svg PUBLIC "-//W3C//DTD SVG 1.1//EN" "http://www.w3.org/Graphics/SVG/1.1/DTD/svg11.dtd">
<svg version="1.1" id="icon-m-toolbar-edit-layer" xmlns="http://www.w3.org/2000/svg" xmlns:xlink="http://www.w3.org/1999/xlink"
	 x="0px" y="0px" width="32px" height="32px" viewBox="0 0 32 32" style="enable-background:new 0 0 32 32;" xml:space="preserve">
<g id="icon-m-toolbar-edit">
	<rect style="fill:none;" width="32" height="32"/>
	<path style="fill:#FFFFFF;" d="M31.357,7.936l-7.299-7.314c-0.402-0.401-1.059-0.401-1.46,0L5.182,18.064
		c-0.402,0.404-0.878,1.174-1.057,1.713l-3.73,11.196c-0.18,0.54,0.115,0.834,0.652,0.654l11.182-3.731
		c0.538-0.18,1.309-0.656,1.709-1.059L31.357,9.4C31.76,8.998,31.76,8.339,31.357,7.936z M11.856,25.379l-4.463,1.49l-2.245-2.246
		l1.491-4.471l1.976-1.98l5.177,5.271L11.856,25.379z"/>
</g>
</svg>
