<?xml version="1.0" encoding="iso-8859-1"?>
<!-- Generator: Adobe Illustrator 14.0.0, SVG Export Plug-In . SVG Version: 6.00 Build 43363)  -->
<!DOCTYPE svg PUBLIC "-//W3C//DTD SVG 1.1//EN" "http://www.w3.org/Graphics/SVG/1.1/DTD/svg11.dtd">
<svg version="1.1" id="icon-m-email-directory-incoming-layer"
	 xmlns="http://www.w3.org/2000/svg" xmlns:xlink="http://www.w3.org/1999/xlink" x="0px" y="0px" width="48px" height="48px"
	 viewBox="0 0 48 48" style="enable-background:new 0 0 48 48;" xml:space="preserve">
<g id="icon-m-email-directory-incoming_2_">
	<rect style="fill:none;" width="48" height="48"/>
	<path style="fill:#333333;" d="M26.975,3.822c0-0.824-0.676-1.5-1.5-1.5H1.513c-0.825,0-1.5,0.676-1.5,1.5l0,5.503h26.962V3.822z"
		/>
	<path style="fill:#333333;" d="M46.5,12.436H0.015L0.012,44.178c0,0.824,0.674,1.5,1.5,1.5H46.5c0.825,0,1.5-0.676,1.5-1.5V13.936
		C48,13.11,47.325,12.436,46.5,12.436z M33.055,30.163l-9.089,9.109l-9.069-9.109c-0.523-0.543-0.334-0.986,0.419-0.986h5.228
		v-8.966c0-0.754,0.616-1.369,1.369-1.369h4.105c0.753,0,1.369,0.615,1.369,1.369v8.966h5.249
		C33.389,29.177,33.578,29.62,33.055,30.163z"/>
</g>
</svg>
