<?xml version="1.0" encoding="iso-8859-1"?>
<!-- Generator: Adobe Illustrator 14.0.0, SVG Export Plug-In . SVG Version: 6.00 Build 43363)  -->
<!DOCTYPE svg PUBLIC "-//W3C//DTD SVG 1.1//EN" "http://www.w3.org/Graphics/SVG/1.1/DTD/svg11.dtd">
<svg version="1.1" id="icon-m-camera-resolution-35m-layer"
	 xmlns="http://www.w3.org/2000/svg" xmlns:xlink="http://www.w3.org/1999/xlink" x="0px" y="0px" width="32px" height="32px"
	 viewBox="0 0 32 32" style="enable-background:new 0 0 32 32;" xml:space="preserve">
<g id="icon-m-camera-resolution-35m">
	<rect style="fill:none;" width="32" height="32"/>
	<path style="fill:#FFFFFF;" d="M8.458,21.927c-0.431,0-0.881,0.112-1.331,0.234v-0.909c0.487-0.122,1.059-0.226,1.64-0.226
		c1.284,0,2.212,0.432,2.212,1.696c0,0.797-0.44,1.341-1.237,1.584c0.881,0.16,1.359,0.76,1.359,1.594c0,1.5-0.946,2.1-2.605,2.1
		c-0.553,0-1.041-0.075-1.575-0.216v-0.909c0.562,0.132,1.002,0.226,1.424,0.226c0.862,0,1.2-0.413,1.2-1.172
		c0-1.003-0.581-1.182-2.025-1.182v-0.862c1.388,0,1.941-0.149,1.941-1.059C9.461,22.217,9.124,21.927,8.458,21.927z"/>
	<path style="fill:#FFFFFF;" d="M12.611,28c-0.459,0-0.825-0.365-0.825-0.824c0-0.46,0.366-0.835,0.825-0.835
		c0.459,0,0.834,0.375,0.834,0.835C13.446,27.635,13.071,28,12.611,28z"/>
	<path style="fill:#FFFFFF;" d="M15.667,23.548c0.122-0.019,0.272-0.019,0.413-0.019c1.321,0,2.127,0.722,2.127,2.155
		c0,1.556-0.796,2.315-2.54,2.315c-0.553,0-1.106-0.084-1.603-0.207v-0.918c0.469,0.122,0.891,0.226,1.331,0.226
		c0.9,0,1.256-0.45,1.256-1.369c0-0.797-0.412-1.274-1.377-1.274c-0.3,0-0.703,0.01-0.994,0.047v-3.402h3.665v0.9h-2.278V23.548z"/>
	<path style="fill:#FFFFFF;" d="M25.078,27.925h-1.509v-4.527l-1.19,2.307h-0.562l-1.172-2.307v4.527h-1.547v-6.823h1.35
		l1.649,3.225l1.65-3.225h1.33V27.925z"/>
	<polygon style="fill:#FFFFFF;" points="23.337,18.667 23.337,4 18.445,4 18.445,8.891 13.554,8.891 13.554,13.783 13.554,13.782 
		8.663,13.782 8.663,18.668 	"/>
</g>
</svg>
