<?xml version="1.0" encoding="iso-8859-1"?>
<!-- Generator: Adobe Illustrator 14.0.0, SVG Export Plug-In . SVG Version: 6.00 Build 43363)  -->
<!DOCTYPE svg PUBLIC "-//W3C//DTD SVG 1.1//EN" "http://www.w3.org/Graphics/SVG/1.1/DTD/svg11.dtd">
<svg version="1.1" id="icon-m-camera-sound-recording-off-screen-layer"
	 xmlns="http://www.w3.org/2000/svg" xmlns:xlink="http://www.w3.org/1999/xlink" x="0px" y="0px" width="32px" height="32px"
	 viewBox="0 0 32 32" style="enable-background:new 0 0 32 32;" xml:space="preserve">
<g id="icon-m-camera-sound-recording-off-screen">
	<rect style="fill:none;" width="32" height="32"/>
	<path style="fill:#FFFFFF;" d="M11.008,11.305l7.88,7.881l7.749-7.75c0.484-0.482,0.484-1.268,0-1.752l-6.125-6.131
		c-0.482-0.48-1.27-0.48-1.754,0L11.008,11.305z M15.087,9.406l1.5-1.5l5.701,5.701l-1.5,1.496L15.087,9.406z M15.169,18.651
		l-3.626-3.626l-7.588,8.414l2.798,2.799L15.169,18.651z M4.603,27.289L2.9,25.585l-2.207,2.214L2.395,29.5L4.603,27.289z"/>
	<path style="fill:#FFFFFF;" d="M25.802,18.896c-2.929,0-5.302,2.374-5.302,5.302c0,2.929,2.373,5.302,5.302,5.302
		c2.928,0,5.301-2.373,5.301-5.302C31.103,21.271,28.729,18.896,25.802,18.896z M25.802,27.698c-1.934,0-3.5-1.567-3.5-3.5
		s1.566-3.5,3.5-3.5s3.5,1.567,3.5,3.5S27.735,27.698,25.802,27.698z"/>
</g>
</svg>
