<?xml version="1.0" encoding="iso-8859-1"?>
<!-- Generator: Adobe Illustrator 14.0.0, SVG Export Plug-In . SVG Version: 6.00 Build 43363)  -->
<!DOCTYPE svg PUBLIC "-//W3C//DTD SVG 1.1//EN" "http://www.w3.org/Graphics/SVG/1.1/DTD/svg11.dtd">
<svg version="1.1" id="icon-m-toolbar-tag-layer" xmlns="http://www.w3.org/2000/svg" xmlns:xlink="http://www.w3.org/1999/xlink"
	 x="0px" y="0px" width="32px" height="32px" viewBox="0 0 32 32" style="enable-background:new 0 0 32 32;" xml:space="preserve">
<g id="icon-m-toolbar-tag_1_">
	<rect style="fill:none;" width="32" height="32"/>
	<path style="fill:#FFFFFF;" d="M27.236,10.782l0.043-0.111l-0.01-0.005c0.088-0.296,0.086-0.619-0.037-0.92l-3.547-8.635
		c-0.279-0.68-1.051-0.98-1.715-0.668l-8.455,3.959c-0.293,0.138-0.514,0.375-0.651,0.652l-0.009-0.004L4.67,26.061l14.424,5.619
		l8.143-20.895V10.782z M23.012,7.736c-0.571,1.414-2.163,2.133-3.559,1.608S17.39,7.25,17.961,5.838
		c0.57-1.413,2.162-2.133,3.558-1.609C22.914,4.754,23.582,6.325,23.012,7.736z"/>
</g>
</svg>
