<?xml version="1.0" encoding="iso-8859-1"?>
<!-- Generator: Adobe Illustrator 14.0.0, SVG Export Plug-In . SVG Version: 6.00 Build 43363)  -->
<!DOCTYPE svg PUBLIC "-//W3C//DTD SVG 1.1//EN" "http://www.w3.org/Graphics/SVG/1.1/DTD/svg11.dtd">
<svg version="1.1" id="icon-m-toolbar-saved-layer" xmlns="http://www.w3.org/2000/svg" xmlns:xlink="http://www.w3.org/1999/xlink"
	 x="0px" y="0px" width="32px" height="32px" viewBox="0 0 32 32" style="enable-background:new 0 0 32 32;" xml:space="preserve">
<g id="icon-m-toolbar-saved_2_">
	<rect style="fill:none;" width="32" height="32"/>
	<path style="fill:#FFFFFF;" d="M14.395,15.343l0.133-0.205c0.104-0.151,0.212-0.301,0.321-0.448
		c0.008-0.011,0.014-0.018,0.021-0.027h-7.65v1.849h6.525C13.94,16.108,14.155,15.717,14.395,15.343z"/>
	<rect x="7.221" y="18.695" style="fill:#FFFFFF;" width="4.905" height="1.85"/>
	<path style="fill:#FFFFFF;" d="M12.766,23.4H5.11c-0.509,0-0.925-0.416-0.925-0.924v-9.553c0-0.509,0.416-0.926,0.925-0.926h12.557
		l0.099-0.066h0.001c0.62-0.406,1.298-0.756,2.015-1.041l0.205-0.08c0.29-0.107,0.574-0.205,0.864-0.288l0.129-0.034
		c0.308-0.084,0.588-0.152,0.874-0.207c0.078-0.016,0.18-0.031,0.281-0.045c0.227-0.039,0.496-0.081,0.771-0.105
		c0.209-0.022,0.439-0.033,0.674-0.039V3.451c0-0.508-0.416-0.925-0.925-0.925h-4.131v5.525c0,0.255-0.207,0.462-0.462,0.462H5.679
		c-0.254,0-0.462-0.207-0.462-0.462V2.526H0.925C0.416,2.526,0,2.943,0,3.451v21.73c0,0.508,0.416,0.924,0.925,0.924h12.66
		C13.205,25.252,12.927,24.346,12.766,23.4z"/>
	<path style="fill:#FFFFFF;" d="M31.696,19.301c-0.848-3.027-3.423-5.325-6.595-5.77c-0.365-0.051-0.736-0.086-1.116-0.086
		c-0.059,0-0.115,0.007-0.175,0.008c-0.199,0.005-0.397,0.012-0.594,0.031c-0.19,0.018-0.377,0.049-0.562,0.08
		c-0.056,0.01-0.113,0.016-0.168,0.025c-0.224,0.043-0.443,0.098-0.66,0.16c-0.014,0.002-0.027,0.006-0.041,0.009
		c-0.222,0.063-0.438,0.139-0.65,0.219c-0.008,0.004-0.018,0.007-0.026,0.01l-0.001,0.001c-0.545,0.211-1.064,0.475-1.545,0.793
		l0.003-0.003c-0.006,0.003-0.012,0.009-0.019,0.014c-0.078,0.051-0.152,0.109-0.229,0.164c-0.117,0.085-0.234,0.17-0.347,0.26
		c-0.085,0.069-0.167,0.143-0.25,0.216c-0.095,0.082-0.188,0.166-0.279,0.253c-0.087,0.083-0.171,0.169-0.255,0.257
		c-0.075,0.08-0.148,0.16-0.221,0.244c-0.089,0.102-0.176,0.202-0.26,0.308c-0.053,0.066-0.103,0.136-0.152,0.204
		c-0.094,0.127-0.188,0.254-0.275,0.387c-0.002,0.004-0.005,0.01-0.008,0.012c-0.353,0.543-0.64,1.131-0.854,1.752
		c-0.002,0.004-0.004,0.01-0.006,0.016l0.001-0.002c-0.217,0.627-0.356,1.291-0.41,1.979c-0.018,0.197-0.03,0.398-0.031,0.6
		c0,0.008-0.001,0.014-0.001,0.021l0,0c0,0.004,0,0.004,0,0.004c0,3.785,2.634,6.951,6.169,7.785
		c0.594,0.143,1.21,0.223,1.846,0.223c0.554,0,1.093-0.057,1.614-0.162c3.65-0.748,6.4-3.979,6.4-7.846c0,0,0,0,0-0.002
		s0-0.002,0-0.002C32,20.711,31.89,19.988,31.696,19.301z M30.072,18.492l-0.035,0.084l-0.265,0.221
		c-0.157,0.111-0.974,0.707-2.11,1.756c-1.677,1.547-3.252,3.342-4.557,5.193c-0.205,0.285-0.518,0.461-0.857,0.488l-0.096,0.004
		c-0.312,0-0.615-0.127-0.832-0.348l-3.404-3.424c-0.222-0.225-0.342-0.52-0.338-0.832c0.012-0.33,0.139-0.619,0.359-0.83
		l1.151-1.061c0.411-0.395,1.206-0.387,1.624,0.037l1.065,1.098c1.273-1.541,3.913-4.133,7.304-4.2c0.52,0,0.969,0.319,1.128,0.794
		C30.322,17.826,30.27,18.197,30.072,18.492z"/>
	<path style="fill:#FFFFFF;" d="M12.126,2.526v3.451c0,0.255,0.208,0.462,0.463,0.462h2.981c0.255,0,0.462-0.207,0.462-0.462V2.526
		H12.126z"/>
</g>
</svg>
