<?xml version="1.0" encoding="iso-8859-1"?>
<!-- Generator: Adobe Illustrator 14.0.0, SVG Export Plug-In . SVG Version: 6.00 Build 43363)  -->
<!DOCTYPE svg PUBLIC "-//W3C//DTD SVG 1.1//EN" "http://www.w3.org/Graphics/SVG/1.1/DTD/svg11.dtd">
<svg version="1.1" id="icon-s-common-favorite-mark-layer"
	 xmlns="http://www.w3.org/2000/svg" xmlns:xlink="http://www.w3.org/1999/xlink" x="0px" y="0px" width="18px" height="18px"
	 viewBox="0 0 18 18" style="enable-background:new 0 0 18 18;" xml:space="preserve">
<g id="icon-s-common-favorite-mark">
	<rect style="fill:none;" width="18" height="18"/>
	<path style="fill:#333333;" d="M17.699,7.145c0.252-0.188,0.201-0.342-0.113-0.342h-5.805c-0.314,0-0.654-0.244-0.754-0.542
		L9.182,0.762c-0.101-0.299-0.264-0.299-0.364,0L6.972,6.261C6.871,6.559,6.532,6.803,6.217,6.803H0.415
		c-0.316,0-0.366,0.154-0.113,0.342l4.642,3.45c0.254,0.188,0.377,0.585,0.277,0.884l-1.905,5.674
		c-0.101,0.299,0.032,0.4,0.294,0.226l4.914-3.274c0.263-0.174,0.691-0.174,0.953,0l4.912,3.274
		c0.263,0.175,0.395,0.073,0.295-0.226l-1.904-5.674c-0.101-0.299,0.024-0.695,0.277-0.884L17.699,7.145z"/>
</g>
</svg>
