<?xml version="1.0" encoding="iso-8859-1"?>
<!-- Generator: Adobe Illustrator 14.0.0, SVG Export Plug-In . SVG Version: 6.00 Build 43363)  -->
<!DOCTYPE svg PUBLIC "-//W3C//DTD SVG 1.1//EN" "http://www.w3.org/Graphics/SVG/1.1/DTD/svg11.dtd">
<svg version="1.1" id="icon-s-telephony-call-diverted-layer"
	 xmlns="http://www.w3.org/2000/svg" xmlns:xlink="http://www.w3.org/1999/xlink" x="0px" y="0px" width="18px" height="18px"
	 viewBox="0 0 18 18" style="enable-background:new 0 0 18 18;" xml:space="preserve">
<g id="icon-s-telephony-call-diverted">
	<rect style="fill:none;" width="18" height="18"/>
	<path style="fill:#FFFFFF;" d="M17.004,2.685L7.868,5.621c-0.28,0.09-0.317,0.308-0.081,0.484l3.072,2.301
		c-0.051,0.033-0.098,0.074-0.136,0.126L7.82,12.407H1.035c-0.294,0-0.535,0.242-0.535,0.536v2.59c0,0.294,0.241,0.535,0.535,0.535
		h8.304c0.177,0.015,0.357-0.06,0.471-0.211l3.844-5.132c0.039-0.051,0.064-0.106,0.081-0.165l3.073,2.303
		c0.236,0.176,0.435,0.08,0.442-0.215l0.25-9.594C17.507,2.76,17.284,2.594,17.004,2.685z"/>
</g>
</svg>
