<?xml version="1.0" encoding="iso-8859-1"?>
<!-- Generator: Adobe Illustrator 14.0.0, SVG Export Plug-In . SVG Version: 6.00 Build 43363)  -->
<!DOCTYPE svg PUBLIC "-//W3C//DTD SVG 1.1//EN" "http://www.w3.org/Graphics/SVG/1.1/DTD/svg11.dtd">
<svg version="1.1" id="icon-m-toolbar-redo-layer" xmlns="http://www.w3.org/2000/svg" xmlns:xlink="http://www.w3.org/1999/xlink"
	 x="0px" y="0px" width="32px" height="32px" viewBox="0 0 32 32" style="enable-background:new 0 0 32 32;" xml:space="preserve">
<g id="icon-m-toolbar-redo">
	<rect x="0" style="fill:none;" width="32" height="32"/>
	<path style="fill:#FFFFFF;" d="M0,9.549v12.904c0,2.768,2.266,5.033,5.035,5.033h17.467v-3.775H5.036
		c-0.682,0-1.258-0.578-1.258-1.258V9.549c0-0.682,0.576-1.26,1.258-1.26l14.156,0.002c1.254,0,2.398,0.473,3.279,1.238h0.004
		l1.715,1.542l-2.83,3.09c-0.145,0.158-0.088,0.306,0.123,0.333l10.205,1.243c0.213,0.024,0.348-0.124,0.305-0.335L29.857,5.346
		c-0.047-0.206-0.197-0.25-0.342-0.092l-2.777,3.033L23.975,5.8c-1.012-0.91-2.297-1.33-3.562-1.28L20.41,4.514H5.036
		C2.266,4.514,0,6.779,0,9.549z"/>
</g>
</svg>
