<?xml version="1.0" encoding="iso-8859-1"?>
<!-- Generator: Adobe Illustrator 14.0.0, SVG Export Plug-In . SVG Version: 6.00 Build 43363)  -->
<!DOCTYPE svg PUBLIC "-//W3C//DTD SVG 1.1//EN" "http://www.w3.org/Graphics/SVG/1.1/DTD/svg11.dtd">
<svg version="1.1" id="icon-m-settings-touch-feedback-layer"
	 xmlns="http://www.w3.org/2000/svg" xmlns:xlink="http://www.w3.org/1999/xlink" x="0px" y="0px" width="48px" height="48px"
	 viewBox="0 0 48 48" style="enable-background:new 0 0 48 48;" xml:space="preserve">
<g id="icon-m-settings-touch-feedback_1_">
	<rect style="fill:none;" width="48" height="48"/>
	<path style="fill:#333333;" d="M41.307,27.901c-0.812-2.868-5.592-1.515-4.778,1.354l0.813,2.869l-1.91,0.545l-2.171-7.646
		c-0.813-2.868-5.592-1.514-4.778,1.354l1.627,5.736l-1.91,0.536l-2.441-8.595c-0.813-2.87-5.592-1.515-4.779,1.354l1.898,6.687
		l-1.91,0.546L15.541,13.53c-0.813-2.868-5.592-1.513-4.75,1.454l9.194,32.396l24.848-7.055L41.307,27.901z"/>
	<path style="fill:#333333;" d="M6.75,21V5.25h30v16.5h4.5V2.25c0,0,0-1.5-1.5-1.5h-36c-1.5,0-1.5,1.5-1.5,1.5V24c0,0,0,1.5,1.5,1.5
		h6L8.25,21H6.75z"/>
</g>
</svg>
