<?xml version="1.0" encoding="iso-8859-1"?>
<!-- Generator: Adobe Illustrator 14.0.0, SVG Export Plug-In . SVG Version: 6.00 Build 43363)  -->
<!DOCTYPE svg PUBLIC "-//W3C//DTD SVG 1.1//EN" "http://www.w3.org/Graphics/SVG/1.1/DTD/svg11.dtd">
<svg version="1.1" id="icon-m-common-share-layer" xmlns="http://www.w3.org/2000/svg" xmlns:xlink="http://www.w3.org/1999/xlink"
	 x="0px" y="0px" width="48px" height="48px" viewBox="0 0 48 48" style="enable-background:new 0 0 48 48;" xml:space="preserve">
<g id="icon-m-common-share_1_">
	<rect style="fill:none;" width="48" height="48"/>
	<path id="Share_3_" style="fill:#333333;" d="M38.822,28.438c-2.668,0-5.029,1.26-6.512,3.195l-15.05-6.75
		c0.024-0.246,0.04-0.492,0.04-0.744c0-0.281-0.018-0.56-0.048-0.834l15.193-6.762c1.487,1.836,3.788,3.02,6.377,3.02
		c4.488,0,8.127-3.541,8.127-7.907s-3.639-7.904-8.127-7.904c-4.486,0-8.123,3.538-8.123,7.904c0,0.496,0.053,0.979,0.143,1.449
		l-14.916,6.638c-1.458-2.115-3.936-3.51-6.753-3.51c-4.487,0-8.123,3.54-8.123,7.906s3.636,7.906,8.123,7.906
		c2.847,0,5.348-1.426,6.798-3.581l14.836,6.649c-0.064,0.402-0.107,0.812-0.107,1.231c0,4.368,3.637,7.906,8.123,7.906
		c4.488,0,8.127-3.538,8.127-7.906S43.311,28.438,38.822,28.438z"/>
</g>
</svg>
