<?xml version="1.0" encoding="iso-8859-1"?>
<!-- Generator: Adobe Illustrator 14.0.0, SVG Export Plug-In . SVG Version: 6.00 Build 43363)  -->
<!DOCTYPE svg PUBLIC "-//W3C//DTD SVG 1.1//EN" "http://www.w3.org/Graphics/SVG/1.1/DTD/svg11.dtd">
<svg version="1.1" id="icon-m-camera-sound-recording-on-layer"
	 xmlns="http://www.w3.org/2000/svg" xmlns:xlink="http://www.w3.org/1999/xlink" x="0px" y="0px" width="48px" height="48px"
	 viewBox="0 0 48 48" style="enable-background:new 0 0 48 48;" xml:space="preserve">
<g id="icon-m-camera-sound-recording-on">
	<rect style="fill:none;" width="48" height="48"/>
	<path style="fill:#333333;" d="M16.512,16.958l11.82,11.82l11.623-11.626c0.727-0.723,0.727-1.902,0-2.627l-9.188-9.197
		c-0.725-0.719-1.906-0.719-2.633,0.002L16.512,16.958z M22.631,14.107l2.25-2.247l8.55,8.549l-2.249,2.247L22.631,14.107z
		 M22.754,27.977l-5.44-5.439L5.932,35.16l4.196,4.196L22.754,27.977z M6.904,40.932L4.35,38.377l-3.31,3.321l2.552,2.552
		L6.904,40.932z"/>
	<circle style="fill:#333333;" cx="38.703" cy="36.297" r="7.953"/>
</g>
</svg>
