<?xml version="1.0" encoding="iso-8859-1"?>
<!-- Generator: Adobe Illustrator 14.0.0, SVG Export Plug-In . SVG Version: 6.00 Build 43363)  -->
<!DOCTYPE svg PUBLIC "-//W3C//DTD SVG 1.1//EN" "http://www.w3.org/Graphics/SVG/1.1/DTD/svg11.dtd">
<svg version="1.1" id="icon-m-telephony-call-received-layer"
	 xmlns="http://www.w3.org/2000/svg" xmlns:xlink="http://www.w3.org/1999/xlink" x="0px" y="0px" width="48px" height="48px"
	 viewBox="0 0 48 48" style="enable-background:new 0 0 48 48;" xml:space="preserve">
<g id="icon-m-telephony-call-received_2_">
	<rect style="fill:none;" width="48" height="48"/>
	<path style="fill:#333333;" d="M43.5,25.459H30.349V3.538h-0.041c-0.065-0.766-0.705-1.374-1.487-1.374h-9.724
		c-0.782,0-1.422,0.608-1.487,1.374h-0.005v0.054c-0.001,0.024-0.007,0.047-0.007,0.072v1.715c0,0.027,0.006,0.053,0.007,0.078
		l0.008,20.002H4.5c-0.825,0-1.023,0.477-0.439,1.06l18.878,18.879c0.583,0.583,1.538,0.583,2.122,0l18.879-18.879
		C44.523,25.936,44.325,25.459,43.5,25.459z"/>
</g>
</svg>
