<?xml version="1.0" encoding="iso-8859-1"?>
<!-- Generator: Adobe Illustrator 14.0.0, SVG Export Plug-In . SVG Version: 6.00 Build 43363)  -->
<!DOCTYPE svg PUBLIC "-//W3C//DTD SVG 1.1//EN" "http://www.w3.org/Graphics/SVG/1.1/DTD/svg11.dtd">
<svg version="1.1" id="icon-m-camera-scene-sports-layer"
	 xmlns="http://www.w3.org/2000/svg" xmlns:xlink="http://www.w3.org/1999/xlink" x="0px" y="0px" width="48px" height="48px"
	 viewBox="0 0 48 48" style="enable-background:new 0 0 48 48;" xml:space="preserve">
<g id="icon-m-camera-scene-sports">
	<rect style="fill:none;" width="48" height="48"/>
	<path style="fill:#333333;" d="M43.416,26.146h-2.26c-1.238,0-2.43-0.987-2.649-2.197l-0.396-2.159
		c-0.22-1.209-1.116-2.906-1.998-3.771l-6.031-5.936c-0.879-0.865-2.589-1.794-3.795-2.061l-3.084-0.684
		c-1.208-0.27-2.932,0.203-3.831,1.047l-3.97,3.717c-0.899,0.844-0.991,2.228-0.205,3.077c0.781,0.845,2.197,0.882,3.135,0.079
		l2.403-2.055c0.938-0.803,2.03-1.088,2.417-0.63c0.389,0.455,0.02,1.558-0.838,2.444l-5.561,5.771
		c-0.854,0.896-1.676,2.615-1.824,3.84l-0.35,2.898c-0.151,1.221-1.072,2.834-2.051,3.585l-9.506,7.281
		c-0.976,0.75-1.254,2.224-0.611,3.274l0.618,1.009c0.647,1.05,1.989,1.326,2.992,0.601l11.726-8.42
		c1.004-0.718,2.107-0.984,2.46-0.595c0.35,0.392-0.155,1.339-1.119,2.101l-2.845,2.27c-0.969,0.77-1.124,2.183-0.348,3.139
		l0.562,0.693c0.782,0.958,2.219,1.131,3.194,0.385l9.718-7.39c0.975-0.749,1.14-2.133,0.344-3.079l-2.727-3.275
		c-0.787-0.944-0.719-2.432,0.155-3.295l4.612-4.586c0.874-0.869,1.803-0.594,2.07,0.604l0.949,4.323
		c0.266,1.199,1.493,2.181,2.73,2.181h5.91c1.238,0,2.25-0.938,2.25-2.094C45.666,27.087,44.654,26.146,43.416,26.146z"/>
	<ellipse style="fill:#333333;" cx="38.964" cy="8.205" rx="6.347" ry="6.302"/>
</g>
</svg>
