<?xml version="1.0" encoding="iso-8859-1"?>
<!-- Generator: Adobe Illustrator 14.0.0, SVG Export Plug-In . SVG Version: 6.00 Build 43363)  -->
<!DOCTYPE svg PUBLIC "-//W3C//DTD SVG 1.1//EN" "http://www.w3.org/Graphics/SVG/1.1/DTD/svg11.dtd">
<svg version="1.1" id="icon-m-framework-search-layer"
	 xmlns="http://www.w3.org/2000/svg" xmlns:xlink="http://www.w3.org/1999/xlink" x="0px" y="0px" width="32px" height="32px"
	 viewBox="0 0 32 32" style="enable-background:new 0 0 32 32;" xml:space="preserve">
<g id="icon-m-framework-search">
	<rect style="fill:none;" width="32" height="32"/>
	<path style="fill:#FFFFFF;" d="M19.783,4.678c-4.063-4.062-10.674-4.062-14.736,0c-4.063,4.061-4.063,10.674,0,14.734
		c3.729,3.731,9.604,4.033,13.686,0.916l2.189,2.189l0.447,2.514c0.047,0.255,0.233,0.612,0.417,0.796l5.532,5.53
		c0.365,0.365,0.965,0.365,1.33,0l3.076-3.076c0.367-0.365,0.367-0.965,0-1.33l-5.527-5.535c-0.184-0.184-0.541-0.369-0.796-0.416
		l-2.517-0.449l-2.188-2.186C23.816,14.281,23.512,8.406,19.783,4.678z M17.494,17.123c-2.801,2.801-7.356,2.801-10.158,0
		c-2.8-2.8-2.8-7.355,0-10.156c2.801-2.799,7.357-2.799,10.158,0C20.293,9.768,20.293,14.324,17.494,17.123z"/>
</g>
</svg>
