<?xml version="1.0" encoding="iso-8859-1"?>
<!-- Generator: Adobe Illustrator 14.0.0, SVG Export Plug-In . SVG Version: 6.00 Build 43363)  -->
<!DOCTYPE svg PUBLIC "-//W3C//DTD SVG 1.1//EN" "http://www.w3.org/Graphics/SVG/1.1/DTD/svg11.dtd">
<svg version="1.1" id="icon-m-telephony-sip-layer" xmlns="http://www.w3.org/2000/svg" xmlns:xlink="http://www.w3.org/1999/xlink"
	 x="0px" y="0px" width="48px" height="48px" viewBox="0 0 48 48" style="enable-background:new 0 0 48 48;" xml:space="preserve">
<g id="icon-m-telephony-sip">
	<rect style="fill:none;" width="48" height="48"/>
	<path style="fill:#333333;" d="M44.998,1.292h-42C1.348,1.292,0,2.643,0,4.29v30.019c0,1.652,1.348,3.002,2.998,3.002h6.465v9.397
		l7.783-9.397h27.752c1.652,0,3.002-1.35,3.002-3.002V4.29C48,2.643,46.65,1.292,44.998,1.292z M18.174,26.333
		c-0.375,0.795-0.902,1.479-1.57,2.035c-0.662,0.551-1.449,0.97-2.336,1.247c-0.869,0.268-1.818,0.402-2.82,0.402
		c-0.697,0-1.355-0.057-1.955-0.178c-0.594-0.117-1.133-0.266-1.598-0.436c-0.467-0.17-0.871-0.354-1.203-0.547
		c-0.357-0.205-0.596-0.377-0.754-0.541c-0.18-0.188-0.311-0.422-0.395-0.695c-0.07-0.243-0.105-0.543-0.105-0.916
		c0-0.255,0.012-0.473,0.037-0.641c0.025-0.195,0.068-0.363,0.131-0.504c0.088-0.203,0.217-0.354,0.383-0.451
		c0.377-0.217,0.807-0.186,1.416,0.224c0.242,0.161,0.557,0.338,0.943,0.528c0.381,0.191,0.85,0.375,1.391,0.541
		c0.518,0.164,1.135,0.242,1.83,0.242c0.512,0,0.98-0.068,1.396-0.201c0.404-0.133,0.752-0.315,1.039-0.551
		c0.277-0.227,0.484-0.498,0.633-0.83s0.225-0.725,0.225-1.16c0-0.445-0.098-0.828-0.293-1.135c-0.219-0.34-0.502-0.634-0.865-0.896
		c-0.387-0.278-0.838-0.537-1.34-0.771l-1.643-0.767c-0.576-0.267-1.145-0.567-1.688-0.894c-0.57-0.338-1.086-0.743-1.539-1.205
		c-0.463-0.475-0.84-1.037-1.127-1.67c-0.291-0.646-0.438-1.42-0.438-2.303c0-0.904,0.168-1.728,0.502-2.447
		C6.768,11.098,7.24,10.48,7.84,9.99c0.594-0.484,1.301-0.857,2.104-1.106c1.197-0.37,2.596-0.483,3.98-0.245
		c0.467,0.08,0.916,0.188,1.332,0.322c0.422,0.139,0.805,0.295,1.135,0.467c0.369,0.19,0.6,0.34,0.742,0.482
		c0.137,0.138,0.23,0.255,0.287,0.357c0.055,0.098,0.1,0.215,0.129,0.354c0.027,0.11,0.047,0.239,0.061,0.394
		c0.012,0.141,0.016,0.312,0.016,0.523c0,0.204-0.006,0.391-0.023,0.551c-0.021,0.186-0.055,0.34-0.094,0.467
		c-0.062,0.204-0.166,0.365-0.307,0.48c-0.338,0.273-0.721,0.288-1.367-0.098c-0.229-0.14-0.514-0.293-0.848-0.465
		c-0.318-0.162-0.703-0.316-1.141-0.451c-0.803-0.25-1.953-0.273-2.68-0.012c-0.336,0.123-0.609,0.281-0.818,0.477
		c-0.203,0.187-0.355,0.406-0.455,0.664c-0.105,0.271-0.162,0.562-0.162,0.865c0,0.443,0.098,0.812,0.295,1.121
		c0.215,0.334,0.51,0.641,0.875,0.902c0.391,0.281,0.848,0.548,1.354,0.787c0.541,0.256,1.092,0.511,1.652,0.771
		c0.57,0.265,1.141,0.56,1.695,0.879c0.58,0.334,1.105,0.734,1.562,1.19c0.469,0.47,0.852,1.031,1.141,1.666
		c0.291,0.646,0.438,1.411,0.438,2.276C18.74,24.621,18.549,25.537,18.174,26.333z M25.137,28.77c0,0.192-0.055,0.375-0.156,0.525
		c-0.111,0.168-0.279,0.288-0.496,0.364c-0.125,0.046-0.295,0.085-0.506,0.116c-0.199,0.029-0.441,0.047-0.723,0.047
		c-0.268,0-0.506-0.018-0.707-0.045c-0.219-0.032-0.389-0.072-0.518-0.118c-0.223-0.077-0.391-0.2-0.5-0.37
		c-0.098-0.145-0.152-0.324-0.152-0.521V9.766c0-0.199,0.062-0.389,0.18-0.547c0.117-0.156,0.287-0.273,0.502-0.342
		c0.133-0.045,0.301-0.086,0.508-0.117c0.42-0.062,1.021-0.057,1.404,0c0.213,0.034,0.385,0.072,0.512,0.117
		c0.217,0.079,0.385,0.201,0.496,0.363c0.102,0.152,0.154,0.336,0.154,0.525V28.77H25.137z M42.029,18.059
		c-0.355,0.869-0.873,1.621-1.539,2.234c-0.66,0.613-1.479,1.09-2.432,1.419c-0.938,0.328-2.062,0.49-3.344,0.49h-1.686v6.565
		c0,0.207-0.062,0.399-0.184,0.558c-0.105,0.141-0.266,0.257-0.467,0.334c-0.133,0.046-0.293,0.085-0.508,0.116
		c-0.199,0.029-0.439,0.047-0.721,0.047c-0.279,0-0.52-0.018-0.719-0.047c-0.211-0.031-0.381-0.07-0.51-0.116
		c-0.221-0.077-0.387-0.2-0.496-0.368c-0.102-0.15-0.154-0.331-0.154-0.521V10.502c0-0.584,0.18-1.021,0.529-1.311
		c0.316-0.256,0.678-0.385,1.074-0.385h4.238c0.445,0,0.877,0.021,1.283,0.055c0.418,0.039,0.908,0.121,1.461,0.24
		c0.588,0.129,1.191,0.373,1.797,0.724c0.611,0.35,1.139,0.794,1.568,1.312c0.43,0.521,0.762,1.129,0.992,1.809
		c0.23,0.672,0.344,1.42,0.344,2.223C42.562,16.227,42.383,17.198,42.029,18.059z"/>
	<path style="fill:#333333;" d="M37.375,12.636c-0.381-0.226-0.773-0.37-1.176-0.432c-0.443-0.065-0.879-0.101-1.297-0.101h-1.873
		v6.815h1.809c0.725,0,1.322-0.09,1.779-0.269c0.449-0.174,0.826-0.414,1.127-0.721c0.299-0.301,0.527-0.67,0.68-1.098
		c0.164-0.439,0.244-0.93,0.244-1.451c0-0.704-0.129-1.292-0.383-1.744C38.035,13.188,37.729,12.852,37.375,12.636z"/>
</g>
</svg>
