<?xml version="1.0" encoding="iso-8859-1"?>
<!-- Generator: Adobe Illustrator 14.0.0, SVG Export Plug-In . SVG Version: 6.00 Build 43363)  -->
<!DOCTYPE svg PUBLIC "-//W3C//DTD SVG 1.1//EN" "http://www.w3.org/Graphics/SVG/1.1/DTD/svg11.dtd">
<svg version="1.1" id="icon-m-quicklaunchbar-menu-close-layer"
	 xmlns="http://www.w3.org/2000/svg" xmlns:xlink="http://www.w3.org/1999/xlink" x="0px" y="0px" width="32px" height="32px"
	 viewBox="0 0 32 32" style="enable-background:new 0 0 32 32;" xml:space="preserve">
<g id="icon-m-quicklaunchbar-menu-close_1_">
	<rect style="fill:none;" width="32" height="32"/>
	<path id="Icon-m-close_6_" style="fill:#FFFFFF;" d="M30.336,25.315c1.377,1.379,1.36,3.62-0.02,4.986
		c-0.684,0.688-1.582,1.038-2.488,1.038c-0.902,0-1.804-0.35-2.492-1.038l-9.338-9.319l-9.327,9.319
		c-0.687,0.688-1.593,1.038-2.49,1.038c-0.903,0-1.812-0.35-2.498-1.038c-1.372-1.366-1.388-3.599-0.009-4.983l9.347-9.312
		L1.674,6.678c-1.379-1.367-1.379-3.604,0-4.988c1.373-1.373,3.617-1.373,4.997,0l9.332,9.326l9.333-9.326
		c1.381-1.373,3.604-1.373,4.98,0c1.38,1.385,1.396,3.621,0.02,4.992l-9.342,9.316L30.336,25.315z"/>
</g>
</svg>
