<?xml version="1.0" encoding="iso-8859-1"?>
<!-- Generator: Adobe Illustrator 14.0.0, SVG Export Plug-In . SVG Version: 6.00 Build 43363)  -->
<!DOCTYPE svg PUBLIC "-//W3C//DTD SVG 1.1//EN" "http://www.w3.org/Graphics/SVG/1.1/DTD/svg11.dtd">
<svg version="1.1" id="icon-m-camera-postcapture-view-5sec-selected-layer"
	 xmlns="http://www.w3.org/2000/svg" xmlns:xlink="http://www.w3.org/1999/xlink" x="0px" y="0px" width="48px" height="48px"
	 viewBox="0 0 48 48" style="enable-background:new 0 0 48 48;" xml:space="preserve">
<g id="icon-m-camera-postcapture-view-5sec-selected">
	<rect style="fill:none;" width="48" height="48"/>
	<path style="fill:#63AF45;" d="M34.104,33.528c0.214-0.032,0.478-0.032,0.726-0.032c2.327,0,3.746,1.27,3.746,3.795
		c0,2.739-1.402,4.077-4.472,4.077c-0.974,0-1.948-0.149-2.823-0.363v-1.617c0.826,0.214,1.568,0.396,2.344,0.396
		c1.585,0,2.213-0.793,2.213-2.41c0-1.401-0.727-2.244-2.427-2.244c-0.528,0-1.237,0.017-1.749,0.082v-5.989h6.451v1.585h-4.009
		V33.528z"/>
	<path style="fill:#63AF45;" d="M23.683,12.916c0.502,0,0.954-0.195,1.303-0.501c0.465,0.662,1.127,1.079,1.864,1.079
		c0.734,0,1.396-0.417,1.864-1.079c0.347,0.306,0.802,0.501,1.302,0.501c1.096,0,1.982-0.894,1.982-1.992
		c0-1.102-0.887-1.994-1.982-1.994c-0.254,0-0.493,0.05-0.715,0.141c-0.32-1.412-1.296-2.439-2.451-2.439s-2.132,1.027-2.451,2.439
		c-0.222-0.091-0.463-0.141-0.716-0.141c-1.095,0-1.983,0.893-1.983,1.994C21.7,12.022,22.588,12.916,23.683,12.916z"/>
	<path style="fill:#63AF45;" d="M27.904,19.289c-1.605-1.794-3.579-2.063-5.597,2.402C19.446,15.076,13.61,6.811,8.25,26.907H19.5
		C21.283,23.432,24.261,20.768,27.904,19.289z"/>
	<path style="fill:#63AF45;" d="M4.5,4.5h39V21c2.25,1.5,3.75,3.75,3.75,3.75V2.25c0,0,0-1.5-1.5-1.5H2.25c-1.5,0-1.5,1.5-1.5,1.5
		v30c0,1.5,1.5,1.5,1.5,1.5H18C18,31.5,18.75,30,18.75,30H4.5V4.5z"/>
	<path style="fill:#63AF45;" d="M35.25,21.163v-2.021h2.25v-3h-6.75v3H33v2.018c-6.607,0.651-12.04,6.237-12.04,13.013
		c0,7.211,5.866,13.078,13.078,13.078c7.21,0,13.078-5.867,13.078-13.078C47.116,27.413,41.834,21.836,35.25,21.163z M34.038,43.514
		c-5.15,0-9.342-4.189-9.342-9.342c0-5.149,4.192-9.342,9.342-9.342c5.149,0,9.341,4.192,9.341,9.342
		C43.379,39.324,39.188,43.514,34.038,43.514z"/>
	<path style="fill:#63AF45;" d="M35.25,21.163v-2.021h2.25v-3h-6.75v3H33v2.018c-6.607,0.651-12.04,6.237-12.04,13.013
		c0,7.211,5.866,13.078,13.078,13.078c7.21,0,13.078-5.867,13.078-13.078C47.116,27.413,41.834,21.836,35.25,21.163z M34.038,43.514
		c-5.15,0-9.342-4.189-9.342-9.342c0-5.149,4.192-9.342,9.342-9.342c5.149,0,9.341,4.192,9.341,9.342
		C43.379,39.324,39.188,43.514,34.038,43.514z"/>
</g>
</svg>
