<?xml version="1.0" encoding="iso-8859-1"?>
<!-- Generator: Adobe Illustrator 14.0.0, SVG Export Plug-In . SVG Version: 6.00 Build 43363)  -->
<!DOCTYPE svg PUBLIC "-//W3C//DTD SVG 1.1//EN" "http://www.w3.org/Graphics/SVG/1.1/DTD/svg11.dtd">
<svg version="1.1" id="icon-s-status-latin-caps-layer"
	 xmlns="http://www.w3.org/2000/svg" xmlns:xlink="http://www.w3.org/1999/xlink" x="0px" y="0px" width="31px" height="15px"
	 viewBox="0 0 31 15" style="enable-background:new 0 0 31 15;" xml:space="preserve">
<g id="icon-s-status-latin-caps_1_">
	<rect style="fill:none;" width="31" height="15"/>
	<path style="fill:#FFFFFF;" d="M11.072,14.781H8.871l-0.96-3.34H3.07l-0.96,3.34h-1.92L4.51,0.219h2.32L11.072,14.781z
		 M7.531,9.981L5.511,2.4L3.45,9.981H7.531z"/>
	<path style="fill:#FFFFFF;" d="M12.75,14.781V0.219h4.241c2.381,0,4.061,0.88,4.061,3.521c0,1.641-0.76,2.78-2.301,3.36
		c1.9,0.44,2.721,1.661,2.721,3.581c0,3.001-1.96,4.101-4.781,4.101H12.75z M16.35,6.54c1.781,0,2.541-0.881,2.541-2.601
		c0-1.52-0.721-2.262-2.24-2.262H14.83V6.54H16.35z M16.59,13.322c1.98,0,2.721-0.841,2.721-2.701S18.371,7.9,16.551,7.9H14.83
		v5.422H16.59z"/>
	<path style="fill:#FFFFFF;" d="M30.811,14.621c-0.8,0.221-1.439,0.301-2.26,0.301c-4.521,0-5.322-3.881-5.322-7.582
		c0-3.621,1.061-7.261,5.361-7.261c0.82,0,1.48,0.06,2.221,0.279V1.84c-0.72-0.221-1.279-0.341-2.04-0.341
		c-2.86,0-3.321,3.36-3.321,5.761c0,2.601,0.4,6.242,3.422,6.242c0.719,0,1.26-0.12,1.939-0.32V14.621z"/>
</g>
</svg>
