<?xml version="1.0" encoding="iso-8859-1"?>
<!-- Generator: Adobe Illustrator 14.0.0, SVG Export Plug-In . SVG Version: 6.00 Build 43363)  -->
<!DOCTYPE svg PUBLIC "-//W3C//DTD SVG 1.1//EN" "http://www.w3.org/Graphics/SVG/1.1/DTD/svg11.dtd">
<svg version="1.1" id="icon-m-energy-management-powersave5-layer"
	 xmlns="http://www.w3.org/2000/svg" xmlns:xlink="http://www.w3.org/1999/xlink" x="0px" y="0px" width="48px" height="48px"
	 viewBox="0 0 48 48" style="enable-background:new 0 0 48 48;" xml:space="preserve">
<g id="icon-m-energy-management-powersave5">
	<rect style="fill:none;" width="48" height="48"/>
	<path style="fill:#333333;" d="M19.207,43.569H4.587c-0.752,0-1.372-0.618-1.372-1.37V10.697c0-0.752,0.619-1.372,1.372-1.372
		h17.829c0.753,0,1.372,0.62,1.372,1.372v9.537c0.995-0.768,2.069-1.434,3.212-1.98V6.541c0-0.756-0.616-1.37-1.369-1.37h-7.353
		V3.115c0-0.755-0.616-1.372-1.37-1.372h-6.814c-0.753,0-1.37,0.617-1.37,1.372v2.056H1.371C0.617,5.171,0,5.785,0,6.541v38.344
		c0,0.756,0.617,1.373,1.371,1.373h19.762C20.412,45.424,19.767,44.525,19.207,43.569z"/>
	<path style="fill:#333333;" d="M16.745,34.5c0-4.61,1.744-8.818,4.604-12.007v-0.769H5.802v18.999h12.053
		C17.138,38.783,16.745,36.687,16.745,34.5z"/>
	<path style="fill:#333333;" d="M34.5,21C27.045,21,21,27.045,21,34.5S27.045,48,34.5,48S48,41.955,48,34.5S41.955,21,34.5,21z
		 M40.381,43.543c-0.79,0.216-1.619,0.332-2.477,0.332c-5.178,0-9.285-4.195-9.285-9.375c0-5.177,4.107-9.375,9.285-9.375
		c0.857,0,1.687,0.117,2.477,0.334c-3.977,1.085-6.761,4.721-6.761,9.041S36.404,42.455,40.381,43.543z"/>
</g>
</svg>
