<?xml version="1.0" encoding="iso-8859-1"?>
<!-- Generator: Adobe Illustrator 14.0.0, SVG Export Plug-In . SVG Version: 6.00 Build 43363)  -->
<!DOCTYPE svg PUBLIC "-//W3C//DTD SVG 1.1//EN" "http://www.w3.org/Graphics/SVG/1.1/DTD/svg11.dtd">
<svg version="1.1" id="icon-m-settings-battery-layer"
	 xmlns="http://www.w3.org/2000/svg" xmlns:xlink="http://www.w3.org/1999/xlink" x="0px" y="0px" width="64px" height="64px"
	 viewBox="0 0 64 64" style="enable-background:new 0 0 64 64;" xml:space="preserve">
<g id="icon-m-settings-battery">
	<rect style="opacity:0;fill:#FFFFFF;" width="64" height="64"/>
	<g>
		<path style="fill:#FFFFFF;" d="M61.162,26.082h-4v-8c0,0,0-4-4-4h-48c-4,0-4,4-4,4v30c0,0,0,4,4,4h48c0,0,4,0,4-4v-8h4
			c-1.23,0,2,0.349,2-2v-10C63.162,26.082,61.162,26.082,61.162,26.082z M53.162,46.082c0,2-2,2-2,2h-44c0,0-2-0.035-2-2l0-26
			c0,0,0-2,2-2h44.001c2,0,2,2,2,2V46.082z"/>
		<rect x="8.162" y="21.082" style="fill:#FFFFFF;" width="21" height="24"/>
	</g>
</g>
</svg>
