<?xml version="1.0" encoding="iso-8859-1"?>
<!-- Generator: Adobe Illustrator 14.0.0, SVG Export Plug-In . SVG Version: 6.00 Build 43363)  -->
<!DOCTYPE svg PUBLIC "-//W3C//DTD SVG 1.1//EN" "http://www.w3.org/Graphics/SVG/1.1/DTD/svg11.dtd">
<svg version="1.1" id="icon-m-toolbar-refresh2-layer"
	 xmlns="http://www.w3.org/2000/svg" xmlns:xlink="http://www.w3.org/1999/xlink" x="0px" y="0px" width="32px" height="32px"
	 viewBox="0 0 32 32" style="enable-background:new 0 0 32 32;" xml:space="preserve">
<g id="icon-m-toolbar-refresh2">
	<rect style="fill:none;" width="32" height="32"/>
	<path style="fill:#FFFFFF;" d="M1.6,16c0,7.953,6.447,14.4,14.4,14.4c7.952,0,14.4-6.447,14.4-14.4S23.952,1.6,16,1.6
		C8.047,1.6,1.6,8.047,1.6,16z M21.135,23.137c0,0.113-0.042,0.227-0.124,0.314l-5.004,5.4c-0.086,0.094-0.208,0.146-0.334,0.148
		c-0.128,0.002-0.25-0.049-0.34-0.141c-0.083-0.087-0.169-0.243-0.169-0.363v-2.934c-5.019-0.152-9.058-4.285-9.062-9.342
		c0-1.832,0.535-3.607,1.546-5.139c0.076-0.115,0.201-0.191,0.341-0.204c0.138-0.015,0.275,0.034,0.374,0.133l2.104,2.103
		c0.144,0.143,0.177,0.364,0.083,0.543c-0.421,0.8-0.635,1.662-0.636,2.564c0.004,2.951,2.334,5.375,5.25,5.529v-3.975
		c0-0.124,0.049-0.242,0.137-0.328c0.088-0.089,0.229-0.158,0.355-0.156c0.127,0.003,0.266,0.037,0.351,0.129l5.004,5.4
		C21.093,22.91,21.135,23.023,21.135,23.137z M16.093,3.504v3.404c4.835,0.336,8.698,4.422,8.7,9.312l0,0
		c-0.002,1.57-0.399,3.123-1.149,4.49c-0.071,0.128-0.198,0.216-0.343,0.236c-0.144,0.02-0.289-0.028-0.393-0.131l-2.174-2.174
		c-0.129-0.128-0.17-0.32-0.106-0.489c0.235-0.633,0.354-1.283,0.355-1.934c-0.003-2.841-2.116-5.167-4.891-5.489v3.496
		c0,0.121-0.048,0.236-0.13,0.322c-0.089,0.092-0.23,0.162-0.358,0.161c-0.127-0.001-0.266-0.036-0.354-0.13l-5.002-5.398
		c-0.165-0.179-0.165-0.454,0-0.632L15.25,3.15C15.338,3.056,15.46,3.002,15.588,3c0.128,0,0.25,0.053,0.338,0.145
		C16.009,3.231,16.093,3.385,16.093,3.504z"/>
</g>
</svg>
