<?xml version="1.0" encoding="iso-8859-1"?>
<!-- Generator: Adobe Illustrator 14.0.0, SVG Export Plug-In . SVG Version: 6.00 Build 43363)  -->
<!DOCTYPE svg PUBLIC "-//W3C//DTD SVG 1.1//EN" "http://www.w3.org/Graphics/SVG/1.1/DTD/svg11.dtd">
<svg version="1.1" id="icon-s-status-zhuyin-layer" xmlns="http://www.w3.org/2000/svg" xmlns:xlink="http://www.w3.org/1999/xlink"
	 x="0px" y="0px" width="33px" height="16px" viewBox="0 0 33 16" style="enable-background:new 0 0 33 16;" xml:space="preserve">
<g id="icon-s-status-zhuyin">
	<rect style="fill:none;" width="33" height="16"/>
	<path style="fill:#FFFFFF;" d="M3.631,6.564c0.136,0.118,0.221,0.305,0.221,0.492c0,0.136-0.051,0.271-0.153,0.408
		C3.563,7.635,3.359,7.72,3.172,7.72c-0.17,0-0.323-0.052-0.442-0.171C2.067,6.938,1.201,6.291,0.47,5.85
		C0.316,5.766,0.231,5.595,0.231,5.391c0-0.136,0.051-0.271,0.136-0.408c0.136-0.17,0.323-0.255,0.527-0.255
		c0.119,0,0.238,0.034,0.34,0.085C2.05,5.271,2.9,5.935,3.631,6.564z M3.971,10.354c0,0.086-0.017,0.171-0.051,0.256
		c-0.527,1.496-1.326,3.434-2.227,4.811c-0.136,0.203-0.34,0.306-0.561,0.306c-0.136,0-0.289-0.034-0.425-0.119
		c-0.204-0.119-0.323-0.323-0.323-0.526c0-0.119,0.034-0.256,0.119-0.375c0.85-1.273,1.683-3.076,2.176-4.555
		C2.764,9.861,2.985,9.725,3.24,9.725c0.085,0,0.17,0.018,0.255,0.052C3.801,9.878,3.971,10.1,3.971,10.354z M4.328,2.416
		c0.136,0.152,0.221,0.34,0.221,0.527c0,0.152-0.052,0.305-0.153,0.425c-0.136,0.17-0.323,0.237-0.51,0.237s-0.374-0.067-0.51-0.221
		c-0.578-0.578-1.36-1.241-2.125-1.751C1.099,1.532,1.014,1.345,1.014,1.158c0-0.137,0.051-0.289,0.153-0.408
		c0.136-0.17,0.323-0.272,0.527-0.272c0.119,0,0.255,0.034,0.374,0.12C2.798,1.057,3.665,1.77,4.328,2.416z M5.365,5.17
		c-0.306,0-0.493-0.221-0.493-0.612c0-0.374,0.187-0.612,0.493-0.612h9.638c0.289,0,0.493,0.238,0.493,0.612
		c0,0.392-0.204,0.612-0.493,0.612h-4.419v3.45h3.875c0.272,0,0.476,0.238,0.476,0.612s-0.204,0.595-0.476,0.595h-3.875v4.25h4.828
		c0.289,0,0.476,0.237,0.476,0.628c0,0.375-0.187,0.596-0.476,0.596H4.6c-0.29,0-0.477-0.221-0.477-0.596
		c0-0.391,0.187-0.628,0.477-0.628h4.658v-4.25H5.773c-0.289,0-0.476-0.221-0.476-0.595S5.484,8.62,5.773,8.62h3.485V5.17H5.365z
		 M11.467,2.161c0.221,0.171,0.34,0.356,0.34,0.561c0,0.136-0.051,0.272-0.153,0.425c-0.136,0.188-0.323,0.256-0.527,0.256
		c-0.187,0-0.357-0.052-0.493-0.154C9.785,2.637,8.697,1.939,7.83,1.48c-0.255-0.118-0.357-0.322-0.357-0.51
		c0-0.136,0.051-0.289,0.136-0.408c0.136-0.187,0.357-0.288,0.578-0.288c0.136,0,0.289,0.034,0.425,0.102
		C9.461,0.818,10.635,1.516,11.467,2.161z"/>
	<path style="fill:#FFFFFF;" d="M31.323,1.939c0.272,0,0.459,0.222,0.459,0.596c0,0.391-0.187,0.596-0.459,0.596h-2.159
		c-0.34,0.883-0.73,1.733-1.172,2.565h4.334c0.271,0,0.441,0.222,0.441,0.595c0,0.375-0.17,0.578-0.441,0.578H17.742
		c-0.272,0-0.442-0.203-0.442-0.578c0-0.356,0.17-0.595,0.442-0.595h4.13C21.6,4.812,21.26,3.963,20.869,3.131h-2.158
		c-0.272,0-0.459-0.205-0.459-0.596c0-0.357,0.187-0.596,0.459-0.596h5.574V0.818c0-0.272,0.256-0.51,0.664-0.51
		s0.697,0.237,0.697,0.51v1.121H31.323z M28.994,8.161c1.088,0,1.547,0.392,1.547,1.36v4.76c0,0.969-0.459,1.359-1.547,1.359h-7.921
		c-1.088,0-1.547-0.391-1.547-1.359v-4.76c0-0.969,0.459-1.36,1.547-1.36H28.994z M29.25,11.221V9.861
		c0-0.34-0.154-0.442-0.511-0.442h-7.411c-0.357,0-0.51,0.103-0.51,0.442v1.359H29.25z M20.818,13.924
		c0,0.34,0.152,0.441,0.51,0.441h7.411c0.356,0,0.511-0.102,0.511-0.441v-1.513h-8.432V13.924z M26.632,5.696
		c0.425-0.815,0.833-1.683,1.104-2.565h-5.473c0.391,0.814,0.73,1.699,1.02,2.565H26.632z"/>
</g>
</svg>
