<?xml version="1.0" encoding="iso-8859-1"?>
<!-- Generator: Adobe Illustrator 14.0.0, SVG Export Plug-In . SVG Version: 6.00 Build 43363)  -->
<!DOCTYPE svg PUBLIC "-//W3C//DTD SVG 1.1//EN" "http://www.w3.org/Graphics/SVG/1.1/DTD/svg11.dtd">
<svg version="1.1" id="icon-m-rtl-input-methods-menu-layer"
	 xmlns="http://www.w3.org/2000/svg" xmlns:xlink="http://www.w3.org/1999/xlink" x="0px" y="0px" width="48px" height="48px"
	 viewBox="0 0 48 48" style="enable-background:new 0 0 48 48;" xml:space="preserve">
<g id="icon-m-rtl-input-methods-menu">
	<rect style="opacity:0.35;fill:none;" width="48" height="48"/>
	<path style="fill:#333333;" d="M6.194,38.676c-2.95,0-5.35-2.4-5.35-5.351v-19c0-2.95,2.4-5,5.35-5h35.611
		c2.95,0,5.351,2.05,5.351,5v19c0,2.95-2.4,5.351-5.351,5.351H6.194L6.194,38.676z M41.806,12.026H6.194
		c-1.461,0-2.65,0.837-2.65,2.299v19c0,1.461,1.188,2.65,2.65,2.65h35.611c1.462,0,2.649-1.189,2.649-2.65v-19
		C44.455,12.863,43.268,12.026,41.806,12.026L41.806,12.026z"/>
	<polygon style="fill:#333333;" points="8,18.5 30,18.5 30,15.5 8,15.5 8,18.5 	"/>
	<polygon style="fill:#333333;" points="37,18.5 40,18.5 40,15.5 37,15.5 37,18.5 	"/>
	<polygon style="fill:#333333;" points="37,25.5 40,25.5 40,22.5 37,22.5 37,25.5 	"/>
	<polygon style="fill:#333333;" points="37,32.5 40,32.5 40,29.5 37,29.5 37,32.5 	"/>
	<polygon style="fill:#333333;" points="8,25.35 30,25.35 30,22.65 8,22.65 8,25.35 	"/>
	<polygon style="fill:#333333;" points="8,32.5 30,32.5 30,29.5 8,29.5 8,32.5 	"/>
</g>
</svg>
