<?xml version="1.0" encoding="iso-8859-1"?>
<!-- Generator: Adobe Illustrator 14.0.0, SVG Export Plug-In . SVG Version: 6.00 Build 43363)  -->
<!DOCTYPE svg PUBLIC "-//W3C//DTD SVG 1.1//EN" "http://www.w3.org/Graphics/SVG/1.1/DTD/svg11.dtd">
<svg version="1.1" id="icon-m-calendar-add-to-device-layer"
	 xmlns="http://www.w3.org/2000/svg" xmlns:xlink="http://www.w3.org/1999/xlink" x="0px" y="0px" width="48px" height="48px"
	 viewBox="0 0 48 48" style="enable-background:new 0 0 48 48;" xml:space="preserve">
<g id="icon-m-calendar-add-to-device">
	<rect style="fill:none;" width="48" height="48"/>
	<path style="fill:#333333;" d="M16.806,31.271h-3.076v-5.545h5.067c0.366-0.65,0.778-1.271,1.22-1.869v-5.131V18v-0.729v-5.545V11
		h-0.712h-5.575h-0.713h-0.712H6.729H6.017v0.727v5.545V18v0.727v5.545V25v0.727v5.545V32h0.713h5.575h0.712h0.713h2.965
		C16.729,31.756,16.762,31.514,16.806,31.271z M13.729,11.727h5.575v5.545h-5.575V11.727z M13.729,18.727h5.575v5.545h-5.575V18.727
		z M12.304,31.271H6.729v-5.545h5.575V31.271z M12.304,17.271H6.729v-5.545h5.575V17.271z"/>
	<path style="fill:#333333;" d="M17.294,39.783H3.708V7.948h18.615v13.334c0.733-0.677,1.516-1.298,2.354-1.847V8.16
		c0-0.753-0.702-4.313-0.702-4.313C23.836,3.119,23.171,2.5,22.418,2.5H3.615c-0.753,0-1.418,0.619-1.558,1.347
		c0,0-0.701,3.561-0.701,4.313v31.682c0,0.752,0.701,4.312,0.701,4.312c0.14,0.729,0.804,1.346,1.558,1.346h16.669
		C18.97,43.805,17.94,41.881,17.294,39.783z"/>
	<path style="fill:#333333;" d="M42.6,36.65h-5.881v5.951h-4.402V36.65H26.4v-4.369h5.914v-5.883h4.402v5.883H42.6V36.65z"/>
	<path style="fill:#333333;" d="M34.5,21C27.057,21,21,27.057,21,34.5S27.057,48,34.5,48C41.944,48,48,41.943,48,34.5
		S41.944,21,34.5,21z M34.5,45.686c-6.168,0-11.186-5.02-11.186-11.186c0-6.168,5.018-11.186,11.186-11.186
		S45.686,28.332,45.686,34.5C45.686,40.666,40.668,45.686,34.5,45.686z"/>
</g>
</svg>
