<?xml version="1.0" encoding="iso-8859-1"?>
<!-- Generator: Adobe Illustrator 14.0.0, SVG Export Plug-In . SVG Version: 6.00 Build 43363)  -->
<!DOCTYPE svg PUBLIC "-//W3C//DTD SVG 1.1//EN" "http://www.w3.org/Graphics/SVG/1.1/DTD/svg11.dtd">
<svg version="1.1" id="icon-s-status-number-locked-layer"
	 xmlns="http://www.w3.org/2000/svg" xmlns:xlink="http://www.w3.org/1999/xlink" x="0px" y="0px" width="26px" height="16px"
	 viewBox="0 0 26 16" style="enable-background:new 0 0 26 16;" xml:space="preserve">
<g id="icon-s-status-number-locked_1_">
	<rect style="fill:none;" width="26" height="16"/>
	<g>
		<path style="fill:#FFFFFF;" d="M7.784,12.074H1.433v-1.077H3.84V2L1.433,2.587V1.478l3.183-1.028h0.872v10.548h2.296V12.074z"/>
		<path style="fill:#FFFFFF;" d="M16.145,12.074H9.62v-0.682c0-2.756,1.679-4.149,3.057-5.321c0.966-0.824,1.775-1.536,1.775-2.55
			c0-1.331-0.777-1.965-2.044-1.965c-0.839,0-1.68,0.255-2.455,0.539V0.892c0.887-0.301,1.805-0.459,2.74-0.459
			c1.995,0,3.468,0.823,3.468,2.993c0,1.68-1.219,2.709-2.454,3.738s-2.471,2.091-2.535,3.754h4.973V12.074z"/>
		<path style="fill:#FFFFFF;" d="M20.705,1.557c-0.76,0-1.441,0.19-2.217,0.396V0.781c0.807-0.222,1.646-0.349,2.486-0.349
			c1.932,0,3.373,0.696,3.373,2.835c0,1.299-0.792,2.329-2.043,2.692c1.426,0.239,2.201,1.283,2.201,2.693
			c0,2.519-1.488,3.532-3.896,3.532c-0.822,0-1.631-0.111-2.423-0.349v-1.173c0.887,0.206,1.616,0.396,2.438,0.396
			c1.506,0,2.17-0.792,2.17-2.249c0-2.012-1.219-2.281-3.705-2.281V5.422c2.186,0,3.547-0.127,3.547-1.996
			C22.637,2.143,21.972,1.557,20.705,1.557z"/>
		<path style="fill:#FFFFFF;" d="M0.245,15.567v-1.583h25.511v1.583H0.245z"/>
	</g>
</g>
</svg>
