<?xml version="1.0" encoding="iso-8859-1"?>
<!-- Generator: Adobe Illustrator 14.0.0, SVG Export Plug-In . SVG Version: 6.00 Build 43363)  -->
<!DOCTYPE svg PUBLIC "-//W3C//DTD SVG 1.1//EN" "http://www.w3.org/Graphics/SVG/1.1/DTD/svg11.dtd">
<svg version="1.1" id="icon-m-content-audiostream-layer"
	 xmlns="http://www.w3.org/2000/svg" xmlns:xlink="http://www.w3.org/1999/xlink" x="0px" y="0px" width="48px" height="48px"
	 viewBox="0 0 48 48" style="enable-background:new 0 0 48 48;" xml:space="preserve">
<g id="icon-m-content-audiostream_2_">
	<rect style="fill:none;" width="48" height="48"/>
	<path style="fill:#333333;" d="M32.864,18.938c-1.292-0.487-2.96-0.332-4.5,0.546c-2.497,1.426-3.607,4.09-2.527,6.085
		c1.077,1.991,3.885,2.448,6.375,1.031c1.651-0.933,2.708-2.425,2.913-3.905c0.018-0.176,0.027-0.247,0.027-0.366v-2.98v-17.9
		c0-0.302-0.21-0.431-0.466-0.28l-14.129,7.99c-0.253,0.143-0.459,0.506-0.459,0.813v14.537c-1.297-0.477-2.97-0.319-4.505,0.558
		c-2.499,1.415-3.604,4.082-2.53,6.074c1.08,1.995,3.884,2.453,6.378,1.039c1.65-0.936,2.741-2.425,2.938-3.905
		c0.013-0.162,0.029-0.247,0.029-0.367V16.399c0-0.231,0.211-0.663,0.464-0.81l9.502-5.375c0.256-0.144,0.466-0.016,0.466,0.282
		v9.304"/>
	<circle style="fill:#333333;" cx="23.982" cy="41.35" r="6.643"/>
	<circle style="fill:#333333;" cx="11.158" cy="41.35" r="4.117"/>
	<circle style="fill:#333333;" cx="2.62" cy="41.35" r="2.62"/>
	<circle style="fill:#333333;" cx="36.808" cy="41.35" r="4.116"/>
	<circle style="fill:#333333;" cx="45.38" cy="41.35" r="2.62"/>
</g>
</svg>
