<?xml version="1.0" encoding="iso-8859-1"?>
<!-- Generator: Adobe Illustrator 14.0.0, SVG Export Plug-In . SVG Version: 6.00 Build 43363)  -->
<!DOCTYPE svg PUBLIC "-//W3C//DTD SVG 1.1//EN" "http://www.w3.org/Graphics/SVG/1.1/DTD/svg11.dtd">
<svg version="1.1" id="icon-l-ovi-layer" xmlns="http://www.w3.org/2000/svg" xmlns:xlink="http://www.w3.org/1999/xlink" x="0px"
	 y="0px" width="80px" height="81px" viewBox="0 0 80 81" style="enable-background:new 0 0 80 81;" xml:space="preserve">
<g id="icon-l-ovi">
	<path style="fill:#459027;" d="M22.656,59.082C13.241,59.082,10,52.61,10,44.398c0-8.113,4.396-13.812,12.752-13.812
		c8.647,0,12.609,5.748,12.609,14.003C35.361,53.237,31.353,59.082,22.656,59.082z M22.656,35.031c-4.299,0-4.637,5.215-4.637,9.221
		c0,4.107,0.192,10.387,4.637,10.387c4.446,0,4.682-5.602,4.682-10.387C27.338,40.537,26.761,35.031,22.656,35.031z M33.677,30.977
		h8.071l4.93,20.729l5.221-20.729h6.811l-7.291,23.955c-0.811,2.462-2.01,4.15-5.402,4.15c-3.391,0-4.646-1.688-5.395-4.15
		L33.677,30.977z M65.75,28.066c-2.462,0-4.25-1.256-4.25-3.573c0-2.319,1.738-3.575,4.25-3.575c2.364,0,4.25,1.307,4.25,3.575
		C70,26.811,68.215,28.066,65.75,28.066z M61.848,55.537c0,0.704,0,2.004,1.088,2.772c0.569,0.401,1.473,0.772,2.744,0.772
		c1.321,0,2.193-0.365,2.764-0.772c1.094-0.769,1.094-2.068,1.094-2.772V30.975h-7.611c0,0-0.27,0.002-0.523,0.002
		c-0.74,0-1.35,0.014-1.78,0.597c-0.203,0.267-0.476,0.757-0.476,1.621c0,0.909,0.272,1.359,0.476,1.63
		c0.431,0.582,1.04,0.585,1.78,0.585c0.254,0,0.445,0,0.445,0V55.537z"/>
	<rect style="fill:none;" width="80" height="80"/>
</g>
</svg>
