<?xml version="1.0" encoding="iso-8859-1"?>
<!-- Generator: Adobe Illustrator 14.0.0, SVG Export Plug-In . SVG Version: 6.00 Build 43363)  -->
<!DOCTYPE svg PUBLIC "-//W3C//DTD SVG 1.1//EN" "http://www.w3.org/Graphics/SVG/1.1/DTD/svg11.dtd">
<svg version="1.1" id="icon-m-messaging-smiley-skeptical-layer"
	 xmlns="http://www.w3.org/2000/svg" xmlns:xlink="http://www.w3.org/1999/xlink" x="0px" y="0px" width="48px" height="48px"
	 viewBox="0 0 48 48" style="enable-background:new 0 0 48 48;" xml:space="preserve">
<g id="icon-m-messaging-smiley-skeptical">
	<rect style="fill:none;" width="48" height="48"/>
	<path style="fill:#333333;" d="M34.282,32.223c-1.091-1.428-3.449-2.041-7.21-1.878c-5.278,0.229-11.561,1.971-11.623,1.987
		c-0.309,0.087-0.503,0.475-0.437,0.875c0.067,0.396,0.369,0.666,0.68,0.598c2.454-0.521,4.81-0.833,7.002-0.928
		c7.901-0.344,11.354,2.236,11.389,2.264c0.101,0.076,0.215,0.114,0.328,0.109c0.084-0.004,0.167-0.031,0.244-0.081
		c0.18-0.118,0.295-0.351,0.308-0.61C35.003,33.65,34.774,32.864,34.282,32.223z"/>
	<path style="fill:#333333;" d="M11.591,17.682c-0.619,0-1.122-0.5-1.125-1.119c-0.003-0.621,0.498-1.128,1.119-1.131l24.769-0.057
		c0.003,0,0.005,0,0.007,0c0.618,0,1.122,0.498,1.125,1.119s-0.497,1.127-1.118,1.131l-24.771,0.057
		C11.595,17.682,11.592,17.682,11.591,17.682L11.591,17.682z"/>
	<g>
		<circle style="fill:#333333;" cx="16.851" cy="19.875" r="2.625"/>
		<circle style="fill:#333333;" cx="31.101" cy="19.875" r="2.625"/>
	</g>
	<path style="fill:#333333;" d="M24,3c11.58,0,21,9.42,21,21s-9.42,21-21,21C12.42,45,3,35.58,3,24S12.42,3,24,3 M24,0
		C10.745,0,0,10.745,0,24s10.745,24,24,24s24-10.745,24-24S37.255,0,24,0L24,0z"/>
</g>
</svg>
