<?xml version="1.0" encoding="iso-8859-1"?>
<!-- Generator: Adobe Illustrator 14.0.0, SVG Export Plug-In . SVG Version: 6.00 Build 43363)  -->
<!DOCTYPE svg PUBLIC "-//W3C//DTD SVG 1.1//EN" "http://www.w3.org/Graphics/SVG/1.1/DTD/svg11.dtd">
<svg version="1.1" id="icon-s-common-alarm-layer" xmlns="http://www.w3.org/2000/svg" xmlns:xlink="http://www.w3.org/1999/xlink"
	 x="0px" y="0px" width="16px" height="16px" viewBox="0 0 16 16" style="enable-background:new 0 0 16 16;" xml:space="preserve">
<g id="icon-s-common-alarm">
	<rect style="fill:none;" width="16" height="16"/>
	<path style="fill:#333333;" d="M15.186,5.047c-0.44-0.451-0.908-0.556-1.492-0.779c-1.403-0.539-2.789-1.334-3.959-2.281
		C8.948,1.348,8.223,0.827,7.257,0.451C5.212-0.344,3.055-0.128,1.44,1.419L1.42,1.439C-0.126,3.055-0.345,5.21,0.452,7.256
		c0.375,0.967,0.896,1.691,1.533,2.479c0.949,1.168,1.744,2.555,2.283,3.959c0.224,0.584,0.329,1.051,0.779,1.492
		c0.306,0.301,0.321,0.319,0.623,0.624c0.203,0.201,0.604,0.272,0.807,0.068l4.691-4.69l0.02-0.021l4.691-4.688
		c0.202-0.202,0.133-0.604-0.07-0.807C15.506,5.368,15.486,5.353,15.186,5.047z"/>
	<path style="fill:#333333;" d="M10.574,14.005c0.438,0.729,1.232,1.218,2.145,1.218c1.383,0,2.504-1.121,2.504-2.503
		c0-0.913-0.49-1.708-1.217-2.146L10.574,14.005z"/>
</g>
</svg>
