<?xml version="1.0" encoding="iso-8859-1"?>
<!-- Generator: Adobe Illustrator 14.0.0, SVG Export Plug-In . SVG Version: 6.00 Build 43363)  -->
<!DOCTYPE svg PUBLIC "-//W3C//DTD SVG 1.1//EN" "http://www.w3.org/Graphics/SVG/1.1/DTD/svg11.dtd">
<svg version="1.1" id="icon-m-toolbar-alarm-layer" xmlns="http://www.w3.org/2000/svg" xmlns:xlink="http://www.w3.org/1999/xlink"
	 x="0px" y="0px" width="32px" height="32px" viewBox="0 0 32 32" style="enable-background:new 0 0 32 32;" xml:space="preserve">
<g id="icon-m-toolbar-alarm">
	<rect style="fill:none;" width="32" height="32"/>
	<path style="fill:#FFFFFF;" d="M29.697,10.62c-0.842-0.858-1.732-1.059-2.845-1.486c-2.678-1.027-5.317-2.541-7.546-4.349
		c-1.498-1.216-2.882-2.209-4.723-2.925C10.686,0.343,6.573,0.759,3.497,3.707l-0.04,0.039C0.509,6.822,0.092,10.935,1.61,14.834
		c0.716,1.84,1.71,3.225,2.925,4.723c1.808,2.229,3.321,4.868,4.349,7.545c0.428,1.114,0.628,2.003,1.486,2.846
		c0.583,0.572,0.612,0.611,1.189,1.188c0.386,0.386,1.15,0.52,1.537,0.134l8.942-8.942l0.038-0.038l8.942-8.942
		c0.386-0.386,0.253-1.15-0.134-1.536C30.309,11.232,30.271,11.203,29.697,10.62z"/>
	<path style="fill:#FFFFFF;" d="M20.906,26.548c0.834,1.388,2.352,2.32,4.089,2.32c2.636,0,4.773-2.137,4.773-4.772
		c0-1.739-0.933-3.256-2.321-4.09L20.906,26.548z"/>
</g>
</svg>
