<?xml version="1.0" encoding="iso-8859-1"?>
<!-- Generator: Adobe Illustrator 14.0.0, SVG Export Plug-In . SVG Version: 6.00 Build 43363)  -->
<!DOCTYPE svg PUBLIC "-//W3C//DTD SVG 1.1//EN" "http://www.w3.org/Graphics/SVG/1.1/DTD/svg11.dtd">
<svg version="1.1" id="icon-s-email-layer" xmlns="http://www.w3.org/2000/svg" xmlns:xlink="http://www.w3.org/1999/xlink" x="0px"
	 y="0px" width="18px" height="18px" viewBox="0 0 18 18" style="enable-background:new 0 0 18 18;" xml:space="preserve">
<g id="icon-s-email">
	<rect style="fill:none;" width="18" height="18"/>
	<path style="fill:#333333;" d="M10.313,4.006h3.186c-0.518,2.832-0.771,4.938-0.771,6.326c0,0.847,0.096,1.396,0.285,1.66
		c0.189,0.261,0.512,0.393,0.969,0.393c0.584,0,1.043-0.332,1.384-1.006c0.336-0.666,0.501-1.607,0.501-2.821
		c0-2.144-0.549-3.799-1.656-4.982c-1.11-1.181-2.681-1.771-4.709-1.771c-2.125,0-3.858,0.623-5.199,1.863
		C2.954,4.907,2.283,6.623,2.283,8.813c0,2.452,0.616,4.291,1.855,5.519c1.237,1.229,3.092,1.84,5.565,1.84
		c1.463,0,3.002-0.264,4.607-0.799v1.85c-0.581,0.213-1.352,0.396-2.29,0.551C11.072,17.924,10.246,18,9.521,18
		c-2.917,0-5.235-0.781-6.947-2.35C0.859,14.084,0,11.84,0,8.918c0-1.82,0.4-3.404,1.202-4.748C2,2.827,3.134,1.797,4.598,1.08
		C6.062,0.357,7.682,0,9.454,0c2.709,0,4.809,0.748,6.306,2.242C17.256,3.736,18,5.813,18,8.465c0,1.773-0.4,3.141-1.212,4.104
		c-0.806,0.971-1.922,1.455-3.331,1.455c-0.652,0-1.222-0.174-1.711-0.539c-0.49-0.354-0.832-0.855-1.016-1.492
		c-0.776,1.354-1.83,2.031-3.161,2.031c-0.895,0-1.654-0.354-2.275-1.061c-0.619-0.711-0.935-1.672-0.935-2.885
		c0-1.895,0.544-3.377,1.622-4.455C7.063,4.547,8.505,4.006,10.313,4.006z M10.248,8.791l0.399-3.114H9.876
		c-0.8,0-1.489,0.386-2.062,1.167C7.246,7.617,6.959,8.658,6.959,9.973c0,0.814,0.104,1.416,0.314,1.809
		c0.209,0.392,0.575,0.583,1.088,0.583C9.323,12.364,9.951,11.173,10.248,8.791z"/>
</g>
</svg>
