<?xml version="1.0" encoding="iso-8859-1"?>
<!-- Generator: Adobe Illustrator 14.0.0, SVG Export Plug-In . SVG Version: 6.00 Build 43363)  -->
<!DOCTYPE svg PUBLIC "-//W3C//DTD SVG 1.1//EN" "http://www.w3.org/Graphics/SVG/1.1/DTD/svg11.dtd">
<svg version="1.1" id="icon-m-contacts-group-unknown-layer"
	 xmlns="http://www.w3.org/2000/svg" xmlns:xlink="http://www.w3.org/1999/xlink" x="0px" y="0px" width="48px" height="48px"
	 viewBox="0 0 48 48" style="enable-background:new 0 0 48 48;" xml:space="preserve">
<g id="icon-m-contacts-group-unknown">
	<rect style="fill:none;" width="48" height="48"/>
	<path style="fill:#333333;" d="M8.084,7.044c2.552,0,4.62,2.091,4.62,4.669c0,2.575-2.07,4.667-4.62,4.667
		c-2.555,0-4.624-2.092-4.624-4.667C3.46,9.133,5.528,7.044,8.084,7.044"/>
	<path style="fill:#333333;" d="M16.165,30.982c-0.922,3.189-15.321,2.963-16.165,0v-4.664c0-9.141,15.965-9.396,16.165,0V30.982z"
		/>
	<path style="fill:#333333;" d="M23.996,0c2.556,0,4.627,2.087,4.627,4.668c0,2.574-2.071,4.669-4.627,4.669
		c-2.555,0-4.627-2.095-4.627-4.669C19.369,2.087,21.441,0,23.996,0z"/>
	<path style="fill:#333333;" d="M20.82,23.616c2.258-2.833,5.373-4.942,8.951-5.949c0.512-0.492,1.064-0.909,1.635-1.271
		c-3.074-5.568-11.804-5.33-14.826,0C19.061,18.023,20.599,19.902,20.82,23.616z"/>
	<path style="fill:#333333;" d="M34.5,21C27.044,21,21,27.044,21,34.5C21,41.955,27.044,48,34.5,48C41.955,48,48,41.955,48,34.5
		C48,27.044,41.955,21,34.5,21z M33.504,44.809c-1.597,0-2.896-1.3-2.896-2.898c0-1.61,1.3-2.921,2.896-2.921
		c1.613,0,2.926,1.311,2.926,2.921C36.429,43.509,35.117,44.809,33.504,44.809z M37.577,33.461l-0.144,0.137
		c-1.203,1.131-1.551,1.574-1.551,2.343v1.496h-5.177v-1.668c0-1.974,1.067-3.119,2.256-4.213c0.957-0.883,1.544-1.469,1.544-2.36
		c0-1.105-0.66-1.666-1.961-1.666c-0.729,0-1.792,0.171-2.916,0.47L29,28.166v-3.385l0.387-0.09c1.25-0.29,3.074-0.5,4.338-0.5
		c4.047,0,6.275,1.708,6.275,4.81C40,31.151,38.713,32.378,37.577,33.461z"/>
</g>
</svg>
