<?xml version="1.0" encoding="iso-8859-1"?>
<!-- Generator: Adobe Illustrator 14.0.0, SVG Export Plug-In . SVG Version: 6.00 Build 43363)  -->
<!DOCTYPE svg PUBLIC "-//W3C//DTD SVG 1.1//EN" "http://www.w3.org/Graphics/SVG/1.1/DTD/svg11.dtd">
<svg version="1.1" id="icon-m-toolbar-gallery-layer"
	 xmlns="http://www.w3.org/2000/svg" xmlns:xlink="http://www.w3.org/1999/xlink" x="0px" y="0px" width="32px" height="32px"
	 viewBox="0 0 32 32" style="enable-background:new 0 0 32 32;" xml:space="preserve">
<g id="icon-m-toolbar-gallery">
	<rect style="fill:none;" width="32" height="32"/>
	<path style="fill:#FFFFFF;" d="M22.304,18.427c0.325,0,0.618-0.126,0.846-0.324c0.303,0.431,0.731,0.7,1.21,0.7
		c0.477,0,0.904-0.27,1.209-0.7c0.227,0.198,0.521,0.324,0.845,0.324c0.712,0,1.287-0.579,1.287-1.292
		c0-0.717-0.575-1.295-1.287-1.295c-0.163,0-0.319,0.033-0.464,0.092c-0.207-0.916-0.841-1.584-1.59-1.584
		c-0.751,0-1.384,0.668-1.592,1.584c-0.145-0.059-0.3-0.092-0.464-0.092c-0.711,0-1.286,0.578-1.286,1.295
		C21.018,17.848,21.593,18.427,22.304,18.427z"/>
	<path style="fill:#FFFFFF;" d="M21.379,23.407c-1.918-4.433-5.788-9.619-9.379,3.843h15.5C27.5,27.25,24.572,16.341,21.379,23.407z
		"/>
	<path style="fill:#FFFFFF;" d="M8,10.75v20h23.5v-20H8z M10,28.75V12.7l19.5,0.05v16H10z"/>
	<polygon style="fill:#FFFFFF;" points="21.5,0.25 0.5,11.25 6.5,22.75 6.5,18.25 3.5,12.25 20.5,3.25 23.5,8.75 26,8.75 	"/>
</g>
</svg>
