<?xml version="1.0" encoding="iso-8859-1"?>
<!-- Generator: Adobe Illustrator 14.0.0, SVG Export Plug-In . SVG Version: 6.00 Build 43363)  -->
<!DOCTYPE svg PUBLIC "-//W3C//DTD SVG 1.1//EN" "http://www.w3.org/Graphics/SVG/1.1/DTD/svg11.dtd">
<svg version="1.1" id="icon-m-common-addressbook-layer"
	 xmlns="http://www.w3.org/2000/svg" xmlns:xlink="http://www.w3.org/1999/xlink" x="0px" y="0px" width="48px" height="48px"
	 viewBox="0 0 48 48" style="enable-background:new 0 0 48 48;" xml:space="preserve">
<g id="icon-m-common-addressbook">
	<rect style="fill:none;" width="48" height="48"/>
	<path style="fill:#333333;" d="M9.231,35.643V35.25c0-0.877-0.721-1.594-1.6-1.594H1.598C0.717,33.656,0,34.373,0,35.25v0.393
		c0,0.876,0.717,1.594,1.598,1.594h6.034C8.511,37.236,9.231,36.519,9.231,35.643z"/>
	<path style="fill:#333333;" d="M1.598,13.629h6.034c0.879,0,1.6-0.719,1.6-1.594v-0.391c0-0.876-0.721-1.594-1.6-1.594H1.598
		C0.717,10.051,0,10.769,0,11.645v0.391C0,12.91,0.717,13.629,1.598,13.629z"/>
	<path style="fill:#333333;" d="M46.5,0.787H7.557v4.947c3.365,0.379,5.979,3.176,5.979,6.574s-2.615,6.195-5.979,6.576v10.292
		c3.365,0.378,5.979,3.178,5.979,6.575c0,3.399-2.615,6.195-5.979,6.575v4.884H46.5c0.825,0,1.5-0.674,1.5-1.5v-4.828V7.119V2.287
		C48,1.461,47.325,0.787,46.5,0.787z M30.721,8.541c3.193,0,5.785,2.67,5.785,5.963c0,3.299-2.592,5.973-5.785,5.973
		c-3.203,0-5.792-2.674-5.792-5.973C24.929,11.211,27.518,8.541,30.721,8.541z M40.84,38.849H20.59v-5.655
		c0-5.848,5.332-8.957,10.131-8.957c4.787,0,10.119,3.109,10.119,8.957V38.849z"/>
</g>
</svg>
