<?xml version="1.0" encoding="iso-8859-1"?>
<!-- Generator: Adobe Illustrator 14.0.0, SVG Export Plug-In . SVG Version: 6.00 Build 43363)  -->
<!DOCTYPE svg PUBLIC "-//W3C//DTD SVG 1.1//EN" "http://www.w3.org/Graphics/SVG/1.1/DTD/svg11.dtd">
<svg version="1.1" id="icon-m-framework-back-layer"
	 xmlns="http://www.w3.org/2000/svg" xmlns:xlink="http://www.w3.org/1999/xlink" x="0px" y="0px" width="32px" height="32px"
	 viewBox="0 0 32 32" style="enable-background:new 0 0 32 32;" xml:space="preserve">
<g id="icon-m-framework-back_1_">
	<rect style="fill:none;" width="32" height="32"/>
	<path style="fill:#FFFFFF;" d="M19.131,31.5c0.836,0,4.331-0.17,7.165-2.878c2.396-2.289,3.594-4.824,3.599-9.231l0.018-0.082
		c-0.004-4.408-1.22-7-3.616-9.288c-2.834-2.71-6.329-2.741-7.165-2.741c-0.053,0-8.073,0-8.073,0V4.139
		c0-0.477,0-0.896-0.897-0.447L2.537,8.176c0,0-0.449,0.448-0.449,0.674c0,0.201,0.449,0.674,0.449,0.674l7.624,4.932
		c0.897,0.449,0.897,0.029,0.897-0.447v-3.187l8.073,0.045c0,0,2.726-0.316,4.799,1.693c1.666,1.613,2.375,3.422,2.377,6.831
		c-0.002,3.406-0.711,5.077-2.377,6.691c-2.073,2.011-4.78,1.831-4.799,1.828H8.366c-0.897,0-0.897,0.896-0.897,0.896v1.796
		c0,0,0,0.897,0.897,0.897H19.131z"/>
</g>
</svg>
