<?xml version="1.0" encoding="iso-8859-1"?>
<!-- Generator: Adobe Illustrator 14.0.0, SVG Export Plug-In . SVG Version: 6.00 Build 43363)  -->
<!DOCTYPE svg PUBLIC "-//W3C//DTD SVG 1.1//EN" "http://www.w3.org/Graphics/SVG/1.1/DTD/svg11.dtd">
<svg version="1.1" id="icon-m-music-video-dlna-server-layer"
	 xmlns="http://www.w3.org/2000/svg" xmlns:xlink="http://www.w3.org/1999/xlink" x="0px" y="0px" width="48px" height="48px"
	 viewBox="0 0 48 48" style="enable-background:new 0 0 48 48;" xml:space="preserve">
<g id="icon-m-music-video-dlna-server">
	<rect style="fill:none;" width="48" height="48"/>
	<path style="fill:#333333;" d="M33.387,35.777c-0.074,0.002-1.408-0.063-2.217,0.822c-0.039,0.04-0.071,0.066-0.101,0.097
		c-0.636,0.784-1.608,1.286-2.696,1.286c-1.922,0-3.474-1.56-3.474-3.482c0-1.924,1.552-3.482,3.474-3.482
		c1.104,0,2.091,0.518,2.721,1.322c0.026,0.023,0.047,0.042,0.076,0.07c0.686,0.756,1.768,0.778,2.109,0.814H48
		C47.356,26.366,41.59,21,34.564,21c-4.349,0-8.207,2.064-10.675,5.258h8.644c0.073-0.001,1.407,0.064,2.215-0.821
		c0.041-0.04,0.072-0.067,0.102-0.097c0.636-0.785,1.609-1.286,2.697-1.286c1.921,0,3.473,1.56,3.473,3.481
		c0,1.925-1.552,3.482-3.473,3.482c-1.105,0-2.091-0.518-2.721-1.322c-0.026-0.023-0.047-0.04-0.078-0.07
		c-0.685-0.755-1.767-0.777-2.108-0.813H22.333c-0.806,1.731-1.269,3.653-1.269,5.688s0.463,3.957,1.269,5.688h10.2
		c0.073-0.003,1.407,0.063,2.215-0.822c0.041-0.041,0.072-0.066,0.102-0.097c0.636-0.786,1.609-1.286,2.697-1.286
		c1.921,0,3.473,1.559,3.473,3.481c0,1.924-1.552,3.482-3.473,3.482c-1.105,0-2.091-0.519-2.721-1.321
		c-0.026-0.023-0.047-0.041-0.078-0.071c-0.685-0.755-1.767-0.777-2.108-0.813h-8.752c2.47,3.195,6.327,5.26,10.677,5.26
		C41.589,48,47.355,42.634,48,35.777H33.387z"/>
	<path style="fill:#333333;" d="M28.773,0.023H2.616C1.173,0.023,0,1.183,0,2.607v36.197c0,1.426,1.173,2.586,2.616,2.586h15.257
		C16.99,39.268,16.5,36.939,16.5,34.5c0-8.864,6.442-16.247,14.891-17.725V2.607C31.391,1.183,30.219,0.023,28.773,0.023z M8.5,36
		C6.566,36,5,34.434,5,32.5S6.566,29,8.5,29c1.933,0,3.5,1.566,3.5,3.5S10.433,36,8.5,36z M25.045,10
		c0,0.367-0.299,0.666-0.667,0.666H6c-0.366,0-0.668-0.299-0.668-0.666V6.285C5.332,5.92,5.634,5.62,6,5.62h18.377
		c0.368,0,0.667,0.3,0.667,0.665V10z"/>
</g>
</svg>
