<?xml version="1.0" encoding="iso-8859-1"?>
<!-- Generator: Adobe Illustrator 14.0.0, SVG Export Plug-In . SVG Version: 6.00 Build 43363)  -->
<!DOCTYPE svg PUBLIC "-//W3C//DTD SVG 1.1//EN" "http://www.w3.org/Graphics/SVG/1.1/DTD/svg11.dtd">
<svg version="1.1" id="icon-m-messaging-smiley-evil-layer"
	 xmlns="http://www.w3.org/2000/svg" xmlns:xlink="http://www.w3.org/1999/xlink" x="0px" y="0px" width="48px" height="48px"
	 viewBox="0 0 48 48" style="enable-background:new 0 0 48 48;" xml:space="preserve">
<g id="icon-m-messaging-smiley-evil_1_">
	<rect style="fill:none;" width="48" height="48"/>
	<circle style="fill:#FFCD0A;" cx="24" cy="24" r="23.5"/>
	<path style="fill:#040505;" d="M18.871,15c-0.867,0-1.741,0.271-2.485,0.835c-1.818,1.378-2.175,3.964-0.799,5.78
		c0.811,1.071,2.045,1.636,3.292,1.636c0.867,0,1.741-0.272,2.485-0.835c1.816-1.379,2.175-3.964,0.8-5.78
		C21.352,15.563,20.118,15,18.871,15L18.871,15z"/>
	<path style="fill:#FFFFFF;" d="M18.871,16.333c0.884,0,1.696,0.404,2.23,1.106c0.927,1.229,0.684,2.983-0.54,3.913
		c-0.49,0.368-1.07,0.564-1.683,0.564c-0.884,0-1.696-0.403-2.229-1.106c-0.45-0.594-0.642-1.328-0.54-2.067
		c0.102-0.74,0.485-1.394,1.081-1.844C17.679,16.529,18.261,16.333,18.871,16.333"/>
	<path style="fill:#040505;" d="M13.612,13.049c-0.511-0.35-0.641-1.045-0.292-1.559c0.349-0.513,1.05-0.644,1.562-0.297
		l8.672,5.901c0,0,0.003,0.003,0.005,0.003c0.51,0.352,0.641,1.053,0.292,1.561c-0.349,0.514-1.05,0.646-1.562,0.299l-8.672-5.902
		C13.616,13.053,13.613,13.049,13.612,13.049L13.612,13.049z"/>
	<path style="fill:#040505;" d="M28.871,15c-0.867,0-1.741,0.271-2.485,0.835c-1.818,1.378-2.175,3.964-0.799,5.78
		c0.811,1.071,2.045,1.636,3.292,1.636c0.867,0,1.741-0.272,2.485-0.835c1.816-1.379,2.175-3.964,0.8-5.78
		C31.352,15.563,30.118,15,28.871,15L28.871,15z"/>
	<path style="fill:#FFFFFF;" d="M28.871,16.333c0.884,0,1.696,0.404,2.23,1.106c0.927,1.229,0.684,2.983-0.54,3.913
		c-0.49,0.368-1.07,0.564-1.683,0.564c-0.884,0-1.696-0.403-2.229-1.106c-0.45-0.594-0.642-1.328-0.54-2.067
		c0.102-0.74,0.485-1.394,1.081-1.844C27.679,16.529,28.261,16.333,28.871,16.333"/>
	<path style="fill:#040505;" d="M34.388,12.898c0.511-0.35,0.641-1.046,0.292-1.559s-1.05-0.644-1.562-0.297l-8.672,5.9
		c-0.001,0.002-0.003,0.004-0.005,0.004c-0.51,0.352-0.641,1.051-0.292,1.561c0.349,0.514,1.05,0.646,1.562,0.299l8.672-5.902
		C34.384,12.9,34.387,12.898,34.388,12.898L34.388,12.898z"/>
	<path style="fill:#333333;" d="M25.859,31.949"/>
	<path style="fill:#040505;" d="M24.25,31.077c-7.744,0-14.178-4.944-15.497-12.31C8.589,19.674,8.5,20.607,8.5,21.561
		C8.5,30.261,15.551,36,24.25,36S40,30.261,40,21.561c0-0.953-0.09-1.887-0.252-2.793C38.43,26.133,31.995,31.077,24.25,31.077z"/>
</g>
</svg>
