<?xml version="1.0" encoding="iso-8859-1"?>
<!-- Generator: Adobe Illustrator 14.0.0, SVG Export Plug-In . SVG Version: 6.00 Build 43363)  -->
<!DOCTYPE svg PUBLIC "-//W3C//DTD SVG 1.1//EN" "http://www.w3.org/Graphics/SVG/1.1/DTD/svg11.dtd">
<svg version="1.1" id="icon-m-clock-city-create-layer"
	 xmlns="http://www.w3.org/2000/svg" xmlns:xlink="http://www.w3.org/1999/xlink" x="0px" y="0px" width="48px" height="48px"
	 viewBox="0 0 48 48" style="enable-background:new 0 0 48 48;" xml:space="preserve">
<g id="icon-m-clock-city-create">
	<rect style="fill:none;" width="48" height="48"/>
	<path style="fill:#333333;" d="M26.326,38.164V2.832H15.241v35.332h-4.157v-9.006H2.771v-2.84l8.314-0.006v-3.389H2.771v-2.842
		l8.314,0.07v-6.236L0,3.525v34.639v7.552l47.952,0.026L48,25.719c0-0.762-0.623-1.385-1.385-1.385h-1.194v-7.74h-1.299
		c-0.236-2.455-1.866-5.104-3.962-5.672L39.517,2.23h-0.353l-0.644,8.691c-2.096,0.568-3.726,3.217-3.962,5.672H33.26v7.74h-1.193
		c-0.762,0-1.386,0.623-1.386,1.385c0,0-0.021,12.402-0.015,12.459L26.326,38.164z M23.555,38.164h-2.078V7.613l2.078,0.069V38.164z
		 M41.668,30.564h-4.784v-4.275c0.066-1.851,1.11-3.322,2.393-3.322s2.325,1.472,2.392,3.322V30.564z"/>
</g>
</svg>
