<?xml version="1.0" encoding="iso-8859-1"?>
<!-- Generator: Adobe Illustrator 14.0.0, SVG Export Plug-In . SVG Version: 6.00 Build 43363)  -->
<!DOCTYPE svg PUBLIC "-//W3C//DTD SVG 1.1//EN" "http://www.w3.org/Graphics/SVG/1.1/DTD/svg11.dtd">
<svg version="1.1" id="icon-s-status-call-initiating1-layer"
	 xmlns="http://www.w3.org/2000/svg" xmlns:xlink="http://www.w3.org/1999/xlink" x="0px" y="0px" width="18px" height="18px"
	 viewBox="0 0 18 18" style="enable-background:new 0 0 18 18;" xml:space="preserve">
<g id="icon-s-status-call-initiating1">
	<rect style="fill:none;" width="18" height="18"/>
	<path style="fill:#FFFFFF;" d="M12.525,1.5c-0.354,0-0.689,0.061-0.987,0.199c-2.856,1.344-8.529,6.329-9.879,9.863
		c-0.591,1.549,0.619,3.996,1.572,4.755c0,0.003,0.215,0.183,0.467,0.183c0.129,0,0.268-0.047,0.392-0.188l2.572-3.462
		c0.175-0.225,0.348-0.52-0.007-0.871c0,0-1.781-1.281-1.266-2.1c0.36-0.566,3.899-4.1,4.465-4.459
		c0.104-0.064,0.216-0.094,0.331-0.094c0.796,0,1.775,1.354,1.775,1.354c0.151,0.15,0.29,0.206,0.418,0.206
		c0.173,0,0.324-0.101,0.454-0.2l3.475-2.57c0.418-0.371,0.007-0.858,0.004-0.858C15.698,2.498,13.965,1.5,12.525,1.5L12.525,1.5z"
		/>
</g>
</svg>
