<?xml version="1.0" encoding="iso-8859-1"?>
<!-- Generator: Adobe Illustrator 14.0.0, SVG Export Plug-In . SVG Version: 6.00 Build 43363)  -->
<!DOCTYPE svg PUBLIC "-//W3C//DTD SVG 1.1//EN" "http://www.w3.org/Graphics/SVG/1.1/DTD/svg11.dtd">
<svg version="1.1" id="icon-m-common-map-layer" xmlns="http://www.w3.org/2000/svg" xmlns:xlink="http://www.w3.org/1999/xlink"
	 x="0px" y="0px" width="48px" height="48px" viewBox="0 0 48 48" style="enable-background:new 0 0 48 48;" xml:space="preserve">
<g id="icon-m-common-map">
	<rect x="0.005" style="fill:none;" width="47.99" height="48"/>
	<path style="fill:#333333;" d="M0,7.622v8.343v24.413h47.988L48,7.622H0z M45.454,9.715l-15.345,7.754l-8.393-7.754H45.454z
		 M19.575,9.715l9.099,8.441L17,24.622l-15-15L19.575,9.715z M2,17.622l10,10l-10,5V17.622z M16,31.622l7,7H2l0,0L16,31.622z
		 M21,28.622l12-6l7,7l-11,7L21,28.622z M46,38.622H31l11-7l4,4V38.622z M46,32.622l-4-4l4-3V32.622z M40,26.622l-5-5l11-6v7"/>
</g>
</svg>
