<?xml version="1.0" encoding="iso-8859-1"?>
<!-- Generator: Adobe Illustrator 14.0.0, SVG Export Plug-In . SVG Version: 6.00 Build 43363)  -->
<!DOCTYPE svg PUBLIC "-//W3C//DTD SVG 1.1//EN" "http://www.w3.org/Graphics/SVG/1.1/DTD/svg11.dtd">
<svg version="1.1" id="icon-s-status-normal-layer" xmlns="http://www.w3.org/2000/svg" xmlns:xlink="http://www.w3.org/1999/xlink"
	 x="0px" y="0px" width="18px" height="18px" viewBox="0 0 18 18" style="enable-background:new 0 0 18 18;" xml:space="preserve">
<g id="icon-s-status-normal">
	<rect style="fill:none;" width="18" height="18"/>
	<path style="fill:#FFFFFF;" d="M9.221,3H8.996c-0.052,0-0.128,0.029-0.17,0.064L4.92,6.391H0.324v5.187h4.557l3.954,3.36
		C8.876,14.974,8.953,15,9.006,15H9.23c0.051,0,0.094-0.051,0.094-0.113L9.316,3.114C9.316,3.051,9.271,3,9.221,3z"/>
	<path style="fill:#FFFFFF;" d="M15.449,2.953c-0.2-0.152-0.485-0.107-0.64,0.095c-0.151,0.204-0.106,0.495,0.099,0.649
		c1.301,0.985,2.112,2.93,2.112,5.074c0,2.143-0.812,4.092-2.112,5.075c-0.205,0.151-0.249,0.438-0.099,0.645
		c0.153,0.204,0.439,0.247,0.64,0.097c1.53-1.16,2.482-3.387,2.482-5.815C17.932,6.339,16.979,4.113,15.449,2.953z"/>
	<path style="fill:#FFFFFF;" d="M13.445,6.279c0,0-0.011-0.033-0.019-0.05c-0.097-0.227-0.324-0.642-0.324-0.642
		c-0.247-0.426-0.496-0.752-0.87-1.104c-0.133-0.129-0.281-0.24-0.425-0.35c-0.03-0.023-0.064-0.04-0.101-0.054
		c-0.196-0.106-0.447-0.054-0.588,0.138c-0.123,0.168-0.117,0.395-0.001,0.561c0.031,0.057,0.094,0.117,0.128,0.149
		c0.216,0.198,0.445,0.391,0.644,0.627c0.072,0.089,0.143,0.182,0.212,0.278c0.511,0.789,0.817,1.844,0.817,2.975
		c0,1.116-0.291,2.162-0.794,2.952c-0.257,0.355-0.55,0.644-0.868,0.914c-0.2,0.171-0.254,0.46-0.101,0.671
		c0.156,0.211,0.442,0.266,0.662,0.123c0.15-0.1,0.291-0.198,0.423-0.326c0.416-0.35,0.743-0.867,1.022-1.396h-0.007
		c0.431-0.844,0.675-1.863,0.675-2.938C13.932,7.903,13.758,7.035,13.445,6.279z"/>
</g>
</svg>
