<?xml version="1.0" encoding="iso-8859-1"?>
<!-- Generator: Adobe Illustrator 14.0.0, SVG Export Plug-In . SVG Version: 6.00 Build 43363)  -->
<!DOCTYPE svg PUBLIC "-//W3C//DTD SVG 1.1//EN" "http://www.w3.org/Graphics/SVG/1.1/DTD/svg11.dtd">
<svg version="1.1" id="icon-m-telephony-addressbook-layer"
	 xmlns="http://www.w3.org/2000/svg" xmlns:xlink="http://www.w3.org/1999/xlink" x="0px" y="0px" width="48px" height="48px"
	 viewBox="0 0 48 48" style="enable-background:new 0 0 48 48;" xml:space="preserve">
<g id="icon-m-telephony-addressbook">
	<rect style="fill:none;" width="48" height="48"/>
	<path style="fill:#333333;" d="M9.231,35.643V35.25c0-0.877-0.722-1.594-1.601-1.594H1.599C0.717,33.656,0,34.373,0,35.25v0.393
		c0,0.877,0.717,1.594,1.599,1.594h6.033C8.512,37.236,9.231,36.52,9.231,35.643z"/>
	<path style="fill:#333333;" d="M1.599,13.629h6.033c0.88,0,1.601-0.719,1.601-1.594v-0.392c0-0.875-0.721-1.594-1.601-1.594H1.599
		C0.717,10.051,0,10.77,0,11.645v0.392C0,12.91,0.717,13.629,1.599,13.629z"/>
	<path style="fill:#333333;" d="M46.5,0.787H7.558v4.947c3.364,0.379,5.979,3.176,5.979,6.574c0,3.397-2.615,6.194-5.979,6.576
		v10.291c3.364,0.379,5.979,3.178,5.979,6.575c0,3.399-2.615,6.194-5.979,6.575v4.884H46.5c0.825,0,1.5-0.674,1.5-1.5v-4.828V7.119
		V2.288C48,1.462,47.325,0.787,46.5,0.787z M30.722,8.541c3.192,0,5.784,2.67,5.784,5.963c0,3.299-2.592,5.974-5.784,5.974
		c-3.203,0-5.792-2.675-5.792-5.974C24.93,11.211,27.519,8.541,30.722,8.541z M40.84,38.85H20.59v-5.656
		c0-5.848,5.332-8.957,10.132-8.957c4.786,0,10.118,3.109,10.118,8.957V38.85z"/>
</g>
</svg>
