<?xml version="1.0" encoding="iso-8859-1"?>
<!-- Generator: Adobe Illustrator 14.0.0, SVG Export Plug-In . SVG Version: 6.00 Build 43363)  -->
<!DOCTYPE svg PUBLIC "-//W3C//DTD SVG 1.1//EN" "http://www.w3.org/Graphics/SVG/1.1/DTD/svg11.dtd">
<svg version="1.1" id="icon-m-content-recently-played-layer"
	 xmlns="http://www.w3.org/2000/svg" xmlns:xlink="http://www.w3.org/1999/xlink" x="0px" y="0px" width="48px" height="48px"
	 viewBox="0 0 48 48" style="enable-background:new 0 0 48 48;" xml:space="preserve">
<g id="icon-m-content-recently-played">
	<rect style="fill:none;" width="48" height="48"/>
	<path style="fill:#333333;" d="M18.864,17.231c-0.223,1.042-1.124,1.784-2.194,1.784c-1.24,0-2.25-1.01-2.25-2.248
		c0-0.189,0.025-0.377,0.074-0.561l-4.94-6.221l2.105-1.686l4.941,6.22c0.39-0.017,0.77,0.074,1.124,0.266l4.648-2.164l1.135,2.45
		L18.864,17.231z"/>
	<path style="fill:#333333;" d="M19.209,31.479c-0.802,0.135-1.62,0.221-2.459,0.221c-8.243,0-14.949-6.706-14.949-14.949
		c0-8.242,6.706-14.948,14.949-14.948c8.242,0,14.948,6.706,14.948,14.948c0,1.08-0.122,2.133-0.341,3.148l1.623,0.926
		c0.326-1.307,0.52-2.666,0.52-4.074C33.5,7.5,26,0,16.75,0C7.499,0,0,7.5,0,16.75S7.499,33.5,16.75,33.5
		c0.838,0,1.655-0.082,2.459-0.201V31.479z"/>
	<path style="fill:#333333;" d="M23.29,19.446c-0.343,0-0.58,0.272-0.58,0.741v26.321c0,0.469,0.237,0.741,0.58,0.741
		c0.138,0,0.293-0.044,0.458-0.138L46.82,33.941c0.572-0.325,0.572-0.859,0-1.186L23.748,19.584
		C23.583,19.49,23.428,19.446,23.29,19.446L23.29,19.446z"/>
</g>
</svg>
