<?xml version="1.0" encoding="iso-8859-1"?>
<!-- Generator: Adobe Illustrator 14.0.0, SVG Export Plug-In . SVG Version: 6.00 Build 43363)  -->
<!DOCTYPE svg PUBLIC "-//W3C//DTD SVG 1.1//EN" "http://www.w3.org/Graphics/SVG/1.1/DTD/svg11.dtd">
<svg version="1.1" id="icon-l-default-application-layer"
	 xmlns="http://www.w3.org/2000/svg" xmlns:xlink="http://www.w3.org/1999/xlink" x="0px" y="0px" width="80px" height="81px"
	 viewBox="0 0 80 81" style="enable-background:new 0 0 80 81;" xml:space="preserve">
<g id="icon-l-default-application">
	<rect style="fill:none;" width="80" height="80"/>
	<g>
		<path style="fill:#63C0CF;" d="M37.511,18.102c0-0.037,0.002-0.083,0.002-0.133c-0.01-0.457-0.036-1.533-0.761-2.73
			c-0.615-1.076-1.983-2.021-3.705-2.203c-0.032-0.006-0.065-0.004-0.097-0.006c-0.204-0.018-0.414-0.033-0.627-0.027h-6.08v0.004
			h-5.994c-2.091-0.055-3.781,1.014-4.484,2.246c-0.729,1.204-0.752,2.281-0.765,2.726c0,0.054,0.001,0.099,0.001,0.136
			l0.036,12.227c-0.002,0.038-0.002,0.085-0.002,0.135c0.009,0.457,0.035,1.534,0.76,2.729c0.7,1.223,2.372,2.279,4.43,2.239h12.047
			c0.049,0,0.099,0.002,0.147,0.002c0.168,0,0.329-0.02,0.49-0.03c0.062-0.006,0.125-0.006,0.187-0.016
			c0.11-0.014,0.216-0.035,0.323-0.055c1.56-0.267,2.792-1.152,3.364-2.154c0.729-1.202,0.756-2.281,0.765-2.727
			c-0.001-0.053-0.002-0.096-0.002-0.131L37.511,18.102z"/>
		<path style="fill:#63C0CF;" d="M42.722,35.442c0,0.036-0.002,0.076-0.002,0.121c0.01,0.425,0.029,1.489,0.729,2.692
			c0.66,1.215,2.301,2.32,4.341,2.293h0.005h12.154c0.051,0.001,0.101,0.004,0.15,0.004c2.024,0,3.652-1.055,4.339-2.256
			c0.729-1.207,0.752-2.288,0.763-2.727c0-0.077-0.004-0.128-0.004-0.15l-0.033-12.262c-0.005-0.043-0.003-0.087-0.009-0.165
			c-0.013-0.401-0.086-1.308-0.616-2.36c-0.57-1.248-2.242-2.604-4.416-2.535c-0.051,0-0.119,0-0.205,0.004H47.933
			c-2.09-0.057-3.777,1.016-4.483,2.244c-0.729,1.205-0.754,2.287-0.765,2.731c0,0.054,0.002,0.101,0.004,0.138L42.722,35.442z
			 M46.582,23.075c0,0,0-0.004,0-0.021c0-0.107,0.053-0.484,0.175-0.652c0.16-0.157,0.121-0.354,1.176-0.406h12.105l0.07-0.006
			h0.014c0.866,0.066,0.74,0.175,0.959,0.437c0.073,0.14,0.133,0.339,0.157,0.495c0.027,0.155,0.027,0.244,0.027,0.244l0.035,12.328
			c0,0.062,0,0.074,0,0.074c0.013,0.051-0.041,0.487-0.175,0.671c-0.161,0.159-0.121,0.358-1.18,0.411h-12.03c0,0-0.015,0-0.02,0
			c-0.021,0-0.028,0-0.028,0c-0.985-0.056-0.906-0.221-1.074-0.392c-0.117-0.169-0.173-0.527-0.18-0.654l0.004-0.041l-0.036-12.479
			V23.075z"/>
		<path style="fill:#63C0CF;" d="M65.165,50.537c-0.012-0.426-0.031-1.488-0.721-2.693c-0.652-1.227-2.326-2.359-4.39-2.3
			c-0.022,0-0.063,0-0.125,0.003H47.935c-2.09-0.057-3.781,1.012-4.482,2.247c-0.732,1.204-0.755,2.288-0.768,2.732
			c0,0.054,0.002,0.099,0.004,0.138l0.033,12.234c-0.002,0.04-0.002,0.088-0.002,0.143c0.01,0.465,0.036,1.535,0.751,2.728
			c0.686,1.218,2.351,2.284,4.392,2.229h12.086c0.051,0,0.104,0.002,0.156,0.002c2.023,0,3.65-1.053,4.337-2.257
			c0.725-1.208,0.748-2.286,0.759-2.726c0-0.079,0-0.133,0-0.149L65.163,50.67C65.163,50.644,65.165,50.598,65.165,50.537z
			 M61.125,63.693c-0.159,0.16-0.12,0.356-1.177,0.408v0.002H47.931c-0.036,0-0.06,0-0.068,0c-0.988-0.055-0.917-0.223-1.076-0.373
			c-0.113-0.157-0.168-0.528-0.174-0.652c0.002-0.02,0.002-0.033,0.002-0.033l0.002-0.029l-0.032-12.479l-0.004-0.049
			c0.006-0.123,0.06-0.475,0.18-0.638c0.157-0.159,0.12-0.354,1.175-0.408h12.112h0.018c0.942,0.056,0.856,0.208,1.023,0.379
			c0.138,0.201,0.189,0.661,0.179,0.716v0.007l-0.003,0.036l0.037,12.361c0.003,0.063,0.003,0.076,0.003,0.076
			C61.313,63.066,61.262,63.506,61.125,63.693z"/>
		<path style="fill:#63C0CF;" d="M32.284,45.547H20.251c-2.094-0.057-3.783,1.02-4.484,2.252c-0.729,1.207-0.754,2.285-0.766,2.729
			c0,0.049,0.002,0.093,0.004,0.128l0.034,12.215c-0.002,0.045-0.004,0.106-0.004,0.182c0.012,0.476,0.04,1.553,0.769,2.746
			c0.677,1.168,2.243,2.172,4.175,2.199h0.005h12.283c0.05,0,0.102,0,0.152,0c1.967,0,3.573-0.994,4.27-2.182
			c0.736-1.188,0.772-2.272,0.781-2.758c0-0.061-0.002-0.11-0.002-0.148l0.01-12.231c0.004-0.054,0.006-0.121,0.006-0.208
			c-0.009-0.504-0.051-1.586-0.795-2.76c-0.725-1.2-2.4-2.188-4.414-2.164 M33.573,63.061c0,0-0.047,0.502-0.172,0.665
			c-0.145,0.138-0.099,0.325-1.135,0.379H20.322c-0.046-0.003-0.079-0.003-0.098-0.003c-0.008,0-0.014,0-0.014,0
			c-1.017-0.052-0.96-0.234-1.107-0.374c-0.116-0.156-0.176-0.534-0.175-0.652c0.002-0.022,0.002-0.022,0.002-0.022l0.002-0.041
			l-0.031-12.461l-0.004-0.047c0.002-0.114,0.057-0.483,0.18-0.651c0.159-0.161,0.119-0.356,1.174-0.409H32.26
			c1.043,0.059,1.025,0.26,1.162,0.387c0.116,0.156,0.167,0.643,0.167,0.643L33.573,63.061z"/>
	</g>
</g>
</svg>
