<?xml version="1.0" encoding="iso-8859-1"?>
<!-- Generator: Adobe Illustrator 14.0.0, SVG Export Plug-In . SVG Version: 6.00 Build 43363)  -->
<!DOCTYPE svg PUBLIC "-//W3C//DTD SVG 1.1//EN" "http://www.w3.org/Graphics/SVG/1.1/DTD/svg11.dtd">
<svg version="1.1" id="icon-m-camera-scene-landscape-selected-layer"
	 xmlns="http://www.w3.org/2000/svg" xmlns:xlink="http://www.w3.org/1999/xlink" x="0px" y="0px" width="48px" height="48px"
	 viewBox="0 0 48 48" style="enable-background:new 0 0 48 48;" xml:space="preserve">
<g id="icon-m-camera-scene-landscape-selected">
	<rect style="fill:none;" width="48" height="48"/>
	<path style="fill:#63AF45;" d="M30.897,15.488c0.987,0,1.877-0.38,2.563-0.986c0.918,1.308,2.218,2.131,3.664,2.131
		c1.445,0,2.746-0.823,3.666-2.131c0.685,0.606,1.574,0.986,2.561,0.986c2.155,0,3.898-1.754,3.898-3.919
		c0-2.164-1.743-3.919-3.898-3.919c-0.498,0-0.97,0.104-1.407,0.274c-0.627-2.772-2.546-4.792-4.819-4.792
		c-2.272,0-4.192,2.02-4.819,4.792c-0.437-0.171-0.91-0.274-1.408-0.274C28.746,7.65,27,9.405,27,11.569
		C27,13.734,28.746,15.488,30.897,15.488z"/>
	<path style="fill:#63AF45;" d="M28.5,30.75C22.692,17.318,11.63,0.453,0.75,41.25h46.5C47.25,41.25,38.178,9.335,28.5,30.75z"/>
</g>
</svg>
