<?xml version="1.0" encoding="iso-8859-1"?>
<!-- Generator: Adobe Illustrator 14.0.0, SVG Export Plug-In . SVG Version: 6.00 Build 43363)  -->
<!DOCTYPE svg PUBLIC "-//W3C//DTD SVG 1.1//EN" "http://www.w3.org/Graphics/SVG/1.1/DTD/svg11.dtd">
<svg version="1.1" id="icon-m-settings-description-layer"
	 xmlns="http://www.w3.org/2000/svg" xmlns:xlink="http://www.w3.org/1999/xlink" x="0px" y="0px" width="64px" height="64px"
	 viewBox="0 0 64 64" style="enable-background:new 0 0 64 64;" xml:space="preserve">
<g id="icon-m-settings-description_1_">
	<rect style="opacity:0;fill:#FFFFFF;" width="64" height="64"/>
	<path style="fill:#FFFFFF;" d="M31.998,0C14.329,0,0,14.323,0,31.997C0,49.67,14.329,64,31.998,64C49.676,64,64,49.67,64,31.997
		C64,14.323,49.676,0,31.998,0z M34.396,10.121c2.994,0,5.422,2.385,5.422,5.325c0,2.943-2.428,5.328-5.422,5.328
		c-2.996,0-5.422-2.385-5.422-5.328C28.974,12.506,31.401,10.121,34.396,10.121z M39.818,49.391c0,0-3.875,4.775-9.424,4
		c-2.385-0.223-4.361-1.158-5.303-2.463c-1.082-1.227-2.392-4.332,0.43-11.596c0,0,1.256-2.717,1.699-3.766
		c-0.005-0.004-0.008-0.004-0.013-0.004c0.221-0.518,0.341-1.086,0.341-1.684c0-2.386-1.938-4.32-4.328-4.32
		c-0.09,0-0.18,0.002-0.269,0.008c1.058-1.735,3.364-3.286,6.266-3.996c4.437-1.088,8.584,0.203,9.265,2.879
		c0.158,0.629,0.108,1.279-0.111,1.919c-0.594,2.247-2.74,8.326-2.74,8.326L35.6,38.754c-0.439,1.208-2.445,6.896-1.979,8.883
		c0.016,0.117,0.059,0.23,0.123,0.34c0.033,0.062,0.074,0.117,0.117,0.164c0.531,0.627,1.846,1.072,3.385,1.072
		c1.4,0,2.615-0.371,3.221-0.908C40.568,48.479,40.467,48.801,39.818,49.391z"/>
</g>
</svg>
