<?xml version="1.0" encoding="iso-8859-1"?>
<!-- Generator: Adobe Illustrator 14.0.0, SVG Export Plug-In . SVG Version: 6.00 Build 43363)  -->
<!DOCTYPE svg PUBLIC "-//W3C//DTD SVG 1.1//EN" "http://www.w3.org/Graphics/SVG/1.1/DTD/svg11.dtd">
<svg version="1.1" id="icon-m-telephony-call-missed-layer"
	 xmlns="http://www.w3.org/2000/svg" xmlns:xlink="http://www.w3.org/1999/xlink" x="0px" y="0px" width="48px" height="48px"
	 viewBox="0 0 48 48" style="enable-background:new 0 0 48 48;" xml:space="preserve">
<g id="icon-m-telephony-call-missed_2_">
	<rect style="fill:none;" width="48" height="48"/>
	<path style="fill:#333333;" d="M28.658,31.188"/>
	<path style="fill:#333333;" d="M46.563,19.457h-6.61c-0.79,0-1.438,0.647-1.438,1.437v1.03c-0.014,5.92-4.252,11.805-9.48,11.805
		c-5.2,0-9.415-5.831-9.477-11.705l0.002-2.566h9.189c0.791,0,0.98-0.457,0.422-1.015L15.763,5.033c-0.56-0.559-1.473-0.559-2.031,0
		L0.321,18.442c-0.559,0.558-0.37,1.015,0.421,1.015h9.313v2.566c0.062,11.813,8.543,21.361,18.98,21.361
		c10.229,0,18.563-9.18,18.946-20.666C47.989,22.659,48,22.6,48,22.536v-1.643C48,20.104,47.354,19.457,46.563,19.457z"/>
</g>
</svg>
