<?xml version="1.0" encoding="iso-8859-1"?>
<!-- Generator: Adobe Illustrator 14.0.0, SVG Export Plug-In . SVG Version: 6.00 Build 43363)  -->
<!DOCTYPE svg PUBLIC "-//W3C//DTD SVG 1.1//EN" "http://www.w3.org/Graphics/SVG/1.1/DTD/svg11.dtd">
<svg version="1.1" id="icon-m-toolbar-forward-layer"
	 xmlns="http://www.w3.org/2000/svg" xmlns:xlink="http://www.w3.org/1999/xlink" x="0px" y="0px" width="32px" height="32px"
	 viewBox="0 0 32 32" style="enable-background:new 0 0 32 32;" xml:space="preserve">
<g id="icon-m-toolbar-forward">
	<rect style="fill:none;" width="32" height="32"/>
	<path style="fill:#FFFFFF;" d="M16,1.6C8.047,1.6,1.6,8.049,1.6,16c0,7.953,6.447,14.4,14.4,14.4c7.954,0,14.4-6.447,14.4-14.4
		C30.4,8.049,23.954,1.6,16,1.6z M24.623,16.402l-6.633,6.863c-0.458,0.414-0.885-0.038-0.885-0.396v-4.141H7.731
		c-0.254,0-0.533-0.199-0.531-0.529v-5.117c0-0.303,0.236-0.537,0.531-0.533l9.374-0.004V9.11c0-0.401,0.499-0.747,0.885-0.396
		l6.636,6.898C24.859,15.824,24.859,16.189,24.623,16.402z"/>
</g>
</svg>
