<?xml version="1.0" encoding="iso-8859-1"?>
<!-- Generator: Adobe Illustrator 14.0.0, SVG Export Plug-In . SVG Version: 6.00 Build 43363)  -->
<!DOCTYPE svg PUBLIC "-//W3C//DTD SVG 1.1//EN" "http://www.w3.org/Graphics/SVG/1.1/DTD/svg11.dtd">
<svg version="1.1" id="icon-m-camera-flash-red-eye-screen-layer"
	 xmlns="http://www.w3.org/2000/svg" xmlns:xlink="http://www.w3.org/1999/xlink" x="0px" y="0px" width="32px" height="32px"
	 viewBox="0 0 32 32" style="enable-background:new 0 0 32 32;" xml:space="preserve">
<g id="icon-m-camera-flash-red-eye-screen">
	<rect style="fill:none;" width="32" height="32"/>
	<path style="fill:#FFFFFF;" d="M28.475,8.996l0.013-0.032l-0.145-0.217h-0.026c-0.056-0.058-0.141-0.146-0.234-0.247
		c-0.264-0.282-6.571-6.942-13.587-6.942c-7.018,0-13.324,6.66-13.59,6.944c-0.165,0.176-0.303,0.32-0.303,0.32L0.489,8.937
		l0.043,0.104v0.071l0.068,0.07c0,0.001,0.141,0.144,0.304,0.317c0.266,0.285,6.572,6.945,13.59,6.945
		c7.016,0,13.323-6.66,13.587-6.943l0.235-0.248h0.03l0.142-0.225L28.475,8.996z M4.609,8.914C4.657,8.861,9.417,3.84,14.495,3.84
		c5.078,0,9.835,5.021,9.883,5.074L24.461,9c-0.025,0.028-0.053,0.059-0.082,0.088c-0.049,0.051-4.803,5.075-9.884,5.075
		c-5.079,0-9.838-5.024-9.885-5.072L4.527,9C4.553,8.974,4.581,8.943,4.609,8.914z"/>
	<path style="fill:#FFFFFF;" d="M14.995,5.184v4.824h-4.223c0.444,1.638,1.94,2.847,3.723,2.847c2.129,0,3.857-1.725,3.857-3.853
		C18.353,7.043,16.888,5.43,14.995,5.184z"/>
	<path style="fill:#FFFFFF;" d="M27.545,18h-3.131l-4.028,13.498h2.273l0.896-3.095h4.516l0.896,3.095H31.5L27.545,18z
		 M23.988,26.693l1.844-6.67l1.827,6.699L23.988,26.693z"/>
</g>
</svg>
