<?xml version="1.0" encoding="iso-8859-1"?>
<!-- Generator: Adobe Illustrator 14.0.0, SVG Export Plug-In . SVG Version: 6.00 Build 43363)  -->
<!DOCTYPE svg PUBLIC "-//W3C//DTD SVG 1.1//EN" "http://www.w3.org/Graphics/SVG/1.1/DTD/svg11.dtd">
<svg version="1.1" id="icon-m-common-combobox-arrow-layer"
	 xmlns="http://www.w3.org/2000/svg" xmlns:xlink="http://www.w3.org/1999/xlink" x="0px" y="0px" width="48px" height="48px"
	 viewBox="0 0 48 48" style="enable-background:new 0 0 48 48;" xml:space="preserve">
<g id="icon-m-common-combobox-arrow">
	<rect id="_x34_8_3_" x="8" y="8" style="fill:none;" width="32" height="32"/>
	<rect id="_x33_2_5_" style="fill:none;" width="48" height="48"/>
	<g>
		<g>
			<path style="fill:#191919;" d="M31.435,26.565C31.745,26.255,31.64,26,31.2,26H16.8c-0.44,0-0.545,0.255-0.234,0.565l6.868,6.869
				c0.312,0.311,0.82,0.311,1.132,0L31.435,26.565z"/>
		</g>
		<g>
			<path style="fill:#191919;" d="M31.435,21.435C31.745,21.745,31.64,22,31.2,22H16.8c-0.44,0-0.545-0.255-0.234-0.565l6.868-6.869
				c0.312-0.311,0.82-0.311,1.132,0L31.435,21.435z"/>
		</g>
	</g>
</g>
</svg>
