<?xml version="1.0" encoding="iso-8859-1"?>
<!-- Generator: Adobe Illustrator 14.0.0, SVG Export Plug-In . SVG Version: 6.00 Build 43363)  -->
<!DOCTYPE svg PUBLIC "-//W3C//DTD SVG 1.1//EN" "http://www.w3.org/Graphics/SVG/1.1/DTD/svg11.dtd">
<svg version="1.1" id="icon-m-messaging-smiley-very-happy-layer"
	 xmlns="http://www.w3.org/2000/svg" xmlns:xlink="http://www.w3.org/1999/xlink" x="0px" y="0px" width="48px" height="48px"
	 viewBox="0 0 48 48" style="enable-background:new 0 0 48 48;" xml:space="preserve">
<g id="icon-m-messaging-smiley-very-happy">
	<rect style="fill:none;" width="48" height="48"/>
	<path style="fill:#333333;" d="M24,27.967c-8.021,0-14.626-2.505-15.609-6.391c-0.083,0.648-0.141,1.303-0.141,1.973
		c0,8.697,7.051,14.438,15.75,14.438s15.75-5.74,15.75-14.438c0-0.67-0.058-1.324-0.141-1.973
		C38.626,25.462,32.021,27.967,24,27.967z"/>
	<path style="fill:#333333;" d="M30.49,13.717c-1.079,0-2.079,0.26-2.943,0.693c0.709-1.559,2.455-2.674,4.537-2.674
		c2.707,0,4.899,1.863,4.899,4.165c0,0.921-0.175,1.813-0.646,2.534C36.174,15.807,33.624,13.717,30.49,13.717z"/>
	<path style="fill:#333333;" d="M17.509,13.717c1.08,0,2.08,0.26,2.943,0.693c-0.708-1.559-2.455-2.674-4.537-2.674
		c-2.707,0-4.899,1.863-4.899,4.165c0,0.921,0.174,1.813,0.646,2.534C11.826,15.807,14.376,13.717,17.509,13.717z"/>
	<path style="fill:#333333;" d="M24,3c11.58,0,21,9.42,21,21s-9.42,21-21,21C12.42,45,3,35.58,3,24S12.42,3,24,3 M24,0
		C10.745,0,0,10.745,0,24s10.745,24,24,24s24-10.745,24-24S37.255,0,24,0L24,0z"/>
</g>
</svg>
