<?xml version="1.0" encoding="iso-8859-1"?>
<!-- Generator: Adobe Illustrator 14.0.0, SVG Export Plug-In . SVG Version: 6.00 Build 43363)  -->
<!DOCTYPE svg PUBLIC "-//W3C//DTD SVG 1.1//EN" "http://www.w3.org/Graphics/SVG/1.1/DTD/svg11.dtd">
<svg version="1.1" id="icon-m-common-clock-layer" xmlns="http://www.w3.org/2000/svg" xmlns:xlink="http://www.w3.org/1999/xlink"
	 x="0px" y="0px" width="48px" height="48px" viewBox="0 0 48 48" style="enable-background:new 0 0 48 48;" xml:space="preserve">
<g id="icon-m-common-clock_1_">
	<rect style="fill:none;" width="48" height="48"/>
	<g>
		<g>
			<path style="fill:#333333;" d="M26.934,24.668c-0.309,1.447-1.559,2.476-3.046,2.476c-1.721,0-3.122-1.401-3.122-3.12
				c0-0.262,0.035-0.523,0.103-0.778l-6.858-8.634l2.922-2.341l6.859,8.634c0.541-0.022,1.069,0.104,1.559,0.369l6.453-3.004
				l1.576,3.402L26.934,24.668z"/>
		</g>
	</g>
	<path style="fill:#333333;" d="M24,5.109c10.416,0,18.891,8.475,18.891,18.891S34.416,42.891,24,42.891
		C13.583,42.891,5.109,34.416,5.109,24S13.583,5.109,24,5.109 M24,0.75C11.159,0.75,0.75,11.159,0.75,24
		c0,12.84,10.409,23.25,23.25,23.25c12.841,0,23.25-10.41,23.25-23.25C47.25,11.159,36.841,0.75,24,0.75L24,0.75z"/>
</g>
</svg>
