<?xml version="1.0" encoding="iso-8859-1"?>
<!-- Generator: Adobe Illustrator 14.0.0, SVG Export Plug-In . SVG Version: 6.00 Build 43363)  -->
<!DOCTYPE svg PUBLIC "-//W3C//DTD SVG 1.1//EN" "http://www.w3.org/Graphics/SVG/1.1/DTD/svg11.dtd">
<svg version="1.1" id="icon-m-bluetooth-devices-layer"
	 xmlns="http://www.w3.org/2000/svg" xmlns:xlink="http://www.w3.org/1999/xlink" x="0px" y="0px" width="48px" height="48px"
	 viewBox="0 0 48 48" style="enable-background:new 0 0 48 48;" xml:space="preserve">
<g id="icon-m-bluetooth-devices">
	<rect style="fill:none;" width="48" height="48"/>
	<path style="fill:#333333;" d="M23.717,8.617c-0.678-2.174-3.102-3.35-5.423-2.626L3.897,10.479
		c-2.32,0.724-3.649,3.069-2.97,5.243l8.826,28.316c0.675,2.164,3.102,3.344,5.424,2.621l14.395-4.488
		c2.321-0.725,3.644-3.084,2.973-5.238L23.717,8.617z M18.007,39.664l-1.637-5.252l5.26-1.641l1.636,5.252L18.007,39.664z
		 M10.102,33.842l-6.186-19.84l16.363-5.1l6.187,19.84L10.102,33.842z"/>
	<path style="fill:#333333;" d="M46.051,7.557L18.889,1.168c-0.828-0.195-1.67,0.326-1.863,1.156l-0.26,1.1l0.665-0.207
		c0.733-0.229,1.492-0.345,2.253-0.345c1.744,0,3.354,0.599,4.605,1.622l0.353,0.313c0.844,0.791,1.491,1.792,1.852,2.946
		l0.369,1.185c1.396-0.683,3.025-0.907,4.656-0.526c3.749,0.884,6.075,4.645,5.192,8.4c-0.673,2.854-3.011,4.885-5.74,5.305
		l1.421,4.558l8.685,2.042c0.827,0.195,1.67-0.327,1.864-1.157l4.266-18.137C47.401,8.594,46.881,7.752,46.051,7.557z
		 M45.129,10.328l-0.276,1.188c-0.182,0.777-0.966,1.266-1.745,1.085l-2.759-0.644c-0.778-0.182-1.268-0.967-1.086-1.744
		l0.277-1.187c0.182-0.779,0.966-1.267,1.745-1.085l2.759,0.643C44.822,8.764,45.31,9.549,45.129,10.328z"/>
</g>
</svg>
