<?xml version="1.0" encoding="iso-8859-1"?>
<!-- Generator: Adobe Illustrator 14.0.0, SVG Export Plug-In . SVG Version: 6.00 Build 43363)  -->
<!DOCTYPE svg PUBLIC "-//W3C//DTD SVG 1.1//EN" "http://www.w3.org/Graphics/SVG/1.1/DTD/svg11.dtd">
<svg version="1.1" id="icon-m-content-artist-layer"
	 xmlns="http://www.w3.org/2000/svg" xmlns:xlink="http://www.w3.org/1999/xlink" x="0px" y="0px" width="48px" height="48px"
	 viewBox="0 0 48 48" style="enable-background:new 0 0 48 48;" xml:space="preserve">
<g id="icon-m-content-artist_1_">
	<path style="fill:#333333;" d="M0,0v48h48V0H0z M2.625,44.609c0.788-1.436,1.706-2.625,2.571-3.287
		c2.439-1.861,8.619-2.368,9.701-5.518c0.859-2.503-1.333-5.059-2.224-7.176c-1.047-2.49-1.697-5.267-1.697-8.015
		c0-7.062,4.57-12.785,10.208-12.785c6.308,0,10.375,6.557,9.877,12.753c-0.116,1.458-0.487,2.896-1.141,4.225
		c-4.059,8.243,2.234,13.084,8.85,16.156c1.927,0.893,5.476,1.655,6.604,3.646H2.625z"/>
</g>
</svg>
