<?xml version="1.0" encoding="iso-8859-1"?>
<!-- Generator: Adobe Illustrator 14.0.0, SVG Export Plug-In . SVG Version: 6.00 Build 43363)  -->
<!DOCTYPE svg PUBLIC "-//W3C//DTD SVG 1.1//EN" "http://www.w3.org/Graphics/SVG/1.1/DTD/svg11.dtd">
<svg version="1.1" id="icon-m-email-directory-trash-layer"
	 xmlns="http://www.w3.org/2000/svg" xmlns:xlink="http://www.w3.org/1999/xlink" x="0px" y="0px" width="48px" height="48px"
	 viewBox="0 0 48 48" style="enable-background:new 0 0 48 48;" xml:space="preserve">
<g id="icon-m-email-directory-trash_2_">
	<rect style="fill:none;" width="48" height="48"/>
	<path style="fill:#333333;" d="M26.971,3.822c0-0.824-0.676-1.5-1.5-1.5H1.51c-0.825,0-1.5,0.676-1.5,1.5L0.009,9.325h26.962V3.822
		z"/>
	<path style="fill:#333333;" d="M46.494,12.436H0.009L0.006,44.177c0,0.825,0.675,1.5,1.5,1.5h44.988c0.825,0,1.5-0.675,1.5-1.5
		V13.936C47.994,13.11,47.319,12.436,46.494,12.436z M30.746,39.192c0,0.406-0.332,0.74-0.738,0.74H17.993
		c-0.407,0-0.74-0.334-0.74-0.74l-1.109-13.493h15.712L30.746,39.192z M32.318,23.48H15.682v-2.403c0-0.406,0.333-0.739,0.74-0.739
		h4.621v-1.416c0-0.407,0.332-0.739,0.739-0.739h4.436c0.408,0,0.74,0.332,0.74,0.739v1.416h4.621c0.406,0,0.74,0.333,0.74,0.739
		V23.48z"/>
</g>
</svg>
