<?xml version="1.0" encoding="iso-8859-1"?>
<!-- Generator: Adobe Illustrator 14.0.0, SVG Export Plug-In . SVG Version: 6.00 Build 43363)  -->
<!DOCTYPE svg PUBLIC "-//W3C//DTD SVG 1.1//EN" "http://www.w3.org/Graphics/SVG/1.1/DTD/svg11.dtd">
<svg version="1.1" id="icon-m-content-dictionary-layer"
	 xmlns="http://www.w3.org/2000/svg" xmlns:xlink="http://www.w3.org/1999/xlink" x="0px" y="0px" width="48px" height="48px"
	 viewBox="0 0 48 48" style="enable-background:new 0 0 48 48;" xml:space="preserve">
<g id="icon-m-content-dictionary_1_">
	<rect style="fill:none;" width="48" height="48"/>
	<rect style="fill:#333333;" width="4.695" height="48"/>
	<polygon style="fill:#333333;" points="18.846,23.567 22.519,23.567 20.668,18.947 	"/>
	<path style="fill:#333333;" d="M46.5,0H9v48h37.5c0.825,0,1.5-0.676,1.5-1.5v-45C48,0.676,47.325,0,46.5,0z M43.576,31.044H32.186
		h-0.891h-8.918v-1.638l0.348-0.025c0.402-0.029,0.884-0.104,1.435-0.222c0.332-0.07,0.485-0.136,0.552-0.173
		c-0.002-0.021-0.005-0.043-0.009-0.067c-0.002-0.02-0.017-0.085-0.075-0.229l-1.323-3.211h-5.237
		c-0.104,0.261-0.217,0.554-0.338,0.879c-0.158,0.428-0.295,0.808-0.411,1.141c-0.173,0.516-0.229,0.763-0.245,0.879
		c-0.024,0.172-0.038,0.291-0.038,0.358c0,0.085,0.131,0.196,0.351,0.298c0.338,0.157,0.932,0.273,1.767,0.348l0.342,0.031v1.632
		h-7.57v-1.642l0.353-0.021c0.238-0.014,0.515-0.054,0.82-0.117c0.278-0.057,0.495-0.133,0.644-0.226
		c0.289-0.17,0.529-0.373,0.722-0.609c0.197-0.243,0.365-0.535,0.499-0.874l2.727-6.604c0.91-2.203,1.916-4.633,3.018-7.289
		l0.096-0.23h2.847l0.095,0.232c1.531,3.77,2.73,6.745,3.598,8.934c0.862,2.172,1.606,4,2.213,5.43
		c0.086,0.199,0.197,0.384,0.332,0.547c0.127,0.156,0.318,0.312,0.568,0.459c0.18,0.104,0.399,0.184,0.648,0.238
		c0.165,0.035,0.317,0.061,0.462,0.08l6.111-8.863c-0.646,0.004-1.241,0.016-1.784,0.032c-0.697,0.022-1.249,0.11-1.639,0.257
		c0.008,0-0.119,0.104-0.388,0.662c-0.235,0.488-0.422,1.003-0.556,1.529l-0.072,0.281h-1.486v-4.581H43.4v1.218l-6.419,9.35
		c0.04,0.001,0.081,0.002,0.124,0.003c0.771,0.018,1.436,0.019,2.241-0.018c0.425-0.019,0.755-0.043,0.99-0.073
		c0.245-0.029,0.427-0.104,0.561-0.23c0.153-0.143,0.276-0.318,0.365-0.521c0.101-0.223,0.229-0.557,0.39-1.002
		c0.159-0.442,0.281-0.84,0.363-1.184l0.069-0.288h1.491V31.044z"/>
</g>
</svg>
