<?xml version="1.0" encoding="iso-8859-1"?>
<!-- Generator: Adobe Illustrator 14.0.0, SVG Export Plug-In . SVG Version: 6.00 Build 43363)  -->
<!DOCTYPE svg PUBLIC "-//W3C//DTD SVG 1.1//EN" "http://www.w3.org/Graphics/SVG/1.1/DTD/svg11.dtd">
<svg version="1.1" id="icon-m-camera-resolution-3m-layer"
	 xmlns="http://www.w3.org/2000/svg" xmlns:xlink="http://www.w3.org/1999/xlink" x="0px" y="0px" width="32px" height="32px"
	 viewBox="0 0 32 32" style="enable-background:new 0 0 32 32;" xml:space="preserve">
<g id="icon-m-camera-resolution-3m">
	<rect style="fill:none;" width="32" height="32"/>
	<polygon style="fill:#FFFFFF;" points="23.337,18.667 23.337,4 18.445,4 18.445,8.891 13.554,8.891 13.554,13.783 13.554,13.782 
		8.663,13.782 8.663,18.668 	"/>
	<path style="fill:#FFFFFF;" d="M11.979,21.927c-0.431,0-0.881,0.112-1.331,0.234v-0.909c0.487-0.122,1.059-0.226,1.641-0.226
		c1.284,0,2.212,0.432,2.212,1.697c0,0.796-0.44,1.34-1.237,1.583c0.881,0.16,1.359,0.76,1.359,1.594c0,1.5-0.947,2.1-2.606,2.1
		c-0.553,0-1.04-0.075-1.574-0.216v-0.909c0.563,0.132,1.003,0.226,1.425,0.226c0.862,0,1.199-0.413,1.199-1.172
		c0-1.003-0.581-1.181-2.025-1.181v-0.863c1.388,0,1.941-0.149,1.941-1.059C12.981,22.217,12.644,21.927,11.979,21.927z"/>
	<path style="fill:#FFFFFF;" d="M21.559,27.925H20.05v-4.527l-1.19,2.306h-0.563l-1.172-2.306v4.527h-1.546v-6.823h1.35l1.65,3.225
		l1.649-3.225h1.331V27.925z"/>
</g>
</svg>
