<?xml version="1.0" encoding="iso-8859-1"?>
<!-- Generator: Adobe Illustrator 14.0.0, SVG Export Plug-In . SVG Version: 6.00 Build 43363)  -->
<!DOCTYPE svg PUBLIC "-//W3C//DTD SVG 1.1//EN" "http://www.w3.org/Graphics/SVG/1.1/DTD/svg11.dtd">
<svg version="1.1" id="icon-l-email-layer" xmlns="http://www.w3.org/2000/svg" xmlns:xlink="http://www.w3.org/1999/xlink" x="0px"
	 y="0px" width="80px" height="81px" viewBox="0 0 80 81" style="enable-background:new 0 0 80 81;" xml:space="preserve">
<g id="icon-l-email_1_">
	<path style="fill:#F88E1C;" d="M62.526,17.471C57.542,12.486,50.54,10,41.513,10c-5.902,0-11.3,1.186-16.182,3.594
		c-4.882,2.395-8.665,5.824-11.319,10.299C11.332,28.381,10,33.652,10,39.734c0,9.738,2.859,17.203,8.583,22.424
		C24.295,67.389,32.013,70,41.731,70c2.412,0,5.172-0.264,8.335-0.754c3.125-0.512,5.701-1.131,7.635-1.838v-6.164
		c-5.342,1.787-10.479,2.666-15.355,2.666c-8.249,0-14.423-2.041-18.555-6.152c-4.135-4.072-6.184-10.215-6.184-18.375
		c0-7.302,2.235-13.033,6.737-17.152c4.466-4.145,10.232-6.215,17.329-6.215c6.752,0,11.984,1.969,15.683,5.901
		c3.695,3.95,5.527,9.47,5.527,16.603c0,4.049-0.537,7.189-1.661,9.412c-1.141,2.25-2.67,3.354-4.627,3.354
		c-1.517,0-2.586-0.453-3.227-1.314c-0.627-0.883-0.95-2.723-0.95-5.535c0-4.627,0.854-11.644,2.583-21.084H44.38
		c-6.033,0-10.836,1.809-14.444,5.394c-3.586,3.588-5.402,8.524-5.402,14.853c0,4.049,1.057,7.232,3.108,9.611
		c2.076,2.357,4.607,3.543,7.585,3.543c4.45,0,7.96-2.279,10.549-6.781c0.603,2.127,1.749,3.799,3.379,4.971
		c1.625,1.229,3.525,1.811,5.707,1.811c4.696,0,8.421-1.633,11.103-4.865C68.673,48.684,70,44.127,70,38.207
		C70,29.375,67.516,22.455,62.526,17.471z M44.161,39.303c-0.987,7.945-3.078,11.902-6.289,11.902c-1.715,0-2.929-0.629-3.623-1.936
		c-0.705-1.314-1.046-3.314-1.046-6.029c0-4.389,0.958-7.854,2.838-10.434c1.922-2.596,4.222-3.879,6.875-3.879h2.572L44.161,39.303
		z"/>
	<rect style="fill:none;" width="80" height="80.002"/>
</g>
</svg>
