<?xml version="1.0" encoding="iso-8859-1"?>
<!-- Generator: Adobe Illustrator 14.0.0, SVG Export Plug-In . SVG Version: 6.00 Build 43363)  -->
<!DOCTYPE svg PUBLIC "-//W3C//DTD SVG 1.1//EN" "http://www.w3.org/Graphics/SVG/1.1/DTD/svg11.dtd">
<svg version="1.1" id="icon-m-email-directory-outgoing-layer"
	 xmlns="http://www.w3.org/2000/svg" xmlns:xlink="http://www.w3.org/1999/xlink" x="0px" y="0px" width="48px" height="48px"
	 viewBox="0 0 48 48" style="enable-background:new 0 0 48 48;" xml:space="preserve">
<g id="icon-m-email-directory-outgoing_2_">
	<rect style="fill:none;" width="48" height="48"/>
	<path style="fill:#333333;" d="M26.977,3.823c0-0.825-0.675-1.5-1.5-1.5H1.516c-0.825,0-1.5,0.675-1.5,1.5L0.015,9.325h26.962
		V3.823z"/>
	<path style="fill:#333333;" d="M46.5,12.436H0.015c0,0-0.002,18.881-0.002,18.884v12.858c0,0.824,0.674,1.5,1.5,1.5H46.5
		c0.825,0,1.5-0.676,1.5-1.5V13.936C48,13.111,47.325,12.436,46.5,12.436z M32.636,28.938h-5.228v8.966
		c0,0.752-0.615,1.368-1.368,1.368h-4.106c-0.753,0-1.369-0.616-1.369-1.368v-8.966h-5.249c-0.753,0-0.942-0.444-0.419-0.986
		l9.09-9.109l9.068,9.109C33.578,28.493,33.389,28.938,32.636,28.938z"/>
</g>
</svg>
