<?xml version="1.0" encoding="iso-8859-1"?>
<!-- Generator: Adobe Illustrator 14.0.0, SVG Export Plug-In . SVG Version: 6.00 Build 43363)  -->
<!DOCTYPE svg PUBLIC "-//W3C//DTD SVG 1.1//EN" "http://www.w3.org/Graphics/SVG/1.1/DTD/svg11.dtd">
<svg version="1.1" id="icon-m-common-emergency-call-layer"
	 xmlns="http://www.w3.org/2000/svg" xmlns:xlink="http://www.w3.org/1999/xlink" x="0px" y="0px" width="48px" height="48px"
	 viewBox="0 0 48 48" style="enable-background:new 0 0 48 48;" xml:space="preserve">
<g id="icon-m-common-emergency-call">
	<rect style="fill:none;" width="48" height="48"/>
	<path style="fill:#333333;" d="M25.596,3.357C19.309,6.312,6.821,17.287,3.852,25.064c-1.3,3.408,1.36,8.796,3.46,10.467
		c-0.001,0.008,1.081,0.906,1.891-0.012l5.663-7.625c0.385-0.493,0.764-1.141-0.016-1.916c0,0-3.918-2.816-2.784-4.618
		c0.792-1.247,8.579-9.022,9.827-9.81c1.809-1.137,4.636,2.771,4.636,2.771c0.781,0.775,1.426,0.393,1.92,0.012l7.646-5.657
		c0.921-0.817,0.017-1.894,0.01-1.894C34.421,4.703,28.912,1.802,25.596,3.357z"/>
	<polygon style="fill:#ED1D37;" points="46.139,33.295 39.146,33.295 39.146,26.301 32.883,26.301 32.883,33.295 25.889,33.295 
		25.889,39.559 32.883,39.559 32.883,46.551 39.146,46.551 39.146,39.559 46.139,39.559 	"/>
</g>
</svg>
