<?xml version="1.0" encoding="iso-8859-1"?>
<!-- Generator: Adobe Illustrator 14.0.0, SVG Export Plug-In . SVG Version: 6.00 Build 43363)  -->
<!DOCTYPE svg PUBLIC "-//W3C//DTD SVG 1.1//EN" "http://www.w3.org/Graphics/SVG/1.1/DTD/svg11.dtd">
<svg version="1.1" id="icon-m-status-menu-settings-layer"
	 xmlns="http://www.w3.org/2000/svg" xmlns:xlink="http://www.w3.org/1999/xlink" x="0px" y="0px" width="48px" height="48px"
	 viewBox="0 0 48 48" style="enable-background:new 0 0 48 48;" xml:space="preserve">
<g id="icon-m-status-menu-settings_1_">
	<rect style="fill:none;" width="48" height="48"/>
	<circle style="fill:#010101;" cx="24" cy="24" r="23.5"/>
	<path style="fill:#FFFFFF;" d="M39.514,33.703L26.289,20.468c0.65-0.879,3.827-6.641-3.781-11.043
		c-3.428-1.984-8.634-2.05-7.103-0.515l6.092,6.098c-0.961,2.929-3.037,5.457-6.367,6.359l-6.119-6.131
		c-0.826-0.828-0.992,0.321-0.992,2.573c0,2.729,4.511,12.772,12.589,8.303l13.245,13.26c0.626,0.622,1.635,0.622,2.264,0l3.396-3.4
		C40.137,35.344,40.137,34.329,39.514,33.703z"/>
</g>
</svg>
