<?xml version="1.0" encoding="utf-8"?>
<!-- Generator: Adobe Illustrator 14.0.0, SVG Export Plug-In . SVG Version: 6.00 Build 43363)  -->
<!DOCTYPE svg PUBLIC "-//W3C//DTD SVG 1.1//EN" "http://www.w3.org/Graphics/SVG/1.1/DTD/svg11.dtd">
<svg version="1.1" id="icon-m-settings-utilities-layer"
	 xmlns="http://www.w3.org/2000/svg" xmlns:xlink="http://www.w3.org/1999/xlink" x="0px" y="0px" width="64px" height="64px"
	 viewBox="0 0 64 64" enable-background="new 0 0 64 64" xml:space="preserve">
<g id="icon-m-settings-utilities">
	<rect id="_x36_4_9_" fill="none" width="64" height="64"/>
	<rect id="_x33_2_36_" x="16" y="16" fill="none" width="32" height="32"/>
	<path d="M47,32v-5c0-1-1-2-2-2H19c-1-0.068-2,1-2,2v5H47z"/>
	<path d="M41,35v2h-3v-2H25v2h-3v-2h-5v6c0,1.001,1.12,2.001,2,2.001h26c0.88,0,2-1,2-2.001v-6H41z"/>
	<path d="M19,25c0.034-1.89,0.289-3.752,1.515-4.98c1.36-1.358,2.989-2.019,4.981-2.019c0,0,12.93-0.001,13,0
		c1.892,0.032,3.757,0.787,4.988,2.019c1.227,1.229,1.481,3.09,1.516,4.979l-1.984-0.012c-0.027-1.562-0.217-3.064-1.076-3.924
		c-0.681-0.68-2.086-1.018-4.426-1.062H26.496c-1.743,0-3.487,0.13-4.436,1.079c-0.858,0.857-1.047,2.357-1.076,3.918L19,25z"/>
</g>
</svg>
