<?xml version="1.0" encoding="iso-8859-1"?>
<!-- Generator: Adobe Illustrator 14.0.0, SVG Export Plug-In . SVG Version: 6.00 Build 43363)  -->
<!DOCTYPE svg PUBLIC "-//W3C//DTD SVG 1.1//EN" "http://www.w3.org/Graphics/SVG/1.1/DTD/svg11.dtd">
<svg version="1.1" id="icon-m-note-create-layer" xmlns="http://www.w3.org/2000/svg" xmlns:xlink="http://www.w3.org/1999/xlink"
	 x="0px" y="0px" width="48px" height="48px" viewBox="0 0 48 48" style="enable-background:new 0 0 48 48;" xml:space="preserve">
<g id="icon-m-note-create">
	<rect style="fill:none;" width="48" height="48"/>
	<path style="fill:#333333;" d="M16.5,34.5c0-6.236,3.188-11.738,8.02-14.97H5.226v-3.642h24.8v1.174
		c1.431-0.365,2.931-0.563,4.475-0.563c0.252,0,0.5,0.01,0.75,0.02V1.639c0-0.9-0.737-1.639-1.639-1.639h-3.143v1.803
		c0,0.959-0.783,1.742-1.741,1.742h-1.017c-0.958,0-1.742-0.783-1.742-1.742V0h-6.094v1.803c0,0.959-0.783,1.742-1.741,1.742h-1.017
		c-0.958,0-1.742-0.783-1.742-1.742V0H9.281v1.803c0,0.959-0.784,1.742-1.741,1.742H6.523c-0.958,0-1.742-0.783-1.742-1.742V0H1.64
		C0.738,0,0,0.738,0,1.639V36.07c0,0.903,0.738,1.64,1.64,1.64h15.153C16.604,36.668,16.5,35.597,16.5,34.5z M5.226,9.03h24.8v3.642
		h-24.8V9.03z M5.226,22.639h12v3.642h-12V22.639z"/>
	<path style="fill:#333333;" d="M34.5,21C27.045,21,21,27.045,21,34.5S27.045,48,34.5,48S48,41.955,48,34.5S41.955,21,34.5,21z
		 M42.6,36.65h-5.881v5.95h-4.403v-5.95H26.4v-4.369h5.915v-5.88h4.403v5.88H42.6V36.65z"/>
</g>
</svg>
