<?xml version="1.0" encoding="iso-8859-1"?>
<!-- Generator: Adobe Illustrator 14.0.0, SVG Export Plug-In . SVG Version: 6.00 Build 43363)  -->
<!DOCTYPE svg PUBLIC "-//W3C//DTD SVG 1.1//EN" "http://www.w3.org/Graphics/SVG/1.1/DTD/svg11.dtd">
<svg version="1.1" id="icon-m-content-online-music-layer"
	 xmlns="http://www.w3.org/2000/svg" xmlns:xlink="http://www.w3.org/1999/xlink" x="0px" y="0px" width="48px" height="48px"
	 viewBox="0 0 48 48" style="enable-background:new 0 0 48 48;" xml:space="preserve">
<g id="icon-m-content-online-music">
	<rect style="fill:none;" width="48" height="48"/>
	<path style="fill:#333333;" d="M21.954,32.665v-2.2c-1.62,0.617-3.37,0.971-5.204,0.971c-8.098,0-14.686-6.588-14.686-14.686
		c0-0.055,0.007-0.107,0.008-0.162c1.168,0.937,4.136,1.657,4.263,0.112c0.059-0.726-1.271-1.597-0.922-2.575
		c0.312-0.868,1.698-0.712,2.489-1.08c1.73-0.803,2.21-3.138,3.94-3.909c1.552-0.69,3.458,0.114,4.908-0.995
		c-1.137-0.854-3.148-2.055-4.715-1.758c-1.588,0.301-2.205,1.995-4.14,1.424C7.159,7.589,6.847,6.77,5.882,7.062
		C5.794,7.09,5.711,7.139,5.627,7.188c2.696-3.13,6.678-5.123,11.123-5.123c2.648,0,5.128,0.716,7.276,1.946
		c-0.601,0.05-1.393-0.164-1.898,0.082c-0.041,0.021-0.71,1.114-0.723,1.132c-0.407,0.525-0.928,0.328-1.01,1.169
		c1.089,0.292,3.255,1.199,2.566,2.788c-0.711,1.639-2.695-0.066-3.969,0.512c-0.766,0.348-2.159,2.199-2.233,3.102
		c-0.155,1.883,1.558,1.782,2.761,2.752c1.12,0.906,1.33,2.757,2.752,2.589c0.373-0.043,1.236-0.995,1.7-1.171
		c0.77-0.293,2.054-0.014,2.583-0.213c3.345-1.27-3.087-4.615-2.441-6.236c0.556-1.395,1.079-0.365,1.888-0.082
		c1.127,0.394,2.462,0.387,3.18,0.988c0.845,0.709,1.226,1.938,1.986,2.594c0.169,0.888,0.266,1.799,0.266,2.734
		c0,0.974-0.1,1.924-0.281,2.845l2.266-1.252c0.049-0.524,0.08-1.056,0.08-1.593C33.5,7.498,26,0,16.75,0C7.499,0,0,7.498,0,16.75
		S7.499,33.5,16.75,33.5C18.568,33.5,20.314,33.201,21.954,32.665z"/>
	<path style="fill:#333333;" d="M37.016,35.096c-1.119-0.412-2.564-0.28-3.898,0.463c-2.164,1.207-3.127,3.462-2.19,5.151
		c0.934,1.686,3.366,2.071,5.524,0.872c1.432-0.788,2.348-2.053,2.523-3.305C38.99,38.127,39,38.068,39,37.966v-2.521V20.291
		c0-0.255-0.184-0.365-0.404-0.238l-12.244,6.766c-0.219,0.121-0.397,0.428-0.397,0.688v12.307
		c-1.125-0.404-2.574-0.271-3.904,0.472c-2.167,1.198-3.124,3.456-2.193,5.142c0.936,1.689,3.365,2.077,5.527,0.881
		c1.43-0.793,2.375-2.055,2.545-3.307c0.012-0.137,0.024-0.209,0.024-0.311v-9.742c0-0.196,0.183-0.561,0.403-0.686l8.234-4.55
		c0.221-0.121,0.402-0.013,0.402,0.239v7.876"/>
	<path style="fill:#333333;" d="M13.381,18.57c-0.493-0.521-0.554-0.613-1.24-1.016c-0.587-0.346-0.554-0.516-1.288-0.686
		c-1.255-0.287-1.53,0.193-1.933,1.146c-0.111,0.259-0.345,0.45-0.411,0.731c-0.282,1.219,0.706,1.988,1.36,2.797
		c0.736,0.908,0.407,1.699,0.198,2.766c-0.199,1.012-0.049,2.035,0.434,2.975c0.129,0.249,0.441,0.881,0.788,0.883
		c0.618,0,0.302-0.732,0.344-1.137c0.125-1.215,0.994-2.141,1.656-3.109c0.286-0.418,0.936-0.715,1.125-1.248
		c0.108-0.303-0.104-0.724-0.011-1.033c0.063-0.21,0.373-0.439,0.41-0.588c0.134-0.54,0.325-1.041-0.083-1.537
		C14.393,19.104,13.702,18.907,13.381,18.57z"/>
</g>
</svg>
