<?xml version="1.0" encoding="iso-8859-1"?>
<!-- Generator: Adobe Illustrator 14.0.0, SVG Export Plug-In . SVG Version: 6.00 Build 43363)  -->
<!DOCTYPE svg PUBLIC "-//W3C//DTD SVG 1.1//EN" "http://www.w3.org/Graphics/SVG/1.1/DTD/svg11.dtd">
<svg version="1.1" id="icon-s-messaging-smiley-very-happy-layer"
	 xmlns="http://www.w3.org/2000/svg" xmlns:xlink="http://www.w3.org/1999/xlink" x="0px" y="0px" width="18px" height="18px"
	 viewBox="0 0 18 18" style="enable-background:new 0 0 18 18;" xml:space="preserve">
<g id="icon-s-messaging-smiley-very-happy">
	<rect style="fill:none;" width="18" height="18"/>
	<path style="fill:#333333;" d="M9,10.487c-3.008,0-5.484-0.938-5.854-2.396C3.115,8.334,3.094,8.58,3.094,8.83
		c0,3.263,2.644,5.416,5.906,5.416c3.262,0,5.906-2.153,5.906-5.416c0-0.25-0.021-0.496-0.053-0.738
		C14.484,9.549,12.008,10.487,9,10.487z"/>
	<path style="fill:#333333;" d="M11.434,5.144c-0.404,0-0.779,0.098-1.104,0.261C10.596,4.819,11.251,4.4,12.031,4.4
		c1.016,0,1.838,0.699,1.838,1.563c0,0.346-0.066,0.681-0.242,0.951C13.565,5.928,12.609,5.144,11.434,5.144z"/>
	<path style="fill:#333333;" d="M6.566,5.144c0.405,0,0.78,0.098,1.104,0.261C7.404,4.819,6.749,4.4,5.969,4.4
		C4.954,4.4,4.131,5.1,4.131,5.963c0,0.346,0.065,0.681,0.242,0.951C4.435,5.928,5.391,5.144,6.566,5.144z"/>
	<path style="fill:#333333;" d="M9,1.125c4.342,0,7.875,3.533,7.875,7.875c0,4.343-3.533,7.875-7.875,7.875
		c-4.342,0-7.875-3.532-7.875-7.875C1.125,4.658,4.658,1.125,9,1.125 M9,0C4.029,0,0,4.029,0,9s4.029,9,9,9s9-4.029,9-9
		S13.971,0,9,0L9,0z"/>
</g>
</svg>
