<?xml version="1.0" encoding="iso-8859-1"?>
<!-- Generator: Adobe Illustrator 14.0.0, SVG Export Plug-In . SVG Version: 6.00 Build 43363)  -->
<!DOCTYPE svg PUBLIC "-//W3C//DTD SVG 1.1//EN" "http://www.w3.org/Graphics/SVG/1.1/DTD/svg11.dtd">
<svg version="1.1" id="icon-m-toolbar-save-as-layer"
	 xmlns="http://www.w3.org/2000/svg" xmlns:xlink="http://www.w3.org/1999/xlink" x="0px" y="0px" width="32px" height="32px"
	 viewBox="0 0 32 32" style="enable-background:new 0 0 32 32;" xml:space="preserve">
<g id="icon-m-toolbar-save-as_2_">
	<rect style="fill:none;" width="32" height="32"/>
	<path style="fill:#FFFFFF;" d="M31.596,4.116l-3.701-3.714c-0.207-0.203-0.541-0.203-0.746,0L16.506,10.943
		c-0.203,0.203-0.446,0.597-0.539,0.872l-1.9,5.702c-0.09,0.273,0.06,0.424,0.335,0.334l5.696-1.9
		c0.271-0.092,0.664-0.334,0.869-0.539L31.596,4.861C31.801,4.656,31.801,4.32,31.596,4.116z M19.906,14.666l-2.272,0.76
		l-1.144-1.143l0.758-2.277l1.009-1.008l2.634,2.685L19.906,14.666z"/>
	<rect x="6.843" y="21.508" style="fill:#FFFFFF;" width="8.192" height="1.637"/>
	<rect x="6.896" y="25.348" style="fill:#FFFFFF;" width="4.911" height="1.637"/>
	<path style="fill:#FFFFFF;" d="M20.896,18.748l-3.154,1.051c0.012,0.057,0.018,0.111,0.018,0.17v8.455
		c0,0.449-0.367,0.819-0.816,0.819H4.975c-0.45,0-0.819-0.37-0.819-0.819v-8.455c0-0.449,0.369-0.818,0.819-0.818h6.342
		c-0.407-0.77-0.482-1.68-0.194-2.558l0.175-0.525H5.479c-0.225,0-0.41-0.185-0.41-0.409v-5.324h-4c-0.45,0-0.819,0.37-0.819,0.818
		v19.779c0,0.45,0.369,0.818,0.819,0.818h19.779c0.45,0,0.819-0.368,0.819-0.818V18.398C21.41,18.539,21.148,18.662,20.896,18.748z"
		/>
	<path style="fill:#FFFFFF;" d="M11.289,13.951h0.713l1.024-3.073c0.066-0.194,0.153-0.396,0.252-0.595H10.88v3.258
		C10.88,13.768,11.063,13.951,11.289,13.951z"/>
</g>
</svg>
