<?xml version="1.0" encoding="iso-8859-1"?>
<!-- Generator: Adobe Illustrator 14.0.0, SVG Export Plug-In . SVG Version: 6.00 Build 43363)  -->
<!DOCTYPE svg PUBLIC "-//W3C//DTD SVG 1.1//EN" "http://www.w3.org/Graphics/SVG/1.1/DTD/svg11.dtd">
<svg version="1.1" id="icon-m-content-podcast-audio-layer"
	 xmlns="http://www.w3.org/2000/svg" xmlns:xlink="http://www.w3.org/1999/xlink" x="0px" y="0px" width="48px" height="48px"
	 viewBox="0 0 48 48" style="enable-background:new 0 0 48 48;" xml:space="preserve">
<g id="icon-m-content-podcast-audio_2_">
	<rect style="fill:none;" width="48" height="48"/>
	<path style="fill:#333333;" d="M27.934,30.229v-5.601c0-2.153-1.762-3.898-3.931-3.898c-2.172,0-3.932,1.745-3.932,3.898v5.601
		c0,2.151,1.76,3.897,3.932,3.897C26.172,34.127,27.934,32.381,27.934,30.229z"/>
	<path style="fill:#333333;" d="M30.746,33.123c-0.836,2.646-3.609,4.496-6.743,4.496c-3.139,0-5.91-1.85-6.74-4.495l-0.087-0.276
		h-3.301l0.107,0.45c0.858,3.656,4.211,6.442,8.407,7.025V45.2h-0.002H20.33c-0.826,0-1.5,0.63-1.5,1.399c0,0.771,0.674,1.4,1.5,1.4
		h7.34c0.826,0,1.5-0.63,1.5-1.4c0-0.77-0.674-1.399-1.5-1.399h-2.052v-4.877c4.199-0.584,7.552-3.37,8.401-7.025l0.105-0.45h-3.293
		L30.746,33.123z"/>
	<path style="fill:#333333;" d="M42.75,13.769c-0.334,0-0.668-0.135-0.911-0.399c-0.073-0.079-7.378-7.888-17.241-7.895
		l-0.892,0.003C13.661,5.324,6.235,13.289,6.161,13.369c-0.463,0.502-1.246,0.535-1.748,0.073c-0.503-0.462-0.537-1.243-0.075-1.746
		C4.666,11.337,12.436,3,23.411,3c0.104,0,0.207,0,0.311,0.002L24.596,3c10.976,0.008,18.741,8.341,19.066,8.695
		c0.461,0.504,0.428,1.285-0.075,1.747C43.35,13.661,43.049,13.769,42.75,13.769L42.75,13.769z"/>
	<path style="fill:#333333;" d="M11.624,21.5c-0.265,0-0.533-0.085-0.758-0.261c-0.54-0.419-0.637-1.197-0.217-1.737
		c4.55-5.851,10.614-6.495,13.01-6.502l0.881,0.002c2.38,0.045,8.353,0.767,12.812,6.5c0.42,0.541,0.322,1.318-0.217,1.737
		c-0.54,0.42-1.317,0.322-1.736-0.217c-3.805-4.893-8.88-5.508-10.885-5.546l-0.855-0.001c-2.027,0.005-7.175,0.556-11.057,5.547
		C12.358,21.336,11.993,21.5,11.624,21.5L11.624,21.5z"/>
</g>
</svg>
