<?xml version="1.0" encoding="iso-8859-1"?>
<!-- Generator: Adobe Illustrator 14.0.0, SVG Export Plug-In . SVG Version: 6.00 Build 43363)  -->
<!DOCTYPE svg PUBLIC "-//W3C//DTD SVG 1.1//EN" "http://www.w3.org/Graphics/SVG/1.1/DTD/svg11.dtd">
<svg version="1.1" id="icon-m-gallery-metadata-layer"
	 xmlns="http://www.w3.org/2000/svg" xmlns:xlink="http://www.w3.org/1999/xlink" x="0px" y="0px" width="48px" height="48px"
	 viewBox="0 0 48 48" style="enable-background:new 0 0 48 48;" xml:space="preserve">
<g id="icon-m-gallery-metadata_1_">
	<rect style="fill:none;" width="48" height="48"/>
	<path style="fill:#333333;" d="M30.26,37.203c0,1.211,0.553,1.211,0.85,1.211c0.621,0,1.332-0.209,1.332-1.841v-1.14h-0.147
		C30.49,35.434,30.26,36.38,30.26,37.203z"/>
	<path style="fill:#333333;" d="M42.939,0H4.216C3.363,0,2.667,0.697,2.667,1.548v44.903C2.667,47.303,3.363,48,4.216,48h38.71
		c0.852,0,1.577-0.697,1.577-1.549L44.489,1.548C44.489,0.697,43.795,0,42.939,0z M22.207,30.064l-7.022,2.521l7.022,2.52v4.754
		L9.328,34.584v-3.998l12.878-5.25V30.064z M37.828,41.935h-3.665l-0.319-1.198c-1.042,0.939-2.267,1.368-3.869,1.368
		c-3.115,0-5.051-1.851-5.051-4.829c0-4.824,4.5-5.173,7.518-5.25v-0.333c0-1.015-0.288-1.528-1.864-1.528
		c-0.934,0-2.088,0.209-3.433,0.621l-0.963,0.297v-3.911l0.564-0.142c1.758-0.441,3.459-0.675,4.92-0.675
		c3.974,0,6.162,1.913,6.162,5.386V41.935z M38.635,20.577H8.563v-3.87h30.071V20.577z M38.635,12.252H8.563V8.381h30.071V12.252z"
		/>
</g>
</svg>
