<?xml version="1.0" encoding="iso-8859-1"?>
<!-- Generator: Adobe Illustrator 14.0.0, SVG Export Plug-In . SVG Version: 6.00 Build 43363)  -->
<!DOCTYPE svg PUBLIC "-//W3C//DTD SVG 1.1//EN" "http://www.w3.org/Graphics/SVG/1.1/DTD/svg11.dtd">
<svg version="1.1" id="icon-m-content-genre-layer" xmlns="http://www.w3.org/2000/svg" xmlns:xlink="http://www.w3.org/1999/xlink"
	 x="0px" y="0px" width="48px" height="48px" viewBox="0 0 48 48" style="enable-background:new 0 0 48 48;" xml:space="preserve">
<g id="icon-m-content-genre_1_">
	<path style="fill:#333333;" d="M0,0v48h48V0H0z M29.307,34.52c0,0-0.784,8.127-5.965,7.848c0,0-5.042,0.469-4.221-7.39
		c0.82-7.856,1.055-23.688,1.055-23.688s-0.038-2.806-1.408-2.697c0,0-1.721-0.347-1.876,3.636c0,0,0,2.348-4.926,1.761
		c0,0-0.178-0.007-0.469-0.084c-0.23,0.395-0.581,0.651-0.978,0.651H7.619c-0.695,0-1.256-0.771-1.256-1.723
		c0-0.951,0.562-1.726,1.256-1.726h2.899c0.408,0,0.768,0.273,0.997,0.686c1.663-0.148,3.262-0.715,3.147-2.379
		c0,0,0.352-4.223,5.042-3.752c0,0,4.145,0.046,3.87,7.154c0,0-0.035,22.623-0.033,22.628c0.022,0.487,0.288,0.873,0.616,0.873
		c0.342,0,0.692-0.179,0.728-0.861l0.209-1.842c0,0,0.695-9.128,5.398-13.646l5.512,11.142C36.006,31.11,30.276,29.525,29.307,34.52
		z M40.788,31.164c-0.211,0.104-0.435,0.155-0.667,0.155c-0.611,0-1.189-0.368-1.476-0.94l-6.153-12.408
		c-0.404-0.82-0.104-1.799,0.671-2.182c0.757-0.375,1.749-0.004,2.14,0.787l6.154,12.405C41.861,29.798,41.562,30.777,40.788,31.164
		z"/>
</g>
</svg>
