<?xml version="1.0" encoding="iso-8859-1"?>
<!-- Generator: Adobe Illustrator 14.0.0, SVG Export Plug-In . SVG Version: 6.00 Build 43363)  -->
<!DOCTYPE svg PUBLIC "-//W3C//DTD SVG 1.1//EN" "http://www.w3.org/Graphics/SVG/1.1/DTD/svg11.dtd">
<svg version="1.1" id="icon-m-toolbar-camera-selected-layer"
	 xmlns="http://www.w3.org/2000/svg" xmlns:xlink="http://www.w3.org/1999/xlink" x="0px" y="0px" width="32px" height="32px"
	 viewBox="0 0 32 32" style="enable-background:new 0 0 32 32;" xml:space="preserve">
<g id="icon-m-toolbar-camera-selected">
	<rect style="fill:none;" width="32" height="32"/>
	<path style="fill:#63AF45;" d="M30.4,4.783H1.6C0.723,4.783,0,5.505,0,6.385v19.229c0,0.881,0.723,1.604,1.6,1.604h28.8
		c0.877,0,1.6-0.723,1.6-1.604V6.385C32,5.505,31.277,4.783,30.4,4.783z M16,23.5c-3.976,0-7.201-3.233-7.201-7.212
		c0-3.982,3.225-7.21,7.201-7.21c3.978,0,7.199,3.228,7.199,7.21C23.199,20.268,19.978,23.5,16,23.5z M29.953,10.998H23.76v-4.15
		h6.193V10.998z"/>
</g>
</svg>
