<?xml version="1.0" encoding="iso-8859-1"?>
<!-- Generator: Adobe Illustrator 14.0.0, SVG Export Plug-In . SVG Version: 6.00 Build 43363)  -->
<!DOCTYPE svg PUBLIC "-//W3C//DTD SVG 1.1//EN" "http://www.w3.org/Graphics/SVG/1.1/DTD/svg11.dtd">
<svg version="1.1" id="icon-m-transfer-continue-layer"
	 xmlns="http://www.w3.org/2000/svg" xmlns:xlink="http://www.w3.org/1999/xlink" x="0px" y="0px" width="48px" height="48px"
	 viewBox="0 0 48 48" style="enable-background:new 0 0 48 48;" xml:space="preserve">
<g id="icon-m-transfer-continue">
	<rect style="fill:none;" width="48" height="48"/>
	<path style="fill:#333333;" d="M22.87,15.828h-1.98v-3.873c0-0.375-0.482-0.699-0.854-0.371l-6.401,6.467
		c-0.224,0.201-0.227,0.544,0,0.743l6.401,6.435c0.442,0.389,0.854-0.035,0.854-0.373l0.001-3.837l1.979-0.001
		c3.206,0.033,6.391,2.335,6.391,5.176c0,2.854-3.213,5.17-6.446,5.178v0.01c-0.451,0.006-0.81,0.354-0.81,0.814l-0.002,3.532
		c0,0.463,0.36,0.812,0.812,0.814v0.009c6.474-0.007,11.72-4.642,11.72-10.357C34.535,20.493,29.318,15.86,22.87,15.828z"/>
	<path style="fill:#333333;" d="M24,0.75C11.181,0.75,0.75,11.18,0.75,24S11.181,47.248,24,47.248
		c12.82,0,23.25-10.428,23.25-23.248S36.82,0.75,24,0.75z M24,43.264C13.378,43.264,4.735,34.621,4.735,24
		C4.735,13.377,13.378,4.734,24,4.734S43.264,13.377,43.264,24C43.264,34.621,34.622,43.264,24,43.264z"/>
</g>
</svg>
