<?xml version="1.0" encoding="iso-8859-1"?>
<!-- Generator: Adobe Illustrator 14.0.0, SVG Export Plug-In . SVG Version: 6.00 Build 43363)  -->
<!DOCTYPE svg PUBLIC "-//W3C//DTD SVG 1.1//EN" "http://www.w3.org/Graphics/SVG/1.1/DTD/svg11.dtd">
<svg version="1.1" id="icon-m-image-edit-red-eyes-remove-layer"
	 xmlns="http://www.w3.org/2000/svg" xmlns:xlink="http://www.w3.org/1999/xlink" x="0px" y="0px" width="48px" height="48px"
	 viewBox="0 0 48 48" style="enable-background:new 0 0 48 48;" xml:space="preserve">
<g id="icon-m-image-edit-red-eyes-remove">
	<rect style="fill:none;" width="48" height="48"/>
	<path style="fill:#333333;" d="M46.726,23.43c0,0-10.876-11.652-22.726-11.652c-11.851,0-22.727,11.652-22.727,11.652
		c-0.281,0.303-0.281,0.837,0,1.139c0,0,10.876,11.654,22.727,11.654c11.85,0,22.726-11.654,22.726-11.654
		C47.008,24.267,47.008,23.732,46.726,23.43z M41.044,24.426c0,0-8.157,8.741-17.044,8.741c-8.889,0-17.045-8.741-17.045-8.741
		c-0.211-0.225-0.391-0.441-0.389-0.441c0.003,0,0.178-0.186,0.389-0.412c0,0,8.156-8.739,17.045-8.739
		c8.887,0,17.044,8.739,17.044,8.739c0.211,0.227,0.386,0.412,0.389,0.412S41.255,24.201,41.044,24.426z"/>
	<path style="fill:#333333;" d="M24,15.75c-4.557,0-8.25,3.693-8.25,8.25s3.693,8.25,8.25,8.25s8.25-3.693,8.25-8.25
		S28.557,15.75,24,15.75z M24,28.951c-2.726,0-4.939-2.205-4.95-4.93h4.943v-4.973c0.004,0,0.004,0,0.007,0
		c2.735,0,4.949,2.217,4.949,4.951S26.735,28.951,24,28.951z"/>
</g>
</svg>
