<?xml version="1.0" encoding="iso-8859-1"?>
<!-- Generator: Adobe Illustrator 14.0.0, SVG Export Plug-In . SVG Version: 6.00 Build 43363)  -->
<!DOCTYPE svg PUBLIC "-//W3C//DTD SVG 1.1//EN" "http://www.w3.org/Graphics/SVG/1.1/DTD/svg11.dtd">
<svg version="1.1" id="icon-m-camera-flash-off-selected-layer"
	 xmlns="http://www.w3.org/2000/svg" xmlns:xlink="http://www.w3.org/1999/xlink" x="0px" y="0px" width="48px" height="48px"
	 viewBox="0 0 48 48" style="enable-background:new 0 0 48 48;" xml:space="preserve">
<g id="icon-m-camera-flash-off-selected">
	<rect style="fill:none;" width="48" height="48"/>
	<path style="fill:#63AF45;" d="M24.002,0.677C11.161,0.678,0.751,11.094,0.75,23.939c0.001,12.83,10.411,23.235,23.252,23.237
		C36.837,47.175,47.248,36.77,47.25,23.939C47.248,11.094,36.838,0.678,24.002,0.677z M39.432,36.277l-6.511-6.512l-3.418,2.745
		l6.847,6.848c-3.384,2.711-7.674,4.341-12.347,4.348C13.079,43.688,4.24,34.85,4.219,23.939c0.01-4.678,1.639-8.973,4.354-12.359
		l5.756,5.754l3.271-2.889l-5.947-5.947c3.385-2.714,7.674-4.343,12.349-4.35V4.146c10.914,0.02,19.757,8.864,19.778,19.793
		C43.771,28.607,42.144,32.896,39.432,36.277z"/>
	<polygon style="fill:#63AF45;" points="30.445,9.395 17.264,21.045 24.265,25.17 14.555,38.458 33.445,23.289 25.91,19.469 	"/>
</g>
</svg>
