<?xml version="1.0" encoding="iso-8859-1"?>
<!-- Generator: Adobe Illustrator 14.0.0, SVG Export Plug-In . SVG Version: 6.00 Build 43363)  -->
<!DOCTYPE svg PUBLIC "-//W3C//DTD SVG 1.1//EN" "http://www.w3.org/Graphics/SVG/1.1/DTD/svg11.dtd">
<svg version="1.1" id="icon-m-status-menu-alarm-layer"
	 xmlns="http://www.w3.org/2000/svg" xmlns:xlink="http://www.w3.org/1999/xlink" x="0px" y="0px" width="48px" height="48px"
	 viewBox="0 0 48 48" style="enable-background:new 0 0 48 48;" xml:space="preserve">
<g id="icon-m-status-menu-alarm_1_">
	<rect style="fill:none;" width="48" height="48"/>
	<circle style="fill:#010101;" cx="24" cy="24" r="23.5"/>
	<g>
		<path style="fill:#FFFFFF;" d="M36.575,18.833c-0.773-0.792-1.591-0.973-2.612-1.366c-2.457-0.943-4.881-2.334-6.928-3.992
			c-1.375-1.116-2.646-2.026-4.335-2.687c-3.579-1.391-7.354-1.012-10.178,1.695l-0.036,0.036C9.779,15.347,9.396,19.12,10.791,22.7
			c0.658,1.69,1.569,2.96,2.683,4.334c1.662,2.048,3.052,4.473,3.995,6.93c0.392,1.02,0.575,1.837,1.363,2.609
			c0.536,0.526,0.562,0.562,1.091,1.091c0.354,0.355,1.057,0.479,1.412,0.123l8.209-8.21l0.035-0.035l8.211-8.205
			c0.354-0.355,0.23-1.061-0.123-1.412C37.137,19.395,37.102,19.367,36.575,18.833z"/>
		<path style="fill:#FFFFFF;" d="M28.504,34.509c0.767,1.275,2.158,2.131,3.754,2.131c2.42,0,4.383-1.963,4.383-4.379
			c0-1.6-0.857-2.991-2.131-3.759L28.504,34.509z"/>
	</g>
</g>
</svg>
