<?xml version="1.0" encoding="iso-8859-1"?>
<!-- Generator: Adobe Illustrator 14.0.0, SVG Export Plug-In . SVG Version: 6.00 Build 43363)  -->
<!DOCTYPE svg PUBLIC "-//W3C//DTD SVG 1.1//EN" "http://www.w3.org/Graphics/SVG/1.1/DTD/svg11.dtd">
<svg version="1.1" id="icon-m-common-wlan-wpa-layer"
	 xmlns="http://www.w3.org/2000/svg" xmlns:xlink="http://www.w3.org/1999/xlink" x="0px" y="0px" width="48px" height="48px"
	 viewBox="0 0 48 48" style="enable-background:new 0 0 48 48;" xml:space="preserve">
<g id="icon-m-common-wlan-wpa">
	<rect style="fill:none;" width="48" height="48"/>
	<path style="fill:#333333;" d="M37.875,20.578h-1.867c-0.002-2.419-0.006-5.547-0.006-5.624C36,8.386,30.63,3.065,24,3.064
		c-6.628,0.001-11.998,5.321-12,11.89c0,0.079-0.004,3.177-0.005,5.624h-1.869c-0.956,0-1.735,0.756-1.735,1.683v20.987
		c0,0.926,0.78,1.688,1.735,1.688h27.75c0.953,0,1.735-0.756,1.735-1.688V22.261C39.609,21.334,38.828,20.578,37.875,20.578z
		 M15.67,14.954c0.007-4.558,3.73-8.248,8.33-8.255c4.602,0.007,8.325,3.697,8.332,8.255c0,0.077,0.004,3.205,0.006,5.624H15.68
		C15.675,18.131,15.67,15.033,15.67,14.954z M20.431,32.537v7.688h-4.603v-7.588c-1.278-0.76-2.137-2.149-2.137-3.743
		c0-2.406,1.95-4.356,4.356-4.356c2.405,0,4.356,1.95,4.356,4.356C22.403,30.418,21.618,31.759,20.431,32.537z M32.431,32.537v7.688
		h-4.603v-7.588c-1.277-0.76-2.137-2.149-2.137-3.743c0-2.406,1.949-4.356,4.355-4.356c2.405,0,4.356,1.95,4.356,4.356
		C34.403,30.418,33.617,31.759,32.431,32.537z"/>
</g>
</svg>
