<?xml version="1.0" encoding="iso-8859-1"?>
<!-- Generator: Adobe Illustrator 14.0.0, SVG Export Plug-In . SVG Version: 6.00 Build 43363)  -->
<!DOCTYPE svg PUBLIC "-//W3C//DTD SVG 1.1//EN" "http://www.w3.org/Graphics/SVG/1.1/DTD/svg11.dtd">
<svg version="1.1" id="icon-m-internet-connection-saved-layer"
	 xmlns="http://www.w3.org/2000/svg" xmlns:xlink="http://www.w3.org/1999/xlink" x="0px" y="0px" width="48px" height="48px"
	 viewBox="0 0 48 48" style="enable-background:new 0 0 48 48;" xml:space="preserve">
<g id="icon-m-internet-connection-saved">
	<rect style="fill:none;" width="48" height="48"/>
	<path style="fill:#333333;" d="M44.478,12.663c-0.003,0.01-2.995,2.034-7.386,5.975c-4.386,3.95-10.145,9.789-15.642,17.383
		c-0.085,0.11-0.223,0.19-0.371,0.207c-0.013,0-0.029,0-0.044,0c-0.134,0-0.267-0.054-0.363-0.147L9.324,24.956
		c-0.099-0.103-0.15-0.22-0.147-0.354c0.004-0.132,0.062-0.261,0.159-0.348l3.787-3.409c0.201-0.188,0.521-0.176,0.712,0.012
		l6.265,6.286c1.921-2.693,11.336-15.128,24.08-15.374c0.221,0,0.422,0.139,0.489,0.344c0.017,0.049,0.025,0.102,0.024,0.152V6.329
		V3.43l0,0c0-0.823-0.678-1.494-1.505-1.494H4.812c-0.827,0-1.504,0.505-1.504,1.119V3.43v22.578v15.661v2.898v0.001
		c0,0.821,0.677,1.495,1.504,1.495h38.377c0.827,0,1.505-0.505,1.505-1.121v-0.374V21.99v-9.723
		C44.692,12.42,44.615,12.57,44.478,12.663z"/>
</g>
</svg>
