<?xml version="1.0" encoding="iso-8859-1"?>
<!-- Generator: Adobe Illustrator 14.0.0, SVG Export Plug-In . SVG Version: 6.00 Build 43363)  -->
<!DOCTYPE svg PUBLIC "-//W3C//DTD SVG 1.1//EN" "http://www.w3.org/Graphics/SVG/1.1/DTD/svg11.dtd">
<svg version="1.1" id="icon-s-status-wlan-wpa-layer"
	 xmlns="http://www.w3.org/2000/svg" xmlns:xlink="http://www.w3.org/1999/xlink" x="0px" y="0px" width="14px" height="18px"
	 viewBox="0 0 14 18" style="enable-background:new 0 0 14 18;" xml:space="preserve">
<g id="icon-s-status-wlan-wpa">
	<rect style="fill:none;" width="14" height="18"/>
	<path style="fill:#FFFFFF;" d="M12.965,6.529h-0.803c0-1.04-0.002-1.385-0.002-1.418C12.158,2.287,9.85,0,7,0
		S1.842,2.287,1.841,5.111c0,0.033-0.002,0.366-0.002,1.418H1.036c-0.412,0-0.746,0.324-0.746,0.723v10.022
		C0.29,17.672,0.624,18,1.036,18h11.929c0.41,0,0.746-0.325,0.746-0.726V7.252C13.711,6.854,13.375,6.529,12.965,6.529z M7,1.562
		c1.979,0.004,3.578,1.589,3.582,3.549c0,0.033,0.002,0.378,0.002,1.418H3.423C3.421,5.478,3.418,5.145,3.418,5.111
		C3.422,3.151,5.022,1.566,7,1.562z M5.228,12.921V16H2.249v-3.024c-0.573-0.446-0.918-1.14-0.918-1.872
		c0-1.309,1.064-2.373,2.373-2.373s2.373,1.064,2.373,2.373C6.075,11.812,5.763,12.473,5.228,12.921z M11.822,12.921V16H8.844
		v-3.024c-0.572-0.446-0.918-1.14-0.918-1.872c0-1.309,1.065-2.373,2.372-2.373c1.309,0,2.373,1.064,2.373,2.373
		C12.67,11.812,12.357,12.473,11.822,12.921z"/>
</g>
</svg>
