<?xml version="1.0" encoding="iso-8859-1"?>
<!-- Generator: Adobe Illustrator 14.0.0, SVG Export Plug-In . SVG Version: 6.00 Build 43363)  -->
<!DOCTYPE svg PUBLIC "-//W3C//DTD SVG 1.1//EN" "http://www.w3.org/Graphics/SVG/1.1/DTD/svg11.dtd">
<svg version="1.1" id="icon-m-common-redo-layer" xmlns="http://www.w3.org/2000/svg" xmlns:xlink="http://www.w3.org/1999/xlink"
	 x="0px" y="0px" width="48px" height="48px" viewBox="0 0 48 48" style="enable-background:new 0 0 48 48;" xml:space="preserve">
<g id="icon-m-common-redo">
	<rect style="fill:none;" width="48" height="48"/>
	<path style="fill:#333333;" d="M7.553,6.77h23.06l0.004,0.009c1.899-0.074,3.827,0.556,5.344,1.92l4.145,3.731l4.166-4.548
		c0.217-0.237,0.444-0.173,0.513,0.139l3.204,15.085c0.064,0.315-0.139,0.537-0.457,0.502l-15.309-1.866
		c-0.316-0.041-0.4-0.263-0.184-0.499l4.242-4.635l-2.57-2.314h-0.004c-1.324-1.149-3.039-1.857-4.922-1.857L7.553,12.435
		c-1.023,0-1.889,0.864-1.889,1.888v19.355c0,1.022,0.865,1.888,1.889,1.888h26.199v5.665H7.553C3.399,41.23,0,37.832,0,33.678
		V14.322C0,10.168,3.399,6.77,7.553,6.77z"/>
</g>
</svg>
