<?xml version="1.0" encoding="iso-8859-1"?>
<!-- Generator: Adobe Illustrator 14.0.0, SVG Export Plug-In . SVG Version: 6.00 Build 43363)  -->
<!DOCTYPE svg PUBLIC "-//W3C//DTD SVG 1.1//EN" "http://www.w3.org/Graphics/SVG/1.1/DTD/svg11.dtd">
<svg version="1.1" id="icon-m-camera-postcapture-view-always-selected-layer"
	 xmlns="http://www.w3.org/2000/svg" xmlns:xlink="http://www.w3.org/1999/xlink" x="0px" y="0px" width="48px" height="48px"
	 viewBox="0 0 48 48" style="enable-background:new 0 0 48 48;" xml:space="preserve">
<g id="icon-m-camera-postcapture-view-always-selected">
	<rect style="fill:none;" width="48" height="48"/>
	<path style="fill:#63AF45;" d="M23.683,12.916c0.502,0,0.954-0.195,1.303-0.501c0.465,0.662,1.127,1.079,1.864,1.079
		c0.734,0,1.396-0.417,1.864-1.079c0.347,0.306,0.802,0.501,1.302,0.501c1.096,0,1.982-0.894,1.982-1.992
		c0-1.102-0.887-1.994-1.982-1.994c-0.254,0-0.493,0.05-0.715,0.141c-0.32-1.412-1.296-2.439-2.451-2.439s-2.132,1.027-2.451,2.439
		c-0.222-0.091-0.463-0.141-0.716-0.141c-1.095,0-1.983,0.893-1.983,1.994C21.7,12.022,22.588,12.916,23.683,12.916z"/>
	<path style="fill:#63AF45;" d="M27.904,19.289c-1.605-1.794-3.579-2.063-5.597,2.402C19.446,15.076,13.61,6.811,8.25,26.907H19.5
		C21.283,23.432,24.261,20.769,27.904,19.289z"/>
	<path style="fill:#63AF45;" d="M4.5,4.5h39V21c2.25,1.5,3.75,3.75,3.75,3.75V2.25c0,0,0-1.5-1.5-1.5H2.25c-1.5,0-1.5,1.5-1.5,1.5
		v30c0,1.5,1.5,1.5,1.5,1.5H18C18,31.5,18.75,30,18.75,30H4.5V4.5z"/>
	<path style="fill:#63AF45;" d="M35.25,21.163v-2.021h2.25v-3h-6.75v3H33v2.019c-6.607,0.65-12.04,6.236-12.04,13.012
		c0,7.211,5.866,13.078,13.078,13.078c7.21,0,13.078-5.867,13.078-13.078C47.116,27.413,41.834,21.836,35.25,21.163z M34.038,43.514
		c-5.15,0-9.342-4.189-9.342-9.342c0-5.149,4.192-9.341,9.342-9.341c5.149,0,9.341,4.191,9.341,9.341
		C43.379,39.324,39.188,43.514,34.038,43.514z"/>
	<path style="fill:#63AF45;" d="M41.44,29.873c-0.07-0.214-0.271-0.358-0.511-0.358c-4.924,0.098-8.635,4.442-9.943,6.216
		l-2.314-2.344c-0.189-0.197-0.54-0.199-0.736-0.02l-1.563,1.419c-0.101,0.099-0.159,0.229-0.163,0.372
		c-0.002,0.141,0.052,0.27,0.154,0.373l4.666,4.615c0.096,0.102,0.235,0.158,0.38,0.158h0.041c0.155-0.014,0.295-0.088,0.389-0.218
		c1.831-2.555,4.043-5.03,6.393-7.164c1.562-1.412,2.688-2.232,2.998-2.449l0.063-0.049C41.445,30.287,41.507,30.071,41.44,29.873z"
		/>
</g>
</svg>
