<?xml version="1.0" encoding="iso-8859-1"?>
<!-- Generator: Adobe Illustrator 14.0.0, SVG Export Plug-In . SVG Version: 6.00 Build 43363)  -->
<!DOCTYPE svg PUBLIC "-//W3C//DTD SVG 1.1//EN" "http://www.w3.org/Graphics/SVG/1.1/DTD/svg11.dtd">
<svg version="1.1" id="icon-s-status-25g-layer" xmlns="http://www.w3.org/2000/svg" xmlns:xlink="http://www.w3.org/1999/xlink"
	 x="0px" y="0px" width="31px" height="18px" viewBox="0 0 31 18" style="enable-background:new 0 0 31 18;" xml:space="preserve">
<g id="icon-s-status-25g">
	<rect style="fill:none;" width="31" height="18"/>
	<path style="fill:#FFFFFF;" d="M12.016,17.807H0.838v-1.549c0-3.701,2.25-5.83,4.5-7.717c1.524-1.283,2.54-2.202,2.54-3.702
		c0-1.62-0.798-2.516-2.709-2.516c-1.354,0-2.564,0.388-3.726,0.798V0.727C2.992,0.267,4.564,0,6.161,0
		c3.532,0,5.734,1.428,5.734,4.694c0,2.612-1.428,4.016-3.484,5.758c-2.177,1.839-3.604,3.12-3.773,5.031h7.378V17.807z"/>
	<path style="fill:#FFFFFF;" d="M15.718,18c-1.186,0-2.129-0.944-2.129-2.129c0-1.186,0.943-2.154,2.129-2.154
		c1.186,0,2.153,0.969,2.153,2.154C17.871,17.056,16.904,18,15.718,18z"/>
	<path style="fill:#FFFFFF;" d="M23.605,6.509C23.92,6.46,24.307,6.46,24.67,6.46c3.41,0,5.492,1.862,5.492,5.564
		c0,4.016-2.057,5.976-6.557,5.976c-1.428,0-2.855-0.217-4.137-0.533v-2.369c1.209,0.313,2.297,0.579,3.436,0.579
		c2.322,0,3.24-1.161,3.24-3.532c0-2.056-1.064-3.29-3.555-3.29c-0.775,0-1.814,0.026-2.564,0.122V0.193h9.459v2.324h-5.879V6.509z"
		/>
</g>
</svg>
