<?xml version="1.0" encoding="iso-8859-1"?>
<!-- Generator: Adobe Illustrator 14.0.0, SVG Export Plug-In . SVG Version: 6.00 Build 43363)  -->
<!DOCTYPE svg PUBLIC "-//W3C//DTD SVG 1.1//EN" "http://www.w3.org/Graphics/SVG/1.1/DTD/svg11.dtd">
<svg version="1.1" id="icon-s-status-cyrillic-uppercase-layer"
	 xmlns="http://www.w3.org/2000/svg" xmlns:xlink="http://www.w3.org/1999/xlink" x="0px" y="0px" width="31px" height="17px"
	 viewBox="0 0 31 17" style="enable-background:new 0 0 31 17;" xml:space="preserve">
<g id="icon-s-status-cyrillic-uppercase">
	<rect style="fill:none;" width="31" height="16.52"/>
	<g>
		<path style="fill:#FFFFFF;" d="M13.15,14.701c-0.82-1.08-1.24-2.861-1.24-5.402c0-2.48,0.38-4.34,1.121-5.58
			c0.74-1.241,1.84-1.86,3.32-1.86h1.761c0.42,0,0.74-0.081,0.939-0.241c0.201-0.16,0.361-0.52,0.44-1.1h1.521
			c-0.16,1.341-0.48,2.201-0.96,2.561c-0.48,0.36-1.141,0.541-1.94,0.541h-1.66c-0.801,0-1.421,0.279-1.861,0.84
			c-0.44,0.56-0.72,1.42-0.84,2.541c0.8-1.102,1.94-1.661,3.421-1.661c1.46,0,2.601,0.479,3.421,1.421
			c0.801,0.939,1.22,2.24,1.22,3.859c0,1.9-0.419,3.322-1.239,4.262s-2.041,1.42-3.682,1.42C15.23,16.301,13.97,15.762,13.15,14.701
			z M18.932,13.881c0.46-0.721,0.68-1.82,0.68-3.262c0-1.159-0.24-2.1-0.7-2.84c-0.479-0.74-1.14-1.1-2.021-1.1
			c-0.92,0-1.62,0.32-2.08,0.979c-0.44,0.66-0.68,1.64-0.68,2.96c0,1.441,0.24,2.541,0.68,3.262c0.46,0.721,1.16,1.08,2.08,1.08
			C17.791,14.961,18.471,14.602,18.932,13.881z"/>
	</g>
	<path style="fill:#FFFFFF;" d="M11.208,16.301h-2.2l-0.96-3.34H3.207l-0.96,3.34h-1.92L4.647,1.738h2.32L11.208,16.301z
		 M7.667,11.5l-2.02-7.582L3.587,11.5H7.667z"/>
	<path style="fill:#FFFFFF;" d="M23.689,16.16V4.498h3.396c1.906,0,3.253,0.705,3.253,2.82c0,1.314-0.608,2.229-1.843,2.691
		c1.521,0.352,2.179,1.328,2.179,2.867c0,2.404-1.569,3.283-3.829,3.283H23.689z M26.574,9.561c1.426,0,2.034-0.705,2.034-2.083
		c0-1.217-0.577-1.81-1.794-1.81h-1.459v3.893H26.574z M26.766,14.992c1.586,0,2.18-0.674,2.18-2.162c0-1.492-0.754-2.18-2.211-2.18
		h-1.379v4.342H26.766z"/>
</g>
</svg>
