<?xml version="1.0" encoding="iso-8859-1"?>
<!-- Generator: Adobe Illustrator 14.0.0, SVG Export Plug-In . SVG Version: 6.00 Build 43363)  -->
<!DOCTYPE svg PUBLIC "-//W3C//DTD SVG 1.1//EN" "http://www.w3.org/Graphics/SVG/1.1/DTD/svg11.dtd">
<svg version="1.1" id="icon-m-toolbar-list-layer" xmlns="http://www.w3.org/2000/svg" xmlns:xlink="http://www.w3.org/1999/xlink"
	 x="0px" y="0px" width="32px" height="32px" viewBox="0 0 32 32" style="enable-background:new 0 0 32 32;" xml:space="preserve">
<g id="icon-m-toolbar-list">
	<rect style="fill:none;" width="32" height="32"/>
	<path style="fill:#FFFFFF;" d="M3.127,8.312C1.4,8.312,0,6.913,0,5.185c0-1.729,1.4-3.128,3.127-3.128
		c1.729,0,3.128,1.398,3.128,3.128C6.255,6.913,4.856,8.312,3.127,8.312"/>
	<path style="fill:#FFFFFF;" d="M32,6.437c0,0.687-0.564,1.25-1.252,1.25H11.26c-0.688,0-1.251-0.563-1.251-1.25V3.934
		c0-0.688,0.562-1.251,1.251-1.251h19.488C31.436,2.683,32,3.245,32,3.934V6.437z"/>
	<path style="fill:#FFFFFF;" d="M3.127,19.128C1.4,19.128,0,17.728,0,15.999c0-1.729,1.4-3.127,3.127-3.127
		c1.729,0,3.128,1.397,3.128,3.127C6.255,17.728,4.856,19.128,3.127,19.128"/>
	<path style="fill:#FFFFFF;" d="M32,17.25c0,0.688-0.564,1.251-1.252,1.251H11.26c-0.688,0-1.251-0.563-1.251-1.251v-2.502
		c0-0.688,0.562-1.251,1.251-1.251h19.488c0.688,0,1.252,0.562,1.252,1.251V17.25z"/>
	<path style="fill:#FFFFFF;" d="M3.127,29.942C1.4,29.942,0,28.542,0,26.813s1.4-3.127,3.127-3.127c2.561,0,3.128,1.4,3.128,3.127
		C6.255,28.542,4.856,29.942,3.127,29.942"/>
	<path style="fill:#FFFFFF;" d="M32,28.064c0,0.688-0.564,1.251-1.252,1.251H11.26c-0.688,0-1.251-0.562-1.251-1.251v-2.503
		c0-0.689,0.562-1.25,1.251-1.25h19.488c0.688,0,1.252,0.561,1.252,1.25V28.064z"/>
</g>
</svg>
