<?xml version="1.0" encoding="utf-8"?>
<!-- Generator: Adobe Illustrator 14.0.0, SVG Export Plug-In . SVG Version: 6.00 Build 43363)  -->
<!DOCTYPE svg PUBLIC "-//W3C//DTD SVG 1.1//EN" "http://www.w3.org/Graphics/SVG/1.1/DTD/svg11.dtd">
<svg version="1.1"
	 id="icon-theme-thumbnail" xmlns:dc="http://purl.org/dc/elements/1.1/" xmlns:cc="http://creativecommons.org/ns#" xmlns:rdf="http://www.w3.org/1999/02/22-rdf-syntax-ns#" xmlns:sodipodi="http://sodipodi.sourceforge.net/DTD/sodipodi-0.dtd" xmlns:svg="http://www.w3.org/2000/svg" xmlns:inkscape="http://www.inkscape.org/namespaces/inkscape" sodipodi:docname="icon-l-theme-meego.svg" inkscape:version="0.47pre4 r22446"
	 xmlns="http://www.w3.org/2000/svg" xmlns:xlink="http://www.w3.org/1999/xlink" x="0px" y="0px" width="87px" height="87px"
	 viewBox="0 0 87 87" enable-background="new 0 0 87 87" xml:space="preserve">
<g>
	<g>
		<linearGradient id="SVGID_1_" gradientUnits="userSpaceOnUse" x1="43.4995" y1="0.5" x2="43.4995" y2="86.5005">
			<stop  offset="0" style="stop-color:#8BADAD"/>
			<stop  offset="1" style="stop-color:#2C474D"/>
		</linearGradient>
		<rect x="0.5" y="0.5" fill="url(#SVGID_1_)" width="86" height="86"/>
		<path fill="#555A5B" d="M86,1v85H1V1H86 M87,0H0v87h87V0L87,0z"/>
	</g>
	<g>
		<path fill="#7C8384" d="M85,2v83H2V2H85 M86,1H1v85h85V1L86,1z"/>
	</g>
	<g>
		<path opacity="0.6" fill="#151616" d="M19.825,72.275c-0.716,0.188-1.462-0.242-1.659-0.957l-4.568-16.606
			c-0.196-0.714,0.217-1.492,0.918-1.729l20.369-6.89c0.701-0.237,1.651,0.044,2.11,0.624l6.952,8.78
			c0.46,0.581,0.429,1.506-0.068,2.054l-1.975,2.179c-0.497,0.549-0.957,1.336-1.023,1.75c-0.065,0.413-0.692,0.557-1.394,0.318
			l-11.582-3.94c-0.701-0.238-0.954,0.08-0.563,0.708l2.873,4.609c0.391,0.627,1.318,1.133,2.058,1.122l8.099-0.117
			c0.741-0.012,1.452,0.484,1.581,1.102c0.128,0.616-0.352,1.275-1.067,1.463L19.825,72.275z"/>
		<path opacity="0.6" fill="#151616" d="M43.075,67.223c0.041-0.739-0.533-1.345-1.273-1.345H16.955c-0.74,0-1.25,0.598-1.134,1.33
			l1.026,6.453c0.117,0.731,0.816,1.296,1.556,1.254l22.988-1.298c0.739-0.041,1.376-0.68,1.417-1.419L43.075,67.223z"/>
		<path opacity="0.6" fill="#151616" d="M66.164,69.013c0.737,0.073,1.406-0.468,1.488-1.203l3.984-35.917
			c0.081-0.736-0.41-1.575-1.092-1.864l-13.21-5.624c-0.681-0.29-1.614-0.053-2.073,0.528l-6.951,8.78
			c-0.46,0.581-0.429,1.504,0.068,2.053l1.974,2.18c0.497,0.549,0.822,1.476,0.722,2.059c-0.099,0.584,0.425,1.035,1.164,1.001
			l11.576-0.521c0.74-0.033,1.296,0.543,1.233,1.282L63.707,57.84c-0.062,0.737-0.706,1.229-1.435,1.091l-9.471-1.802
			c-0.728-0.139-1.74-0.253-2.253-0.253c-0.512,0-0.907,0.605-0.88,1.346l0.295,7.822c0.028,0.74,0.654,1.405,1.391,1.479
			L66.164,69.013z"/>
		<path opacity="0.6" fill="#151616" d="M49.18,67.223c-0.04-0.739,0.532-1.376,1.271-1.415l17.622-0.932
			c0.74-0.039,1.249,0.527,1.133,1.258l-1.026,6.452c-0.115,0.731-0.816,1.318-1.557,1.302l-15.757-0.318
			c-0.74-0.015-1.378-0.632-1.418-1.371L49.18,67.223z"/>
		<path opacity="0.6" fill="#151616" d="M65.094,67.82l9.669,0.391c0.74,0.029,1.244,0.464,1.119,0.963
			c-0.125,0.502-0.831,0.853-1.567,0.781l-9.283-0.889"/>
		<path opacity="0.6" fill="#151616" d="M71.374,70.078c-0.378,0.832-0.01,1.814,0.822,2.193l4.053,1.841
			c0.835,0.38,1.816,0.011,2.194-0.823l3.683-8.105c0.379-0.834,0.01-1.814-0.822-2.193l-4.054-1.841
			c-0.833-0.378-1.815-0.011-2.194,0.822L71.374,70.078z"/>
		<path opacity="0.6" fill="#151616" d="M20.409,68.192l-9.344-2.516c-0.715-0.192-1.325,0.07-1.354,0.585s0.539,1.062,1.263,1.213
			l9.124,1.925"/>
		<path opacity="0.6" fill="#151616" d="M13.372,67.116c0.08,0.563-0.315,1.093-0.878,1.175l-3.673,0.54
			c-0.563,0.083-1.087-0.31-1.167-0.873l-0.917-6.515c-0.08-0.562,0.315-1.09,0.878-1.173l3.671-0.539
			c0.563-0.082,1.089,0.311,1.167,0.874L13.372,67.116z"/>
		<path opacity="0.6" fill="#151616" d="M14.078,66.486c-0.269-0.117-1.44-0.341-1.418,0.087c0.027,0.612,1.388,0.532,1.765,0.597"
			/>
		<path opacity="0.6" fill="#151616" d="M71.751,68.208c0.268,0.029,0.877-0.302,1.099-0.079c0.087,0.087,0.068,0.342,0.016,0.438
			c-0.239,0.439-1.135,0.277-1.529,0.277"/>
	</g>
	<g>
		<g opacity="0.2">
			<g>
				<defs>
					<rect id="SVGID_2_" x="16.877" y="77.634" width="25.49" height="2.946"/>
				</defs>
				<clipPath id="SVGID_3_">
					<use xlink:href="#SVGID_2_"  overflow="visible"/>
				</clipPath>
				<g clip-path="url(#SVGID_3_)">
					<defs>
						<rect id="SVGID_4_" x="16.877" y="77.634" width="25.49" height="2.946"/>
					</defs>
					<clipPath id="SVGID_5_">
						<use xlink:href="#SVGID_4_"  overflow="visible"/>
					</clipPath>
					<path clip-path="url(#SVGID_5_)" fill="#231F20" d="M42.367,79.107c0,0.813-5.707,1.473-12.746,1.473
						s-12.745-0.66-12.745-1.473c0-0.814,5.707-1.474,12.745-1.474S42.367,78.293,42.367,79.107"/>
				</g>
			</g>
		</g>
		<path fill="#FFC70D" d="M19.825,71.377c-0.716,0.188-1.462-0.242-1.659-0.957l-4.568-16.607c-0.196-0.714,0.217-1.491,0.918-1.729
			l20.369-6.889c0.701-0.238,1.651,0.044,2.11,0.623l6.952,8.781c0.46,0.581,0.429,1.505-0.068,2.054l-1.975,2.179
			c-0.497,0.549-0.957,1.336-1.023,1.749c-0.065,0.414-0.692,0.557-1.394,0.319l-11.582-3.94c-0.701-0.239-0.954,0.079-0.563,0.708
			l2.873,4.608c0.391,0.628,1.318,1.134,2.058,1.123l8.099-0.118c0.741-0.011,1.452,0.484,1.581,1.102
			c0.128,0.616-0.352,1.275-1.067,1.464L19.825,71.377z"/>
		<path fill="#58595B" d="M28.722,52.203c-0.125-0.603,0.262-1.195,0.866-1.321c0.605-0.128,1.198,0.262,1.325,0.865"/>
		<path fill="#58595B" d="M32.983,51.313c-0.125-0.604,0.262-1.196,0.866-1.323c0.605-0.126,1.198,0.262,1.323,0.867"/>
		<path fill="#231F20" d="M24.125,70.982l0.2,7.857c0.019,0.74,0.639,1.362,1.379,1.383l1.545,0.043
			c0.74,0.021,1.373-0.175,1.405-0.434c0.033-0.259-0.518-0.655-1.222-0.881l-0.377-0.12c-0.706-0.226-1.273-1.016-1.26-1.756
			l0.095-5.856"/>
		<path fill="#231F20" d="M31.067,69.533l0.201,7.857c0.019,0.74,0.64,1.362,1.38,1.383l1.544,0.043
			c0.741,0.02,1.373-0.175,1.405-0.434c0.032-0.26-0.518-0.656-1.223-0.881l-0.376-0.121c-0.706-0.226-1.273-1.016-1.26-1.756
			l0.095-5.856"/>
		<path fill="#53B57B" d="M43.075,66.324c0.041-0.739-0.533-1.345-1.273-1.345H16.955c-0.74,0-1.25,0.598-1.134,1.329l1.026,6.454
			c0.117,0.731,0.816,1.296,1.556,1.254l22.988-1.298c0.739-0.041,1.376-0.681,1.417-1.419L43.075,66.324z"/>
		<path fill="#50C2E6" d="M66.164,68.114c0.737,0.072,1.406-0.469,1.488-1.204l3.984-35.917c0.081-0.736-0.41-1.575-1.092-1.864
			l-13.21-5.624c-0.681-0.29-1.614-0.053-2.073,0.528l-6.951,8.78c-0.46,0.581-0.429,1.504,0.068,2.053l1.974,2.18
			c0.497,0.548,0.822,1.475,0.722,2.058c-0.099,0.584,0.425,1.035,1.164,1.001l11.576-0.521c0.74-0.033,1.296,0.543,1.233,1.282
			l-1.341,16.074c-0.062,0.737-0.706,1.228-1.435,1.09l-9.471-1.801c-0.728-0.139-1.74-0.253-2.253-0.253
			c-0.512,0-0.907,0.605-0.88,1.346l0.295,7.822c0.028,0.739,0.654,1.405,1.391,1.479L66.164,68.114z"/>
		<path fill="#58595B" d="M63.533,30.418c0.127-0.604-0.262-1.196-0.864-1.322c-0.605-0.126-1.198,0.261-1.325,0.865"/>
		<path fill="#58595B" d="M59.271,29.528c0.128-0.604-0.26-1.197-0.864-1.322c-0.604-0.126-1.196,0.26-1.323,0.865"/>
		<path fill="#231F20" d="M63.639,70.982l-0.201,7.857c-0.02,0.74-0.64,1.362-1.38,1.383l-1.546,0.043
			c-0.739,0.021-1.372-0.175-1.404-0.434c-0.033-0.259,0.518-0.655,1.223-0.881l0.379-0.12c0.704-0.226,1.271-1.016,1.259-1.756
			l-0.095-5.856"/>
		<path fill="#231F20" d="M56.695,69.533l-0.201,7.857c-0.019,0.74-0.64,1.362-1.38,1.383l-1.546,0.043
			c-0.739,0.02-1.372-0.175-1.404-0.434c-0.031-0.26,0.52-0.656,1.224-0.881l0.378-0.121c0.705-0.226,1.272-1.016,1.261-1.756
			l-0.096-5.856"/>
		<path fill="#EB6055" d="M49.18,66.324c-0.04-0.739,0.532-1.377,1.271-1.415l17.622-0.933c0.74-0.038,1.249,0.527,1.133,1.258
			l-1.026,6.453c-0.115,0.731-0.816,1.317-1.557,1.302l-15.757-0.318c-0.74-0.016-1.378-0.633-1.418-1.371L49.18,66.324z"/>
		<path fill="#231F20" d="M65.094,66.922l9.669,0.391c0.74,0.029,1.244,0.463,1.119,0.963c-0.125,0.501-0.831,0.853-1.567,0.781
			l-9.283-0.89"/>
		<path fill="#FFC70D" d="M71.374,69.18c-0.378,0.832-0.01,1.814,0.822,2.192l4.053,1.842c0.835,0.379,1.816,0.011,2.194-0.823
			l3.683-8.105c0.379-0.834,0.01-1.814-0.822-2.194L77.25,60.25c-0.833-0.378-1.815-0.01-2.194,0.823L71.374,69.18z"/>
		
			<rect x="73.861" y="62.832" transform="matrix(-0.9104 -0.4137 0.4137 -0.9104 119.2861 159.051)" fill="#58595B" width="6.004" height="7.559"/>
		<g opacity="0.2">
			<g>
				<defs>
					<rect id="SVGID_6_" x="49.323" y="77.672" width="18.762" height="2.946"/>
				</defs>
				<clipPath id="SVGID_7_">
					<use xlink:href="#SVGID_6_"  overflow="visible"/>
				</clipPath>
				<g clip-path="url(#SVGID_7_)">
					<defs>
						<rect id="SVGID_8_" x="49.323" y="77.672" width="18.762" height="2.946"/>
					</defs>
					<clipPath id="SVGID_9_">
						<use xlink:href="#SVGID_8_"  overflow="visible"/>
					</clipPath>
					<path clip-path="url(#SVGID_9_)" fill="#231F20" d="M68.085,79.145c0,0.813-4.2,1.474-9.381,1.474s-9.382-0.66-9.382-1.474
						s4.201-1.473,9.382-1.473S68.085,78.331,68.085,79.145"/>
				</g>
			</g>
		</g>
		<path fill="#231F20" d="M20.409,67.294l-9.344-2.516c-0.715-0.193-1.325,0.07-1.354,0.585c-0.03,0.514,0.539,1.061,1.263,1.213
			l9.124,1.925"/>
		<path fill="#50C1E6" d="M13.372,66.218c0.08,0.563-0.315,1.092-0.878,1.175L8.82,67.932c-0.563,0.084-1.087-0.31-1.167-0.872
			l-0.917-6.515c-0.08-0.563,0.315-1.091,0.878-1.173l3.671-0.539c0.563-0.083,1.089,0.311,1.167,0.873L13.372,66.218z"/>
		<polygon fill="#58595B" points="12.585,66.328 8.487,66.771 7.474,60.271 11.533,59.784 		"/>
		<path fill="#231F20" d="M14.078,65.588c-0.269-0.118-1.44-0.341-1.418,0.087c0.027,0.611,1.388,0.531,1.765,0.597"/>
		<path fill="#231F20" d="M71.751,67.309c0.268,0.03,0.877-0.302,1.099-0.079c0.087,0.087,0.068,0.342,0.016,0.438
			c-0.239,0.438-1.135,0.276-1.529,0.276"/>
	</g>
</g>
</svg>
