<?xml version="1.0" encoding="iso-8859-1"?>
<!-- Generator: Adobe Illustrator 14.0.0, SVG Export Plug-In . SVG Version: 6.00 Build 43363)  -->
<!DOCTYPE svg PUBLIC "-//W3C//DTD SVG 1.1//EN" "http://www.w3.org/Graphics/SVG/1.1/DTD/svg11.dtd">
<svg version="1.1" id="icon-s-telephony-call-missed-layer"
	 xmlns="http://www.w3.org/2000/svg" xmlns:xlink="http://www.w3.org/1999/xlink" x="0px" y="0px" width="18px" height="18px"
	 viewBox="0 0 18 18" style="enable-background:new 0 0 18 18;" xml:space="preserve">
<g id="icon-s-telephony-call-missed">
	<rect style="fill:none;" width="18" height="18"/>
	<path style="fill:#FFFFFF;" d="M16.99,7.391h-2.341c-0.28,0-0.509,0.229-0.509,0.51v0.364c-0.006,2.097-1.506,4.181-3.358,4.181
		c-1.842,0-3.335-2.065-3.355-4.146V7.391h3.254c0.28,0,0.348-0.162,0.149-0.359L6.082,2.283c-0.198-0.198-0.521-0.198-0.719,0
		L0.614,7.031C0.415,7.229,0.483,7.391,0.764,7.391h3.297V8.3c0.022,4.184,3.026,7.565,6.722,7.565c3.624,0,6.574-3.251,6.71-7.319
		C17.496,8.525,17.5,8.504,17.5,8.481V7.899C17.5,7.62,17.271,7.391,16.99,7.391z"/>
</g>
</svg>
