<?xml version="1.0" encoding="iso-8859-1"?>
<!-- Generator: Adobe Illustrator 14.0.0, SVG Export Plug-In . SVG Version: 6.00 Build 43363)  -->
<!DOCTYPE svg PUBLIC "-//W3C//DTD SVG 1.1//EN" "http://www.w3.org/Graphics/SVG/1.1/DTD/svg11.dtd">
<svg version="1.1" id="icon-s-status-am-layer" xmlns="http://www.w3.org/2000/svg" xmlns:xlink="http://www.w3.org/1999/xlink"
	 x="0px" y="0px" width="18px" height="18px" viewBox="0 0 18 18" style="enable-background:new 0 0 18 18;" xml:space="preserve">
<g id="icon-s-status-am">
	<rect style="fill:none;" width="18" height="18"/>
	<g>
		<path style="fill:#FFFFFF;" d="M3.631,10.399c0,0.564,0.261,0.564,0.452,0.564c0.508,0,0.765-0.311,0.765-0.923V9.578H4.699
			C3.76,9.578,3.631,9.973,3.631,10.399z"/>
		<path style="fill:#FFFFFF;" d="M18,8.765c0-0.045-0.002-0.084-0.002-0.129c-0.01-1.374-0.135-2.538-0.373-3.526
			c0,0.001,0.002,0.001,0.004,0.001c-0.008-0.031-0.018-0.06-0.025-0.091c-0.029-0.119-0.062-0.236-0.096-0.352
			c-0.02-0.062-0.039-0.123-0.057-0.184c-0.008-0.021-0.012-0.042-0.018-0.062c-0.004-0.011-0.008-0.021-0.012-0.032
			c0,0-0.002-0.003-0.002-0.004c-0.035-0.105-0.07-0.207-0.109-0.309c-0.031-0.082-0.062-0.164-0.098-0.244
			c-0.049-0.119-0.102-0.234-0.156-0.348c-0.002-0.001-0.002-0.002-0.002-0.003c-0.004-0.007-0.006-0.014-0.01-0.021
			c-0.002-0.006-0.006-0.012-0.01-0.018c-0.016-0.032-0.031-0.065-0.049-0.098c-0.012-0.022-0.027-0.04-0.039-0.062
			c-0.051-0.09-0.098-0.182-0.15-0.268c-0.113-0.192-0.238-0.372-0.371-0.542c-0.002-0.004-0.006-0.007-0.008-0.011
			c-0.074-0.096-0.158-0.179-0.238-0.268c-0.129-0.146-0.264-0.285-0.408-0.413c-0.104-0.094-0.209-0.186-0.32-0.271
			c-0.176-0.134-0.361-0.255-0.555-0.368c-0.156-0.091-0.32-0.174-0.488-0.252c-0.162-0.076-0.328-0.148-0.502-0.213
			c-0.082-0.03-0.152-0.072-0.236-0.101c0,0.005,0,0.012,0,0.012c-0.496-0.161-1.035-0.289-1.613-0.38
			c-0.002-0.004-0.002-0.007-0.002-0.011c-0.039-0.006-0.084-0.008-0.125-0.014c-0.016-0.002-0.033-0.003-0.049-0.005
			c-0.326-0.047-0.662-0.086-1.014-0.113c-0.041-0.004-0.086-0.005-0.127-0.008c-0.014-0.001-0.023-0.003-0.035-0.004
			c-0.062-0.005-0.125-0.009-0.188-0.013c-0.027-0.002-0.059-0.001-0.084-0.003c-0.115-0.007-0.227-0.018-0.346-0.021
			c-0.065-0.003-0.136-0.002-0.202-0.004C9.672,0.01,9.461,0.002,9.236,0.002l0,0L9.055,0.001C9.04,0.001,9.028,0,9.014,0
			C9.002,0,8.991,0.001,8.979,0.001L8.769,0H8.765h0c0,0,0,0-0.001,0C8.274,0,7.821,0.021,7.384,0.051
			C7.321,0.055,7.258,0.06,7.197,0.064C6.488,0.121,5.842,0.215,5.26,0.348c-0.049,0.01-0.103,0.018-0.15,0.029l0-0.005
			C4.872,0.429,4.645,0.495,4.423,0.567C4.407,0.572,4.387,0.576,4.37,0.582V0.581C4.369,0.582,4.368,0.583,4.367,0.583
			C4.353,0.587,4.34,0.593,4.326,0.598c-0.23,0.079-0.45,0.169-0.663,0.265C3.626,0.88,3.589,0.897,3.553,0.914
			c-0.03,0.014-0.061,0.027-0.09,0.041c-0.106,0.053-0.208,0.113-0.31,0.173c-0.056,0.031-0.116,0.06-0.17,0.094
			C2.826,1.317,2.68,1.421,2.538,1.526C2.517,1.542,2.496,1.559,2.474,1.575C2.463,1.584,2.451,1.592,2.439,1.602
			C2.4,1.632,2.369,1.668,2.331,1.699C2.197,1.811,2.067,1.924,1.947,2.045C1.887,2.106,1.833,2.174,1.775,2.238
			C1.684,2.34,1.593,2.443,1.511,2.553C1.454,2.628,1.401,2.707,1.349,2.785c-0.073,0.107-0.145,0.217-0.21,0.331
			c-0.049,0.085-0.096,0.172-0.142,0.26C0.936,3.493,0.879,3.612,0.826,3.735C0.785,3.828,0.745,3.921,0.708,4.018
			c-0.05,0.129-0.095,0.262-0.139,0.396C0.537,4.512,0.504,4.608,0.475,4.709C0.433,4.856,0.397,5.012,0.361,5.166
			C0.339,5.261,0.315,5.354,0.295,5.451C0.254,5.655,0.22,5.868,0.188,6.084c-0.01,0.068-0.021,0.135-0.031,0.204
			c-0.007,0.06-0.014,0.119-0.021,0.18c-0.02,0.169-0.043,0.335-0.058,0.511c-0.05,0.554-0.077,1.146-0.077,1.786l0,0.172
			C0.001,8.954,0,8.97,0,8.987C0,8.995,0,9.002,0,9.01l0,0.226v0.001c0,0,0,0.002,0,0.004c0,0.511,0.021,0.985,0.053,1.44
			c0.003,0.041,0.008,0.079,0.011,0.12c0.033,0.42,0.08,0.814,0.14,1.189c0.001,0.01,0.002,0.021,0.003,0.03
			c0.003,0.021,0.004,0.046,0.007,0.066l0.003-0.009c0.007,0.041,0.016,0.079,0.023,0.12c0.038,0.214,0.076,0.428,0.123,0.627
			c0.063,0.282,0.134,0.554,0.218,0.805h0h0c0,0.001,0,0.001,0,0.001c0.003,0.009,0.007,0.018,0.01,0.025
			c0.002,0.006,0.004,0.012,0.006,0.018c0.001,0.004,0.003,0.007,0.004,0.011l0.001,0.003c0.03,0.088,0.063,0.171,0.095,0.255
			c0.035,0.092,0.07,0.185,0.108,0.273c0.016,0.038,0.034,0.072,0.051,0.109c0.002,0.004,0.003,0.008,0.005,0.012
			c0.021,0.045,0.042,0.089,0.063,0.134c0.01,0.021,0.02,0.043,0.03,0.063c0.024,0.049,0.047,0.099,0.073,0.146
			c0.015,0.029,0.036,0.051,0.052,0.079c0.047,0.086,0.091,0.175,0.142,0.257c0.096,0.157,0.199,0.304,0.305,0.445
			c0.02,0.026,0.039,0.054,0.061,0.079c0.001,0.002,0.003,0.003,0.004,0.005c0.067,0.087,0.143,0.163,0.214,0.243
			c0.136,0.154,0.279,0.299,0.431,0.434c0.104,0.094,0.211,0.186,0.323,0.271c0.177,0.135,0.364,0.257,0.56,0.37
			c0.115,0.066,0.232,0.133,0.354,0.192c0.228,0.112,0.466,0.215,0.716,0.304c0.05,0.018,0.092,0.044,0.142,0.061
			c0-0.005-0.001-0.011-0.001-0.016c0.497,0.167,1.035,0.293,1.613,0.384c0.001,0.004,0.001,0.007,0.001,0.007
			c0.054,0.012,0.113,0.015,0.167,0.021c0.041,0.006,0.08,0.014,0.122,0.02c0.075,0.012,0.155,0.019,0.233,0.027
			c0.169,0.021,0.335,0.043,0.511,0.059c0.106,0.01,0.221,0.014,0.331,0.021c0.011,0.001,0.021,0.003,0.032,0.004
			c0.039,0.003,0.078,0.005,0.116,0.008c0.014,0.001,0.029,0.001,0.043,0.002c0.379,0.022,0.771,0.038,1.188,0.039
			c0.026,0,0.049,0.003,0.076,0.003h0.172C8.953,17.999,8.968,18,8.985,18c0,0,0.001,0,0.001,0h0.001h0c0.008,0,0.015,0,0.022,0
			h0.226c0,0,0.001,0,0.002,0c0.404,0,0.786-0.014,1.155-0.033c0.139-0.008,0.268-0.021,0.402-0.03
			c0.221-0.018,0.439-0.037,0.648-0.062c0.15-0.018,0.297-0.038,0.439-0.06c0.186-0.028,0.365-0.061,0.539-0.096
			c0.131-0.025,0.264-0.049,0.389-0.078c0.025-0.006,0.055-0.011,0.08-0.017v0.004c0.031-0.008,0.059-0.018,0.09-0.025
			c0.119-0.029,0.236-0.062,0.352-0.096c0.096-0.027,0.189-0.057,0.281-0.087c0.006-0.002,0.012-0.004,0.018-0.006v0.004
			c0.02-0.006,0.037-0.014,0.057-0.021c0.08-0.026,0.156-0.057,0.232-0.087h0.002l0,0c0.008-0.003,0.014-0.005,0.021-0.008
			c0.092-0.035,0.184-0.07,0.273-0.108c0.078-0.033,0.15-0.069,0.225-0.105c0.023-0.011,0.049-0.021,0.072-0.032
			c0.025-0.013,0.053-0.026,0.078-0.039c0.029-0.015,0.061-0.028,0.09-0.044c0.227-0.119,0.418-0.264,0.617-0.402
			c0.104-0.071,0.223-0.131,0.318-0.208c0.17-0.137,0.309-0.298,0.457-0.45c0.102-0.104,0.219-0.197,0.311-0.31
			c0.121-0.147,0.213-0.318,0.318-0.479c0.092-0.141,0.197-0.27,0.277-0.421c0.084-0.157,0.143-0.337,0.215-0.505
			c0.074-0.176,0.162-0.341,0.225-0.529l0,0v-0.001c-0.008,0.002-0.018,0.001-0.027,0.002c0.141-0.408,0.25-0.863,0.34-1.346
			c0.018-0.091,0.041-0.174,0.057-0.268c0.004-0.002,0.006-0.002,0.01-0.003c0.006-0.039,0.008-0.084,0.014-0.125
			c0.059-0.382,0.1-0.795,0.131-1.225v-0.001c0-0.016,0.004-0.029,0.004-0.045c0.004-0.038,0.006-0.077,0.008-0.115
			C17.982,10.127,18,9.696,18,9.236V9.055c0-0.015,0-0.026,0-0.041c0-0.013,0-0.024,0-0.037V8.765L18,8.765z M7.013,12.68H5.486
			l-0.1-0.391c-0.431,0.316-0.965,0.48-1.583,0.48c-1.441,0-2.336-0.903-2.336-2.358c0-2.24,1.986-2.494,3.381-2.522V7.634
			c0-0.395-0.109-0.608-0.687-0.608c-0.53,0-1.07,0.137-1.528,0.271l-0.64,0.188V5.616l0.369-0.1c0.7-0.189,1.377-0.286,2.012-0.286
			c1.677,0,2.639,0.909,2.639,2.493V12.68z M16.533,12.68h-2.164V7.802c0-0.776-0.262-0.776-0.451-0.776
			c-0.701,0-0.777,0.864-0.777,1.236v4.418h-2.164V7.802c0-0.776-0.297-0.776-0.475-0.776c-0.7,0-0.754,0.946-0.754,1.236v4.418
			H7.583V5.32h1.541l0.098,0.394c0.422-0.316,0.942-0.483,1.526-0.483c0.834,0,1.367,0.271,1.707,0.616
			c0.439-0.401,1.021-0.616,1.697-0.616c1.514,0,2.381,0.921,2.381,2.526V12.68z"/>
	</g>
</g>
</svg>
