<?xml version="1.0" encoding="iso-8859-1"?>
<!-- Generator: Adobe Illustrator 14.0.0, SVG Export Plug-In . SVG Version: 6.00 Build 43363)  -->
<!DOCTYPE svg PUBLIC "-//W3C//DTD SVG 1.1//EN" "http://www.w3.org/Graphics/SVG/1.1/DTD/svg11.dtd">
<svg version="1.1" id="icon-m-image-edit-autofix-all-layer"
	 xmlns="http://www.w3.org/2000/svg" xmlns:xlink="http://www.w3.org/1999/xlink" x="0px" y="0px" width="48px" height="48px"
	 viewBox="0 0 48 48" style="enable-background:new 0 0 48 48;" xml:space="preserve">
<g id="icon-m-image-edit-autofix-all">
	<rect style="fill:none;" width="48" height="48"/>
	<path style="fill:#333333;" d="M21.759,22.305c9.37,3.889,13.122-7.592,12.799-10.561c-0.268-2.453-0.589-3.681-1.393-2.677
		l-5.97,7.408c-3.753-0.574-6.322-3.074-7.716-6.151l5.939-7.539c1.494-1.854-4.194-0.988-7.715,1.587
		c-7.802,5.716-3.648,11.599-2.831,12.48L1.964,32.858c-0.606,0.756-0.486,1.86,0.272,2.468l4.116,3.289
		c0.758,0.605,1.867,0.482,2.479-0.272L21.759,22.305z"/>
	<path style="fill:#333333;" d="M42.066,27.75h-4.695L31.326,48h3.411l1.343-4.645h6.773L44.199,48H48L42.066,27.75z M36.732,40.79
		l2.764-10.007l2.741,10.053L36.732,40.79z"/>
</g>
</svg>
