<?xml version="1.0" encoding="iso-8859-1"?>
<!-- Generator: Adobe Illustrator 14.0.0, SVG Export Plug-In . SVG Version: 6.00 Build 43363)  -->
<!DOCTYPE svg PUBLIC "-//W3C//DTD SVG 1.1//EN" "http://www.w3.org/Graphics/SVG/1.1/DTD/svg11.dtd">
<svg version="1.1" id="icon-m-common-alphabetic-order-layer"
	 xmlns="http://www.w3.org/2000/svg" xmlns:xlink="http://www.w3.org/1999/xlink" x="0px" y="0px" width="48px" height="48px"
	 viewBox="0 0 48 48" style="enable-background:new 0 0 48 48;" xml:space="preserve">
<g id="icon-m-common-alphabetic-order_1_">
	<rect style="fill:none;" width="48" height="48"/>
	<path style="fill:#333333;" d="M28.5,14.891h3.36c0.825,0,1.163-0.584,0.75-1.299l-5.371-9.305
		c-0.413-0.715-1.091-0.716-1.508-0.005l-5.449,9.313c-0.417,0.713-0.083,1.295,0.742,1.295H24v29.432h4.5V14.891z"/>
	<path style="fill:#333333;" d="M14.927,20.392H10.92l-0.825-3.458H5.561l-0.847,3.458H1.302L5.973,3.721h4.58L14.927,20.392z
		 M9.637,14.736L7.851,6.904l-1.832,7.832H9.637z"/>
	<path style="fill:#333333;" d="M13.301,29.326L7.232,42.082h5.977v2.198H2.881v-1.719L8.95,29.808H3.248v-2.2h10.054V29.326z"/>
</g>
</svg>
