<?xml version="1.0" encoding="iso-8859-1"?>
<!-- Generator: Adobe Illustrator 14.0.0, SVG Export Plug-In . SVG Version: 6.00 Build 43363)  -->
<!DOCTYPE svg PUBLIC "-//W3C//DTD SVG 1.1//EN" "http://www.w3.org/Graphics/SVG/1.1/DTD/svg11.dtd">
<svg version="1.1" id="icon-m-camera-scene-sports-screen-layer"
	 xmlns="http://www.w3.org/2000/svg" xmlns:xlink="http://www.w3.org/1999/xlink" x="0px" y="0px" width="32px" height="32px"
	 viewBox="0 0 32 32" style="enable-background:new 0 0 32 32;" xml:space="preserve">
<g id="icon-m-camera-scene-sports-screen">
	<rect style="fill:none;" width="32" height="32"/>
	<path style="fill:#FFFFFF;" d="M28.945,17.43h-1.508c-0.826,0-1.619-0.658-1.766-1.465l-0.266-1.439
		c-0.146-0.805-0.744-1.936-1.332-2.514l-4.02-3.957c-0.586-0.578-1.727-1.197-2.531-1.373l-2.055-0.457
		c-0.806-0.178-1.954,0.137-2.554,0.699L10.268,9.4c-0.601,0.564-0.661,1.486-0.137,2.053c0.521,0.563,1.465,0.588,2.091,0.053
		l1.602-1.371c0.625-0.535,1.353-0.725,1.611-0.42c0.259,0.305,0.013,1.039-0.559,1.629l-3.707,3.85
		c-0.569,0.598-1.117,1.742-1.216,2.559L9.72,19.686c-0.101,0.813-0.715,1.889-1.368,2.389L2.016,26.93
		c-0.651,0.5-0.836,1.482-0.408,2.182l0.412,0.674c0.432,0.699,1.327,0.885,1.995,0.4l7.817-5.613
		c0.669-0.479,1.405-0.656,1.64-0.396c0.233,0.26-0.103,0.893-0.745,1.4l-1.896,1.512c-0.646,0.514-0.749,1.455-0.232,2.094
		l0.375,0.461c0.521,0.639,1.479,0.756,2.129,0.256l6.479-4.926c0.65-0.498,0.76-1.422,0.23-2.053l-1.818-2.184
		c-0.525-0.629-0.479-1.621,0.104-2.195l3.074-3.059c0.584-0.578,1.203-0.395,1.381,0.402l0.633,2.883
		c0.178,0.799,0.996,1.455,1.82,1.455h3.941c0.824,0,1.5-0.627,1.5-1.396C30.445,18.059,29.77,17.43,28.945,17.43z"/>
	<ellipse style="fill:#FFFFFF;" cx="25.977" cy="5.47" rx="4.23" ry="4.202"/>
</g>
</svg>
