<?xml version="1.0" encoding="iso-8859-1"?>
<!-- Generator: Adobe Illustrator 14.0.0, SVG Export Plug-In . SVG Version: 6.00 Build 43363)  -->
<!DOCTYPE svg PUBLIC "-//W3C//DTD SVG 1.1//EN" "http://www.w3.org/Graphics/SVG/1.1/DTD/svg11.dtd">
<svg version="1.1" id="icon-m-telephony-volume-off-layer"
	 xmlns="http://www.w3.org/2000/svg" xmlns:xlink="http://www.w3.org/1999/xlink" x="0px" y="0px" width="48px" height="48px"
	 viewBox="0 0 48 48" style="enable-background:new 0 0 48 48;" xml:space="preserve">
<g id="icon-m-telephony-volume-off">
	<rect style="fill:none;" width="48" height="48"/>
	<path style="fill:#333333;" d="M36.033,40.678l1.815-1.817L4.098,5.113L2.283,6.928L36.033,40.678z"/>
	<path style="fill:#333333;" d="M25.697,7.5c0-0.173-0.122-0.314-0.266-0.314h-0.645c-0.149,0-0.368,0.08-0.487,0.178l-11.161,9.243
		H0v14.417h13.026l11.302,9.34c0.119,0.102,0.336,0.176,0.487,0.176h0.644c0.144,0,0.267-0.141,0.267-0.313L25.697,7.5z
		 M14.82,28.852l-0.781-0.646h-1.013H2.818v-8.781h10.321h1.015l0.782-0.647l7.948-6.583l0.02,23.337L14.82,28.852z"/>
</g>
</svg>
