<?xml version="1.0" encoding="iso-8859-1"?>
<!-- Generator: Adobe Illustrator 14.0.0, SVG Export Plug-In . SVG Version: 6.00 Build 43363)  -->
<!DOCTYPE svg PUBLIC "-//W3C//DTD SVG 1.1//EN" "http://www.w3.org/Graphics/SVG/1.1/DTD/svg11.dtd">
<svg version="1.1" id="icon-m-camera-whitebalance-tungsten-selected-layer"
	 xmlns="http://www.w3.org/2000/svg" xmlns:xlink="http://www.w3.org/1999/xlink" x="0px" y="0px" width="48px" height="48px"
	 viewBox="0 0 48 48" style="enable-background:new 0 0 48 48;" xml:space="preserve">
<g id="icon-m-camera-whitebalance-tungsten-selected">
	<rect style="fill:none;" width="48" height="48"/>
	<path style="fill:#63AF45;" d="M30.261,40.265c0,0.829-0.671,1.5-1.5,1.5h-9.521c-0.828,0-1.5-0.671-1.5-1.5l0,0
		c0-0.829,0.672-1.5,1.5-1.5h9.521C29.59,38.765,30.261,39.436,30.261,40.265L30.261,40.265z"/>
	<path style="fill:#63AF45;" d="M30.261,45.641c0,0.828-0.671,1.5-1.5,1.5h-9.521c-0.828,0-1.5-0.672-1.5-1.5l0,0
		c0-0.828,0.672-1.5,1.5-1.5h9.521C29.59,44.141,30.261,44.812,30.261,45.641L30.261,45.641z"/>
	<path style="fill:#63AF45;" d="M26.8,36.418h-5.599c-2.861,0-5.188-2.37-5.188-5.285v0.885c0-1.694-1.318-3.252-2.987-5.225
		c-2.413-2.847-5.411-6.38-5.411-12.026c0-6.688,6.265-13.907,16.387-13.907c10.121,0,16.385,7.219,16.385,13.907
		c0,5.649-2.998,9.182-5.408,12.021c-1.676,1.983-2.99,3.54-2.99,5.23v-0.885C31.988,34.048,29.661,36.418,26.8,36.418L26.8,36.418z
		 M24.001,4.127c-8.105,0-13.122,5.521-13.122,10.64c0,4.447,2.355,7.224,4.632,9.906c1.941,2.296,3.766,4.455,3.766,7.345v-0.885
		c0,1.113,0.863,2.021,1.923,2.021H26.8c1.06,0,1.923-0.907,1.923-2.021v0.885c0-2.886,1.821-5.042,3.75-7.324
		c2.294-2.703,4.648-5.477,4.648-9.927C37.121,9.648,32.104,4.127,24.001,4.127L24.001,4.127z"/>
</g>
</svg>
