<?xml version="1.0" encoding="iso-8859-1"?>
<!-- Generator: Adobe Illustrator 14.0.0, SVG Export Plug-In . SVG Version: 6.00 Build 43363)  -->
<!DOCTYPE svg PUBLIC "-//W3C//DTD SVG 1.1//EN" "http://www.w3.org/Graphics/SVG/1.1/DTD/svg11.dtd">
<svg version="1.1" id="icon-m-content-top-rated-layer"
	 xmlns="http://www.w3.org/2000/svg" xmlns:xlink="http://www.w3.org/1999/xlink" x="0px" y="0px" width="48px" height="48px"
	 viewBox="0 0 48 48" style="enable-background:new 0 0 48 48;" xml:space="preserve">
<g id="icon-m-content-top-rated">
	<rect style="fill:none;" width="48" height="48"/>
	<path style="fill:#333333;" d="M42.256,34.555l-0.578-0.008v-3.305h5.721v-2.605h-8.922v8.662l0.547-0.051
		c0.416-0.039,1.475-0.131,2.308-0.131c2.075,0,3.042,0.911,3.042,2.867c0,2.316-0.817,3.262-2.822,3.262
		c-0.832,0-1.729-0.229-2.596-0.447l-0.963-0.243v2.672l0.367,0.102c1.103,0.305,2.346,0.479,3.412,0.479
		c3.967,0,5.979-1.981,5.979-5.891C47.75,36.459,45.799,34.555,42.256,34.555z"/>
	<path style="fill:#333333;" d="M33.188,41.426L33.188,41.426c-0.298,0-0.604-0.106-0.937-0.328L21.346,33.83
		c-0.283-0.188-0.907-0.188-1.192,0.002L9.245,41.098c-0.732,0.485-1.44,0.402-1.808-0.109c-0.248-0.346-0.28-0.801-0.094-1.352
		l4.229-12.591c0.107-0.319-0.052-0.829-0.32-1.028L0.945,18.358c-0.786-0.587-0.74-1.172-0.641-1.468s0.409-0.793,1.389-0.793
		h12.88c0.339,0,0.776-0.314,0.883-0.635l4.102-12.207c0.31-0.926,0.88-1.064,1.191-1.064c0.312,0,0.882,0.139,1.193,1.064
		l4.097,12.207c0.107,0.322,0.545,0.637,0.884,0.637h12.887c0.977,0,1.288,0.496,1.387,0.792c0.098,0.296,0.145,0.88-0.639,1.466
		l-10.307,7.658c-0.271,0.201-0.432,0.711-0.324,1.031l4.228,12.591c0.186,0.55,0.154,1.005-0.095,1.351
		C33.86,41.268,33.542,41.426,33.188,41.426L33.188,41.426z M20.75,32.015c0.563,0,1.103,0.152,1.519,0.43l9.94,6.624L28.35,27.575
		c-0.334-1.001,0.066-2.272,0.91-2.896l9.305-6.913H26.924c-1.05,0-2.132-0.779-2.463-1.774L20.75,4.934l-3.714,11.059
		c-0.333,0.992-1.416,1.771-2.463,1.771H2.937l9.305,6.916c0.844,0.623,1.244,1.896,0.908,2.896L9.291,39.066l9.94-6.621
		C19.649,32.167,20.188,32.015,20.75,32.015L20.75,32.015z"/>
</g>
</svg>
