<?xml version="1.0" encoding="iso-8859-1"?>
<!-- Generator: Adobe Illustrator 14.0.0, SVG Export Plug-In . SVG Version: 6.00 Build 43363)  -->
<!DOCTYPE svg PUBLIC "-//W3C//DTD SVG 1.1//EN" "http://www.w3.org/Graphics/SVG/1.1/DTD/svg11.dtd">
<svg version="1.1" id="icon-m-camera-resolution-53m-layer"
	 xmlns="http://www.w3.org/2000/svg" xmlns:xlink="http://www.w3.org/1999/xlink" x="0px" y="0px" width="32px" height="32px"
	 viewBox="0 0 32 32" style="enable-background:new 0 0 32 32;" xml:space="preserve">
<g id="icon-m-camera-resolution-53m">
	<rect style="fill:none;" width="32" height="32"/>
	<path style="fill:#FFFFFF;" d="M8.576,23.548c0.122-0.019,0.272-0.019,0.413-0.019c1.321,0,2.127,0.722,2.127,2.155
		c0,1.557-0.797,2.315-2.54,2.315c-0.553,0-1.106-0.085-1.603-0.206v-0.919c0.469,0.122,0.891,0.226,1.331,0.226
		c0.9,0,1.256-0.45,1.256-1.369c0-0.796-0.412-1.274-1.378-1.274c-0.3,0-0.703,0.01-0.993,0.047v-3.402h3.665v0.9H8.576V23.548z"/>
	<path style="fill:#FFFFFF;" d="M12.56,28c-0.459,0-0.825-0.366-0.825-0.825s0.365-0.834,0.825-0.834s0.834,0.375,0.834,0.834
		S13.02,28,12.56,28z"/>
	<path style="fill:#FFFFFF;" d="M15.447,21.927c-0.431,0-0.881,0.112-1.331,0.234v-0.909c0.487-0.122,1.06-0.226,1.641-0.226
		c1.284,0,2.212,0.432,2.212,1.697c0,0.796-0.44,1.34-1.237,1.583c0.881,0.16,1.358,0.76,1.358,1.594c0,1.5-0.946,2.1-2.605,2.1
		c-0.553,0-1.04-0.075-1.574-0.216v-0.909c0.563,0.132,1.003,0.226,1.425,0.226c0.862,0,1.199-0.413,1.199-1.172
		c0-1.003-0.581-1.181-2.024-1.181v-0.863c1.388,0,1.94-0.149,1.94-1.059C16.45,22.217,16.112,21.927,15.447,21.927z"/>
	<path style="fill:#FFFFFF;" d="M25.027,27.925h-1.509v-4.527l-1.19,2.306h-0.563l-1.172-2.306v4.527h-1.547v-6.823h1.35l1.65,3.225
		l1.649-3.225h1.331V27.925z"/>
	<polygon style="fill:#FFFFFF;" points="23.389,18.776 23.389,4 20.433,4 20.433,6.955 17.478,6.955 17.478,9.91 14.522,9.91 
		14.522,12.865 11.567,12.865 11.567,15.821 8.612,15.821 8.612,18.776 	"/>
</g>
</svg>
