<?xml version="1.0" encoding="iso-8859-1"?>
<!-- Generator: Adobe Illustrator 14.0.0, SVG Export Plug-In . SVG Version: 6.00 Build 43363)  -->
<!DOCTYPE svg PUBLIC "-//W3C//DTD SVG 1.1//EN" "http://www.w3.org/Graphics/SVG/1.1/DTD/svg11.dtd">
<svg version="1.1" id="icon-m-camera-sound-recording-on-screen-layer"
	 xmlns="http://www.w3.org/2000/svg" xmlns:xlink="http://www.w3.org/1999/xlink" x="0px" y="0px" width="32px" height="32px"
	 viewBox="0 0 32 32" style="enable-background:new 0 0 32 32;" xml:space="preserve">
<g id="icon-m-camera-sound-recording-on-screen">
	<rect style="fill:none;" width="32" height="32"/>
	<path style="fill:#FFFFFF;" d="M11.008,11.305l7.879,7.881l7.75-7.75c0.484-0.482,0.484-1.268,0-1.752l-6.125-6.131
		c-0.483-0.48-1.271-0.48-1.755,0L11.008,11.305z M15.086,9.406l1.5-1.5l5.7,5.701l-1.5,1.496L15.086,9.406z M15.169,18.65
		l-3.626-3.625l-7.589,8.414l2.798,2.799L15.169,18.65z M4.602,27.289l-1.703-1.705l-2.207,2.215L2.395,29.5L4.602,27.289z"/>
	<circle style="fill:#FFFFFF;" cx="25.801" cy="24.198" r="5.302"/>
</g>
</svg>
