<?xml version="1.0" encoding="iso-8859-1"?>
<!-- Generator: Adobe Illustrator 14.0.0, SVG Export Plug-In . SVG Version: 6.00 Build 43363)  -->
<!DOCTYPE svg PUBLIC "-//W3C//DTD SVG 1.1//EN" "http://www.w3.org/Graphics/SVG/1.1/DTD/svg11.dtd">
<svg version="1.1" id="icon-m-content-photos-videos-all-layer"
	 xmlns="http://www.w3.org/2000/svg" xmlns:xlink="http://www.w3.org/1999/xlink" x="0px" y="0px" width="48px" height="48px"
	 viewBox="0 0 48 48" style="enable-background:new 0 0 48 48;" xml:space="preserve">
<g id="icon-m-content-photos-videos-all">
	<rect style="fill:none;" width="48" height="48"/>
	<path style="fill:#333333;" d="M12.357,31.352c-0.119,0.25-0.371,0.429-0.667,0.429H8.724c-0.408,0-0.741-0.333-0.741-0.74v-2.935
		c0-0.405,0.333-0.741,0.741-0.741h2.967c0.296,0,0.548,0.178,0.667,0.429l0.063-17.854h0.012V9.914h21.105V16.5h4.349V9.938h1.861
		V8.074h-1.997c-0.408,0-0.742-0.996-0.742-1.405V3.702c0-0.408,0.334-0.741,0.742-0.741h1.997V0H0v2.926v0.035h2.017
		c0.406,0,0.74,0.333,0.74,0.741v2.934c0,0.406-0.334,1.403-0.74,1.403H0v0.035v1.84v0.023h8.695v14.905H0v0.024v2.46v0.034h2.017
		c0.406,0,0.74,0.337,0.74,0.742v2.935c0,0.407-0.334,0.739-0.74,0.739H0v0.035v2.347h12.357V31.352z M27.364,3.702
		c0-0.408,0.334-0.741,0.743-0.741h2.967c0.407,0,0.741,0.333,0.741,0.741v2.967c0,0.409-0.334,1.405-0.741,1.405h-2.967
		c-0.409,0-0.743-0.996-0.743-1.405V3.702z M17.688,3.702c0-0.408,0.335-0.741,0.743-0.741h2.968c0.408,0,0.74,0.333,0.74,0.741
		v2.967c0,0.409-0.332,1.405-0.74,1.405h-2.968c-0.408,0-0.743-0.996-0.743-1.405V3.702z M7.982,6.636V3.702
		c0-0.408,0.333-0.741,0.741-0.741h2.967c0.409,0,0.743,0.333,0.743,0.741v2.934c0,0.406-0.333,1.403-0.743,1.403H8.724
		C8.315,8.039,7.982,7.042,7.982,6.636z"/>
	<path style="fill:#333333;" d="M35.379,31.088c0.446,0,0.851-0.175,1.161-0.445c0.416,0.59,1.004,0.961,1.659,0.961
		c0.654,0,1.242-0.371,1.659-0.961c0.312,0.271,0.716,0.445,1.159,0.445c0.979,0,1.768-0.794,1.768-1.773
		c0-0.981-0.789-1.776-1.768-1.776c-0.224,0-0.438,0.045-0.638,0.126c-0.282-1.257-1.151-2.173-2.182-2.173
		s-1.898,0.916-2.184,2.173c-0.197-0.081-0.411-0.126-0.638-0.126c-0.975,0-1.766,0.795-1.766,1.776
		C33.613,30.294,34.404,31.088,35.379,31.088z"/>
	<path style="fill:#333333;" d="M34.109,37.924c-2.631-6.085-7.943-13.201-12.87,5.273H42.51
		C42.512,43.197,38.492,28.227,34.109,37.924z"/>
	<path style="fill:#333333;" d="M15.75,20.553V48H48V20.553H15.75z M18.495,45.256V23.23l26.761-0.022v22.048H18.495z"/>
</g>
</svg>
