<?xml version="1.0" encoding="iso-8859-1"?>
<!-- Generator: Adobe Illustrator 14.0.0, SVG Export Plug-In . SVG Version: 6.00 Build 43363)  -->
<!DOCTYPE svg PUBLIC "-//W3C//DTD SVG 1.1//EN" "http://www.w3.org/Graphics/SVG/1.1/DTD/svg11.dtd">
<svg version="1.1" id="icon-m-camera-video-layer" xmlns="http://www.w3.org/2000/svg" xmlns:xlink="http://www.w3.org/1999/xlink"
	 x="0px" y="0px" width="48px" height="48px" viewBox="0 0 48 48" style="enable-background:new 0 0 48 48;" xml:space="preserve">
<g id="icon-m-camera-video">
	<rect style="fill:none;" width="48" height="48"/>
	<path style="fill:#FFFFFF;" d="M45.884,13.537l-6,1.5c0,0-0.75,0-0.75,1.5v0.75h-5.25v-2.25c0-0.695-0.805-1.5-1.5-1.5h-24
		c-0.75,0-0.75,0.75-0.75,0.75l-6-1.5c0,0-0.75,0.055-0.75,0.75v6.75c0,0.75,0.75,0.75,0.75,0.75l6-1.5v14.25
		c0,1.5,2.25,1.425,2.25,1.425h21.75c1.5,0,2.25-1.425,2.25-1.425v-9.075h5.25v0.825c0,1.5,1.5,2.25,1.5,2.25l5.25,0.75
		c0,0,1.5,0,1.5-0.75v-13.5C47.384,13.537,45.884,13.537,45.884,13.537z"/>
</g>
</svg>
