<?xml version="1.0" encoding="iso-8859-1"?>
<!-- Generator: Adobe Illustrator 14.0.0, SVG Export Plug-In . SVG Version: 6.00 Build 43363)  -->
<!DOCTYPE svg PUBLIC "-//W3C//DTD SVG 1.1//EN" "http://www.w3.org/Graphics/SVG/1.1/DTD/svg11.dtd">
<svg version="1.1" id="icon-l-settings-layer" xmlns="http://www.w3.org/2000/svg" xmlns:xlink="http://www.w3.org/1999/xlink"
	 x="0px" y="0px" width="80px" height="81px" viewBox="0 0 80 81" style="enable-background:new 0 0 80 81;" xml:space="preserve">
<g id="icon-l-settings_2_">
	<path style="fill:#A67C52;" d="M69.121,62.776l-6.376,6.382c-1.176,1.169-3.073,1.169-4.249,0L33.63,44.268
		C18.467,52.656,10,33.807,10,28.683c0-4.227,0.314-6.386,1.865-4.827l11.483,11.506c6.255-1.695,10.15-6.439,11.954-11.94
		L23.866,11.974c-2.873-2.878,6.9-2.755,13.335,0.971c14.28,8.267,8.318,19.078,7.097,20.729l24.826,24.849
		C70.292,59.695,70.292,61.598,69.121,62.776z"/>
	<rect style="fill:none;" width="80" height="80.001"/>
</g>
</svg>
