<?xml version="1.0" encoding="iso-8859-1"?>
<!-- Generator: Adobe Illustrator 14.0.0, SVG Export Plug-In . SVG Version: 6.00 Build 43363)  -->
<!DOCTYPE svg PUBLIC "-//W3C//DTD SVG 1.1//EN" "http://www.w3.org/Graphics/SVG/1.1/DTD/svg11.dtd">
<svg version="1.1" id="icon-m-toolbar-content-audio-layer"
	 xmlns="http://www.w3.org/2000/svg" xmlns:xlink="http://www.w3.org/1999/xlink" x="0px" y="0px" width="32px" height="32px"
	 viewBox="0 0 32 32" style="enable-background:new 0 0 32 32;" xml:space="preserve">
<g id="icon-m-toolbar-content-audio">
	<rect style="fill:none;" width="32" height="32"/>
	<path style="fill:#FFFFFF;" d="M24.916,17.832c-1.286-0.473-2.945-0.322-4.478,0.531c-2.484,1.385-3.59,3.975-2.515,5.914
		c1.071,1.936,3.865,2.379,6.343,1.002c1.643-0.906,2.695-2.355,2.898-3.795c0.018-0.172,0.028-0.24,0.028-0.357v-2.895V0.834
		c0-0.293-0.21-0.42-0.465-0.273L12.671,8.328c-0.252,0.139-0.457,0.492-0.457,0.791v14.129c-1.291-0.465-2.955-0.312-4.482,0.541
		c-2.486,1.375-3.586,3.967-2.517,5.902c1.073,1.939,3.863,2.387,6.345,1.012c1.643-0.91,2.728-2.357,2.924-3.795
		c0.012-0.158,0.027-0.24,0.027-0.357V15.365c0-0.227,0.21-0.645,0.463-0.787l9.454-5.225c0.253-0.139,0.463-0.016,0.463,0.275
		v9.043"/>
</g>
</svg>
