<?xml version="1.0" encoding="iso-8859-1"?>
<!-- Generator: Adobe Illustrator 14.0.0, SVG Export Plug-In . SVG Version: 6.00 Build 43363)  -->
<!DOCTYPE svg PUBLIC "-//W3C//DTD SVG 1.1//EN" "http://www.w3.org/Graphics/SVG/1.1/DTD/svg11.dtd">
<svg version="1.1" id="icon-m-telephony-voicemail-layer"
	 xmlns="http://www.w3.org/2000/svg" xmlns:xlink="http://www.w3.org/1999/xlink" x="0px" y="0px" width="48px" height="48px"
	 viewBox="0 0 48 48" style="enable-background:new 0 0 48 48;" xml:space="preserve">
<g id="icon-m-telephony-voicemail">
	<rect style="fill:none;" width="48" height="48"/>
	<path style="fill:#333333;" d="M43.766,1.332H4.238C1.903,1.332,0,3.246,0,5.588v26.944c0,2.351,1.903,4.262,4.238,4.262h26.984
		l7.662,9.352c0.873,1.016,2.439,0.461,2.503-0.899v-8.452h2.378c2.334,0,4.234-1.911,4.234-4.262V5.588
		C48,3.246,46.1,1.332,43.766,1.332z M35.196,25.478H13.688c-7.006-0.011-10.235-9.655-3.523-13.464
		c6.597-3.743,13.247,3.741,9.693,9.864h9.165c-4.188-7.194,5.317-14.103,10.931-8.979C45.293,17.777,41.144,25.478,35.196,25.478z"
		/>
</g>
</svg>
