<?xml version="1.0" encoding="iso-8859-1"?>
<!-- Generator: Adobe Illustrator 14.0.0, SVG Export Plug-In . SVG Version: 6.00 Build 43363)  -->
<!DOCTYPE svg PUBLIC "-//W3C//DTD SVG 1.1//EN" "http://www.w3.org/Graphics/SVG/1.1/DTD/svg11.dtd">
<svg version="1.1" id="icon-s-status-3g-layer" xmlns="http://www.w3.org/2000/svg" xmlns:xlink="http://www.w3.org/1999/xlink"
	 x="0px" y="0px" width="31px" height="18px" viewBox="0 0 31 18" style="enable-background:new 0 0 31 18;" xml:space="preserve">
<g id="icon-s-status-3g">
	<rect style="fill:none;" width="31" height="18"/>
	<path style="fill:#FFFFFF;" d="M4.878,2.322c-1.113,0-2.274,0.291-3.436,0.605V0.582C2.701,0.266,4.177,0,5.677,0
		c3.314,0,5.709,1.113,5.709,4.379c0,2.057-1.137,3.459-3.193,4.09c2.274,0.41,3.508,1.959,3.508,4.113
		c0,3.869-2.443,5.418-6.726,5.418c-1.427,0-2.686-0.193-4.064-0.557v-2.346c1.452,0.338,2.589,0.58,3.678,0.58
		c2.226,0,3.097-1.064,3.097-3.024c0-2.589-1.5-3.048-5.226-3.048V7.379c3.581,0,5.008-0.387,5.008-2.734
		C7.467,3.072,6.596,2.322,4.878,2.322z"/>
	<path style="fill:#FFFFFF;" d="M27.26,16.258C26.582,17.299,25.227,18,23.727,18c-5.273,0-6.072-4.67-6.072-9.193
		C17.654,4.113,19.445,0,25.396,0c1.281,0,2.564,0.145,3.75,0.46v2.298c-1.137-0.314-2.178-0.436-3.387-0.436
		c-3.219,0-3.969,3.267-3.969,6.436c0,3.557,0.145,6.92,2.588,6.92c1.234,0,1.816-1.016,1.816-2.42v-2.686h-2.033V8.25h5.928v9.557
		h-2.348L27.26,16.258z"/>
</g>
</svg>
