<?xml version="1.0" encoding="iso-8859-1"?>
<!-- Generator: Adobe Illustrator 14.0.0, SVG Export Plug-In . SVG Version: 6.00 Build 43363)  -->
<!DOCTYPE svg PUBLIC "-//W3C//DTD SVG 1.1//EN" "http://www.w3.org/Graphics/SVG/1.1/DTD/svg11.dtd">
<svg version="1.1" id="icon-m-common-usb-layer" xmlns="http://www.w3.org/2000/svg" xmlns:xlink="http://www.w3.org/1999/xlink"
	 x="0px" y="0px" width="48px" height="48px" viewBox="0 0 48 48" style="enable-background:new 0 0 48 48;" xml:space="preserve">
<g id="icon-m-common-usb">
	<rect style="fill:none;" width="48" height="48"/>
	<path style="fill:#333333;" d="M46.512,23.974l-5.291-4.264v3.216H14.578l2.682-7.145c0.003-0.022,0.079-0.137,0.197-0.216
		c0.115-0.083,0.25-0.114,0.27-0.106h6.106v0.053c0.464,1.1,1.55,1.871,2.816,1.871c1.688,0,3.055-1.372,3.055-3.066
		c0-1.692-1.367-3.066-3.055-3.066c-1.278,0-2.371,0.787-2.827,1.902v0.057h-6.095c-1.176,0.049-2.113,0.697-2.574,1.783
		l-2.978,7.932H9.093C8.6,21.337,7.125,20.186,5.38,20.186c-2.147,0-3.89,1.748-3.89,3.902c0,2.156,1.742,3.903,3.89,3.903
		c1.753,0,3.231-1.164,3.72-2.761h7.667l3.156,7.924c0.481,1.068,1.416,1.704,2.587,1.756h5.881v1.84h5.903v-5.926h-5.903v1.836
		H22.51c-0.023,0.006-0.166-0.027-0.286-0.113c-0.122-0.078-0.206-0.201-0.209-0.225L19.19,25.23h22.031v2.986L46.512,23.974z"/>
</g>
</svg>
