<?xml version="1.0" encoding="iso-8859-1"?>
<!-- Generator: Adobe Illustrator 14.0.0, SVG Export Plug-In . SVG Version: 6.00 Build 43363)  -->
<!DOCTYPE svg PUBLIC "-//W3C//DTD SVG 1.1//EN" "http://www.w3.org/Graphics/SVG/1.1/DTD/svg11.dtd">
<svg version="1.1" id="icon-s-common-presence-away-layer"
	 xmlns="http://www.w3.org/2000/svg" xmlns:xlink="http://www.w3.org/1999/xlink" x="0px" y="0px" width="18px" height="18px"
	 viewBox="0 0 18 18" style="enable-background:new 0 0 18 18;" xml:space="preserve">
<g id="icon-s-common-presence-away">
	<rect style="fill:none;" width="18" height="18"/>
	<g>
		<path style="fill:#333333;" d="M10.871,0.197v6.7h3.064c1.135,0,2.058,0.893,2.058,1.989s-0.923,1.987-2.058,1.987H8.943
			c-0.42,0-0.826-0.123-1.177-0.358c-0.616-0.347-1.01-1.003-1.01-1.702V0.293C2.873,1.291,0,4.805,0,9c0,4.971,4.029,9,9,9
			s9-4.029,9-9C18,4.672,14.943,1.06,10.871,0.197z"/>
		<path style="fill:#FFFFFF;" d="M10.871,0.197v6.7h3.064c1.135,0,2.058,0.893,2.058,1.989s-0.923,1.987-2.058,1.987H8.943
			c-0.42,0-0.826-0.123-1.177-0.358c-0.616-0.347-1.01-1.003-1.01-1.702V0.293C8.543-0.035,9.452,0.052,10.871,0.197z"/>
	</g>
</g>
</svg>
