<?xml version="1.0" encoding="iso-8859-1"?>
<!-- Generator: Adobe Illustrator 14.0.0, SVG Export Plug-In . SVG Version: 6.00 Build 43363)  -->
<!DOCTYPE svg PUBLIC "-//W3C//DTD SVG 1.1//EN" "http://www.w3.org/Graphics/SVG/1.1/DTD/svg11.dtd">
<svg version="1.1" id="icon-m-camera-whitebalance-fluorescent-screen-layer"
	 xmlns="http://www.w3.org/2000/svg" xmlns:xlink="http://www.w3.org/1999/xlink" x="0px" y="0px" width="32px" height="32px"
	 viewBox="0 0 32 32" style="enable-background:new 0 0 32 32;" xml:space="preserve">
<g id="icon-m-camera-whitebalance-fluorescent-screen">
	<rect style="fill:none;" width="32" height="32"/>
	<path style="fill:#FFFFFF;" d="M4.5,11.5c-0.48,0-1,0.52-1,1v7c0,0.48,0.52,1,1,1h23c0.48,0,1-0.52,1-1v-7c0-0.48-0.52-1-1-1H4.5z
		 M26.5,18.5h-21v-5.05l21,0.05V18.5z"/>
	<path style="fill:#FFFFFF;" d="M29.5,12.5c0-1.125,2-1.125,2,0v7c0,1.125-2,1-2,0V12.5z"/>
	<path style="fill:#FFFFFF;" d="M0.5,12.5c0-1,2-1,2,0v7c0,1.125-2,1.125-2,0V12.5z"/>
</g>
</svg>
