<?xml version="1.0" encoding="iso-8859-1"?>
<!-- Generator: Adobe Illustrator 14.0.0, SVG Export Plug-In . SVG Version: 6.00 Build 43363)  -->
<!DOCTYPE svg PUBLIC "-//W3C//DTD SVG 1.1//EN" "http://www.w3.org/Graphics/SVG/1.1/DTD/svg11.dtd">
<svg version="1.1" id="icon-m-common-25g-layer" xmlns="http://www.w3.org/2000/svg" xmlns:xlink="http://www.w3.org/1999/xlink"
	 x="0px" y="0px" width="48px" height="48px" viewBox="0 0 48 48" style="enable-background:new 0 0 48 48;" xml:space="preserve">
<g id="icon-m-common-25g">
	<rect style="fill:none;" width="48" height="48"/>
	<path style="fill:#333333;" d="M19.313,37.922H1.644v-2.447c0-5.853,3.557-9.217,7.114-12.201c2.409-2.027,4.016-3.48,4.016-5.852
		c0-2.563-1.262-3.978-4.284-3.978c-2.142,0-4.054,0.612-5.89,1.261V10.92c2.448-0.727,4.934-1.148,7.458-1.148
		c5.584,0,9.064,2.258,9.064,7.422c0,4.129-2.257,6.348-5.507,9.102c-3.443,2.906-5.699,4.934-5.966,7.955h11.664V37.922z"/>
	<path style="fill:#333333;" d="M25.166,38.229c-1.874,0-3.365-1.493-3.365-3.367c0-1.873,1.492-3.404,3.365-3.404
		c1.875,0,3.404,1.531,3.404,3.404C28.57,36.735,27.041,38.229,25.166,38.229z"/>
	<path style="fill:#333333;" d="M37.635,20.061c0.498-0.076,1.109-0.076,1.684-0.076c5.393,0,8.682,2.945,8.682,8.797
		c0,6.349-3.252,9.447-10.365,9.447c-2.256,0-4.513-0.345-6.54-0.843v-3.747c1.913,0.496,3.634,0.917,5.431,0.917
		c3.672,0,5.125-1.835,5.125-5.584c0-3.251-1.683-5.202-5.621-5.202c-1.225,0-2.869,0.04-4.055,0.192V10.078h14.954v3.672h-9.294
		V20.061z"/>
</g>
</svg>
