<?xml version="1.0" encoding="iso-8859-1"?>
<!-- Generator: Adobe Illustrator 14.0.0, SVG Export Plug-In . SVG Version: 6.00 Build 43363)  -->
<!DOCTYPE svg PUBLIC "-//W3C//DTD SVG 1.1//EN" "http://www.w3.org/Graphics/SVG/1.1/DTD/svg11.dtd">
<svg version="1.1" id="icon-m-camera-exposure-minus17-layer"
	 xmlns="http://www.w3.org/2000/svg" xmlns:xlink="http://www.w3.org/1999/xlink" x="0px" y="0px" width="32px" height="32px"
	 viewBox="0 0 32 32" style="enable-background:new 0 0 32 32;" xml:space="preserve">
<g id="icon-m-camera-exposure-minus17">
	<g>
		<rect style="fill:none;" width="32" height="32"/>
	</g>
	<g>
		<path style="fill:#FFFFFF;" d="M7.941,17.943H3.567v-2.154h4.374V17.943z"/>
		<path style="fill:#FFFFFF;" d="M16.526,21.88H9.075v-1.426h2.494v-8.455l-2.494,0.534v-1.393l3.693-1.15h1.409v10.464h2.349V21.88
			z"/>
		<path style="fill:#FFFFFF;" d="M18.714,22.01c-0.794,0-1.425-0.632-1.425-1.426s0.631-1.441,1.425-1.441s1.441,0.647,1.441,1.441
			S19.508,22.01,18.714,22.01z"/>
		<path style="fill:#FFFFFF;" d="M28.433,11.367c-1.879,3.207-3.013,6.414-3.126,10.513h-2.77c0.097-3.759,1.441-7.419,3.143-10.188
			h-4.714v-1.604h7.467V11.367z"/>
	</g>
</g>
</svg>
