<?xml version="1.0" encoding="iso-8859-1"?>
<!-- Generator: Adobe Illustrator 14.0.0, SVG Export Plug-In . SVG Version: 6.00 Build 43363)  -->
<!DOCTYPE svg PUBLIC "-//W3C//DTD SVG 1.1//EN" "http://www.w3.org/Graphics/SVG/1.1/DTD/svg11.dtd">
<svg version="1.1" id="icon-m-content-recently-downloaded-layer"
	 xmlns="http://www.w3.org/2000/svg" xmlns:xlink="http://www.w3.org/1999/xlink" x="0px" y="0px" width="48px" height="48px"
	 viewBox="0 0 48 48" style="enable-background:new 0 0 48 48;" xml:space="preserve">
<g id="icon-m-content-recently-downloaded">
	<rect style="fill:none;" width="48" height="48"/>
	<path style="fill:#333333;" d="M18.864,17.231c-0.223,1.042-1.124,1.784-2.194,1.784c-1.24,0-2.25-1.01-2.25-2.248
		c0-0.189,0.025-0.377,0.074-0.561l-4.94-6.221l2.105-1.686l4.941,6.22c0.39-0.017,0.77,0.074,1.124,0.266l4.648-2.164l1.135,2.45
		L18.864,17.231z"/>
	<path style="fill:#333333;" d="M14.819,31.561C7.487,30.607,1.801,24.338,1.801,16.75c0-8.242,6.706-14.948,14.949-14.948
		c8.242,0,14.948,6.706,14.948,14.948c0,0.254-0.028,0.5-0.042,0.75h1.818c0.012-0.249,0.025-0.498,0.025-0.75
		C33.5,7.5,26,0,16.75,0C7.499,0,0,7.5,0,16.75S7.499,33.5,16.75,33.5c0.016,0,0.03-0.002,0.046-0.002L14.819,31.561z"/>
	<path style="fill:#333333;" d="M37.15,30.294h-4.944v-8.159c0-0.354-0.285-0.635-0.638-0.635h-5.354
		c-0.398-0.002-0.64,0.33-0.64,0.635v8.157l-4.9,0.002c-0.431,0-0.972,0.511-0.476,1.058l8.22,7.938
		c0.253,0.28,0.692,0.278,0.947,0.003l8.261-7.941C38.045,30.891,37.631,30.294,37.15,30.294z"/>
	<rect x="21.023" y="43" style="fill:#333333;" width="15.75" height="3"/>
</g>
</svg>
