<?xml version="1.0" encoding="iso-8859-1"?>
<!-- Generator: Adobe Illustrator 14.0.0, SVG Export Plug-In . SVG Version: 6.00 Build 43363)  -->
<!DOCTYPE svg PUBLIC "-//W3C//DTD SVG 1.1//EN" "http://www.w3.org/Graphics/SVG/1.1/DTD/svg11.dtd">
<svg version="1.1" id="icon-m-note-unread-layer" xmlns="http://www.w3.org/2000/svg" xmlns:xlink="http://www.w3.org/1999/xlink"
	 x="0px" y="0px" width="48px" height="48px" viewBox="0 0 48 48" style="enable-background:new 0 0 48 48;" xml:space="preserve">
<g id="icon-m-note-unread">
	<rect style="fill:none;" width="48" height="48"/>
	<path style="fill:#333333;" d="M34.5,31.5c-2.713,0-5.285-0.606-7.595-1.687L6.67,29.82v-3.643h15.065
		c-0.963-0.969-1.815-2.048-2.539-3.215H6.67V19.32h10.801c-0.626-1.827-0.971-3.783-0.971-5.82c0-1.096,0.104-2.168,0.292-3.209
		h-6.065v1.802c0,0.958-0.784,1.741-1.742,1.741H7.968c-0.958,0-1.742-0.783-1.742-1.741v-1.802H3.084
		c-0.901,0-1.639,0.737-1.639,1.639V46.36c0,0.903,0.738,1.64,1.639,1.64h31.972c0.9,0,1.639-0.736,1.639-1.64V31.361
		C35.975,31.45,35.244,31.5,34.5,31.5z M18.67,36.57h-12v-3.643h12V36.57z"/>
	<path style="fill:#333333;" d="M34.5,0C27.044,0,21,6.043,21,13.5C21,20.955,27.044,27,34.5,27S48,20.955,48,13.5
		C48,6.043,41.956,0,34.5,0z M43.125,16.594l-2.014,3.252l-4.699-2.912v5.527h-3.824v-5.527l-4.7,2.912l-2.013-3.252L30.87,13.5
		l-4.995-3.096l2.013-3.251l4.7,2.913v-5.53h3.824v5.53l4.699-2.911l2.014,3.249L38.131,13.5L43.125,16.594z"/>
</g>
</svg>
