<?xml version="1.0" encoding="iso-8859-1"?>
<!-- Generator: Adobe Illustrator 14.0.0, SVG Export Plug-In . SVG Version: 6.00 Build 43363)  -->
<!DOCTYPE svg PUBLIC "-//W3C//DTD SVG 1.1//EN" "http://www.w3.org/Graphics/SVG/1.1/DTD/svg11.dtd">
<svg version="1.1" id="icon-m-camera-resolution-4m-layer"
	 xmlns="http://www.w3.org/2000/svg" xmlns:xlink="http://www.w3.org/1999/xlink" x="0px" y="0px" width="32px" height="32px"
	 viewBox="0 0 32 32" style="enable-background:new 0 0 32 32;" xml:space="preserve">
<g id="icon-m-camera-resolution-4m">
	<rect style="fill:none;" width="32" height="32"/>
	<path style="fill:#FFFFFF;" d="M15.156,26.557h-0.703V28h-1.509v-1.443h-2.671v-0.862l2.746-4.546h1.435v4.509h0.703V26.557z
		 M12.944,25.657v-2.756l-1.622,2.756H12.944z"/>
	<path style="fill:#FFFFFF;" d="M21.727,28h-1.508v-4.527l-1.191,2.306h-0.562l-1.172-2.306V28h-1.547v-6.823h1.35l1.649,3.224
		l1.65-3.224h1.33V28z"/>
	<polygon style="fill:#FFFFFF;" points="23.337,18.668 23.337,4 18.445,4 18.445,8.891 13.554,8.891 13.554,13.783 13.554,13.783 
		8.663,13.783 8.663,18.668 	"/>
</g>
</svg>
