<?xml version="1.0" encoding="iso-8859-1"?>
<!-- Generator: Adobe Illustrator 14.0.0, SVG Export Plug-In . SVG Version: 6.00 Build 43363)  -->
<!DOCTYPE svg PUBLIC "-//W3C//DTD SVG 1.1//EN" "http://www.w3.org/Graphics/SVG/1.1/DTD/svg11.dtd">
<svg version="1.1" id="icon-s-voicemail-layer" xmlns="http://www.w3.org/2000/svg" xmlns:xlink="http://www.w3.org/1999/xlink"
	 x="0px" y="0px" width="30px" height="13px" viewBox="0 0 30 13" style="enable-background:new 0 0 30 13;" xml:space="preserve">
<g id="icon-s-voicemail">
	<rect y="1" style="fill:none;" width="30" height="13"/>
	<path style="fill:#333333;" d="M29.33,9.728C28.339,12.284,25.896,14,23.252,14H6.731c-2.98-0.004-5.504-1.99-6.282-4.947
		c-0.757-2.879,0.46-5.703,3.1-7.201c3.149-1.788,7.018-0.65,8.768,2.39c0.907,1.572,1.111,3.382,0.616,5.06h4.1
		c-0.502-1.631-0.33-3.325,0.529-4.816c1.202-2.091,3.515-3.441,5.892-3.441c1.529,0,2.949,0.559,4.105,1.615
		C29.646,4.563,30.307,7.207,29.33,9.728z"/>
</g>
</svg>
