<?xml version="1.0" encoding="iso-8859-1"?>
<!-- Generator: Adobe Illustrator 14.0.0, SVG Export Plug-In . SVG Version: 6.00 Build 43363)  -->
<!DOCTYPE svg PUBLIC "-//W3C//DTD SVG 1.1//EN" "http://www.w3.org/Graphics/SVG/1.1/DTD/svg11.dtd">
<svg version="1.1" id="icon-s-messaging-smiley-cool-layer"
	 xmlns="http://www.w3.org/2000/svg" xmlns:xlink="http://www.w3.org/1999/xlink" x="0px" y="0px" width="18px" height="18px"
	 viewBox="0 0 18 18" style="enable-background:new 0 0 18 18;" xml:space="preserve">
<g id="icon-s-messaging-smiley-cool">
	<rect style="fill:none;" width="18" height="18"/>
	<path style="fill:#333333;" d="M12.244,4.682c-0.316,0-0.665,0.021-1.006,0.072H6.739C6.417,4.703,6.081,4.682,5.764,4.682
		c-1.164,0-2.107,0.847-2.107,1.893S4.6,8.467,5.764,8.467c1.11,0,2.453-1.28,2.578-2.306h1.151c0.14,1.025,1.646,2.306,2.752,2.306
		c1.159,0,2.1-0.847,2.1-1.893S13.403,4.682,12.244,4.682z"/>
	<path style="fill:#333333;" d="M14.175,10.221c-0.132,0.027-0.197,0.234-0.27,0.319c-1.241,1.454-2.983,2.435-4.905,2.522
		c-1.922-0.088-3.664-1.068-4.905-2.522c-0.072-0.085-0.138-0.292-0.27-0.319c-0.681-0.139-0.099,1.251,0,1.473
		c0.292,0.658,0.727,1.246,1.263,1.725C6.158,14.375,7.578,14.851,9,14.906c1.422-0.056,2.842-0.531,3.912-1.488
		c0.537-0.479,0.971-1.066,1.264-1.725C14.273,11.472,14.855,10.082,14.175,10.221z"/>
	<path style="fill:#333333;" d="M9,1.125c4.342,0,7.875,3.533,7.875,7.875c0,4.343-3.533,7.875-7.875,7.875
		c-4.342,0-7.875-3.532-7.875-7.875C1.125,4.658,4.658,1.125,9,1.125 M9,0C4.029,0,0,4.029,0,9s4.029,9,9,9s9-4.029,9-9
		S13.971,0,9,0L9,0z"/>
</g>
</svg>
