<?xml version="1.0" encoding="iso-8859-1"?>
<!-- Generator: Adobe Illustrator 14.0.0, SVG Export Plug-In . SVG Version: 6.00 Build 43363)  -->
<!DOCTYPE svg PUBLIC "-//W3C//DTD SVG 1.1//EN" "http://www.w3.org/Graphics/SVG/1.1/DTD/svg11.dtd">
<svg version="1.1" id="icon-m-content-album-layer" xmlns="http://www.w3.org/2000/svg" xmlns:xlink="http://www.w3.org/1999/xlink"
	 x="0px" y="0px" width="48px" height="48px" viewBox="0 0 48 48" style="enable-background:new 0 0 48 48;" xml:space="preserve">
<g id="icon-m-content-album_1_">
	<rect style="fill:none;" width="48" height="48"/>
	<path style="fill:#333333;" d="M0,0v48h48V0H0z M24,45C12.402,45,3,35.598,3,24C3,12.403,12.402,3,24,3c11.599,0,21,9.403,21,21
		C45,35.598,35.599,45,24,45z"/>
	<path style="fill:#333333;" d="M24,19.875c-2.279,0-4.125,1.848-4.125,4.125c0,2.281,1.846,4.125,4.125,4.125
		c2.281,0,4.125-1.844,4.125-4.125C28.125,21.723,26.281,19.875,24,19.875z"/>
</g>
</svg>
