<?xml version="1.0" encoding="iso-8859-1"?>
<!-- Generator: Adobe Illustrator 14.0.0, SVG Export Plug-In . SVG Version: 6.00 Build 43363)  -->
<!DOCTYPE svg PUBLIC "-//W3C//DTD SVG 1.1//EN" "http://www.w3.org/Graphics/SVG/1.1/DTD/svg11.dtd">
<svg version="1.1" id="icon-m-camera-postcapture-view-5sec-screen-layer"
	 xmlns="http://www.w3.org/2000/svg" xmlns:xlink="http://www.w3.org/1999/xlink" x="0px" y="0px" width="32px" height="32px"
	 viewBox="0 0 32 32" style="enable-background:new 0 0 32 32;" xml:space="preserve">
<g id="icon-m-camera-postcapture-view-5sec-screen">
	<rect style="fill:none;" width="32" height="32"/>
	<path style="fill:#FFFFFF;" d="M15.841,10.458c0.251,0,0.477-0.098,0.652-0.25c0.232,0.331,0.563,0.539,0.932,0.539
		c0.366,0,0.698-0.208,0.933-0.539c0.173,0.152,0.4,0.25,0.65,0.25c0.548,0,0.99-0.446,0.99-0.996c0-0.551-0.442-0.997-0.99-0.997
		c-0.127,0-0.246,0.025-0.357,0.07c-0.16-0.706-0.648-1.22-1.226-1.22c-0.578,0-1.066,0.514-1.226,1.22
		c-0.111-0.045-0.231-0.07-0.358-0.07c-0.547,0-0.992,0.446-0.992,0.997C14.85,10.012,15.294,10.458,15.841,10.458z"/>
	<path style="fill:#FFFFFF;" d="M15.153,14.846c-1.43-3.308-4.349-7.44-7.029,2.607h5.625
		C14.642,15.716,16.163,12.612,15.153,14.846z"/>
	<path style="fill:#FFFFFF;" d="M6.25,6.25h19.5v8.25c1.125,0.75,1.875,1.875,1.875,1.875V5.125c0,0,0-0.75-0.75-0.75H5.125
		c-0.75,0-0.75,0.75-0.75,0.75v15c0,0.75,0.75,0.75,0.75,0.75H13C13,19.75,13.375,19,13.375,19H6.25V6.25z"/>
	<path style="fill:#FFFFFF;" d="M21.625,14.582V13.57h1.125v-1.5h-3.375v1.5H20.5v1.01c-3.304,0.325-6.02,3.118-6.02,6.506
		c0,3.605,2.933,6.539,6.539,6.539c3.604,0,6.54-2.934,6.54-6.539C27.559,17.707,24.916,14.918,21.625,14.582z M20.785,26.643
		c-0.8,0-1.601-0.124-2.32-0.299v-1.33c0.679,0.176,1.289,0.325,1.928,0.325c1.303,0,1.819-0.652,1.819-1.981
		c0-1.153-0.598-1.846-1.995-1.846c-0.436,0-1.02,0.013-1.439,0.066v-4.926h5.307v1.304h-3.299v2.238
		c0.177-0.026,0.395-0.026,0.598-0.026c1.914,0,3.082,1.045,3.082,3.122C24.465,25.543,23.311,26.643,20.785,26.643z"/>
</g>
</svg>
