<?xml version="1.0" encoding="iso-8859-1"?>
<!-- Generator: Adobe Illustrator 14.0.0, SVG Export Plug-In . SVG Version: 6.00 Build 43363)  -->
<!DOCTYPE svg PUBLIC "-//W3C//DTD SVG 1.1//EN" "http://www.w3.org/Graphics/SVG/1.1/DTD/svg11.dtd">
<svg version="1.1" id="icon-m-toolbar-new-message-layer"
	 xmlns="http://www.w3.org/2000/svg" xmlns:xlink="http://www.w3.org/1999/xlink" x="0px" y="0px" width="32px" height="32px"
	 viewBox="0 0 32 32" style="enable-background:new 0 0 32 32;" xml:space="preserve">
<g id="icon-m-toolbar-new-message_1_">
	<rect style="fill:none;" width="32" height="32"/>
	<path style="fill:#FFFFFF;" d="M23,0.001c-4.971,0-9,4.028-9,9c0,4.97,4.03,8.999,9,8.999s9-4.029,9-8.999
		C32,4.029,27.971,0.001,23,0.001z M28.75,11.062l-1.342,2.168l-3.133-1.94v3.685h-2.55V11.29l-3.134,1.94l-1.342-2.168l3.33-2.061
		l-3.33-2.064l1.342-2.169l3.134,1.942V3.024h2.55v3.687l3.133-1.94l1.342,2.167l-3.329,2.064L28.75,11.062z"/>
	<path style="fill:#FFFFFF;" d="M13.763,26.315l-0.414-0.175L0,20.306l0,10.836C0,31.613,0.387,32,0.861,32h25.802
		c0.474,0,0.86-0.387,0.86-0.858V20.306l-13.351,5.835L13.763,26.315z"/>
	<path style="fill:#FFFFFF;" d="M11.739,12.527H0.861c-0.474,0-0.86,0.387-0.86,0.859l0,3.727l13.763,6.028l6.251-2.738
		C16.087,19.373,12.948,16.379,11.739,12.527z"/>
</g>
</svg>
