<?xml version="1.0" encoding="iso-8859-1"?>
<!-- Generator: Adobe Illustrator 14.0.0, SVG Export Plug-In . SVG Version: 6.00 Build 43363)  -->
<!DOCTYPE svg PUBLIC "-//W3C//DTD SVG 1.1//EN" "http://www.w3.org/Graphics/SVG/1.1/DTD/svg11.dtd">
<svg version="1.1" id="icon-m-messaging-smiley-sleepy-layer"
	 xmlns="http://www.w3.org/2000/svg" xmlns:xlink="http://www.w3.org/1999/xlink" x="0px" y="0px" width="48px" height="48px"
	 viewBox="0 0 48 48" style="enable-background:new 0 0 48 48;" xml:space="preserve">
<g id="icon-m-messaging-smiley-sleepy_1_">
	<rect style="fill:none;" width="48" height="48"/>
	<ellipse style="fill:#333333;" cx="24" cy="35.25" rx="4.875" ry="5.25"/>
	<path style="fill:#333333;" d="M17.705,19.77c0.786-0.738,1.338-1.611,1.67-2.52c0.552,1.621,0.042,3.629-1.476,5.055
		c-1.973,1.853-4.848,1.995-6.423,0.316c-0.63-0.671-1.115-1.441-1.265-2.289C12.131,22.137,15.42,21.914,17.705,19.77z"/>
	<path style="fill:#333333;" d="M30.295,19.77c-0.786-0.738-1.338-1.611-1.67-2.52c-0.552,1.621-0.042,3.629,1.476,5.055
		c1.974,1.853,4.848,1.995,6.423,0.316c0.631-0.671,1.115-1.441,1.265-2.289C35.869,22.137,32.58,21.914,30.295,19.77z"/>
	<path style="fill:#333333;" d="M24,3c11.58,0,21,9.42,21,21s-9.42,21-21,21C12.42,45,3,35.58,3,24S12.42,3,24,3 M24,0
		C10.745,0,0,10.745,0,24s10.745,24,24,24s24-10.745,24-24S37.255,0,24,0L24,0z"/>
</g>
</svg>
