<?xml version="1.0" encoding="iso-8859-1"?>
<!-- Generator: Adobe Illustrator 14.0.0, SVG Export Plug-In . SVG Version: 6.00 Build 43363)  -->
<!DOCTYPE svg PUBLIC "-//W3C//DTD SVG 1.1//EN" "http://www.w3.org/Graphics/SVG/1.1/DTD/svg11.dtd">
<svg version="1.1" id="icon-m-camera-scene-macro-screen-layer"
	 xmlns="http://www.w3.org/2000/svg" xmlns:xlink="http://www.w3.org/1999/xlink" x="0px" y="0px" width="32px" height="32px"
	 viewBox="0 0 32 32" style="enable-background:new 0 0 32 32;" xml:space="preserve">
<g id="icon-m-camera-scene-macro-screen">
	<rect style="fill:none;" width="32" height="32"/>
	<path style="fill:#FFFFFF;" d="M17.59,29.883v-4.5c0.395,0.595,0.699,0.854,1.154,1.148c1.969,1.266,4.773,1.223,6.977,0.629
		c4.568-1.225,5.869-5.561,5.869-9.777c-0.859,0.334-9.338,3.768-12.924,5.148c-0.441,0.172-0.701,0.551-1.076,0.852v-7
		c3.768-0.613,6.352-3.85,6.352-7.791c0-1.943-0.701-3.723-1.861-5.1l-2.49,6.391l-3.5-8l-3.5,8l-2.5-6.5
		c-1.152,1.377-2,3.275-2,5.209c0,3.941,2.731,7.178,6.5,7.791v7c-0.375-0.322-0.802-0.617-1.257-0.793
		c-3.585-1.381-11.884-4.877-12.743-5.207c0,4.22,1.12,8.607,5.688,9.836c2.205,0.592,5.009,0.639,6.979-0.629
		c0.469-0.301,0.937-0.59,1.333-1.207v4.5H17.59z"/>
</g>
</svg>
