<?xml version="1.0" encoding="iso-8859-1"?>
<!-- Generator: Adobe Illustrator 14.0.0, SVG Export Plug-In . SVG Version: 6.00 Build 43363)  -->
<!DOCTYPE svg PUBLIC "-//W3C//DTD SVG 1.1//EN" "http://www.w3.org/Graphics/SVG/1.1/DTD/svg11.dtd">
<svg version="1.1" id="icon-m-content-application-layer"
	 xmlns="http://www.w3.org/2000/svg" xmlns:xlink="http://www.w3.org/1999/xlink" x="0px" y="0px" width="48px" height="48px"
	 viewBox="0 0 48 48" style="enable-background:new 0 0 48 48;" xml:space="preserve">
<g id="icon-m-content-application_1_">
	<rect style="fill:none;" width="48" height="48"/>
	<path style="fill:#333333;" d="M21.812,5.064c0-0.033,0.002-0.07,0.002-0.113c-0.009-0.387-0.031-1.297-0.643-2.309
		c-0.521-0.91-1.677-1.709-3.133-1.863c-0.027-0.004-0.056-0.003-0.081-0.004c-0.173-0.016-0.351-0.028-0.531-0.023h-5.14v0.004
		H7.217C5.45,0.709,4.021,1.613,3.427,2.654c-0.618,1.018-0.636,1.93-0.647,2.305c0,0.045,0.001,0.083,0.001,0.113l0.03,10.338
		c-0.001,0.032-0.001,0.072-0.001,0.114c0.008,0.387,0.03,1.296,0.643,2.308c0.592,1.032,2.004,1.926,3.745,1.893h10.185
		c0.041,0,0.083,0.001,0.125,0.001c0.142,0,0.278-0.017,0.415-0.024c0.053-0.006,0.106-0.006,0.157-0.014
		c0.094-0.012,0.184-0.031,0.274-0.047c1.318-0.226,2.359-0.975,2.844-1.82c0.617-1.018,0.639-1.93,0.646-2.307
		c-0.001-0.043-0.002-0.08-0.002-0.111L21.812,5.064z"/>
	<path style="fill:#333333;" d="M26.217,19.725c0,0.03-0.001,0.064-0.001,0.102c0.008,0.359,0.024,1.259,0.615,2.277
		c0.558,1.026,1.946,1.961,3.669,1.938h0.006h10.275c0.043,0.002,0.084,0.003,0.127,0.003c1.711,0,3.088-0.891,3.668-1.907
		c0.616-1.02,0.637-1.934,0.645-2.305c0-0.065-0.003-0.107-0.003-0.127L45.189,9.338c-0.003-0.036-0.002-0.072-0.007-0.139
		c-0.011-0.34-0.072-1.105-0.521-1.996c-0.483-1.055-1.896-2.201-3.733-2.144c-0.043,0-0.102,0-0.174,0.003H30.623
		c-1.767-0.047-3.194,0.859-3.791,1.898c-0.616,1.018-0.638,1.934-0.646,2.309c0,0.045,0.001,0.085,0.002,0.115L26.217,19.725z
		 M29.48,9.268c0,0,0-0.002,0-0.018c0-0.09,0.045-0.408,0.148-0.551c0.135-0.133,0.102-0.299,0.994-0.344h10.234l0.059-0.004h0.013
		c0.731,0.055,0.625,0.147,0.81,0.369c0.062,0.118,0.112,0.285,0.134,0.418c0.022,0.131,0.022,0.207,0.022,0.207l0.03,10.422
		c0,0.053,0,0.063,0,0.063c0.011,0.042-0.034,0.411-0.148,0.567c-0.136,0.135-0.102,0.303-0.996,0.347H30.608c0,0-0.013,0-0.017,0
		c-0.017,0-0.024,0-0.024,0c-0.833-0.047-0.766-0.187-0.908-0.331c-0.099-0.143-0.146-0.445-0.151-0.553l0.002-0.035L29.48,9.275
		V9.268z"/>
	<path style="fill:#333333;" d="M45.191,32.486c-0.01-0.361-0.025-1.259-0.609-2.277c-0.553-1.037-1.967-1.994-3.711-1.945
		c-0.02,0-0.054,0-0.105,0.004H30.625c-1.768-0.049-3.198,0.855-3.791,1.899c-0.618,1.019-0.638,1.934-0.648,2.31
		c0,0.046,0.001,0.084,0.002,0.116l0.029,10.345c-0.001,0.033-0.001,0.073-0.001,0.12c0.008,0.393,0.029,1.298,0.634,2.306
		c0.58,1.029,1.988,1.931,3.713,1.885h10.219c0.043,0,0.087,0.002,0.131,0.002c1.711,0,3.086-0.891,3.668-1.908
		c0.612-1.021,0.633-1.933,0.641-2.305c0-0.066,0-0.111,0-0.126l-0.031-10.312C45.189,32.576,45.191,32.537,45.191,32.486z
		 M41.775,43.608c-0.134,0.136-0.101,0.302-0.994,0.346v0.001H30.62c-0.03,0-0.05,0-0.058,0c-0.835-0.047-0.775-0.188-0.909-0.315
		c-0.097-0.132-0.144-0.446-0.147-0.552c0.002-0.016,0.002-0.027,0.002-0.027l0.002-0.025l-0.027-10.549l-0.003-0.041
		c0.004-0.105,0.051-0.402,0.151-0.539c0.133-0.135,0.102-0.301,0.994-0.346h10.239h0.016c0.796,0.048,0.724,0.176,0.864,0.32
		c0.117,0.17,0.16,0.56,0.151,0.605v0.006l-0.003,0.03l0.032,10.45c0.003,0.055,0.003,0.064,0.003,0.064
		C41.936,43.078,41.892,43.45,41.775,43.608z"/>
	<path style="fill:#333333;" d="M17.393,28.266H7.219c-1.771-0.047-3.199,0.863-3.792,1.906c-0.617,1.02-0.637,1.932-0.647,2.307
		c0,0.041,0.001,0.079,0.003,0.108l0.027,10.326c-0.001,0.039-0.002,0.091-0.002,0.153c0.01,0.402,0.034,1.314,0.649,2.322
		c0.572,0.988,1.896,1.836,3.53,1.858l0.004,0.001h10.385c0.043,0,0.087,0,0.129,0c1.664,0,3.021-0.84,3.61-1.844
		c0.622-1.005,0.653-1.922,0.66-2.332c0-0.051-0.001-0.094-0.001-0.126l0.009-10.341c0.003-0.045,0.004-0.102,0.004-0.176
		c-0.008-0.426-0.043-1.342-0.672-2.333c-0.613-1.015-2.029-1.851-3.732-1.831 M18.482,43.074c0,0-0.039,0.424-0.146,0.562
		c-0.122,0.115-0.084,0.275-0.96,0.32H7.279c-0.038-0.003-0.066-0.003-0.083-0.003c-0.006,0-0.011,0-0.011,0
		c-0.859-0.044-0.812-0.198-0.937-0.316c-0.097-0.132-0.148-0.452-0.147-0.552c0.001-0.02,0.001-0.02,0.001-0.02l0.002-0.033
		L6.078,32.498l-0.003-0.04c0.001-0.097,0.048-0.409,0.152-0.551c0.135-0.136,0.101-0.302,0.992-0.346h10.153
		c0.881,0.05,0.867,0.22,0.983,0.327c0.098,0.131,0.142,0.543,0.142,0.543L18.482,43.074z"/>
</g>
</svg>
