<?xml version="1.0" encoding="iso-8859-1"?>
<!-- Generator: Adobe Illustrator 14.0.0, SVG Export Plug-In . SVG Version: 6.00 Build 43363)  -->
<!DOCTYPE svg PUBLIC "-//W3C//DTD SVG 1.1//EN" "http://www.w3.org/Graphics/SVG/1.1/DTD/svg11.dtd">
<svg version="1.1" id="icon-s-status-silent-layer" xmlns="http://www.w3.org/2000/svg" xmlns:xlink="http://www.w3.org/1999/xlink"
	 x="0px" y="0px" width="15px" height="18px" viewBox="0 0 15 18" style="enable-background:new 0 0 15 18;" xml:space="preserve">
<g id="icon-s-status-silent_2_">
	<rect y="-1" style="fill:none;" width="15" height="18"/>
	<path style="fill:#FFFFFF;" d="M8.146,3.177V1.094h5.996V-1H6.677C6.323-1,6.034-0.71,6.034-0.356v1.42L8.146,3.177z"/>
	<path style="fill:#FFFFFF;" d="M6.034,9.312v2.066C5.176,11.072,3.815,11.02,2.8,11.586c-1.651,0.912-2.381,2.634-1.671,3.921
		c0.713,1.288,2.595,1.86,4.562,1.245C6.881,16.381,8,15.35,8.129,14.395c0.01-0.104,0.02-0.896,0.02-0.975v-1.993L6.034,9.312z"/>
	
		<rect x="6.584" y="-2.844" transform="matrix(0.7074 -0.7068 0.7068 0.7074 -2.5099 7.2488)" style="fill:#FFFFFF;" width="1.831" height="19"/>
</g>
</svg>
