<?xml version="1.0" encoding="iso-8859-1"?>
<!-- Generator: Adobe Illustrator 14.0.0, SVG Export Plug-In . SVG Version: 6.00 Build 43363)  -->
<!DOCTYPE svg PUBLIC "-//W3C//DTD SVG 1.1//EN" "http://www.w3.org/Graphics/SVG/1.1/DTD/svg11.dtd">
<svg version="1.1" id="icon-m-startup-personalize-layer"
	 xmlns="http://www.w3.org/2000/svg" xmlns:xlink="http://www.w3.org/1999/xlink" x="0px" y="0px" width="48px" height="48px"
	 viewBox="0 0 48 48" style="enable-background:new 0 0 48 48;" xml:space="preserve">
<g id="icon-m-startup-personalize_1_">
	<rect style="fill:none;" width="48" height="48"/>
	<path style="fill:#333333;" d="M27.848,29.943c-0.104-4.023,2.685-7.451,6.832-8.414l0.007-6.898
		c-3.729-3.244-9.354-5.311-15.649-5.311c-3.658,0-7.342,0.697-10.672,2.186c-1.791,0.799-3.568,1.727-5.111,2.947
		c-1.164,0.92-2.779,2.652-2.464,4.288c0.173,0.896,0.581,1.481,1.343,1.941c1.329,0.802,2.818,1.081,4.337,1.31
		c2.931,0.44,5.885,1.258,6.528,4.607c0.625,3.252-3.923,5.248-2.531,8.548c1.388,3.294,5.466,3.532,8.57,3.532
		c4.19,0,8.082-0.917,11.317-2.484c-1.234-1.19-2.103-2.741-2.415-4.503C27.839,31.119,27.809,30.545,27.848,29.943z M19.944,12.237
		c1.863,0.083,3.304,1.659,3.221,3.521c-0.083,1.863-1.66,3.306-3.522,3.223c-1.862-0.082-3.304-1.659-3.221-3.522
		C16.506,13.596,18.083,12.154,19.944,12.237z M10.504,20.189c-1.716-0.084-3.044-1.66-2.968-3.522
		c0.076-1.862,1.529-3.304,3.245-3.222c1.716,0.084,3.045,1.66,2.969,3.522C13.672,18.83,12.22,20.271,10.504,20.189z
		 M20.396,34.324c-2.233,0-4.043-1.809-4.043-4.042s1.81-4.043,4.043-4.043c2.233,0,4.043,1.81,4.043,4.043
		S22.63,34.324,20.396,34.324z M25.839,18.237c0.083-1.861,1.659-3.305,3.521-3.222c1.863,0.084,3.306,1.66,3.222,3.521
		c-0.082,1.863-1.658,3.306-3.523,3.223C27.198,21.676,25.756,20.1,25.839,18.237z"/>
	<path style="fill:#333333;" d="M47.25,18.352v-5.25c-2.543-1.402-4.945-1.921-8.061-1.921l-0.014,14.978
		c-0.883-0.354-2.091-0.494-3.176-0.307c-2.468,0.433-3.793,2.227-3.644,4.18c-0.034,0.289-0.038,0.581,0.014,0.875
		c0.364,2.053,2.54,3.65,5.13,3.195c2.461-0.43,3.898-2.551,3.75-4.5c0.016-0.147,0.006-0.6,0-0.75v-12.75
		C43.564,16.384,45.301,17.274,47.25,18.352z"/>
</g>
</svg>
