<?xml version="1.0" encoding="iso-8859-1"?>
<!-- Generator: Adobe Illustrator 14.0.0, SVG Export Plug-In . SVG Version: 6.00 Build 43363)  -->
<!DOCTYPE svg PUBLIC "-//W3C//DTD SVG 1.1//EN" "http://www.w3.org/Graphics/SVG/1.1/DTD/svg11.dtd">
<svg version="1.1" id="icon-m-content-file-unknown-layer"
	 xmlns="http://www.w3.org/2000/svg" xmlns:xlink="http://www.w3.org/1999/xlink" x="0px" y="0px" width="48px" height="48px"
	 viewBox="0 0 48 48" style="enable-background:new 0 0 48 48;" xml:space="preserve">
<g id="icon-m-content-file-unknown_2_">
	<rect style="fill:none;" width="48" height="48"/>
	<polygon style="fill:#333333;" points="29,0.27 29,16.677 44.904,16.677 44.904,16.171 	"/>
	<path style="fill:#333333;" d="M28.614,20.547c-1.921,0-3.483-1.562-3.483-3.482V0H4.646c-0.851,0-1.55,0.697-1.55,1.549v44.902
		c0,0.853,0.699,1.549,1.55,1.549h38.711c0.85,0,1.548-0.696,1.548-1.549V20.547H28.614z M14.14,44.25
		c-1.963,0-3.526-1.562-3.526-3.524c0-1.962,1.563-3.562,3.526-3.562c1.964,0,3.566,1.6,3.566,3.562
		C17.707,42.688,16.104,44.25,14.14,44.25z M19.411,27.969c-1.755,1.646-2.508,2.504-2.508,3.974v1.468h-6.144v-1.719
		c0-2.471,1.218-3.939,3.082-5.656c1.362-1.254,2.508-2.328,2.508-4.012c0-2.076-1.361-3.188-3.621-3.188
		c-1.216,0-2.866,0.287-4.479,0.717v-3.438c1.686-0.393,4.316-0.715,6.215-0.715c4.588,0,8.493,1.539,8.493,6.336
		C22.958,24.709,21.13,26.322,19.411,27.969z"/>
</g>
</svg>
