<?xml version="1.0" encoding="iso-8859-1"?>
<!-- Generator: Adobe Illustrator 14.0.0, SVG Export Plug-In . SVG Version: 6.00 Build 43363)  -->
<!DOCTYPE svg PUBLIC "-//W3C//DTD SVG 1.1//EN" "http://www.w3.org/Graphics/SVG/1.1/DTD/svg11.dtd">
<svg version="1.1" id="icon-m-music-video-now-playing6-layer"
	 xmlns="http://www.w3.org/2000/svg" xmlns:xlink="http://www.w3.org/1999/xlink" x="0px" y="0px" width="48px" height="48px"
	 viewBox="0 0 48 48" style="enable-background:new 0 0 48 48;" xml:space="preserve">
<g id="icon-m-music-video-now-playing6">
	<polygon style="fill:none;" points="48,48 0,47.907 0,0 48,0 	"/>
	<g>
		<path style="fill:#333333;" d="M17.415,16.258c0-1.1,0.782-1.554,1.737-1.009l13.527,7.723c0.956,0.545,0.956,1.438,0,1.982
			l-13.527,7.725c-0.955,0.545-1.737,0.091-1.737-1.009V16.258z"/>
	</g>
	<path style="fill:#333333;" d="M10.499,10.498c-7.458,7.457-7.458,19.547-0.001,27.004c7.457,7.457,19.547,7.457,27.002,0
		c7.457-7.455,7.457-19.545,0-27.002c-1.312-1.312-2.769-2.389-4.317-3.24l-2.217,2.217c1.599,0.766,3.101,1.809,4.426,3.133
		c6.281,6.281,6.281,16.502,0,22.783c-6.28,6.279-16.502,6.28-22.783-0.001c-6.281-6.28-6.281-16.503-0.001-22.784
		c2.902-2.902,6.647-4.455,10.456-4.674v4.381l5.908-5.905l-5.908-5.908V4.94C18.494,5.162,13.987,7.009,10.499,10.498z"/>
</g>
</svg>
