<?xml version="1.0" encoding="iso-8859-1"?>
<!-- Generator: Adobe Illustrator 14.0.0, SVG Export Plug-In . SVG Version: 6.00 Build 43363)  -->
<!DOCTYPE svg PUBLIC "-//W3C//DTD SVG 1.1//EN" "http://www.w3.org/Graphics/SVG/1.1/DTD/svg11.dtd">
<svg version="1.1" id="icon-m-common-notification-layer"
	 xmlns="http://www.w3.org/2000/svg" xmlns:xlink="http://www.w3.org/1999/xlink" x="0px" y="0px" width="48px" height="48px"
	 viewBox="0 0 48 48" style="enable-background:new 0 0 48 48;" xml:space="preserve">
<g id="icon-m-common-notification_1_">
	<rect style="fill:none;" width="48" height="48"/>
	<path style="fill:#333333;" d="M44.435,13.71c-5.243,0-10.624-2.391-15.312-4.429c-3.562-1.548-7.053-3.254-10.462-5.094
		C14.664,2.032,8.913,0.889,4.229,0.757C3.136,0.725,2.277,0.802,1.125,1.107v33.983c1.125-0.359,2-0.61,3.104-0.794
		c4.619-0.77,10.435,1.275,14.433,3.433c3.409,1.837,6.9,3.546,10.462,5.093c4.688,2.038,10.068,4.428,15.312,4.428
		c0.91,0,1.561-0.045,2.44-0.126v-33.54C45.995,13.665,45.345,13.71,44.435,13.71z"/>
</g>
</svg>
