<?xml version="1.0" encoding="iso-8859-1"?>
<!-- Generator: Adobe Illustrator 14.0.0, SVG Export Plug-In . SVG Version: 6.00 Build 43363)  -->
<!DOCTYPE svg PUBLIC "-//W3C//DTD SVG 1.1//EN" "http://www.w3.org/Graphics/SVG/1.1/DTD/svg11.dtd">
<svg version="1.1" id="icon-s-invitation-accept-layer"
	 xmlns="http://www.w3.org/2000/svg" xmlns:xlink="http://www.w3.org/1999/xlink" x="0px" y="0px" width="27px" height="18px"
	 viewBox="0 0 27 18" style="enable-background:new 0 0 27 18;" xml:space="preserve">
<g id="icon-s-invitation-accept">
	<rect style="fill:none;" width="27" height="18"/>
	<path style="fill:#333333;" d="M0,8.189l0,9.016C0,17.643,0.358,18,0.796,18h12c0.438,0,0.795-0.357,0.795-0.795V8.189
		l-6.415,5.395l-0.378,0.162"/>
	<polygon style="fill:#333333;" points="13.59,7.812 13.591,5.572 6.794,0 0,5.572 0,7.812 	"/>
	<path style="fill:#333333;" d="M25.482,11.162c-0.046-0.141-0.178-0.234-0.334-0.234c-3.227,0.064-5.66,2.911-6.518,4.074
		l-1.518-1.537c-0.123-0.128-0.354-0.131-0.482-0.011l-1.023,0.931c-0.066,0.063-0.105,0.147-0.107,0.242
		c-0.002,0.092,0.035,0.177,0.1,0.245l3.061,3.024C18.723,17.962,18.814,18,18.908,18h0.027c0.102-0.01,0.193-0.059,0.254-0.145
		c1.2-1.672,2.65-3.295,4.189-4.694c1.024-0.925,1.763-1.462,1.966-1.605l0.043-0.031C25.485,11.434,25.526,11.291,25.482,11.162z"
		/>
</g>
</svg>
