<?xml version="1.0" encoding="iso-8859-1"?>
<!-- Generator: Adobe Illustrator 14.0.0, SVG Export Plug-In . SVG Version: 6.00 Build 43363)  -->
<!DOCTYPE svg PUBLIC "-//W3C//DTD SVG 1.1//EN" "http://www.w3.org/Graphics/SVG/1.1/DTD/svg11.dtd">
<svg version="1.1" id="icon-m-toolbar-mediacontrol-next-layer"
	 xmlns="http://www.w3.org/2000/svg" xmlns:xlink="http://www.w3.org/1999/xlink" x="0px" y="0px" width="32px" height="32px"
	 viewBox="0 0 32 32" style="enable-background:new 0 0 32 32;" xml:space="preserve">
<g id="icon-m-toolbar-mediacontrol-next_1_">
	<rect style="fill:none;" width="32" height="32"/>
	<g>
		<path style="fill:#FFFFFF;" d="M25.973,1c-1.1,0-2,0.9-2,2v8.851c0,1.1-0.781,1.554-1.736,1.008L3.206,1.992
			C2.25,1.446,1.469,1.9,1.469,3v26c0,1.1,0.782,1.554,1.737,1.008l19.031-10.865c0.955-0.546,1.736-0.092,1.736,1.008V29
			c0,1.1,0.9,2,2,2h2.559c1.1,0,2-0.9,2-2V3c0-1.1-0.9-2-2-2H25.973z"/>
	</g>
</g>
</svg>
