<?xml version="1.0" encoding="iso-8859-1"?>
<!-- Generator: Adobe Illustrator 14.0.0, SVG Export Plug-In . SVG Version: 6.00 Build 43363)  -->
<!DOCTYPE svg PUBLIC "-//W3C//DTD SVG 1.1//EN" "http://www.w3.org/Graphics/SVG/1.1/DTD/svg11.dtd">
<svg version="1.1" id="icon-s-messaging-layer" xmlns="http://www.w3.org/2000/svg" xmlns:xlink="http://www.w3.org/1999/xlink"
	 x="0px" y="0px" width="21px" height="18px" viewBox="0 0 21 18" style="enable-background:new 0 0 21 18;" xml:space="preserve">
<g id="icon-s-messaging_1_">
	<rect style="fill:none;" width="21" height="18"/>
	<path style="fill:#333333;" d="M13.875,0H1.5C0.362,0,0.375,1.125,0.375,1.125V2.25l7.313,3.375L15,2.25V1.125
		C15,1.125,15.008,0,13.875,0z"/>
	<path style="fill:#333333;" d="M7.125,7.875L0.375,4.5v5.625c0,0-0.014,1.125,1.125,1.125h5.625V7.875z"/>
	<path style="fill:#333333;" d="M19.5,6.75h-9c-1.125,0-1.125,1.125-1.125,1.125v6.75c0,0,0,1.125,1.125,1.125h2.25L15,18v-2.25h4.5
		c1.125,0,1.125-1.125,1.125-1.125v-6.75C20.625,6.75,19.5,6.75,19.5,6.75z M17.25,11.25H10.5v-1.125h6.75V11.25z M19.5,9h-9V7.875
		h9V9z"/>
</g>
</svg>
