<?xml version="1.0" encoding="iso-8859-1"?>
<!-- Generator: Adobe Illustrator 14.0.0, SVG Export Plug-In . SVG Version: 6.00 Build 43363)  -->
<!DOCTYPE svg PUBLIC "-//W3C//DTD SVG 1.1//EN" "http://www.w3.org/Graphics/SVG/1.1/DTD/svg11.dtd">
<svg version="1.1" id="icon-m-content-most-played-layer"
	 xmlns="http://www.w3.org/2000/svg" xmlns:xlink="http://www.w3.org/1999/xlink" x="0px" y="0px" width="48px" height="48px"
	 viewBox="0 0 48 48" style="enable-background:new 0 0 48 48;" xml:space="preserve">
<g id="icon-m-content-most-played">
	<rect style="fill:none;" width="48" height="48"/>
	<path style="fill:#333333;" d="M5.112,12.084c-0.294,0-0.497,0.234-0.497,0.637v22.559c0,0.402,0.203,0.636,0.497,0.636
		c0.118,0,0.251-0.037,0.392-0.118L25.28,24.508c0.491-0.278,0.491-0.736,0-1.016L5.506,12.203
		C5.365,12.123,5.231,12.084,5.112,12.084L5.112,12.084z"/>
	<path style="fill:#333333;" d="M42.823,24.773c0.748-0.424,0.748-1.122,0-1.547L13.352,6.448c-0.438-0.137-0.928,0.024-1.165,0.438
		l-0.024,0.042c-0.272,0.478-0.106,1.091,0.372,1.364L40.145,24L12.542,39.717c-0.478,0.271-0.646,0.887-0.374,1.365l0.024,0.041
		c0.235,0.412,0.721,0.574,1.159,0.441L42.823,24.773z"/>
</g>
</svg>
