<?xml version="1.0" encoding="iso-8859-1"?>
<!-- Generator: Adobe Illustrator 14.0.0, SVG Export Plug-In . SVG Version: 6.00 Build 43363)  -->
<!DOCTYPE svg PUBLIC "-//W3C//DTD SVG 1.1//EN" "http://www.w3.org/Graphics/SVG/1.1/DTD/svg11.dtd">
<svg version="1.1" id="icon-m-content-mms-layer" xmlns="http://www.w3.org/2000/svg" xmlns:xlink="http://www.w3.org/1999/xlink"
	 x="0px" y="0px" width="48px" height="48px" viewBox="0 0 48 48" style="enable-background:new 0 0 48 48;" xml:space="preserve">
<g id="icon-m-content-mms">
	<rect style="fill:none;" width="48" height="48"/>
	<path style="fill:#333333;" d="M39.75,4.899c0-0.632-0.518-1.149-1.148-1.149H4.149C3.517,3.75,3,4.268,3,4.899l0,4.976
		l18.377,8.049L39.75,9.875V4.899z"/>
	<polygon style="fill:#333333;" points="39.75,19.5 39.75,14.136 27.478,19.5 	"/>
	<path style="fill:#333333;" d="M16.706,20.127L3,14.136l0,14.469c0,0.631,0.517,1.147,1.149,1.147h12.557V20.127z"/>
	<path style="fill:#333333;" d="M35.688,31.772c0.33,0,0.627-0.129,0.857-0.328c0.307,0.435,0.74,0.708,1.224,0.708
		s0.917-0.273,1.225-0.708c0.229,0.199,0.527,0.328,0.855,0.328c0.722,0,1.304-0.586,1.304-1.308c0-0.726-0.582-1.312-1.304-1.312
		c-0.165,0-0.322,0.033-0.47,0.094c-0.209-0.928-0.851-1.604-1.61-1.604c-0.759,0-1.4,0.677-1.61,1.604
		c-0.146-0.061-0.304-0.094-0.471-0.094c-0.719,0-1.301,0.587-1.301,1.312C34.387,31.187,34.969,31.772,35.688,31.772z"/>
	<path style="fill:#333333;" d="M34.752,36.815c-1.941-4.488-5.861-9.739-9.496,3.891h15.693
		C40.949,40.706,37.984,29.66,34.752,36.815z"/>
	<path style="fill:#333333;" d="M21.206,24v20.25H45V24H21.206z M23.231,42.226V25.975l19.744-0.016v16.267H23.231z"/>
</g>
</svg>
