<?xml version="1.0" encoding="iso-8859-1"?>
<!-- Generator: Adobe Illustrator 14.0.0, SVG Export Plug-In . SVG Version: 6.00 Build 43363)  -->
<!DOCTYPE svg PUBLIC "-//W3C//DTD SVG 1.1//EN" "http://www.w3.org/Graphics/SVG/1.1/DTD/svg11.dtd">
<svg version="1.1" id="icon-m-toolbar-reply-all-layer"
	 xmlns="http://www.w3.org/2000/svg" xmlns:xlink="http://www.w3.org/1999/xlink" x="0px" y="0px" width="32px" height="32px"
	 viewBox="0 0 32 32" style="enable-background:new 0 0 32 32;" xml:space="preserve">
<g id="icon-m-toolbar-reply-all">
	<rect style="fill:none;" width="32" height="32"/>
	<path style="fill:#FFFFFF;" d="M16,1.6C8.047,1.6,1.6,8.047,1.6,16c0,7.952,6.448,14.4,14.4,14.4c7.953,0,14.4-6.448,14.4-14.4
		C30.4,8.047,23.953,1.6,16,1.6z M12.979,23.215c0,0.418-0.536,0.779-0.947,0.414l-7.107-7.215c-0.25-0.223-0.252-0.607,0.001-0.826
		l7.106-7.174c0.492-0.437,0.947,0.035,0.947,0.413l0.002,3.53l-3.199,3.23c-0.253,0.219-0.252,0.604-0.003,0.826l3.199,3.248
		V23.215z M26.828,18.896h-5.787v4.319c0,0.418-0.533,0.779-0.949,0.414l-7.106-7.215c-0.248-0.223-0.25-0.607,0.001-0.826
		l7.105-7.174c0.493-0.437,0.949,0.035,0.949,0.413l0.003,4.278h5.784c0.272,0,0.57,0.21,0.57,0.557v4.675
		C27.398,18.645,27.146,18.896,26.828,18.896z"/>
</g>
</svg>
