<?xml version="1.0" encoding="iso-8859-1"?>
<!-- Generator: Adobe Illustrator 14.0.0, SVG Export Plug-In . SVG Version: 6.00 Build 43363)  -->
<!DOCTYPE svg PUBLIC "-//W3C//DTD SVG 1.1//EN" "http://www.w3.org/Graphics/SVG/1.1/DTD/svg11.dtd">
<svg version="1.1" id="icon-s-status-presence-offline-layer"
	 xmlns="http://www.w3.org/2000/svg" xmlns:xlink="http://www.w3.org/1999/xlink" x="0px" y="0px" width="18px" height="18px"
	 viewBox="0 0 18 18" style="enable-background:new 0 0 18 18;" xml:space="preserve">
<g id="icon-s-status-presence-offline_2_">
	<rect style="fill:none;" width="18" height="18"/>
	<path id="path_2_" style="fill:#FFFFFF;" d="M9,0C4.03,0,0,4.029,0,9s4.03,9,9,9c4.971,0,9-4.029,9-9S13.971,0,9,0z M14.066,11.82
		c0.65,0.654,0.65,1.715,0,2.363c-0.312,0.316-0.734,0.49-1.182,0.49c-0.448,0-0.869-0.174-1.184-0.49L8.838,11.32l-2.509,2.509
		c-0.615,0.616-1.761,0.712-2.449,0.202c-0.352-0.26-0.563-0.631-0.595-1.045c-0.032-0.426,0.128-0.841,0.452-1.166L6.537,9.02
		L3.738,6.221C3.424,5.907,3.25,5.488,3.25,5.041c0-0.448,0.173-0.868,0.488-1.183c0.629-0.63,1.733-0.63,2.362,0l2.801,2.8
		l2.801-2.8c0.616-0.617,1.761-0.713,2.45-0.204c0.352,0.262,0.562,0.635,0.594,1.049c0.031,0.428-0.129,0.84-0.452,1.162
		l-3.093,3.092L14.066,11.82z"/>
</g>
</svg>
