<?xml version="1.0" encoding="iso-8859-1"?>
<!-- Generator: Adobe Illustrator 14.0.0, SVG Export Plug-In . SVG Version: 6.00 Build 43363)  -->
<!DOCTYPE svg PUBLIC "-//W3C//DTD SVG 1.1//EN" "http://www.w3.org/Graphics/SVG/1.1/DTD/svg11.dtd">
<svg version="1.1" id="icon-m-content-not-loaded-layer"
	 xmlns="http://www.w3.org/2000/svg" xmlns:xlink="http://www.w3.org/1999/xlink" x="0px" y="0px" width="48px" height="48px"
	 viewBox="0 0 48 48" style="enable-background:new 0 0 48 48;" xml:space="preserve">
<g id="icon-m-content-not-loaded">
	<rect style="fill:none;" width="48" height="48"/>
	<g>
		<path style="fill:#333333;" d="M23.998,28.213c-2.329,0-4.21-1.891-4.21-4.217c0-2.322,1.881-4.207,4.21-4.207
			c2.329,0,4.213,1.885,4.213,4.207C28.211,26.322,26.327,28.213,23.998,28.213z"/>
		<path style="fill:#333333;" d="M14.188,26.979c-1.643,1.644-4.309,1.644-5.957,0c-1.643-1.643-1.643-4.309,0-5.958
			c1.648-1.643,4.314-1.643,5.957,0C15.834,22.67,15.834,25.336,14.188,26.979z"/>
		<path style="fill:#333333;" d="M33.812,21.021c1.642-1.643,4.308-1.643,5.954,0c1.645,1.647,1.645,4.315,0,5.958
			c-1.646,1.644-4.312,1.644-5.954,0C32.164,25.336,32.164,22.668,33.812,21.021z"/>
	</g>
</g>
</svg>
