<?xml version="1.0" encoding="iso-8859-1"?>
<!-- Generator: Adobe Illustrator 14.0.0, SVG Export Plug-In . SVG Version: 6.00 Build 43363)  -->
<!DOCTYPE svg PUBLIC "-//W3C//DTD SVG 1.1//EN" "http://www.w3.org/Graphics/SVG/1.1/DTD/svg11.dtd">
<svg version="1.1" id="icon-m-common-option-layer" xmlns="http://www.w3.org/2000/svg" xmlns:xlink="http://www.w3.org/1999/xlink"
	 x="0px" y="0px" width="48px" height="48px" viewBox="0 0 48 48" style="enable-background:new 0 0 48 48;" xml:space="preserve">
<g id="icon-m-common-option">
	<rect style="fill:none;" width="48" height="48"/>
	<path style="fill:#333333;" d="M37,16c0,1.1-0.9,2-2,2H13c-1.1,0-2-0.9-2-2l0,0c0-1.101,0.9-2,2-2h22C36.1,14,37,14.899,37,16
		L37,16z"/>
	<path style="fill:#333333;" d="M37,24c0,1.1-0.9,2-2,2H13c-1.1,0-2-0.9-2-2l0,0c0-1.101,0.9-2,2-2h22C36.1,22,37,22.899,37,24
		L37,24z"/>
	<path style="fill:#333333;" d="M37,32c0,1.1-0.9,2-2,2H13c-1.1,0-2-0.9-2-2l0,0c0-1.101,0.9-2,2-2h22C36.1,30,37,30.899,37,32
		L37,32z"/>
</g>
</svg>
