<?xml version="1.0" encoding="iso-8859-1"?>
<!-- Generator: Adobe Illustrator 14.0.0, SVG Export Plug-In . SVG Version: 6.00 Build 43363)  -->
<!DOCTYPE svg PUBLIC "-//W3C//DTD SVG 1.1//EN" "http://www.w3.org/Graphics/SVG/1.1/DTD/svg11.dtd">
<svg version="1.1" id="icon-m-settings-applications-layer"
	 xmlns="http://www.w3.org/2000/svg" xmlns:xlink="http://www.w3.org/1999/xlink" x="0px" y="0px" width="64px" height="64px"
	 viewBox="0 0 64 64" style="enable-background:new 0 0 64 64;" xml:space="preserve">
<g id="icon-m-settings-applications_1_">
	<rect style="opacity:0;fill:#FFFFFF;" width="64" height="64"/>
	<g>
		<path style="fill:#FFFFFF;" d="M29.422,9.691c0-0.038,0.002-0.083,0.002-0.133c-0.01-0.456-0.037-1.527-0.758-2.72
			c-0.612-1.071-1.975-2.013-3.69-2.195C24.943,4.639,24.91,4.64,24.88,4.639c-0.204-0.017-0.413-0.032-0.625-0.028h-6.056v0.006
			h-5.971c-2.082-0.055-3.765,1.009-4.466,2.238C7.035,8.052,7.014,9.126,7,9.567C7,9.62,7.002,9.665,7.002,9.703L7.037,21.88
			c-0.001,0.038-0.001,0.085-0.001,0.135c0.01,0.456,0.035,1.526,0.756,2.718c0.698,1.216,2.364,2.269,4.413,2.23h11.998
			c0.048,0,0.099,0.001,0.147,0.001c0.167,0,0.328-0.019,0.488-0.029c0.062-0.007,0.125-0.007,0.186-0.015
			c0.11-0.016,0.216-0.037,0.322-0.056c1.554-0.266,2.78-1.147,3.351-2.145c0.727-1.198,0.752-2.272,0.762-2.716
			c-0.002-0.053-0.003-0.095-0.003-0.132L29.422,9.691z"/>
		<path style="fill:#FFFFFF;" d="M34.611,26.963c0,0.034-0.001,0.075-0.001,0.12c0.009,0.423,0.028,1.481,0.725,2.682
			c0.657,1.21,2.292,2.31,4.323,2.284h0.006H51.77c0.051,0.002,0.1,0.002,0.15,0.002c2.016,0,3.637-1.05,4.321-2.246
			c0.726-1.202,0.749-2.278,0.759-2.714c0-0.078-0.004-0.127-0.004-0.15l-0.033-12.213c-0.004-0.042-0.002-0.086-0.008-0.164
			c-0.014-0.401-0.086-1.303-0.613-2.352c-0.569-1.243-2.234-2.593-4.398-2.525c-0.051,0-0.119,0-0.205,0.003H39.803
			c-2.082-0.055-3.764,1.014-4.467,2.237c-0.726,1.199-0.75,2.277-0.762,2.719c0,0.053,0.002,0.1,0.004,0.137L34.611,26.963z
			 M38.457,14.644c0,0,0-0.002,0-0.02c0-0.106,0.053-0.481,0.174-0.648c0.16-0.158,0.119-0.353,1.172-0.407h12.057l0.07-0.004h0.014
			c0.862,0.065,0.736,0.174,0.954,0.434c0.073,0.14,0.132,0.337,0.157,0.495c0.026,0.153,0.026,0.243,0.026,0.243l0.036,12.278
			c0,0.062,0,0.074,0,0.074c0.012,0.05-0.041,0.485-0.175,0.667c-0.161,0.159-0.12,0.357-1.175,0.41H39.785c0,0-0.015,0-0.02,0
			c-0.02,0-0.028,0-0.028,0c-0.981-0.056-0.902-0.219-1.069-0.39c-0.117-0.169-0.173-0.526-0.18-0.653l0.004-0.04l-0.035-12.431
			V14.644z"/>
		<path style="fill:#FFFFFF;" d="M56.965,41.997c-0.012-0.425-0.03-1.481-0.717-2.682c-0.651-1.222-2.317-2.351-4.373-2.291
			c-0.022,0-0.063,0-0.125,0.003H39.804c-2.081-0.058-3.767,1.008-4.465,2.238c-0.729,1.199-0.751,2.277-0.765,2.722
			c0,0.053,0.002,0.097,0.004,0.136l0.033,12.188c-0.001,0.039-0.001,0.085-0.001,0.142c0.009,0.462,0.034,1.528,0.747,2.716
			c0.684,1.213,2.342,2.274,4.374,2.221H51.77c0.051,0,0.104,0.002,0.155,0.002c2.015,0,3.636-1.049,4.319-2.248
			c0.723-1.203,0.746-2.277,0.756-2.715c0-0.078,0-0.131,0-0.148l-0.037-12.148C56.963,42.104,56.965,42.058,56.965,41.997z
			 M52.941,55.1c-0.158,0.161-0.119,0.356-1.172,0.408v0.002H39.799c-0.035,0-0.059,0-0.067,0c-0.983-0.055-0.913-0.223-1.071-0.372
			c-0.113-0.157-0.168-0.526-0.174-0.65c0.002-0.019,0.002-0.031,0.002-0.031l0.002-0.03l-0.031-12.429l-0.004-0.049
			c0.004-0.124,0.061-0.473,0.178-0.634c0.158-0.159,0.119-0.354,1.171-0.408h12.063h0.019c0.938,0.057,0.853,0.207,1.019,0.378
			c0.137,0.2,0.188,0.659,0.178,0.713v0.008l-0.003,0.035l0.038,12.312c0.003,0.062,0.003,0.076,0.003,0.076
			C53.129,54.476,53.078,54.914,52.941,55.1z"/>
		<path style="fill:#FFFFFF;" d="M24.216,37.025H12.23c-2.086-0.056-3.767,1.017-4.467,2.245c-0.727,1.202-0.75,2.276-0.762,2.718
			c0,0.048,0.002,0.094,0.004,0.128l0.033,12.165c-0.002,0.046-0.003,0.107-0.003,0.181c0.012,0.474,0.04,1.548,0.766,2.735
			c0.673,1.164,2.233,2.164,4.157,2.189l0.005,0.002h12.234c0.05,0,0.102,0,0.152,0c1.96,0,3.559-0.99,4.253-2.172
			c0.732-1.185,0.77-2.266,0.777-2.748c0-0.06-0.001-0.11-0.001-0.148l0.011-12.182c0.003-0.055,0.004-0.121,0.004-0.207
			c-0.008-0.502-0.05-1.581-0.791-2.749c-0.722-1.196-2.39-2.179-4.397-2.157 M25.5,54.471c0,0-0.046,0.5-0.172,0.662
			c-0.144,0.136-0.1,0.325-1.131,0.379H12.302c-0.046-0.004-0.079-0.004-0.098-0.004c-0.008,0-0.014,0-0.014,0
			c-1.012-0.052-0.956-0.234-1.104-0.373c-0.115-0.156-0.174-0.532-0.173-0.65c0.002-0.022,0.002-0.022,0.002-0.022l0.001-0.04
			l-0.03-12.411l-0.004-0.048c0.002-0.112,0.057-0.48,0.178-0.647c0.159-0.16,0.12-0.355,1.169-0.407h11.961
			c1.037,0.059,1.021,0.258,1.158,0.385c0.115,0.156,0.167,0.641,0.167,0.641L25.5,54.471z"/>
	</g>
</g>
</svg>
