<?xml version="1.0" encoding="iso-8859-1"?>
<!-- Generator: Adobe Illustrator 14.0.0, SVG Export Plug-In . SVG Version: 6.00 Build 43363)  -->
<!DOCTYPE svg PUBLIC "-//W3C//DTD SVG 1.1//EN" "http://www.w3.org/Graphics/SVG/1.1/DTD/svg11.dtd">
<svg version="1.1" id="icon-m-status-menu-transfer-error-layer"
	 xmlns="http://www.w3.org/2000/svg" xmlns:xlink="http://www.w3.org/1999/xlink" x="0px" y="0px" width="48px" height="48px"
	 viewBox="0 0 48 48" style="enable-background:new 0 0 48 48;" xml:space="preserve">
<g id="icon-m-status-menu-transfer-error">
	<rect style="fill:none;" width="48" height="48"/>
	<circle style="fill:#EC2227;" cx="24" cy="24" r="23.5"/>
	<path style="fill:#FFFFFF;" d="M24.001,28.771c-1.93,0-3.501,1.569-3.501,3.501c0,1.93,1.571,3.502,3.501,3.502
		c1.929,0,3.499-1.572,3.499-3.502C27.5,30.34,25.93,28.771,24.001,28.771z"/>
	<path style="fill:#FFFFFF;" d="M23.463,26.174h1.247c1.03,0,1.868-0.84,1.868-1.85l0.652-10.228c0-1.031-0.84-1.87-1.869-1.87
		h-2.551c-1.03,0-1.869,0.839-1.868,1.889l0.651,10.187C21.594,25.334,22.432,26.174,23.463,26.174z"/>
</g>
</svg>
