<?xml version="1.0" encoding="iso-8859-1"?>
<!-- Generator: Adobe Illustrator 14.0.0, SVG Export Plug-In . SVG Version: 6.00 Build 43363)  -->
<!DOCTYPE svg PUBLIC "-//W3C//DTD SVG 1.1//EN" "http://www.w3.org/Graphics/SVG/1.1/DTD/svg11.dtd">
<svg version="1.1" id="icon-m-input-methods-menu-layer"
	 xmlns="http://www.w3.org/2000/svg" xmlns:xlink="http://www.w3.org/1999/xlink" x="0px" y="0px" width="48px" height="48px"
	 viewBox="0 0 48 48" style="enable-background:new 0 0 48 48;" xml:space="preserve">
<g id="icon-m-input-methods-menu">
	<rect style="opacity:0.35;fill:none;" width="48" height="48"/>
	<path style="fill:#333333;" d="M41.807,38.676H6.194c-2.95,0-5.351-2.4-5.351-5.351v-19c0-2.95,2.4-5,5.351-5h35.612
		c2.949,0,5.35,2.05,5.35,5v19C47.156,36.275,44.756,38.676,41.807,38.676L41.807,38.676z M6.194,12.026
		c-1.461,0-2.65,0.837-2.65,2.299v19c0,1.461,1.188,2.649,2.65,2.649h35.612c1.461,0,2.648-1.188,2.648-2.649v-19
		c0-1.462-1.188-2.299-2.648-2.299H6.194L6.194,12.026z"/>
	<polygon style="fill:#333333;" points="40,18.5 18,18.5 18,15.5 40,15.5 40,18.5 	"/>
	<polygon style="fill:#333333;" points="11,18.5 8,18.5 8,15.5 11,15.5 11,18.5 	"/>
	<polygon style="fill:#333333;" points="11,25.5 8,25.5 8,22.5 11,22.5 11,25.5 	"/>
	<polygon style="fill:#333333;" points="11,32.5 8,32.5 8,29.5 11,29.5 11,32.5 	"/>
	<polygon style="fill:#333333;" points="40,25.35 18,25.35 18,22.65 40,22.65 40,25.35 	"/>
	<polygon style="fill:#333333;" points="40,32.5 18,32.5 18,29.5 40,29.5 40,32.5 	"/>
</g>
</svg>
