<?xml version="1.0" encoding="iso-8859-1"?>
<!-- Generator: Adobe Illustrator 14.0.0, SVG Export Plug-In . SVG Version: 6.00 Build 43363)  -->
<!DOCTYPE svg PUBLIC "-//W3C//DTD SVG 1.1//EN" "http://www.w3.org/Graphics/SVG/1.1/DTD/svg11.dtd">
<svg version="1.1" id="icon-m-camera-whitebalance-sunny-screen-layer"
	 xmlns="http://www.w3.org/2000/svg" xmlns:xlink="http://www.w3.org/1999/xlink" x="0px" y="0px" width="32px" height="32px"
	 viewBox="0 0 32 32" style="enable-background:new 0 0 32 32;" xml:space="preserve">
<g id="icon-m-camera-whitebalance-sunny-screen">
	<rect style="fill:none;" width="32" height="32"/>
	<path style="fill:#FFFFFF;" d="M16,11.25c2.619,0,4.75,2.13,4.75,4.75s-2.131,4.75-4.75,4.75s-4.75-2.13-4.75-4.75
		S13.381,11.25,16,11.25 M16,9c-3.864,0-7,3.121-7,7c0,3.878,3.136,7,7,7s7-3.122,7-7C23,12.121,19.864,9,16,9L16,9z"/>
	<path style="fill:#FFFFFF;" d="M16,0.5c-1,0-1.5,0.5-1.5,1V6c0,0.5,0.5,1,1.5,1s1.5-0.5,1.5-1V1.5C17.5,1,17,0.5,16,0.5z"/>
	<path style="fill:#FFFFFF;" d="M7,16.003C7,15,6.5,14.5,6,14.5H1.5c-0.5,0-1,0.5-1,1.499C0.5,17,1,17.5,1.5,17.5H6
		C6.5,17.5,7,17,7,16.003z"/>
	<path style="fill:#FFFFFF;" d="M31.5,16.003c0-1.003-0.5-1.503-1-1.503H26c-0.5,0-1,0.5-1,1.499C25,17,25.5,17.5,26,17.5h4.5
		C31,17.5,31.5,17,31.5,16.003z"/>
	<path style="fill:#FFFFFF;" d="M9.724,7.754L7.095,5.116c-0.473-0.473-1.299-0.473-1.77,0L4.992,5.449
		c-0.487,0.489-0.487,1.288,0,1.776l2.629,2.639c0.236,0.237,0.55,0.366,0.884,0.366c0.335,0,0.65-0.129,0.885-0.366l0.333-0.333
		c0.235-0.237,0.365-0.554,0.365-0.888C10.089,8.306,9.958,7.991,9.724,7.754z"/>
	<path style="fill:#FFFFFF;" d="M27.041,5.449L26.71,5.116c-0.473-0.475-1.3-0.475-1.771,0l-2.629,2.638
		c-0.488,0.491-0.488,1.286,0,1.777l0.333,0.333c0.235,0.237,0.55,0.366,0.884,0.366c0.336,0,0.65-0.129,0.886-0.366l2.628-2.639
		C27.529,6.737,27.529,5.938,27.041,5.449z"/>
	<path style="fill:#FFFFFF;" d="M16,31.5c1,0,1.5-0.5,1.5-1V26c0-0.5-0.5-1-1.5-1s-1.5,0.5-1.5,1v4.5C14.5,31,15,31.5,16,31.5z"/>
	<path style="fill:#FFFFFF;" d="M22.311,24.282l2.629,2.639c0.471,0.474,1.299,0.474,1.77,0l0.332-0.334
		c0.488-0.489,0.488-1.287,0-1.777l-2.628-2.638c-0.235-0.237-0.551-0.367-0.886-0.367c-0.334,0-0.648,0.13-0.884,0.367
		l-0.333,0.333c-0.236,0.237-0.365,0.554-0.365,0.889C21.945,23.73,22.074,24.046,22.311,24.282z"/>
	<path style="fill:#FFFFFF;" d="M4.992,26.587l0.332,0.334c0.472,0.474,1.298,0.474,1.771,0l2.627-2.637
		c0.489-0.491,0.489-1.288,0-1.779l-0.332-0.333c-0.235-0.237-0.55-0.366-0.885-0.366c-0.334,0-0.649,0.129-0.884,0.366l-2.629,2.64
		C4.504,25.3,4.504,26.098,4.992,26.587z"/>
</g>
</svg>
