<?xml version="1.0" encoding="iso-8859-1"?>
<!-- Generator: Adobe Illustrator 14.0.0, SVG Export Plug-In . SVG Version: 6.00 Build 43363)  -->
<!DOCTYPE svg PUBLIC "-//W3C//DTD SVG 1.1//EN" "http://www.w3.org/Graphics/SVG/1.1/DTD/svg11.dtd">
<svg version="1.1" id="icon-s-status-packetdata-active-layer"
	 xmlns="http://www.w3.org/2000/svg" xmlns:xlink="http://www.w3.org/1999/xlink" x="0px" y="0px" width="20px" height="18px"
	 viewBox="0 0 20 18" style="enable-background:new 0 0 20 18;" xml:space="preserve">
<g id="icon-s-status-packetdata-active">
	<rect style="fill:none;" width="20" height="18"/>
	<path style="fill:#FFFFFF;" d="M9.498,0C4.26,0,0,4.037,0,9s4.26,9,9.498,9C14.739,18,19,13.963,19,9S14.739,0,9.498,0z
		 M14.655,10.924c0,0.59-0.358,1.725-1.387,2.293H6.383c0,0.467,0,2.283,0,2.283l-5.432-5.393h13.704
		C14.648,10.457,14.655,10.812,14.655,10.924z M4.323,7.886c0-0.204,0-0.505,0-0.505c0-1.693,1.175-2.493,1.458-2.602h6.824
		c0-0.461,0-2.279,0-2.279l5.443,5.386H4.323z"/>
</g>
</svg>
