<?xml version="1.0" encoding="iso-8859-1"?>
<!-- Generator: Adobe Illustrator 14.0.0, SVG Export Plug-In . SVG Version: 6.00 Build 43363)  -->
<!DOCTYPE svg PUBLIC "-//W3C//DTD SVG 1.1//EN" "http://www.w3.org/Graphics/SVG/1.1/DTD/svg11.dtd">
<svg version="1.1" id="icon-m-content-rss-layer" xmlns="http://www.w3.org/2000/svg" xmlns:xlink="http://www.w3.org/1999/xlink"
	 x="0px" y="0px" width="48px" height="48px" viewBox="0 0 48 48" style="enable-background:new 0 0 48 48;" xml:space="preserve">
<g id="icon-m-content-rss">
	<rect style="fill:none;" width="48" height="48"/>
	<path style="fill:#333333;" d="M43.25,3.375H4.75c-0.756,0-1.375,0.619-1.375,1.375v38.5c0,0.756,0.62,1.375,1.375,1.375h38.5
		c0.756,0,1.375-0.619,1.375-1.375V4.75C44.625,3.994,44.006,3.375,43.25,3.375z M13.183,38.594c-2.083,0-3.778-1.695-3.778-3.778
		c0-2.082,1.695-3.775,3.778-3.775c2.083,0,3.776,1.693,3.776,3.775C16.958,36.898,15.265,38.594,13.183,38.594z M22.455,37.906
		c0-6.823-5.535-12.361-12.361-12.361V20.91c9.389,0,16.996,7.61,16.996,16.996H22.455z M33.271,37.906
		c0-12.799-10.377-23.176-23.177-23.176v-4.637c15.357,0,27.814,12.453,27.814,27.812H33.271z"/>
</g>
</svg>
