<?xml version="1.0" encoding="iso-8859-1"?>
<!-- Generator: Adobe Illustrator 14.0.0, SVG Export Plug-In . SVG Version: 6.00 Build 43363)  -->
<!DOCTYPE svg PUBLIC "-//W3C//DTD SVG 1.1//EN" "http://www.w3.org/Graphics/SVG/1.1/DTD/svg11.dtd">
<svg version="1.1" id="icon-m-camera-face-detection-layer"
	 xmlns="http://www.w3.org/2000/svg" xmlns:xlink="http://www.w3.org/1999/xlink" x="0px" y="0px" width="48px" height="48px"
	 viewBox="0 0 48 48" style="enable-background:new 0 0 48 48;" xml:space="preserve">
<g id="icon-m-camera-face-detection">
	<rect style="fill:none;" width="48" height="48"/>
	<path style="fill:#333333;" d="M12.75,43.5H4.5V4.426L12.75,4.5V0.75H4.5c-2.063,0-3.75,1.688-3.75,3.75v39
		c0,2.063,1.687,3.75,3.75,3.75h8.25V43.5z"/>
	<path style="fill:#333333;" d="M35.25,4.5l8.25-0.074V43.5h-8.25v3.75h8.25c2.062,0,3.75-1.688,3.75-3.75v-39
		c0-2.063-1.688-3.75-3.75-3.75h-8.25V4.5z"/>
	<path style="fill:#333333;" d="M9.75,36h28.5c0-3.75-5.555-6.309-10.532-7.479c2.01-2.025,3.032-5.398,3.032-8.338
		C30.75,15.604,27.975,12,24,12s-7.5,3.604-7.5,8.184c0,2.939,1.503,6.313,3.512,8.338C15.035,29.691,9.75,32.336,9.75,36z"/>
</g>
</svg>
