<?xml version="1.0" encoding="iso-8859-1"?>
<!-- Generator: Adobe Illustrator 14.0.0, SVG Export Plug-In . SVG Version: 6.00 Build 43363)  -->
<!DOCTYPE svg PUBLIC "-//W3C//DTD SVG 1.1//EN" "http://www.w3.org/Graphics/SVG/1.1/DTD/svg11.dtd">
<svg version="1.1" id="icon-s-status-pm-layer" xmlns="http://www.w3.org/2000/svg" xmlns:xlink="http://www.w3.org/1999/xlink"
	 x="0px" y="0px" width="18px" height="18px" viewBox="0 0 18 18" style="enable-background:new 0 0 18 18;" xml:space="preserve">
<g id="icon-s-status-pm">
	<g>
		<path style="fill:#FFFFFF;" d="M4.396,7.025c-0.381,0-0.789,0.127-0.789,1.641v2.252c0.127,0.023,0.26,0.035,0.385,0.035
			c0.7,0,1.079-0.334,1.079-2.098C5.071,7.641,4.844,7.025,4.396,7.025z"/>
		<path style="fill:#FFFFFF;" d="M18,8.764c0-0.045-0.004-0.084-0.004-0.129c-0.008-1.373-0.135-2.537-0.373-3.525
			c0.002,0,0.004,0,0.004,0c-0.008-0.031-0.018-0.059-0.025-0.09c-0.029-0.119-0.062-0.236-0.096-0.352
			c-0.018-0.062-0.037-0.123-0.057-0.184c-0.006-0.021-0.01-0.043-0.018-0.062C17.43,4.412,17.424,4.4,17.42,4.391V4.387
			c-0.035-0.105-0.072-0.207-0.111-0.309c-0.031-0.082-0.062-0.164-0.096-0.244c-0.051-0.119-0.104-0.234-0.158-0.348
			c0-0.002,0-0.002,0-0.004c-0.004-0.006-0.006-0.014-0.01-0.02s-0.008-0.012-0.01-0.018c-0.016-0.033-0.031-0.066-0.049-0.098
			c-0.012-0.023-0.027-0.041-0.041-0.062c-0.049-0.09-0.096-0.182-0.148-0.268c-0.115-0.193-0.24-0.373-0.371-0.543
			c-0.002-0.004-0.006-0.006-0.008-0.01c-0.074-0.096-0.158-0.18-0.238-0.268c-0.131-0.146-0.264-0.285-0.408-0.414
			c-0.104-0.094-0.209-0.186-0.32-0.27c-0.176-0.135-0.361-0.256-0.555-0.369c-0.156-0.09-0.322-0.174-0.488-0.252
			c-0.162-0.076-0.33-0.148-0.502-0.213c-0.082-0.029-0.152-0.072-0.238-0.1c0.002,0.004,0.002,0.012,0.002,0.018
			c-0.498-0.168-1.035-0.295-1.615-0.387c0-0.004,0-0.006-0.002-0.01c-0.039-0.006-0.084-0.008-0.125-0.014
			c-0.014-0.002-0.031-0.004-0.047-0.006c-0.326-0.047-0.662-0.086-1.014-0.113c-0.043-0.004-0.086-0.004-0.129-0.008
			c-0.012,0-0.021-0.002-0.035-0.004c-0.062-0.004-0.125-0.008-0.188-0.012c-0.025-0.002-0.057-0.002-0.084-0.004
			c-0.113-0.006-0.225-0.018-0.344-0.021c-0.066-0.002-0.136-0.002-0.203-0.004C9.672,0.01,9.461,0.002,9.236,0.002c0,0,0,0,0,0
			L9.055,0C9.04,0,9.028,0,9.014,0C9.002,0,8.991,0,8.979,0h-0.21H8.765h0c0,0,0,0-0.001,0C8.274,0,7.821,0.02,7.384,0.051
			C7.321,0.055,7.258,0.059,7.197,0.064C6.488,0.121,5.842,0.215,5.26,0.348c-0.049,0.01-0.103,0.018-0.15,0.029l0-0.006
			C4.872,0.428,4.645,0.494,4.423,0.566C4.407,0.572,4.387,0.576,4.37,0.582V0.58C4.369,0.582,4.368,0.582,4.367,0.582
			C4.353,0.586,4.34,0.592,4.326,0.598c-0.23,0.078-0.45,0.168-0.663,0.264c-0.037,0.018-0.074,0.035-0.11,0.053
			c-0.03,0.014-0.061,0.027-0.09,0.041c-0.106,0.053-0.208,0.113-0.31,0.172c-0.056,0.031-0.116,0.061-0.17,0.094
			C2.826,1.316,2.68,1.42,2.538,1.525C2.517,1.541,2.496,1.559,2.474,1.574c-0.011,0.01-0.023,0.018-0.035,0.027
			C2.4,1.631,2.369,1.668,2.331,1.699C2.197,1.811,2.067,1.924,1.947,2.045C1.887,2.105,1.833,2.174,1.775,2.238
			C1.684,2.34,1.593,2.443,1.511,2.553C1.454,2.627,1.401,2.707,1.349,2.785c-0.073,0.107-0.145,0.217-0.21,0.33
			c-0.049,0.086-0.096,0.172-0.142,0.26C0.936,3.492,0.879,3.611,0.826,3.734C0.785,3.828,0.745,3.92,0.708,4.018
			c-0.05,0.129-0.095,0.262-0.139,0.396C0.537,4.512,0.504,4.607,0.475,4.709C0.433,4.855,0.397,5.012,0.361,5.166
			C0.339,5.26,0.315,5.354,0.295,5.451C0.254,5.654,0.22,5.867,0.188,6.084c-0.01,0.068-0.021,0.135-0.031,0.203
			C0.15,6.348,0.144,6.406,0.136,6.467c-0.02,0.17-0.043,0.336-0.058,0.512c-0.05,0.553-0.077,1.146-0.077,1.785l0,0.172
			C0.001,8.953,0,8.969,0,8.986C0,8.994,0,9.002,0,9.01l0,0.225v0.002V9.24c0,0.51,0.021,0.984,0.053,1.439
			c0.003,0.041,0.008,0.08,0.011,0.121c0.033,0.42,0.08,0.814,0.14,1.189C0.206,12,0.207,12.01,0.208,12.02
			c0.003,0.021,0.004,0.047,0.007,0.066l0.003-0.008c0.007,0.041,0.016,0.078,0.023,0.119c0.038,0.215,0.076,0.428,0.123,0.627
			c0.063,0.283,0.134,0.555,0.218,0.805h0h0c0,0.002,0,0.002,0,0.002c0.003,0.008,0.007,0.018,0.01,0.025
			c0.002,0.006,0.004,0.012,0.006,0.018c0.001,0.004,0.003,0.006,0.004,0.01c0,0,0,0.002,0.001,0.004
			c0.03,0.088,0.063,0.17,0.095,0.254c0.035,0.092,0.07,0.186,0.108,0.273c0.016,0.039,0.034,0.072,0.051,0.109
			c0.002,0.004,0.003,0.008,0.005,0.012c0.021,0.045,0.042,0.09,0.063,0.135c0.01,0.02,0.02,0.043,0.03,0.062
			c0.024,0.049,0.047,0.1,0.073,0.146c0.015,0.029,0.036,0.051,0.052,0.08c0.047,0.086,0.091,0.174,0.142,0.256
			c0.096,0.158,0.199,0.305,0.305,0.445c0.02,0.027,0.039,0.055,0.061,0.08c0.001,0.002,0.003,0.002,0.004,0.004
			c0.067,0.088,0.143,0.164,0.214,0.244c0.136,0.154,0.279,0.299,0.431,0.434c0.104,0.094,0.211,0.186,0.323,0.27
			c0.177,0.135,0.364,0.258,0.56,0.371c0.115,0.066,0.232,0.133,0.354,0.191c0.228,0.113,0.466,0.215,0.716,0.305
			c0.05,0.018,0.092,0.043,0.142,0.061c0-0.006-0.001-0.012-0.001-0.016c0.497,0.166,1.035,0.293,1.613,0.383
			c0.001,0.004,0.001,0.008,0.002,0.012c0.053,0.008,0.112,0.01,0.167,0.018c0.041,0.006,0.08,0.014,0.122,0.02
			c0.075,0.012,0.155,0.018,0.233,0.027c0.169,0.02,0.335,0.043,0.511,0.059c0.106,0.01,0.221,0.014,0.331,0.021
			c0.011,0,0.021,0.002,0.032,0.004c0.039,0.002,0.078,0.004,0.116,0.008c0.014,0,0.029,0,0.043,0.002
			c0.379,0.021,0.771,0.037,1.188,0.039c0.026,0,0.049,0.002,0.076,0.002h0.172C8.953,17.998,8.968,18,8.985,18c0,0,0.001,0,0.001,0
			h0h0c0.008,0,0.015,0,0.022,0h0.226c0,0,0.001,0,0.002,0c0.404,0,0.786-0.014,1.155-0.033c0.137-0.008,0.268-0.021,0.4-0.031
			c0.223-0.018,0.441-0.037,0.65-0.062c0.148-0.018,0.297-0.037,0.439-0.059c0.186-0.029,0.363-0.061,0.539-0.096
			c0.131-0.025,0.264-0.049,0.389-0.078c0.025-0.006,0.055-0.012,0.08-0.018l-0.002,0.004c0.031-0.008,0.061-0.018,0.092-0.025
			c0.119-0.029,0.236-0.062,0.352-0.096c0.094-0.027,0.189-0.057,0.281-0.086c0.006-0.002,0.012-0.004,0.016-0.006v0.004
			c0.02-0.006,0.039-0.014,0.059-0.021c0.08-0.027,0.156-0.057,0.232-0.088h0.002l0,0c0.006-0.002,0.014-0.004,0.02-0.008
			c0.092-0.035,0.186-0.07,0.273-0.107c0.08-0.033,0.152-0.07,0.227-0.105c0.023-0.012,0.049-0.021,0.072-0.033
			c0.025-0.012,0.051-0.025,0.078-0.039c0.029-0.014,0.059-0.027,0.088-0.043c0.229-0.119,0.418-0.264,0.617-0.402
			c0.104-0.072,0.225-0.131,0.32-0.209c0.17-0.137,0.309-0.297,0.457-0.449c0.102-0.105,0.219-0.197,0.311-0.311
			c0.121-0.146,0.213-0.318,0.318-0.479c0.092-0.141,0.197-0.27,0.277-0.42c0.084-0.158,0.143-0.338,0.215-0.506
			c0.074-0.176,0.162-0.34,0.225-0.529l0,0l0,0c-0.01,0.002-0.02,0-0.027,0.002c0.141-0.408,0.248-0.863,0.34-1.346
			c0.018-0.092,0.039-0.174,0.055-0.268c0.004-0.002,0.008-0.002,0.012-0.004c0.006-0.039,0.008-0.084,0.014-0.125
			c0.059-0.381,0.1-0.795,0.129-1.225l0,0c0.002-0.016,0.004-0.029,0.006-0.045c0.002-0.039,0.004-0.078,0.008-0.115
			c0.025-0.416,0.043-0.848,0.043-1.307V9.055C17.998,9.039,18,9.027,18,9.014s-0.002-0.025-0.002-0.037L18,8.766V8.764z
			 M3.97,12.75c-0.12,0-0.243-0.01-0.363-0.023v1.781H1.442V5.32h1.537l0.102,0.395C3.516,5.381,4.023,5.23,4.664,5.23
			c1.194,0,2.617,0.639,2.617,3.682C7.281,11.314,6.043,12.75,3.97,12.75z M16.557,12.682h-2.164V7.803
			c0-0.777-0.262-0.777-0.451-0.777c-0.701,0-0.777,0.865-0.777,1.236v4.42H11V7.803c0-0.777-0.297-0.777-0.475-0.777
			c-0.701,0-0.755,0.947-0.755,1.236v4.42H7.606V5.32h1.541l0.098,0.395c0.422-0.316,0.941-0.484,1.527-0.484
			c0.834,0,1.365,0.271,1.705,0.617C12.916,5.445,13.5,5.23,14.176,5.23c1.514,0,2.381,0.92,2.381,2.527V12.682z"/>
	</g>
	<rect style="fill:none;" width="18" height="18"/>
</g>
</svg>
