<?xml version="1.0" encoding="iso-8859-1"?>
<!-- Generator: Adobe Illustrator 14.0.0, SVG Export Plug-In . SVG Version: 6.00 Build 43363)  -->
<!DOCTYPE svg PUBLIC "-//W3C//DTD SVG 1.1//EN" "http://www.w3.org/Graphics/SVG/1.1/DTD/svg11.dtd">
<svg version="1.1" id="icon-m-camera-sound-recording-off-layer"
	 xmlns="http://www.w3.org/2000/svg" xmlns:xlink="http://www.w3.org/1999/xlink" x="0px" y="0px" width="48px" height="48px"
	 viewBox="0 0 48 48" style="enable-background:new 0 0 48 48;" xml:space="preserve">
<g id="icon-m-camera-sound-recording-off">
	<rect style="fill:none;" width="48" height="48"/>
	<path style="fill:#333333;" d="M16.513,16.959l11.819,11.818l11.623-11.625c0.727-0.723,0.728-1.902,0-2.627l-9.188-9.196
		c-0.725-0.72-1.905-0.72-2.632,0.001L16.513,16.959z M22.631,14.107l2.25-2.247l8.551,8.55l-2.25,2.246L22.631,14.107z
		 M22.754,27.978l-5.44-5.44L5.932,35.16l4.197,4.197L22.754,27.978z M6.904,40.932L4.35,38.377l-3.31,3.321l2.552,2.552
		L6.904,40.932z"/>
	<path style="fill:#333333;" d="M38.703,28.345c-4.393,0-7.953,3.562-7.953,7.953c0,4.391,3.561,7.952,7.953,7.952
		c4.391,0,7.952-3.562,7.952-7.952C46.655,31.906,43.094,28.345,38.703,28.345z M38.703,41.548c-2.9,0-5.25-2.35-5.25-5.25
		c0-2.899,2.35-5.25,5.25-5.25s5.25,2.351,5.25,5.25C43.953,39.198,41.604,41.548,38.703,41.548z"/>
</g>
</svg>
