<?xml version="1.0" encoding="iso-8859-1"?>
<!-- Generator: Adobe Illustrator 14.0.0, SVG Export Plug-In . SVG Version: 6.00 Build 43363)  -->
<!DOCTYPE svg PUBLIC "-//W3C//DTD SVG 1.1//EN" "http://www.w3.org/Graphics/SVG/1.1/DTD/svg11.dtd">
<svg version="1.1" id="icon-m-toolbar-send-email-failed-layer"
	 xmlns="http://www.w3.org/2000/svg" xmlns:xlink="http://www.w3.org/1999/xlink" x="0px" y="0px" width="32px" height="32px"
	 viewBox="0 0 32 32" style="enable-background:new 0 0 32 32;" xml:space="preserve">
<g id="icon-m-toolbar-send-email-failed">
	<rect style="fill:none;" width="32" height="32"/>
	
		<rect x="20.083" y="24.416" transform="matrix(0.7072 -0.7071 0.7071 0.7072 -10.5627 25.497)" style="fill:#FFFFFF;" width="10.832" height="2.168"/>
	
		<rect x="20.083" y="24.417" transform="matrix(0.707 0.7072 -0.7072 0.707 25.5046 -10.5624)" style="fill:#FFFFFF;" width="10.833" height="2.167"/>
	<path style="fill:#FFFFFF;" d="M20.26,3.74C18.432,1.914,15.864,1,12.554,1C10.39,1,8.411,1.436,6.621,2.318
		C4.83,3.197,3.444,4.455,2.471,6.095C1.488,7.741,1,9.674,1,11.904c0,3.57,1.048,6.307,3.147,8.223
		C6.241,22.044,9.071,23,12.634,23c0.885,0,1.896-0.096,3.057-0.276c1.145-0.187,2.09-0.413,2.799-0.673v-2.26
		c-1.958,0.654-3.843,0.978-5.631,0.978c-3.024,0-5.288-0.749-6.804-2.255c-1.516-1.496-2.267-3.746-2.267-6.738
		c0-2.678,0.82-4.78,2.47-6.289c1.638-1.521,3.752-2.28,6.354-2.28c2.476,0,4.395,0.723,5.75,2.165
		c1.355,1.447,2.027,3.473,2.027,6.088c0,1.484-0.197,2.636-0.609,3.45c-0.418,0.825-0.979,1.229-1.697,1.229
		c-0.555,0-0.949-0.166-1.183-0.481c-0.229-0.323-0.349-0.997-0.349-2.03c0-1.695,0.314-4.268,0.948-7.729h-3.895
		c-2.212,0-3.973,0.661-5.296,1.977C6.994,9.191,6.329,11,6.329,13.32c0,1.484,0.387,2.652,1.139,3.523
		c0.762,0.865,1.69,1.3,2.781,1.3c1.632,0,2.919-0.835,3.869-2.486c0.22,0.778,0.641,1.392,1.239,1.821
		c0.595,0.451,1.293,0.665,2.093,0.665c1.722,0,3.088-0.598,4.07-1.782c0.994-1.176,1.48-2.847,1.48-5.018
		C23,8.105,22.089,5.567,20.26,3.74z M13.525,11.746c-0.362,2.914-1.129,4.364-2.307,4.364c-0.628,0-1.074-0.231-1.328-0.711
		c-0.259-0.481-0.384-1.214-0.384-2.21c0-1.607,0.352-2.879,1.041-3.824c0.704-0.953,1.548-1.424,2.521-1.424h0.944L13.525,11.746z"
		/>
</g>
</svg>
