<?xml version="1.0" encoding="iso-8859-1"?>
<!-- Generator: Adobe Illustrator 14.0.0, SVG Export Plug-In . SVG Version: 6.00 Build 43363)  -->
<!DOCTYPE svg PUBLIC "-//W3C//DTD SVG 1.1//EN" "http://www.w3.org/Graphics/SVG/1.1/DTD/svg11.dtd">
<svg version="1.1" id="icon-s-status-number-layer" xmlns="http://www.w3.org/2000/svg" xmlns:xlink="http://www.w3.org/1999/xlink"
	 x="0px" y="0px" width="24px" height="12px" viewBox="0 0 24 12" style="enable-background:new 0 0 24 12;" xml:space="preserve">
<g id="icon-s-status-number_1_">
	<rect style="fill:none;" width="24" height="12"/>
	<path style="fill:#FFFFFF;" d="M6.814,11.766H0.463v-1.077h2.407V1.691L0.463,2.278V1.17l3.183-1.03h0.872v10.549h2.296V11.766z"/>
	<path style="fill:#FFFFFF;" d="M15.176,11.766H8.65v-0.681c0-2.756,1.679-4.149,3.057-5.322c0.966-0.824,1.774-1.535,1.774-2.55
		c0-1.332-0.775-1.965-2.043-1.965c-0.839,0-1.679,0.254-2.455,0.539V0.583c0.887-0.301,1.805-0.459,2.739-0.459
		c1.997,0,3.47,0.823,3.47,2.993c0,1.68-1.22,2.709-2.455,3.738s-2.472,2.091-2.536,3.754h4.975V11.766z"/>
	<path style="fill:#FFFFFF;" d="M19.734,1.248c-0.76,0-1.44,0.19-2.217,0.396V0.473c0.809-0.222,1.646-0.349,2.486-0.349
		c1.934,0,3.375,0.696,3.375,2.835c0,1.299-0.793,2.328-2.044,2.693c1.425,0.236,2.202,1.283,2.202,2.692
		c0,2.518-1.489,3.531-3.897,3.531c-0.823,0-1.631-0.11-2.423-0.348v-1.172c0.887,0.205,1.615,0.396,2.439,0.396
		c1.504,0,2.17-0.792,2.17-2.249c0-2.012-1.221-2.281-3.707-2.281V5.113c2.186,0,3.549-0.127,3.549-1.996
		C21.668,1.834,21.002,1.248,19.734,1.248z"/>
</g>
</svg>
