<?xml version="1.0" encoding="iso-8859-1"?>
<!-- Generator: Adobe Illustrator 14.0.0, SVG Export Plug-In . SVG Version: 6.00 Build 43363)  -->
<!DOCTYPE svg PUBLIC "-//W3C//DTD SVG 1.1//EN" "http://www.w3.org/Graphics/SVG/1.1/DTD/svg11.dtd">
<svg version="1.1" id="icon-s-invitation-declined-layer"
	 xmlns="http://www.w3.org/2000/svg" xmlns:xlink="http://www.w3.org/1999/xlink" x="0px" y="0px" width="27px" height="18px"
	 viewBox="0 0 27 18" style="enable-background:new 0 0 27 18;" xml:space="preserve">
<g id="icon-s-invitation-declined">
	<rect style="fill:none;" width="27" height="18"/>
	<path style="fill:#333333;" d="M0,8.189l0,9.016C0,17.643,0.358,18,0.796,18h12c0.438,0,0.795-0.357,0.795-0.795V8.189
		l-6.415,5.395l-0.378,0.162"/>
	<polygon style="fill:#333333;" points="13.59,7.812 13.591,5.572 6.794,0 0,5.572 0,7.812 	"/>
	<polygon style="fill:#333333;" points="24.693,10.673 23.328,9.308 20.598,12.038 17.867,9.307 16.502,10.672 19.232,13.403 
		16.5,16.134 17.867,17.499 20.598,14.769 23.328,17.5 24.693,16.135 21.963,13.403 	"/>
</g>
</svg>
