<?xml version="1.0" encoding="iso-8859-1"?>
<!-- Generator: Adobe Illustrator 14.0.0, SVG Export Plug-In . SVG Version: 6.00 Build 43363)  -->
<!DOCTYPE svg PUBLIC "-//W3C//DTD SVG 1.1//EN" "http://www.w3.org/Graphics/SVG/1.1/DTD/svg11.dtd">
<svg version="1.1" id="icon-m-input-methods-keyboard-layer"
	 xmlns="http://www.w3.org/2000/svg" xmlns:xlink="http://www.w3.org/1999/xlink" x="0px" y="0px" width="32px" height="32px"
	 viewBox="0 0 32 32" style="enable-background:new 0 0 32 32;" xml:space="preserve">
<g id="icon-m-input-methods-keyboard">
	<rect style="fill:none;" width="32" height="32"/>
	<path style="fill:#FFFFFF;" d="M28.891,5.728H3.122c-1.545,0-2.802,1.261-2.802,2.812v14.936c0,1.553,1.257,2.811,2.801,2.811
		h25.77c1.547,0,2.801-1.258,2.807-2.811V8.539C31.697,6.988,30.441,5.728,28.891,5.728z M6.424,12.047H2.701V8.324h3.723V12.047z
		 M12.143,12.047H8.42V8.324h3.723V12.047z M17.861,12.047h-3.724V8.324h3.724V12.047z M23.58,12.047h-3.725V8.324h3.725V12.047z
		 M29.298,12.047h-3.724V8.324h3.724V12.047z M23.491,23.475H8.434v-3.723h15.057V23.475z M9.651,17.84H5.928v-3.723h3.723V17.84z
		 M15.37,17.84h-3.723v-3.723h3.723V17.84z M21.088,17.84h-3.725v-3.723h3.725V17.84z M26.807,17.84h-3.725v-3.723h3.725V17.84z"/>
</g>
</svg>
