<?xml version="1.0" encoding="iso-8859-1"?>
<!-- Generator: Adobe Illustrator 14.0.0, SVG Export Plug-In . SVG Version: 6.00 Build 43363)  -->
<!DOCTYPE svg PUBLIC "-//W3C//DTD SVG 1.1//EN" "http://www.w3.org/Graphics/SVG/1.1/DTD/svg11.dtd">
<svg version="1.1" id="icon-m-music-video-now-playing1-layer"
	 xmlns="http://www.w3.org/2000/svg" xmlns:xlink="http://www.w3.org/1999/xlink" x="0px" y="0px" width="48px" height="48px"
	 viewBox="0 0 48 48" style="enable-background:new 0 0 48 48;" xml:space="preserve">
<g id="icon-m-music-video-now-playing1">
	<polygon style="fill:none;" points="48,48 0,47.907 0,0 48,0 	"/>
	<g>
		<path style="fill:#333333;" d="M17.415,16.258c0-1.1,0.782-1.554,1.737-1.009l13.527,7.723c0.956,0.545,0.956,1.438,0,1.982
			l-13.527,7.725c-0.955,0.545-1.737,0.091-1.737-1.009V16.258z"/>
	</g>
	<path style="fill:#333333;" d="M43.094,24c0-10.545-8.548-19.093-19.094-19.093C13.455,4.907,4.906,13.456,4.906,24
		c0,10.545,8.548,19.093,19.094,19.093c1.855,0,3.647-0.269,5.344-0.763l0.001-3.134c-1.673,0.59-3.472,0.915-5.345,0.914
		c-8.884,0-16.11-7.227-16.11-16.109c0-8.882,7.228-16.109,16.11-16.109c8.883-0.001,16.111,7.228,16.111,16.109
		c0,4.104-1.55,7.852-4.088,10.698l-3.099-3.098l-0.001,8.354h8.355l-3.14-3.14C41.214,33.428,43.094,28.936,43.094,24z"/>
</g>
</svg>
