<?xml version="1.0" encoding="iso-8859-1"?>
<!-- Generator: Adobe Illustrator 14.0.0, SVG Export Plug-In . SVG Version: 6.00 Build 43363)  -->
<!DOCTYPE svg PUBLIC "-//W3C//DTD SVG 1.1//EN" "http://www.w3.org/Graphics/SVG/1.1/DTD/svg11.dtd">
<svg version="1.1" id="icon-m-camera-settings-layer"
	 xmlns="http://www.w3.org/2000/svg" xmlns:xlink="http://www.w3.org/1999/xlink" x="0px" y="0px" width="40px" height="40px"
	 viewBox="0 0 40 40" style="enable-background:new 0 0 40 40;" xml:space="preserve">
<g id="icon-m-camera-settings">
	<rect style="fill:none;" width="40" height="40"/>
	<path style="fill:#FFFFFF;" d="M38.692,31.842l-15.758-15.77c0.776-1.047,4.561-7.912-4.504-13.157
		C14.346,0.55,8.144,0.473,9.966,2.299l7.259,7.265c-1.145,3.491-3.617,6.505-7.586,7.58l-7.29-7.305
		c-0.983-0.988-1.183,0.38-1.183,3.065c0,3.251,5.375,15.217,14.998,9.891l15.783,15.798c0.745,0.742,1.949,0.742,2.696,0
		l4.048-4.05C39.434,33.795,39.434,32.587,38.692,31.842z"/>
</g>
</svg>
