<?xml version="1.0" encoding="iso-8859-1"?>
<!-- Generator: Adobe Illustrator 14.0.0, SVG Export Plug-In . SVG Version: 6.00 Build 43363)  -->
<!DOCTYPE svg PUBLIC "-//W3C//DTD SVG 1.1//EN" "http://www.w3.org/Graphics/SVG/1.1/DTD/svg11.dtd">
<svg version="1.1" id="icon-m-input-methods-error-correction-layer"
	 xmlns="http://www.w3.org/2000/svg" xmlns:xlink="http://www.w3.org/1999/xlink" x="0px" y="0px" width="48px" height="48px"
	 viewBox="0 0 48 48" style="enable-background:new 0 0 48 48;" xml:space="preserve">
<g id="icon-m-input-methods-error-correction">
	<rect style="fill:none;" width="48" height="48"/>
	<path style="fill:#333333;" d="M11.347,39.74l-3.079-3.079C7.206,35.6,7.32,33.759,8.52,32.557l3.624-3.623l6.933,6.932
		l-3.624,3.624C14.251,40.69,12.411,40.803,11.347,39.74L11.347,39.74z M12.018,30.986l-2.534,2.534
		c-0.601,0.601-0.657,1.521-0.127,2.051l3.078,3.081c0.532,0.529,1.453,0.475,2.054-0.126l2.535-2.536L12.018,30.986L12.018,30.986z
		"/>
	<path style="fill:#333333;" d="M14.071,27.73l6.209,6.224c0.341,0.343,0.901,0.343,1.243,0l14.818-14.841
		c0.34-0.342,0.745-0.996,0.898-1.456l3.174-9.524c0.153-0.459-0.098-0.71-0.556-0.557l-9.512,3.174
		c-0.46,0.152-1.115,0.559-1.456,0.9L14.071,26.486C13.73,26.83,13.73,27.389,14.071,27.73z M34.457,11.625l1.912,1.91l-1.268,3.803
		l-1.682,1.684l-4.404-4.482l1.646-1.646L34.457,11.625z"/>
</g>
</svg>
