<?xml version="1.0" encoding="iso-8859-1"?>
<!-- Generator: Adobe Illustrator 14.0.0, SVG Export Plug-In . SVG Version: 6.00 Build 43363)  -->
<!DOCTYPE svg PUBLIC "-//W3C//DTD SVG 1.1//EN" "http://www.w3.org/Graphics/SVG/1.1/DTD/svg11.dtd">
<svg version="1.1" id="icon-m-common-empty-image-layer"
	 xmlns="http://www.w3.org/2000/svg" xmlns:xlink="http://www.w3.org/1999/xlink" x="0px" y="0px" width="48px" height="48px"
	 viewBox="0 0 48 48" style="enable-background:new 0 0 48 48;" xml:space="preserve">
<g id="icon-m-common-empty-image_1_">
	<rect style="fill:none;" width="48" height="48"/>
	<path style="fill:#333333;" d="M23.999,27.211c-1.775,0-3.209-1.44-3.209-3.213c0-1.771,1.434-3.209,3.209-3.209
		c1.776,0,3.212,1.438,3.212,3.209C27.211,25.771,25.774,27.211,23.999,27.211z"/>
	<path style="fill:#333333;" d="M31.48,21.729c1.252-1.252,3.284-1.252,4.539,0c1.254,1.256,1.254,3.29,0,4.542
		c-1.255,1.253-3.287,1.253-4.539,0C30.225,25.019,30.225,22.984,31.48,21.729z"/>
	<path style="fill:#333333;" d="M16.52,26.271c-1.252,1.253-3.285,1.253-4.542,0c-1.252-1.252-1.252-3.284,0-4.542
		c1.256-1.252,3.289-1.252,4.542,0C17.774,22.986,17.774,25.019,16.52,26.271z"/>
	<path style="fill:#333333;" d="M0,44.129h48V3.871H0V44.129z M4.233,8.184h39.528v31.633H4.233V8.184z"/>
</g>
</svg>
