<?xml version="1.0" encoding="iso-8859-1"?>
<!-- Generator: Adobe Illustrator 14.0.0, SVG Export Plug-In . SVG Version: 6.00 Build 43363)  -->
<!DOCTYPE svg PUBLIC "-//W3C//DTD SVG 1.1//EN" "http://www.w3.org/Graphics/SVG/1.1/DTD/svg11.dtd">
<svg version="1.1" id="icon-s-status-menu-close-layer"
	 xmlns="http://www.w3.org/2000/svg" xmlns:xlink="http://www.w3.org/1999/xlink" x="0px" y="0px" width="18px" height="18px"
	 viewBox="0 0 18 18" style="enable-background:new 0 0 18 18;" xml:space="preserve">
<g id="icon-s-status-menu-close">
	<rect style="fill:none;" width="18" height="18"/>
	<path style="fill:#FFFFFF;" d="M17.063,14.24c0.774,0.775,0.766,2.036-0.011,2.805c-0.385,0.389-0.89,0.584-1.399,0.584
		c-0.508,0-1.015-0.195-1.401-0.584l-5.253-5.242l-5.246,5.242c-0.386,0.389-0.896,0.584-1.401,0.584
		c-0.508,0-1.02-0.195-1.405-0.584c-0.772-0.769-0.781-2.024-0.005-2.803l5.258-5.238L0.941,3.756c-0.776-0.769-0.776-2.027,0-2.805
		c0.772-0.772,2.035-0.772,2.811,0l5.25,5.246l5.25-5.246c0.775-0.772,2.026-0.772,2.801,0c0.776,0.777,0.785,2.036,0.011,2.808
		l-5.255,5.239L17.063,14.24z"/>
</g>
</svg>
