<?xml version="1.0" encoding="iso-8859-1"?>
<!-- Generator: Adobe Illustrator 14.0.0, SVG Export Plug-In . SVG Version: 6.00 Build 43363)  -->
<!DOCTYPE svg PUBLIC "-//W3C//DTD SVG 1.1//EN" "http://www.w3.org/Graphics/SVG/1.1/DTD/svg11.dtd">
<svg version="1.1" id="icon-s-email-mailbox-layer" xmlns="http://www.w3.org/2000/svg" xmlns:xlink="http://www.w3.org/1999/xlink"
	 x="0px" y="0px" width="25px" height="18px" viewBox="0 0 25 18" style="enable-background:new 0 0 25 18;" xml:space="preserve">
<g id="icon-s-email-mailbox_1_">
	<rect style="fill:none;" width="25" height="18"/>
	<rect x="19.006" style="fill:#333333;" width="5.564" height="3.664"/>
	<path style="fill:#333333;" d="M18.954,0v16.489H1.94V4.904h12.085v6.059c-0.039,1.961-0.712,2.527-1.479,2.527
		c-0.605,0-0.916-0.191-0.916-1.625c0-1.365,0.343-3.592,0.587-5.027H9.885c-2.592,0-4.493,1.658-4.493,4.821
		c0,2.142,1.208,3.127,2.401,3.127c1.244,0,1.831-0.691,2.316-1.606c0.277,1.002,1.054,1.606,2.057,1.606
		c2.038,0,3.348-1.433,3.37-4.353v-7.04H0.43V18h18.524h1.511v-1.511V0H18.954z M9.711,10.64c-0.19,1.469-0.467,2.833-1.331,2.833
		c-0.657,0-0.985-0.413-0.985-1.9c0-2.281,1.054-3.404,2.109-3.404h0.519L9.711,10.64z"/>
</g>
</svg>
