<?xml version="1.0" encoding="iso-8859-1"?>
<!-- Generator: Adobe Illustrator 14.0.0, SVG Export Plug-In . SVG Version: 6.00 Build 43363)  -->
<!DOCTYPE svg PUBLIC "-//W3C//DTD SVG 1.1//EN" "http://www.w3.org/Graphics/SVG/1.1/DTD/svg11.dtd">
<svg version="1.1" id="icon-s-toolbar-favorite-mark-layer"
	 xmlns="http://www.w3.org/2000/svg" xmlns:xlink="http://www.w3.org/1999/xlink" x="0px" y="0px" width="18px" height="18px"
	 viewBox="0 0 18 18" style="enable-background:new 0 0 18 18;" xml:space="preserve">
<g id="icon-s-toolbar-favorite-mark_1_">
	<rect style="fill:none;" width="18" height="18"/>
	<path style="fill:#FFFFFF;" d="M17.698,7.144c0.252-0.188,0.202-0.341-0.112-0.341h-5.805c-0.314,0-0.655-0.244-0.754-0.542
		L9.182,0.762c-0.1-0.299-0.264-0.299-0.364,0L6.971,6.261c-0.1,0.298-0.439,0.542-0.754,0.542H0.414
		c-0.315,0-0.366,0.152-0.113,0.341l4.642,3.451c0.254,0.187,0.377,0.585,0.277,0.884l-1.905,5.673
		c-0.101,0.298,0.031,0.399,0.294,0.225l4.914-3.272c0.262-0.174,0.69-0.174,0.953,0l4.912,3.272
		c0.262,0.175,0.395,0.073,0.295-0.225l-1.905-5.673c-0.101-0.299,0.024-0.697,0.277-0.884L17.698,7.144z"/>
</g>
</svg>
