<?xml version="1.0" encoding="iso-8859-1"?>
<!-- Generator: Adobe Illustrator 14.0.0, SVG Export Plug-In . SVG Version: 6.00 Build 43363)  -->
<!DOCTYPE svg PUBLIC "-//W3C//DTD SVG 1.1//EN" "http://www.w3.org/Graphics/SVG/1.1/DTD/svg11.dtd">
<svg version="1.1" id="icon-m-music-video-repeat-on-layer"
	 xmlns="http://www.w3.org/2000/svg" xmlns:xlink="http://www.w3.org/1999/xlink" x="0px" y="0px" width="48px" height="48px"
	 viewBox="0 0 48 48" style="enable-background:new 0 0 48 48;" xml:space="preserve">
<g id="icon-m-music-video-repeat-on_2_">
	<rect style="fill:none;" width="48" height="48"/>
	<path style="fill:#333333;" d="M39,11.25H28.5L32.25,15l-3.75,3.75h5.25c1.5,0,1.5,1.5,1.5,1.5V31.5c0,0,0,1.5-1.5,1.5h-19.5
		c-1.5,0-1.5-1.5-1.5-1.5V20.25c0,0-0.112-1.5,1.388-1.5H18v3.75l8.25-7.5L18,7.5v3.75H9C5.25,11.25,5.25,15,5.25,15v21.75
		c0,0,0,3.75,3.75,3.75h30c3.75,0,3.75-3.75,3.75-3.75V15C42.75,15,42.75,11.25,39,11.25z"/>
</g>
</svg>
