<?xml version="1.0" encoding="iso-8859-1"?>
<!-- Generator: Adobe Illustrator 14.0.0, SVG Export Plug-In . SVG Version: 6.00 Build 43363)  -->
<!DOCTYPE svg PUBLIC "-//W3C//DTD SVG 1.1//EN" "http://www.w3.org/Graphics/SVG/1.1/DTD/svg11.dtd">
<svg version="1.1" id="icon-m-common-forward-layer"
	 xmlns="http://www.w3.org/2000/svg" xmlns:xlink="http://www.w3.org/1999/xlink" x="0px" y="0px" width="48px" height="48px"
	 viewBox="0 0 48 48" style="enable-background:new 0 0 48 48;" xml:space="preserve">
<g id="icon-m-common-forward_1_">
	<rect style="fill:none;" width="48" height="48"/>
	<g>
		<path style="fill:#333333;" d="M0,36.348c0,1.1,0.782,1.554,1.737,1.009l19.392-11.07c0.955-0.545,1.737-0.091,1.737,1.009v9.053
			c0,1.1,0.782,1.554,1.737,1.009l21.66-12.365c0.956-0.545,0.956-1.438,0-1.982l-21.66-12.363
			c-0.955-0.545-1.737-0.091-1.737,1.009v9.051c0,1.1-0.782,1.554-1.737,1.009L1.737,10.646C0.782,10.101,0,10.555,0,11.654V36.348z
			"/>
	</g>
</g>
</svg>
