<?xml version="1.0" encoding="iso-8859-1"?>
<!-- Generator: Adobe Illustrator 14.0.0, SVG Export Plug-In . SVG Version: 6.00 Build 43363)  -->
<!DOCTYPE svg PUBLIC "-//W3C//DTD SVG 1.1//EN" "http://www.w3.org/Graphics/SVG/1.1/DTD/svg11.dtd">
<svg version="1.1" id="icon-s-status-cyrillic-lowercase-layer"
	 xmlns="http://www.w3.org/2000/svg" xmlns:xlink="http://www.w3.org/1999/xlink" x="0px" y="0px" width="30px" height="17px"
	 viewBox="0 0 30 17" style="enable-background:new 0 0 30 17;" xml:space="preserve">
<g id="icon-s-status-cyrillic-lowercase_1_">
	<rect style="fill:none;" width="30" height="16.764"/>
	<path style="fill:#FFFFFF;" d="M7.029,14.845c-0.72,1.239-1.86,1.781-3.281,1.781c-2.081,0-3.281-1.221-3.281-3.301
		c0-3.521,3.401-3.621,6.041-3.621V8.363c0-1.38-0.78-1.98-2.12-1.98c-1.021,0-2.021,0.24-2.981,0.521v-1.46
		c1.101-0.301,2.241-0.48,3.361-0.48c2.36,0,3.821,1.102,3.821,3.561v7.963h-1.14L7.029,14.845z M5.349,10.944
		c-1.6,0-2.8,0.6-2.8,2.36c0,1.141,0.52,1.9,1.7,1.9c1.541,0,2.26-1.101,2.26-2.54v-1.721H5.349z"/>
	<path style="fill:#FFFFFF;" d="M12.007,14.986c-0.82-1.081-1.24-2.861-1.24-5.402c0-2.48,0.38-4.341,1.121-5.581
		c0.74-1.239,1.84-1.86,3.32-1.86h1.761c0.42,0,0.738-0.08,0.939-0.24c0.2-0.159,0.36-0.52,0.439-1.1h1.521
		c-0.16,1.34-0.48,2.2-0.961,2.561c-0.48,0.359-1.141,0.54-1.939,0.54h-1.661c-0.8,0-1.42,0.28-1.86,0.84
		c-0.44,0.561-0.72,1.421-0.84,2.541c0.8-1.101,1.94-1.661,3.42-1.661c1.461,0,2.602,0.48,3.422,1.421
		c0.799,0.94,1.22,2.24,1.22,3.86c0,1.9-0.421,3.321-1.24,4.262c-0.82,0.939-2.04,1.42-3.681,1.42
		C14.087,16.586,12.827,16.047,12.007,14.986z M17.788,14.164c0.46-0.719,0.681-1.819,0.681-3.26c0-1.16-0.24-2.1-0.701-2.841
		c-0.479-0.739-1.14-1.099-2.02-1.099c-0.92,0-1.62,0.319-2.08,0.979c-0.44,0.659-0.68,1.64-0.68,2.96c0,1.44,0.24,2.541,0.68,3.26
		c0.46,0.722,1.16,1.082,2.08,1.082C16.648,15.246,17.328,14.886,17.788,14.164z"/>
	<path style="fill:#FFFFFF;" d="M22.548,16.486V4.822h3.396c1.906,0,3.253,0.705,3.253,2.82c0,1.312-0.609,2.227-1.844,2.691
		c1.522,0.352,2.18,1.33,2.18,2.867c0,2.402-1.57,3.285-3.83,3.285H22.548z M25.432,9.885c1.426,0,2.035-0.705,2.035-2.082
		c0-1.219-0.577-1.811-1.795-1.811h-1.458v3.893H25.432z M25.623,15.316c1.586,0,2.18-0.673,2.18-2.164
		c0-1.488-0.753-2.178-2.211-2.178h-1.378v4.342H25.623z"/>
</g>
</svg>
