<?xml version="1.0" encoding="iso-8859-1"?>
<!-- Generator: Adobe Illustrator 14.0.0, SVG Export Plug-In . SVG Version: 6.00 Build 43363)  -->
<!DOCTYPE svg PUBLIC "-//W3C//DTD SVG 1.1//EN" "http://www.w3.org/Graphics/SVG/1.1/DTD/svg11.dtd">
<svg version="1.1" id="icon-m-toolbar-send-sms-layer"
	 xmlns="http://www.w3.org/2000/svg" xmlns:xlink="http://www.w3.org/1999/xlink" x="0px" y="0px" width="32px" height="32px"
	 viewBox="0 0 32 32" style="enable-background:new 0 0 32 32;" xml:space="preserve">
<g id="icon-m-toolbar-send-sms">
	<rect style="fill:none;" width="32" height="32"/>
	<path style="fill:#FFFFFF;" d="M21.202,19.18l-0.325-0.137L10.4,14.463v8.504c0,0.371,0.304,0.675,0.675,0.675h20.25
		c0.371,0,0.675-0.304,0.675-0.675v-8.504l-10.477,4.58L21.202,19.18z"/>
	<path style="fill:#FFFFFF;" d="M32,9.033c0-0.371-0.304-0.675-0.675-0.675h-20.25c-0.371,0-0.675,0.304-0.675,0.675v2.926
		l10.802,4.73L32,11.959V9.033z"/>
	<path style="fill:#FFFFFF;" d="M0,11.086c0,0.708,0.698,1.289,1.55,1.289h5.141V9.799H1.55C0.698,9.799,0,10.378,0,11.086z"/>
	<path style="fill:#FFFFFF;" d="M0,16.254c0,0.709,0.698,1.29,1.55,1.29h5.141v-2.577H1.55C0.698,14.967,0,15.547,0,16.254z"/>
	<path style="fill:#FFFFFF;" d="M0,21.422c0,0.709,0.698,1.289,1.55,1.289h5.141v-2.576H1.55C0.698,20.135,0,20.715,0,21.422z"/>
</g>
</svg>
