<?xml version="1.0" encoding="iso-8859-1"?>
<!-- Generator: Adobe Illustrator 14.0.0, SVG Export Plug-In . SVG Version: 6.00 Build 43363)  -->
<!DOCTYPE svg PUBLIC "-//W3C//DTD SVG 1.1//EN" "http://www.w3.org/Graphics/SVG/1.1/DTD/svg11.dtd">
<svg version="1.1" id="icon-m-camera-resolution-71m-layer"
	 xmlns="http://www.w3.org/2000/svg" xmlns:xlink="http://www.w3.org/1999/xlink" x="0px" y="0px" width="32px" height="32px"
	 viewBox="0 0 32 32" style="enable-background:new 0 0 32 32;" xml:space="preserve">
<g id="icon-m-camera-resolution-71m">
	<rect style="fill:none;" width="32" height="32"/>
	<polygon style="fill:#FFFFFF;" points="23.389,18.776 23.389,4 20.433,4 20.433,6.955 17.478,6.955 17.478,9.91 14.522,9.91 
		14.522,12.865 11.567,12.865 11.567,15.821 8.612,15.821 8.612,18.776 	"/>
	<path style="fill:#FFFFFF;" d="M11.219,21.842c-1.087,1.855-1.743,3.712-1.809,6.083H7.807c0.057-2.175,0.834-4.293,1.818-5.896
		H6.898v-0.928h4.321V21.842z"/>
	<path style="fill:#FFFFFF;" d="M12.635,28c-0.459,0-0.825-0.366-0.825-0.825s0.366-0.834,0.825-0.834s0.834,0.375,0.834,0.834
		S13.094,28,12.635,28z"/>
	<path style="fill:#FFFFFF;" d="M18.409,27.925h-4.312v-0.824h1.443v-4.893l-1.443,0.309v-0.806l2.137-0.666h0.815v6.056h1.359
		V27.925z"/>
	<path style="fill:#FFFFFF;" d="M25.102,27.925h-1.508v-4.527l-1.191,2.306h-0.562l-1.172-2.306v4.527h-1.547v-6.823h1.35
		l1.649,3.225l1.65-3.225h1.33V27.925z"/>
</g>
</svg>
