<?xml version="1.0" encoding="iso-8859-1"?>
<!-- Generator: Adobe Illustrator 14.0.0, SVG Export Plug-In . SVG Version: 6.00 Build 43363)  -->
<!DOCTYPE svg PUBLIC "-//W3C//DTD SVG 1.1//EN" "http://www.w3.org/Graphics/SVG/1.1/DTD/svg11.dtd">
<svg version="1.1" id="icon-m-messaging-smiley-cool-layer"
	 xmlns="http://www.w3.org/2000/svg" xmlns:xlink="http://www.w3.org/1999/xlink" x="0px" y="0px" width="48px" height="48px"
	 viewBox="0 0 48 48" style="enable-background:new 0 0 48 48;" xml:space="preserve">
<g id="icon-m-messaging-smiley-cool">
	<rect style="fill:none;" width="48" height="48"/>
	<path style="fill:#333333;" d="M32.65,12.481c-0.844,0-1.773,0.059-2.682,0.197H17.971c-0.858-0.139-1.754-0.197-2.601-0.197
		c-3.104,0-5.62,2.26-5.62,5.05s2.516,5.049,5.62,5.049c2.96,0,6.542-3.416,6.873-6.151h3.069c0.373,2.735,4.391,6.151,7.338,6.151
		c3.093,0,5.6-2.259,5.6-5.049S35.743,12.481,32.65,12.481z"/>
	<path style="fill:#333333;" d="M37.799,27.256c-0.351,0.07-0.525,0.625-0.717,0.851C33.771,31.984,29.127,34.6,24,34.834
		c-5.126-0.234-9.771-2.85-13.082-6.728c-0.192-0.226-0.367-0.78-0.717-0.851c-1.817-0.372-0.265,3.336-0.002,3.926
		c0.779,1.754,1.938,3.323,3.367,4.601c2.855,2.552,6.641,3.819,10.434,3.968c3.793-0.148,7.578-1.416,10.434-3.968
		c1.43-1.277,2.588-2.847,3.367-4.601C38.063,30.592,39.616,26.884,37.799,27.256z"/>
	<path style="fill:#333333;" d="M24,3c11.58,0,21,9.42,21,21s-9.42,21-21,21C12.42,45,3,35.58,3,24S12.42,3,24,3 M24,0
		C10.745,0,0,10.745,0,24s10.745,24,24,24s24-10.745,24-24S37.255,0,24,0L24,0z"/>
</g>
</svg>
