<?xml version="1.0" encoding="iso-8859-1"?>
<!-- Generator: Adobe Illustrator 14.0.0, SVG Export Plug-In . SVG Version: 6.00 Build 43363)  -->
<!DOCTYPE svg PUBLIC "-//W3C//DTD SVG 1.1//EN" "http://www.w3.org/Graphics/SVG/1.1/DTD/svg11.dtd">
<svg version="1.1" id="icon-m-image-edit-free-draw-layer"
	 xmlns="http://www.w3.org/2000/svg" xmlns:xlink="http://www.w3.org/1999/xlink" x="0px" y="0px" width="48px" height="48px"
	 viewBox="0 0 48 48" style="enable-background:new 0 0 48 48;" xml:space="preserve">
<g id="icon-m-image-edit-free-draw">
	<rect style="fill:none;" width="48" height="48"/>
	<path style="fill:#333333;" d="M41.997,7.801l-7.472-7.492c-0.416-0.411-1.09-0.411-1.506,0L11.55,21.575
		c-0.41,0.413-0.901,1.205-1.089,1.76L6.628,34.842c-0.183,0.553,0.119,0.854,0.675,0.671l11.492-3.834
		c0.55-0.184,1.342-0.673,1.754-1.088L41.996,9.303C42.41,8.892,42.41,8.213,41.997,7.801z M18.409,29.091l-4.585,1.53l-2.308-2.308
		l1.53-4.594l2.034-2.036l5.317,5.418L18.409,29.091z"/>
	<path style="fill:#333333;" d="M45.8,40.879c-0.866-1.982-2.509-3.458-4.753-4.266c-2.785-1.004-6.342-0.827-8.848,0.438
		c-1.416,0.715-2.638,1.686-3.818,2.626c-1.266,1.008-2.459,1.96-3.752,2.484c-5.619,2.278-12.079,1.411-19.749-2.648
		c-0.944-0.499-2.118-0.141-2.619,0.806c-0.5,0.946-0.139,2.119,0.807,2.619c5.427,2.874,10.506,4.313,15.185,4.313
		c2.752,0,5.369-0.498,7.832-1.497c1.813-0.733,3.285-1.909,4.713-3.044c1.074-0.855,2.089-1.664,3.146-2.199
		c1.344-0.676,3.762-0.979,5.791-0.25c1.231,0.443,2.08,1.175,2.514,2.171c0.43,0.981,1.571,1.43,2.553,1.001
		C45.78,43.002,46.229,41.859,45.8,40.879z"/>
</g>
</svg>
