<?xml version="1.0" encoding="iso-8859-1"?>
<!-- Generator: Adobe Illustrator 14.0.0, SVG Export Plug-In . SVG Version: 6.00 Build 43363)  -->
<!DOCTYPE svg PUBLIC "-//W3C//DTD SVG 1.1//EN" "http://www.w3.org/Graphics/SVG/1.1/DTD/svg11.dtd">
<svg version="1.1" id="icon-m-content-clipart-layer"
	 xmlns="http://www.w3.org/2000/svg" xmlns:xlink="http://www.w3.org/1999/xlink" x="0px" y="0px" width="48px" height="48px"
	 viewBox="0 0 48 48" style="enable-background:new 0 0 48 48;" xml:space="preserve">
<g id="icon-m-content-clipart_2_">
	<rect style="fill:none;" width="48" height="48"/>
	<path style="fill:#333333;" d="M30.741,4.398h-0.009C30.65,2.37,28.972,0.75,26.904,0.75H13.561c-2.066,0-3.746,1.62-3.828,3.648
		H9.725v1.459h21.016V4.398z"/>
	<path style="fill:#333333;" d="M38.611,6.126c0-0.75-0.613-1.363-1.361-1.363h-2.609V9.74H5.845V4.763H3.236
		c-0.749,0-1.361,0.613-1.361,1.363v35.55c0,0.75,0.613,1.364,1.361,1.364h11.128V19.912c0-1.955,1.588-3.545,3.543-3.545h20.704
		V6.126z"/>
	<polygon style="fill:#333333;" points="36.701,20.271 36.701,30.018 46.125,30.018 46.125,29.717 	"/>
	<path style="fill:#333333;" d="M32.921,31.813V20.235H19.148c-0.508,0-0.918,0.413-0.918,0.919V46.33c0,0.506,0.41,0.92,0.918,0.92
		h25.936c0.504,0,0.916-0.414,0.916-0.92V33.883H34.986C33.848,33.883,32.921,32.955,32.921,31.813z M20.473,40.947l5.247-18.361
		l5.247,18.361H20.473z M38.967,36.378c2.316,0,4.193,1.877,4.193,4.191c0,2.315-1.877,4.192-4.193,4.192
		c-2.313,0-4.189-1.877-4.189-4.192C34.777,38.255,36.653,36.378,38.967,36.378z"/>
</g>
</svg>
