<?xml version="1.0" encoding="iso-8859-1"?>
<!-- Generator: Adobe Illustrator 14.0.0, SVG Export Plug-In . SVG Version: 6.00 Build 43363)  -->
<!DOCTYPE svg PUBLIC "-//W3C//DTD SVG 1.1//EN" "http://www.w3.org/Graphics/SVG/1.1/DTD/svg11.dtd">
<svg version="1.1" id="icon-s-application-layer" xmlns="http://www.w3.org/2000/svg" xmlns:xlink="http://www.w3.org/1999/xlink"
	 x="0px" y="0px" width="18px" height="18px" viewBox="0 0 18 18" style="enable-background:new 0 0 18 18;" xml:space="preserve">
<g id="icon-s-application_1_">
	<rect style="fill:none;" width="18" height="18"/>
	<path style="fill:#333333;" d="M7.573,1.674c0-0.013,0-0.028,0-0.043C7.57,1.484,7.562,1.138,7.325,0.754
		C7.123,0.41,6.675,0.105,6.112,0.047c-0.011,0-0.021,0-0.032,0c-0.067-0.006-0.135-0.012-0.205-0.01h-1.99v0.002H1.923
		C1.239,0.021,0.686,0.365,0.456,0.76C0.217,1.145,0.21,1.492,0.206,1.634c0,0.017,0,0.032,0,0.043L0.208,5.6
		c0,0.014,0,0.025,0,0.044C0.21,5.789,0.229,6.135,0.466,6.519c0.229,0.391,0.776,0.729,1.45,0.718h3.942c0.016,0,0.032,0,0.048,0
		c0.055,0,0.107-0.006,0.16-0.011c0.021,0,0.042,0,0.061-0.005c0.037-0.002,0.07-0.011,0.106-0.017
		c0.511-0.087,0.914-0.37,1.101-0.689c0.238-0.387,0.247-0.733,0.25-0.876c0-0.016-0.001-0.031-0.001-0.041L7.573,1.674z"/>
	<path style="fill:#333333;" d="M10.438,7.31c0,0.011,0,0.024,0,0.04c0.003,0.139,0.009,0.486,0.238,0.881
		c0.215,0.396,0.753,0.758,1.42,0.75h0.002h3.979c0.016,0,0.032,0,0.049,0c0.662,0,1.195-0.344,1.42-0.737
		c0.238-0.394,0.246-0.75,0.249-0.892c0-0.026-0.001-0.042-0.001-0.051l-0.012-4.012c0-0.016,0-0.028-0.002-0.055
		c-0.004-0.132-0.027-0.428-0.201-0.771c-0.188-0.41-0.734-0.853-1.445-0.832c-0.018,0-0.04,0-0.067,0.002h-3.923
		c-0.684-0.018-1.236,0.332-1.467,0.736c-0.238,0.395-0.247,0.747-0.25,0.895c0,0.018,0,0.03,0.001,0.043L10.438,7.31z
		 M11.702,3.261c0,0,0,0,0-0.007c0-0.035,0.018-0.158,0.057-0.213c0.053-0.051,0.04-0.116,0.385-0.134h3.963l0.022-0.001h0.005
		c0.283,0.021,0.242,0.057,0.313,0.143c0.024,0.046,0.044,0.11,0.052,0.162c0.008,0.053,0.008,0.08,0.008,0.08l0.012,4.034
		c0,0.022,0,0.024,0,0.024c0.005,0.018-0.013,0.159-0.057,0.22c-0.053,0.054-0.039,0.117-0.386,0.134h-3.938c0,0-0.005,0-0.007,0
		c-0.006,0-0.009,0-0.009,0c-0.323-0.018-0.297-0.072-0.352-0.128c-0.038-0.056-0.057-0.171-0.06-0.214l0.002-0.012l-0.012-4.084
		V3.261z"/>
	<path style="fill:#333333;" d="M17.784,12.248c-0.004-0.138-0.01-0.484-0.236-0.881c-0.213-0.402-0.762-0.772-1.438-0.752
		c-0.006,0-0.021,0-0.041,0h-3.924c-0.685-0.018-1.238,0.332-1.468,0.736c-0.239,0.395-0.247,0.748-0.251,0.895
		c0,0.018,0,0.031,0.001,0.045l0.011,4.003c0,0.014,0,0.029,0,0.046c0.003,0.153,0.012,0.503,0.245,0.895
		c0.224,0.396,0.77,0.746,1.438,0.729h3.956c0.016,0,0.033,0.002,0.051,0.002c0.662,0,1.194-0.346,1.419-0.739
		c0.237-0.394,0.245-0.748,0.248-0.892c0-0.026,0-0.043,0-0.049l-0.013-3.994C17.782,12.285,17.784,12.269,17.784,12.248z
		 M16.462,16.555c-0.053,0.051-0.039,0.115-0.385,0.132v0.001h-3.934c-0.012,0-0.02,0-0.022,0c-0.323-0.018-0.3-0.072-0.353-0.121
		c-0.037-0.051-0.055-0.173-0.057-0.214c0-0.005,0-0.01,0-0.01l0.001-0.011l-0.011-4.084v-0.016c0.001-0.04,0.02-0.155,0.058-0.209
		c0.052-0.051,0.039-0.116,0.386-0.133h3.963h0.006c0.309,0.019,0.281,0.066,0.334,0.124c0.046,0.067,0.063,0.217,0.061,0.233v0.004
		l-0.002,0.012l0.012,4.044c0.002,0.022,0.002,0.026,0.002,0.026C16.523,16.35,16.506,16.493,16.462,16.555z"/>
	<path style="fill:#333333;" d="M7.023,10.615H3.085c-0.686-0.018-1.238,0.334-1.468,0.737c-0.239,0.396-0.247,0.749-0.25,0.896
		c0,0.016,0,0.028,0.001,0.039l0.011,3.998c0,0.016-0.001,0.035-0.001,0.06c0.003,0.155,0.013,0.508,0.252,0.898
		c0.221,0.382,0.733,0.712,1.366,0.72h0.002h4.02c0.016,0,0.033,0,0.05,0c0.644,0,1.169-0.324,1.397-0.715
		c0.241-0.388,0.253-0.742,0.256-0.9c0-0.021-0.001-0.037-0.001-0.049l0.004-4.004c0.001-0.018,0.001-0.041,0.001-0.067
		c-0.003-0.167-0.017-0.521-0.26-0.904c-0.237-0.392-0.785-0.716-1.444-0.708 M7.445,16.348c0,0-0.016,0.164-0.057,0.216
		c-0.047,0.047-0.032,0.106-0.371,0.124H3.108c-0.015-0.001-0.026-0.001-0.032-0.001c-0.003,0-0.004,0-0.004,0
		c-0.333-0.017-0.315-0.073-0.363-0.12c-0.038-0.052-0.058-0.176-0.057-0.215c0-0.007,0-0.007,0-0.007l0.001-0.013l-0.01-4.078
		l-0.001-0.016c0-0.037,0.019-0.158,0.059-0.214c0.052-0.052,0.039-0.117,0.384-0.134h3.93c0.341,0.02,0.335,0.085,0.381,0.127
		c0.038,0.051,0.054,0.21,0.054,0.21L7.445,16.348z"/>
</g>
</svg>
