<?xml version="1.0" encoding="iso-8859-1"?>
<!-- Generator: Adobe Illustrator 14.0.0, SVG Export Plug-In . SVG Version: 6.00 Build 43363)  -->
<!DOCTYPE svg PUBLIC "-//W3C//DTD SVG 1.1//EN" "http://www.w3.org/Graphics/SVG/1.1/DTD/svg11.dtd">
<svg version="1.1" id="icon-s-messaging-smiley-sarcastic-layer"
	 xmlns="http://www.w3.org/2000/svg" xmlns:xlink="http://www.w3.org/1999/xlink" x="0px" y="0px" width="18px" height="18px"
	 viewBox="0 0 18 18" style="enable-background:new 0 0 18 18;" xml:space="preserve">
<g id="icon-s-messaging-smiley-sarcastic">
	<rect style="fill:none;" width="18" height="18"/>
	<g>
		<path style="fill:#333333;" d="M9.658,11.814"/>
		<circle style="fill:#FFCD0A;" cx="9" cy="9" r="8.5"/>
		<circle style="fill:#040505;" cx="7.224" cy="7.583" r="0.708"/>
		<path style="fill:#040505;" d="M8.529,6.753c-0.138,0.138-0.364,0.138-0.501,0L6.274,5c-0.137-0.138-0.137-0.363,0-0.501l0,0
			c0.138-0.138,0.363-0.138,0.501,0l1.753,1.753C8.666,6.39,8.666,6.615,8.529,6.753L8.529,6.753z"/>
		<circle style="fill:#040505;" cx="10.776" cy="7.583" r="0.708"/>
		<path style="fill:#040505;" d="M9.471,6.753c0.138,0.138,0.364,0.138,0.501,0L11.726,5c0.138-0.138,0.138-0.363,0-0.501l0,0
			c-0.138-0.138-0.363-0.138-0.501,0L9.471,6.252C9.334,6.39,9.334,6.615,9.471,6.753L9.471,6.753z"/>
		<path style="fill:#040505;" d="M3.012,11.381c0,0,0.229-2.807,3.245-2.092C6.257,9.289,2.6,7.602,3.012,11.381z"/>
		<path style="fill:#040505;" d="M7.079,12.327c-1.522-0.606-2.585-1.769-2.872-2.962L3.699,9.645
			c-0.102,1.449,1.078,3.027,2.945,3.772c2.181,0.87,4.58,0.763,5.221-0.845c0.074-0.186,0.121-0.379,0.146-0.573
			C11.128,13.207,9.006,13.096,7.079,12.327z"/>
	</g>
</g>
</svg>
