<?xml version="1.0" encoding="iso-8859-1"?>
<!-- Generator: Adobe Illustrator 14.0.0, SVG Export Plug-In . SVG Version: 6.00 Build 43363)  -->
<!DOCTYPE svg PUBLIC "-//W3C//DTD SVG 1.1//EN" "http://www.w3.org/Graphics/SVG/1.1/DTD/svg11.dtd">
<svg version="1.1" id="icon-m-image-edit-straighten-layer"
	 xmlns="http://www.w3.org/2000/svg" xmlns:xlink="http://www.w3.org/1999/xlink" x="0px" y="0px" width="48px" height="48px"
	 viewBox="0 0 48 48" style="enable-background:new 0 0 48 48;" xml:space="preserve">
<g id="icon-m-image-edit-straighten">
	<rect style="fill:none;" width="48" height="48"/>
	<path style="fill:#333333;" d="M17.442,46.219v-2.25h4.162v2.25H17.442L17.442,46.219z M26.004,46.219v-2.25h4.398v2.25H26.004
		L26.004,46.219z M34.803,46.219v-2.25h4.398v2.25H34.803L34.803,46.219z M43.601,46.219v-2.25H48v2.25H43.601L43.601,46.219z"/>
	<path style="fill:#333333;" d="M0,46.219v-2.25h4.399v2.25H0L0,46.219z M8.798,46.219v-2.25h4.399v2.25H8.798L8.798,46.219z"/>
	<polygon style="fill:#333333;" points="25.069,34.219 3,34.219 3,17.755 6.651,17.755 8.154,14.755 0,14.755 0,37.219 
		29.25,37.219 29.25,36.313 	"/>
	<path style="fill:#333333;" d="M18.85,1.781L8.786,21.865l26.149,13.104L45,14.885L18.85,1.781z M20.188,5.808l20.786,10.415
		l-7.376,14.72L12.811,20.527L20.188,5.808z"/>
</g>
</svg>
