<?xml version="1.0" encoding="iso-8859-1"?>
<!-- Generator: Adobe Illustrator 14.0.0, SVG Export Plug-In . SVG Version: 6.00 Build 43363)  -->
<!DOCTYPE svg PUBLIC "-//W3C//DTD SVG 1.1//EN" "http://www.w3.org/Graphics/SVG/1.1/DTD/svg11.dtd">
<svg version="1.1" id="icon-m-toolbar-update-layer"
	 xmlns="http://www.w3.org/2000/svg" xmlns:xlink="http://www.w3.org/1999/xlink" x="0px" y="0px" width="32px" height="32px"
	 viewBox="0 0 32 32" style="enable-background:new 0 0 32 32;" xml:space="preserve">
<g id="icon-m-toolbar-update">
	<rect style="fill:none;" width="32" height="32"/>
	<path style="fill:#FFFFFF;" d="M24.54,7.393c-2.293-2.279-5.331-3.533-8.553-3.533c-6.466,0-11.855,5.098-12.212,11.475H0.586
		c-0.264,0-0.491,0.326-0.261,0.58l4.64,4.352c0.139,0.15,0.378,0.152,0.519-0.002l4.408-4.35c0.272-0.299-0.025-0.58-0.262-0.58
		H6.441c0.352-4.906,4.551-8.809,9.546-8.809c2.5,0,4.862,0.973,6.65,2.736l0.224,0.221l1.909-1.861L24.54,7.393z"/>
	<path style="fill:#FFFFFF;" d="M31.677,16l-4.641-4.064c-0.139-0.148-0.378-0.152-0.519,0.002L22.108,16
		c-0.272,0.301,0.026,0.582,0.264,0.582h3.15c-0.445,4.813-4.608,8.895-9.535,8.895c-2.337,0-4.589-0.871-6.34-2.455l-0.23-0.207
		l-1.851,1.912l0.242,0.223c2.251,2.059,5.155,3.192,8.18,3.192c6.398,0,11.747-5.274,12.2-11.561h3.226
		C31.679,16.582,31.906,16.256,31.677,16z"/>
</g>
</svg>
