<?xml version="1.0" encoding="iso-8859-1"?>
<!-- Generator: Adobe Illustrator 14.0.0, SVG Export Plug-In . SVG Version: 6.00 Build 43363)  -->
<!DOCTYPE svg PUBLIC "-//W3C//DTD SVG 1.1//EN" "http://www.w3.org/Graphics/SVG/1.1/DTD/svg11.dtd">
<svg version="1.1" id="icon-s-status-tilde-layer" xmlns="http://www.w3.org/2000/svg" xmlns:xlink="http://www.w3.org/1999/xlink"
	 x="0px" y="0px" width="27px" height="12px" viewBox="0 0 27 12" style="enable-background:new 0 0 27 12;" xml:space="preserve">
<g id="icon-s-status-tilde">
	<rect style="fill:none;" width="27" height="12"/>
	<path style="fill:#FFFFFF;" d="M26.855,5.664C26.072,7.063,25.232,8.633,24,9.752c-1.232,1.12-2.801,1.848-4.48,1.848
		c-1.512,0-2.855-0.672-4.312-1.68c-1.343-0.951-2.575-2.184-3.919-3.079C10.056,6,8.992,5.496,7.76,5.496
		C6.64,5.496,5.464,6,4.568,6.728c-1.456,1.177-2.24,2.688-3.248,4.536L0.144,6.673C1.04,4.992,2.048,3.2,3.56,1.969
		C4.736,1.016,6.192,0.4,7.872,0.4c1.68,0,2.968,0.615,4.424,1.68c1.4,1.008,2.688,2.297,4.088,3.248
		c1.12,0.729,2.185,1.176,3.248,1.176c1.288,0,2.521-0.672,3.584-1.68s1.792-2.464,2.407-3.752L26.855,5.664z"/>
</g>
</svg>
