<?xml version="1.0" encoding="iso-8859-1"?>
<!-- Generator: Adobe Illustrator 14.0.0, SVG Export Plug-In . SVG Version: 6.00 Build 43363)  -->
<!DOCTYPE svg PUBLIC "-//W3C//DTD SVG 1.1//EN" "http://www.w3.org/Graphics/SVG/1.1/DTD/svg11.dtd">
<svg version="1.1" id="icon-s-status-ovi-layer" xmlns="http://www.w3.org/2000/svg" xmlns:xlink="http://www.w3.org/1999/xlink"
	 x="0px" y="0px" width="18px" height="18px" viewBox="0 0 18 18" style="enable-background:new 0 0 18 18;" xml:space="preserve">
<g id="icon-s-status-ovi_1_">
	<rect style="fill:none;" width="18" height="18"/>
	<path style="fill:#999999;" d="M4.482,7.544c-1.063,0-1.147,1.292-1.147,2.284c0,1.016,0.047,2.57,1.147,2.57
		c1.099,0,1.159-1.388,1.159-2.57C5.643,8.907,5.499,7.544,4.482,7.544z"/>
	<path style="fill:#999999;" d="M16.979,0H1.022C0.46,0,0,0.46,0,1.021v15.955C0,17.54,0.46,18,1.022,18h15.955
		C17.54,18,18,17.54,18,16.979V1.021C18,0.46,17.54,0,16.979,0z M4.482,13.5c-2.332,0-3.132-1.604-3.132-3.635
		c0-2.012,1.088-3.422,3.156-3.422c2.141,0,3.12,1.424,3.12,3.469C7.627,12.052,6.634,13.5,4.482,13.5z M11.602,12.473
		c-0.239,0.633-0.497,1.027-1.337,1.027s-1.097-0.395-1.336-1.027L7.21,6.54h1.997l1.22,5.133l1.291-5.133h1.688L11.602,12.473z
		 M16.086,12.621c0,0.176,0,0.496-0.271,0.688c-0.143,0.101-0.356,0.19-0.686,0.19c-0.314,0-0.537-0.092-0.679-0.19
		c-0.271-0.191-0.271-0.513-0.271-0.688V7.637c0,0-0.048,0-0.11,0c-0.183,0-0.333-0.001-0.44-0.144
		c-0.049-0.067-0.116-0.179-0.116-0.402c0-0.215,0.067-0.337,0.116-0.401c0.107-0.146,0.259-0.147,0.44-0.147
		c0.062,0,0.13-0.001,0.13-0.001h1.885L16.086,12.621L16.086,12.621z M15.148,5.82c-0.609,0-1.052-0.312-1.052-0.885
		c0-0.576,0.43-0.887,1.052-0.887c0.586,0,1.051,0.323,1.051,0.887C16.199,5.509,15.759,5.82,15.148,5.82z"/>
</g>
</svg>
