<?xml version="1.0" encoding="iso-8859-1"?>
<!-- Generator: Adobe Illustrator 14.0.0, SVG Export Plug-In . SVG Version: 6.00 Build 43363)  -->
<!DOCTYPE svg PUBLIC "-//W3C//DTD SVG 1.1//EN" "http://www.w3.org/Graphics/SVG/1.1/DTD/svg11.dtd">
<svg version="1.1" id="icon-m-camera-resolution-63m-layer"
	 xmlns="http://www.w3.org/2000/svg" xmlns:xlink="http://www.w3.org/1999/xlink" x="0px" y="0px" width="32px" height="32px"
	 viewBox="0 0 32 32" style="enable-background:new 0 0 32 32;" xml:space="preserve">
<g id="icon-m-camera-resolution-63m">
	<rect style="fill:none;" width="32" height="32"/>
	<path style="fill:#FFFFFF;" d="M10.881,22.021c-0.337-0.065-0.619-0.094-0.918-0.094c-1.031,0-1.425,0.806-1.528,1.817
		c0.3-0.262,0.703-0.394,1.229-0.394c1.35,0,1.837,0.984,1.837,2.203c0,1.34-0.666,2.437-2.343,2.437
		c-2.006,0-2.287-1.733-2.287-3.242c0-1.79,0.674-3.722,2.942-3.722c0.366,0,0.76,0.028,1.069,0.075V22.021z M9.213,24.251
		c-0.6,0-0.787,0.571-0.787,1.19c0,0.806,0.047,1.696,0.74,1.696c0.704,0,0.778-0.693,0.778-1.556
		C9.944,24.879,9.832,24.251,9.213,24.251z"/>
	<path style="fill:#FFFFFF;" d="M12.663,28c-0.459,0-0.825-0.366-0.825-0.825s0.366-0.834,0.825-0.834s0.834,0.375,0.834,0.834
		S13.122,28,12.663,28z"/>
	<path style="fill:#FFFFFF;" d="M15.551,21.927c-0.432,0-0.882,0.112-1.331,0.234v-0.909c0.487-0.122,1.059-0.226,1.64-0.226
		c1.284,0,2.213,0.432,2.213,1.697c0,0.796-0.441,1.34-1.238,1.583c0.881,0.16,1.359,0.76,1.359,1.594c0,1.5-0.946,2.1-2.605,2.1
		c-0.553,0-1.04-0.075-1.575-0.216v-0.909c0.562,0.132,1.003,0.226,1.424,0.226c0.863,0,1.2-0.413,1.2-1.172
		c0-1.003-0.581-1.181-2.024-1.181v-0.863c1.387,0,1.94-0.149,1.94-1.059C16.553,22.217,16.216,21.927,15.551,21.927z"/>
	<path style="fill:#FFFFFF;" d="M25.131,27.925h-1.51v-4.527l-1.189,2.306h-0.563l-1.172-2.306v4.527H19.15v-6.823h1.35l1.65,3.225
		l1.648-3.225h1.332V27.925z"/>
	<polygon style="fill:#FFFFFF;" points="23.389,18.776 23.389,4 20.433,4 20.433,6.955 17.478,6.955 17.478,9.91 14.522,9.91 
		14.522,12.865 11.567,12.865 11.567,15.821 8.612,15.821 8.612,18.776 	"/>
</g>
</svg>
