<?xml version="1.0" encoding="iso-8859-1"?>
<!-- Generator: Adobe Illustrator 14.0.0, SVG Export Plug-In . SVG Version: 6.00 Build 43363)  -->
<!DOCTYPE svg PUBLIC "-//W3C//DTD SVG 1.1//EN" "http://www.w3.org/Graphics/SVG/1.1/DTD/svg11.dtd">
<svg version="1.1" id="icon-m-common-settings-layer"
	 xmlns="http://www.w3.org/2000/svg" xmlns:xlink="http://www.w3.org/1999/xlink" x="0px" y="0px" width="48px" height="48px"
	 viewBox="0 0 48 48" style="enable-background:new 0 0 48 48;" xml:space="preserve">
<g id="icon-m-common-settings_1_">
	<rect style="fill:none;" width="48" height="48"/>
	<path style="fill:#333333;" d="M45.843,37.892l-18.62-18.635c0.916-1.237,5.389-9.35-5.323-15.548
		C17.073,0.915,9.743,0.822,11.898,2.983l8.578,8.585c-1.353,4.124-4.276,7.684-8.964,8.955l-8.615-8.633
		C1.733,10.725,1.5,12.343,1.5,15.514c0,3.844,6.35,17.982,17.723,11.689l18.65,18.67c0.881,0.875,2.301,0.875,3.186,0l4.781-4.788
		C46.719,40.2,46.719,38.772,45.843,37.892z"/>
</g>
</svg>
