<?xml version="1.0" encoding="iso-8859-1"?>
<!-- Generator: Adobe Illustrator 14.0.0, SVG Export Plug-In . SVG Version: 6.00 Build 43363)  -->
<!DOCTYPE svg PUBLIC "-//W3C//DTD SVG 1.1//EN" "http://www.w3.org/Graphics/SVG/1.1/DTD/svg11.dtd">
<svg version="1.1" id="icon-m-toolbar-refresh1-layer"
	 xmlns="http://www.w3.org/2000/svg" xmlns:xlink="http://www.w3.org/1999/xlink" x="0px" y="0px" width="32px" height="32px"
	 viewBox="0 0 32 32" style="enable-background:new 0 0 32 32;" xml:space="preserve">
<g id="icon-m-toolbar-refresh1">
	<rect style="fill:none;" width="32" height="32"/>
	<path style="fill:#FFFFFF;" d="M5.817,5.818c-5.624,5.624-5.623,14.741,0,20.364s14.741,5.624,20.365,0
		c5.624-5.623,5.622-14.741-0.001-20.364S11.441,0.194,5.817,5.818z M14.584,24.678c-0.08,0.08-0.19,0.13-0.31,0.135l-7.357,0.28
		c-0.127,0.005-0.251-0.043-0.341-0.131c-0.092-0.09-0.142-0.212-0.141-0.341c0.003-0.119,0.052-0.291,0.137-0.376l2.074-2.074
		c-3.441-3.656-3.375-9.436,0.198-13.014c1.295-1.296,2.93-2.174,4.727-2.54c0.136-0.028,0.277,0.006,0.386,0.098
		c0.107,0.086,0.17,0.219,0.17,0.357l0.001,2.975c0,0.203-0.133,0.383-0.326,0.442c-0.863,0.268-1.624,0.728-2.263,1.363
		c-2.084,2.09-2.15,5.45-0.197,7.622l2.811-2.811c0.087-0.087,0.205-0.136,0.329-0.135c0.126-0.001,0.273,0.051,0.361,0.141
		c0.088,0.092,0.163,0.215,0.156,0.34l-0.28,7.357C14.715,24.487,14.665,24.598,14.584,24.678z M24.902,7.23l-2.407,2.406
		c3.181,3.656,3.023,9.277-0.435,12.736l0,0c-1.11,1.11-2.49,1.928-3.987,2.363c-0.14,0.041-0.292,0.012-0.409-0.074
		c-0.115-0.088-0.185-0.226-0.185-0.372v-3.073c-0.001-0.182,0.106-0.346,0.271-0.422c0.613-0.28,1.157-0.656,1.618-1.115
		c2.007-2.012,2.157-5.15,0.424-7.34l-2.472,2.472c-0.086,0.085-0.201,0.133-0.321,0.137c-0.128,0.001-0.277-0.049-0.367-0.141
		c-0.089-0.09-0.163-0.213-0.159-0.341l0.281-7.355c0.01-0.242,0.204-0.437,0.446-0.447l7.355-0.279
		c0.129-0.006,0.253,0.042,0.344,0.133c0.092,0.09,0.141,0.213,0.138,0.341C25.035,6.979,24.986,7.145,24.902,7.23z"/>
</g>
</svg>
