<?xml version="1.0" encoding="iso-8859-1"?>
<!-- Generator: Adobe Illustrator 14.0.0, SVG Export Plug-In . SVG Version: 6.00 Build 43363)  -->
<!DOCTYPE svg PUBLIC "-//W3C//DTD SVG 1.1//EN" "http://www.w3.org/Graphics/SVG/1.1/DTD/svg11.dtd">
<svg version="1.1" id="icon-s-status-usb-layer" xmlns="http://www.w3.org/2000/svg" xmlns:xlink="http://www.w3.org/1999/xlink"
	 x="0px" y="0px" width="31px" height="18px" viewBox="0 0 31 18" style="enable-background:new 0 0 31 18;" xml:space="preserve">
<g id="icon-s-status-usb_2_">
	<rect style="fill:none;" width="31" height="18"/>
	<path style="fill:#FFFFFF;" d="M30.926,8.98l-3.823-2.976v2.247H9.532l1.938-4.988c0.001-0.018,0.056-0.097,0.141-0.151
		c0.082-0.058,0.181-0.08,0.194-0.076h4.415v0.037c0.335,0.771,1.119,1.307,2.033,1.307c1.221,0,2.209-0.959,2.209-2.141
		c0-1.181-0.988-2.14-2.209-2.14c-0.922,0-1.713,0.549-2.043,1.328l0.001,0.038h-4.406c-0.848,0.036-1.525,0.487-1.858,1.245
		L7.796,8.248H5.568C5.211,7.142,4.146,6.339,2.884,6.339c-1.552,0-2.81,1.218-2.81,2.722c0,1.506,1.258,2.726,2.81,2.726
		c1.267,0,2.336-0.812,2.688-1.93h5.542l2.28,5.534c0.348,0.746,1.023,1.188,1.87,1.225h4.25V17.9h4.268v-4.135h-4.268v1.279h-4.25
		c-0.017,0.004-0.121-0.02-0.207-0.078c-0.088-0.056-0.148-0.143-0.15-0.156l-2.042-4.954h14.238v2.087L30.926,8.98z"/>
</g>
</svg>
