<?xml version="1.0" encoding="iso-8859-1"?>
<!-- Generator: Adobe Illustrator 14.0.0, SVG Export Plug-In . SVG Version: 6.00 Build 43363)  -->
<!DOCTYPE svg PUBLIC "-//W3C//DTD SVG 1.1//EN" "http://www.w3.org/Graphics/SVG/1.1/DTD/svg11.dtd">
<svg version="1.1" id="icon-m-music-video-now-playing-layer"
	 xmlns="http://www.w3.org/2000/svg" xmlns:xlink="http://www.w3.org/1999/xlink" x="0px" y="0px" width="48px" height="48px"
	 viewBox="0 0 48 48" style="enable-background:new 0 0 48 48;" xml:space="preserve">
<g id="icon-m-music-video-now-playing_1_">
	<polygon style="fill:none;" points="48,48 0,47.907 0,0 48,0.093 	"/>
	<g>
		<path style="fill:#333333;" d="M15.851,13.945c0-1.1,0.782-1.554,1.737-1.009L35.15,22.963c0.956,0.545,0.956,1.438,0,1.982
			L17.588,34.972c-0.955,0.545-1.737,0.091-1.737-1.009V13.945z"/>
	</g>
	<path style="fill:#333333;" d="M47.625,24C47.625,10.953,37.048,0.377,24,0.377S0.375,10.953,0.375,24S10.952,47.623,24,47.623
		c2.296,0,4.514-0.332,6.612-0.943v-3.879c-2.071,0.73-4.296,1.132-6.612,1.132C13.009,43.933,4.066,34.991,4.066,24
		C4.066,13.01,13.009,4.068,24,4.068c10.99,0,19.934,8.941,19.934,19.932c0,5.08-1.918,9.715-5.059,13.238l-3.834-3.834V43.74
		h10.337l-3.884-3.884C45.299,35.664,47.625,30.106,47.625,24z"/>
</g>
</svg>
