<?xml version="1.0" encoding="iso-8859-1"?>
<!-- Generator: Adobe Illustrator 14.0.0, SVG Export Plug-In . SVG Version: 6.00 Build 43363)  -->
<!DOCTYPE svg PUBLIC "-//W3C//DTD SVG 1.1//EN" "http://www.w3.org/Graphics/SVG/1.1/DTD/svg11.dtd">
<svg version="1.1" id="icon-m-telephony-skype-layer"
	 xmlns="http://www.w3.org/2000/svg" xmlns:xlink="http://www.w3.org/1999/xlink" x="0px" y="0px" width="48px" height="48px"
	 viewBox="0 0 48 48" style="enable-background:new 0 0 48 48;" xml:space="preserve">
<g id="icon-m-telephony-skype">
	<rect style="fill:none;" width="48" height="48"/>
	<path style="fill:#333333;" d="M46.303,29.096c0.342-1.562,0.521-3.181,0.521-4.846c0-12.466-10.107-22.572-22.572-22.572
		c-1.316,0-2.605,0.115-3.861,0.331C18.375,0.736,15.986,0,13.426,0C6.197,0,0.334,5.859,0.334,13.092
		c0,2.416,0.66,4.68,1.799,6.619c-0.299,1.469-0.455,2.984-0.455,4.539c0,12.468,10.105,22.576,22.572,22.576
		c1.41,0,2.793-0.131,4.133-0.383C30.229,47.436,32.334,48,34.572,48c7.23,0,13.092-5.861,13.092-13.092
		C47.664,32.818,47.174,30.848,46.303,29.096z M35.83,35.039c-1.045,1.479-2.588,2.648-4.588,3.479
		c-1.979,0.823-4.352,1.239-7.053,1.239c-3.242,0-5.961-0.569-8.084-1.692c-1.516-0.819-2.766-1.929-3.715-3.297
		c-0.959-1.387-1.445-2.759-1.445-4.082c0-0.826,0.316-1.545,0.941-2.131c0.617-0.582,1.41-0.877,2.355-0.877
		c0.775,0,1.445,0.233,1.988,0.692c0.52,0.44,0.967,1.092,1.324,1.937c0.4,0.913,0.838,1.688,1.297,2.295
		c0.441,0.588,1.082,1.082,1.893,1.465c0.82,0.389,1.92,0.584,3.281,0.584c1.865,0,3.395-0.397,4.547-1.185
		c1.125-0.769,1.672-1.688,1.672-2.815c0-0.893-0.287-1.594-0.873-2.144c-0.615-0.571-1.424-1.021-2.408-1.327
		c-1.027-0.318-2.42-0.664-4.143-1.025c-2.342-0.502-4.332-1.096-5.916-1.771c-1.619-0.688-2.922-1.643-3.877-2.837
		c-0.969-1.213-1.459-2.731-1.459-4.524c0-1.705,0.516-3.244,1.531-4.565c1.01-1.315,2.482-2.342,4.381-3.043
		c1.875-0.693,4.102-1.045,6.625-1.045c2.016,0,3.787,0.233,5.266,0.694c1.488,0.463,2.742,1.09,3.73,1.857
		c0.99,0.775,1.729,1.605,2.193,2.467C35.766,14.26,36,15.124,36,15.963c0,0.807-0.311,1.537-0.926,2.178
		c-0.617,0.645-1.396,0.969-2.318,0.969c-0.834,0-1.486-0.201-1.941-0.605c-0.424-0.374-0.861-0.956-1.35-1.792
		c-0.561-1.069-1.242-1.914-2.025-2.504c-0.756-0.579-2.025-0.873-3.768-0.873c-1.619,0-2.936,0.324-3.91,0.967
		c-0.943,0.615-1.4,1.323-1.4,2.163c0,0.516,0.145,0.943,0.451,1.312c0.32,0.395,0.771,0.738,1.344,1.022
		c0.594,0.298,1.207,0.535,1.818,0.704c0.627,0.176,1.68,0.434,3.123,0.77c1.826,0.389,3.506,0.828,4.99,1.303
		c1.504,0.48,2.803,1.074,3.861,1.766c1.082,0.703,1.938,1.605,2.547,2.689c0.607,1.078,0.916,2.418,0.916,3.973
		C37.408,31.861,36.877,33.555,35.83,35.039z"/>
</g>
</svg>
