<?xml version="1.0" encoding="iso-8859-1"?>
<!-- Generator: Adobe Illustrator 14.0.0, SVG Export Plug-In . SVG Version: 6.00 Build 43363)  -->
<!DOCTYPE svg PUBLIC "-//W3C//DTD SVG 1.1//EN" "http://www.w3.org/Graphics/SVG/1.1/DTD/svg11.dtd">
<svg version="1.1" id="icon-m-camera-exposure-minus03-layer"
	 xmlns="http://www.w3.org/2000/svg" xmlns:xlink="http://www.w3.org/1999/xlink" x="0px" y="0px" width="32px" height="32px"
	 viewBox="0 0 32 32" style="enable-background:new 0 0 32 32;" xml:space="preserve">
<g id="icon-m-camera-exposure-minus03">
	<g>
		<rect style="fill:none;" width="32" height="32"/>
	</g>
	<g>
		<path style="fill:#FFFFFF;" d="M8.022,17.959H3.648v-2.154h4.374V17.959z"/>
		<path style="fill:#FFFFFF;" d="M12.72,22.009c-3.677,0-3.984-3.126-3.984-6.155c0-2.737,0.437-5.879,4.049-5.879
			c3.563,0,3.953,3.109,3.953,5.879C16.737,18.915,16.364,22.009,12.72,22.009z M12.72,11.447c-1.279,0-1.36,1.718-1.36,4.406
			c0,3.127,0.129,4.682,1.36,4.682c1.215,0,1.328-1.555,1.328-4.682C14.048,13.148,13.983,11.447,12.72,11.447z"/>
		<path style="fill:#FFFFFF;" d="M18.795,22.025c-0.794,0-1.426-0.632-1.426-1.426s0.632-1.441,1.426-1.441s1.441,0.647,1.441,1.441
			S19.589,22.025,18.795,22.025z"/>
		<path style="fill:#FFFFFF;" d="M23.784,11.529c-0.745,0-1.522,0.193-2.3,0.404v-1.571c0.842-0.21,1.83-0.388,2.834-0.388
			c2.22,0,3.823,0.744,3.823,2.932c0,1.376-0.762,2.316-2.139,2.736c1.522,0.275,2.349,1.313,2.349,2.754
			c0,2.592-1.636,3.629-4.503,3.629c-0.955,0-1.798-0.13-2.721-0.373v-1.57c0.972,0.227,1.733,0.388,2.462,0.388
			c1.49,0,2.073-0.712,2.073-2.024c0-1.733-1.005-2.041-3.499-2.041v-1.49c2.397,0,3.354-0.259,3.354-1.83
			C25.518,12.031,24.935,11.529,23.784,11.529z"/>
	</g>
</g>
</svg>
