<?xml version="1.0" encoding="iso-8859-1"?>
<!-- Generator: Adobe Illustrator 14.0.0, SVG Export Plug-In . SVG Version: 6.00 Build 43363)  -->
<!DOCTYPE svg PUBLIC "-//W3C//DTD SVG 1.1//EN" "http://www.w3.org/Graphics/SVG/1.1/DTD/svg11.dtd">
<svg version="1.1" id="icon-s-status-pinyin-layer" xmlns="http://www.w3.org/2000/svg" xmlns:xlink="http://www.w3.org/1999/xlink"
	 x="0px" y="0px" width="33px" height="16px" viewBox="0 0 33 16" style="enable-background:new 0 0 33 16;" xml:space="preserve">
<g id="icon-s-status-pinyin_1_">
	<rect style="fill:none;" width="33" height="16"/>
	<path style="fill:#FFFFFF;" d="M4.855,3.504c0.306,0,0.476,0.238,0.476,0.578c0,0.357-0.17,0.595-0.476,0.595H3.699v3.417
		c0.289-0.137,0.578-0.271,0.85-0.408c0.085-0.051,0.17-0.068,0.255-0.068c0.187,0,0.357,0.102,0.459,0.307
		c0.051,0.102,0.068,0.203,0.068,0.306c0,0.204-0.136,0.374-0.323,0.476C4.583,8.943,4.142,9.148,3.699,9.369v4.877
		c0,1.174-0.493,1.548-1.7,1.548c-0.391,0-0.748-0.017-1.054-0.085c-0.272-0.051-0.442-0.272-0.442-0.578
		c0-0.051,0-0.102,0.017-0.153c0.051-0.339,0.255-0.459,0.527-0.459c0.034,0,0.085,0,0.119,0c0.204,0.017,0.476,0.052,0.714,0.052
		c0.476,0,0.544-0.102,0.544-0.596V9.913c-0.493,0.203-0.986,0.374-1.428,0.544c-0.085,0.016-0.153,0.033-0.238,0.033
		c-0.204,0-0.408-0.119-0.51-0.408C0.215,9.98,0.198,9.895,0.198,9.811c0-0.238,0.119-0.426,0.323-0.477
		c0.612-0.203,1.258-0.441,1.903-0.697v-3.96h-1.75c-0.306,0-0.459-0.237-0.459-0.595c0-0.34,0.153-0.578,0.459-0.578h1.75V0.615
		c0-0.324,0.255-0.494,0.629-0.494c0.391,0,0.646,0.17,0.646,0.494v2.889H4.855z M15.343,3.793c0.322,0,0.493,0.222,0.493,0.578
		s-0.171,0.578-0.493,0.578h-2.057v3.332h2.363c0.306,0,0.476,0.221,0.476,0.577c0,0.374-0.17,0.595-0.476,0.595h-2.363v5.916
		c0,0.34-0.238,0.51-0.646,0.51c-0.391,0-0.629-0.17-0.629-0.51V9.453H9.207c-0.068,0.629-0.136,1.156-0.255,1.598
		c-0.51,1.955-1.411,3.434-2.821,4.505c-0.17,0.136-0.357,0.204-0.528,0.204c-0.186,0-0.356-0.068-0.475-0.238
		c-0.119-0.119-0.187-0.289-0.187-0.459c0-0.169,0.085-0.357,0.289-0.51c1.241-0.918,2.074-2.176,2.498-3.842
		c0.085-0.357,0.17-0.764,0.222-1.258H5.841c-0.306,0-0.476-0.221-0.476-0.595c0-0.34,0.17-0.577,0.476-0.577h2.176
		c0.034-0.748,0.051-1.615,0.051-2.687V4.949H6.232c-0.323,0-0.493-0.222-0.493-0.578s0.17-0.578,0.493-0.578h5.117
		c0.697-1.156,1.19-2.277,1.53-3.23c0.102-0.305,0.306-0.441,0.578-0.441c0.085,0,0.17,0.018,0.272,0.051
		c0.306,0.086,0.476,0.256,0.476,0.527c0,0.102-0.017,0.204-0.068,0.322c-0.357,0.902-0.867,1.887-1.411,2.771H15.343z M7.966,0.24
		c0.187,0,0.374,0.103,0.51,0.271c0.391,0.562,0.833,1.275,1.139,1.973C9.683,2.603,9.7,2.705,9.7,2.79
		c0,0.238-0.153,0.407-0.374,0.526C9.19,3.367,9.088,3.402,8.969,3.402c-0.204,0-0.357-0.102-0.459-0.307
		C8.204,2.484,7.745,1.65,7.422,1.176C7.337,1.039,7.286,0.92,7.286,0.801c0-0.186,0.102-0.356,0.323-0.476
		C7.728,0.274,7.847,0.24,7.966,0.24z M9.343,5.629c0,1.02-0.017,1.887-0.051,2.652h2.72V4.949H9.343V5.629z"/>
	<path style="fill:#FFFFFF;" d="M31.357,1.787c0.271,0,0.459,0.221,0.459,0.596c0,0.391-0.188,0.595-0.459,0.595h-2.158
		c-0.341,0.884-0.731,1.733-1.174,2.566h4.335c0.272,0,0.442,0.222,0.442,0.595c0,0.374-0.17,0.578-0.442,0.578H17.775
		c-0.271,0-0.441-0.204-0.441-0.578c0-0.357,0.17-0.595,0.441-0.595h4.131c-0.271-0.884-0.611-1.733-1.003-2.566h-2.159
		c-0.271,0-0.459-0.204-0.459-0.595c0-0.357,0.188-0.596,0.459-0.596h5.576V0.666c0-0.272,0.255-0.511,0.662-0.511
		c0.408,0,0.697,0.238,0.697,0.511v1.121H31.357z M29.029,8.008c1.088,0,1.547,0.392,1.547,1.361v4.759
		c0,0.97-0.459,1.36-1.547,1.36h-7.922c-1.088,0-1.547-0.391-1.547-1.36V9.369c0-0.97,0.459-1.361,1.547-1.361H29.029z
		 M29.283,11.068V9.709c0-0.34-0.152-0.443-0.51-0.443h-7.411c-0.356,0-0.51,0.104-0.51,0.443v1.359H29.283z M20.853,13.771
		c0,0.341,0.153,0.442,0.51,0.442h7.411c0.357,0,0.51-0.102,0.51-0.442v-1.513h-8.431V13.771z M26.666,5.544
		c0.425-0.816,0.832-1.683,1.104-2.566h-5.474c0.391,0.815,0.731,1.699,1.021,2.566H26.666z"/>
</g>
</svg>
