<?xml version="1.0" encoding="iso-8859-1"?>
<!-- Generator: Adobe Illustrator 14.0.0, SVG Export Plug-In . SVG Version: 6.00 Build 43363)  -->
<!DOCTYPE svg PUBLIC "-//W3C//DTD SVG 1.1//EN" "http://www.w3.org/Graphics/SVG/1.1/DTD/svg11.dtd">
<svg version="1.1" id="icon-s-gallery-favorite-mark-layer"
	 xmlns="http://www.w3.org/2000/svg" xmlns:xlink="http://www.w3.org/1999/xlink" x="0px" y="0px" width="18px" height="18px"
	 viewBox="0 0 18 18" style="enable-background:new 0 0 18 18;" xml:space="preserve">
<g id="icon-s-gallery-favorite-mark">
	<rect style="opacity:0.3;fill:none;" width="18" height="18"/>
	<circle cx="9" cy="9" r="8.75"/>
	<path style="fill:#FFFFFF;" d="M15.507,7.344c0-0.242-0.198-0.438-0.443-0.445l0,0h-0.005c-0.002,0-0.004-0.001-0.006-0.001
		c-0.001,0-0.002,0.001-0.005,0.001L10.773,6.9L9.452,2.884c-0.06-0.178-0.225-0.308-0.424-0.308c-0.197,0-0.361,0.126-0.423,0.299
		H8.599L7.273,6.9L3.032,6.898L3.03,6.904c-0.013,0-0.024-0.007-0.037-0.007c-0.25,0-0.453,0.2-0.453,0.446
		c0,0.178,0.107,0.33,0.261,0.402L2.798,7.754l3.394,2.429l-1.309,3.964c-0.03,0.061-0.051,0.125-0.051,0.197
		c0,0.248,0.202,0.446,0.453,0.446c0.099,0,0.184-0.037,0.259-0.089l0.004,0.002l3.475-2.491l3.412,2.446
		c0.005,0.004,0.01,0.007,0.014,0.01l0.029,0.021l0.001-0.002c0.077,0.062,0.171,0.103,0.278,0.103c0.25,0,0.453-0.198,0.453-0.446
		c0-0.039-0.013-0.074-0.022-0.11l0.003-0.001l-0.01-0.03c-0.005-0.015-0.008-0.029-0.014-0.044l-1.312-3.976l3.456-2.474
		l-0.003-0.006C15.426,7.621,15.507,7.495,15.507,7.344z"/>
</g>
</svg>
