<?xml version="1.0" encoding="iso-8859-1"?>
<!-- Generator: Adobe Illustrator 14.0.0, SVG Export Plug-In . SVG Version: 6.00 Build 43363)  -->
<!DOCTYPE svg PUBLIC "-//W3C//DTD SVG 1.1//EN" "http://www.w3.org/Graphics/SVG/1.1/DTD/svg11.dtd">
<svg version="1.1" id="icon-s-common-pending-layer"
	 xmlns="http://www.w3.org/2000/svg" xmlns:xlink="http://www.w3.org/1999/xlink" x="0px" y="0px" width="18px" height="18px"
	 viewBox="0 0 18 18" style="enable-background:new 0 0 18 18;" xml:space="preserve">
<g id="icon-s-common-pending">
	<rect style="fill:none;" width="18" height="18"/>
	<path style="fill:#333333;" d="M9,0C4.03,0,0,4.029,0,9s4.03,9,9,9c4.971,0,9-4.029,9-9S13.971,0,9,0z M10.782,10.156
		c1.209,0.955,1.965,1.814,1.965,3.844H5.252c0-1.904,0.683-2.693,1.789-3.69v-0.003l0.057-0.055
		c0.457-0.387,0.689-0.793,0.69-1.205c0.002-0.584-0.446-1.096-0.823-1.424C5.891,6.598,5.252,5.871,5.252,4h7.495
		c0,2.029-0.755,2.889-1.972,3.851c-0.262,0.272-0.587,0.716-0.576,1.213C10.207,9.436,10.403,9.803,10.782,10.156z"/>
</g>
</svg>
