<?xml version="1.0" encoding="iso-8859-1"?>
<!-- Generator: Adobe Illustrator 14.0.0, SVG Export Plug-In . SVG Version: 6.00 Build 43363)  -->
<!DOCTYPE svg PUBLIC "-//W3C//DTD SVG 1.1//EN" "http://www.w3.org/Graphics/SVG/1.1/DTD/svg11.dtd">
<svg version="1.1" id="icon-s-status-arabic-layer" xmlns="http://www.w3.org/2000/svg" xmlns:xlink="http://www.w3.org/1999/xlink"
	 x="0px" y="0px" width="36px" height="16px" viewBox="0 0 36 16" style="enable-background:new 0 0 36 16;" xml:space="preserve">
<g id="icon-s-status-arabic_1_">
	<rect style="fill:none;" width="36" height="16"/>
	<path style="fill:#FFFFFF;" d="M16.352,4.961c0.065,0.366,0.098,0.817,0.098,1.354c0,1.726-0.781,3.159-2.344,4.304
		c-1.562,1.143-3.683,1.715-6.36,1.715c-2.393,0-4.236-0.463-5.53-1.386c-1.294-0.924-1.941-2.228-1.941-3.913
		c0-0.968,0.159-1.826,0.476-2.575l2.002,0.501c-0.236,0.627-0.354,1.31-0.354,2.051c0,1.969,1.782,2.953,5.347,2.953
		c1.92,0,3.498-0.384,4.73-1.153c1.233-0.769,1.85-1.768,1.85-2.997c0-0.357-0.033-0.643-0.098-0.854H16.352z M7.856,1.957H6.049
		V0.164h1.807V1.957z M11.127,1.957H9.333V0.164h1.795V1.957z"/>
	<path style="fill:#FFFFFF;" d="M35.627,4.961c0.064,0.366,0.098,0.817,0.098,1.354c0,1.726-0.781,3.159-2.344,4.304
		c-1.562,1.143-3.683,1.715-6.359,1.715c-2.393,0-4.236-0.463-5.53-1.386c-1.294-0.924-1.94-2.228-1.94-3.913
		c0-0.968,0.158-1.826,0.476-2.575l2.002,0.501c-0.236,0.627-0.354,1.31-0.354,2.051c0,1.969,1.783,2.953,5.348,2.953
		c1.92,0,3.497-0.384,4.729-1.153c1.233-0.769,1.85-1.768,1.85-2.997c0-0.357-0.032-0.643-0.098-0.854H35.627z M28.498,15.837
		h-2.173v-2.173h2.173V15.837z"/>
</g>
</svg>
