<?xml version="1.0" encoding="iso-8859-1"?>
<!-- Generator: Adobe Illustrator 14.0.0, SVG Export Plug-In . SVG Version: 6.00 Build 43363)  -->
<!DOCTYPE svg PUBLIC "-//W3C//DTD SVG 1.1//EN" "http://www.w3.org/Graphics/SVG/1.1/DTD/svg11.dtd">
<svg version="1.1" id="icon-m-content-pdf-layer" xmlns="http://www.w3.org/2000/svg" xmlns:xlink="http://www.w3.org/1999/xlink"
	 x="0px" y="0px" width="48px" height="48px" viewBox="0 0 48 48" style="enable-background:new 0 0 48 48;" xml:space="preserve">
<g id="icon-m-content-pdf_2_">
	<rect style="fill:none;" width="48" height="48"/>
	<polygon style="fill:#333333;" points="29,0.27 29,16.677 44.904,16.677 44.904,16.17 	"/>
	<path style="fill:#333333;" d="M25.131,17.064V0H4.646c-0.851,0-1.55,0.697-1.55,1.549v44.902c0,0.852,0.699,1.549,1.55,1.549
		h38.711c0.85,0,1.548-0.697,1.548-1.549V20.547h-16.29C26.693,20.547,25.131,18.984,25.131,17.064z M35.768,31.328
		c0.414,0.524,0.533,1.168,0.352,1.912c-0.438,1.809-2.009,2.804-4.421,2.804c-1.841,0-3.73-0.578-4.784-1.15
		c-0.52-0.283-1.054-0.617-1.587-0.995c-2.436,0.268-4.725,0.744-6.804,1.416l-0.093,0.031c-0.423,0.135-0.959,0.309-1.547,0.516
		c-0.528,0.904-1.019,1.686-1.496,2.387c-0.04,0.061-4.052,5.844-6.65,5.844c-0.629,0-1.457-0.326-1.824-1.875
		c-1.006-4.219,3.94-7.41,6.112-8.586c0.324-0.176,0.656-0.337,0.99-0.496c1.183-2.273,2.146-4.404,2.941-6.508
		c0.269-0.705,0.575-1.518,0.85-2.337c-0.22-0.54-0.4-1.042-0.551-1.532c-0.661-2.152-1.554-6.076-0.127-8.188
		c0.577-0.854,1.465-1.336,2.636-1.434c1.059-0.091,1.868,0.244,2.434,0.977c1.62,2.102,0.594,7.053,0.033,9.236
		c0.168,0.336,0.338,0.631,0.514,0.896c1.268,1.904,2.76,4.061,4.521,5.666c0.766-0.052,1.736-0.106,2.746-0.106
		C33.078,29.806,34.962,30.304,35.768,31.328z"/>
	<path style="fill:#333333;" d="M18.062,32.223c1.819-0.535,3.685-0.979,5.552-1.32c-1.163-1.258-2.247-2.632-3.22-4.084
		C19.648,28.712,18.866,30.529,18.062,32.223z"/>
</g>
</svg>
