<?xml version="1.0" encoding="iso-8859-1"?>
<!-- Generator: Adobe Illustrator 14.0.0, SVG Export Plug-In . SVG Version: 6.00 Build 43363)  -->
<!DOCTYPE svg PUBLIC "-//W3C//DTD SVG 1.1//EN" "http://www.w3.org/Graphics/SVG/1.1/DTD/svg11.dtd">
<svg version="1.1" id="icon-l-calculator-layer" xmlns="http://www.w3.org/2000/svg" xmlns:xlink="http://www.w3.org/1999/xlink"
	 x="0px" y="0px" width="80px" height="81px" viewBox="0 0 80 81" style="enable-background:new 0 0 80 81;" xml:space="preserve">
<g id="icon-l-calculator_1_">
	<path style="fill:#63C0CF;" d="M65.016,10H14.984c-1.059,0-1.925,0.843-1.925,1.873v56.252c0,1.032,0.866,1.875,1.925,1.875h50.031
		c1.059,0,1.925-0.843,1.925-1.875V11.873C66.94,10.843,66.074,10,65.016,10z M29.416,64.373h-9.621V55h9.621V64.373z M29.416,51.25
		h-9.621v-9.377h9.621V51.25z M44.811,64.373h-9.621V55h9.621V64.373z M44.811,51.25h-9.621v-9.377h9.621V51.25z M60.205,64.373
		h-9.621V55h9.621V64.373z M60.205,51.25h-9.621v-9.377h9.621V51.25z M60.205,37.188h-40.41V15.623h40.41V37.188z M45.967,33.178
		h-8.853v-1.65h2.964v-9.789l-2.964,0.62v-1.613l4.387-1.331h1.676v12.113h2.79V33.178z M56.781,33.178h-8.893v-1.2
		c0-2.869,1.791-4.518,3.581-5.983c1.213-0.99,2.021-1.705,2.021-2.867c0-1.258-0.636-1.95-2.156-1.95
		c-1.077,0-2.04,0.299-2.963,0.62v-1.86c1.23-0.354,2.481-0.562,3.752-0.562c2.811,0,4.562,1.107,4.562,3.639
		c0,2.025-1.136,3.113-2.771,4.464c-1.732,1.425-2.869,2.416-3.002,3.899h5.869V33.178z"/>
	<rect style="fill:none;" width="80" height="80"/>
</g>
</svg>
