<?xml version="1.0" encoding="iso-8859-1"?>
<!-- Generator: Adobe Illustrator 14.0.0, SVG Export Plug-In . SVG Version: 6.00 Build 43363)  -->
<!DOCTYPE svg PUBLIC "-//W3C//DTD SVG 1.1//EN" "http://www.w3.org/Graphics/SVG/1.1/DTD/svg11.dtd">
<svg version="1.1" id="icon-m-content-tags-layer" xmlns="http://www.w3.org/2000/svg" xmlns:xlink="http://www.w3.org/1999/xlink"
	 x="0px" y="0px" width="48px" height="48px" viewBox="0 0 48 48" style="enable-background:new 0 0 48 48;" xml:space="preserve">
<g id="icon-m-content-tags">
	<rect style="fill:none;" width="48" height="48"/>
	<path style="fill:#333333;" d="M19.07,2.638L19.065,2.65c-0.379-0.091-0.785-0.068-1.154,0.104l-1.906,0.897l5.606,2.625
		c0.417,0.195,0.729,0.532,0.924,0.926l0.013-0.005L30.225,26.9l9.611,3.204L46,11.614L19.07,2.638z"/>
	<path style="fill:#333333;" d="M2.12,18.693l10.25,26.306l18.159-7.074l-10.305-26.45l-0.012,0.004
		c-0.173-0.349-0.45-0.647-0.82-0.82L8.75,5.674C7.912,5.28,6.941,5.658,6.59,6.515l-4.467,10.87
		c-0.155,0.379-0.157,0.786-0.047,1.159l-0.012,0.005l0.054,0.142L2.12,18.693z M9.318,10.439c1.756-0.659,3.761,0.246,4.479,2.025
		c0.718,1.778-0.123,3.756-1.879,4.415c-1.757,0.661-3.761-0.245-4.479-2.024C6.72,13.078,7.562,11.101,9.318,10.439z"/>
</g>
</svg>
