<?xml version="1.0" encoding="iso-8859-1"?>
<!-- Generator: Adobe Illustrator 14.0.0, SVG Export Plug-In . SVG Version: 6.00 Build 43363)  -->
<!DOCTYPE svg PUBLIC "-//W3C//DTD SVG 1.1//EN" "http://www.w3.org/Graphics/SVG/1.1/DTD/svg11.dtd">
<svg version="1.1" id="icon-m-content-description-layer"
	 xmlns="http://www.w3.org/2000/svg" xmlns:xlink="http://www.w3.org/1999/xlink" x="0px" y="0px" width="48px" height="48px"
	 viewBox="0 0 48 48" style="enable-background:new 0 0 48 48;" xml:space="preserve">
<g id="icon-m-content-description">
	<rect style="fill:none;" width="48" height="48"/>
	<path style="fill:#333333;" d="M25.601,11.008c1.794,0,3.249,1.429,3.249,3.19c0,1.764-1.455,3.193-3.249,3.193
		c-1.795,0-3.25-1.43-3.25-3.193C22.351,12.437,23.805,11.008,25.601,11.008z M28.85,34.543c0,0-2.322,2.862-5.647,2.397
		c-1.429-0.134-2.614-0.694-3.178-1.477c-0.648-0.735-1.433-2.596,0.257-6.949c0,0,0.753-1.629,1.018-2.257
		c-0.002-0.003-0.004-0.003-0.007-0.003c0.133-0.311,0.205-0.65,0.205-1.009c0-1.43-1.162-2.589-2.594-2.589
		c-0.054,0-0.107,0-0.161,0.004c0.634-1.039,2.016-1.97,3.755-2.395c2.66-0.652,5.145,0.122,5.552,1.726
		c0.095,0.377,0.066,0.767-0.066,1.15c-0.355,1.347-1.643,4.99-1.643,4.99l-0.018,0.035c-0.264,0.724-1.466,4.134-1.187,5.323
		c0.009,0.07,0.035,0.139,0.073,0.204c0.02,0.037,0.045,0.07,0.07,0.099c0.318,0.376,1.106,0.642,2.029,0.642
		c0.839,0,1.566-0.222,1.93-0.544C29.299,33.996,29.238,34.189,28.85,34.543z"/>
	<path style="fill:#333333;" d="M24,0.75C11.18,0.75,0.75,11.18,0.75,24S11.18,47.25,24,47.25c12.82,0,23.25-10.43,23.25-23.25
		S36.82,0.75,24,0.75z M24,43.264C13.378,43.264,4.735,34.621,4.735,24C4.735,13.377,13.378,4.736,24,4.736S43.264,13.377,43.264,24
		C43.264,34.621,34.622,43.264,24,43.264z"/>
</g>
</svg>
