<?xml version="1.0" encoding="iso-8859-1"?>
<!-- Generator: Adobe Illustrator 14.0.0, SVG Export Plug-In . SVG Version: 6.00 Build 43363)  -->
<!DOCTYPE svg PUBLIC "-//W3C//DTD SVG 1.1//EN" "http://www.w3.org/Graphics/SVG/1.1/DTD/svg11.dtd">
<svg version="1.1" id="icon-m-transfer-switch-layer"
	 xmlns="http://www.w3.org/2000/svg" xmlns:xlink="http://www.w3.org/1999/xlink" x="0px" y="0px" width="48px" height="48px"
	 viewBox="0 0 48 48" style="enable-background:new 0 0 48 48;" xml:space="preserve">
<g id="icon-m-transfer-switch">
	<rect style="fill:none;" width="48" height="48"/>
	<path style="fill:#333333;" d="M40.498,23.523l-8.133-8.456c-0.477-0.426-1.086-0.004-1.086,0.487v5.042l-14.554,0.001
		l-0.003-5.018c0-0.44-0.522-0.994-1.086-0.484l-8.129,8.41c-0.292,0.258-0.289,0.713-0.003,0.972l8.133,8.456
		c0.477,0.427,1.086,0.003,1.086-0.488v-5.059l14.553-0.002l0.004,5.036c0,0.44,0.521,0.993,1.086,0.483l8.131-8.409
		C40.787,24.237,40.783,23.783,40.498,23.523z"/>
	<path style="fill:#333333;" d="M24.008,47.276c-12.819,0-23.25-10.431-23.25-23.25c0-12.82,10.431-23.25,23.25-23.25
		c12.82,0,23.25,10.43,23.25,23.25C47.258,36.846,36.828,47.276,24.008,47.276L24.008,47.276z M24.008,4.762
		c-10.622,0-19.264,8.643-19.264,19.265c0,10.621,8.642,19.264,19.264,19.264c10.623,0,19.265-8.643,19.265-19.264
		C43.272,13.404,34.631,4.762,24.008,4.762L24.008,4.762z"/>
</g>
</svg>
