<?xml version="1.0" encoding="iso-8859-1"?>
<!-- Generator: Adobe Illustrator 14.0.0, SVG Export Plug-In . SVG Version: 6.00 Build 43363)  -->
<!DOCTYPE svg PUBLIC "-//W3C//DTD SVG 1.1//EN" "http://www.w3.org/Graphics/SVG/1.1/DTD/svg11.dtd">
<svg version="1.1" id="icon-m-camera-iso-auto-layer"
	 xmlns="http://www.w3.org/2000/svg" xmlns:xlink="http://www.w3.org/1999/xlink" x="0px" y="0px" width="32px" height="32px"
	 viewBox="0 0 32 32" style="enable-background:new 0 0 32 32;" xml:space="preserve">
<g id="icon-m-camera-iso-auto">
	<rect style="fill:none;" width="32" height="32"/>
	<path style="fill:#FFFFFF;" d="M11.934,25.75H10.49l-0.297-1.246H8.56L8.254,25.75h-1.23l1.683-6.007h1.651L11.934,25.75z
		 M10.028,23.712L9.385,20.89l-0.66,2.822H10.028z"/>
	<path style="fill:#FFFFFF;" d="M15.49,25.04c-0.372,0.537-0.833,0.784-1.469,0.784c-1.023,0-1.534-0.577-1.534-1.56v-3.251h1.328
		v3.127c0,0.487,0.074,0.892,0.569,0.892c0.627,0,0.776-0.627,0.776-1.188v-2.83h1.329v4.736h-0.809L15.49,25.04z"/>
	<path style="fill:#FFFFFF;" d="M20.109,25.651c-0.379,0.099-0.825,0.165-1.213,0.165c-0.783,0-1.229-0.314-1.229-1.131V21.74H17.09
		v-0.446l1.354-1.361h0.553v1.081h1.039v0.727h-1.039v2.756c0,0.371,0.058,0.569,0.437,0.569c0.248,0,0.471-0.05,0.677-0.107V25.651
		z"/>
	<path style="fill:#FFFFFF;" d="M22.527,25.816c-1.608,0-2.162-1.106-2.162-2.509c0-1.386,0.752-2.359,2.179-2.359
		c1.477,0,2.153,0.981,2.153,2.393C24.697,24.817,24.013,25.816,22.527,25.816z M22.527,21.674c-0.734,0-0.792,0.908-0.792,1.609
		c0,0.709,0.033,1.807,0.792,1.807c0.76,0,0.801-0.974,0.801-1.807C23.328,22.631,23.229,21.674,22.527,21.674z"/>
	<path style="fill:#FFFFFF;" d="M7.956,4.944v12.549h16.089V4.944H7.956z M11.616,7.922h-0.695v6.207h0.695v1.112H8.314v-1.112H9.01
		V7.922H8.314V6.809h3.301V7.922z M13.863,15.334c-0.648,0-1.32-0.081-1.946-0.231v-1.147c0.591,0.15,1.193,0.267,1.818,0.267
		c0.915,0,1.355-0.429,1.355-1.112c0-0.717-0.417-0.984-1.529-1.609c-0.949-0.532-1.633-1.17-1.633-2.432
		c0-1.587,1.204-2.352,2.872-2.352c0.591,0,1.182,0.058,1.772,0.174v1.123c-0.533-0.115-0.95-0.186-1.517-0.186
		c-0.753,0-1.205,0.348-1.205,0.974c0,0.672,0.486,0.984,1.332,1.425c1.123,0.59,1.83,1.263,1.83,2.502
		C17.014,14.569,15.751,15.334,13.863,15.334z M20.582,15.334c-2.815,0-3.268-2.433-3.268-4.425c0-1.98,0.521-4.192,3.268-4.192
		c2.744,0,3.254,2.212,3.254,4.192C23.836,12.914,23.396,15.334,20.582,15.334z"/>
	<path style="fill:#FFFFFF;" d="M20.582,7.828c-1.193,0-1.286,1.506-1.286,3.081s0.139,3.313,1.286,3.313
		c1.192,0,1.273-1.714,1.273-3.313C21.855,9.334,21.74,7.828,20.582,7.828z"/>
</g>
</svg>
