<?xml version="1.0" encoding="iso-8859-1"?>
<!-- Generator: Adobe Illustrator 14.0.0, SVG Export Plug-In . SVG Version: 6.00 Build 43363)  -->
<!DOCTYPE svg PUBLIC "-//W3C//DTD SVG 1.1//EN" "http://www.w3.org/Graphics/SVG/1.1/DTD/svg11.dtd">
<svg version="1.1" id="icon-s-status-no-simcard-layer"
	 xmlns="http://www.w3.org/2000/svg" xmlns:xlink="http://www.w3.org/1999/xlink" x="0px" y="0px" width="18px" height="18px"
	 viewBox="0 0 18 18" style="enable-background:new 0 0 18 18;" xml:space="preserve">
<g id="icon-s-status-no-simcard">
	<rect style="fill:none;" width="18" height="18"/>
	<polygon style="fill:#FFFFFF;" points="8.685,4.075 16.715,4.075 16.715,13.925 16.086,13.925 17.051,15.21 18,15.21 18,2.79 
		7.72,2.79 	"/>
	<polygon style="fill:#FFFFFF;" points="3.283,5.351 1.285,7.789 1.285,13.927 10.283,13.927 11.283,15.211 0,15.211 0,7.252 
		2.283,4.351 	"/>
	<polygon style="fill:#FFFFFF;" points="14.459,11.759 14.551,11.759 14.551,6.241 14.551,6.241 14.551,6.241 10.363,6.241 
		10.363,6.308 	"/>
	
		<rect x="-1.703" y="8.263" transform="matrix(-0.6007 -0.7994 0.7994 -0.6007 7.2108 21.6022)" style="fill:#FFFFFF;" width="21.405" height="1.475"/>
</g>
</svg>
