<?xml version="1.0" encoding="iso-8859-1"?>
<!-- Generator: Adobe Illustrator 14.0.0, SVG Export Plug-In . SVG Version: 6.00 Build 43363)  -->
<!DOCTYPE svg PUBLIC "-//W3C//DTD SVG 1.1//EN" "http://www.w3.org/Graphics/SVG/1.1/DTD/svg11.dtd">
<svg version="1.1" id="icon-m-toolbar-share-layer" xmlns="http://www.w3.org/2000/svg" xmlns:xlink="http://www.w3.org/1999/xlink"
	 x="0px" y="0px" width="32px" height="32px" viewBox="0 0 32 32" style="enable-background:new 0 0 32 32;" xml:space="preserve">
<g id="icon-m-toolbar-share_1_">
	<rect style="fill:none;" width="32" height="32"/>
	<path id="Share_2_" style="fill:#FFFFFF;" d="M26.334,19.094c-1.861,0-3.508,0.877-4.539,2.229l-10.493-4.707
		c0.017-0.171,0.027-0.343,0.027-0.519c0-0.196-0.012-0.392-0.033-0.582l10.592-4.714c1.035,1.281,2.641,2.105,4.445,2.105
		c3.129,0,5.666-2.469,5.666-5.513s-2.537-5.511-5.666-5.511S20.67,4.35,20.67,7.394c0,0.346,0.037,0.684,0.1,1.011l-10.398,4.627
		c-1.017-1.475-2.744-2.445-4.708-2.445C2.535,10.586,0,13.053,0,16.097s2.535,5.512,5.663,5.512c1.984,0,3.729-0.993,4.739-2.496
		l10.344,4.636c-0.047,0.28-0.076,0.564-0.076,0.858c0,3.046,2.535,5.513,5.664,5.513S32,27.652,32,24.606
		S29.463,19.094,26.334,19.094z"/>
</g>
</svg>
