<?xml version="1.0" encoding="iso-8859-1"?>
<!-- Generator: Adobe Illustrator 14.0.0, SVG Export Plug-In . SVG Version: 6.00 Build 43363)  -->
<!DOCTYPE svg PUBLIC "-//W3C//DTD SVG 1.1//EN" "http://www.w3.org/Graphics/SVG/1.1/DTD/svg11.dtd">
<svg version="1.1" id="icon-l-browser-layer" xmlns="http://www.w3.org/2000/svg" xmlns:xlink="http://www.w3.org/1999/xlink"
	 x="0px" y="0px" width="80px" height="81px" viewBox="0 0 80 81" style="enable-background:new 0 0 80 81;" xml:space="preserve">
<g id="icon-l-browser_1_">
	<path style="fill:#E8D517;" d="M27.678,48.584c-1.172-1.451-2.942-2.826-2.434-5.01c0.115-0.504,0.536-0.848,0.733-1.309
		c0.723-1.705,1.217-2.568,3.462-2.051c1.315,0.303,1.254,0.604,2.306,1.227c1.228,0.723,1.338,0.889,2.222,1.818
		c0.575,0.605,1.813,0.955,2.416,1.688c0.733,0.891,0.391,1.787,0.15,2.756c-0.065,0.266-0.621,0.678-0.734,1.053
		c-0.166,0.553,0.214,1.311,0.019,1.85c-0.338,0.955-1.502,1.484-2.015,2.234c-1.186,1.736-2.74,3.395-2.965,5.57
		c-0.074,0.727,0.491,2.037-0.614,2.033c-0.624-0.002-1.182-1.131-1.413-1.58c-0.867-1.68-1.134-3.514-0.778-5.324
		C28.406,51.627,28.995,50.213,27.678,48.584z M70,40c0,16.568-13.432,30-30,30c-16.569,0-30-13.432-30-30s13.431-30,30-30
		C56.568,10,70,23.432,70,40z M15.629,39.924c0,0.027-0.004,0.051-0.004,0.076c0,13.439,10.934,24.373,24.375,24.373
		c13.44,0,24.375-10.934,24.375-24.373c0-1.691-0.175-3.342-0.504-4.937c-1.06-1.148-1.709-2.931-2.993-4.011
		c-1.206-1.01-3.447-0.998-5.341-1.662c-1.358-0.475-2.236-2.201-3.169,0.143c-0.375,0.938,0.7,2.362,1.269,3.025
		c1.246,1.461,2.965,1.711,3.807,3.71c0.583,1.384,0.223,2.091-0.341,3.366c-0.696,1.568-0.829,3.262-1.574,4.805
		c-0.784,1.627-1.954,3.033-3.032,4.465c-1.26,1.682-2.027,3.559-3.181,5.246c-0.898,1.316-2.505,2.186-3.111-0.107
		c-0.511-1.934-0.035-3.953-0.195-5.803c-0.069-0.783-0.577-1.363-0.56-2.25c0.012-0.605,0.234-1.035,0.299-1.482
		c0.257-1.732-0.131-2.906-2.178-2.6c-0.759,0.111-1.577,0.342-2.334,0.023c-0.612-0.26-1.213-0.812-1.636-1.349
		c-1.465-1.858-1.567-4.671-0.837-6.77c0.604-1.73,2.048-2.917,3.639-3.739c0.74-0.383,1.885-0.986,2.749-0.949
		c0.915,0.045,1.435,0.717,2.468,0.505c1.248-0.259,2.309-1.177,2.811-2.34c1.156-2.667-2.479-4.188-4.31-4.681
		c0.139-1.412,1.015-1.08,1.697-1.962c0.021-0.032,1.146-1.867,1.214-1.9c0.705-0.343,1.742-0.155,2.652-0.132
		c-3.472-1.903-7.453-2.99-11.684-2.99c-7.171,0-13.608,3.133-18.073,8.078c1.478-0.336,2.018,0.929,3.206,1.279
		c3.247,0.961,4.283-1.885,6.95-2.391c2.631-0.498,6.008,1.518,7.917,2.953c-2.434,1.861-5.635,0.508-8.24,1.67
		c-2.906,1.298-3.712,5.216-6.616,6.564c-1.328,0.617-3.655,0.354-4.178,1.812c-0.586,1.643,1.647,3.107,1.548,4.324
		C22.31,42.398,17.741,41.395,15.629,39.924z"/>
	<rect style="fill:none;" width="80" height="80.002"/>
</g>
</svg>
