<?xml version="1.0" encoding="iso-8859-1"?>
<!-- Generator: Adobe Illustrator 14.0.0, SVG Export Plug-In . SVG Version: 6.00 Build 43363)  -->
<!DOCTYPE svg PUBLIC "-//W3C//DTD SVG 1.1//EN" "http://www.w3.org/Graphics/SVG/1.1/DTD/svg11.dtd">
<svg version="1.1" id="icon-m-common-no-internet-connection-layer"
	 xmlns="http://www.w3.org/2000/svg" xmlns:xlink="http://www.w3.org/1999/xlink" x="0px" y="0px" width="32px" height="32px"
	 viewBox="0 0 32 32" style="enable-background:new 0 0 32 32;" xml:space="preserve">
<g id="icon-m-common-no-internet-connection">
	<rect style="fill:none;" width="32" height="32"/>
	<path style="fill:#FFFFFF;" d="M28.457,15.862c-3.403-3.401-8.92-3.401-12.323,0c-3.401,3.402-3.402,8.92,0,12.322
		c3.402,3.402,8.919,3.401,12.322,0C31.858,24.782,31.858,19.265,28.457,15.862z M25.885,28.226l-3.559-3.559l-3.6,3.6l-2.663-2.662
		l3.599-3.603l-3.577-3.577l2.643-2.645l3.579,3.581l3.559-3.561l2.664,2.663l-3.559,3.56l3.559,3.558L25.885,28.226z"/>
	<path style="fill:#FFFFFF;" d="M9.848,13.028c-0.358-0.378-0.403-0.445-0.901-0.737c-0.427-0.252-0.402-0.375-0.936-0.498
		c-0.911-0.21-1.111,0.141-1.404,0.832c-0.081,0.188-0.25,0.327-0.298,0.531c-0.206,0.886,0.512,1.444,0.988,2.032
		c0.534,0.66,0.295,1.234,0.144,2.01c-0.145,0.734-0.036,1.479,0.315,2.16C7.85,19.54,8.077,19.999,8.33,20
		c0.448,0.001,0.219-0.531,0.249-0.825c0.091-0.883,0.722-1.556,1.203-2.26c0.208-0.304,0.68-0.519,0.817-0.906
		c0.079-0.22-0.075-0.526-0.008-0.751c0.046-0.152,0.271-0.319,0.298-0.427c0.098-0.393,0.236-0.757-0.061-1.117
		C10.583,13.416,10.082,13.273,9.848,13.028z"/>
	<path style="fill:#FFFFFF;" d="M10.717,21.817c-4.947-0.725-8.762-4.984-8.762-10.128c0-0.039,0.005-0.075,0.005-0.113
		c0.815,0.653,2.886,1.156,2.975,0.077c0.042-0.506-0.887-1.113-0.643-1.797C4.509,9.252,5.476,9.36,6.028,9.103
		c1.208-0.56,1.542-2.189,2.75-2.728c1.083-0.481,2.413,0.08,3.425-0.693c-0.793-0.597-2.196-1.435-3.291-1.228
		c-1.108,0.21-1.539,1.392-2.889,0.993C5.509,5.295,5.292,4.725,4.618,4.929C4.558,4.947,4.5,4.981,4.441,5.015
		c1.881-2.183,4.66-3.574,7.762-3.574c1.848,0,3.579,0.499,5.079,1.358c-0.42,0.035-0.972-0.114-1.325,0.057
		c-0.028,0.015-0.496,0.778-0.504,0.79c-0.284,0.367-0.648,0.229-0.705,0.816c0.76,0.203,2.272,0.836,1.791,1.945
		c-0.496,1.144-1.88-0.047-2.77,0.357c-0.534,0.242-1.507,1.534-1.558,2.164c-0.108,1.314,1.088,1.243,1.926,1.92
		c0.637,0.516,0.859,1.455,1.452,1.728c1.235-0.881,2.619-1.503,4.09-1.841c-0.327-1.078-2.668-2.564-2.336-3.396
		c0.388-0.975,0.753-0.257,1.317-0.058c0.787,0.274,1.719,0.27,2.221,0.689c0.589,0.494,0.854,1.352,1.386,1.811
		c0.04,0.214,0.065,0.433,0.095,0.651c0.497,0.002,0.987,0.045,1.473,0.11C23.258,4.625,18.271,0,12.203,0
		C5.747,0,0.514,5.233,0.514,11.689c0,5.974,4.484,10.892,10.268,11.595C10.729,22.796,10.708,22.308,10.717,21.817z"/>
</g>
</svg>
