<?xml version="1.0" encoding="iso-8859-1"?>
<!-- Generator: Adobe Illustrator 14.0.0, SVG Export Plug-In . SVG Version: 6.00 Build 43363)  -->
<!DOCTYPE svg PUBLIC "-//W3C//DTD SVG 1.1//EN" "http://www.w3.org/Graphics/SVG/1.1/DTD/svg11.dtd">
<svg version="1.1" id="icon-l-me-layer" xmlns="http://www.w3.org/2000/svg" xmlns:xlink="http://www.w3.org/1999/xlink" x="0px"
	 y="0px" width="80px" height="81px" viewBox="0 0 80 81" style="enable-background:new 0 0 80 81;" xml:space="preserve">
<g id="icon-l-me">
	<path style="fill:#F68E20;" d="M66.422,22.6H50.955v-9.021c0-1.289-1.289-2.578-2.577-2.578h-34.8C12.289,11,11,12.289,11,13.578
		v25.777c0,1.288,1.289,2.578,2.578,2.578h10.311v14.178c0,1.288,1.29,2.577,2.578,2.577H45.8v9.022c0,0,0,1.289,1.281,1.289
		c1.297,0,7.741-10.312,7.741-10.312h11.6c1.289,0,2.578-1.289,2.578-2.577V25.178C69,23.889,67.711,22.6,66.422,22.6z
		 M38.654,18.734c3.945,0,7.155,3.124,7.155,6.963c0,3.829-3.21,6.943-7.155,6.943c-3.953,0-7.168-3.114-7.168-6.943
		C31.486,21.858,34.702,18.734,38.654,18.734z M48.378,52.244H28.74v-9.047c0-4.671,4.402-8.472,9.815-8.472
		c5.414,0,9.82,3.801,9.823,8.472V52.244z"/>
	<rect style="fill:none;" width="80" height="80"/>
</g>
</svg>
