<?xml version="1.0" encoding="iso-8859-1"?>
<!-- Generator: Adobe Illustrator 14.0.0, SVG Export Plug-In . SVG Version: 6.00 Build 43363)  -->
<!DOCTYPE svg PUBLIC "-//W3C//DTD SVG 1.1//EN" "http://www.w3.org/Graphics/SVG/1.1/DTD/svg11.dtd">
<svg version="1.1" id="icon-m-bluetooth-lan-layer" xmlns="http://www.w3.org/2000/svg" xmlns:xlink="http://www.w3.org/1999/xlink"
	 x="0px" y="0px" width="48px" height="48px" viewBox="0 0 48 48" style="enable-background:new 0 0 48 48;" xml:space="preserve">
<g id="icon-m-bluetooth-lan">
	<rect style="fill:none;" width="48" height="48"/>
	<path style="fill:#333333;" d="M46.5,43.5H27.75c-0.825,0-1.5-0.676-1.5-1.5v-5h9.449c1.291,0,2.339-1.038,2.339-2.313V2.312
		C38.038,1.036,36.99,0,35.699,0H12.303c-1.291,0-2.34,1.036-2.34,2.312v32.375c0,1.275,1.049,2.313,2.34,2.313h9.447v5
		c0,0.824-0.675,1.5-1.5,1.5H1.5C0.675,43.5,0,44.176,0,45v1.5C0,47.324,0.675,48,1.5,48h45c0.825,0,1.5-0.676,1.5-1.5V45
		C48,44.176,47.325,43.5,46.5,43.5z M32.228,21.805c0,0.329-0.271,0.598-0.599,0.598h-2.986c-0.33,0-0.597-0.269-0.597-0.598v-2.983
		c0-0.329,0.267-0.597,0.597-0.597h2.986c0.328,0,0.599,0.268,0.599,0.597V21.805z M15.637,5.602c0-0.327,0.27-0.597,0.598-0.597
		h15.531c0.33,0,0.598,0.27,0.598,0.597v2.388c0,0.329-0.268,0.597-0.598,0.597H16.235c-0.328,0-0.598-0.268-0.598-0.597V5.602z
		 M15.637,14.105v-2.388c0-0.325,0.27-0.597,0.598-0.597h15.531c0.33,0,0.598,0.271,0.598,0.597v2.388
		c0,0.329-0.268,0.597-0.598,0.597H16.235C15.907,14.702,15.637,14.435,15.637,14.105z"/>
</g>
</svg>
