<?xml version="1.0" encoding="iso-8859-1"?>
<!-- Generator: Adobe Illustrator 14.0.0, SVG Export Plug-In . SVG Version: 6.00 Build 43363)  -->
<!DOCTYPE svg PUBLIC "-//W3C//DTD SVG 1.1//EN" "http://www.w3.org/Graphics/SVG/1.1/DTD/svg11.dtd">
<svg version="1.1" id="icon-m-toolbar-send-invitation-layer"
	 xmlns="http://www.w3.org/2000/svg" xmlns:xlink="http://www.w3.org/1999/xlink" x="0px" y="0px" width="32px" height="32px"
	 viewBox="0 0 32 32" style="enable-background:new 0 0 32 32;" xml:space="preserve">
<g id="icon-m-toolbar-send-invitation">
	<rect style="fill:none;" width="32" height="32"/>
	<path style="fill:#FFFFFF;" d="M19.704,18.812l-0.524-0.222L10.4,11.208l0.001,12.339c0,0.599,0.49,1.088,1.088,1.088h16.422
		c0.599,0,1.088-0.489,1.088-1.088V11.208l-8.778,7.383L19.704,18.812z"/>
	<polygon style="fill:#FFFFFF;" points="29,10.69 29,7.627 19.698,0 10.4,7.627 10.4,10.69 	"/>
	<path style="fill:#FFFFFF;" d="M0,11.086c0,0.708,0.698,1.289,1.55,1.289h5.141V9.799H1.55C0.698,9.799,0,10.378,0,11.086z"/>
	<path style="fill:#FFFFFF;" d="M0,16.254c0,0.709,0.698,1.29,1.55,1.29h5.141v-2.577H1.55C0.698,14.967,0,15.547,0,16.254z"/>
	<path style="fill:#FFFFFF;" d="M0,21.423c0,0.708,0.698,1.288,1.55,1.288h5.141v-2.576H1.55C0.698,20.135,0,20.715,0,21.423z"/>
</g>
</svg>
