<?xml version="1.0" encoding="iso-8859-1"?>
<!-- Generator: Adobe Illustrator 14.0.0, SVG Export Plug-In . SVG Version: 6.00 Build 43363)  -->
<!DOCTYPE svg PUBLIC "-//W3C//DTD SVG 1.1//EN" "http://www.w3.org/Graphics/SVG/1.1/DTD/svg11.dtd">
<svg version="1.1" id="icon-m-common-passcode-layer"
	 xmlns="http://www.w3.org/2000/svg" xmlns:xlink="http://www.w3.org/1999/xlink" x="0px" y="0px" width="48px" height="48px"
	 viewBox="0 0 48 48" style="enable-background:new 0 0 48 48;" xml:space="preserve">
<g id="icon-m-common-passcode_1_">
	<rect style="fill:none;" width="48" height="48"/>
	<path style="fill:#333333;" d="M35.286,12.75c-3.829,0-8.407,4.52-8.407,4.52c-0.453,0.445-1.344,0.857-1.979,0.859L2.655,18.127
		c-0.635,0-1.158,0.521-1.16,1.159L1.47,25.467h1.197l3.54,3.457c0,0,1.986-2.736,2.842-3.422c1.079,0.872,3.823,4.231,3.823,4.231
		s2.688-2.911,3.771-3.617c0.869,0.8,2.974,3.906,2.974,3.906s3.202-3.243,3.735-3.595c0.347-0.013,2.691,3.324,2.801,3.443
		c0,0,4.848,5.379,9.134,5.379c6.203,0,11.244-5.044,11.244-11.254C46.53,17.796,41.489,12.75,35.286,12.75z M38.23,28.967
		c-2.873,0-5.203-2.325-5.203-5.199c0-2.873,2.33-5.205,5.203-5.205c2.872,0,5.197,2.332,5.197,5.205
		C43.428,26.642,41.103,28.967,38.23,28.967z"/>
</g>
</svg>
