<?xml version="1.0" encoding="iso-8859-1"?>
<!-- Generator: Adobe Illustrator 14.0.0, SVG Export Plug-In . SVG Version: 6.00 Build 43363)  -->
<!DOCTYPE svg PUBLIC "-//W3C//DTD SVG 1.1//EN" "http://www.w3.org/Graphics/SVG/1.1/DTD/svg11.dtd">
<svg version="1.1" id="icon-m-energy-management-battery-verylow-layer"
	 xmlns="http://www.w3.org/2000/svg" xmlns:xlink="http://www.w3.org/1999/xlink" x="0px" y="0px" width="48px" height="48px"
	 viewBox="0 0 48 48" style="enable-background:new 0 0 48 48;" xml:space="preserve">
<g id="icon-m-energy-management-battery-verylow">
	<rect style="fill:none;" width="48" height="48"/>
	<path style="fill:#333333;" d="M19.091,2.533v2.113h-7.556c-0.775,0-1.41,0.634-1.41,1.409v39.41c0,0.774,0.635,1.409,1.41,1.409
		h24.932c0.775,0,1.408-0.635,1.408-1.409V6.056c0-0.775-0.633-1.409-1.408-1.409H28.91V2.533c0-0.775-0.634-1.41-1.408-1.41H20.5
		C19.725,1.123,19.091,1.758,19.091,2.533z M33.164,8.918c0.775,0,1.41,0.635,1.41,1.409v32.376c0,0.775-0.635,1.409-1.41,1.409
		H14.842c-0.776,0-1.411-0.634-1.411-1.409V10.327c0-0.774,0.635-1.409,1.411-1.409H33.164z"/>
</g>
</svg>
