<?xml version="1.0" encoding="iso-8859-1"?>
<!-- Generator: Adobe Illustrator 14.0.0, SVG Export Plug-In . SVG Version: 6.00 Build 43363)  -->
<!DOCTYPE svg PUBLIC "-//W3C//DTD SVG 1.1//EN" "http://www.w3.org/Graphics/SVG/1.1/DTD/svg11.dtd">
<svg version="1.1" id="icon-m-camera-exposure-plus2-layer"
	 xmlns="http://www.w3.org/2000/svg" xmlns:xlink="http://www.w3.org/1999/xlink" x="0px" y="0px" width="32px" height="32px"
	 viewBox="0 0 32 32" style="enable-background:new 0 0 32 32;" xml:space="preserve">
<g id="icon-m-camera-exposure-plus2">
	<rect style="fill:none;" width="32" height="32"/>
	<g>
		<rect style="fill:none;" width="32" height="32"/>
	</g>
	<g>
		<path style="fill:#FFFFFF;" d="M15.546,17.215h-2.77v2.803h-2.073v-2.803H7.917v-2.057h2.786v-2.771h2.073v2.771h2.77V17.215z"/>
		<path style="fill:#FFFFFF;" d="M24.084,21.961H16.6v-1.037c0-2.479,1.507-3.903,3.014-5.167c1.02-0.858,1.7-1.474,1.7-2.478
			c0-1.086-0.534-1.686-1.815-1.686c-0.906,0-1.716,0.26-2.493,0.535v-1.604c1.036-0.309,2.09-0.486,3.159-0.486
			c2.364,0,3.838,0.955,3.838,3.143c0,1.749-0.955,2.688-2.332,3.855c-1.458,1.23-2.414,2.09-2.527,3.369h4.941V21.961z"/>
	</g>
</g>
</svg>
