<?xml version="1.0" encoding="iso-8859-1"?>
<!-- Generator: Adobe Illustrator 14.0.0, SVG Export Plug-In . SVG Version: 6.00 Build 43363)  -->
<!DOCTYPE svg PUBLIC "-//W3C//DTD SVG 1.1//EN" "http://www.w3.org/Graphics/SVG/1.1/DTD/svg11.dtd">
<svg version="1.1" id="icon-s-messaging-smiley-tongue-layer"
	 xmlns="http://www.w3.org/2000/svg" xmlns:xlink="http://www.w3.org/1999/xlink" x="0px" y="0px" width="18px" height="18px"
	 viewBox="0 0 18 18" style="enable-background:new 0 0 18 18;" xml:space="preserve">
<g id="icon-s-messaging-smiley-tongue">
	<rect style="fill:none;" width="18" height="18"/>
	<path style="fill:#333333;" d="M10.447,11.598h-0.1c0.16,0.285,0.462,0.941,0.497,1.889C10.845,13.486,11.25,12.35,10.447,11.598z"
		/>
	<path style="fill:#333333;" d="M14.906,9.482l-0.21,0.301C14.648,9.887,12.732,11.598,9,11.598S3.352,9.887,3.304,9.783
		l-0.21-0.301c0.052,0.113,1.174,2.489,4.494,3.036c0.327,1.671,1.727,2.859,3.257,2.7c1.633-0.17,2.805-1.81,2.612-3.655
		c-0.011-0.106-0.027-0.21-0.047-0.313C14.458,10.437,14.875,9.551,14.906,9.482z M10.738,14.188
		c-0.904,0.095-1.741-0.575-2.055-1.563C8.788,12.629,8.893,12.633,9,12.633c1.45,0,2.576-0.326,3.439-0.768
		C12.48,13.062,11.748,14.084,10.738,14.188z"/>
	<circle style="fill:#333333;" cx="6.104" cy="5.766" r="1.266"/>
	<circle style="fill:#333333;" cx="11.896" cy="5.766" r="1.266"/>
	<path style="fill:#333333;" d="M9,1.125c4.342,0,7.875,3.533,7.875,7.875c0,4.343-3.533,7.875-7.875,7.875
		c-4.342,0-7.875-3.532-7.875-7.875C1.125,4.658,4.658,1.125,9,1.125 M9,0C4.029,0,0,4.029,0,9s4.029,9,9,9s9-4.029,9-9
		S13.971,0,9,0L9,0z"/>
</g>
</svg>
