<?xml version="1.0" encoding="iso-8859-1"?>
<!-- Generator: Adobe Illustrator 14.0.0, SVG Export Plug-In . SVG Version: 6.00 Build 43363)  -->
<!DOCTYPE svg PUBLIC "-//W3C//DTD SVG 1.1//EN" "http://www.w3.org/Graphics/SVG/1.1/DTD/svg11.dtd">
<svg version="1.1" id="icon-m-input-clear-layer" xmlns="http://www.w3.org/2000/svg" xmlns:xlink="http://www.w3.org/1999/xlink"
	 x="0px" y="0px" width="48px" height="48px" viewBox="0 0 48 48" style="enable-background:new 0 0 48 48;" xml:space="preserve">
<g id="icon-m-input-clear">
	<rect style="fill:none;" width="48" height="48"/>
	<g>
		<g>
			<path style="fill:#333333;" d="M24,9C15.716,9,9,15.716,9,24s6.716,15,15,15c8.285,0,15-6.716,15-15S32.285,9,24,9z
				 M31.349,28.707c0.754,0.754,0.774,1.965,0.05,2.691c-0.727,0.727-1.938,0.703-2.691-0.049L24,26.642l-4.708,4.708
				c-0.753,0.752-1.964,0.775-2.69,0.049s-0.705-1.938,0.049-2.691L21.358,24l-4.707-4.707c-0.754-0.754-0.776-1.965-0.049-2.691
				s1.938-0.703,2.69,0.05L24,21.358l4.707-4.707c0.754-0.753,1.965-0.776,2.691-0.05c0.725,0.727,0.704,1.938-0.05,2.691L26.642,24
				L31.349,28.707z"/>
		</g>
	</g>
</g>
</svg>
