<?xml version="1.0" encoding="iso-8859-1"?>
<!-- Generator: Adobe Illustrator 14.0.0, SVG Export Plug-In . SVG Version: 6.00 Build 43363)  -->
<!DOCTYPE svg PUBLIC "-//W3C//DTD SVG 1.1//EN" "http://www.w3.org/Graphics/SVG/1.1/DTD/svg11.dtd">
<svg version="1.1" id="icon-m-camera-whitebalance-cloudy-selected-layer"
	 xmlns="http://www.w3.org/2000/svg" xmlns:xlink="http://www.w3.org/1999/xlink" x="0px" y="0px" width="48px" height="48px"
	 viewBox="0 0 48 48" style="enable-background:new 0 0 48 48;" xml:space="preserve">
<g id="icon-m-camera-whitebalance-cloudy-selected">
	<rect style="fill:none;" width="48" height="48"/>
	<path style="fill:#63AF45;" d="M15.01,25.561c0.452-0.979,0.931-1.856,1.43-2.64c-1.638-0.806-2.77-2.487-2.77-4.434
		c0-2.728,2.218-4.944,4.944-4.944c2.247,0,4.145,1.506,4.744,3.562c1.064-0.363,2.067-0.53,2.946-0.583
		c-0.877-3.436-3.982-5.979-7.69-5.979c-4.388,0-7.944,3.557-7.944,7.944C10.67,21.575,12.436,24.246,15.01,25.561z"/>
	<path style="fill:#63AF45;" d="M20.438,6.88V2.659c0-0.758-0.663-1.421-1.42-1.42l-0.534-0.001
		c-0.783,0.001-1.422,0.639-1.421,1.42l-0.001,4.223c0,0.379,0.148,0.734,0.418,1.004c0.268,0.269,0.625,0.417,1.003,0.416h0.533
		c0.379,0,0.737-0.148,1.005-0.416C20.29,7.615,20.438,7.258,20.438,6.88z"/>
	<path style="fill:#63AF45;" d="M6.941,17.062h-4.22c-0.758,0-1.421,0.664-1.42,1.42L1.3,19.017
		c0.001,0.784,0.639,1.421,1.421,1.421h4.222c0.379,0,0.735-0.148,1.005-0.418c0.268-0.268,0.417-0.623,0.416-1.003v-0.533
		c0-0.378-0.149-0.735-0.417-1.005C7.677,17.211,7.32,17.062,6.941,17.062z"/>
	<path style="fill:#63AF45;" d="M11.589,9.139L8.604,6.155c-0.536-0.536-1.475-0.536-2.009,0L6.218,6.532
		c-0.554,0.555-0.554,1.456,0,2.009l2.984,2.986c0.268,0.268,0.625,0.415,1.005,0.415c0.38,0,0.737-0.147,1.004-0.415l0.377-0.378
		c0.268-0.267,0.416-0.625,0.416-1.005C12.004,9.764,11.857,9.407,11.589,9.139z"/>
	<path style="fill:#63AF45;" d="M31.252,6.532l-0.379-0.377c-0.535-0.536-1.473-0.536-2.008,0L25.88,9.139
		c-0.554,0.555-0.554,1.456,0,2.011l0.378,0.378c0.267,0.268,0.624,0.414,1.005,0.414c0.38,0,0.737-0.146,1.005-0.414l2.984-2.986
		C31.805,7.988,31.805,7.087,31.252,6.532z"/>
	<path style="fill:#63AF45;" d="M27.75,47.25c-2.577,0-5.465-0.711-7.403-2.827c-1.339,0.792-3.053,1.327-4.597,1.327
		c-4.824,0-8.25-4.156-8.25-9s3.624-8.681,8.447-8.681c0.496,0,1.577,0.347,2.053,0.431c1.695-5.089,4.598-8.25,9-8.25
		c4.4,0,8.053,3.161,9.75,8.25c0.475-0.084,1.5-0.431,1.996-0.431c4.822,0,8.504,3.837,8.504,8.681s-3.428,9-8.25,9
		c-1.541,0-3.309-0.535-4.642-1.326C32.401,46.564,30.361,47.25,27.75,47.25L27.75,47.25z M20.929,39.838l1.03,1.467
		c1.454,2.064,3.367,3.203,5.389,3.203c2.014,0,3.934-1.14,5.405-3.211l1.035-1.456l1.34,1.183c1.024,0.903,2.31,1.401,3.618,1.401
		c3.047,0,5.528-2.497,5.528-5.567c0-3.072-2.481-5.571-5.528-5.571c-0.686,0-1.34,0.13-1.945,0.384l-1.768,0.744l-0.425-1.869
		c-1.007-4.438-3.993-7.295-7.261-7.295c-3.27,0-6.254,2.857-7.258,7.295l-0.423,1.869l-1.769-0.744
		c-0.606-0.254-1.262-0.384-1.951-0.384c-3.051,0-5.532,2.499-5.532,5.571c0,3.07,2.481,5.567,5.532,5.567
		c1.313,0,2.604-0.499,3.635-1.405L20.929,39.838L20.929,39.838z"/>
</g>
</svg>
