<?xml version="1.0" encoding="iso-8859-1"?>
<!-- Generator: Adobe Illustrator 14.0.0, SVG Export Plug-In . SVG Version: 6.00 Build 43363)  -->
<!DOCTYPE svg PUBLIC "-//W3C//DTD SVG 1.1//EN" "http://www.w3.org/Graphics/SVG/1.1/DTD/svg11.dtd">
<svg version="1.1" id="icon-m-common-location-picker-layer"
	 xmlns="http://www.w3.org/2000/svg" xmlns:xlink="http://www.w3.org/1999/xlink" x="0px" y="0px" width="48px" height="48px"
	 viewBox="0 0 48 48" style="enable-background:new 0 0 48 48;" xml:space="preserve">
<g id="icon-m-common-location-picker">
	<rect x="0.005" style="fill:none;" width="47.99" height="48"/>
	<path style="fill:#333333;" d="M47.988,42.008V21.188H37.496c-0.97,2.226-1.665,4.597-2.226,6.974l11.218-5.361v7.023l-7.246,3.624
		l-4.233-4.144c-0.077,0.35-0.156,0.7-0.229,1.049l-0.145,0.686l7.047,6.896l-11.888,6.52l-9.437-9.165l5.932-2.835l-0.442-2.103
		c-0.242-1.147-0.503-2.307-0.8-3.461l-8.938,4.271l-8.724-8.474h16.352c-0.188-0.507-0.392-1.007-0.607-1.5H0v26.183h47.988v-5.34
		L48,42.02L47.988,42.008z M1.5,23.414l10.165,9.873L1.5,38.146V23.414z M1.5,45.871v-1.758l0.073,0.154l14.34-6.854l8.707,8.457
		H1.5z M46.488,45.871H31.842l11.503-6.309l3.144,3.076V45.871z M46.488,40.54l-5.545-5.427l5.545-2.771V40.54z"/>
	<path style="fill:#333333;" d="M30.314,0.629c-4.732,0.055-8.548,3.496-8.548,7.744c0,1.357,0.39,2.631,1.073,3.74h0.001
		c0.227,0.369,1.517,2.21,1.805,2.54c2.974,4.246,4.439,9.235,5.604,14.772h0.127c1.166-5.537,2.631-10.526,5.604-14.772
		c0.288-0.33,1.577-2.171,1.806-2.538v-0.002c0.683-1.109,1.074-2.383,1.074-3.74C38.861,4.125,35.044,0.684,30.314,0.629z
		 M30.475,11.574c-1.834,0-3.318-1.479-3.318-3.311c0-1.828,1.484-3.309,3.318-3.309c1.83,0,3.316,1.48,3.316,3.309
		C33.791,10.095,32.305,11.574,30.475,11.574z"/>
</g>
</svg>
