<?xml version="1.0" encoding="iso-8859-1"?>
<!-- Generator: Adobe Illustrator 14.0.0, SVG Export Plug-In . SVG Version: 6.00 Build 43363)  -->
<!DOCTYPE svg PUBLIC "-//W3C//DTD SVG 1.1//EN" "http://www.w3.org/Graphics/SVG/1.1/DTD/svg11.dtd">
<svg version="1.1" id="icon-l-camera-layer" xmlns="http://www.w3.org/2000/svg" xmlns:xlink="http://www.w3.org/1999/xlink"
	 x="0px" y="0px" width="80px" height="81px" viewBox="0 0 80 81" style="enable-background:new 0 0 80 81;" xml:space="preserve">
<g id="icon-l-camera_1_">
	<path style="fill:#EC297B;" d="M68.122,18.969H11.877c-1.033,0-1.877,0.844-1.877,1.877v38.31c0,1.031,0.844,1.878,1.877,1.878
		h56.245c1.032,0,1.878-0.847,1.878-1.878v-38.31C70,19.812,69.154,18.969,68.122,18.969z M39.997,54.064
		c-7.452,0-13.5-6.061-13.5-13.524c0-7.466,6.048-13.519,13.5-13.519c7.46,0,13.501,6.053,13.501,13.519
		C53.498,48.004,47.457,54.064,39.997,54.064z M66.161,28.654H54.548v-5.812h11.613V28.654z"/>
	<rect style="fill:none;" width="80" height="80.001"/>
</g>
</svg>
