<?xml version="1.0" encoding="iso-8859-1"?>
<!-- Generator: Adobe Illustrator 14.0.0, SVG Export Plug-In . SVG Version: 6.00 Build 43363)  -->
<!DOCTYPE svg PUBLIC "-//W3C//DTD SVG 1.1//EN" "http://www.w3.org/Graphics/SVG/1.1/DTD/svg11.dtd">
<svg version="1.1" id="icon-m-status-menu-wlan-layer"
	 xmlns="http://www.w3.org/2000/svg" xmlns:xlink="http://www.w3.org/1999/xlink" x="0px" y="0px" width="48px" height="48px"
	 viewBox="0 0 48 48" style="enable-background:new 0 0 48 48;" xml:space="preserve">
<g id="icon-m-status-menu-wlan_1_">
	<rect style="fill:none;" width="48" height="48"/>
	<circle style="fill:#010101;" cx="24" cy="24" r="23.5"/>
	<g>
		<g id="_x34_8_local_1_">
			<circle id="local_1_" style="fill:#FFFFFF;" cx="24.094" cy="33.117" r="3.096"/>
		</g>
		<g>
			<path style="fill:#FFFFFF;" d="M31.031,26.93c-1.76-1.888-4.258-3.075-7.034-3.075c-2.729,0-5.192,1.147-6.947,2.979
				c0,0-0.215,0.227-0.215,0.579c0,0.481,0.392,0.87,0.873,0.87c0.277,0,0.513-0.137,0.673-0.337
				c1.436-1.454,3.417-2.367,5.614-2.371h0.003c2.275,0.004,4.322,0.983,5.768,2.529c0.158,0.228,0.407,0.386,0.704,0.386
				c0.482,0,0.873-0.392,0.873-0.873C31.344,27.344,31.031,26.93,31.031,26.93z"/>
			<path style="fill:#FFFFFF;" d="M35.182,22.336c-2.867-2.875-6.812-4.673-11.183-4.675c-4.437,0.002-8.447,1.844-11.325,4.796
				c0,0-0.301,0.245-0.301,0.66c0,0.481,0.391,0.873,0.872,0.873c0.265,0,0.493-0.123,0.653-0.311v0.002
				c2.566-2.642,6.144-4.292,10.099-4.3h0.001c4.002,0.008,7.615,1.702,10.186,4.394c0,0,0.228,0.215,0.622,0.215
				c0.482,0,0.873-0.392,0.873-0.873C35.68,22.771,35.465,22.557,35.182,22.336z"/>
			<path style="fill:#FFFFFF;" d="M39.793,18.169v-0.002c-0.002-0.002-0.002-0.002-0.004-0.004
				c-0.036-0.042-0.074-0.079-0.117-0.112c-3.998-4.059-9.546-6.584-15.675-6.586c-6.141,0.002-11.7,2.535-15.698,6.603
				C8.119,18.229,8,18.454,8,18.715c0,0.481,0.391,0.873,0.873,0.873c0.43,0,0.65-0.281,0.65-0.281
				c3.688-3.761,8.812-6.108,14.472-6.119h0.003c5.708,0.011,10.868,2.4,14.561,6.215c0,0,0.271,0.186,0.568,0.186
				c0.482,0,0.873-0.392,0.873-0.873C40,18.505,39.916,18.319,39.793,18.169z"/>
		</g>
	</g>
</g>
</svg>
