<?xml version="1.0" encoding="iso-8859-1"?>
<!-- Generator: Adobe Illustrator 14.0.0, SVG Export Plug-In . SVG Version: 6.00 Build 43363)  -->
<!DOCTYPE svg PUBLIC "-//W3C//DTD SVG 1.1//EN" "http://www.w3.org/Graphics/SVG/1.1/DTD/svg11.dtd">
<svg version="1.1" id="icon-m-messaging-smiley-kiss-layer"
	 xmlns="http://www.w3.org/2000/svg" xmlns:xlink="http://www.w3.org/1999/xlink" x="0px" y="0px" width="48px" height="48px"
	 viewBox="0 0 48 48" style="enable-background:new 0 0 48 48;" xml:space="preserve">
<g id="icon-m-messaging-smiley-kiss">
	<rect style="fill:none;" width="48" height="48"/>
	<circle style="fill:#FFCD0A;" cx="24" cy="24" r="23.5"/>
	<g>
		<path style="fill:#C51E14;" d="M24.054,26.363L14.5,24.762c0,0,3.023,4.451,3.806,6.58c0,0,1.757,4.328,5.748,4.328
			c3.991,0,5.749-4.328,5.749-4.328c0.782-2.129,3.697-6.58,3.697-6.58L24.054,26.363z"/>
		<ellipse style="fill:#FFCD0A;" cx="24" cy="28" rx="2.334" ry="1"/>
		<path style="fill:#C51E14;" d="M29.059,22.811c0,0-2.559-3.811-5.004,0.189c-2.555-4-5.005-0.189-5.005-0.189
			c-2.424,2.424-4.549,1.904-4.549,1.904c0.402,0.663,1.982,1.225,2.542,1.754c0.591,0.559,1.164,1.088,1.939,1.383
			c0.632,0.241,1.381,0.393,2.058,0.332c0.354-0.031,0.676-0.127,0.998-0.264c0.21-0.09,0.421-0.186,0.624-0.291
			c0.331-0.172,0.678-0.234,1.047-0.25c0.125-0.006,0.246-0.001,0.346-0.027c0.1,0.026,0.221,0.021,0.346,0.027
			c0.369,0.016,0.716,0.078,1.047,0.25c0.203,0.105,0.414,0.201,0.625,0.291c0.321,0.137,0.643,0.232,0.998,0.264
			c0.676,0.061,1.425-0.091,2.057-0.332c0.776-0.295,1.35-0.824,1.939-1.383c0.561-0.529,2.031-1.091,2.434-1.754
			C33.5,24.715,31.482,25.234,29.059,22.811z"/>
	</g>
	<path style="fill:#040505;" d="M17.827,13.255c1.079,0,2.079,0.261,2.944,0.696c-0.709-1.562-2.456-2.677-4.537-2.677
		c-2.707,0-4.899,1.863-4.899,4.164c0,0.922,0.175,1.816,0.646,2.535C12.143,15.345,14.694,13.255,17.827,13.255z"/>
	<path style="fill:#040505;" d="M30.174,13.255c-1.079,0-2.079,0.261-2.943,0.696c0.708-1.562,2.455-2.677,4.536-2.677
		c2.707,0,4.899,1.863,4.899,4.164c0,0.922-0.174,1.816-0.646,2.535C35.857,15.345,33.307,13.255,30.174,13.255z"/>
</g>
</svg>
