<?xml version="1.0" encoding="iso-8859-1"?>
<!-- Generator: Adobe Illustrator 14.0.0, SVG Export Plug-In . SVG Version: 6.00 Build 43363)  -->
<!DOCTYPE svg PUBLIC "-//W3C//DTD SVG 1.1//EN" "http://www.w3.org/Graphics/SVG/1.1/DTD/svg11.dtd">
<svg version="1.1" id="icon-m-common-4G-layer" xmlns="http://www.w3.org/2000/svg" xmlns:xlink="http://www.w3.org/1999/xlink"
	 x="0px" y="0px" width="48px" height="48px" viewBox="0 0 48 48" style="enable-background:new 0 0 48 48;" xml:space="preserve">
<g id="icon-m-common-4G">
	<rect style="fill:none;" width="48" height="48"/>
	<path style="fill:#333333;" d="M20.422,32.031h-2.869v5.891h-6.158v-5.891H0.496v-3.518l11.206-18.55h5.852v18.397h2.869V32.031z
		 M11.396,28.361V17.115L4.779,28.361H11.396z"/>
	<path style="fill:#333333;" d="M43.525,35.475c-1.07,1.645-3.213,2.754-5.584,2.754c-8.338,0-9.6-7.382-9.6-14.535
		c0-7.419,2.83-13.922,12.238-13.922c2.027,0,4.055,0.23,5.928,0.727v3.635c-1.797-0.498-3.441-0.688-5.354-0.688
		c-5.087,0-6.272,5.163-6.272,10.173c0,5.623,0.229,10.938,4.093,10.938c1.949,0,2.868-1.605,2.868-3.825v-4.244H38.63v-3.672H48
		v15.107h-3.71L43.525,35.475z"/>
</g>
</svg>
