<?xml version="1.0" encoding="iso-8859-1"?>
<!-- Generator: Adobe Illustrator 14.0.0, SVG Export Plug-In . SVG Version: 6.00 Build 43363)  -->
<!DOCTYPE svg PUBLIC "-//W3C//DTD SVG 1.1//EN" "http://www.w3.org/Graphics/SVG/1.1/DTD/svg11.dtd">
<svg version="1.1" id="icon-m-content-poi-layer" xmlns="http://www.w3.org/2000/svg" xmlns:xlink="http://www.w3.org/1999/xlink"
	 x="0px" y="0px" width="48px" height="48px" viewBox="0 0 48 48" style="enable-background:new 0 0 48 48;" xml:space="preserve">
<g id="icon-m-content-poi_1_">
	<rect style="fill:none;" width="48" height="48"/>
	<path style="fill:#333333;" d="M36.727,23.12c-3.746-3.748-9.845-3.748-13.592,0c-3.747,3.747-3.748,9.845,0,13.592
		c3.439,3.441,8.859,3.722,12.623,0.845l2.02,2.02l0.414,2.319c0.043,0.235,0.215,0.564,0.383,0.733l5.104,5.102
		c0.337,0.337,0.89,0.337,1.228,0l2.836-2.837c0.338-0.338,0.338-0.89,0-1.228l-5.099-5.105c-0.169-0.17-0.499-0.342-0.733-0.384
		l-2.322-0.414l-2.017-2.018C40.447,31.98,40.166,26.561,36.727,23.12z M34.615,34.602c-2.583,2.581-6.785,2.581-9.368,0
		c-2.583-2.584-2.583-6.785-0.001-9.369c2.584-2.582,6.786-2.582,9.369,0C37.197,27.816,37.197,32.019,34.615,34.602z"/>
	<path style="fill:#333333;" d="M16.829,24.699H1.5v-1.758l0.073,0.154l14.34-6.853l3.934,3.819c0.039-0.04,0.073-0.084,0.112-0.124
		c1.09-1.091,2.334-1.969,3.675-2.64l-3.276-3.182l12.512-5.979l8.812,8.626l-3.346,1.835c0.55,0.409,1.082,0.847,1.574,1.34
		c0.072,0.072,0.137,0.149,0.207,0.223l3.229-1.771l3.143,3.076v3.232h-3.455c0.194,0.491,0.354,0.993,0.492,1.5h4.463v-5.338
		L48,20.85l-0.012-0.013V0.018H0v26.182h16.336C16.475,25.689,16.636,25.188,16.829,24.699z M46.488,19.369l-5.545-5.427
		l5.545-2.773V19.369z M46.488,1.631v7.021l-7.246,3.625l-4.932-4.828L46.488,1.631z M33.84,1.518l-17.73,8.474L7.386,1.518H33.84z
		 M1.5,2.243l10.165,9.873L1.5,16.975V2.243z"/>
</g>
</svg>
