<?xml version="1.0" encoding="iso-8859-1"?>
<!-- Generator: Adobe Illustrator 14.0.0, SVG Export Plug-In . SVG Version: 6.00 Build 43363)  -->
<!DOCTYPE svg PUBLIC "-//W3C//DTD SVG 1.1//EN" "http://www.w3.org/Graphics/SVG/1.1/DTD/svg11.dtd">
<svg version="1.1" id="icon-m-music-video-fm-radio-scan-layer"
	 xmlns="http://www.w3.org/2000/svg" xmlns:xlink="http://www.w3.org/1999/xlink" x="0px" y="0px" width="48px" height="48px"
	 viewBox="0 0 48 48" style="enable-background:new 0 0 48 48;" xml:space="preserve">
<g id="icon-m-music-video-fm-radio-scan_2_">
	<rect style="fill:none;" width="48" height="48"/>
	<path style="fill:#333333;" d="M23.741,24.129c-0.718-0.718-0.601-2.011,0.261-2.871l8.149-8.147
		c-2.288-1.729-5.125-2.767-8.208-2.767c-7.531,0-13.659,6.125-13.659,13.656c0,7.532,6.127,13.658,13.659,13.658
		c7.331,0,13.315-5.811,13.629-13.066L25.082,24.59C24.576,24.625,24.09,24.479,23.741,24.129z"/>
	<path style="fill:#333333;" d="M47.625,24c0-7.193-3.236-13.643-8.325-17.979l0.006-0.006c-4.126-3.514-9.468-5.641-15.298-5.641
		C10.976,0.375,0.375,10.975,0.375,24c0,13.027,10.601,23.625,23.633,23.625c12.827,0,23.293-10.286,23.618-23.032h-0.016
		C47.615,24.395,47.625,24.199,47.625,24z M46.133,24.593l-6.29-0.001C39.527,33.069,32.552,39.873,24,39.873
		c-8.752,0-15.873-7.12-15.873-15.873c0-8.752,7.121-15.873,15.873-15.873c3.694,0,7.088,1.278,9.789,3.404l4.466-4.465
		c4.822,4.066,7.895,10.147,7.895,16.934C46.148,24.199,46.139,24.395,46.133,24.593z"/>
	<path style="fill:#333333;" d="M33.468,11.794l-1.054,1.054c3.368,2.563,5.557,6.602,5.557,11.152c0,0.201-0.021,0.395-0.03,0.592
		h1.476c0.008-0.197,0.03-0.391,0.03-0.592C39.446,19.044,37.1,14.635,33.468,11.794z"/>
</g>
</svg>
