<?xml version="1.0" encoding="iso-8859-1"?>
<!-- Generator: Adobe Illustrator 14.0.0, SVG Export Plug-In . SVG Version: 6.00 Build 43363)  -->
<!DOCTYPE svg PUBLIC "-//W3C//DTD SVG 1.1//EN" "http://www.w3.org/Graphics/SVG/1.1/DTD/svg11.dtd">
<svg version="1.1" id="icon-s-status-35g-layer" xmlns="http://www.w3.org/2000/svg" xmlns:xlink="http://www.w3.org/1999/xlink"
	 x="0px" y="0px" width="31px" height="18px" viewBox="0 0 31 18" style="enable-background:new 0 0 31 18;" xml:space="preserve">
<g id="icon-s-status-35g">
	<rect style="fill:none;" width="31" height="18"/>
	<path style="fill:#FFFFFF;" d="M4.902,2.322c-1.113,0-2.274,0.291-3.435,0.605V0.582C2.725,0.266,4.201,0,5.701,0
		c3.314,0,5.71,1.113,5.71,4.379c0,2.057-1.138,3.46-3.194,4.09c2.274,0.41,3.508,1.959,3.508,4.113C11.725,16.451,9.281,18,5,18
		c-1.428,0-2.686-0.193-4.065-0.557v-2.346c1.452,0.338,2.589,0.58,3.677,0.58c2.226,0,3.097-1.064,3.097-3.023
		c0-2.59-1.5-3.049-5.226-3.049V7.379c3.581,0,5.008-0.387,5.008-2.734C7.491,3.072,6.62,2.322,4.902,2.322z"/>
	<path style="fill:#FFFFFF;" d="M15.622,18c-1.186,0-2.129-0.943-2.129-2.129s0.944-2.153,2.129-2.153
		c1.185,0,2.153,0.968,2.153,2.153S16.807,18,15.622,18z"/>
	<path style="fill:#FFFFFF;" d="M23.509,6.508C23.823,6.46,24.21,6.46,24.573,6.46c3.41,0,5.492,1.862,5.492,5.563
		c0,4.018-2.057,5.977-6.557,5.977c-1.428,0-2.855-0.217-4.137-0.531v-2.371c1.209,0.313,2.297,0.58,3.435,0.58
		c2.323,0,3.242-1.162,3.242-3.533c0-2.057-1.064-3.289-3.556-3.289c-0.775,0-1.815,0.023-2.565,0.121V0.193h9.46v2.322h-5.879
		V6.508z"/>
</g>
</svg>
