<?xml version="1.0" encoding="iso-8859-1"?>
<!-- Generator: Adobe Illustrator 14.0.0, SVG Export Plug-In . SVG Version: 6.00 Build 43363)  -->
<!DOCTYPE svg PUBLIC "-//W3C//DTD SVG 1.1//EN" "http://www.w3.org/Graphics/SVG/1.1/DTD/svg11.dtd">
<svg version="1.1" id="icon-m-common-search-layer" xmlns="http://www.w3.org/2000/svg" xmlns:xlink="http://www.w3.org/1999/xlink"
	 x="0px" y="0px" width="48px" height="48px" viewBox="0 0 48 48" style="enable-background:new 0 0 48 48;" xml:space="preserve">
<g id="icon-m-common-search_1_">
	<rect style="fill:none;" width="48" height="48"/>
	<path style="fill:#333333;" d="M26.969,11.25c-4.333-4.333-11.384-4.333-15.717,0c-4.334,4.332-4.334,11.385,0,15.717
		c3.977,3.979,10.244,4.302,14.598,0.977l2.334,2.335l0.479,2.681c0.049,0.272,0.248,0.655,0.443,0.851l5.902,5.898
		c0.388,0.39,1.027,0.39,1.418,0l3.28-3.281c0.391-0.39,0.391-1.028,0-1.418l-5.896-5.905c-0.195-0.195-0.576-0.395-0.849-0.443
		l-2.685-0.479l-2.332-2.333C31.271,21.494,30.947,15.229,26.969,11.25z M24.527,24.526c-2.986,2.985-7.846,2.985-10.833,0
		c-2.988-2.987-2.988-7.847-0.001-10.834c2.987-2.985,7.847-2.985,10.833,0C27.514,16.68,27.514,21.539,24.527,24.526z"/>
</g>
</svg>
