<?xml version="1.0" encoding="iso-8859-1"?>
<!-- Generator: Adobe Illustrator 14.0.0, SVG Export Plug-In . SVG Version: 6.00 Build 43363)  -->
<!DOCTYPE svg PUBLIC "-//W3C//DTD SVG 1.1//EN" "http://www.w3.org/Graphics/SVG/1.1/DTD/svg11.dtd">
<svg version="1.1" id="icon-m-toolbar-select-text-layer"
	 xmlns="http://www.w3.org/2000/svg" xmlns:xlink="http://www.w3.org/1999/xlink" x="0px" y="0px" width="32px" height="32px"
	 viewBox="0 0 32 32" style="enable-background:new 0 0 32 32;" xml:space="preserve">
<g id="icon-m-toolbar-select-text">
	<rect style="fill:none;" width="32" height="32"/>
	<path style="fill:#FFFFFF;" d="M7.304,11c-1.601,0-3.355,0.28-4.983,0.686v2.441c1.244-0.381,2.619-0.686,3.84-0.686
		c1.754,0,2.746,0.585,2.746,2.389v1.119C4.509,17.026,1,17.533,1,21.703C1,24.5,2.728,26,5.524,26c1.958,0,3.279-0.66,4.449-2.264
		l0.561,2.087H13v-9.94C13,12.246,10.507,11,7.304,11z M8.908,20.966c0,1.628-0.663,2.721-2.187,2.721
		c-1.196,0-1.679-0.84-1.679-2.06c0-1.907,1.219-2.643,2.924-2.643h0.941V20.966z"/>
	<path style="fill:#FFFFFF;" d="M15.475,0v32h15V0H15.475z M22.352,26.25c-1.994,0-3.092-0.058-4.693-0.246l-0.221-0.026V6.75h3.04
		v5.955c0.896-0.797,1.858-1.145,3.12-1.145c3.261,0,4.914,2.394,4.914,7.113C28.512,23.418,26.209,26.25,22.352,26.25z"/>
	<path style="fill:#FFFFFF;" d="M23.012,13.795c-2.344,0-2.534,2.309-2.534,5.099v5.029c0.509,0.056,1.185,0.093,1.728,0.093
		c2.251,0,3.169-1.568,3.169-5.416C25.374,15.412,24.579,13.795,23.012,13.795z"/>
</g>
</svg>
