<?xml version="1.0" encoding="iso-8859-1"?>
<!-- Generator: Adobe Illustrator 14.0.0, SVG Export Plug-In . SVG Version: 6.00 Build 43363)  -->
<!DOCTYPE svg PUBLIC "-//W3C//DTD SVG 1.1//EN" "http://www.w3.org/Graphics/SVG/1.1/DTD/svg11.dtd">
<svg version="1.1" id="icon-m-toolbar-settings-layer"
	 xmlns="http://www.w3.org/2000/svg" xmlns:xlink="http://www.w3.org/1999/xlink" x="0px" y="0px" width="32px" height="32px"
	 viewBox="0 0 32 32" style="enable-background:new 0 0 32 32;" xml:space="preserve">
<g id="icon-m-toolbar-settings">
	<rect style="fill:none;" width="32" height="32"/>
	<path style="fill:#FFFFFF;" d="M31.511,25.865L18.289,12.631c0.65-0.879,3.825-6.637-3.78-11.039
		c-3.427-1.984-8.632-2.051-7.102-0.518l6.091,6.096c-0.96,2.93-3.035,5.458-6.366,6.36L1.016,7.402
		c-0.825-0.83-0.993,0.318-0.993,2.57c0,2.729,4.51,12.769,12.585,8.3l13.243,13.257c0.626,0.623,1.637,0.623,2.263,0l3.396-3.398
		C32.133,27.502,32.133,26.49,31.511,25.865z"/>
</g>
</svg>
