<?xml version="1.0" encoding="iso-8859-1"?>
<!-- Generator: Adobe Illustrator 14.0.0, SVG Export Plug-In . SVG Version: 6.00 Build 43363)  -->
<!DOCTYPE svg PUBLIC "-//W3C//DTD SVG 1.1//EN" "http://www.w3.org/Graphics/SVG/1.1/DTD/svg11.dtd">
<svg version="1.1" id="icon-m-content-bluetooth-layer"
	 xmlns="http://www.w3.org/2000/svg" xmlns:xlink="http://www.w3.org/1999/xlink" x="0px" y="0px" width="48px" height="48px"
	 viewBox="0 0 48 48" style="enable-background:new 0 0 48 48;" xml:space="preserve">
<g id="icon-m-content-bluetooth">
	<rect id="_x34_8_64_" style="fill:none;" width="48" height="48"/>
	<rect id="_x33_2_64_" x="8" y="8" style="fill:none;" width="32" height="32"/>
	<path style="fill:#333333;" d="M28.827,24l8.042-6.818c0.501-0.426,0.801-1.041,0.828-1.698c0.029-0.654-0.222-1.295-0.686-1.758
		L25.473,2.19c-0.674-0.674-1.684-0.876-2.561-0.51c-0.879,0.363-1.452,1.22-1.452,2.17v9.701v4.199l-7.286-6.179
		c-0.992-0.84-2.476-0.718-3.315,0.275c-0.839,0.99-0.718,2.47,0.272,3.311l10.329,8.76v0.167l-10.329,8.759
		c-0.99,0.84-1.112,2.321-0.272,3.312c0.464,0.549,1.128,0.83,1.794,0.83c0.536,0,1.078-0.181,1.521-0.557l7.286-6.179v4.204v9.695
		c0,0.952,0.573,1.81,1.452,2.172c0.29,0.124,0.596,0.179,0.899,0.179c0.609,0,1.213-0.237,1.662-0.685l11.539-11.539
		c0.464-0.464,0.715-1.104,0.686-1.759c-0.027-0.658-0.327-1.271-0.828-1.698L28.827,24z M26.161,9.525l5.722,5.718l-5.722,4.854
		v-6.545V9.525z M26.161,38.477v-4.022v-6.553l5.722,4.854L26.161,38.477z"/>
</g>
</svg>
