<?xml version="1.0" encoding="iso-8859-1"?>
<!-- Generator: Adobe Illustrator 14.0.0, SVG Export Plug-In . SVG Version: 6.00 Build 43363)  -->
<!DOCTYPE svg PUBLIC "-//W3C//DTD SVG 1.1//EN" "http://www.w3.org/Graphics/SVG/1.1/DTD/svg11.dtd">
<svg version="1.1" id="icon-m-common-checkbox-checked-layer"
	 xmlns="http://www.w3.org/2000/svg" xmlns:xlink="http://www.w3.org/1999/xlink" x="0px" y="0px" width="48px" height="48px"
	 viewBox="0 0 48 48" style="enable-background:new 0 0 48 48;" xml:space="preserve">
<g id="icon-m-common-checkbox-checked">
	<rect style="fill:none;" width="48" height="48"/>
	<path style="fill:#333333;" d="M47.963,11.074c-0.075-0.225-0.295-0.375-0.541-0.37c-14.031,0.271-24.401,13.96-26.515,16.929
		l-6.901-6.922c-0.209-0.211-0.562-0.223-0.785-0.018l-4.169,3.751c-0.108,0.102-0.17,0.237-0.175,0.383
		c-0.003,0.149,0.054,0.284,0.16,0.39l12.5,12.252c0.104,0.105,0.251,0.161,0.399,0.161c0.015,0,0.032-0.001,0.047-0.003
		c0.165-0.012,0.317-0.098,0.41-0.227c6.047-8.356,12.396-14.791,17.226-19.134c4.834-4.343,8.129-6.576,8.134-6.585
		C47.954,11.547,48.038,11.299,47.963,11.074z"/>
	<path style="fill:#333333;" d="M36.867,26.13v13.952c0,0.822-0.677,1.496-1.504,1.496H6.028c-0.829,0-1.507-0.674-1.507-1.496
		V7.916c0-0.822,0.679-1.494,1.507-1.494h29.335c0.827,0,1.504,0.672,1.504,1.494V8.18c1.432-0.732,2.938-1.361,4.512-1.85v-2.9
		c0-0.821-0.677-1.494-1.504-1.494H1.513c-0.828,0-1.504,0.673-1.504,1.494v41.139c0,0.822,0.677,1.496,1.504,1.496h38.362
		c0.827,0,1.504-0.505,1.504-1.121V21.988c-0.445,0.391-0.904,0.793-1.383,1.223C39.012,24.098,37.961,25.074,36.867,26.13z"/>
</g>
</svg>
