<?xml version="1.0" encoding="iso-8859-1"?>
<!-- Generator: Adobe Illustrator 14.0.0, SVG Export Plug-In . SVG Version: 6.00 Build 43363)  -->
<!DOCTYPE svg PUBLIC "-//W3C//DTD SVG 1.1//EN" "http://www.w3.org/Graphics/SVG/1.1/DTD/svg11.dtd">
<svg version="1.1" id="icon-m-content-ringtone-layer"
	 xmlns="http://www.w3.org/2000/svg" xmlns:xlink="http://www.w3.org/1999/xlink" x="0px" y="0px" width="48px" height="48px"
	 viewBox="0 0 48 48" style="enable-background:new 0 0 48 48;" xml:space="preserve">
<g id="icon-m-content-ringtone_2_">
	<rect style="fill:none;" width="48" height="48"/>
	<path style="fill:#333333;" d="M35.766,13.925c-7.445-5.091-9.316-11.731-9.35-11.851c-0.004-0.037-0.031-0.103-0.031-0.103
		c-0.206-0.584-0.758-1.008-1.41-1.008h-1.232c-0.825,0-1.433,0.675-1.433,1.5l-0.002,29.64c-2.337-0.839-5.346-0.563-8.111,0.98
		c-4.499,2.486-6.488,7.178-4.554,10.681c1.943,3.51,6.991,4.315,11.481,1.829c2.971-1.647,4.935-4.266,5.289-6.867
		c0.021-0.285,0.051-0.435,0.051-0.646l0.012-23.395c16.563,0.239,8.541,16.208,8.541,16.208
		C43.734,19.925,35.766,13.925,35.766,13.925z"/>
</g>
</svg>
