<?xml version="1.0" encoding="iso-8859-1"?>
<!-- Generator: Adobe Illustrator 14.0.0, SVG Export Plug-In . SVG Version: 6.00 Build 43363)  -->
<!DOCTYPE svg PUBLIC "-//W3C//DTD SVG 1.1//EN" "http://www.w3.org/Graphics/SVG/1.1/DTD/svg11.dtd">
<svg version="1.1" id="icon-m-calendar-todo-layer" xmlns="http://www.w3.org/2000/svg" xmlns:xlink="http://www.w3.org/1999/xlink"
	 x="0px" y="0px" width="48px" height="48px" viewBox="0 0 48 48" style="enable-background:new 0 0 48 48;" xml:space="preserve">
<g id="icon-m-calendar-todo">
	<rect style="fill:none;" width="48" height="48"/>
	<path style="fill:#333333;" d="M47.87,23.767c-0.107-0.325-0.413-0.542-0.774-0.542c-7.475,0.148-13.107,6.741-15.094,9.434
		l-3.514-3.557c-0.289-0.299-0.82-0.305-1.117-0.029l-2.374,2.154c-0.154,0.146-0.243,0.346-0.247,0.563
		c-0.002,0.212,0.079,0.41,0.232,0.569l7.084,7.002c0.146,0.153,0.357,0.241,0.576,0.241l0.064-0.001
		c0.232-0.021,0.445-0.135,0.59-0.331c2.777-3.876,6.135-7.634,9.703-10.875c2.367-2.143,4.08-3.386,4.549-3.717l0.099-0.075
		C47.877,24.395,47.97,24.066,47.87,23.767z"/>
	<path style="fill:#333333;" d="M35.85,43.015v-0.14h-30V9.125h3.053v4.673h23.79V9.125h3.157v13.498
		c1.725-1.203,3.683-2.262,5.848-2.972V6.102c0-0.852-0.695-1.547-1.545-1.547h-7.389V4.139h-0.01C32.66,1.838,30.755,0,28.409,0
		H13.265c-2.347,0-4.253,1.838-4.347,4.139H8.91v0.416H1.544C0.694,4.555,0,5.25,0,6.102v40.351C0,47.303,0.694,48,1.544,48h38.608
		c0.85,0,1.545-0.697,1.545-1.548V36.057c-1.708,1.873-3.311,3.838-4.744,5.835C36.637,42.326,36.262,42.7,35.85,43.015z"/>
	<rect x="8.92" y="17.494" style="fill:#333333;" width="19.5" height="4.5"/>
	<rect x="8.92" y="25.744" style="fill:#333333;" width="11.625" height="4.5"/>
</g>
</svg>
