<?xml version="1.0" encoding="iso-8859-1"?>
<!-- Generator: Adobe Illustrator 14.0.0, SVG Export Plug-In . SVG Version: 6.00 Build 43363)  -->
<!DOCTYPE svg PUBLIC "-//W3C//DTD SVG 1.1//EN" "http://www.w3.org/Graphics/SVG/1.1/DTD/svg11.dtd">
<svg version="1.1" id="icon-s-status-wlan1-layer" xmlns="http://www.w3.org/2000/svg" xmlns:xlink="http://www.w3.org/1999/xlink"
	 x="0px" y="0px" width="21px" height="16px" viewBox="0 0 21 16" style="enable-background:new 0 0 21 16;" xml:space="preserve">
<g id="icon-s-status-wlan1">
	<g>
		<g id="_x34_8_local_16_">
			<circle id="local_17_" style="fill:#FFFFFF;" cx="10.405" cy="14.002" r="1.75"/>
		</g>
		<g>
			<path style="fill:none;" d="M14.891,10.24c-1.138-1.221-2.753-1.988-4.548-1.988c-1.764,0-3.356,0.742-4.491,1.925
				c0,0-0.139,0.147-0.139,0.376c0,0.312,0.253,0.563,0.564,0.563c0.179,0,0.332-0.09,0.435-0.221
				c0.928-0.938,2.21-1.528,3.63-1.531h0.001c1.471,0.003,2.795,0.634,3.73,1.634c0.102,0.148,0.263,0.25,0.455,0.25
				c0.312,0,0.563-0.252,0.563-0.562C15.092,10.508,14.891,10.24,14.891,10.24z"/>
			<path style="fill:none;" d="M17.574,7.184c-1.854-1.859-4.404-3.022-7.231-3.024C7.476,4.161,4.882,5.352,3.021,7.26
				c0,0-0.195,0.16-0.195,0.427c0,0.312,0.253,0.565,0.564,0.565c0.17,0,0.319-0.079,0.422-0.199h0
				c1.659-1.706,3.972-2.775,6.529-2.781h0.002c2.587,0.006,4.922,1.102,6.584,2.844c0,0,0.147,0.137,0.403,0.137
				c0.312,0,0.564-0.254,0.564-0.565C17.896,7.465,17.757,7.326,17.574,7.184z"/>
			<path style="fill:none;" d="M20.555,4.334L20.555,4.334c0-0.001-0.001-0.001-0.002-0.002c-0.022-0.027-0.048-0.052-0.075-0.074
				C17.893,1.634,14.306,0.002,10.342,0C6.373,0.002,2.778,1.641,0.193,4.27C0.077,4.373,0,4.52,0,4.687
				C0,5,0.252,5.252,0.564,5.252c0.277,0,0.421-0.182,0.421-0.182c2.384-2.432,5.696-3.949,9.355-3.955h0.001
				c3.691,0.006,7.027,1.55,9.416,4.018c0,0,0.176,0.119,0.367,0.119c0.312,0,0.564-0.252,0.564-0.565
				C20.689,4.553,20.635,4.432,20.555,4.334z"/>
		</g>
	</g>
</g>
</svg>
