<?xml version="1.0" encoding="iso-8859-1"?>
<!-- Generator: Adobe Illustrator 14.0.0, SVG Export Plug-In . SVG Version: 6.00 Build 43363)  -->
<!DOCTYPE svg PUBLIC "-//W3C//DTD SVG 1.1//EN" "http://www.w3.org/Graphics/SVG/1.1/DTD/svg11.dtd">
<svg version="1.1" id="icon-m-telephony-jabber-layer"
	 xmlns="http://www.w3.org/2000/svg" xmlns:xlink="http://www.w3.org/1999/xlink" x="0px" y="0px" width="48px" height="48px"
	 viewBox="0 0 48 48" style="enable-background:new 0 0 48 48;" xml:space="preserve">
<g id="icon-m-telephony-jabber">
	<rect style="fill:none;" width="48" height="48"/>
	<path style="fill:#333333;" d="M40.129,18.561C38.342,10.87,34.369,0.579,20.549,0h-2.771c-2.203,0.094-4.961,0.75-7.375,1.76
		l-0.283,0.117c-1.162,0.477-2.48,1.016-2.225,3.061v2.914l0.008,0.08c0.084,0.394,0.348,1.596,1.26,1.596
		c0.812,0,1.605-1.021,2.377-2.004c0.314-0.401,0.609-0.778,0.828-0.974c1.418-1.254,4.314-1.973,7.947-1.973
		c1.59,0,3.215,0.143,4.576,0.405c3.551,0.687,6.627,2.474,8.438,4.899c1.871,2.505,3.549,6.854,3.08,10.925
		c-0.441,3.832-3.598,6.685-6.629,8.961c-3.004,2.26-5.91,4.963-5.582,10.871l0.008,0.161c0.061,1.206,0.201,4.039,1.732,4.038
		c0.221,0,0.453-0.064,0.693-0.191c0.846-0.453,0.625-1.775,0.391-3.174c-0.1-0.611-0.203-1.242-0.195-1.716
		c0.066-3.931,2.68-5.671,5.447-7.512c1.166-0.775,2.373-1.579,3.346-2.552c2.43-2.432,3.779-4.959,4.512-8.457l0.008-2.596
		L40.129,18.561z"/>
	<path style="fill:#333333;" d="M19.826,28.873c-0.281,0.561-0.494,1.347-0.24,1.896c0.125,0.271,0.348,0.447,0.643,0.521
		c0.084,0.02,0.17,0.029,0.256,0.029c0.818,0,1.344-0.893,1.764-1.609c0.119-0.202,0.229-0.391,0.33-0.529
		c0.229-0.303,0.439-0.563,0.633-0.803c0.41-0.504,0.766-0.939,1.059-1.539c0.822-1.673,1.162-4.799-0.18-5.885
		c-0.373-0.3-0.791-0.458-1.238-0.458c-1.312,0-2.502,1.293-3.215,2.065l-0.08,0.086c-0.004-0.047-0.008-0.094-0.012-0.131
		c-0.02-0.312-0.043-0.638-0.156-0.882c-0.525-1.12-1.818-1.812-3.201-1.708c-1.328,0.11-2.918,0.92-2.938,4.146
		c0,0.035,0.027,3.478,1.092,4.55c0.402,0.406,0.941,0.442,1.455,0.09c0.666-0.456,0.541-1.688,0.383-3.249
		c-0.133-1.281-0.295-2.876,0.199-3.426c0.162-0.18,0.398-0.234,0.738-0.196c0.459,0.062,0.539,1.023,0.611,1.867
		c0.086,1.024,0.168,1.996,0.938,2.147l0.094,0.007c0.316,0,0.697-0.31,1.434-0.968c0.172-0.157,0.322-0.293,0.422-0.369
		l0.088-0.064c0.438-0.331,1.168-0.886,1.58-0.886c0.07,0,0.201,0,0.266,0.399c0.145,0.905-0.852,2.238-1.65,3.312
		C20.465,27.864,20.062,28.407,19.826,28.873z"/>
	<path style="fill:#333333;" d="M10.637,31.12c-0.828,0.153-1.146,0.628-1.264,0.999c-0.373,1.156,0.666,2.748,1.062,3.162
		c1.855,1.938,5.381,3.344,8.381,3.344c0.369,0,3.633-0.034,4.564-1.264c0.242-0.32,0.312-0.698,0.203-1.096
		c-0.072-0.259-0.332-0.691-1.252-0.691c-0.283,0-0.602,0.04-0.924,0.117c-2.701,0.656-5.102,0.181-6.752-1.332
		c-0.258-0.23-0.539-0.629-0.842-1.047C13.035,32.229,12.037,30.855,10.637,31.12z"/>
	<path style="fill:#333333;" d="M8.363,37.088c-0.191,0.559,0.232,1.159,0.719,1.727c2.199,2.549,6.451,4.479,10.342,4.694
		c0.24,0.013,0.516,0.021,0.807,0.021c1.832,0,2.943-0.274,3.305-0.815c0.336-0.503,0.273-1.188,0.104-1.656
		c-0.184-0.498-0.494-0.842-0.857-0.949c-0.32-0.092-0.854,0.015-1.312,0.115c-0.211,0.049-0.408,0.096-0.551,0.104
		c-3.158,0.226-5.328-0.634-6.818-1.379c-0.428-0.214-0.902-0.603-1.404-1.017c-1.055-0.86-2.172-1.763-3.322-1.537
		C8.824,36.502,8.486,36.736,8.363,37.088z"/>
	<path style="fill:#333333;" d="M23.756,44.66c-0.574,0-1.498,0.259-2.389,0.508c-0.627,0.177-1.275,0.359-1.559,0.359
		c-2.076,0-5.939-1.271-7.125-2.344c-0.096-0.088-0.252-0.336-0.404-0.57c-0.475-0.746-1.125-1.764-2.178-1.812
		c-0.918,0-1.639,0.858-1.734,1.664c-0.178,1.48,1.062,2.803,3.688,3.93c1.715,0.734,3.703,1.305,5.658,1.604h2.646l0.045-0.013
		c0.17-0.041,0.342-0.079,0.52-0.115c0.529-0.11,1.127-0.238,1.756-0.539c0.691-0.332,2.256-1.221,1.838-2.281
		C24.412,44.791,24.158,44.66,23.756,44.66z"/>
</g>
</svg>
