<?xml version="1.0" encoding="iso-8859-1"?>
<!-- Generator: Adobe Illustrator 14.0.0, SVG Export Plug-In . SVG Version: 6.00 Build 43363)  -->
<!DOCTYPE svg PUBLIC "-//W3C//DTD SVG 1.1//EN" "http://www.w3.org/Graphics/SVG/1.1/DTD/svg11.dtd">
<svg version="1.1" id="icon-m-content-audio-layer" xmlns="http://www.w3.org/2000/svg" xmlns:xlink="http://www.w3.org/1999/xlink"
	 x="0px" y="0px" width="48px" height="48px" viewBox="0 0 48 48" style="enable-background:new 0 0 48 48;" xml:space="preserve">
<g id="icon-m-content-audio_2_">
	<rect style="fill:none;" width="48" height="48"/>
	<path style="fill:#333333;" d="M37.373,26.748c-1.928-0.71-4.416-0.482-6.715,0.797c-3.727,2.078-5.385,5.963-3.771,8.872
		c1.606,2.902,5.797,3.568,9.514,1.503c2.464-1.359,4.043-3.535,4.348-5.694c0.026-0.257,0.041-0.359,0.041-0.534v-4.343V1.25
		c0-0.438-0.314-0.628-0.697-0.408L19.007,12.491c-0.379,0.208-0.686,0.738-0.686,1.187v21.193
		c-1.938-0.695-4.433-0.468-6.724,0.812c-3.73,2.062-5.379,5.951-3.776,8.854c1.611,2.909,5.795,3.578,9.518,1.517
		c2.463-1.366,4.091-3.537,4.385-5.693c0.019-0.236,0.042-0.36,0.042-0.536V23.047c0-0.338,0.315-0.966,0.694-1.18l14.182-7.836
		c0.379-0.209,0.693-0.023,0.693,0.411v13.565"/>
</g>
</svg>
