<?xml version="1.0" encoding="iso-8859-1"?>
<!-- Generator: Adobe Illustrator 14.0.0, SVG Export Plug-In . SVG Version: 6.00 Build 43363)  -->
<!DOCTYPE svg PUBLIC "-//W3C//DTD SVG 1.1//EN" "http://www.w3.org/Graphics/SVG/1.1/DTD/svg11.dtd">
<svg version="1.1" id="icon-m-toolbar-undo-layer" xmlns="http://www.w3.org/2000/svg" xmlns:xlink="http://www.w3.org/1999/xlink"
	 x="0px" y="0px" width="32px" height="32px" viewBox="0 0 32 32" style="enable-background:new 0 0 32 32;" xml:space="preserve">
<g id="icon-m-toolbar-undo">
	<rect style="fill:none;" width="32" height="32"/>
	<path style="fill:#FFFFFF;" d="M26.965,4.514H11.59L11.588,4.52C10.322,4.47,9.037,4.89,8.026,5.8L5.262,8.287L2.485,5.254
		C2.341,5.096,2.189,5.14,2.143,5.346L0.008,15.402c-0.043,0.211,0.092,0.359,0.304,0.335l10.206-1.243
		c0.21-0.027,0.268-0.175,0.122-0.333l-2.829-3.09l1.715-1.542h0.003c0.882-0.766,2.025-1.238,3.28-1.238l14.156-0.002
		c0.682,0,1.258,0.578,1.258,1.26v12.904c0,0.68-0.576,1.258-1.258,1.258H9.498v3.775h17.467c2.77,0,5.035-2.266,5.035-5.033V9.549
		C32,6.779,29.734,4.514,26.965,4.514z"/>
</g>
</svg>
