<?xml version="1.0" encoding="iso-8859-1"?>
<!-- Generator: Adobe Illustrator 14.0.0, SVG Export Plug-In . SVG Version: 6.00 Build 43363)  -->
<!DOCTYPE svg PUBLIC "-//W3C//DTD SVG 1.1//EN" "http://www.w3.org/Graphics/SVG/1.1/DTD/svg11.dtd">
<svg version="1.1" id="icon-m-telephony-call-combine-layer"
	 xmlns="http://www.w3.org/2000/svg" xmlns:xlink="http://www.w3.org/1999/xlink" x="0px" y="0px" width="48px" height="48px"
	 viewBox="0 0 48 48" style="enable-background:new 0 0 48 48;" xml:space="preserve">
<g id="icon-m-telephony-call-combine_1_">
	<rect style="fill:none;" width="48" height="48"/>
	<path style="fill:#333333;" d="M8.09,14.399c2.552,0,4.62,2.091,4.62,4.669c0,2.575-2.07,4.667-4.62,4.667
		c-2.555,0-4.624-2.092-4.624-4.667C3.466,16.488,5.534,14.399,8.09,14.399"/>
	<path style="fill:#333333;" d="M16.17,38.338c-0.922,3.189-15.321,2.963-16.165,0v-4.664c0-9.141,15.965-9.396,16.165,0V38.338z"/>
	<path style="fill:#333333;" d="M39.91,14.399c2.553,0,4.623,2.091,4.623,4.669c0,2.575-2.073,4.667-4.623,4.667
		c-2.554,0-4.622-2.092-4.622-4.667C35.288,16.488,37.356,14.399,39.91,14.399"/>
	<path style="fill:#333333;" d="M47.994,38.338c-0.891,3.229-15.635,2.893-16.163,0v-4.664c0.479-9.701,16.163-8.922,16.163,0
		V38.338z"/>
	<path style="fill:#333333;" d="M24.001,7.355c2.556,0,4.627,2.087,4.627,4.668c0,2.574-2.071,4.669-4.627,4.669
		c-2.555,0-4.627-2.095-4.627-4.669C19.375,9.442,21.447,7.355,24.001,7.355z"/>
	<path style="fill:#333333;" d="M16.586,23.752c2.966,1.945,4.592,4.241,4.22,9.622c2.326,0.419,5.098,0.193,6.385,0.015
		c-0.408-5.541,1.762-8.08,4.221-9.637C28.338,18.184,19.608,18.422,16.586,23.752z"/>
</g>
</svg>
