<?xml version="1.0" encoding="iso-8859-1"?>
<!-- Generator: Adobe Illustrator 14.0.0, SVG Export Plug-In . SVG Version: 6.00 Build 43363)  -->
<!DOCTYPE svg PUBLIC "-//W3C//DTD SVG 1.1//EN" "http://www.w3.org/Graphics/SVG/1.1/DTD/svg11.dtd">
<svg version="1.1" id="icon-m-toolbar-image-edit-layer"
	 xmlns="http://www.w3.org/2000/svg" xmlns:xlink="http://www.w3.org/1999/xlink" x="0px" y="0px" width="32px" height="32px"
	 viewBox="0 0 32 32" style="enable-background:new 0 0 32 32;" xml:space="preserve">
<g id="icon-m-toolbar-image-edit_1_">
	<rect style="fill:none;" width="32" height="32"/>
	<path style="fill:#FFFFFF;" d="M22.822,18.239v10.829H2.207V12.573h10.807l0.756-2.249H0v20.994h25.03V16.15l-1.604,1.593
		C23.254,17.916,23.044,18.082,22.822,18.239z"/>
	<path style="fill:#FFFFFF;" d="M31.848,4.499l-3.655-3.666c-0.204-0.202-0.534-0.202-0.737,0L16.948,11.24
		c-0.201,0.202-0.44,0.59-0.533,0.861l-1.876,5.631c-0.089,0.271,0.059,0.418,0.331,0.328l5.623-1.875
		c0.27-0.091,0.657-0.331,0.859-0.533L31.848,5.234C32.051,5.033,32.051,4.701,31.848,4.499z M20.305,14.918l-2.244,0.75
		l-1.128-1.131l0.749-2.247l0.995-0.996l2.603,2.651L20.305,14.918z"/>
	<path style="fill:#FFFFFF;" d="M14.555,24c-2.003-4.119-6.301-10.515-10.054,2h16.19C20.691,26,17.893,17.432,14.555,24z"/>
</g>
</svg>
