<?xml version="1.0" encoding="iso-8859-1"?>
<!-- Generator: Adobe Illustrator 14.0.0, SVG Export Plug-In . SVG Version: 6.00 Build 43363)  -->
<!DOCTYPE svg PUBLIC "-//W3C//DTD SVG 1.1//EN" "http://www.w3.org/Graphics/SVG/1.1/DTD/svg11.dtd">
<svg version="1.1" id="icon-l-activities-layer" xmlns="http://www.w3.org/2000/svg" xmlns:xlink="http://www.w3.org/1999/xlink"
	 x="0px" y="0px" width="80px" height="81px" viewBox="0 0 80 81" style="enable-background:new 0 0 80 81;" xml:space="preserve">
<g id="icon-l-activities_4_">
	<path id="icon-l-activities_2_" style="fill:#F88E1C;" d="M66.422,22.602H50.956v-9.022c0-1.29-1.29-2.579-2.578-2.579h-34.8
		c-1.29,0-2.579,1.289-2.579,2.579v25.776c0,1.291,1.289,2.578,2.579,2.578h10.311v14.178c0,1.291,1.289,2.578,2.578,2.578h19.334
		v9.025c0,0,0,1.285,1.28,1.285c1.297,0,7.741-10.311,7.741-10.311h11.6c1.29,0,2.578-1.287,2.578-2.578V25.179
		C69,23.889,67.712,22.602,66.422,22.602z M50.956,39.355c0,1.291-1.29,2.578-2.578,2.578h-5.155v6.443c0,0,0,1.291-1.289,1.291
		s-5.156-7.734-5.156-7.734H23.889V25.179c0-1.29,1.289-2.577,2.578-2.577h24.489V39.355z"/>
	<rect style="fill:none;" width="80" height="80.002"/>
</g>
</svg>
