<?xml version="1.0" encoding="iso-8859-1"?>
<!-- Generator: Adobe Illustrator 14.0.0, SVG Export Plug-In . SVG Version: 6.00 Build 43363)  -->
<!DOCTYPE svg PUBLIC "-//W3C//DTD SVG 1.1//EN" "http://www.w3.org/Graphics/SVG/1.1/DTD/svg11.dtd">
<svg version="1.1" id="icon-m-content-word-layer" xmlns="http://www.w3.org/2000/svg" xmlns:xlink="http://www.w3.org/1999/xlink"
	 x="0px" y="0px" width="48px" height="48px" viewBox="0 0 48 48" style="enable-background:new 0 0 48 48;" xml:space="preserve">
<g id="icon-m-content-word_2_">
	<rect style="fill:none;" width="48" height="48"/>
	<polygon style="fill:#333333;" points="29,0.27 29,16.677 44.904,16.677 44.904,16.171 	"/>
	<path style="fill:#333333;" d="M28.613,20.547c-1.92,0-3.482-1.562-3.482-3.482V0H4.646c-0.851,0-1.55,0.697-1.55,1.549v44.902
		c0,0.853,0.699,1.549,1.55,1.549h38.71c0.85,0,1.549-0.696,1.549-1.549V20.547H28.613z M25.635,40.852
		c-0.257,0.053-0.496,0.102-0.709,0.147c-0.463,0.101-0.928,0.206-1.39,0.312c-1.911,0.436-3.885,0.887-5.679,0.887
		c-2.058,0-3.672-0.604-4.937-1.846c-2.035-2.001-2.876-5.766-3.619-9.087l-0.314-1.386c-0.381-1.635-0.854-3.672,0.032-4.868
		c0.421-0.567,1.113-0.888,2.056-0.95c4.303-0.283,5.192,3.746,6.049,7.635l0.168,0.758c0.117,0.52,0.211,1.106,0.311,1.727
		c0.225,1.401,0.457,2.85,0.968,3.573c0.398,0.563,1.115,0.826,2.255,0.826c0.703,0,1.479-0.1,2.24-0.207
		c-1.029-1.544-1.551-3.365-2.127-6.102l-0.069-0.322c-0.258-1.197-0.55-2.555-0.279-3.94c0.201-1.031,1.092-1.697,2.268-1.697
		c0.609,0,1.208,0.189,1.69,0.533c1.045,0.746,1.291,2.379,1.551,4.107c0.07,0.459,0.14,0.924,0.227,1.377
		c0.049,0.26,0.098,0.541,0.148,0.832c0.289,1.663,0.648,3.732,1.574,4.136c0.254,0.11,0.609,0.12,0.954,0.131
		c0.706,0.021,1.585,0.046,1.646,1.077C30.725,39.813,27.783,40.414,25.635,40.852z M34.729,38.655
		c-0.351,0.411-0.86,0.628-1.473,0.628h-0.028c-1.927-0.023-2.299-2.069-2.658-4.049l-0.096-0.526
		c-0.079-0.413-0.187-0.874-0.3-1.353c-0.555-2.357-1.185-5.03,0.763-5.765c0.35-0.131,0.684-0.197,0.994-0.197
		c2.156,0,2.582,2.858,2.925,5.156c0.038,0.259,0.073,0.492,0.108,0.716C35.303,35.385,35.652,37.574,34.729,38.655z"/>
</g>
</svg>
