<?xml version="1.0" encoding="iso-8859-1"?>
<!-- Generator: Adobe Illustrator 14.0.0, SVG Export Plug-In . SVG Version: 6.00 Build 43363)  -->
<!DOCTYPE svg PUBLIC "-//W3C//DTD SVG 1.1//EN" "http://www.w3.org/Graphics/SVG/1.1/DTD/svg11.dtd">
<svg version="1.1" id="icon-m-energy-management-battery2-layer"
	 xmlns="http://www.w3.org/2000/svg" xmlns:xlink="http://www.w3.org/1999/xlink" x="0px" y="0px" width="48px" height="48px"
	 viewBox="0 0 48 48" style="enable-background:new 0 0 48 48;" xml:space="preserve">
<g id="icon-m-energy-management-battery2">
	<rect style="fill:none;" width="48" height="48"/>
	<path style="fill:#333333;" d="M19.09,2.535v2.113h-7.555c-0.775,0-1.41,0.633-1.41,1.408v39.41c0,0.775,0.635,1.409,1.41,1.409
		h24.932c0.773,0,1.408-0.634,1.408-1.409V6.057c0-0.775-0.635-1.408-1.408-1.408H28.91V2.535c0-0.774-0.635-1.412-1.408-1.412H20.5
		C19.726,1.123,19.09,1.761,19.09,2.535z M33.164,8.92c0.775,0,1.41,0.633,1.41,1.408v32.376c0,0.776-0.635,1.411-1.41,1.411H14.839
		c-0.775,0-1.409-0.635-1.409-1.411V10.328c0-0.775,0.634-1.408,1.409-1.408H33.164z"/>
	<rect x="15.933" y="32.52" style="fill:#333333;" width="16.137" height="9.07"/>
</g>
</svg>
