<?xml version="1.0" encoding="iso-8859-1"?>
<!-- Generator: Adobe Illustrator 14.0.0, SVG Export Plug-In . SVG Version: 6.00 Build 43363)  -->
<!DOCTYPE svg PUBLIC "-//W3C//DTD SVG 1.1//EN" "http://www.w3.org/Graphics/SVG/1.1/DTD/svg11.dtd">
<svg version="1.1" id="icon-l-telephony-layer" xmlns="http://www.w3.org/2000/svg" xmlns:xlink="http://www.w3.org/1999/xlink"
	 x="0px" y="0px" width="80px" height="81px" viewBox="0 0 80 81" style="enable-background:new 0 0 80 81;" xml:space="preserve">
<g id="icon-l-telephony_1_">
	<path style="fill:#8EBD37;" d="M70.246,16.334c0.012,0,1.746,1.792-0.027,3.564L55.844,30.482
		c-0.932,0.717-2.146,1.432-3.601-0.035c0,0-5.286-7.361-8.68-5.24C41.213,26.676,26.56,41.254,25.065,43.6
		c-2.147,3.375,5.19,8.711,5.19,8.711c1.46,1.451,0.74,2.67,0.016,3.6L19.598,70.209c-1.597,1.773-3.54,0.01-3.54,0.01
		c-3.923-3.162-8.878-13.305-6.417-19.705c5.614-14.615,29.113-35.182,40.916-40.695C56.793,6.906,67.104,12.402,70.246,16.334z"/>
	<rect style="fill:none;" width="80" height="80.002"/>
</g>
</svg>
