<?xml version="1.0" encoding="iso-8859-1"?>
<!-- Generator: Adobe Illustrator 14.0.0, SVG Export Plug-In . SVG Version: 6.00 Build 43363)  -->
<!DOCTYPE svg PUBLIC "-//W3C//DTD SVG 1.1//EN" "http://www.w3.org/Graphics/SVG/1.1/DTD/svg11.dtd">
<svg version="1.1" id="icon-m-energy-management-remove-charger-layer"
	 xmlns="http://www.w3.org/2000/svg" xmlns:xlink="http://www.w3.org/1999/xlink" x="0px" y="0px" width="48px" height="48px"
	 viewBox="0 0 48 48" style="enable-background:new 0 0 48 48;" xml:space="preserve">
<g id="icon-m-energy-management-remove-charger">
	<rect style="fill:none;" width="48" height="48"/>
	<path style="fill:#333333;" d="M34.502,21C27.045,21,21,27.051,21,34.508C21,41.955,27.045,48,34.502,48
		C41.951,48,48,41.955,48,34.508C48,27.051,41.951,21,34.502,21z M43.307,28.945v0.002l-0.002,0.001
		c-0.002,0.003-0.004,0.003-0.008,0.005v-0.002l-0.003,0.004c-0.004,0.002-0.009,0.006-0.015,0.012
		c-0.012,0.008-0.027,0.018-0.049,0.035c-0.045,0.031-0.109,0.08-0.195,0.142c-0.172,0.128-0.422,0.317-0.741,0.568
		c-0.635,0.505-1.54,1.255-2.619,2.25c-2.156,1.987-4.991,4.933-7.69,8.756c-0.082,0.116-0.211,0.192-0.361,0.202l-0.02,0.002
		l-0.014-0.234v0.234c-0.127,0-0.251-0.049-0.345-0.142l-5.605-5.632c-0.083-0.087-0.136-0.204-0.14-0.327
		c0,0-0.002-0.016,0.004-0.038c-0.004-0.008,0-0.02,0.002-0.032c0.014-0.111,0.062-0.216,0.15-0.294l1.864-1.723
		c0.095-0.09,0.215-0.133,0.334-0.133c0.126-0.002,0.253,0.05,0.348,0.148l2.899,2.978c3.717-5.177,9.395-7.587,11.871-7.646
		c0.005,0,0.007-0.002,0.043-0.004c0.208,0,0.395,0.132,0.461,0.332c0.019,0.051,0.025,0.102,0.023,0.149
		C43.5,28.713,43.428,28.854,43.307,28.945z"/>
	<path style="fill:#333333;" d="M18.96,43.596H4.587c-0.754,0-1.371-0.615-1.371-1.371V10.598c0-0.755,0.616-1.373,1.371-1.373
		h17.828c0.757,0,1.372,0.618,1.372,1.373v9.448c0.997-0.741,2.074-1.378,3.213-1.903V6.541c0-0.756-0.619-1.371-1.371-1.371h-7.353
		V3.115c0-0.758-0.619-1.371-1.371-1.371h-6.812c-0.755,0-1.371,0.613-1.371,1.371V5.17H1.371C0.617,5.17,0,5.785,0,6.541v38.344
		c0,0.756,0.617,1.373,1.371,1.373h19.516C20.167,45.424,19.521,44.553,18.96,43.596z"/>
	<path style="fill:#333333;" d="M16.5,34.189c0-4.74,1.844-9.055,4.849-12.271v-9.693H5.802v28.5h11.963
		C16.952,38.675,16.5,36.524,16.5,34.189z"/>
</g>
</svg>
