<?xml version="1.0" encoding="iso-8859-1"?>
<!-- Generator: Adobe Illustrator 14.0.0, SVG Export Plug-In . SVG Version: 6.00 Build 43363)  -->
<!DOCTYPE svg PUBLIC "-//W3C//DTD SVG 1.1//EN" "http://www.w3.org/Graphics/SVG/1.1/DTD/svg11.dtd">
<svg version="1.1" id="icon-s-status-offline-layer"
	 xmlns="http://www.w3.org/2000/svg" xmlns:xlink="http://www.w3.org/1999/xlink" x="0px" y="0px" width="18px" height="19px"
	 viewBox="0 0 18 19" style="enable-background:new 0 0 18 19;" xml:space="preserve">
<g id="icon-s-status-offline_1_">
	<rect style="fill:none;" width="18" height="18"/>
	<path style="fill:#FFFFFF;" d="M0.409,9.851L0,12.941h0.88c0,0,1.753-1.701,2.601-2.699c0.801,0.078,2.216,0.119,2.595,0.119
		l1.784,0.037V18h2c0,0,1.516-5.969,2-7.518l3.699,0.066C16.901,10.549,18,9.852,18,9s-1.099-1.549-2.44-1.549L11.86,7.518
		C11.376,5.969,9.86,0,9.86,0h-2v7.602L6.077,7.639c-0.367,0-1.751,0.039-2.522,0.111C2.724,6.77,0.88,4.964,0.88,4.964H0
		l0.42,3.184L0.409,9.851z"/>
</g>
</svg>
