<?xml version="1.0" encoding="iso-8859-1"?>
<!-- Generator: Adobe Illustrator 14.0.0, SVG Export Plug-In . SVG Version: 6.00 Build 43363)  -->
<!DOCTYPE svg PUBLIC "-//W3C//DTD SVG 1.1//EN" "http://www.w3.org/Graphics/SVG/1.1/DTD/svg11.dtd">
<svg version="1.1" id="icon-m-notification-temperature-layer"
	 xmlns="http://www.w3.org/2000/svg" xmlns:xlink="http://www.w3.org/1999/xlink" x="0px" y="0px" width="48px" height="48px"
	 viewBox="0 0 48 48" style="enable-background:new 0 0 48 48;" xml:space="preserve">
<g id="icon-m-notification-temperature_1_">
	<rect style="fill:none;" width="48" height="48"/>
	<path style="fill:#333333;" d="M28.144,30.287V17.25V4.695C28.144,2.106,26.285,0,24,0c-2.284,0-4.143,2.106-4.143,4.695V17.25
		v13.037c-3.183,1.568-5.2,4.775-5.2,8.369C14.657,43.809,18.849,48,24,48c5.152,0,9.344-4.191,9.344-9.344
		C33.344,35.062,31.326,31.855,28.144,30.287z M24,2.25c1.027,0,1.894,1.12,1.894,2.445V15h-3.787V4.695
		C22.107,3.37,22.974,2.25,24,2.25z"/>
</g>
</svg>
