<?xml version="1.0" encoding="iso-8859-1"?>
<!-- Generator: Adobe Illustrator 14.0.0, SVG Export Plug-In . SVG Version: 6.00 Build 43363)  -->
<!DOCTYPE svg PUBLIC "-//W3C//DTD SVG 1.1//EN" "http://www.w3.org/Graphics/SVG/1.1/DTD/svg11.dtd">
<svg version="1.1" id="icon-s-status-wlan-layer" xmlns="http://www.w3.org/2000/svg" xmlns:xlink="http://www.w3.org/1999/xlink"
	 x="0px" y="0px" width="21px" height="16px" viewBox="0 0 21 16" style="enable-background:new 0 0 21 16;" xml:space="preserve">
<g id="icon-s-status-wlan">
	<circle id="local_23_" style="fill:#FFFFFF;" cx="10.405" cy="14.001" r="1.75"/>
	<path style="fill:#FFFFFF;" d="M14.891,10.239c-1.139-1.221-2.754-1.988-4.548-1.988c-1.764,0-3.356,0.742-4.491,1.926
		c0,0-0.139,0.146-0.139,0.375c0,0.312,0.253,0.564,0.564,0.564c0.179,0,0.332-0.09,0.435-0.222c0.928-0.938,2.21-1.528,3.63-1.53
		h0.001c1.471,0.002,2.795,0.635,3.729,1.635c0.102,0.146,0.264,0.25,0.455,0.25c0.312,0,0.564-0.254,0.564-0.564
		C15.092,10.508,14.891,10.239,14.891,10.239z"/>
	<path style="fill:#FFFFFF;" d="M17.574,7.184c-1.854-1.859-4.404-3.023-7.231-3.025C7.476,4.16,4.882,5.352,3.021,7.26
		c0,0-0.194,0.158-0.194,0.427c0,0.312,0.253,0.564,0.564,0.564c0.17,0,0.319-0.079,0.422-0.199l0,0
		c1.66-1.706,3.972-2.774,6.529-2.78h0.002c2.587,0.006,4.921,1.102,6.583,2.843c0,0,0.148,0.137,0.404,0.137
		c0.311,0,0.564-0.253,0.564-0.564C17.896,7.464,17.756,7.326,17.574,7.184z"/>
	<path style="fill:#FFFFFF;" d="M20.555,4.332L20.555,4.332c0,0-0.002,0-0.002-0.001c-0.023-0.027-0.049-0.052-0.076-0.073
		C17.893,1.634,14.305,0.001,10.342,0C6.373,0.001,2.778,1.641,0.193,4.27C0.077,4.373,0,4.52,0,4.687C0,5,0.252,5.251,0.564,5.251
		c0.278,0,0.421-0.181,0.421-0.181c2.384-2.432,5.696-3.949,9.355-3.956h0.001c3.691,0.007,7.027,1.55,9.416,4.018
		c0,0,0.176,0.119,0.367,0.119c0.311,0,0.564-0.251,0.564-0.564C20.689,4.552,20.635,4.432,20.555,4.332z"/>
</g>
</svg>
