<?xml version="1.0" encoding="iso-8859-1"?>
<!-- Generator: Adobe Illustrator 14.0.0, SVG Export Plug-In . SVG Version: 6.00 Build 43363)  -->
<!DOCTYPE svg PUBLIC "-//W3C//DTD SVG 1.1//EN" "http://www.w3.org/Graphics/SVG/1.1/DTD/svg11.dtd">
<svg version="1.1" id="icon-m-email-directory-draft-layer"
	 xmlns="http://www.w3.org/2000/svg" xmlns:xlink="http://www.w3.org/1999/xlink" x="0px" y="0px" width="48px" height="48px"
	 viewBox="0 0 48 48" style="enable-background:new 0 0 48 48;" xml:space="preserve">
<g id="icon-m-email-directory-draft_2_">
	<rect style="fill:none;" width="48" height="48"/>
	<rect x="16.458" y="33.131" style="fill:#333333;" width="8.17" height="2.25"/>
	<rect x="16.458" y="27.113" style="fill:#333333;" width="15.094" height="2.25"/>
	<rect x="16.458" y="21.064" style="fill:#333333;" width="15.094" height="2.25"/>
	<path style="fill:#333333;" d="M26.977,3.824c0-0.825-0.675-1.5-1.5-1.5H1.515c-0.825,0-1.5,0.675-1.5,1.5l0,5.502h26.962V3.824z"
		/>
	<path style="fill:#333333;" d="M46.5,12.438H0.015l-0.002,31.74c0,0.826,0.674,1.5,1.5,1.5H46.5c0.824,0,1.5-0.674,1.5-1.5v-30.24
		C48,13.111,47.324,12.438,46.5,12.438z M33.714,41.104H14.283c-0.429,0-0.777-0.348-0.777-0.777V17.787
		c0-0.428,0.349-0.777,0.777-0.777h19.438c0.43,0,0.777,0.35,0.777,0.777l0.008,22.539C34.506,40.756,34.141,41.104,33.714,41.104z"
		/>
</g>
</svg>
