<?xml version="1.0" encoding="iso-8859-1"?>
<!-- Generator: Adobe Illustrator 14.0.0, SVG Export Plug-In . SVG Version: 6.00 Build 43363)  -->
<!DOCTYPE svg PUBLIC "-//W3C//DTD SVG 1.1//EN" "http://www.w3.org/Graphics/SVG/1.1/DTD/svg11.dtd">
<svg version="1.1" id="icon-m-camera-flash-off-screen-layer"
	 xmlns="http://www.w3.org/2000/svg" xmlns:xlink="http://www.w3.org/1999/xlink" x="0px" y="0px" width="32px" height="32px"
	 viewBox="0 0 32 32" style="enable-background:new 0 0 32 32;" xml:space="preserve">
<g id="icon-m-camera-flash-off-screen">
	<rect style="fill:none;" width="32" height="32"/>
	<path style="fill:#FFFFFF;" d="M16,0.451C7.441,0.452,0.5,7.396,0.5,15.96C0.5,24.514,7.441,31.449,16,31.451
		c8.558-0.002,15.498-6.938,15.5-15.491C31.498,7.396,24.559,0.452,16,0.451z M26.288,24.186l-4.341-4.342l-2.278,1.83l4.564,4.565
		c-2.256,1.808-5.116,2.894-8.233,2.897C8.72,29.125,2.827,23.233,2.813,15.96c0.007-3.118,1.093-5.981,2.903-8.24l3.837,3.837
		l2.181-1.926L7.77,5.664C10.026,3.856,12.886,2.771,16,2.768V2.765c7.278,0.014,13.173,5.911,13.186,13.195
		C29.182,19.072,28.097,21.932,26.288,24.186z"/>
	<polygon style="fill:#FFFFFF;" points="20.297,6.264 11.509,14.03 16.177,16.779 9.703,25.639 22.297,15.526 17.273,12.979 	"/>
</g>
</svg>
