<?xml version="1.0" encoding="iso-8859-1"?>
<!-- Generator: Adobe Illustrator 14.0.0, SVG Export Plug-In . SVG Version: 6.00 Build 43363)  -->
<!DOCTYPE svg PUBLIC "-//W3C//DTD SVG 1.1//EN" "http://www.w3.org/Graphics/SVG/1.1/DTD/svg11.dtd">
<svg version="1.1" id="icon-m-music-video-shuffle-on-layer"
	 xmlns="http://www.w3.org/2000/svg" xmlns:xlink="http://www.w3.org/1999/xlink" x="0px" y="0px" width="48px" height="48px"
	 viewBox="0 0 48 48" style="enable-background:new 0 0 48 48;" xml:space="preserve">
<g id="icon-m-music-video-shuffle-on_2_">
	<rect style="fill:none;" width="48" height="48"/>
	<path style="fill:#333333;" d="M14.258,19.728h0.003l0.233,0.302l4.793-6.169l-1.001-1.288c-0.137-0.202-0.289-0.393-0.449-0.577
		l-0.116-0.149l-0.011,0.01c-1.034-1.115-2.49-1.828-4.117-1.887V9.958H0v7.569h9.828C11.621,17.576,13.209,18.423,14.258,19.728z"
		/>
	<path style="fill:#333333;" d="M39.89,30.039h-5.472c-1.67-0.094-3.146-0.875-4.16-2.072l-4.798,6.174l0.954,1.227v0.028h0.008
		c1.081,1.346,2.734,2.21,4.596,2.21c0.028,0,0.057-0.003,0.086-0.003v0.005h8.786v4.297L48,33.852l-8.11-8.053V30.039z"/>
	<path style="fill:#333333;" d="M34.418,17.962h5.472v4.24L48,14.148l-8.11-8.053v4.298h-8.786v0.005
		c-0.029,0-0.058-0.003-0.086-0.003c-1.861,0-3.515,0.863-4.596,2.21h-0.008v0.027L14.261,28.273h-0.003
		c-1.048,1.305-2.637,2.15-4.43,2.199H0v7.57h13.593v-0.011c1.627-0.06,3.083-0.771,4.117-1.887l0.011,0.009l0.116-0.147
		c0.16-0.185,0.312-0.375,0.449-0.577l11.903-15.32C31.205,18.869,32.713,18.057,34.418,17.962z"/>
</g>
</svg>
