<?xml version="1.0" encoding="iso-8859-1"?>
<!-- Generator: Adobe Illustrator 14.0.0, SVG Export Plug-In . SVG Version: 6.00 Build 43363)  -->
<!DOCTYPE svg PUBLIC "-//W3C//DTD SVG 1.1//EN" "http://www.w3.org/Graphics/SVG/1.1/DTD/svg11.dtd">
<svg version="1.1" id="icon-m-image-edit-rotate-right-layer"
	 xmlns="http://www.w3.org/2000/svg" xmlns:xlink="http://www.w3.org/1999/xlink" x="0px" y="0px" width="48px" height="48px"
	 viewBox="0 0 48 48" style="enable-background:new 0 0 48 48;" xml:space="preserve">
<g id="icon-m-image-edit-rotate-right">
	<rect style="fill:none;" width="48" height="48"/>
	
		<ellipse transform="matrix(0.707 -0.7072 0.7072 0.707 -22.2934 18.8097)" style="fill:#333333;" cx="11.553" cy="36.309" rx="2.936" ry="2.953"/>
	
		<ellipse transform="matrix(0.7073 -0.7069 0.7069 0.7073 -22.5344 27.0961)" style="fill:#333333;" cx="21.454" cy="40.761" rx="2.936" ry="2.953"/>
	
		<ellipse transform="matrix(0.7069 -0.7073 0.7073 0.7069 -17.898 33.8662)" style="fill:#333333;" cx="31.917" cy="38.531" rx="2.936" ry="2.953"/>
	<path style="fill:#333333;" d="M35.914,9.296l4.854-4.854c0.253-0.252,0.51-0.168,0.57,0.188L44.25,21.8
		c0.061,0.357-0.182,0.598-0.539,0.538l-17.17-2.911c-0.357-0.06-0.44-0.316-0.188-0.569l6.434-6.436
		c-5.902-4.988-14.743-4.733-20.274,0.799c-4.619,4.618-5.549,11.543-2.83,17.141l-4.11,1.656
		c-3.362-7.199-2.098-16.023,3.809-21.93C16.632,2.838,28.275,2.586,35.914,9.296z"/>
</g>
</svg>
