<?xml version="1.0" encoding="iso-8859-1"?>
<!-- Generator: Adobe Illustrator 14.0.0, SVG Export Plug-In . SVG Version: 6.00 Build 43363)  -->
<!DOCTYPE svg PUBLIC "-//W3C//DTD SVG 1.1//EN" "http://www.w3.org/Graphics/SVG/1.1/DTD/svg11.dtd">
<svg version="1.1" id="icon-s-messaging-smiley-sleepy-layer"
	 xmlns="http://www.w3.org/2000/svg" xmlns:xlink="http://www.w3.org/1999/xlink" x="0px" y="0px" width="18px" height="18px"
	 viewBox="0 0 18 18" style="enable-background:new 0 0 18 18;" xml:space="preserve">
<g id="icon-s-messaging-smiley-sleepy_1_">
	<rect style="fill:none;" width="18" height="18"/>
	<ellipse style="fill:#333333;" cx="9" cy="13.219" rx="1.828" ry="1.969"/>
	<path style="fill:#333333;" d="M6.639,7.414c0.295-0.277,0.502-0.605,0.626-0.945C7.473,7.076,7.281,7.83,6.712,8.365
		c-0.74,0.693-1.818,0.747-2.409,0.118C4.067,8.231,3.886,7.942,3.83,7.625C4.549,8.301,5.783,8.218,6.639,7.414z"/>
	<path style="fill:#333333;" d="M11.361,7.414c-0.296-0.277-0.502-0.605-0.627-0.945c-0.207,0.607-0.016,1.361,0.553,1.896
		c0.74,0.693,1.818,0.747,2.409,0.118c0.236-0.252,0.418-0.541,0.474-0.858C13.451,8.301,12.217,8.218,11.361,7.414z"/>
	<path style="fill:#333333;" d="M9,1.125c4.342,0,7.875,3.533,7.875,7.875c0,4.343-3.533,7.875-7.875,7.875
		c-4.342,0-7.875-3.532-7.875-7.875C1.125,4.658,4.658,1.125,9,1.125 M9,0C4.029,0,0,4.029,0,9s4.029,9,9,9s9-4.029,9-9
		S13.971,0,9,0L9,0z"/>
</g>
</svg>
