<?xml version="1.0" encoding="iso-8859-1"?>
<!-- Generator: Adobe Illustrator 14.0.0, SVG Export Plug-In . SVG Version: 6.00 Build 43363)  -->
<!DOCTYPE svg PUBLIC "-//W3C//DTD SVG 1.1//EN" "http://www.w3.org/Graphics/SVG/1.1/DTD/svg11.dtd">
<svg version="1.1" id="icon-m-framework-done-layer"
	 xmlns="http://www.w3.org/2000/svg" xmlns:xlink="http://www.w3.org/1999/xlink" x="0px" y="0px" width="48px" height="48px"
	 viewBox="0 0 48 48" style="enable-background:new 0 0 48 48;" xml:space="preserve">
<g id="icon-m-framework-done">
	<rect id="_x34_8_4_" style="fill:none;" width="48" height="48"/>
	<rect id="_x33_2_4_" x="8" y="8" style="fill:none;" width="32" height="32"/>
	<g>
		<g>
			<path style="fill:#FFFFFF;" d="M37.546,13.414c0.777-0.777,2.05-0.777,2.828,0.001l0.353,0.353c0.778,0.778,0.777,2.052,0,2.829
				L22.342,34.979c-0.778,0.777-2.05,0.777-2.828-0.001l-0.354-0.353c-0.777-0.778-0.777-2.052,0-2.829L37.546,13.414z"/>
		</g>
		<g>
			<path style="fill:#FFFFFF;" d="M22.727,31.846c0.778,0.777,0.778,2.051,0,2.828l-0.354,0.354c-0.778,0.777-2.05,0.777-2.828,0
				L9.408,24.889c-0.778-0.777-0.778-2.051,0-2.829l0.352-0.353c0.777-0.778,2.05-0.778,2.828-0.001L22.727,31.846z"/>
		</g>
	</g>
</g>
</svg>
