<?xml version="1.0" encoding="iso-8859-1"?>
<!-- Generator: Adobe Illustrator 14.0.0, SVG Export Plug-In . SVG Version: 6.00 Build 43363)  -->
<!DOCTYPE svg PUBLIC "-//W3C//DTD SVG 1.1//EN" "http://www.w3.org/Graphics/SVG/1.1/DTD/svg11.dtd">
<svg version="1.1" id="icon-m-camera-scene-landscape-screen-layer"
	 xmlns="http://www.w3.org/2000/svg" xmlns:xlink="http://www.w3.org/1999/xlink" x="0px" y="0px" width="32px" height="32px"
	 viewBox="0 0 32 32" style="enable-background:new 0 0 32 32;" xml:space="preserve">
<g id="icon-m-camera-scene-landscape-screen">
	<rect style="fill:none;" width="32" height="32"/>
	<path style="fill:#FFFFFF;" d="M20.598,10.326c0.658,0,1.252-0.252,1.709-0.658c0.612,0.872,1.479,1.421,2.443,1.421
		c0.963,0,1.83-0.549,2.443-1.421c0.457,0.406,1.05,0.658,1.707,0.658c1.438,0,2.598-1.17,2.598-2.612
		c0-1.443-1.16-2.613-2.598-2.613c-0.332,0-0.646,0.069-0.938,0.183c-0.418-1.848-1.697-3.194-3.213-3.194s-2.795,1.347-3.213,3.194
		c-0.291-0.113-0.606-0.183-0.939-0.183C19.163,5.101,18,6.271,18,7.714C18,9.156,19.163,10.326,20.598,10.326z"/>
	<path style="fill:#FFFFFF;" d="M19,20.5c-3.872-8.954-11.247-20.197-18.501,7h31C31.498,27.5,25.451,6.224,19,20.5z"/>
</g>
</svg>
