<?xml version="1.0" encoding="iso-8859-1"?>
<!-- Generator: Adobe Illustrator 14.0.0, SVG Export Plug-In . SVG Version: 6.00 Build 43363)  -->
<!DOCTYPE svg PUBLIC "-//W3C//DTD SVG 1.1//EN" "http://www.w3.org/Graphics/SVG/1.1/DTD/svg11.dtd">
<svg version="1.1" id="icon-m-gallery-dlna-layer" xmlns="http://www.w3.org/2000/svg" xmlns:xlink="http://www.w3.org/1999/xlink"
	 x="0px" y="0px" width="48px" height="48px" viewBox="0 0 48 48" style="enable-background:new 0 0 48 48;" xml:space="preserve">
<g id="icon-m-gallery-dlna_1_">
	<rect style="fill:none;" width="48" height="48"/>
	<path style="fill:#333333;" d="M24.559,26.063c-0.631,0.066-2.607,0.38-3.874,1.764c-0.05,0.053-0.088,0.086-0.132,0.129
		c-1.166,1.473-2.968,2.42-4.992,2.42c-3.522,0-6.377-2.854-6.377-6.375c0-3.52,2.854-6.375,6.377-6.375
		c1.996,0,3.777,0.919,4.942,2.355c0.059,0.055,0.113,0.105,0.182,0.178c1.481,1.62,3.938,1.771,4.065,1.779h22.965
		C46.533,11.388,36.394,3.146,24.06,3.146c-7.686,0-14.518,3.203-18.863,8.167H21.31c0.63-0.065,2.607-0.379,3.875-1.764
		c0.048-0.053,0.086-0.086,0.13-0.129C26.482,7.948,28.282,7,30.309,7c3.521,0,6.375,2.854,6.375,6.375s-2.854,6.375-6.375,6.375
		c-1.996,0-3.779-0.918-4.945-2.354c-0.056-0.054-0.113-0.105-0.179-0.177c-1.483-1.621-3.938-1.772-4.065-1.781H2.384
		C1.04,18.051,0.287,20.947,0.287,24s0.753,5.95,2.097,8.563H21.31c0.63-0.067,2.607-0.38,3.875-1.764
		c0.048-0.053,0.086-0.087,0.13-0.129c1.168-1.472,2.968-2.42,4.994-2.42c3.521,0,6.375,2.854,6.375,6.375
		c0,3.52-2.854,6.375-6.375,6.375c-1.996,0-3.779-0.919-4.945-2.355c-0.056-0.054-0.113-0.104-0.179-0.178
		c-1.483-1.62-3.938-1.773-4.065-1.779H5.196c4.345,4.965,11.177,8.167,18.863,8.167c12.334,0,22.474-8.243,23.655-18.793H24.559z"
		/>
</g>
</svg>
