<?xml version="1.0" encoding="iso-8859-1"?>
<!-- Generator: Adobe Illustrator 14.0.0, SVG Export Plug-In . SVG Version: 6.00 Build 43363)  -->
<!DOCTYPE svg PUBLIC "-//W3C//DTD SVG 1.1//EN" "http://www.w3.org/Graphics/SVG/1.1/DTD/svg11.dtd">
<svg version="1.1" id="icon-l-rss-layer" xmlns="http://www.w3.org/2000/svg" xmlns:xlink="http://www.w3.org/1999/xlink" x="0px"
	 y="0px" width="80px" height="81px" viewBox="0 0 80 81" style="enable-background:new 0 0 80 81;" xml:space="preserve">
<g id="icon-l-rss_1_">
	<path style="fill:#F88E1C;" d="M17.948,70c-4.385,0-7.953-3.57-7.953-7.955c0-4.384,3.568-7.949,7.953-7.949
		c4.387,0,7.952,3.565,7.952,7.949C25.9,66.43,22.335,70,17.948,70z M37.471,68.553c0-14.366-11.653-26.025-26.023-26.025v-9.755
		c19.766,0,35.781,16.021,35.781,35.78H37.471z M60.238,68.553c0-26.945-21.846-48.791-48.791-48.791V10
		c32.331,0,58.558,26.217,58.558,58.553H60.238z"/>
	<rect style="fill:none;" width="80" height="80"/>
</g>
</svg>
