<?xml version="1.0" encoding="iso-8859-1"?>
<!-- Generator: Adobe Illustrator 14.0.0, SVG Export Plug-In . SVG Version: 6.00 Build 43363)  -->
<!DOCTYPE svg PUBLIC "-//W3C//DTD SVG 1.1//EN" "http://www.w3.org/Graphics/SVG/1.1/DTD/svg11.dtd">
<svg version="1.1" id="icon-m-common-favorite-mark-layer"
	 xmlns="http://www.w3.org/2000/svg" xmlns:xlink="http://www.w3.org/1999/xlink" x="0px" y="0px" width="48px" height="48px"
	 viewBox="0 0 48 48" style="enable-background:new 0 0 48 48;" xml:space="preserve">
<g id="icon-m-common-favorite-mark">
	<rect style="fill:none;" width="48" height="48"/>
	<path style="fill:#333333;" d="M47.196,19.053c0.673-0.502,0.539-0.912-0.301-0.912H31.416c-0.838,0-1.745-0.651-2.01-1.445
		L24.485,2.029c-0.267-0.795-0.703-0.795-0.97,0l-4.925,14.666c-0.267,0.794-1.172,1.445-2.011,1.445H1.105
		c-0.842,0-0.975,0.41-0.301,0.912l12.378,9.2c0.676,0.499,1.006,1.561,0.739,2.357l-5.08,15.128
		c-0.268,0.795,0.084,1.066,0.783,0.602L22.73,37.61c0.7-0.465,1.842-0.465,2.541,0l13.101,8.729
		c0.698,0.465,1.053,0.193,0.785-0.602l-5.08-15.128c-0.266-0.797,0.066-1.858,0.741-2.357L47.196,19.053z"/>
</g>
</svg>
