<?xml version="1.0" encoding="iso-8859-1"?>
<!-- Generator: Adobe Illustrator 14.0.0, SVG Export Plug-In . SVG Version: 6.00 Build 43363)  -->
<!DOCTYPE svg PUBLIC "-//W3C//DTD SVG 1.1//EN" "http://www.w3.org/Graphics/SVG/1.1/DTD/svg11.dtd">
<svg version="1.1" id="icon-l-calendar-layer" xmlns="http://www.w3.org/2000/svg" xmlns:xlink="http://www.w3.org/1999/xlink"
	 x="0px" y="0px" width="80px" height="81px" viewBox="0 0 80 81" style="enable-background:new 0 0 80 81;" xml:space="preserve">
<g id="icon-l-calendar_1_">
	<path style="fill:#00A69C;" d="M14.813,68.126c0,1.031,0.843,1.874,1.877,1.874H63.31c1.033,0,1.876-0.843,1.876-1.874v-33.6
		H14.813V68.126z M40.818,60.25c0-4.152,2.496-6.597,5.055-8.741c1.605-1.348,2.591-2.25,2.591-3.66
		c0-1.587-0.739-2.265-2.474-2.265c-1.398,0-2.688,0.415-3.889,0.841l-0.627,0.223v-3.616l0.336-0.099
		c1.832-0.543,3.551-0.807,5.258-0.807c5.513,0,6.67,3.026,6.67,5.566c0,3.051-1.625,4.664-3.924,6.611
		c-2.176,1.838-3.502,3.025-3.856,4.612h7.938v3.486H40.818V60.25z M26.104,59.204h4.046V46.485l-4.046,0.868v-3.186l6.46-1.991
		h2.754v17.027h3.812v3.198H26.104V59.204z M25.709,19.343v-7.385c0-1.077,0.882-1.958,1.96-1.958h0.481
		c1.081,0,1.962,0.881,1.962,1.958v7.385c0,1.075-0.881,1.956-1.962,1.956h-0.481C26.591,21.299,25.709,20.418,25.709,19.343z
		 M50.16,19.343v-7.385c0-1.077,0.883-1.958,1.963-1.958h0.479c1.081,0,1.963,0.881,1.963,1.958v7.385
		c0,1.075-0.882,1.956-1.963,1.956h-0.479C51.043,21.299,50.16,20.418,50.16,19.343z M65.186,19.113v9.712H14.813v-9.712h6.427
		c0.363,3.292,3.115,5.852,6.458,5.852c3.342,0,6.091-2.56,6.456-5.852h11.538c0.364,3.292,3.114,5.852,6.458,5.852
		c3.341,0,6.093-2.56,6.455-5.852H65.186z"/>
	<rect style="fill:none;" width="80" height="80.001"/>
</g>
</svg>
