<?xml version="1.0" encoding="iso-8859-1"?>
<!-- Generator: Adobe Illustrator 14.0.0, SVG Export Plug-In . SVG Version: 6.00 Build 43363)  -->
<!DOCTYPE svg PUBLIC "-//W3C//DTD SVG 1.1//EN" "http://www.w3.org/Graphics/SVG/1.1/DTD/svg11.dtd">
<svg version="1.1" id="icon-m-messaging-smiley-cry-layer"
	 xmlns="http://www.w3.org/2000/svg" xmlns:xlink="http://www.w3.org/1999/xlink" x="0px" y="0px" width="48px" height="48px"
	 viewBox="0 0 48 48" style="enable-background:new 0 0 48 48;" xml:space="preserve">
<g id="icon-m-messaging-smiley-cry">
	<rect style="fill:none;" width="48" height="48"/>
	<circle style="fill:#FFCD0A;" cx="24" cy="24" r="23.5"/>
	<g>
		<path style="fill:#4798ED;" d="M10.594,27.753c-1.215,2.437-2.658,2.573-4.017,1.896c-1.356-0.676-2.115-1.912-0.9-4.348
			c1.215-2.438,6.254-6.385,6.254-6.385S11.81,25.316,10.594,27.753z"/>
		<path style="fill:#4798ED;" d="M37.406,27.753c1.215,2.437,2.658,2.573,4.016,1.896c1.357-0.676,2.115-1.912,0.9-4.348
			c-1.215-2.438-6.254-6.385-6.254-6.385S36.189,25.316,37.406,27.753z"/>
	</g>
	<g>
		<path style="fill:#040505;" d="M29.871,12.082 M29.871,10.748c-0.867,0-1.741,0.272-2.485,0.836
			c-1.818,1.378-2.175,3.965-0.799,5.781C27.397,18.436,28.632,19,29.879,19c0.867,0,1.741-0.272,2.485-0.835
			c1.816-1.378,2.175-3.964,0.8-5.78C32.352,11.312,31.118,10.748,29.871,10.748L29.871,10.748z"/>
		<path style="fill:#040505;" d="M18.122,10.748c-0.867,0-1.741,0.272-2.485,0.836c-1.818,1.378-2.175,3.965-0.799,5.781
			C15.648,18.436,16.882,19,18.129,19c0.867,0,1.741-0.272,2.485-0.835c1.816-1.378,2.175-3.964,0.8-5.78
			C20.602,11.312,19.369,10.748,18.122,10.748L18.122,10.748z"/>
		<path style="fill:#FFFFFF;" d="M18.122,12.873c0.634,0,1.216,0.29,1.599,0.793c0.664,0.88,0.49,2.138-0.387,2.805
			c-0.352,0.264-0.768,0.404-1.206,0.404c-0.633,0-1.216-0.289-1.598-0.793c-0.323-0.426-0.46-0.952-0.387-1.48
			c0.073-0.531,0.348-1,0.775-1.322C17.268,13.014,17.685,12.873,18.122,12.873"/>
		<path style="fill:#4798ED;" d="M14.167,16c0.136,0.639,0.352,1.258,0.671,1.818C15.648,19.248,16.882,20,18.129,20
			c0.867,0,1.741-0.363,2.485-1.113c0.743-0.752,1.227-1.776,1.463-2.887H14.167z"/>
		<path style="fill:#FFFFFF;" d="M29.912,12.873c0.633,0,1.216,0.29,1.599,0.793c0.665,0.88,0.489,2.138-0.388,2.805
			c-0.351,0.264-0.766,0.404-1.205,0.404c-0.633,0-1.215-0.289-1.598-0.793c-0.322-0.426-0.46-0.952-0.387-1.48
			c0.072-0.531,0.348-1,0.774-1.322C29.059,13.014,29.475,12.873,29.912,12.873"/>
		<path style="fill:#4798ED;" d="M25.919,16c0.136,0.639,0.353,1.258,0.671,1.818C27.4,19.248,28.635,20,29.882,20
			c0.867,0,1.741-0.363,2.485-1.113c0.742-0.752,1.227-1.776,1.463-2.887H25.919z"/>
	</g>
	<path style="fill:#040505;" d="M24,32.814c5.857,0,10.729,3.096,11.781,7.186C35.921,39.463,36,38.908,36,38.342
		c0-4.883-5.372-8.842-12-8.842c-6.627,0-12,3.959-12,8.842c0,0.566,0.08,1.121,0.219,1.658C13.272,35.91,18.144,32.814,24,32.814z"
		/>
	<path style="fill:#333333;" d="M25.859,31.947"/>
</g>
</svg>
