<?xml version="1.0" encoding="iso-8859-1"?>
<!-- Generator: Adobe Illustrator 14.0.0, SVG Export Plug-In . SVG Version: 6.00 Build 43363)  -->
<!DOCTYPE svg PUBLIC "-//W3C//DTD SVG 1.1//EN" "http://www.w3.org/Graphics/SVG/1.1/DTD/svg11.dtd">
<svg version="1.1" id="icon-m-toolbar-locked-layer"
	 xmlns="http://www.w3.org/2000/svg" xmlns:xlink="http://www.w3.org/1999/xlink" x="0px" y="0px" width="32px" height="32px"
	 viewBox="0 0 32 32" style="enable-background:new 0 0 32 32;" xml:space="preserve">
<g id="icon-m-toolbar-locked_1_">
	<rect style="fill:none;" width="32" height="32"/>
	<path style="fill:#FFFFFF;" d="M25.25,13.512h-1.246C24.003,11.978,24,10.225,24,10.177c0-4.379-3.58-7.926-8-7.927
		c-4.419,0.001-7.999,3.548-8,7.927c0,0.048-0.002,1.788-0.003,3.335H6.75c-0.637,0-1.158,0.504-1.158,1.121v13.992
		c0,0.617,0.521,1.125,1.158,1.125h18.5c0.636,0,1.157-0.504,1.157-1.125V14.633C26.406,14.016,25.886,13.512,25.25,13.512z
		 M10.446,10.177C10.451,7.139,12.933,4.678,16,4.674c3.067,0.004,5.55,2.465,5.555,5.503c0,0.048,0.002,1.801,0.004,3.335H10.452
		C10.449,11.965,10.446,10.225,10.446,10.177z M17.59,21.484v5.126h-3.069v-5.06c-0.852-0.506-1.424-1.434-1.424-2.496
		c0-1.604,1.3-2.903,2.904-2.903c1.603,0,2.904,1.3,2.904,2.903C18.904,20.072,18.381,20.966,17.59,21.484z"/>
</g>
</svg>
