<?xml version="1.0" encoding="iso-8859-1"?>
<!-- Generator: Adobe Illustrator 14.0.0, SVG Export Plug-In . SVG Version: 6.00 Build 43363)  -->
<!DOCTYPE svg PUBLIC "-//W3C//DTD SVG 1.1//EN" "http://www.w3.org/Graphics/SVG/1.1/DTD/svg11.dtd">
<svg version="1.1" id="Icon-m-toolbar-trim-layer" xmlns="http://www.w3.org/2000/svg" xmlns:xlink="http://www.w3.org/1999/xlink"
	 x="0px" y="0px" width="32px" height="32px" viewBox="0 0 32 32" style="enable-background:new 0 0 32 32;" xml:space="preserve">
<g id="Icon-m-toolbar-trim">
	<rect style="fill:none;" width="32" height="32"/>
	<path style="fill:#FFFFFF;" d="M27.244,0.467l-9.713,13.078c0,0-0.035-0.014-0.098-0.033c-0.514-0.19-1.019-0.199-1.429-0.146
		c-0.301,0.03-0.62,0.106-0.936,0.253L4.309,1.346c0,0-2.092,3.041-0.426,4.805c2.422,2.566,6.901,7.708,10.358,11.72l-1.802,2.39
		c-2.086-0.693-4.467-0.042-5.854,1.812c-1.735,2.317-1.26,5.614,1.057,7.349c2.317,1.736,5.613,1.26,7.348-1.057
		c1.343-1.795,1.348-4.17,0.212-5.958c0.37-0.483,0.845-1.104,1.383-1.81c0.555,0.648,1.045,1.223,1.43,1.672
		c-1.015,1.877-0.836,4.259,0.646,5.956c1.91,2.179,5.232,2.401,7.408,0.493c2.182-1.906,2.4-5.23,0.494-7.41
		c-1.525-1.741-3.945-2.208-5.973-1.361l-1.879-2.145c3.273-4.311,7.467-9.888,9.324-12.577C29.727,2.774,27.244,0.467,27.244,0.467
		z M13.36,27.143c-1.063,1.42-3.08,1.71-4.498,0.649c-1.418-1.062-1.709-3.08-0.647-4.5c1.06-1.418,3.077-1.709,4.498-0.646
		C14.131,23.706,14.42,25.725,13.36,27.143z M20.496,22.348c1.334-1.168,3.367-1.032,4.533,0.304
		c1.166,1.332,1.031,3.367-0.303,4.532c-1.332,1.169-3.365,1.034-4.533-0.302C19.027,25.552,19.164,23.517,20.496,22.348z"/>
</g>
</svg>
