<?xml version="1.0" encoding="iso-8859-1"?>
<!-- Generator: Adobe Illustrator 14.0.0, SVG Export Plug-In . SVG Version: 6.00 Build 43363)  -->
<!DOCTYPE svg PUBLIC "-//W3C//DTD SVG 1.1//EN" "http://www.w3.org/Graphics/SVG/1.1/DTD/svg11.dtd">
<svg version="1.1" id="icon-m-email-directory-send-layer"
	 xmlns="http://www.w3.org/2000/svg" xmlns:xlink="http://www.w3.org/1999/xlink" x="0px" y="0px" width="48px" height="48px"
	 viewBox="0 0 48 48" style="enable-background:new 0 0 48 48;" xml:space="preserve">
<g id="icon-m-email-directory-send">
	<rect style="fill:none;" width="48" height="48"/>
	<path style="fill:#333333;" d="M26.977,3.824c0-0.825-0.675-1.5-1.5-1.5H1.515c-0.825,0-1.5,0.675-1.5,1.5l0,5.502h26.962V3.824z"
		/>
	<path style="fill:#333333;" d="M28.222,26.225c-0.749,1.025-1.129,2.432-1.129,4.18c0,1.08,0.136,1.881,0.405,2.381
		c0.24,0.453,0.658,0.672,1.281,0.672c1.178,0,1.973-1.586,2.361-4.717l0.516-4.024h-0.784
		C29.853,24.716,28.961,25.223,28.222,26.225z"/>
	<path style="fill:#333333;" d="M46.5,12.438H0.015l-0.002,31.74c0,0.826,0.674,1.5,1.5,1.5H46.5c0.824,0,1.5-0.674,1.5-1.5v-30.24
		C48,13.111,47.324,12.438,46.5,12.438z M14.5,37.055H7.693c-1.125,0-2.039-0.779-2.039-1.738c0-0.957,0.915-1.736,2.039-1.736H14.5
		V37.055z M14.5,31.09H7.693c-1.125,0-2.039-0.781-2.039-1.738s0.915-1.736,2.039-1.736H14.5V31.09z M14.5,25.123H7.693
		c-1.125,0-2.039-0.78-2.039-1.738c0-0.957,0.915-1.736,2.039-1.736H14.5V25.123z M40.623,34.152
		c-1.156,1.396-2.771,2.105-4.795,2.105c-0.969,0-1.815-0.27-2.518-0.803c-0.586-0.42-1.027-0.984-1.315-1.682
		c-1.094,1.65-2.542,2.484-4.313,2.484c-1.303,0-2.425-0.523-3.333-1.555c-0.897-1.039-1.352-2.436-1.352-4.152
		c0-2.67,0.778-4.801,2.314-6.338c1.543-1.533,3.618-2.31,6.17-2.31h4.705l-0.055,0.295c-0.708,3.874-1.067,6.802-1.067,8.7
		c0,1.371,0.189,1.928,0.349,2.152c0.215,0.289,0.599,0.439,1.135,0.439c0.714,0,1.27-0.41,1.697-1.254
		c0.439-0.869,0.662-2.145,0.662-3.791c0-2.881-0.75-5.141-2.227-6.719c-1.479-1.572-3.606-2.369-6.322-2.369
		c-2.863,0-5.225,0.846-7.02,2.513c-1.802,1.647-2.715,3.981-2.715,6.933c0,3.311,0.838,5.814,2.491,7.445
		c1.655,1.645,4.186,2.479,7.521,2.479c2.005,0,4.121-0.367,6.292-1.092l0.329-0.111v3.078l-0.164,0.063
		c-0.814,0.299-1.896,0.559-3.213,0.771c-1.364,0.215-2.508,0.318-3.498,0.318c-4.079,0-7.366-1.117-9.771-3.316
		c-2.416-2.207-3.642-5.398-3.642-9.488c0-2.557,0.572-4.813,1.699-6.701c1.119-1.885,2.734-3.354,4.801-4.369
		c2.042-1.007,4.337-1.518,6.823-1.518c3.795,0,6.788,1.068,8.896,3.176c2.105,2.102,3.172,5.055,3.172,8.777
		C42.357,30.828,41.774,32.793,40.623,34.152z"/>
</g>
</svg>
