<?xml version="1.0" encoding="iso-8859-1"?>
<!-- Generator: Adobe Illustrator 14.0.0, SVG Export Plug-In . SVG Version: 6.00 Build 43363)  -->
<!DOCTYPE svg PUBLIC "-//W3C//DTD SVG 1.1//EN" "http://www.w3.org/Graphics/SVG/1.1/DTD/svg11.dtd">
<svg version="1.1" id="icon-m-transfer-sync-layer" xmlns="http://www.w3.org/2000/svg" xmlns:xlink="http://www.w3.org/1999/xlink"
	 x="0px" y="0px" width="48px" height="48px" viewBox="0 0 48 48" style="enable-background:new 0 0 48 48;" xml:space="preserve">
<g id="icon-m-transfer-sync">
	<rect style="fill:none;" width="48" height="48"/>
	<path style="fill:#333333;" d="M33.371,21.24l-1.961-9.751l-2.802,3.694c-0.671-0.505-5.371-4.045-5.405-4.066
		c-1.6-1.126-3.604-1.494-5.498-1.008c-3.562,0.915-5.718,4.557-4.804,8.12l1.152,4.491l3.865-0.292l-1.322-5.148
		c-0.389-1.523,0.53-3.083,2.057-3.475c0.806-0.206,1.663-0.049,2.359,0.436l5.334,3.926l-2.892,3.813L33.371,21.24z"/>
	<path style="fill:#333333;" d="M14.629,26.76l1.96,9.751l2.801-3.694c0.672,0.505,5.373,4.045,5.406,4.066
		c1.6,1.126,3.604,1.495,5.498,1.008c3.562-0.915,5.717-4.556,4.804-8.12l-1.152-4.491l-3.866,0.292l1.323,5.148
		c0.39,1.523-0.53,3.082-2.057,3.475c-0.807,0.206-1.664,0.05-2.359-0.436l-5.335-3.925l2.892-3.814L14.629,26.76z"/>
	<path style="fill:#333333;" d="M24,0.75C11.18,0.75,0.75,11.18,0.75,24S11.18,47.25,24,47.25c12.82,0,23.25-10.43,23.25-23.25
		S36.82,0.75,24,0.75z M24,43.264C13.378,43.264,4.735,34.621,4.735,24C4.735,13.377,13.378,4.736,24,4.736S43.264,13.377,43.264,24
		C43.264,34.621,34.622,43.264,24,43.264z"/>
</g>
</svg>
