<?xml version="1.0" encoding="iso-8859-1"?>
<!-- Generator: Adobe Illustrator 14.0.0, SVG Export Plug-In . SVG Version: 6.00 Build 43363)  -->
<!DOCTYPE svg PUBLIC "-//W3C//DTD SVG 1.1//EN" "http://www.w3.org/Graphics/SVG/1.1/DTD/svg11.dtd">
<svg version="1.1" id="icon-s-common-jabber-layer" xmlns="http://www.w3.org/2000/svg" xmlns:xlink="http://www.w3.org/1999/xlink"
	 x="0px" y="0px" width="13px" height="18px" viewBox="0 0 13 18" style="enable-background:new 0 0 13 18;" xml:space="preserve">
<g id="icon-s-common-jabber">
	<rect style="fill:none;" width="13" height="18"/>
	<path style="fill:#FFFFFF;" d="M12.548,6.96C11.878,4.076,10.39,0.218,5.206,0h-1.04C3.34,0.035,2.307,0.281,1.401,0.66
		L1.295,0.704C0.859,0.883,0.364,1.085,0.459,1.852v1.094l0.003,0.03c0.032,0.146,0.131,0.599,0.474,0.599
		c0.304,0,0.602-0.383,0.891-0.752c0.118-0.15,0.229-0.292,0.311-0.364c0.531-0.472,1.617-0.74,2.979-0.74
		c0.596,0,1.206,0.054,1.716,0.152c1.331,0.258,2.485,0.928,3.164,1.838c0.702,0.938,1.331,2.569,1.155,4.097
		c-0.166,1.438-1.351,2.506-2.487,3.36c-1.125,0.849-2.215,1.86-2.092,4.076l0.003,0.061c0.022,0.452,0.075,1.515,0.649,1.515
		c0.083,0,0.17-0.023,0.26-0.071c0.316-0.17,0.235-0.666,0.146-1.19c-0.038-0.229-0.076-0.465-0.073-0.643
		c0.024-1.475,1.004-2.127,2.043-2.817c0.438-0.29,0.89-0.593,1.254-0.956c0.912-0.912,1.418-1.859,1.691-3.172l0.003-0.974
		L12.548,6.96z"/>
	<path style="fill:#FFFFFF;" d="M4.936,10.828c-0.105,0.209-0.186,0.504-0.09,0.71c0.047,0.103,0.13,0.169,0.239,0.196
		c0.032,0.007,0.064,0.012,0.097,0.012c0.307,0,0.503-0.336,0.66-0.604c0.046-0.076,0.085-0.146,0.124-0.199
		c0.086-0.112,0.165-0.211,0.237-0.301c0.154-0.188,0.287-0.353,0.397-0.578c0.309-0.627,0.436-1.799-0.066-2.205
		c-0.14-0.113-0.297-0.173-0.466-0.173c-0.492,0-0.938,0.485-1.205,0.774l-0.03,0.033C4.832,8.478,4.83,8.459,4.829,8.444
		C4.821,8.327,4.813,8.206,4.771,8.113c-0.197-0.42-0.683-0.68-1.2-0.64C3.071,7.516,2.476,7.818,2.468,9.028
		c0,0.014,0.012,1.304,0.41,1.706c0.151,0.151,0.354,0.166,0.545,0.033c0.25-0.172,0.203-0.634,0.144-1.219
		c-0.049-0.48-0.11-1.079,0.075-1.283c0.061-0.068,0.149-0.09,0.275-0.074c0.173,0.022,0.203,0.384,0.23,0.7
		C4.181,9.276,4.211,9.641,4.5,9.697l0.035,0.002c0.119,0,0.262-0.115,0.537-0.362c0.065-0.06,0.122-0.109,0.159-0.138l0.032-0.025
		C5.427,9.05,5.701,8.842,5.855,8.842c0.025,0,0.076,0,0.1,0.15c0.054,0.34-0.318,0.84-0.619,1.242
		C5.174,10.449,5.023,10.652,4.936,10.828z"/>
	<path style="fill:#FFFFFF;" d="M1.488,11.67c-0.312,0.059-0.429,0.236-0.474,0.375c-0.142,0.434,0.249,1.03,0.398,1.186
		c0.695,0.729,2.018,1.254,3.144,1.254c0.138,0,1.36-0.012,1.711-0.474c0.091-0.12,0.116-0.263,0.075-0.411
		c-0.026-0.097-0.125-0.259-0.47-0.259c-0.104,0-0.226,0.015-0.346,0.044c-1.013,0.246-1.914,0.067-2.533-0.499
		c-0.096-0.087-0.202-0.237-0.314-0.394C2.389,12.086,2.015,11.57,1.488,11.67z"/>
	<path style="fill:#FFFFFF;" d="M0.637,13.908c-0.072,0.209,0.087,0.435,0.27,0.646c0.824,0.955,2.419,1.68,3.878,1.762
		c0.089,0.004,0.192,0.008,0.301,0.008c0.688,0,1.104-0.104,1.239-0.307c0.127-0.188,0.104-0.444,0.039-0.621
		c-0.068-0.188-0.187-0.314-0.322-0.355c-0.121-0.034-0.319,0.006-0.492,0.043c-0.078,0.02-0.152,0.036-0.207,0.04
		c-1.185,0.084-1.997-0.238-2.557-0.519c-0.16-0.08-0.338-0.226-0.527-0.381c-0.396-0.322-0.813-0.66-1.244-0.576
		C0.81,13.688,0.683,13.775,0.637,13.908z"/>
	<path style="fill:#FFFFFF;" d="M6.408,16.748c-0.216,0-0.562,0.097-0.896,0.189c-0.235,0.065-0.479,0.136-0.584,0.136
		c-0.779,0-2.229-0.479-2.673-0.88c-0.035-0.032-0.095-0.125-0.151-0.213C1.926,15.7,1.683,15.318,1.288,15.3
		c-0.344,0-0.614,0.322-0.649,0.624c-0.066,0.557,0.397,1.051,1.382,1.475c0.643,0.275,1.389,0.49,2.123,0.602h0.991l0.018-0.004
		c0.063-0.016,0.128-0.03,0.196-0.044c0.197-0.042,0.422-0.089,0.657-0.202c0.26-0.124,0.847-0.457,0.689-0.855
		C6.654,16.797,6.561,16.748,6.408,16.748z"/>
</g>
</svg>
