<?xml version="1.0" encoding="iso-8859-1"?>
<!-- Generator: Adobe Illustrator 14.0.0, SVG Export Plug-In . SVG Version: 6.00 Build 43363)  -->
<!DOCTYPE svg PUBLIC "-//W3C//DTD SVG 1.1//EN" "http://www.w3.org/Graphics/SVG/1.1/DTD/svg11.dtd">
<svg version="1.1" id="icon-m-toolbar-mediacontrol-previous-layer"
	 xmlns="http://www.w3.org/2000/svg" xmlns:xlink="http://www.w3.org/1999/xlink" x="0px" y="0px" width="32px" height="32px"
	 viewBox="0 0 32 32" style="enable-background:new 0 0 32 32;" xml:space="preserve">
<g id="icon-m-toolbar-mediacontrol-previous_1_">
	<rect style="fill:none;" width="32" height="32"/>
	<g>
		<path style="fill:#FFFFFF;" d="M6.028,31c1.1,0,2-0.9,2-2v-8.852c0-1.1,0.782-1.554,1.737-1.008l19.03,10.867
			C29.75,30.554,30.531,30.1,30.531,29V3c0-1.1-0.781-1.554-1.736-1.008L9.765,12.857c-0.955,0.546-1.737,0.092-1.737-1.008V3
			c0-1.1-0.9-2-2-2h-2.56c-1.1,0-2,0.9-2,2v26c0,1.1,0.9,2,2,2H6.028z"/>
	</g>
</g>
</svg>
