<?xml version="1.0" encoding="iso-8859-1"?>
<!-- Generator: Adobe Illustrator 14.0.0, SVG Export Plug-In . SVG Version: 6.00 Build 43363)  -->
<!DOCTYPE svg PUBLIC "-//W3C//DTD SVG 1.1//EN" "http://www.w3.org/Graphics/SVG/1.1/DTD/svg11.dtd">
<svg version="1.1" id="icon-s-status-gtalk-layer" xmlns="http://www.w3.org/2000/svg" xmlns:xlink="http://www.w3.org/1999/xlink"
	 x="0px" y="0px" width="21px" height="18px" viewBox="0 0 21 18" style="enable-background:new 0 0 21 18;" xml:space="preserve">
<g id="icon-s-status-gtalk">
	<rect style="fill:none;" width="21" height="18"/>
	<path style="fill:#999999;" d="M20.764,8.956c0.045-0.173,0.078-0.347,0.107-0.521c0.01-0.063,0.024-0.125,0.033-0.189
		c0.029-0.232,0.048-0.466,0.048-0.703c0-0.521-0.073-1.029-0.212-1.521C19.768,2.585,15.551,0,10.5,0l0,0l0,0
		C5.449,0,1.235,2.585,0.263,6.021c-0.141,0.489-0.214,1-0.214,1.521c0,0.237,0.021,0.472,0.05,0.703
		c0.008,0.065,0.021,0.126,0.03,0.19c0.029,0.176,0.063,0.35,0.109,0.521C0.251,9.003,0.268,9.05,0.28,9.098
		c0.789,2.711,3.587,4.887,7.227,5.67C7.312,15.729,6.819,17.161,5.593,18c0,0,4.604-0.271,5.892-2.857l2.012-0.375
		c3.639-0.783,6.438-2.959,7.229-5.67C20.734,9.051,20.748,9.003,20.764,8.956z"/>
</g>
</svg>
