<?xml version="1.0" encoding="iso-8859-1"?>
<!-- Generator: Adobe Illustrator 14.0.0, SVG Export Plug-In . SVG Version: 6.00 Build 43363)  -->
<!DOCTYPE svg PUBLIC "-//W3C//DTD SVG 1.1//EN" "http://www.w3.org/Graphics/SVG/1.1/DTD/svg11.dtd">
<svg version="1.1" id="icon-m-music-video-now-playing3-layer"
	 xmlns="http://www.w3.org/2000/svg" xmlns:xlink="http://www.w3.org/1999/xlink" x="0px" y="0px" width="48px" height="48px"
	 viewBox="0 0 48 48" style="enable-background:new 0 0 48 48;" xml:space="preserve">
<g id="icon-m-music-video-now-playing3">
	<polygon style="fill:none;" points="48,48 0,47.907 0,0 48,0 	"/>
	<g>
		<path style="fill:#333333;" d="M17.415,16.258c0-1.1,0.782-1.554,1.737-1.009l13.527,7.723c0.956,0.545,0.956,1.438,0,1.982
			l-13.527,7.725c-0.955,0.545-1.737,0.091-1.737-1.009V16.258z"/>
	</g>
	<path style="fill:#333333;" d="M24,43.094C34.546,43.096,43.094,34.547,43.094,24c0-10.544-8.549-19.093-19.093-19.094
		C13.456,4.907,4.908,13.455,4.908,24.001c0,1.854,0.269,3.647,0.762,5.343l3.135,0.002C8.215,27.672,7.89,25.873,7.89,24
		c0-8.883,7.226-16.109,16.109-16.109c8.882,0,16.11,7.228,16.11,16.109c0,8.883-7.229,16.111-16.11,16.111
		c-4.105,0-7.851-1.549-10.698-4.088l3.097-3.098l-8.353-0.002v8.355l3.139-3.139C14.572,41.215,19.064,43.096,24,43.094z"/>
</g>
</svg>
