<?xml version="1.0" encoding="iso-8859-1"?>
<!-- Generator: Adobe Illustrator 14.0.0, SVG Export Plug-In . SVG Version: 6.00 Build 43363)  -->
<!DOCTYPE svg PUBLIC "-//W3C//DTD SVG 1.1//EN" "http://www.w3.org/Graphics/SVG/1.1/DTD/svg11.dtd">
<svg version="1.1" id="icon-m-telephony-pause-layer"
	 xmlns="http://www.w3.org/2000/svg" xmlns:xlink="http://www.w3.org/1999/xlink" x="0px" y="0px" width="48px" height="48px"
	 viewBox="0 0 48 48" style="enable-background:new 0 0 48 48;" xml:space="preserve">
<g id="icon-m-telephony-pause">
	<rect style="fill:none;" width="48" height="48"/>
	<g>
		<path style="fill:#333333;" d="M17.525,46c0,1.1-0.901,2-2,2H3.601c-1.101,0-2-0.9-2-2V2c0-1.1,0.899-2,2-2h11.926
			c1.099,0,2,0.9,2,2L17.525,46L17.525,46z"/>
	</g>
	<g>
		<path style="fill:#333333;" d="M46.4,46c0,1.1-0.9,2-2,2H32.476c-1.101,0-2-0.9-2-2V2c0-1.1,0.899-2,2-2H44.4c1.1,0,2,0.9,2,2V46z
			"/>
	</g>
</g>
</svg>
