<?xml version="1.0" encoding="iso-8859-1"?>
<!-- Generator: Adobe Illustrator 14.0.0, SVG Export Plug-In . SVG Version: 6.00 Build 43363)  -->
<!DOCTYPE svg PUBLIC "-//W3C//DTD SVG 1.1//EN" "http://www.w3.org/Graphics/SVG/1.1/DTD/svg11.dtd">
<svg version="1.1" id="icon-m-camera-pause-layer" xmlns="http://www.w3.org/2000/svg" xmlns:xlink="http://www.w3.org/1999/xlink"
	 x="0px" y="0px" width="48px" height="48px" viewBox="0 0 48 48" style="enable-background:new 0 0 48 48;" xml:space="preserve">
<g id="icon-m-camera-pause">
	<rect style="fill:none;" width="48" height="48"/>
	<path style="fill:#FFFFFF;" d="M24,5.55c10.173,0,18.449,8.277,18.449,18.45S34.173,42.45,24,42.45
		C13.826,42.45,5.549,34.173,5.549,24S13.826,5.55,24,5.55 M24,0.75C11.181,0.75,0.75,11.18,0.75,24S11.181,47.25,24,47.25
		c12.821,0,23.25-10.43,23.25-23.25S36.821,0.75,24,0.75L24,0.75z"/>
	<g>
		<g>
			<path style="fill:#FFFFFF;" d="M21.9,32.5c0,1.1-0.9,2-2,2h-3.875c-1.1,0-2-0.9-2-2v-17c0-1.1,0.9-2,2-2H19.9c1.1,0,2,0.9,2,2
				V32.5z"/>
		</g>
		<g>
			<path style="fill:#FFFFFF;" d="M33.974,32.5c0,1.1-0.9,2-2,2H28.1c-1.1,0-2-0.9-2-2v-17c0-1.1,0.9-2,2-2h3.874c1.1,0,2,0.9,2,2
				V32.5z"/>
		</g>
	</g>
</g>
</svg>
