<?xml version="1.0" encoding="iso-8859-1"?>
<!-- Generator: Adobe Illustrator 14.0.0, SVG Export Plug-In . SVG Version: 6.00 Build 43363)  -->
<!DOCTYPE svg PUBLIC "-//W3C//DTD SVG 1.1//EN" "http://www.w3.org/Graphics/SVG/1.1/DTD/svg11.dtd">
<svg version="1.1" id="icon-m-common-metadata-edit-layer"
	 xmlns="http://www.w3.org/2000/svg" xmlns:xlink="http://www.w3.org/1999/xlink" x="0px" y="0px" width="48px" height="49px"
	 viewBox="0 0 48 49" style="enable-background:new 0 0 48 49;" xml:space="preserve">
<g id="icon-m-common-metadata-edit_1_">
	<rect style="fill:none;" width="48" height="48"/>
	<path style="fill:#333333;" d="M26.5,38.559c0,0.982,0.448,0.982,0.688,0.982c0.504,0,1.08-0.172,1.08-1.494v-0.924h-0.119
		C26.687,37.123,26.5,37.891,26.5,38.559z"/>
	<path style="fill:#333333;" d="M32.399,25.088c-0.647,0.451-1.369,0.842-2.046,1.068l-8.597,2.867
		c-0.536,0.18-1.093,0.271-1.648,0.271h0c-0.045,0-0.088-0.006-0.132-0.006v3.484l-5.69,2.043l5.69,2.041v3.852L9.54,36.436v-3.24
		l9.755-3.977c-1.236-0.209-2.356-0.883-3.093-1.9c-0.483-0.668-0.773-1.432-0.873-2.23H8.92v-3.137h6.932l1.203-3.609H8.92v-3.137
		h9.18l0.326-0.979c0.367-1.08,1.105-2.274,1.89-3.063l2.744-2.75H5.397c-0.691,0-1.255,0.565-1.255,1.255v36.383
		c0,0.689,0.564,1.256,1.255,1.256h31.365c0.688,0,1.278-0.566,1.278-1.256l-0.009-26.41l-4.609,4.615
		c-0.041,0.041-0.095,0.08-0.138,0.121 M32.632,42.391h-2.97l-0.258-0.971c-0.845,0.764-1.838,1.109-3.136,1.109
		c-2.524,0-4.092-1.5-4.092-3.912c0-3.908,3.646-4.191,6.091-4.254v-0.271c0-0.82-0.234-1.236-1.511-1.236
		c-0.757,0-1.691,0.168-2.781,0.504l-0.781,0.238v-3.17l0.458-0.113c1.424-0.357,2.802-0.547,3.985-0.547
		c3.22,0,4.993,1.551,4.993,4.363V42.391z"/>
	<path style="fill:#333333;" d="M43.625,6.549l-5.607-5.622c-0.311-0.309-0.816-0.309-1.125,0L23.509,14.334
		c-0.307,0.308-0.673,0.9-0.813,1.316l-2.867,8.604c-0.136,0.414,0.09,0.641,0.504,0.502l8.594-2.867
		c0.411-0.139,1.003-0.504,1.313-0.813L43.625,7.674C43.935,7.364,43.935,6.859,43.625,6.549z M28.639,19.953l-3.428,1.146
		l-1.727-1.728l1.145-3.436l1.52-1.521l3.977,4.05L28.639,19.953z"/>
</g>
</svg>
