<?xml version="1.0" encoding="iso-8859-1"?>
<!-- Generator: Adobe Illustrator 14.0.0, SVG Export Plug-In . SVG Version: 6.00 Build 43363)  -->
<!DOCTYPE svg PUBLIC "-//W3C//DTD SVG 1.1//EN" "http://www.w3.org/Graphics/SVG/1.1/DTD/svg11.dtd">
<svg version="1.1" id="icon-m-messaging-smiley-happy-layer"
	 xmlns="http://www.w3.org/2000/svg" xmlns:xlink="http://www.w3.org/1999/xlink" x="0px" y="0px" width="48px" height="48px"
	 viewBox="0 0 48 48" style="enable-background:new 0 0 48 48;" xml:space="preserve">
<g id="icon-m-messaging-smiley-happy">
	<rect style="fill:none;" width="48" height="48"/>
	<circle style="fill:#333333;" cx="16.053" cy="15.486" r="3.75"/>
	<circle style="fill:#333333;" cx="31.947" cy="15.486" r="3.75"/>
	<path style="fill:#333333;" d="M24,33.063c-7.745,0-14.178-4.942-15.498-12.308c-0.163,0.907-0.252,1.839-0.252,2.794
		c0,8.697,7.051,14.437,15.75,14.437s15.75-5.739,15.75-14.437c0-0.955-0.09-1.887-0.252-2.794
		C38.179,28.12,31.744,33.063,24,33.063z"/>
	<path style="fill:#333333;" d="M24,3c11.58,0,21,9.42,21,21s-9.42,21-21,21C12.42,45,3,35.58,3,24S12.42,3,24,3 M24,0
		C10.745,0,0,10.745,0,24c0,13.256,10.745,24,24,24s24-10.744,24-24C48,10.745,37.255,0,24,0L24,0z"/>
</g>
</svg>
