<?xml version="1.0" encoding="iso-8859-1"?>
<!-- Generator: Adobe Illustrator 14.0.0, SVG Export Plug-In . SVG Version: 6.00 Build 43363)  -->
<!DOCTYPE svg PUBLIC "-//W3C//DTD SVG 1.1//EN" "http://www.w3.org/Graphics/SVG/1.1/DTD/svg11.dtd">
<svg version="1.1" id="Layer_1" xmlns="http://www.w3.org/2000/svg" xmlns:xlink="http://www.w3.org/1999/xlink" x="0px" y="0px"
	 width="48px" height="48px" viewBox="0 0 48 48" style="enable-background:new 0 0 48 48;" xml:space="preserve">
<rect style="fill:#3F3F3F;" width="48" height="48"/>
<g>
	<path style="fill:#747474;" d="M48,14.25c0,0-21.481-7.603-23.142-8.179c-1.661-0.576-4.78-0.753-6.104,1.069
		c0,0-12.769,15.322-13.97,16.824s0,3.755,1.051,4.957s4.205,4.208,5.558,6.911c0.666,1.33,1.955,1.383,4.983,0.917
		c3.905-0.601,13.952-1.703,14.997-1.819C33,34.75,33.75,35.5,33.475,36.584c-0.433,1.704-1.317,3.927-2.104,5.258
		c-0.684,1.158-1.447,1.56-3.605,1.201c-2.141-0.355-11.95-1.953-13.141-2.293c-1.75-0.5-2.879-0.028-3.625,1.25
		c-0.438,0.75-1,1.438-2.208,3.292C7.875,45.209,6.68,47.535,6.5,48C21.875,48,48,48,48,48V14.25z"/>
	<circle style="fill:#3C3C3C;" cx="33.926" cy="19.759" r="2.029"/>
	<circle style="fill:#3C3C3C;" cx="25.063" cy="17.205" r="1.878"/>
</g>
</svg>
