<?xml version="1.0" encoding="utf-8"?>
<!-- Generator: Adobe Illustrator 14.0.0, SVG Export Plug-In . SVG Version: 6.00 Build 43363)  -->
<!DOCTYPE svg PUBLIC "-//W3C//DTD SVG 1.1//EN" "http://www.w3.org/Graphics/SVG/1.1/DTD/svg11.dtd">
<svg version="1.1" id="level1" xmlns="http://www.w3.org/2000/svg" xmlns:xlink="http://www.w3.org/1999/xlink" x="0px" y="0px"
	 width="688px" height="264px" viewBox="0 0 688 264" enable-background="new 0 0 688 264" xml:space="preserve">
<g id="Widgets-Gallery-Button-Background">
	<g opacity="0.03">
		<g>
			<g>
				<path fill="#FFFFFF" d="M159.835,139.873c0,4.4,3.6,8,8,8h398c4.4,0,8-3.6,8-8v-72c0-4.4-3.6-8-8-8h-398c-4.4,0-8,3.6-8,8
					V139.873z"/>
			</g>
			<defs>
				<filter id="Adobe_OpacityMaskFilter" filterUnits="userSpaceOnUse" x="159.835" y="59.873" width="414" height="88">
					
						<feColorMatrix  type="matrix" values="-1 0 0 0 1  0 -1 0 0 1  0 0 -1 0 1  0 0 0 1 0" color-interpolation-filters="sRGB" result="source"/>
				</filter>
			</defs>
		</g>
	</g>
	<g opacity="0.15">
		<g>
			<g>
				<defs>
					<path id="SVGID_2_" d="M565.835,60.873c3.86,0,7,3.141,7,7v72c0,3.859-3.14,7-7,7h-398c-3.86,0-7-3.141-7-7v-72
						c0-3.859,3.14-7,7-7H565.835 M565.835,59.873h-398c-4.399,0-8,3.6-8,8v72c0,4.4,3.601,8,8,8h398c4.399,0,8-3.6,8-8v-72
						C573.835,63.473,570.234,59.873,565.835,59.873L565.835,59.873z"/>
				</defs>
				<clipPath id="SVGID_3_">
					<use xlink:href="#SVGID_2_"  overflow="visible"/>
				</clipPath>
				<linearGradient id="SVGID_4_" gradientUnits="userSpaceOnUse" x1="366.8354" y1="147.873" x2="366.8354" y2="59.8735">
					<stop  offset="0" style="stop-color:#FFFFFF"/>
					<stop  offset="0.0859" style="stop-color:#F7F7F7"/>
					<stop  offset="0.2181" style="stop-color:#E2E2E2"/>
					<stop  offset="0.3803" style="stop-color:#BEBEBE"/>
					<stop  offset="0.566" style="stop-color:#8D8D8D"/>
					<stop  offset="0.7717" style="stop-color:#4E4E4E"/>
					<stop  offset="0.9913" style="stop-color:#030303"/>
					<stop  offset="1" style="stop-color:#000000"/>
				</linearGradient>
				<path clip-path="url(#SVGID_3_)" fill="url(#SVGID_4_)" d="M159.835,67.873c0-4.4,3.601-8,8-8h398c4.399,0,8,3.6,8,8v72
					c0,4.4-3.601,8-8,8h-398c-4.399,0-8-3.6-8-8V67.873z"/>
			</g>
		</g>
	</g>
</g>
</svg>
