<?xml version="1.0" encoding="utf-8"?>
<!-- Generator: Adobe Illustrator 14.0.0, SVG Export Plug-In . SVG Version: 6.00 Build 43363)  -->
<!DOCTYPE svg PUBLIC "-//W3C//DTD SVG 1.1//EN" "http://www.w3.org/Graphics/SVG/1.1/DTD/svg11.dtd">
<svg version="1.1"
	 id="meego-dialer" sodipodi:docname="dialer.svg" inkscape:version="0.47pre4 r22446" sodipodi:version="0.32" xmlns:dc="http://purl.org/dc/elements/1.1/" xmlns:cc="http://creativecommons.org/ns#" xmlns:rdf="http://www.w3.org/1999/02/22-rdf-syntax-ns#" xmlns:sodipodi="http://sodipodi.sourceforge.net/DTD/sodipodi-0.dtd" xmlns:svg="http://www.w3.org/2000/svg" xmlns:inkscape="http://www.inkscape.org/namespaces/inkscape" inkscape:output_extension="org.inkscape.output.svg.inkscape"
	 xmlns="http://www.w3.org/2000/svg" xmlns:xlink="http://www.w3.org/1999/xlink" x="0px" y="0px" width="1380.863px"
	 height="932.594px" viewBox="0 0 1380.863 932.594" enable-background="new 0 0 1380.863 932.594" xml:space="preserve">
<symbol  id="Icon-bounder-box" viewBox="-25 -25 50 50">
	<polygon fill="none" points="25,-25 -25,-25 -25,25 25,25 	"/>
</symbol>
<polyline points="1,2 1383.646,2 1383.646,934.381 1,934.381 "/>
<g id="dialer">
	<rect x="1248.932" y="362.797" fill="none" stroke="#FF0000" width="122" height="550"/>
	<g id="keypad-section-background" transform="translate(0,140)">
		
			<linearGradient id="rect4356_1_" gradientUnits="userSpaceOnUse" x1="11.3608" y1="-666.3359" x2="281.3608" y2="-666.3359" gradientTransform="matrix(1 0 0 1 16 641.1875)">
			<stop  offset="0" style="stop-color:#292929"/>
			<stop  offset="1" style="stop-color:#212121"/>
		</linearGradient>
		<rect id="rect4356" x="27.361" y="-68.006" inkscape:label="#keypad-bg" fill="url(#rect4356_1_)" width="270" height="85.715">
		</rect>
		<path id="path4358" fill="none" stroke="#000000" stroke-width="2" stroke-linecap="square" d="M28.361,16.708
			c268.002,0,268.002,0,268.002,0"/>
	</g>
	
		<rect id="dialer-call-button-background" x="28.342" y="206.907" inkscape:label="#dialer-call-button-background" fill="#8AAF3D" stroke="#FFFFFF" stroke-width="0.9687" stroke-opacity="0.1" width="270" height="85.714">
	</rect>
	
		<rect id="dialer-call-button-background-pressed" x="28.342" y="345.479" inkscape:label="#dialer-call-button-background-pressed" fill="#A5C423" stroke="#FFFFFF" stroke-width="0.9687" stroke-opacity="0.1" width="270" height="85.718">
	</rect>
	
		<rect id="dialer-end-button-background" x="28.342" y="484.049" inkscape:label="#dialer-end-button-background" fill="#F44540" stroke="#FFFFFF" stroke-opacity="0.1" width="270" height="85.714">
	</rect>
	
		<rect id="dialer-end-button-background-pressed" x="28.342" y="622.621" inkscape:label="#dialer-end-button-background-pressed" fill="#F22020" stroke="#FFFFFF" stroke-opacity="0.1" width="270" height="85.714">
	</rect>
	<g id="icon-dialer-favorite-off">
		
			<use xlink:href="#Icon-bounder-box"  width="50" height="50" x="-25" y="-25" transform="matrix(1 0 0 -1 575.7031 118.6299)" overflow="visible"/>
		<polygon id="polygon7012" opacity="0.7" fill="#444444" enable-background="new    " points="589.204,138.226 585.561,123.059 
			593.373,113.725 580.077,112.391 574.704,99.284 571.079,112.059 556.576,114.059 566.372,123.059 562.883,135.133 
			575.717,127.778 		"/>
		<path id="path7014" opacity="0.6" enable-background="new    " d="M563.358,140.6c-0.408,0-0.813-0.127-1.158-0.373
			c-0.631-0.461-0.938-1.251-0.771-2.013l2.781-12.846l-9.801-8.754c-0.58-0.521-0.8-1.334-0.563-2.076
			c0.238-0.744,0.896-1.274,1.673-1.354l13.073-1.325l5.3-12.022c0.315-0.711,1.021-1.175,1.806-1.175
			c0.775,0,1.482,0.462,1.806,1.175l5.295,12.022l13.078,1.325c0.776,0.078,1.436,0.61,1.678,1.354
			c0.238,0.742,0.021,1.556-0.563,2.076l-9.805,8.754l2.779,12.846c0.166,0.764-0.135,1.552-0.77,2.013
			c-0.637,0.454-1.479,0.499-2.146,0.108l-11.354-6.615l-11.354,6.615C564.044,140.51,563.701,140.6,563.358,140.6L563.358,140.6z
			 M575.704,128.513c0.343,0,0.687,0.09,0.992,0.27l9.666,7.47l-4.42-11.524c-0.147-0.696,0.086-1.416,0.607-1.89l9.852-6.625
			l-11.896,0.25c-0.705-0.07-1.317-0.519-1.604-1.167l-3.194-11.289l-2.777,11.135c-0.279,0.646-0.896,1.094-1.6,1.165
			l-12.077,0.041l9.449,6.374c0.531,0.474,0.767,1.19,0.616,1.887l-4.173,11.503l9.564-7.33
			C575.021,128.602,575.362,128.513,575.704,128.513L575.704,128.513z"/>
		<path id="path7016" fill="#BEBEBE" d="M563.358,138.6c-0.408,0-0.813-0.127-1.158-0.373c-0.631-0.461-0.938-1.251-0.771-2.013
			l2.781-12.846l-9.801-8.754c-0.58-0.521-0.8-1.334-0.563-2.076c0.238-0.744,0.896-1.274,1.673-1.354l13.073-1.325l5.3-12.022
			c0.315-0.711,1.021-1.175,1.806-1.175c0.775,0,1.482,0.462,1.806,1.175l5.295,12.022l13.078,1.325
			c0.776,0.078,1.436,0.61,1.678,1.354c0.238,0.742,0.021,1.556-0.563,2.076l-9.805,8.754l2.779,12.846
			c0.166,0.764-0.135,1.552-0.77,2.013c-0.637,0.454-1.479,0.499-2.146,0.108l-11.354-6.615l-11.354,6.615
			C564.044,138.51,563.701,138.6,563.358,138.6L563.358,138.6z M575.704,126.513c0.343,0,0.686,0.09,0.992,0.27l9.666,7.47
			l-4.42-11.524c-0.147-0.696,0.086-1.416,0.607-1.89l9.852-6.625l-11.896,0.25c-0.705-0.07-1.317-0.519-1.604-1.167l-3.194-11.289
			l-2.777,11.135c-0.279,0.646-0.896,1.094-1.6,1.165l-12.077,0.041l9.449,6.374c0.531,0.474,0.767,1.19,0.616,1.887l-4.173,11.503
			l9.564-7.33C575.021,126.602,575.362,126.513,575.704,126.513L575.704,126.513z"/>
	</g>
	<g id="icon-dialer-favorite-on">
		
			<use xlink:href="#Icon-bounder-box"  width="50" height="50" x="-25" y="-25" transform="matrix(1 0 0 -1 719.9736 118.9639)" overflow="visible"/>
		<path id="path7093" opacity="0.6" enable-background="new    " d="M707.627,140.932c-0.408,0-0.813-0.126-1.158-0.372
			c-0.631-0.462-0.936-1.251-0.77-2.013l2.774-12.846l-9.799-8.754c-0.582-0.521-0.801-1.334-0.559-2.076
			c0.233-0.744,0.896-1.273,1.674-1.354l13.072-1.325l5.301-12.022c0.313-0.711,1.018-1.175,1.799-1.175s1.488,0.462,1.81,1.175
			l5.297,12.022l13.071,1.325c0.777,0.078,1.438,0.61,1.685,1.354c0.231,0.742,0.02,1.556-0.563,2.076l-9.799,8.754l2.777,12.846
			c0.166,0.764-0.138,1.551-0.771,2.013c-0.631,0.454-1.479,0.499-2.146,0.108l-11.355-6.615l-11.354,6.615
			C708.313,140.844,707.971,140.932,707.627,140.932L707.627,140.932z M719.973,128.847c0.347,0,0.688,0.09,0.992,0.27l9.666,7.47
			l-4.42-11.524c-0.146-0.696,0.086-1.416,0.613-1.89l9.846-6.625l-11.893,0.25c-0.705-0.07-1.32-0.519-1.605-1.167l-3.195-11.289
			l-2.771,11.135c-0.285,0.646-0.896,1.094-1.604,1.166l-12.072,0.04l9.444,6.374c0.531,0.474,0.771,1.19,0.617,1.887l-4.174,11.503
			l9.57-7.33C719.292,128.936,719.631,128.847,719.973,128.847L719.973,128.847z"/>
		<path id="path7095" fill="#FFFFFF" d="M707.627,138.932c-0.408,0-0.813-0.126-1.158-0.372c-0.631-0.462-0.936-1.251-0.77-2.013
			l2.774-12.846l-9.799-8.754c-0.582-0.521-0.801-1.334-0.559-2.076c0.233-0.744,0.896-1.273,1.674-1.354l13.072-1.325l5.301-12.022
			c0.313-0.711,1.018-1.175,1.799-1.175s1.488,0.462,1.81,1.175l5.297,12.022l13.071,1.325c0.777,0.078,1.438,0.61,1.685,1.354
			c0.231,0.742,0.02,1.556-0.563,2.076l-9.799,8.754l2.777,12.846c0.166,0.764-0.138,1.551-0.771,2.013
			c-0.631,0.454-1.479,0.499-2.146,0.108l-11.355-6.615l-11.354,6.615C708.313,138.844,707.971,138.932,707.627,138.932
			L707.627,138.932z M719.973,126.847c0.347,0,0.688,0.09,0.992,0.27l9.666,7.47l-4.42-11.524c-0.146-0.696,0.086-1.416,0.613-1.89
			l9.846-6.625l-11.893,0.25c-0.705-0.07-1.32-0.519-1.605-1.167l-3.195-11.289l-2.771,11.135c-0.285,0.646-0.896,1.094-1.604,1.166
			l-12.072,0.04l9.444,6.374c0.531,0.474,0.771,1.19,0.617,1.887l-4.174,11.503l9.57-7.33
			C719.292,126.936,719.631,126.847,719.973,126.847L719.973,126.847z"/>
	</g>
	<g id="icon-dialer-people-off">
		
			<use xlink:href="#Icon-bounder-box"  width="50" height="50" x="-25" y="-25" transform="matrix(1 0 0 -1 574.7031 212.9004)" overflow="visible"/>
		<polygon id="polygon8726" opacity="0.7" fill="#444444" enable-background="new    " points="569.326,207.879 573.334,208.857 
			574.558,208.857 574.558,199.291 580.146,193.141 588.695,200.269 590.251,210.395 591.86,215.939 596.193,219.263 
			594.951,226.592 589.679,231.811 569.271,227.771 567.635,218.606 561.169,218.893 552.604,217.529 553.245,208.857 
			557.953,205.825 558.296,195.494 563.072,191.298 567.747,197.521 569.326,204.798 		"/>
		<path id="path8728" opacity="0.6" enable-background="new    " d="M594.677,215.272c-1.271-1.367-2.813-2.358-4.438-2.896
			c0.732-2.18,1.097-4.897,1.097-8.22c-0.004-5.719-4.357-10.37-9.708-10.372c-5.343,0-9.698,4.652-9.708,10.375
			c0,1.582,0.112,3.069,0.329,4.446c-0.868-0.845-1.87-1.477-2.938-1.825c0.537-1.584,0.8-3.563,0.8-5.97
			c-0.005-4.149-3.166-7.529-7.053-7.531c-3.879,0-7.041,3.381-7.048,7.532c0,2.313,0.323,4.352,0.945,6.011
			c-3.047,1.063-5.4,4.283-5.397,7.826v3.516l0.051,0.363c0.189,0.722,1.654,4.315,11.588,4.315c0.957,0,1.826-0.036,2.633-0.099
			c-0.006,0.158-0.037,0.31-0.037,0.469v4.841l0.064,0.502c0.269,0.992,2.281,5.944,15.957,5.944
			c13.677,0,15.691-4.952,15.956-5.944l0.065-5.342C597.835,220.273,596.714,217.453,594.677,215.272z M579.339,215.369
			l-1.633-2.546c-1.252-1.955-1.912-4.949-1.912-8.661c0.007-3.58,2.62-6.497,5.828-6.497c3.21,0.001,5.824,2.917,5.828,6.494
			c0,3.937-0.563,6.86-1.667,8.692l-1.61,2.683c-0.701,0.282-1.491,0.427-2.362,0.427
			C580.901,215.962,580.078,215.752,579.339,215.369z M561.441,209.022l-1.229-1.919c-0.909-1.42-1.39-3.595-1.39-6.287
			c0.004-2.602,1.897-4.721,4.229-4.721c2.331,0.001,4.229,2.119,4.232,4.717c0,2.857-0.411,4.981-1.213,6.313l-1.106,1.848
			c-0.783,0.427-1.538,0.43-1.968,0.43C562.427,209.403,561.916,209.25,561.441,209.022z M566.305,219.875
			c-0.896,0.094-1.918,0.154-3.117,0.154c-6.858,0-8.531-1.796-8.813-2.162v-3.22c-0.003-3.035,2.467-5.344,4.678-5.375l0.121-0.003
			c1.002,1.08,2.286,1.682,3.83,1.682c1.688,0,3.016-0.584,4.019-1.688h0.272c1.104,0,2.27,0.563,3.187,1.545
			c0.616,0.661,1.037,1.447,1.284,2.285C569.224,214.473,567.207,216.957,566.305,219.875z M593.951,227.592
			c-0.489,0.663-2.896,3.026-12.146,3.026c-9.453,0-11.756-2.472-12.146-2.977v-4.432c-0.004-4.183,3.396-7.358,6.438-7.399
			l1.111-0.019c1.255,1.115,2.795,1.717,4.592,1.717c1.969,0,3.586-0.58,4.858-1.714h0.79c1.521,0,3.124,0.776,4.387,2.126
			c1.363,1.459,2.108,3.338,2.108,5.292v4.379L593.951,227.592L593.951,227.592z"/>
		<path id="path8730" fill="#BEBEBE" d="M594.694,213.291c-1.275-1.368-2.813-2.357-4.443-2.896
			c0.739-2.181,1.099-4.896,1.099-8.221c-0.004-5.718-4.354-10.37-9.708-10.372c-5.344,0-9.693,4.653-9.708,10.375
			c0,1.582,0.112,3.07,0.33,4.447c-0.869-0.844-1.87-1.477-2.937-1.826c0.536-1.584,0.796-3.559,0.796-5.968
			c-0.003-4.151-3.167-7.531-7.05-7.532c-3.879,0-7.041,3.381-7.048,7.534c0,2.313,0.318,4.352,0.941,6.009
			c-3.047,1.064-5.396,4.284-5.396,7.827v3.516l0.048,0.362c0.189,0.722,1.657,4.317,11.586,4.317c0.958,0,1.829-0.037,2.633-0.102
			c-0.007,0.158-0.037,0.313-0.037,0.471v4.841l0.066,0.503c0.267,0.992,2.284,5.943,15.957,5.943
			c13.674,0,15.689-4.951,15.958-5.943l0.063-5.342C597.854,218.292,596.731,215.47,594.694,213.291z M579.356,213.386l-1.637-2.545
			c-1.252-1.955-1.913-4.948-1.913-8.661c0.011-3.579,2.621-6.496,5.829-6.496c3.21,0.001,5.824,2.916,5.828,6.493
			c0,3.938-0.563,6.861-1.667,8.694l-1.607,2.681c-0.7,0.283-1.489,0.429-2.362,0.429
			C580.919,213.98,580.098,213.77,579.356,213.386z M561.459,207.041l-1.229-1.919c-0.908-1.419-1.394-3.593-1.394-6.286
			c0.004-2.603,1.902-4.72,4.229-4.72c2.33,0.001,4.229,2.119,4.229,4.717c0,2.856-0.411,4.981-1.213,6.313l-1.106,1.849
			c-0.778,0.425-1.533,0.427-1.968,0.427C562.444,207.419,561.935,207.269,561.459,207.041z M566.322,217.894
			c-0.899,0.095-1.919,0.151-3.117,0.151c-6.864,0-8.537-1.794-8.818-2.161v-3.218c-0.002-3.037,2.467-5.344,4.681-5.375
			l0.118-0.003c1.007,1.08,2.286,1.681,3.83,1.681c1.688,0,3.021-0.584,4.021-1.688h0.271c1.106,0,2.271,0.562,3.188,1.544
			c0.616,0.662,1.036,1.446,1.284,2.286C569.241,212.491,567.226,214.975,566.322,217.894z M593.971,225.611
			c-0.487,0.662-2.896,3.024-12.146,3.024c-9.452,0-11.756-2.471-12.146-2.976v-4.433c-0.004-4.185,3.396-7.358,6.439-7.399
			l1.112-0.02c1.255,1.114,2.795,1.719,4.592,1.719c1.968,0,3.587-0.581,4.854-1.715h0.79c1.521,0,3.124,0.774,4.392,2.126
			c1.357,1.458,2.104,3.339,2.104,5.292L593.971,225.611L593.971,225.611z"/>
	</g>
	<g id="icon-dialer-people-on">
		
			<use xlink:href="#Icon-bounder-box"  width="50" height="50" x="-25" y="-25" transform="matrix(1 0 0 -1 719.6396 212.2344)" overflow="visible"/>
		<path id="path8807" opacity="0.6" enable-background="new    " d="M739.614,214.605c-1.275-1.367-2.813-2.358-4.441-2.896
			c0.736-2.18,1.097-4.897,1.097-8.22c-0.005-5.719-4.354-10.37-9.704-10.372c-5.348,0-9.698,4.652-9.709,10.375
			c0,1.582,0.109,3.069,0.327,4.446c-0.865-0.845-1.867-1.477-2.938-1.825c0.537-1.584,0.797-3.561,0.797-5.97
			c-0.002-4.149-3.166-7.529-7.049-7.531c-3.879,0-7.041,3.381-7.049,7.532c0,2.313,0.32,4.352,0.94,6.011
			c-3.047,1.063-5.396,4.283-5.396,7.826v3.516l0.047,0.363c0.193,0.722,1.658,4.315,11.586,4.315c0.959,0,1.83-0.036,2.633-0.099
			c-0.006,0.158-0.037,0.31-0.037,0.469v4.841l0.066,0.502c0.268,0.992,2.285,5.944,15.959,5.944s15.691-4.952,15.957-5.944
			l0.063-5.342C742.771,219.606,741.651,216.786,739.614,214.605z M724.276,214.702l-1.638-2.546
			c-1.252-1.955-1.908-4.949-1.908-8.661c0.007-3.58,2.615-6.497,5.824-6.497c3.209,0.001,5.824,2.917,5.828,6.494
			c0,3.937-0.563,6.86-1.668,8.691l-1.604,2.684c-0.701,0.282-1.492,0.427-2.363,0.427
			C725.838,215.296,725.014,215.086,724.276,214.702z M706.377,208.355l-1.229-1.919c-0.909-1.421-1.395-3.595-1.395-6.287
			c0.004-2.602,1.902-4.721,4.23-4.721c2.33,0.001,4.229,2.119,4.229,4.717c0,2.857-0.412,4.981-1.213,6.313l-1.104,1.848
			c-0.782,0.427-1.536,0.43-1.971,0.43C707.364,208.736,706.852,208.584,706.377,208.355z M711.241,219.208
			c-0.898,0.094-1.918,0.154-3.117,0.154c-6.863,0-8.535-1.796-8.818-2.162v-3.22c-0.002-3.035,2.471-5.344,4.683-5.375l0.12-0.003
			c1.005,1.079,2.283,1.682,3.827,1.682c1.688,0,3.02-0.584,4.021-1.688h0.271c1.104,0,2.271,0.563,3.188,1.545
			c0.615,0.661,1.037,1.447,1.283,2.285C714.161,213.807,712.143,216.29,711.241,219.208L711.241,219.208z M738.887,226.926
			c-0.485,0.663-2.895,3.026-12.145,3.026c-9.453,0-11.756-2.472-12.146-2.977v-4.432c-0.004-4.183,3.396-7.358,6.441-7.399
			l1.104-0.019c1.261,1.115,2.802,1.717,4.599,1.717c1.969,0,3.586-0.58,4.854-1.714h0.791c1.521,0,3.123,0.776,4.388,2.126
			c1.362,1.459,2.106,3.338,2.106,5.292v4.379L738.887,226.926L738.887,226.926z"/>
		<path id="path8809" fill="#FFFFFF" d="M739.631,212.624c-1.271-1.368-2.813-2.358-4.438-2.896
			c0.733-2.181,1.098-4.896,1.098-8.221c-0.004-5.718-4.359-10.37-9.707-10.372c-5.344,0-9.699,4.653-9.709,10.375
			c0,1.582,0.113,3.07,0.33,4.447c-0.869-0.844-1.869-1.477-2.938-1.826c0.535-1.584,0.8-3.559,0.8-5.968
			c-0.007-4.151-3.166-7.531-7.054-7.532c-3.879,0-7.041,3.381-7.049,7.534c0,2.313,0.324,4.352,0.947,6.009
			c-3.047,1.064-5.402,4.284-5.398,7.827v3.516l0.047,0.362c0.193,0.722,1.658,4.317,11.591,4.317c0.959,0,1.825-0.037,2.633-0.102
			c-0.006,0.158-0.037,0.313-0.037,0.471v4.841l0.063,0.503c0.271,0.992,2.284,5.943,15.956,5.943
			c13.681,0,15.695-4.951,15.959-5.943l0.066-5.342C742.79,217.625,741.667,214.804,739.631,212.624z M724.292,212.72l-1.631-2.545
			c-1.252-1.955-1.912-4.948-1.912-8.661c0.006-3.579,2.621-6.496,5.828-6.496c3.211,0.001,5.824,2.916,5.828,6.493
			c0,3.938-0.563,6.861-1.666,8.694l-1.611,2.681c-0.701,0.283-1.49,0.429-2.363,0.429
			C725.856,213.313,725.034,213.104,724.292,212.72z M706.395,206.374l-1.229-1.919c-0.908-1.419-1.389-3.593-1.389-6.286
			c0.004-2.603,1.897-4.72,4.229-4.72c2.332,0.001,4.23,2.119,4.232,4.717c0,2.856-0.41,4.981-1.213,6.313l-1.105,1.849
			c-0.783,0.425-1.539,0.427-1.969,0.427C707.381,206.753,706.872,206.603,706.395,206.374z M711.258,217.228
			c-0.896,0.095-1.918,0.151-3.117,0.151c-6.858,0-8.537-1.794-8.813-2.161V212c-0.002-3.037,2.467-5.344,4.678-5.375l0.121-0.003
			c1.002,1.08,2.287,1.681,3.83,1.681c1.688,0,3.018-0.584,4.02-1.688h0.273c1.104,0,2.27,0.562,3.186,1.544
			c0.617,0.662,1.037,1.446,1.285,2.286C714.178,211.824,712.163,214.309,711.258,217.228z M738.907,224.944
			c-0.49,0.662-2.896,3.024-12.146,3.024c-9.451,0-11.756-2.471-12.145-2.976v-4.433c-0.004-4.185,3.396-7.358,6.438-7.399
			l1.113-0.021c1.254,1.115,2.795,1.72,4.592,1.72c1.967,0,3.586-0.581,4.859-1.715h0.789c1.521,0,3.125,0.774,4.387,2.126
			c1.363,1.458,2.109,3.339,2.109,5.292L738.907,224.944L738.907,224.944z"/>
	</g>
	<g id="icon-dialer-history-off">
		
			<use xlink:href="#Icon-bounder-box"  width="50" height="50" x="-25" y="-25" transform="matrix(1 0 0 -1 576.0371 308.5039)" overflow="visible"/>
		<polygon id="polygon8891" opacity="0.7" fill="#444444" enable-background="new    " points="557.664,295.881 569.612,286.598 
			575.549,285.435 591.422,293.719 597.075,307.503 592.893,318.813 578.758,330.461 562.91,324.051 554.662,308.503 		"/>
		<path id="path8893" opacity="0.6" enable-background="new    " d="M592.381,293.152c-4.369-4.365-10.179-6.771-16.354-6.771
			c-6.177,0-11.98,2.404-16.354,6.773c-8.989,9.02-8.989,23.688,0.002,32.697c4.368,4.366,10.178,6.771,16.354,6.771
			c6.175,0,11.979-2.405,16.354-6.771C601.391,316.838,601.391,302.165,592.381,293.152L592.381,293.152z M589.407,322.883
			c-3.574,3.571-8.328,5.541-13.38,5.541c-5.057,0-9.81-1.97-13.373-5.539c-7.359-7.377-7.359-19.381-0.004-26.761
			c3.567-3.569,8.32-5.538,13.377-5.538c5.054,0,9.806,1.969,13.38,5.538C596.778,303.501,596.778,315.503,589.407,322.883z"/>
		<path id="path8895" opacity="0.6" enable-background="new    " d="M585.184,311.738l-8.101-2.972v-14.602
			c0-0.581-0.469-1.053-1.05-1.053c-0.579,0-1.052,0.472-1.052,1.053V309.5c0,0.008,0.005,0.014,0.005,0.023
			c0.002,0.082,0.021,0.154,0.049,0.229c0.015,0.062,0.017,0.113,0.039,0.166c0.022,0.063,0.07,0.104,0.104,0.156
			c0.043,0.06,0.074,0.12,0.125,0.171c0.039,0.039,0.098,0.063,0.142,0.094c0.063,0.045,0.131,0.103,0.209,0.127
			c0.008,0.004,0.014,0.017,0.021,0.019l8.785,3.222c0.121,0.045,0.24,0.063,0.363,0.063c0.428,0,0.83-0.264,0.98-0.688
			C586.006,312.542,585.729,311.94,585.184,311.738L585.184,311.738z"/>
		<path id="path8897" fill="#BEBEBE" d="M592.381,291.152c-4.369-4.365-10.179-6.771-16.354-6.771
			c-6.177,0-11.98,2.404-16.354,6.773c-8.989,9.02-8.989,23.688,0.002,32.697c4.368,4.366,10.178,6.771,16.354,6.771
			c6.175,0,11.979-2.405,16.354-6.771C601.391,314.838,601.391,300.165,592.381,291.152L592.381,291.152z M589.407,320.883
			c-3.574,3.571-8.328,5.541-13.38,5.541c-5.057,0-9.81-1.97-13.373-5.539c-7.359-7.377-7.359-19.381-0.004-26.761
			c3.567-3.569,8.32-5.538,13.377-5.538c5.054,0,9.806,1.969,13.38,5.538C596.778,301.501,596.778,313.503,589.407,320.883z"/>
		<path id="path8899" fill="#BEBEBE" d="M585.184,309.738l-8.1-2.972v-14.602c0-0.581-0.47-1.053-1.051-1.053
			c-0.579,0-1.052,0.472-1.052,1.053V307.5c0,0.008,0.005,0.014,0.005,0.023c0.002,0.082,0.021,0.154,0.049,0.229
			c0.015,0.062,0.017,0.113,0.039,0.166c0.022,0.063,0.07,0.104,0.104,0.156c0.043,0.06,0.074,0.12,0.125,0.171
			c0.039,0.039,0.098,0.063,0.142,0.094c0.063,0.045,0.131,0.103,0.209,0.127c0.008,0.004,0.014,0.017,0.021,0.019l8.785,3.222
			c0.121,0.045,0.24,0.063,0.363,0.063c0.428,0,0.83-0.264,0.98-0.688C586.006,310.542,585.729,309.94,585.184,309.738
			L585.184,309.738z"/>
	</g>
	<g id="icon-dialer-history-on">
		
			<use xlink:href="#Icon-bounder-box"  width="50" height="50" x="-25" y="-25" transform="matrix(1 0 0 -1 719.9736 307.8379)" overflow="visible"/>
		<path id="path8982" opacity="0.6" enable-background="new    " d="M736.317,292.485c-4.369-4.365-10.183-6.771-16.354-6.771
			s-11.979,2.404-16.352,6.773c-8.988,9.02-8.988,23.688,0.002,32.698c4.366,4.366,10.176,6.771,16.35,6.771
			c6.176,0,11.984-2.404,16.354-6.771C745.327,316.172,745.327,301.498,736.317,292.485L736.317,292.485z M733.344,322.217
			c-3.574,3.571-8.328,5.541-13.381,5.541c-5.051,0-9.805-1.97-13.373-5.539c-7.354-7.377-7.354-19.381-0.004-26.761
			c3.572-3.569,8.326-5.538,13.377-5.538c5.055,0,9.807,1.969,13.381,5.538C740.715,302.835,740.715,314.837,733.344,322.217z"/>
		<path id="path8984" opacity="0.6" enable-background="new    " d="M729.12,311.071l-8.104-2.973v-14.6
			c0-0.581-0.469-1.053-1.051-1.053c-0.578,0-1.051,0.472-1.051,1.053v15.335c0,0.009,0.004,0.016,0.004,0.023
			c0.002,0.082,0.025,0.153,0.049,0.23c0.021,0.061,0.021,0.112,0.039,0.164c0.027,0.063,0.072,0.104,0.105,0.157
			c0.043,0.058,0.069,0.12,0.125,0.171c0.039,0.039,0.094,0.063,0.137,0.092c0.068,0.048,0.131,0.104,0.209,0.13
			c0.008,0.004,0.014,0.016,0.021,0.018l8.784,3.222c0.121,0.045,0.24,0.063,0.363,0.063c0.428,0,0.832-0.268,0.986-0.688
			C729.942,311.875,729.667,311.272,729.12,311.071L729.12,311.071z"/>
		<path id="path8986" fill="#FFFFFF" d="M736.317,290.485c-4.369-4.365-10.183-6.771-16.354-6.771s-11.979,2.404-16.352,6.773
			c-8.988,9.02-8.988,23.688,0.002,32.698c4.366,4.366,10.176,6.771,16.35,6.771c6.176,0,11.984-2.404,16.354-6.771
			C745.327,314.172,745.327,299.498,736.317,290.485L736.317,290.485z M733.344,320.217c-3.574,3.571-8.328,5.541-13.381,5.541
			c-5.051,0-9.805-1.97-13.373-5.539c-7.354-7.377-7.354-19.381-0.004-26.761c3.572-3.569,8.326-5.538,13.377-5.538
			c5.055,0,9.807,1.969,13.381,5.538C740.715,300.835,740.715,312.837,733.344,320.217z"/>
		<path id="path8988" fill="#FFFFFF" d="M729.12,309.071l-8.104-2.969v-14.601c0-0.581-0.469-1.053-1.051-1.053
			c-0.578,0-1.051,0.472-1.051,1.053v15.335c0,0.009,0.004,0.016,0.004,0.023c0.002,0.082,0.025,0.153,0.049,0.23
			c0.021,0.061,0.021,0.112,0.039,0.164c0.027,0.063,0.072,0.104,0.105,0.157c0.043,0.058,0.069,0.12,0.125,0.171
			c0.039,0.039,0.094,0.063,0.137,0.092c0.068,0.048,0.131,0.104,0.209,0.13c0.008,0.004,0.014,0.016,0.021,0.018l8.784,3.222
			c0.121,0.045,0.24,0.063,0.363,0.063c0.428,0,0.832-0.269,0.986-0.688C729.942,309.875,729.667,309.272,729.12,309.071
			L729.12,309.071z"/>
	</g>
	<g id="icon-dialer-phone-off">
		<polygon fill="none" points="600.703,427.107 550.703,427.107 550.703,377.107 600.703,377.107 		"/>
		<g>
			<polyline id="polyline10019" opacity="0.7" fill="#444444" enable-background="new    " points="565.097,380.877 
				562.587,419.921 588.367,420.594 588.367,380.877 564.172,380.877 			"/>
			<g>
				<path id="path10021" opacity="0.6" enable-background="new    " d="M589.762,383.197c-0.189-0.729-0.722-1.321-1.425-1.604
					c-0.5-0.198-3.491-1.207-12.659-1.207c-9.137,0-12.271,1.066-12.563,1.185c-0.771,0.271-1.345,0.916-1.524,1.721
					c-0.082,0.37-0.802,4.043-0.802,19.813c0,15.777,0.718,19.448,0.802,19.82c0.175,0.771,0.72,1.401,1.438,1.688
					c0.312,0.127,3.306,1.225,12.682,1.225c9.277,0,12.19-1.038,12.664-1.229c0.681-0.282,1.199-0.883,1.388-1.59
					c0.146-0.541,0.866-4.041,0.866-19.91C590.625,387.225,589.9,383.728,589.762,383.197z M565.097,384.877
					c1.313-0.279,4.488-0.776,10.577-0.776c6.254,0,9.362,0.493,10.604,0.771c0.209,1.611,0.627,6.296,0.627,18.229
					c0,4.054-0.047,7.24-0.117,9.789c-1.129,0.281-4.269,0.866-11.068,0.866c-6.749,0-9.938-0.585-11.104-0.87
					c-0.068-2.553-0.116-5.753-0.116-9.784C564.498,391.337,564.896,386.546,565.097,384.877z M575.703,422.113
					c-6.2,0-9.333-0.502-10.605-0.777c-0.106-0.95-0.29-2.896-0.421-6.539c1.614,0.346,4.942,0.813,11.038,0.813
					c6.146,0,9.408-0.457,11.011-0.812c-0.139,3.697-0.331,5.621-0.441,6.535C585.047,421.611,581.962,422.113,575.703,422.113z"/>
				<path id="path10023" opacity="0.6" enable-background="new    " d="M575.699,416.418c-1.233,0-2.239,1.006-2.239,2.243
					c0,1.229,1.006,2.237,2.239,2.237c1.232,0,2.244-1.008,2.244-2.237C577.943,417.423,576.938,416.418,575.699,416.418z
					 M575.318,418.661c0-0.215,0.17-0.385,0.381-0.385c0.214,0,0.385,0.174,0.385,0.385
					C576.084,419.081,575.315,419.085,575.318,418.661z"/>
			</g>
			<g>
				<path id="path10031" fill="#BEBEBE" d="M589.762,381.197c-0.189-0.729-0.722-1.321-1.425-1.604
					c-0.5-0.198-3.491-1.207-12.659-1.207c-9.137,0-12.271,1.066-12.563,1.185c-0.771,0.271-1.345,0.916-1.524,1.721
					c-0.082,0.37-0.802,4.043-0.802,19.813c0,15.777,0.718,19.448,0.802,19.82c0.175,0.771,0.72,1.401,1.438,1.688
					c0.312,0.127,3.306,1.225,12.682,1.225c9.277,0,12.19-1.038,12.664-1.229c0.681-0.282,1.199-0.883,1.388-1.59
					c0.146-0.541,0.866-4.041,0.866-19.91C590.625,385.225,589.9,381.728,589.762,381.197z M565.097,382.877
					c1.313-0.279,4.488-0.776,10.577-0.776c6.254,0,9.362,0.493,10.604,0.771c0.209,1.611,0.627,6.296,0.627,18.229
					c0,4.054-0.047,7.24-0.117,9.789c-1.129,0.281-4.269,0.866-11.068,0.866c-6.749,0-9.938-0.585-11.104-0.87
					c-0.068-2.553-0.116-5.753-0.116-9.784C564.498,389.337,564.896,384.546,565.097,382.877z M575.703,420.113
					c-6.2,0-9.333-0.502-10.605-0.777c-0.106-0.95-0.29-2.896-0.421-6.539c1.614,0.346,4.942,0.813,11.038,0.813
					c6.146,0,9.408-0.457,11.011-0.812c-0.139,3.697-0.331,5.621-0.441,6.535C585.047,419.611,581.962,420.113,575.703,420.113z"/>
				<path id="path10033" fill="#BEBEBE" d="M575.699,414.418c-1.233,0-2.239,1.006-2.239,2.243c0,1.229,1.006,2.237,2.239,2.237
					c1.232,0,2.244-1.008,2.244-2.237C577.943,415.423,576.938,414.418,575.699,414.418z M575.318,416.661
					c0-0.215,0.17-0.385,0.381-0.385c0.214,0,0.385,0.174,0.385,0.385C576.084,417.081,575.315,417.085,575.318,416.661z"/>
			</g>
		</g>
	</g>
	<g id="icon-dialer-phone-on">
		<polygon fill="none" points="746.308,426.107 696.308,426.107 696.308,376.107 746.308,376.107 		"/>
		<g>
			<g>
				<path id="path10125" opacity="0.6" enable-background="new    " d="M735.364,382.197c-0.193-0.729-0.726-1.321-1.424-1.604
					c-0.5-0.198-3.492-1.207-12.66-1.207c-9.142,0-12.271,1.066-12.564,1.185c-0.771,0.271-1.344,0.916-1.521,1.721
					c-0.084,0.37-0.808,4.043-0.808,19.813c0,15.777,0.724,19.448,0.808,19.82c0.174,0.771,0.719,1.401,1.434,1.688
					c0.313,0.127,3.311,1.225,12.686,1.225c9.273,0,12.188-1.038,12.66-1.229c0.687-0.282,1.199-0.883,1.394-1.59
					c0.141-0.541,0.864-4.041,0.864-19.91C736.229,386.225,735.504,382.728,735.364,382.197z M710.7,383.877
					c1.307-0.279,4.487-0.776,10.576-0.776c6.254,0,9.358,0.493,10.604,0.771c0.209,1.611,0.627,6.296,0.627,18.229
					c0,4.054-0.047,7.24-0.117,9.789c-1.129,0.281-4.268,0.866-11.063,0.866c-6.748,0-9.941-0.585-11.104-0.87
					c-0.063-2.553-0.114-5.753-0.114-9.784C710.102,390.337,710.501,385.546,710.7,383.877z M721.307,421.113
					c-6.196,0-9.334-0.502-10.604-0.777c-0.111-0.95-0.291-2.896-0.422-6.539c1.61,0.346,4.938,0.813,11.039,0.813
					c6.143,0,9.403-0.457,11.01-0.812c-0.139,3.697-0.332,5.621-0.445,6.535C730.649,420.611,727.565,421.113,721.307,421.113z"/>
				<path id="path10127" opacity="0.6" enable-background="new    " d="M721.303,415.418c-1.229,0-2.235,1.006-2.235,2.243
					c0,1.229,1.006,2.237,2.235,2.237c1.236,0,2.244-1.008,2.244-2.237C723.547,416.423,722.54,415.418,721.303,415.418z
					 M720.922,417.661c0-0.215,0.17-0.385,0.381-0.385c0.213,0,0.385,0.174,0.385,0.385
					C721.688,418.081,720.918,418.085,720.922,417.661z"/>
			</g>
			<g>
				<path id="path10135" fill="#FFFFFF" d="M735.364,380.197c-0.193-0.729-0.726-1.321-1.424-1.604
					c-0.5-0.198-3.492-1.207-12.66-1.207c-9.142,0-12.271,1.066-12.564,1.185c-0.771,0.271-1.344,0.916-1.521,1.721
					c-0.084,0.37-0.808,4.043-0.808,19.813c0,15.777,0.724,19.448,0.808,19.82c0.174,0.771,0.719,1.401,1.434,1.688
					c0.313,0.127,3.311,1.225,12.686,1.225c9.273,0,12.188-1.038,12.66-1.229c0.687-0.282,1.199-0.883,1.394-1.59
					c0.141-0.541,0.864-4.041,0.864-19.91C736.229,384.225,735.504,380.728,735.364,380.197z M710.7,381.877
					c1.307-0.279,4.487-0.776,10.576-0.776c6.254,0,9.358,0.493,10.604,0.771c0.209,1.611,0.627,6.296,0.627,18.229
					c0,4.054-0.047,7.24-0.117,9.789c-1.129,0.281-4.268,0.866-11.063,0.866c-6.748,0-9.941-0.585-11.104-0.87
					c-0.063-2.553-0.114-5.753-0.114-9.784C710.102,388.337,710.501,383.546,710.7,381.877z M721.307,419.113
					c-6.196,0-9.334-0.502-10.604-0.777c-0.111-0.95-0.291-2.896-0.422-6.539c1.61,0.346,4.938,0.813,11.039,0.813
					c6.143,0,9.403-0.457,11.01-0.812c-0.139,3.697-0.332,5.621-0.445,6.535C730.649,418.611,727.565,419.113,721.307,419.113z"/>
				<path id="path10137" fill="#FFFFFF" d="M721.303,413.418c-1.229,0-2.235,1.006-2.235,2.243c0,1.229,1.006,2.237,2.235,2.237
					c1.236,0,2.244-1.008,2.244-2.237C723.547,414.423,722.54,413.418,721.303,413.418z M720.922,415.661
					c0-0.215,0.17-0.385,0.381-0.385c0.213,0,0.385,0.174,0.385,0.385C721.688,416.081,720.918,416.085,720.922,415.661z"/>
			</g>
		</g>
	</g>
	<g id="icon-dialer-home">
		<path id="path7566" fill="#444444" d="M558.332,515.531"/>
		<polygon id="polygon7568" opacity="0.7" fill="#444444" enable-background="new    " points="593.56,480.755 592.575,517.604 
			558.332,517.604 556.818,480.755 		"/>
		<path id="path7570" opacity="0.6" enable-background="new    " d="M583.724,507.245c0.277,0,0.56-0.104,0.771-0.313
			c0.42-0.42,0.42-1.102,0-1.521l-8.021-8.021c-0.102-0.104-0.219-0.183-0.35-0.229c-0.269-0.106-0.563-0.106-0.822,0
			c-0.13,0.053-0.252,0.132-0.353,0.229l-8.021,8.021c-0.42,0.42-0.42,1.101,0,1.521c0.21,0.212,0.483,0.313,0.761,0.313
			c0.272,0,0.556-0.104,0.766-0.313l6.188-6.186v18.464c0,0.595,0.479,1.075,1.075,1.075c0.592,0,1.075-0.48,1.075-1.075v-18.464
			l6.186,6.186C583.173,507.141,583.45,507.245,583.724,507.245z"/>
		<path id="path7572" opacity="0.6" enable-background="new    " d="M595.655,480.914c-0.289-0.854-0.986-1.493-1.918-1.717
			c-0.563-0.122-4.078-0.73-18.03-0.73c-13.722,0-17.399,0.604-18.067,0.741c-0.848,0.201-1.541,0.804-1.815,1.547
			c-0.361,0.86-1.154,6.734-1.154,18.579c0,12.424,0.722,17.492,1.159,18.544c0.311,0.749,0.938,1.3,1.726,1.516
			c0.432,0.12,2.914,0.646,13.197,0.774c0.004,0,0.004,0,0.008,0c0.58-0.004,1.045-0.542,1.045-1.121v-2.123
			c0-0.58-0.47-1.049-1.045-1.054c-6.517-0.084-9.678-0.327-11.076-0.482c-0.265-1.812-0.714-6.328-0.714-16.054
			c0-9.225,0.479-14.071,0.739-16.076c1.846-0.188,6.313-0.489,16.005-0.489c9.769,0,14.2,0.307,16.002,0.484
			c0.267,1.988,0.734,6.732,0.734,15.464c0,9.9-0.463,14.728-0.729,16.668c-1.438,0.158-4.604,0.399-11.063,0.483
			c-0.582,0-1.055,0.474-1.055,1.053v2.124c0,0.583,0.477,1.121,1.055,1.121c10.129-0.134,12.723-0.654,13.215-0.774
			c0.785-0.218,1.438-0.8,1.742-1.563c0.293-0.74,1.129-5.836,1.129-19.114C596.743,487.282,595.925,481.604,595.655,480.914z"/>
		<path id="path7574" fill="#BEBEBE" d="M583.724,505.245c0.277,0,0.56-0.104,0.771-0.313c0.42-0.42,0.42-1.102,0-1.521
			l-8.021-8.021c-0.101-0.104-0.218-0.183-0.349-0.229c-0.271-0.106-0.563-0.106-0.823,0c-0.13,0.053-0.252,0.132-0.353,0.229
			l-8.021,8.021c-0.42,0.42-0.42,1.101,0,1.521c0.21,0.212,0.483,0.313,0.761,0.313c0.272,0,0.556-0.104,0.766-0.313l6.188-6.186
			v18.464c0,0.595,0.479,1.075,1.075,1.075c0.592,0,1.075-0.48,1.075-1.075v-18.464l6.185,6.186
			C583.173,505.141,583.45,505.245,583.724,505.245z"/>
		<path id="path7576" fill="#BEBEBE" d="M595.655,478.914c-0.289-0.854-0.986-1.493-1.918-1.717c-0.563-0.122-4.078-0.73-18.03-0.73
			c-13.722,0-17.399,0.604-18.067,0.741c-0.848,0.201-1.541,0.804-1.815,1.547c-0.361,0.86-1.154,6.734-1.154,18.579
			c0,12.424,0.722,17.492,1.159,18.544c0.311,0.749,0.938,1.3,1.726,1.516c0.432,0.12,2.914,0.646,13.197,0.774
			c0.004,0,0.004,0,0.008,0c0.58-0.004,1.045-0.542,1.045-1.121v-2.123c0-0.58-0.47-1.049-1.045-1.054
			c-6.517-0.084-9.678-0.327-11.076-0.482c-0.265-1.812-0.714-6.328-0.714-16.054c0-9.225,0.479-14.071,0.739-16.076
			c1.846-0.188,6.313-0.489,16.005-0.489c9.769,0,14.2,0.307,16.002,0.484c0.267,1.988,0.734,6.732,0.734,15.464
			c0,9.9-0.463,14.728-0.729,16.668c-1.438,0.158-4.604,0.399-11.063,0.483c-0.582,0-1.055,0.474-1.055,1.053v2.124
			c0,0.583,0.477,1.121,1.055,1.121c10.129-0.134,12.723-0.654,13.215-0.774c0.785-0.218,1.438-0.8,1.742-1.563
			c0.293-0.739,1.129-5.836,1.129-19.114C596.743,485.282,595.925,479.604,595.655,478.914z"/>
		<g>
			<polygon fill="none" points="600.703,523.376 550.703,523.376 550.703,473.376 600.703,473.376 			"/>
		</g>
	</g>
	<g id="icon-dialer-hold">
		<polygon fill="none" points="987.156,607.692 937.156,607.692 937.156,557.692 987.156,557.692 		"/>
		<g transform="translate(1124.4872,-82.852191)">
			<polygon id="polygon7277" opacity="0.7" fill="#444444" enable-background="new    " points="-142.842,653.833 -152.097,651.684 
				-153.52,660.319 -163.233,661.811 -170.854,660.319 -170.283,651.678 -183.97,653.253 -182.26,664.041 -162.916,669.96 
				-145.554,665.316 -141.845,659.353 			"/>
			<g>
				<path id="path7279" opacity="0.6" enable-background="new    " d="M-184.977,660.978l0.012,0.18
					c0.063,0.57,0.449,2.623,2.711,4.885c2.623,2.622,8.104,5.774,19.344,5.919c12.021,0.146,17.854-3.146,20.621-5.938
					c1.941-1.964,2.615-3.917,2.593-5.06l0.019-6.7l-1.573-1.577l-11.834,0.003l-1.576,1.578l0.039,6.688
					c-0.414,0.423-3.006,0.684-4.119,0.796c-2.688,0.272-5.598,0.272-8.183,0.001c-1.528-0.164-2.454-0.416-2.772-0.78v-6.712
					l-1.571-1.575l-12.112-0.003l-1.573,1.572L-184.977,660.978z M-142.842,655.833l-0.007,2.943l-8.683-0.001l0.002-2.942H-142.842
					L-142.842,655.833z M-171.916,663.291c1.136,1.136,2.994,1.416,4.646,1.589c2.795,0.304,5.934,0.304,8.832,0.005
					c3.396-0.345,6.912-0.699,6.92-3.927l-0.002-0.604l8.682-0.003l-0.004,0.628c0.004,0.234-0.275,1.41-1.699,2.839
					c-1.922,1.923-6.854,5.123-18.326,4.984c-10.174-0.125-14.939-2.784-17.149-4.994c-1.452-1.454-1.743-2.654-1.801-2.941
					l0.004-0.513l8.961-0.002v0.611C-172.86,661.87-172.533,662.672-171.916,663.291z M-172.86,655.832l-0.002,2.945l-8.964,0.001
					v-2.95L-172.86,655.832z"/>
				<path id="path7281" opacity="0.6" enable-background="new    " d="M-147.352,680.413h-31.002c-0.994,0-1.801-0.812-1.801-1.805
					c0-0.989,0.807-1.8,1.801-1.8l31-0.001c0.994,0.002,1.807,0.813,1.807,1.802C-145.554,679.604-146.36,680.413-147.352,680.413
					L-147.352,680.413L-147.352,680.413z"/>
			</g>
			<g>
				<path id="path7283" fill="#BEBEBE" d="M-184.977,658.978l0.012,0.18c0.063,0.57,0.449,2.623,2.711,4.885
					c2.623,2.622,8.104,5.774,19.344,5.919c12.021,0.146,17.854-3.146,20.621-5.938c1.941-1.964,2.615-3.917,2.593-5.06l0.019-6.7
					l-1.573-1.577l-11.834,0.003l-1.576,1.578l0.039,6.688c-0.414,0.423-3.006,0.684-4.119,0.796
					c-2.688,0.272-5.598,0.272-8.183,0.001c-1.528-0.164-2.454-0.416-2.772-0.78v-6.712l-1.571-1.575l-12.112-0.003l-1.573,1.572
					L-184.977,658.978z M-142.842,653.833l-0.007,2.943l-8.683-0.001l0.002-2.942H-142.842L-142.842,653.833z M-171.916,661.291
					c1.136,1.136,2.994,1.416,4.646,1.589c2.795,0.304,5.936,0.304,8.832,0.005c3.396-0.345,6.912-0.699,6.92-3.927l-0.002-0.604
					l8.682-0.003l-0.004,0.628c0.004,0.234-0.275,1.41-1.699,2.839c-1.922,1.923-6.854,5.123-18.326,4.984
					c-10.174-0.125-14.939-2.784-17.149-4.994c-1.452-1.454-1.743-2.654-1.801-2.941l0.004-0.513l8.961-0.002v0.611
					C-172.86,659.87-172.533,660.672-171.916,661.291z M-172.86,653.832l-0.002,2.945l-8.964,0.001v-2.95L-172.86,653.832z"/>
				<path id="path7287" fill="#BEBEBE" d="M-147.352,678.413h-31.002c-0.994,0-1.801-0.812-1.801-1.805c0-0.989,0.807-1.8,1.801-1.8
					l31-0.001c0.994,0.002,1.807,0.813,1.807,1.802C-145.554,677.604-146.36,678.413-147.352,678.413L-147.352,678.413
					L-147.352,678.413z"/>
			</g>
		</g>
	</g>
	<g id="icon-dialer-hold-on">
		<polygon fill="none" points="1344.098,875.524 1294.098,875.524 1294.098,825.524 1344.098,825.524 		"/>
		<g transform="translate(1124.4872,-82.852191)">
			<polygon id="polygon7277_1_" opacity="0.15" fill="#ACACAC" enable-background="new    " points="214.1,921.665 204.845,919.516 
				203.421,928.151 193.708,929.643 186.087,928.151 186.658,919.51 172.972,921.085 174.682,931.873 194.026,937.792 
				211.388,933.148 215.097,927.185 			"/>
			<g>
				<path id="path7279_1_" opacity="0.6" enable-background="new    " d="M171.964,928.81l0.01,0.18
					c0.063,0.57,0.451,2.623,2.711,4.885c2.623,2.622,8.105,5.774,19.344,5.919c12.023,0.146,17.854-3.146,20.621-5.938
					c1.943-1.964,2.615-3.917,2.595-5.061l0.017-6.699l-1.573-1.577l-11.834,0.003l-1.575,1.578l0.039,6.688
					c-0.414,0.423-3.007,0.684-4.118,0.796c-2.688,0.272-5.6,0.272-8.185,0.001c-1.527-0.164-2.454-0.416-2.771-0.78v-6.712
					l-1.571-1.575l-12.114-0.003l-1.573,1.572L171.964,928.81z M214.1,923.665l-0.007,2.943l-8.681-0.001l0.002-2.942H214.1
					L214.1,923.665z M185.026,931.123c1.136,1.134,2.992,1.416,4.646,1.588c2.795,0.305,5.932,0.305,8.832,0.006
					c3.396-0.345,6.912-0.699,6.92-3.927l-0.002-0.604l8.68-0.003l-0.004,0.628c0.004,0.233-0.273,1.41-1.698,2.839
					c-1.923,1.923-6.854,5.123-18.325,4.984c-10.175-0.125-14.94-2.784-17.149-4.994c-1.454-1.454-1.745-2.654-1.801-2.941
					l0.004-0.513l8.961-0.002v0.61C184.081,929.702,184.408,930.505,185.026,931.123z M184.081,923.664l-0.002,2.945l-8.964,0.001
					v-2.95L184.081,923.664z"/>
				<path id="path7281_1_" opacity="0.6" enable-background="new    " d="M209.589,948.245h-31.002
					c-0.994,0-1.801-0.812-1.801-1.805c0-0.989,0.807-1.8,1.801-1.8l31-0.001c0.994,0.002,1.805,0.813,1.805,1.802
					C211.388,947.436,210.581,948.245,209.589,948.245L209.589,948.245L209.589,948.245z"/>
			</g>
			<g>
				<path id="path7283_1_" fill="#FFFFFF" d="M171.964,926.81l0.01,0.18c0.063,0.57,0.451,2.623,2.711,4.885
					c2.623,2.622,8.105,5.774,19.344,5.919c12.023,0.146,17.854-3.146,20.621-5.938c1.943-1.964,2.615-3.917,2.595-5.061
					l0.017-6.699l-1.573-1.577l-11.834,0.003l-1.575,1.578l0.039,6.688c-0.414,0.423-3.007,0.684-4.118,0.796
					c-2.688,0.272-5.6,0.272-8.185,0.001c-1.527-0.164-2.454-0.416-2.771-0.78v-6.712l-1.571-1.575l-12.114-0.003l-1.573,1.572
					L171.964,926.81z M214.1,921.665l-0.007,2.943l-8.681-0.001l0.002-2.942H214.1L214.1,921.665z M185.026,929.123
					c1.136,1.134,2.992,1.416,4.646,1.588c2.795,0.305,5.934,0.305,8.832,0.006c3.396-0.345,6.912-0.699,6.92-3.927l-0.002-0.604
					l8.68-0.003l-0.004,0.628c0.004,0.233-0.273,1.41-1.698,2.839c-1.923,1.923-6.854,5.123-18.325,4.984
					c-10.175-0.125-14.94-2.784-17.149-4.994c-1.454-1.454-1.745-2.654-1.801-2.941l0.004-0.513l8.961-0.002v0.61
					C184.081,927.702,184.408,928.505,185.026,929.123z M184.081,921.664l-0.002,2.945l-8.964,0.001v-2.95L184.081,921.664z"/>
				<path id="path7287_1_" fill="#FFFFFF" d="M209.589,946.245h-31.002c-0.994,0-1.801-0.812-1.801-1.805
					c0-0.989,0.807-1.8,1.801-1.8l31-0.001c0.994,0.002,1.805,0.813,1.805,1.802C211.388,945.436,210.581,946.245,209.589,946.245
					L209.589,946.245L209.589,946.245z"/>
			</g>
		</g>
	</g>
	<g id="icon-dialpad-close">
		<g>
			<polygon fill="none" points="749.873,521.586 699.873,521.586 699.873,471.586 749.873,471.586 			"/>
		</g>
		<g>
			<polygon opacity="0.15" fill="#ACACAC" enable-background="new    " points="744.767,475.25 704.767,476.625 724.461,495.563 			
				"/>
			
				<linearGradient id="SVGID_1_" gradientUnits="userSpaceOnUse" x1="700.1553" y1="-443.5972" x2="700.1553" y2="-482.5508" gradientTransform="matrix(1 0 0 1 24 961.7813)">
				<stop  offset="0" style="stop-color:#ACACAC;stop-opacity:0.15"/>
				<stop  offset="1" style="stop-color:#000000;stop-opacity:0"/>
			</linearGradient>
			<path opacity="0.15" fill="url(#SVGID_1_)" enable-background="new    " d="M706.461,479.23l0.416,28.166l10.516,2.854
				c0,0-1.375,7.5,1.375,7.75s10.625,0.375,11.375-0.5s0.625-6.875,0.75-7.375s10.777-1.813,10.902-2.563s0-27.921,0-27.921"/>
			<g>
				<g id="g8006_2_">
					
						<linearGradient id="path8008_3_" gradientUnits="userSpaceOnUse" x1="700.2695" y1="-440.8594" x2="700.2695" y2="-483.9092" gradientTransform="matrix(1 0 0 1 24 961.7813)">
						<stop  offset="0" style="stop-color:#000000;stop-opacity:0.6"/>
						<stop  offset="0.8261" style="stop-color:#000000;stop-opacity:0"/>
					</linearGradient>
					<path id="path8008_2_" fill="url(#path8008_3_)" d="M738.101,477.872h-27.658c-2.087,0-3.785,1.697-3.785,3.783v26.646
						c0,2.084,1.698,3.783,3.785,3.783h5.752v5.055c0,2.089,1.695,3.783,3.782,3.783h8.591c2.086,0,3.775-1.693,3.775-3.783v-5.055
						h5.756c2.087,0,3.783-1.699,3.783-3.783v-26.646C741.885,479.569,740.185,477.872,738.101,477.872z M728.563,508.298h-8.588
						h-0.002V500.4h8.592v7.897H728.563z M719.976,498.503v-7.988h8.592v7.988H719.976z M718.082,498.503h-7.646v-7.988h6.699h0.942
						v7.988H718.082z M719.976,487.677v-6.012h-0.002v-0.013h8.596v6.97h-8.591v-0.945H719.976L719.976,487.677z M730.451,490.515
						h7.646v7.988h-7.646V490.515z M738.101,488.623h-7.646v-6.97h7.646V488.623z M710.438,481.655h7.646v6.969h-0.943h-6.695
						L710.438,481.655L710.438,481.655z M710.438,508.298V500.4h7.646v7.897H710.438z M719.976,517.138v-6.941h8.592v6.941H719.976z
						 M730.451,508.298v-0.944h0.006v-6.013h-0.006v-0.94h7.646v7.897H730.451L730.451,508.298z"/>
				</g>
				
					<polygon opacity="0.6" fill="none" stroke="#000000" stroke-width="4.9776" stroke-linecap="round" stroke-linejoin="round" enable-background="new    " points="
					724.892,497.375 704.808,477.276 744.979,477.276 				"/>
			</g>
			<g>
				<g id="g8006_1_">
					
						<linearGradient id="path8008_4_" gradientUnits="userSpaceOnUse" x1="700.2695" y1="-442.3594" x2="700.2695" y2="-485.4092" gradientTransform="matrix(1 0 0 1 24 961.7813)">
						<stop  offset="0" style="stop-color:#D9D9D9"/>
						<stop  offset="0.0729" style="stop-color:#D1D1D1;stop-opacity:0.9042"/>
						<stop  offset="0.1878" style="stop-color:#BABABA;stop-opacity:0.7531"/>
						<stop  offset="0.3524" style="stop-color:#959595;stop-opacity:0.5657"/>
						<stop  offset="0.5361" style="stop-color:#626262;stop-opacity:0.3491"/>
						<stop  offset="0.738" style="stop-color:#212121;stop-opacity:0.1109"/>
						<stop  offset="0.8343" style="stop-color:#000000;stop-opacity:0"/>
					</linearGradient>
					<path id="path8008_1_" fill="url(#path8008_4_)" d="M738.101,476.372h-27.658c-2.087,0-3.785,1.697-3.785,3.783v26.646
						c0,2.084,1.698,3.783,3.785,3.783h5.752v5.055c0,2.089,1.695,3.783,3.782,3.783h8.591c2.086,0,3.775-1.693,3.775-3.783v-5.055
						h5.756c2.087,0,3.783-1.699,3.783-3.783v-26.646C741.885,478.069,740.185,476.372,738.101,476.372z M728.563,506.798h-8.588
						h-0.002V498.9h8.592v7.897H728.563z M719.976,497.003v-7.988h8.592v7.988H719.976z M718.082,497.003h-7.646v-7.988h6.699h0.942
						v7.988H718.082z M719.976,486.177v-6.012h-0.002v-0.013h8.596v6.97h-8.591v-0.945H719.976L719.976,486.177z M730.451,489.015
						h7.646v7.988h-7.646V489.015z M738.101,487.123h-7.646v-6.97h7.646V487.123z M710.438,480.155h7.646v6.969h-0.943h-6.695
						L710.438,480.155L710.438,480.155z M710.438,506.798V498.9h7.646v7.897H710.438z M719.976,515.638v-6.941h8.592v6.941H719.976z
						 M730.451,506.798v-0.944h0.006v-6.013h-0.006v-0.94h7.646v7.897H730.451L730.451,506.798z"/>
				</g>
				<polygon fill="none" stroke="#FCC536" stroke-width="4.9776" stroke-linecap="round" stroke-linejoin="round" points="
					724.892,495.875 706.667,475.776 743.119,475.776 				"/>
			</g>
		</g>
	</g>
	<g id="icon-dialpad-open">
		<rect x="700.038" y="555.367" fill="none" width="50" height="50"/>
		<g>
			<polygon opacity="0.15" fill="#ACACAC" enable-background="new    " points="718.667,600.211 716.785,592.873 709.442,591.902 
				708.332,563.102 738.418,561.675 738.418,591.555 730.905,591.555 729.06,600.211 			"/>
			<path opacity="0.6" enable-background="new    " d="M737.418,562.675h-27.17c-2.047,0-3.688,1.687-3.688,3.726v26.152
				c0,2.02,1.642,3.688,3.688,3.688h5.681v4.972c0,2.061,1.664,3.723,3.682,3.723h8.455c2.054,0,3.727-1.67,3.727-3.723v-4.972
				h5.629c2.058,0,3.727-1.67,3.727-3.688V566.4C741.142,564.348,739.468,562.675,737.418,562.675L737.418,562.675z M728.06,592.555
				h-8.422h-0.034v-7.756h8.452L728.06,592.555L728.06,592.555z M719.646,582.919v-7.826h8.419v7.826H719.646L719.646,582.919z
				 M717.763,582.919h-7.516v-7.826h6.576h0.932v7.826H717.763z M719.646,572.314v-5.912h-0.038l0,0h8.453v6.813h-8.425v-0.9
				H719.646L719.646,572.314z M729.905,575.091h7.514v7.827h-7.514V575.091L729.905,575.091z M737.418,573.214h-7.514V566.4h7.514
				V573.214L737.418,573.214z M710.248,566.402h7.516v6.813h-0.933h-6.568v-6.813H710.248z M710.248,592.555v-7.756h7.516v7.756
				H710.248L710.248,592.555z M719.646,601.211v-6.816h8.419v6.816H719.646L719.646,601.211z M729.905,592.555v-0.938l0,0v-5.914
				l0,0V584.8h7.514v7.754L729.905,592.555L729.905,592.555z"/>
			<path fill="#BEBEBE" d="M737.444,560.699h-27.162c-2.06,0-3.729,1.687-3.729,3.703v26.152c0,2.061,1.688,3.723,3.729,3.723h5.633
				v4.979c0,2.057,1.686,3.72,3.717,3.72h8.457c2.052,0,3.689-1.671,3.689-3.72v-4.979h5.67c2.05,0,3.687-1.668,3.687-3.723V564.4
				C741.169,562.373,739.496,560.699,737.444,560.699L737.444,560.699z M728.087,590.547h-8.456l0,0v-7.746h8.456V590.547
				L728.087,590.547z M719.63,580.945v-7.861h8.457v7.861H719.63L719.63,580.945z M717.785,580.945h-7.507v-7.861h6.573h0.932
				L717.785,580.945L717.785,580.945z M719.63,570.303v-5.878l0,0v-0.033h8.457v6.849h-8.457V570.303L719.63,570.303z
				 M729.932,573.084h7.515v7.861h-7.515V573.084L729.932,573.084z M737.444,571.24h-7.519v-6.85h7.519V571.24L737.444,571.24z
				 M710.278,564.394h7.512v6.851h-0.931h-6.575L710.278,564.394L710.278,564.394z M710.278,590.547v-7.746h7.512v7.746H710.278
				L710.278,590.547z M719.63,599.238v-6.815h8.457v6.815H719.63L719.63,599.238z M729.932,590.547v-0.905l0,0v-5.907l0,0v-0.938
				h7.515v7.745L729.932,590.547L729.932,590.547z"/>
		</g>
	</g>
	<g id="icon-m-telephony-call-on">
		<g>
			<polygon opacity="0.15" fill="#ACACAC" enable-background="new    " points="1297.609,450.065 1305.726,458.021 
				1306.527,455.892 1312.235,448.885 1306.527,440.131 1321.033,427.863 1328.229,432.439 1335.237,425.889 1333.336,421.51 
				1326.743,418.844 1316.313,421.51 1303.098,434.199 			"/>
			<path opacity="0.15" fill="#ACACAC" enable-background="new    " d="M1334.479,424.096"/>
			<path opacity="0.6" enable-background="new    " d="M1332.713,420.568l-0.115-0.15c-0.496-0.369-2.355-1.637-5.787-1.637
				c-3.957,0-10.545,1.787-19.188,10.205c-9.259,9.021-11.188,15.953-11.188,20.182c0,2.969,1.021,4.959,1.867,5.826l5.121,5.119
				h2.405l8.987-8.988v-2.398l-5.146-5.063c0-0.646,1.794-2.828,2.553-3.73c1.824-2.243,4.034-4.455,6.203-6.195
				c1.299-1.063,2.172-1.563,2.704-1.521l5.106,5.104h2.416l9.217-9.22v-2.411L1332.713,420.568L1332.713,420.568z
				 M1304.608,456.477l-2.21-2.25l6.599-6.597l2.254,2.255L1304.608,456.477L1304.608,456.477z M1321.058,428.725
				c-1.749,0-3.348,1.201-4.753,2.32c-2.34,1.903-4.726,4.301-6.704,6.705c-2.331,2.85-4.725,5.774-2.288,8.258l0.457,0.45
				l-6.598,6.581l-0.446-0.492c-0.207-0.132-0.872-1.254-0.872-3.408c0-2.934,1.293-9.1,10.122-17.725
				c7.828-7.652,13.478-9.235,16.835-9.235c2.209,0,3.354,0.688,3.621,0.86l0.385,0.382l-6.814,6.815l-0.463-0.449
				C1322.854,429.098,1321.979,428.725,1321.058,428.725L1321.058,428.725z M1327.424,433.666l-2.217-2.254l6.764-6.76l2.255,2.242
				L1327.424,433.666L1327.424,433.666z"/>
			<path fill="#FFFFFF" d="M1332.646,418.504l-0.111-0.153c-0.496-0.367-2.363-1.638-5.792-1.638
				c-4.003,0-10.549,1.764-19.188,10.208c-9.259,9.024-11.201,15.956-11.16,20.183c0,2.973,0.987,4.961,1.846,5.787l5.124,5.105
				l2.345,0.042l9.04-9.046l-0.04-2.396l-5.104-5.026c0-0.646,1.791-2.828,2.55-3.732c1.823-2.284,4.03-4.492,6.212-6.244
				c1.269-1.027,2.163-1.521,2.708-1.479l5.099,5.099h2.406l9.188-9.22v-2.408L1332.646,418.504L1332.646,418.504z
				 M1304.542,454.409l-2.248-2.249l6.628-6.598l2.21,2.256L1304.542,454.409L1304.542,454.409z M1320.953,426.648
				c-1.688,0-3.33,1.216-4.71,2.338c-2.358,1.902-4.722,4.262-6.698,6.704c-2.32,2.837-4.709,5.773-2.287,8.236l0.461,0.461
				l-6.598,6.594l-0.491-0.499c-0.15-0.134-0.841-1.259-0.841-3.409c0-2.935,1.295-9.102,10.134-17.725
				c7.805-7.654,13.478-9.233,16.826-9.233c2.212,0,3.354,0.686,3.624,0.856l0.378,0.388l-6.813,6.813l-0.459-0.448
				C1322.787,427.031,1321.912,426.648,1320.953,426.648L1320.953,426.648z M1327.355,431.599l-2.257-2.245l6.818-6.836l2.253,2.257
				L1327.355,431.599L1327.355,431.599z"/>
		</g>
		<rect x="1292.627" y="412.9" fill="none" width="50" height="49.999"/>
	</g>
	<g id="icon-m-telephony-call-combine-on">
		<g>
			<polygon opacity="0.15" fill="#ACACAC" enable-background="new    " points="1325.732,537.572 1327.031,536.418 1327.031,528.73 
				1332.122,525.424 1334.871,528.167 1335.58,531.555 1334.47,536.676 1337.139,537.572 1338.18,539.953 1339.218,545.449 
				1327.625,548.537 1328.03,554.219 1317.075,558.816 1306.968,554.104 1304.625,548.752 1295.784,546.305 1293.778,546.076 
				1293.479,539.953 1297.9,537.313 1297.9,531.442 1298.238,528.283 1301.802,525.239 1305.146,529.137 1306.297,532.409 
				1306.895,538.166 1310.352,538.76 1311.204,530.85 1317.965,526.682 			"/>
			<path opacity="0.15" fill="#ACACAC" enable-background="new    " d="M1327.625,530.515"/>
			<path opacity="0.6" enable-background="new    " d="M1336.104,537.455c0.521-1.371,0.76-2.996,0.76-4.904
				c0-3.384-2.6-6.131-5.764-6.131c-3.156,0-5.717,2.76-5.717,6.131c0,1.974,0.189,3.565,0.619,4.867
				c-0.411,0.109-0.827,0.334-1.174,0.555c0.035-0.593,0.035-1.186,0.035-1.815c0-4.674-3.523-8.476-7.912-8.476
				c-4.347,0-7.867,3.802-7.867,8.476c0,1.264,0.075,2.481,0.252,3.604c-0.701-0.668-1.521-1.188-2.408-1.479
				c0.438-1.319,0.666-2.916,0.666-4.865c0-3.38-2.562-6.133-5.754-6.133c-3.154,0-5.715,2.76-5.715,6.133
				c0,1.891,0.252,3.555,0.766,4.9c-2.495,0.854-4.436,3.494-4.436,6.392v2.86l0.04,0.3c0.195,0.56,1.392,3.476,9.438,3.476
				c0.771,0,1.479,0,2.151-0.071c0,0.146-0.039,0.274-0.039,0.367v3.979l0.071,0.407c0.218,0.776,1.858,4.831,12.97,4.831
				c11.153,0,12.824-4.035,13-4.831l0.073-4.356c0-0.34-0.038-0.619-0.073-0.971c0.22,0.041,0.438,0.074,0.637,0.074
				c8.104,0,9.55-3.23,9.692-3.822l0.039-0.287v-2.857C1340.521,540.953,1338.592,538.313,1336.104,537.455L1336.104,537.455z
				 M1331.122,528.725c1.896,0,3.478,1.723,3.478,3.829c0,2.199-0.369,3.979-1.109,5.126l-1.006,1.563
				c-0.406,0.187-0.816,0.302-1.265,0.302c-0.357,0-0.966,0-1.637-0.354l-0.888-1.523c-0.635-1.076-0.969-2.788-0.969-5.127
				C1327.706,530.438,1329.229,528.725,1331.122,528.725L1331.122,528.725z M1316.965,530.846c2.639,0,4.76,2.377,4.76,5.314
				c0,3.193-0.443,5.572-1.341,7.078l-1.331,2.188c-0.559,0.225-1.166,0.332-1.935,0.332c-0.707,0-1.374-0.141-2.009-0.479
				l-1.298-2.076c-1.042-1.563-1.563-4.019-1.563-7.022C1312.242,533.229,1314.364,530.846,1316.965,530.846L1316.965,530.846z
				 M1301.842,529.58c1.896,0,3.455,1.709,3.455,3.83c0,2.336-0.338,4.084-0.967,5.154l-1.257,0.983
				c-0.614,0.36-0.898,0.895-1.246,0.895c-0.441,0-0.901-0.151-1.251-0.352l-0.996-1.56c-0.761-1.154-1.113-2.938-1.113-5.125
				C1298.423,531.289,1299.952,529.58,1301.842,529.58L1301.842,529.58z M1304.52,548.938c-0.761,0.075-1.561,0.15-2.589,0.15
				c-5.553,0-6.924-1.484-7.149-1.781v-2.604c0-2.482,2.007-4.381,3.793-4.381h0.121c0.828,0.854,1.867,1.393,3.113,1.393
				c1.392,0,2.441-0.48,3.268-1.393h0.21c0.901,0,1.871,0.442,2.6,1.241c0.519,0.558,0.838,1.188,1.042,1.854
				C1306.896,544.551,1305.222,546.557,1304.52,548.938L1304.52,548.938z M1327.03,555.219c-0.405,0.56-2.376,2.486-9.918,2.486
				c-7.693,0-9.549-2.002-9.881-2.453v-3.599c0-3.384,2.779-5.984,5.236-6.022h0.917c1.01,0.896,2.279,1.374,3.722,1.374
				c1.634,0,2.936-0.441,3.972-1.374h0.635c1.244,0,2.563,0.637,3.559,1.713c1.109,1.188,1.742,2.763,1.742,4.313v3.563H1327.03
				L1327.03,555.219z M1338.218,546.449c-0.22,0.297-1.592,1.707-7.205,1.746c-0.378,0-0.93-0.041-1.524-0.074
				c-0.448-1.08-1.083-2.045-1.862-2.938c-1.035-1.11-2.298-1.896-3.633-2.34c0.076-0.225,0.104-0.448,0.181-0.67
				c0.216-0.521,0.521-1.041,0.928-1.481c0.741-0.781,1.669-1.265,2.604-1.265h0.197c0.842,0.892,1.9,1.371,3.268,1.371
				c1.238,0,2.307-0.479,3.125-1.371h0.072c1.821,0.042,3.827,1.933,3.827,4.379L1338.218,546.449L1338.218,546.449z"/>
			<path fill="#FFFFFF" d="M1336.061,535.416c0.52-1.373,0.761-3.049,0.761-4.902c-0.036-3.385-2.597-6.131-5.761-6.131
				c-3.153,0-5.715,2.764-5.715,6.131c0,1.971,0.188,3.564,0.621,4.866c-0.418,0.106-0.828,0.298-1.177,0.553
				c0-0.601,0.039-1.187,0.039-1.854c0-4.646-3.558-8.438-7.916-8.438c-4.349,0-7.872,3.803-7.911,8.438
				c0,1.302,0.121,2.518,0.292,3.635c-0.704-0.707-1.522-1.19-2.416-1.479c0.438-1.315,0.677-2.914,0.677-4.863
				c0-3.396-2.599-6.131-5.763-6.131c-3.161,0-5.72,2.76-5.72,6.131c0,1.882,0.283,3.555,0.76,4.902
				c-2.449,0.854-4.382,3.495-4.382,6.354v2.897l0.043,0.259c0.142,0.602,1.313,3.533,9.438,3.533c0.769,0,1.478-0.037,2.152-0.075
				c0,0.121-0.039,0.278-0.039,0.372v3.938l0.039,0.41c0.204,0.833,1.859,4.859,12.991,4.859c11.148,0,12.775-4.034,13.003-4.859
				l0.076-4.349c0-0.304-0.043-0.638-0.076-0.931c0.206,0.045,0.41,0.045,0.631,0.045c8.1,0,9.549-3.198,9.698-3.791l0.037-0.3
				v-2.857C1340.439,538.875,1338.55,536.273,1336.061,535.416L1336.061,535.416z M1331.083,526.646
				c1.893,0,3.476,1.746,3.476,3.865c0,2.199-0.432,3.977-1.156,5.126l-0.975,1.563c-0.4,0.188-0.814,0.276-1.303,0.276
				c-0.339,0-0.963,0-1.594-0.336l-0.919-1.521c-0.677-1.08-0.999-2.824-0.999-5.125
				C1327.625,528.398,1329.186,526.646,1331.083,526.646L1331.083,526.646z M1316.927,528.805c2.642,0,4.759,2.379,4.759,5.274
				c0,3.23-0.443,5.61-1.377,7.097l-1.316,2.189c-0.563,0.223-1.232,0.334-1.936,0.334c-0.739,0-1.4-0.149-2.013-0.479l-1.332-2.084
				c-0.998-1.596-1.559-4.01-1.559-7.058C1312.208,531.191,1314.33,528.805,1316.927,528.805L1316.927,528.805z M1301.802,527.539
				c1.899,0,3.46,1.71,3.46,3.826c0,2.341-0.335,4.035-0.999,5.125l-0.896,1.526c-0.621,0.332-1.251,0.332-1.604,0.332
				c-0.501,0-0.918-0.11-1.248-0.277l-1.006-1.566c-0.742-1.146-1.155-2.933-1.155-5.126
				C1298.35,529.249,1299.909,527.539,1301.802,527.539L1301.802,527.539z M1304.443,546.899c-0.706,0.072-1.563,0.118-2.524,0.118
				c-5.553,0-6.932-1.468-7.15-1.743v-2.643c0-2.45,2.003-4.354,3.788-4.354l0.123-0.039c0.826,0.896,1.857,1.377,3.122,1.377
				c1.379,0,2.447-0.482,3.271-1.377h0.219c0.895,0,1.86,0.481,2.597,1.266c0.479,0.559,0.851,1.172,1.041,1.857
				C1306.827,542.514,1305.184,544.519,1304.443,546.899L1304.443,546.899z M1326.957,553.177c-0.371,0.561-2.357,2.487-9.882,2.487
				c-7.692,0-9.55-2.045-9.874-2.452v-3.604c0-3.422,2.759-5.98,5.237-6.021l0.925-0.039c1.001,0.935,2.27,1.41,3.716,1.41
				c1.604,0,2.934-0.479,3.979-1.375h0.63c1.229,0,2.563,0.632,3.557,1.707c1.112,1.19,1.719,2.713,1.719,4.311L1326.957,553.177
				L1326.957,553.177z M1338.18,544.404c-0.263,0.301-1.596,1.707-7.209,1.746c-0.369,0-0.931-0.043-1.521-0.074
				c-0.446-1.08-1.078-2.078-1.896-2.935c-1.042-1.111-2.264-1.931-3.604-2.344c0.074-0.225,0.114-0.442,0.184-0.681
				c0.202-0.534,0.479-1.035,0.915-1.479c0.762-0.815,1.715-1.26,2.596-1.26h0.228c0.818,0.889,1.896,1.369,3.268,1.369
				c1.264,0,2.307-0.48,3.123-1.369h0.113c1.816,0.041,3.821,1.896,3.821,4.383L1338.18,544.404L1338.18,544.404L1338.18,544.404z"
				/>
		</g>
		<rect x="1291.965" y="517.121" fill="none" width="50" height="50"/>
	</g>
	<g id="icon-m-telephony-call-combine">
		<g>
			<polygon opacity="0.15" fill="#ACACAC" enable-background="new    " points="970.573,232.603 971.872,231.448 971.872,223.76 
				976.969,220.453 979.712,223.197 980.419,226.585 979.305,231.706 981.979,232.603 983.027,234.983 984.064,240.479 
				972.473,243.567 972.876,249.249 961.915,253.848 951.811,249.134 949.467,243.782 940.625,241.335 938.617,241.107 
				938.322,234.983 942.745,232.342 942.745,226.473 943.079,223.314 946.644,220.27 949.986,224.167 951.14,227.439 
				951.732,233.196 955.192,233.79 956.045,225.88 962.807,221.711 			"/>
			<path opacity="0.15" fill="#ACACAC" enable-background="new    " d="M972.473,225.545"/>
			<path opacity="0.6" enable-background="new    " d="M980.94,232.486c0.521-1.372,0.78-2.998,0.78-4.905
				c0-3.383-2.599-6.131-5.76-6.131s-5.72,2.761-5.72,6.131c0,1.972,0.194,3.566,0.628,4.868c-0.408,0.11-0.82,0.334-1.188,0.555
				c0.041-0.593,0.041-1.187,0.041-1.817c0-4.675-3.53-8.475-7.919-8.475c-4.354,0-7.878,3.801-7.878,8.475
				c0,1.263,0.074,2.483,0.281,3.604c-0.697-0.669-1.525-1.191-2.44-1.479c0.446-1.319,0.685-2.916,0.685-4.865
				c0-3.379-2.563-6.132-5.781-6.132c-3.155,0-5.714,2.76-5.714,6.132c0,1.891,0.258,3.555,0.783,4.901
				c-2.485,0.855-4.439,3.492-4.439,6.391v2.86l0.045,0.3c0.185,0.56,1.371,3.475,9.435,3.475c0.783,0,1.479,0,2.158-0.074
				c0,0.146-0.039,0.278-0.039,0.371v3.979l0.062,0.407c0.228,0.778,1.877,4.832,12.984,4.832c11.149,0,12.822-4.035,13.009-4.832
				l0.063-4.356c0-0.34-0.038-0.619-0.063-0.97c0.207,0.041,0.438,0.074,0.614,0.074c8.109,0,9.55-3.231,9.711-3.823l0.04-0.287
				v-2.857C985.368,235.983,983.43,233.342,980.94,232.486L980.94,232.486z M975.969,223.754c1.894,0,3.45,1.722,3.45,3.83
				c0,2.199-0.359,3.978-1.11,5.126l-0.998,1.562c-0.399,0.186-0.842,0.302-1.254,0.302c-0.377,0-0.973,0-1.64-0.355l-0.91-1.524
				c-0.606-1.076-0.97-2.788-0.97-5.127C972.542,225.467,974.066,223.754,975.969,223.754L975.969,223.754z M961.807,225.876
				c2.645,0,4.76,2.376,4.76,5.314c0,3.192-0.438,5.571-1.319,7.078l-1.342,2.188c-0.557,0.221-1.182,0.331-1.933,0.331
				c-0.705,0-1.387-0.14-2.016-0.48l-1.319-2.076c-1.038-1.56-1.56-4.017-1.56-7.022
				C957.088,228.259,959.203,225.876,961.807,225.876L961.807,225.876z M946.685,224.61c1.882,0,3.455,1.709,3.455,3.83
				c0,2.335-0.332,4.084-0.967,5.155l-1.263,0.986c-0.63,0.36-0.896,0.892-1.257,0.892c-0.439,0-0.896-0.152-1.268-0.35
				l-0.999-1.559c-0.741-1.154-1.109-2.936-1.109-5.125C943.27,226.319,944.791,224.61,946.685,224.61L946.685,224.61z
				 M949.358,243.968c-0.74,0.075-1.56,0.15-2.564,0.15c-5.572,0-6.947-1.484-7.167-1.781v-2.604c0-2.482,2.005-4.381,3.8-4.381
				h0.104c0.822,0.854,1.86,1.392,3.125,1.392c1.376,0,2.455-0.483,3.269-1.392h0.224c0.896,0,1.856,0.444,2.6,1.24
				c0.52,0.559,0.854,1.188,1.043,1.857C951.74,239.581,950.06,241.587,949.358,243.968L949.358,243.968z M971.876,250.249
				c-0.405,0.558-2.377,2.487-9.923,2.487c-7.713,0-9.553-2.003-9.882-2.453v-3.6c0-3.384,2.787-5.984,5.234-6.022h0.919
				c1.001,0.895,2.278,1.374,3.721,1.374c1.637,0,2.916-0.444,3.957-1.374h0.633c1.262,0,2.563,0.637,3.563,1.713
				c1.114,1.186,1.735,2.76,1.735,4.31v3.564L971.876,250.249L971.876,250.249z M983.064,241.479
				c-0.227,0.297-1.603,1.708-7.217,1.747c-0.363,0-0.926-0.041-1.543-0.075c-0.437-1.08-1.072-2.044-1.857-2.936
				c-1.036-1.113-2.297-1.896-3.642-2.339c0.08-0.225,0.117-0.448,0.195-0.67c0.222-0.521,0.521-1.042,0.918-1.483
				c0.752-0.782,1.664-1.263,2.599-1.263h0.229c0.825,0.89,1.892,1.371,3.27,1.371c1.229,0,2.298-0.481,3.121-1.371h0.071
				c1.819,0.042,3.831,1.93,3.831,4.379L983.064,241.479L983.064,241.479L983.064,241.479z"/>
			<path fill="#BEBEBE" d="M980.9,230.446c0.518-1.373,0.78-3.049,0.78-4.902c-0.038-3.385-2.6-6.13-5.761-6.13
				s-5.723,2.761-5.723,6.13c0,1.968,0.197,3.565,0.627,4.867c-0.407,0.106-0.813,0.298-1.19,0.553c0-0.601,0.043-1.188,0.043-1.854
				c0-4.646-3.563-8.438-7.911-8.438c-4.356,0-7.878,3.8-7.923,8.438c0,1.302,0.117,2.518,0.278,3.635
				c-0.679-0.708-1.521-1.192-2.408-1.479c0.445-1.315,0.685-2.915,0.685-4.864c0-3.395-2.604-6.13-5.791-6.13
				c-3.155,0-5.719,2.759-5.719,6.13c0,1.882,0.271,3.555,0.747,4.903c-2.438,0.854-4.381,3.494-4.381,6.356v2.897l0.041,0.259
				c0.143,0.601,1.319,3.532,9.436,3.532c0.774,0,1.476-0.036,2.154-0.075c0,0.121-0.043,0.278-0.043,0.373v3.938l0.043,0.41
				c0.222,0.833,1.857,4.86,12.99,4.86c11.151,0,12.779-4.035,12.998-4.86l0.075-4.348c0-0.302-0.041-0.636-0.075-0.93
				c0.22,0.043,0.411,0.043,0.63,0.043c8.111,0,9.55-3.199,9.702-3.791l0.038-0.299v-2.859
				C985.286,233.906,983.391,231.305,980.9,230.446L980.9,230.446z M975.925,221.678c1.898,0,3.458,1.747,3.458,3.867
				c0,2.199-0.41,3.974-1.15,5.125l-0.971,1.563c-0.411,0.187-0.84,0.279-1.314,0.279c-0.344,0-0.979,0-1.612-0.337l-0.892-1.521
				c-0.679-1.081-1-2.824-1-5.125C972.473,223.428,974.026,221.678,975.925,221.678L975.925,221.678z M961.769,223.835
				c2.643,0,4.753,2.378,4.753,5.274c0,3.232-0.438,5.609-1.37,7.097l-1.307,2.189c-0.555,0.223-1.235,0.334-1.934,0.334
				c-0.757,0-1.406-0.149-2.002-0.479l-1.335-2.083c-1.004-1.596-1.564-4.01-1.564-7.058
				C957.05,226.221,959.163,223.835,961.769,223.835L961.769,223.835z M946.644,222.569c1.878,0,3.455,1.71,3.455,3.827
				c0,2.341-0.327,4.035-1,5.125l-0.893,1.527c-0.631,0.333-1.265,0.333-1.604,0.333c-0.475,0-0.888-0.112-1.256-0.279l-0.997-1.566
				c-0.756-1.146-1.157-2.933-1.157-5.126C943.184,224.279,944.75,222.569,946.644,222.569L946.644,222.569z M949.283,241.93
				c-0.707,0.074-1.563,0.12-2.525,0.12c-5.57,0-6.95-1.467-7.174-1.745v-2.641c0-2.45,2.011-4.356,3.801-4.356l0.111-0.039
				c0.838,0.898,1.88,1.377,3.118,1.377c1.396,0,2.448-0.483,3.271-1.377h0.224c0.893,0,1.86,0.483,2.599,1.266
				c0.479,0.558,0.841,1.171,1.036,1.857C951.661,237.544,950.028,239.549,949.283,241.93L949.283,241.93z M971.795,248.207
				c-0.357,0.558-2.343,2.488-9.867,2.488c-7.699,0-9.555-2.046-9.879-2.453v-3.604c0-3.42,2.759-5.981,5.237-6.02l0.919-0.039
				c1.005,0.931,2.28,1.41,3.721,1.41c1.604,0,2.915-0.479,3.958-1.375h0.63c1.24,0,2.565,0.632,3.568,1.707
				c1.111,1.193,1.708,2.713,1.708,4.312L971.795,248.207L971.795,248.207z M983.027,239.435c-0.282,0.301-1.606,1.707-7.217,1.747
				c-0.375,0-0.926-0.044-1.55-0.074c-0.437-1.081-1.075-2.079-1.875-2.934c-1.042-1.113-2.28-1.931-3.604-2.344
				c0.07-0.224,0.106-0.445,0.182-0.68c0.188-0.535,0.48-1.035,0.896-1.477c0.779-0.817,1.718-1.26,2.604-1.26h0.211
				c0.821,0.889,1.884,1.37,3.259,1.37c1.257,0,2.308-0.481,3.119-1.37h0.121c1.794,0.041,3.82,1.895,3.82,4.383v2.635
				L983.027,239.435L983.027,239.435z"/>
		</g>
		<rect x="936.805" y="212.151" fill="none" width="50" height="50"/>
	</g>
	<g id="icon-m-telephony-call">
		<g>
			<polygon opacity="0.15" fill="#ACACAC" enable-background="new    " points="965.215,108.618 972.374,113.195 979.423,106.645 
				977.516,102.264 970.925,99.598 960.494,102.264 947.278,114.955 941.794,130.822 949.906,138.78 950.703,136.649 
				956.422,129.641 950.703,120.887 			"/>
			<path opacity="0.15" fill="#ACACAC" enable-background="new    " d="M978.661,104.851"/>
			<path opacity="0.6" enable-background="new    " d="M976.901,101.324l-0.123-0.151c-0.493-0.369-2.341-1.637-5.779-1.637
				c-3.998,0-10.551,1.789-19.193,10.206c-9.261,9.024-11.18,15.955-11.18,20.184c0,2.969,0.988,4.958,1.867,5.826l5.104,5.12h2.419
				l8.973-8.989v-2.399l-5.119-5.064c0-0.644,1.789-2.828,2.546-3.731c1.827-2.245,4.033-4.455,6.209-6.198
				c1.274-1.064,2.172-1.563,2.703-1.518l5.104,5.105h2.399l9.224-9.217v-2.414L976.901,101.324L976.901,101.324z M948.794,137.234
				l-2.217-2.25l6.592-6.597l2.255,2.254L948.794,137.234L948.794,137.234z M965.247,109.48c-1.763,0-3.354,1.201-4.765,2.321
				c-2.361,1.903-4.726,4.301-6.698,6.705c-2.335,2.851-4.729,5.775-2.287,8.258l0.449,0.451l-6.589,6.582l-0.456-0.492
				c-0.19-0.133-0.859-1.255-0.859-3.409c0-2.935,1.292-9.101,10.119-17.726c7.841-7.653,13.479-9.236,16.838-9.236
				c2.214,0,3.352,0.685,3.617,0.86l0.38,0.382l-6.809,6.815l-0.463-0.448C967.033,109.854,966.154,109.48,965.247,109.48
				L965.247,109.48z M971.6,114.422l-2.21-2.255l6.783-6.759l2.246,2.244L971.6,114.422L971.6,114.422z"/>
			<path fill="#BEBEBE" d="M976.833,99.259l-0.153-0.153c-0.452-0.371-2.329-1.638-5.751-1.638c-4,0-10.55,1.764-19.214,10.208
				c-9.257,9.025-11.184,15.957-11.158,20.183c0,2.97,0.992,4.959,1.865,5.788l5.066,5.106l2.397,0.041l8.988-9.046v-2.396
				l-5.122-5.03c0-0.646,1.782-2.828,2.583-3.732c1.82-2.285,4.035-4.493,6.185-6.245c1.295-1.029,2.179-1.522,2.702-1.483
				l5.124,5.099h2.396l9.18-9.22v-2.409L976.833,99.259L976.833,99.259z M948.724,135.166l-2.254-2.249l6.627-6.598l2.209,2.255
				L948.724,135.166L948.724,135.166z M965.137,107.405c-1.713,0-3.347,1.215-4.722,2.338c-2.333,1.905-4.71,4.262-6.675,6.704
				c-2.339,2.837-4.729,5.776-2.29,8.24l0.45,0.461l-6.596,6.591l-0.499-0.499c-0.146-0.132-0.838-1.257-0.838-3.41
				c0-2.932,1.272-9.099,10.116-17.723c7.827-7.657,13.488-9.236,16.84-9.236c2.21,0,3.351,0.685,3.618,0.859l0.379,0.385
				l-6.84,6.813l-0.449-0.449C966.966,107.787,966.091,107.405,965.137,107.405L965.137,107.405z M971.54,112.354l-2.247-2.246
				l6.814-6.836l2.242,2.254L971.54,112.354L971.54,112.354z"/>
		</g>
		<rect x="936.805" y="93.656" fill="none" width="50" height="50.001"/>
	</g>
	<g id="icon-m-telephony-ongoing-muted-on">
		<g>
			<polygon opacity="0.15" fill="#ACACAC" enable-background="new    " points="1312.52,623.177 1307.873,628.775 1314.759,641.612 
				1321.73,642.595 1326.906,640.012 1335.559,648.617 1327.939,655.2 1313.621,649.117 1303.986,638.902 1296.863,625.461 
				1300.139,619.298 1306.157,616.586 			"/>
			<path opacity="0.6" enable-background="new    " d="M1297.846,621.436l-0.146,0.148c-0.386,0.448-1.64,2.329-1.64,5.756
				c0,3.996,1.752,10.526,10.197,19.194c9.023,9.251,15.953,11.188,20.198,11.155c2.98,0,4.954-0.938,5.828-1.842l5.112-5.067
				v-2.417l-9.028-8.972h-2.362l-5.061,5.108c-0.635,0-2.824-1.755-3.729-2.507c-2.284-1.83-4.492-4.041-6.245-6.254
				c-1.025-1.253-1.521-2.17-1.508-2.66l5.122-5.123v-2.406l-9.225-9.219h-2.396L1297.846,621.436L1297.846,621.436z
				 M1333.759,649.537l-2.256,2.254l-6.588-6.593l2.241-2.254L1333.759,649.537L1333.759,649.537z M1305.994,633.127
				c0,1.712,1.218,3.35,2.324,4.727c1.924,2.354,4.303,4.76,6.696,6.691c2.861,2.328,5.794,4.763,8.269,2.283l0.461-0.456
				l6.59,6.598l-0.5,0.497c-0.149,0.188-1.256,0.84-3.422,0.859c-2.94,0-9.104-1.335-17.714-10.172
				c-7.655-7.815-9.252-13.443-9.252-16.834c0-2.205,0.686-3.317,0.871-3.575l0.37-0.373l6.837,6.769l-0.456,0.493
				C1306.375,631.335,1305.994,632.176,1305.994,633.127L1305.994,633.127z M1310.945,626.724l-2.252,2.255l-6.814-6.813
				l2.249-2.254L1310.945,626.724L1310.945,626.724z"/>
			<path opacity="0.6" enable-background="new    " d="M1331.623,624.859l4.686-4.688c0.346-0.332,0.569-0.832,0.569-1.354
				c0-0.492-0.227-0.992-0.569-1.367c-0.764-0.728-2.016-0.728-2.743,0l-4.702,4.682l-4.629-4.682c-0.781-0.728-2.021-0.728-2.746,0
				c-0.762,0.758-0.762,1.979,0,2.744l4.646,4.684l-4.646,4.63c-0.37,0.379-0.569,0.872-0.569,1.369c0,0.529,0.205,1.03,0.569,1.364
				c0.35,0.371,0.854,0.573,1.373,0.573l0,0c0.488,0,0.983-0.206,1.369-0.573l4.627-4.646l4.71,4.646
				c0.349,0.371,0.85,0.573,1.354,0.573c0.498,0,0.989-0.206,1.369-0.573c0.722-0.776,0.722-1.994,0-2.742L1331.623,624.859
				L1331.623,624.859z"/>
			<path fill="#FFFFFF" d="M1297.737,619.369l-0.115,0.15c-0.377,0.446-1.63,2.323-1.63,5.745c0,3.985,1.745,10.53,10.198,19.196
				c9.027,9.249,15.957,11.198,20.197,11.161c2.972,0,4.949-0.988,5.776-1.84l5.104-5.066V646.3l-8.973-8.972h-2.405l-5.038,5.109
				c-0.647,0-2.822-1.796-3.725-2.519c-2.287-1.847-4.496-4.056-6.271-6.247c-1.023-1.287-1.516-2.171-1.485-2.704l5.069-5.104
				v-2.398l-9.184-9.177h-2.402L1297.737,619.369L1297.737,619.369z M1333.696,647.468l-2.256,2.253l-6.599-6.629l2.249-2.205
				L1333.696,647.468L1333.696,647.468z M1305.927,631.053c0,1.723,1.187,3.355,2.323,4.732c1.925,2.354,4.27,4.714,6.706,6.689
				c2.854,2.327,5.788,4.711,8.264,2.277l0.421-0.45l6.625,6.592l-0.491,0.489c-0.192,0.151-1.293,0.858-3.424,0.858
				c-2.938,0-9.104-1.287-17.74-10.122c-7.607-7.81-9.219-13.479-9.219-16.84c0-2.208,0.695-3.346,0.877-3.571l0.365-0.418
				l6.83,6.812l-0.495,0.458C1306.309,629.23,1305.927,630.107,1305.927,631.053L1305.927,631.053z M1310.876,624.66l-2.25,2.256
				l-6.809-6.822l2.245-2.258L1310.876,624.66L1310.876,624.66z"/>
			<path fill="#FFFFFF" d="M1334.833,630.761L1334.833,630.761c-0.491,0-0.99-0.206-1.35-0.569l-12.078-12.092
				c-0.763-0.766-0.763-1.983,0-2.744c0.722-0.719,1.979-0.719,2.703,0l12.071,12.074c0.778,0.78,0.778,2.009,0,2.745
				C1335.859,630.561,1335.359,630.761,1334.833,630.761L1334.833,630.761L1334.833,630.761z"/>
			<path fill="#FFFFFF" d="M1322.762,630.761L1322.762,630.761c-0.497,0-0.992-0.206-1.338-0.569
				c-0.366-0.383-0.568-0.861-0.568-1.383c0-0.479,0.207-0.979,0.568-1.354l12.088-12.081c0.699-0.716,1.979-0.716,2.683,0
				c0.383,0.387,0.592,0.847,0.592,1.367c0,0.533-0.204,1.003-0.592,1.354l-12.072,12.087
				C1323.79,630.561,1323.29,630.761,1322.762,630.761L1322.762,630.761L1322.762,630.761z"/>
		</g>
		<rect x="1292.184" y="610.479" fill="none" width="50" height="49.996"/>
	</g>
	<g id="icon-m-telephony-ongoing-muted">
		<g>
			<polygon opacity="0.15" fill="#ACACAC" enable-background="new    " points="957.141,343.347 952.494,348.945 959.387,361.782 
				966.355,362.765 971.537,360.182 980.18,368.787 972.563,375.371 958.205,369.287 948.606,359.073 941.487,345.63 
				944.722,339.467 950.78,336.756 			"/>
			<path opacity="0.6" enable-background="new    " d="M942.462,341.605l-0.149,0.146c-0.367,0.448-1.635,2.329-1.635,5.756
				c0,3.996,1.765,10.526,10.2,19.195c9.032,9.251,15.962,11.188,20.19,11.156c2.986,0,4.958-0.938,5.824-1.841l5.123-5.069v-2.418
				l-9.027-8.97h-2.42l-5.023,5.107c-0.648,0-2.826-1.756-3.727-2.507c-2.28-1.831-4.49-4.042-6.265-6.255
				c-1.021-1.253-1.515-2.17-1.484-2.661l5.104-5.122v-2.406l-9.217-9.22h-2.396L942.462,341.605L942.462,341.605z M978.383,369.708
				l-2.255,2.254l-6.597-6.594l2.251-2.254L978.383,369.708L978.383,369.708z M950.614,353.296c0,1.713,1.224,3.354,2.323,4.729
				c1.906,2.354,4.268,4.758,6.7,6.69c2.854,2.328,5.787,4.766,8.267,2.283l0.451-0.456l6.596,6.599l-0.494,0.497
				c-0.151,0.188-1.271,0.839-3.428,0.857c-2.938,0-9.099-1.334-17.707-10.171c-7.664-7.816-9.254-13.445-9.254-16.835
				c0-2.206,0.688-3.318,0.856-3.576l0.386-0.373l6.813,6.77l-0.448,0.492C950.992,351.505,950.614,352.346,950.614,353.296
				L950.614,353.296z M955.564,346.894l-2.245,2.257l-6.813-6.815l2.243-2.254L955.564,346.894L955.564,346.894z"/>
			<path opacity="0.6" enable-background="new    " d="M976.251,345.028l4.683-4.688c0.345-0.331,0.529-0.831,0.529-1.354
				c0-0.492-0.189-0.992-0.529-1.367c-0.778-0.724-2.021-0.724-2.744,0l-4.685,4.683l-4.643-4.683c-0.771-0.724-2.011-0.724-2.744,0
				c-0.771,0.757-0.771,1.979,0,2.745l4.646,4.684l-4.646,4.631c-0.383,0.379-0.57,0.871-0.57,1.367c0,0.53,0.188,1.031,0.57,1.365
				c0.339,0.371,0.84,0.573,1.36,0.573l0,0c0.5,0,1-0.206,1.354-0.573l4.646-4.645l4.688,4.645c0.339,0.371,0.836,0.573,1.371,0.573
				c0.492,0,0.993-0.206,1.362-0.573c0.7-0.775,0.7-1.994,0-2.742L976.251,345.028L976.251,345.028z"/>
			<path fill="#BEBEBE" d="M942.362,339.538l-0.126,0.148c-0.364,0.45-1.633,2.326-1.633,5.749c0,3.984,1.762,10.529,10.204,19.195
				c9.028,9.249,15.958,11.199,20.186,11.162c2.992,0,4.958-0.987,5.793-1.841l5.1-5.065v-2.42l-8.972-8.972h-2.42l-5.035,5.108
				c-0.618,0-2.778-1.794-3.734-2.518c-2.246-1.847-4.453-4.056-6.212-6.247c-1.019-1.286-1.558-2.171-1.512-2.703l5.104-5.104
				v-2.399l-9.183-9.177h-2.399L942.362,339.538L942.362,339.538z M978.317,367.639l-2.253,2.253l-6.586-6.63l2.238-2.205
				L978.317,367.639L978.317,367.639z M950.548,351.223c0,1.722,1.183,3.354,2.326,4.731c1.906,2.354,4.267,4.714,6.706,6.69
				c2.854,2.327,5.789,4.711,8.229,2.276l0.449-0.449l6.627,6.595l-0.491,0.486c-0.206,0.15-1.292,0.858-3.479,0.858
				c-2.896,0-9.104-1.287-17.711-10.123c-7.613-7.81-9.216-13.479-9.216-16.84c0-2.208,0.682-3.343,0.834-3.572l0.42-0.417
				l6.815,6.813l-0.495,0.458C950.895,349.4,950.548,350.277,950.548,351.223L950.548,351.223z M955.496,344.829l-2.24,2.257
				l-6.813-6.822l2.238-2.258L955.496,344.829L955.496,344.829z"/>
			<path fill="#BEBEBE" d="M979.463,350.931L979.463,350.931c-0.501,0-0.994-0.206-1.371-0.57l-12.089-12.091
				c-0.694-0.768-0.694-1.985,0-2.742c0.781-0.721,2.021-0.721,2.747,0l12.072,12.071c0.779,0.78,0.779,2.012,0,2.746
				C980.487,350.73,979.994,350.931,979.463,350.931L979.463,350.931L979.463,350.931z"/>
			<path fill="#BEBEBE" d="M967.385,350.931L967.385,350.931c-0.494,0-0.993-0.206-1.375-0.57c-0.338-0.383-0.531-0.861-0.531-1.382
				c0-0.479,0.189-0.979,0.531-1.354l12.088-12.081c0.762-0.715,2.021-0.715,2.747,0c0.367,0.388,0.574,0.848,0.574,1.368
				c0,0.533-0.209,1.003-0.574,1.355l-12.088,12.089C968.411,350.73,967.918,350.931,967.385,350.931L967.385,350.931
				L967.385,350.931z"/>
		</g>
		<rect x="936.805" y="330.646" fill="none" width="50" height="50"/>
	</g>
	<g id="icon-dialer-speaker-on">
		<g>
			<polygon opacity="0.15" fill="#ACACAC" enable-background="new    " points="1310.061,732.621 1305.632,737.954 
				1312.201,750.171 1318.838,751.115 1323.771,748.646 1332.006,756.85 1324.749,763.119 1311.112,757.316 1301.938,747.596 
				1295.156,734.799 1298.275,728.921 1304.001,726.345 			"/>
			<path opacity="0.6" enable-background="new    " d="M1294.968,730.656l-0.104,0.119c-0.361,0.441-1.563,2.229-1.563,5.498
				c0,3.813,1.668,10.05,9.688,18.279c8.632,8.813,15.203,10.646,19.23,10.646c2.834,0,4.731-0.949,5.549-1.774l4.866-4.857v-2.306
				l-8.561-8.544h-2.283l-4.821,4.875c-0.584,0-2.646-1.703-3.548-2.43c-2.146-1.743-4.255-3.846-5.914-5.914
				c-0.982-1.21-1.489-2.064-1.441-2.572l4.858-4.86v-2.281l-8.784-8.745h-2.26L1294.968,730.656L1294.968,730.656z
				 M1329.207,757.417l-2.139,2.104l-6.282-6.273l2.145-2.151L1329.207,757.417L1329.207,757.417z M1302.77,741.748
				c0,1.676,1.136,3.189,2.229,4.53c1.813,2.254,4.063,4.505,6.382,6.389c2.696,2.206,5.5,4.494,7.834,2.179l0.434-0.437
				l6.275,6.282l-0.427,0.428c-0.194,0.195-1.226,0.832-3.318,0.832c-2.75,0-8.667-1.229-16.857-9.641
				c-7.257-7.456-8.82-12.837-8.82-16.035c0-2.102,0.696-3.186,0.838-3.442l0.399-0.36l6.441,6.503l-0.429,0.433
				C1303.098,740.049,1302.77,740.882,1302.77,741.748L1302.77,741.748z M1307.484,735.693l-2.146,2.146l-6.494-6.486l2.147-2.146
				L1307.484,735.693L1307.484,735.693z"/>
			<path opacity="0.6" enable-background="new    " d="M1339.146,751.942c-0.066,0-0.144-0.042-0.194-0.042l-2.363-1.017
				c-0.211-0.104-0.313-0.352-0.283-0.6c2.028-8.216-0.273-16.659-6.198-22.569c-4.502-4.466-10.453-6.912-16.832-6.912
				c-1.911,0-3.885,0.198-5.771,0.683c-0.199,0.06-0.469-0.063-0.582-0.28l-1.012-2.314c-0.074-0.146-0.074-0.271,0-0.429
				c0.072-0.137,0.176-0.211,0.328-0.283c2.271-0.589,4.672-0.896,7.033-0.896c7.32,0,14.177,2.848,19.296,7.991
				c6.853,6.848,9.558,16.938,7.069,26.328c-0.038,0.148-0.144,0.3-0.29,0.341C1339.292,751.908,1339.221,751.942,1339.146,751.942
				L1339.146,751.942L1339.146,751.942z"/>
			<path opacity="0.6" enable-background="new    " d="M1334.104,749.738c-0.068,0-0.144,0-0.175-0.043l-2.38-1.021
				c-0.193-0.111-0.32-0.323-0.271-0.582c1.199-6.038-0.686-12.215-5.005-16.531c-3.48-3.479-8.082-5.426-12.993-5.426
				c-1.203,0-2.38,0.142-3.6,0.355c-0.214,0.078-0.466-0.072-0.542-0.287l-1.015-2.3c-0.076-0.146-0.076-0.35,0-0.438
				c0.069-0.144,0.188-0.251,0.325-0.288c1.601-0.328,3.235-0.509,4.826-0.509c5.875,0,11.354,2.238,15.488,6.359
				c5.285,5.296,7.462,12.876,5.826,20.271c-0.039,0.141-0.12,0.282-0.254,0.354
				C1334.287,749.738,1334.179,749.738,1334.104,749.738L1334.104,749.738L1334.104,749.738z"/>
			<path opacity="0.6" enable-background="new    " d="M1328.884,747.44c-0.067,0-0.145,0-0.218-0.036l-2.423-1.058
				c-0.183-0.105-0.332-0.316-0.299-0.529c0.362-3.871-0.942-7.607-3.626-10.335c-2.694-2.646-6.452-3.99-10.344-3.594
				c-0.192,0-0.428-0.109-0.5-0.328l-1.061-2.431c-0.064-0.14-0.064-0.286,0-0.433c0.073-0.146,0.226-0.253,0.366-0.253
				c0.835-0.146,1.668-0.221,2.501-0.221c4.353,0,8.454,1.7,11.538,4.8c3.626,3.629,5.329,8.854,4.563,14.007
				c-0.031,0.142-0.119,0.286-0.249,0.35C1329.063,747.413,1328.957,747.44,1328.884,747.44L1328.884,747.44L1328.884,747.44z"/>
			<path fill="#FFFFFF" d="M1294.956,728.604l-0.11,0.146c-0.396,0.466-1.601,2.227-1.601,5.499c0,3.778,1.701,10.044,9.715,18.279
				c8.604,8.813,15.205,10.631,19.233,10.631c2.849-0.037,4.748-0.951,5.567-1.771l4.866-4.88v-2.284l-8.56-8.555h-2.283
				l-4.823,4.875c-0.62,0.038-2.646-1.677-3.552-2.39c-2.147-1.741-4.25-3.847-5.914-5.893c-1.012-1.235-1.485-2.069-1.441-2.604
				l4.875-4.864v-2.287l-8.778-8.784h-2.288L1294.956,728.604L1294.956,728.604z M1329.196,755.402l-2.143,2.106l-6.313-6.28
				l2.14-2.146L1329.196,755.402L1329.196,755.402z M1302.752,739.732c0,1.637,1.132,3.188,2.229,4.535
				c1.777,2.223,4.063,4.491,6.383,6.383c2.691,2.226,5.506,4.487,7.844,2.176l0.432-0.437l6.279,6.282l-0.429,0.441
				c-0.194,0.18-1.224,0.818-3.316,0.818c-2.79,0-8.663-1.277-16.865-9.64c-7.298-7.464-8.813-12.841-8.813-16.033
				c0-2.104,0.667-3.188,0.834-3.453l0.351-0.36l6.49,6.498l-0.429,0.429C1303.076,738.037,1302.752,738.869,1302.752,739.732
				L1302.752,739.732z M1307.466,733.644l-2.145,2.147l-6.496-6.498l2.144-2.098L1307.466,733.644L1307.466,733.644z"/>
			<path fill="#FFFFFF" d="M1339.129,749.892c-0.066,0-0.137,0-0.209-0.033l-2.323-1.015c-0.214-0.076-0.354-0.33-0.286-0.587
				c2.029-8.198-0.272-16.646-6.235-22.553c-4.463-4.494-10.413-6.971-16.799-6.971c-1.913,0-3.881,0.258-5.775,0.729
				c-0.245,0.039-0.505-0.075-0.573-0.271l-1.015-2.317c-0.075-0.15-0.075-0.329,0-0.428c0.068-0.146,0.175-0.274,0.323-0.295
				c2.279-0.585,4.683-0.9,7.036-0.9c7.296,0,14.152,2.851,19.296,7.998c6.854,6.826,9.561,16.935,7.07,26.33
				c-0.034,0.146-0.146,0.271-0.293,0.339C1339.275,749.892,1339.202,749.892,1339.129,749.892L1339.129,749.892L1339.129,749.892z"
				/>
			<path fill="#FFFFFF" d="M1334.087,747.722c-0.067,0-0.137-0.042-0.213-0.042l-2.319-1.011c-0.189-0.113-0.326-0.366-0.271-0.585
				c1.194-6.044-0.689-12.216-5.015-16.581c-3.477-3.448-8.08-5.363-13.013-5.363c-1.21,0-2.396,0.121-3.557,0.356
				c-0.193,0.039-0.474-0.071-0.579-0.283l-1.016-2.302c-0.043-0.144-0.043-0.349,0.028-0.478c0.071-0.112,0.193-0.21,0.354-0.271
				c1.596-0.354,3.163-0.544,4.802-0.544c5.841,0,11.355,2.301,15.448,6.438c5.344,5.294,7.53,12.871,5.891,20.258
				c-0.04,0.135-0.146,0.271-0.294,0.345C1334.237,747.68,1334.165,747.722,1334.087,747.722L1334.087,747.722L1334.087,747.722z"/>
			<path fill="#FFFFFF" d="M1328.87,745.429c-0.075,0-0.148-0.037-0.217-0.037l-2.437-1.09c-0.212-0.063-0.322-0.289-0.322-0.508
				c0.4-3.863-0.901-7.646-3.59-10.327c-2.69-2.689-6.459-3.991-10.337-3.595c-0.196,0-0.432-0.104-0.508-0.324l-1.087-2.437
				c-0.04-0.14-0.04-0.338,0.039-0.43c0.072-0.149,0.213-0.254,0.361-0.301c0.832-0.104,1.682-0.173,2.496-0.173
				c4.357,0,8.471,1.703,11.536,4.75c3.632,3.66,5.331,8.88,4.566,14.025c-0.032,0.145-0.116,0.271-0.273,0.35
				C1329.014,745.395,1328.939,745.429,1328.87,745.429L1328.87,745.429L1328.87,745.429z"/>
		</g>
		<rect x="1292.402" y="714.699" fill="none" width="50" height="50"/>
	</g>
	<g id="icon-dialer-speaker">
		<g>
			<polygon opacity="0.15" fill="#ACACAC" enable-background="new    " points="953.521,467.063 949.1,472.397 955.667,484.614 
				962.3,485.553 967.234,483.089 975.464,491.292 968.215,497.563 954.577,491.759 945.396,482.036 938.615,469.241 
				941.736,463.364 947.471,460.786 			"/>
			<path opacity="0.6" enable-background="new    " d="M938.433,465.097l-0.113,0.112c-0.354,0.463-1.575,2.246-1.575,5.502
				c0,3.813,1.68,10.047,9.693,18.281c8.634,8.811,15.198,10.625,19.234,10.625c2.835,0,4.752-0.941,5.548-1.758l4.869-4.877v-2.289
				l-8.544-8.555h-2.304l-4.821,4.891c-0.584,0-2.627-1.705-3.549-2.43c-2.146-1.74-4.255-3.847-5.911-5.916
				c-0.978-1.226-1.49-2.064-1.444-2.57l4.868-4.865v-2.279l-8.778-8.739h-2.241L938.433,465.097L938.433,465.097z M972.673,491.86
				l-2.139,2.104l-6.276-6.272l2.143-2.15L972.673,491.86L972.673,491.86z M946.236,476.19c0,1.676,1.125,3.188,2.216,4.529
				c1.809,2.247,4.06,4.5,6.379,6.387c2.721,2.215,5.512,4.49,7.832,2.178l0.437-0.434l6.273,6.282l-0.428,0.433
				c-0.195,0.19-1.232,0.822-3.316,0.822c-2.764,0-8.669-1.229-16.864-9.638c-7.256-7.461-8.814-12.836-8.814-16.039
				c0-2.098,0.689-3.184,0.833-3.441l0.394-0.36l6.461,6.51l-0.433,0.431C946.559,474.491,946.236,475.325,946.236,476.19
				L946.236,476.19z M950.948,470.137l-2.146,2.146l-6.502-6.492l2.15-2.146L950.948,470.137L950.948,470.137z"/>
			<path opacity="0.6" enable-background="new    " d="M982.613,486.387c-0.073,0-0.146-0.044-0.182-0.044l-2.383-1.014
				c-0.206-0.106-0.318-0.354-0.271-0.602c2.034-8.215-0.289-16.656-6.206-22.566c-4.493-4.471-10.444-6.916-16.827-6.916
				c-1.911,0-3.861,0.201-5.759,0.687c-0.212,0.059-0.481-0.063-0.586-0.291l-1.02-2.312c-0.073-0.147-0.073-0.289,0-0.43
				c0.071-0.14,0.185-0.209,0.326-0.283c2.293-0.586,4.676-0.898,7.04-0.898c7.32,0,14.173,2.851,19.313,7.992
				c6.847,6.847,9.548,16.938,7.063,26.328c-0.031,0.146-0.15,0.299-0.273,0.338C982.761,486.351,982.682,486.387,982.613,486.387
				L982.613,486.387L982.613,486.387z"/>
			<path opacity="0.6" enable-background="new    " d="M977.565,484.181c-0.07,0-0.146,0-0.184-0.044l-2.354-1.012
				c-0.222-0.113-0.354-0.33-0.293-0.588c1.2-6.037-0.686-12.217-5.003-16.535c-3.482-3.473-8.084-5.422-12.995-5.422
				c-1.201,0-2.38,0.131-3.601,0.354c-0.217,0.078-0.467-0.066-0.54-0.285l-1.018-2.303c-0.074-0.144-0.074-0.347,0-0.439
				c0.074-0.143,0.196-0.246,0.334-0.287c1.6-0.326,3.239-0.506,4.821-0.506c5.891,0,11.354,2.248,15.484,6.385
				c5.303,5.279,7.479,12.865,5.851,20.25c-0.039,0.146-0.151,0.291-0.275,0.363C977.755,484.181,977.639,484.181,977.565,484.181
				L977.565,484.181L977.565,484.181z"/>
			<path opacity="0.6" enable-background="new    " d="M972.344,481.884c-0.068,0-0.146,0-0.216-0.036l-2.427-1.056
				c-0.188-0.106-0.333-0.321-0.276-0.53c0.354-3.871-0.938-7.605-3.629-10.337c-2.683-2.646-6.452-3.993-10.336-3.592
				c-0.221,0-0.437-0.121-0.51-0.334l-1.052-2.424c-0.071-0.141-0.071-0.287,0-0.438c0.063-0.144,0.192-0.25,0.353-0.25
				c0.835-0.146,1.676-0.226,2.502-0.226c4.354,0,8.467,1.707,11.531,4.799c3.635,3.63,5.345,8.857,4.573,14.007
				c-0.04,0.145-0.146,0.286-0.272,0.354C972.526,481.851,972.42,481.884,972.344,481.884L972.344,481.884L972.344,481.884z"/>
			<path fill="#BEBEBE" d="M938.422,463.048l-0.12,0.125c-0.395,0.48-1.594,2.246-1.594,5.513c0,3.774,1.712,10.049,9.716,18.278
				c8.603,8.813,15.194,10.634,19.235,10.634c2.831-0.035,4.749-0.945,5.547-1.771l4.864-4.875v-2.283l-8.545-8.549h-2.306
				l-4.8,4.871c-0.613,0.037-2.646-1.679-3.552-2.395c-2.146-1.738-4.241-3.845-5.918-5.89c-1.013-1.235-1.48-2.072-1.439-2.59
				l4.868-4.875v-2.285l-8.781-8.778h-2.3L938.422,463.048L938.422,463.048z M972.66,489.844l-2.146,2.105l-6.313-6.277l2.146-2.146
				L972.66,489.844L972.66,489.844z M946.218,474.175c0,1.632,1.129,3.191,2.22,4.535c1.774,2.224,4.061,4.494,6.375,6.381
				c2.69,2.228,5.505,4.494,7.842,2.175l0.438-0.431l6.273,6.283l-0.43,0.432c-0.194,0.185-1.225,0.818-3.318,0.818
				c-2.77,0-8.668-1.27-16.868-9.641c-7.286-7.459-8.814-12.832-8.814-16.029c0-2.104,0.671-3.191,0.842-3.449l0.354-0.36
				l6.508,6.493l-0.434,0.435C946.545,472.474,946.218,473.31,946.218,474.175L946.218,474.175z M950.929,468.087l-2.134,2.146
				l-6.518-6.512l2.146-2.082L950.929,468.087L950.929,468.087z"/>
			<path fill="#BEBEBE" d="M982.6,484.335c-0.071,0-0.146,0-0.223-0.037l-2.318-1.012c-0.193-0.076-0.353-0.336-0.271-0.586
				c2.03-8.199-0.291-16.65-6.241-22.559c-4.471-4.488-10.419-6.972-16.798-6.972c-1.915,0-3.876,0.263-5.771,0.732
				c-0.271,0.039-0.509-0.078-0.589-0.275l-1.011-2.313c-0.073-0.15-0.073-0.33,0-0.431c0.072-0.146,0.187-0.272,0.323-0.295
				c2.304-0.584,4.678-0.897,7.038-0.897c7.297,0,14.165,2.848,19.313,7.998c6.854,6.823,9.546,16.934,7.063,26.328
				c-0.037,0.146-0.118,0.271-0.271,0.34C982.74,484.335,982.673,484.335,982.6,484.335L982.6,484.335L982.6,484.335z"/>
			<path fill="#BEBEBE" d="M977.557,482.165c-0.069,0-0.146-0.043-0.221-0.043l-2.299-1.014c-0.218-0.109-0.325-0.363-0.292-0.586
				c1.206-6.039-0.689-12.217-5.004-16.58c-3.482-3.451-8.095-5.359-13.024-5.359c-1.2,0-2.392,0.121-3.552,0.355
				c-0.204,0.037-0.49-0.074-0.584-0.295l-1.019-2.3c-0.037-0.137-0.037-0.34,0.036-0.467c0.058-0.115,0.192-0.215,0.329-0.271
				c1.602-0.354,3.191-0.533,4.819-0.533c5.825,0,11.354,2.305,15.454,6.434c5.343,5.287,7.521,12.879,5.885,20.271
				c-0.038,0.123-0.143,0.26-0.285,0.332C977.7,482.118,977.626,482.165,977.557,482.165L977.557,482.165L977.557,482.165z"/>
			<path fill="#BEBEBE" d="M972.329,479.87c-0.073,0-0.146-0.035-0.215-0.035l-2.433-1.09c-0.197-0.072-0.321-0.289-0.321-0.508
				c0.393-3.863-0.896-7.648-3.602-10.33c-2.68-2.693-6.453-3.996-10.33-3.594c-0.222,0-0.438-0.119-0.513-0.33l-1.079-2.438
				c-0.038-0.135-0.038-0.35,0.041-0.428c0.071-0.146,0.213-0.258,0.354-0.291c0.832-0.113,1.677-0.18,2.498-0.18
				c4.353,0,8.469,1.697,11.538,4.742c3.63,3.664,5.347,8.887,4.566,14.034c-0.041,0.123-0.143,0.271-0.292,0.354
				C972.476,479.837,972.4,479.87,972.329,479.87L972.329,479.87L972.329,479.87z"/>
		</g>
		<rect x="935.866" y="449.142" fill="none" width="50" height="50"/>
	</g>
	<g id="dialer-numberentry-bg">
		
			<linearGradient id="SVGID_2_" gradientUnits="userSpaceOnUse" x1="1273.0918" y1="-4.1953" x2="1273.0918" y2="-69.1958" gradientTransform="matrix(1 0 0 1 8 320.5938)">
			<stop  offset="0" style="stop-color:#535354"/>
			<stop  offset="0.5" style="stop-color:#616262"/>
			<stop  offset="1" style="stop-color:#535354"/>
		</linearGradient>
		<rect x="1214.98" y="251.398" fill="url(#SVGID_2_)" width="132.222" height="65"/>
	</g>
	<g id="dialer-callscreen-meegites">
		<rect x="1215.646" y="26.538" fill="none" width="132.223" height="178.333"/>
		<g>
			<path fill="#757575" d="M1226.366,41.987c-4.802,0-8.7,3.892-8.7,8.698c0,4.81,3.899,8.702,8.7,8.702
				c4.809,0,8.709-3.893,8.709-8.702C1235.075,45.879,1231.175,41.987,1226.366,41.987z"/>
			<path fill="#757575" d="M1239.27,37.61c-4.807,0-8.699,3.891-8.699,8.699c0,4.807,3.895,8.701,8.699,8.701
				c4.812,0,8.704-3.895,8.704-8.701C1247.974,41.501,1244.079,37.61,1239.27,37.61z"/>
			<path fill="#757575" d="M1250.188,34.194c-4.8,0-8.698,3.898-8.698,8.707c0,4.807,3.898,8.703,8.698,8.703
				c4.81,0,8.707-3.896,8.707-8.703C1258.895,38.093,1254.995,34.194,1250.188,34.194z"/>
			<path fill="#757575" d="M1222.956,53.896c0-4.334-3.162-7.918-7.309-8.586v17.17
				C1219.794,61.812,1222.956,58.224,1222.956,53.896z"/>
			<path fill="#757575" d="M1271.134,181.234l-2.791-68.834c-0.109-2.683-0.497-6.615-0.857-8.73
				c-0.359-2.122,0.816-5.488,2.615-7.477l7.173-7.915c1.804-1.99,1.913-5.339,0.25-7.449l-25.229-31.866
				c-1.672-2.107-5.063-2.974-7.529-1.919l-29.114,12.392v132.281l50.822-5.114C1269.139,186.334,1271.244,183.914,1271.134,181.234
				z M1236.905,72.609c-2.24,0-4.057-1.815-4.057-4.059c0-2.241,1.814-4.056,4.057-4.056s4.058,1.814,4.058,4.056
				C1240.963,70.794,1239.146,72.609,1236.905,72.609z M1248.636,60.22c2.244,0,4.061,1.816,4.061,4.063
				c0,2.241-1.814,4.055-4.061,4.055s-4.055-1.813-4.055-4.055C1244.581,62.036,1246.392,60.22,1248.636,60.22z M1253.095,111.182
				c-4.991-0.627-7.426-4.863-7.426-4.863s3.532-3.096,5.197-3.096c1.666,0,2.025,2.09,6.321,0.697
				c2.046-0.669,5.39,4.065,5.39,4.065S1258.097,111.811,1253.095,111.182z"/>
			<path fill="#757575" d="M1321.618,54.276c-2.561-0.866-6.021,0.158-7.696,2.275l-25.354,32.025
				c-1.678,2.116-1.563,5.485,0.252,7.487l7.196,7.948c1.813,2.003,3.495,4.875,3.729,6.384c0.242,1.51,2.624,2.42,5.297,2.023
				l33.742-4.977c2.674-0.396,3.938,1.289,2.811,3.744l-3.651,7.968c-1.129,2.454-4.213,4.016-6.858,3.472l-26.95-5.569
				c-2.646-0.545-5.182,1.186-5.636,3.851l-3.729,42.767c-0.454,2.665,1.313,5.374,3.934,6.03l49.168-0.303V63.154L1321.618,54.276z
				 M1325.2,80.335c-2.263,0-4.093-1.829-4.093-4.089c0-2.261,1.829-4.089,4.093-4.089c2.257,0,4.092,1.828,4.092,4.089
				C1329.292,78.506,1327.457,80.335,1325.2,80.335z M1341.37,85.052c-2.262,0-4.092-1.83-4.092-4.089
				c0-2.261,1.829-4.089,4.092-4.089c2.257,0,4.092,1.828,4.092,4.089C1345.462,83.222,1343.627,85.052,1341.37,85.052z"/>
			<path fill="#757575" d="M1296.388,161.942c-2.7,0-4.787,2.203-4.645,4.901l0.979,18.141c0.147,2.695,2.472,5.028,5.165,5.178
				l49.98,2.822v-31.042H1296.388z"/>
			<polygon fill="#757575" points="1347.869,187.553 1343.412,188.141 1344.202,204.871 1347.869,204.871 			"/>
			<polygon fill="#757575" points="1313.854,181.975 1314.727,204.871 1320.759,204.871 1321.368,180.977 			"/>
			<path fill="#757575" d="M1269.782,182.285l-54.136-2.861v25.447h57.774l0.949-17.479
				C1274.515,184.725,1272.451,182.428,1269.782,182.285z"/>
		</g>
	</g>
</g>
<g id="Naming-text">
	
		<text id="text2928" transform="matrix(1 0 0 1 26.2383 326.3525)" fill="#FFFFFF" font-family="'MyriadPro-Regular'" font-size="20">dialer-call-button-background</text>
	
		<text id="text2932" transform="matrix(1 0 0 1 26.2383 464.9229)" fill="#FFFFFF" font-family="'MyriadPro-Regular'" font-size="20">dialer-call-button-background-pressed</text>
	
		<text id="text2954" transform="matrix(1 0 0 1 26.2383 603.4941)" fill="#FFFFFF" font-family="'MyriadPro-Regular'" font-size="20">dialer-end-button-background</text>
	
		<text id="text2958" transform="matrix(1 0 0 1 26.2383 742.0664)" fill="#FFFFFF" font-family="'MyriadPro-Regular'" font-size="20">dialer-end-button-background-pressed</text>
	<text transform="matrix(1 0 0 1 26.6226 47.4336)" fill="#FFFFFF" font-family="'ArialMT'" font-size="40">Backgrounds</text>
	<text transform="matrix(1 0 0 1 530.8086 151.9219)" fill="#FFFFFF" font-family="'MyriadPro-Regular'" font-size="10">icon-dialer-favorite-off</text>
	<text transform="matrix(1 0 0 1 677.0151 151.9219)" fill="#FFFFFF" font-family="'MyriadPro-Regular'" font-size="10">icon-dialer-favorite-on</text>
	<text transform="matrix(1 0 0 1 685.4902 623.9219)" fill="#FFFFFF" font-family="'MyriadPro-Regular'" font-size="10">icon-dialpad-open</text>
	<text transform="matrix(1 0 0 1 915.9609 157.9121)" fill="#FFFFFF" font-family="'MyriadPro-Regular'" font-size="10">icon-m-telephony-call</text>
	<text transform="matrix(1 0 0 1 895.9766 269.9121)" fill="#FFFFFF" font-family="'MyriadPro-Regular'" font-size="10">icon-m-telephony-call-combine</text>
	<text transform="matrix(1 0 0 1 889.7305 393.9121)" fill="#FFFFFF" font-family="'MyriadPro-Regular'" font-size="10">icon-m-telephony-ongoing-muted</text>
	<text transform="matrix(1 0 0 1 922.0703 517.9121)" fill="#FFFFFF" font-family="'MyriadPro-Regular'" font-size="10">icon-dialer-speaker</text>
	<text transform="matrix(1 0 0 1 685.6772 534.832)" fill="#FFFFFF" font-family="'MyriadPro-Regular'" font-size="10">icon-dialpad-close</text>
	<text transform="matrix(1 0 0 1 542.8086 534.7471)" fill="#FFFFFF" font-family="'MyriadPro-Regular'" font-size="10">icon-dialer-home</text>
	<text transform="matrix(1 0 0 1 530.8086 437.541)" fill="#FFFFFF" font-family="'MyriadPro-Regular'" font-size="10">icon-dialer-phone-off</text>
	<text transform="matrix(1 0 0 1 677.0151 437.541)" fill="#FFFFFF" font-family="'MyriadPro-Regular'" font-size="10">icon-dialer-phone-on</text>
	<text transform="matrix(1 0 0 1 927.582 612.3779)" fill="#FFFFFF" font-family="'MyriadPro-Regular'" font-size="10">icon-dialer-hold</text>
	<text transform="matrix(1 0 0 1 530.8086 344.6152)" fill="#FFFFFF" font-family="'MyriadPro-Regular'" font-size="10">icon-dialer-history-off</text>
	<text transform="matrix(1 0 0 1 677.0151 344.6152)" fill="#FFFFFF" font-family="'MyriadPro-Regular'" font-size="10">icon-dialer-history-on</text>
	<text transform="matrix(1 0 0 1 530.8086 247.1289)" fill="#FFFFFF" font-family="'MyriadPro-Regular'" font-size="10">icon-dialer-people-off</text>
	<text transform="matrix(1 0 0 1 677.0151 247.1289)" fill="#FFFFFF" font-family="'MyriadPro-Regular'" font-size="10">icon-dialer-people-on</text>
	
		<text id="text4352" transform="matrix(1 0 0 1 27.2627 188.6816)" fill="#FFFFFF" font-family="'MyriadPro-Regular'" font-size="20">keypad-section-background</text>
</g>
<use xlink:href="#Icon-bounder-box"  width="50" height="50" x="-25" y="-25" transform="matrix(1 0 0 -1 83.5723 841.9082)" overflow="visible" enable-background="new    "/>
<rect id="symbol-placement-indicator" x="32.489" y="797.659" fill="none" stroke="#F40606" width="98" height="92.668"/>
<g>
	<text transform="matrix(1 0 0 1 465.9922 46.0889)" fill="#FFFFFF" font-family="'ArialMT'" font-size="40">Toolbar Tab nav icons</text>
</g>
</svg>
