<?xml version="1.0" encoding="UTF-8" standalone="no"?>
<!-- Created with Inkscape (http://www.inkscape.org/) -->

<svg
   xmlns:dc="http://purl.org/dc/elements/1.1/"
   xmlns:cc="http://creativecommons.org/ns#"
   xmlns:rdf="http://www.w3.org/1999/02/22-rdf-syntax-ns#"
   xmlns:svg="http://www.w3.org/2000/svg"
   xmlns="http://www.w3.org/2000/svg"
   xmlns:sodipodi="http://sodipodi.sourceforge.net/DTD/sodipodi-0.dtd"
   xmlns:inkscape="http://www.inkscape.org/namespaces/inkscape"
   id="svg9569"
   sodipodi:version="0.32"
   inkscape:version="0.47 r22583"
   width="32"
   height="32"
   version="1.0"
   sodipodi:docname="icons-Applications-dialer.svg"
   inkscape:output_extension="org.inkscape.output.svg.inkscape">
  <title
     id="title2812">Cell phone icon black</title>
  <metadata
     id="metadata9574">
    <rdf:RDF>
      <cc:Work
         rdf:about="">
        <dc:format>image/svg+xml</dc:format>
        <dc:type
           rdf:resource="http://purl.org/dc/dcmitype/StillImage" />
        <dc:title>Cell phone icon black</dc:title>
        <cc:license
           rdf:resource="http://commons.wikimedia.org/wiki/File:Cell_phone_icon_black.svg#Licensing" />
        <dc:description>cell phone icon</dc:description>
        <dc:contributor>
          <cc:Agent>
            <dc:title>Shane Bryan &lt;shane.bryan@linux.intel.com&gt;</dc:title>
          </cc:Agent>
        </dc:contributor>
        <dc:creator>
          <cc:Agent>
            <dc:title>Patientttt</dc:title>
          </cc:Agent>
        </dc:creator>
        <dc:rights>
          <cc:Agent>
            <dc:title>Public Domain</dc:title>
          </cc:Agent>
        </dc:rights>
        <dc:date>17 June 2010</dc:date>
        <dc:source>http://commons.wikimedia.org/wiki/File:Cell_phone_icon_black.svg</dc:source>
        <dc:subject>
          <rdf:Bag>
            <rdf:li>phone cell dial telephone call</rdf:li>
          </rdf:Bag>
        </dc:subject>
      </cc:Work>
      <cc:License
         rdf:about="http://creativecommons.org/licenses/publicdomain/">
        <cc:permits
           rdf:resource="http://creativecommons.org/ns#Reproduction" />
        <cc:permits
           rdf:resource="http://creativecommons.org/ns#Distribution" />
        <cc:permits
           rdf:resource="http://creativecommons.org/ns#DerivativeWorks" />
      </cc:License>
    </rdf:RDF>
  </metadata>
  <defs
     id="defs9572">
    <inkscape:perspective
       sodipodi:type="inkscape:persp3d"
       inkscape:vp_x="0 : 98.5 : 1"
       inkscape:vp_y="0 : 1000 : 0"
       inkscape:vp_z="112 : 98.5 : 1"
       inkscape:persp3d-origin="56 : 65.666667 : 1"
       id="perspective2511" />
  </defs>
  <sodipodi:namedview
     inkscape:window-height="930"
     inkscape:window-width="1280"
     inkscape:pageshadow="2"
     inkscape:pageopacity="0.0"
     guidetolerance="10.0"
     gridtolerance="10.0"
     objecttolerance="10.0"
     borderopacity="1.0"
     bordercolor="#666666"
     pagecolor="#ffffff"
     id="base"
     inkscape:zoom="21.1875"
     inkscape:cx="16"
     inkscape:cy="16"
     inkscape:window-x="0"
     inkscape:window-y="25"
     inkscape:current-layer="svg9569"
     showgrid="false"
     inkscape:window-maximized="0" />
  <path
     style="fill:#000000;fill-opacity:1"
     d="M 11.553878,30.821762 C 11.217114,30.732325 10.581349,30.335275 10.14107,29.939426 8.7774343,28.713401 8.8216374,29.117163 8.8226799,17.8969 8.8232996,11.25298 8.8816018,7.8865017 9.0037121,7.4441051 9.2692102,6.4822241 10.673653,5.1254127 11.548626,4.985499 l 0.669703,-0.1070896 0.05549,-1.5961828 c 0.06548,-1.8832897 0.289059,-2.2822237 1.279061,-2.2822237 0.965885,0 1.141992,0.3318908 1.141992,2.1522078 l 0,1.5555197 2.814197,0.078432 c 2.433705,0.067826 2.903931,0.1243842 3.477891,0.4183071 0.872615,0.4468618 1.800295,1.4907068 2.016378,2.2688738 0.113135,0.4074255 0.173405,4.0178447 0.173999,10.4235567 10e-4,11.215061 0.04446,10.817215 -1.313494,12.038124 -0.502808,0.452068 -1.064354,0.782995 -1.525836,0.899198 -0.905256,0.227946 -7.916342,0.218001 -8.784132,-0.01246 z m 9.960326,-15.661055 c 0.206854,-0.206855 0.294142,-6.8625707 0.09675,-7.3769765 -0.08755,-0.2281604 -0.728102,-0.2580545 -5.529368,-0.2580545 -4.801265,0 -5.441814,0.029894 -5.529367,0.2580545 -0.197398,0.5144058 -0.110112,7.1701215 0.09674,7.3769765 0.28012,0.28012 10.585127,0.28012 10.865246,0 z"
     id="path9598" />
</svg>
